<?xml version="1.0" encoding="UTF-8" standalone="no"?>
<svg width="595.44px" height="841.68px" viewBox="0 0 595.44 841.68"
 xmlns="http://www.w3.org/2000/svg" xmlns:xlink="http://www.w3.org/1999/xlink" version="1.2" baseProfile="tiny">
<title>Title</title>
<desc>Generated by MuseScore 2.3.2</desc>
<polyline class="StaffLines" fill="none" stroke="#000000" stroke-width="0.40" stroke-linejoin="bevel" points="28.3465,113.347 567.094,113.347"/>
<polyline class="StaffLines" fill="none" stroke="#000000" stroke-width="0.40" stroke-linejoin="bevel" points="28.3465,118.347 567.094,118.347"/>
<polyline class="StaffLines" fill="none" stroke="#000000" stroke-width="0.40" stroke-linejoin="bevel" points="28.3465,123.347 567.094,123.347"/>
<polyline class="StaffLines" fill="none" stroke="#000000" stroke-width="0.40" stroke-linejoin="bevel" points="28.3465,128.347 567.094,128.347"/>
<polyline class="StaffLines" fill="none" stroke="#000000" stroke-width="0.40" stroke-linejoin="bevel" points="28.3465,133.347 567.094,133.347"/>
<polyline class="StaffLines" fill="none" stroke="#000000" stroke-width="0.40" stroke-linejoin="bevel" points="28.3465,165.847 567.094,165.847"/>
<polyline class="StaffLines" fill="none" stroke="#000000" stroke-width="0.40" stroke-linejoin="bevel" points="28.3465,170.847 567.094,170.847"/>
<polyline class="StaffLines" fill="none" stroke="#000000" stroke-width="0.40" stroke-linejoin="bevel" points="28.3465,175.847 567.094,175.847"/>
<polyline class="StaffLines" fill="none" stroke="#000000" stroke-width="0.40" stroke-linejoin="bevel" points="28.3465,180.847 567.094,180.847"/>
<polyline class="StaffLines" fill="none" stroke="#000000" stroke-width="0.40" stroke-linejoin="bevel" points="28.3465,185.847 567.094,185.847"/>
<polyline class="BarLine" fill="none" stroke="#000000" stroke-width="0.80" stroke-linejoin="bevel" points="28.7465,113.347 28.7465,185.847"/>
<polyline class="BarLine" fill="none" stroke="#000000" stroke-width="0.80" stroke-linejoin="bevel" points="562.194,165.847 562.194,185.847"/>
<polyline class="BarLine" fill="none" stroke="#000000" stroke-width="2.50" stroke-linejoin="bevel" points="565.844,165.847 565.844,185.847"/>
<polyline class="BarLine" fill="none" stroke="#000000" stroke-width="0.80" stroke-linejoin="bevel" points="562.194,113.347 562.194,133.347"/>
<polyline class="BarLine" fill="none" stroke="#000000" stroke-width="2.50" stroke-linejoin="bevel" points="565.844,113.347 565.844,133.347"/>
<polyline class="BarLine" fill="none" stroke="#000000" stroke-width="0.80" stroke-linejoin="bevel" points="466.555,165.847 466.555,185.847"/>
<polyline class="BarLine" fill="none" stroke="#000000" stroke-width="0.80" stroke-linejoin="bevel" points="466.555,113.347 466.555,133.347"/>
<polyline class="BarLine" fill="none" stroke="#000000" stroke-width="0.80" stroke-linejoin="bevel" points="370.916,165.847 370.916,185.847"/>
<polyline class="BarLine" fill="none" stroke="#000000" stroke-width="0.80" stroke-linejoin="bevel" points="370.916,113.347 370.916,133.347"/>
<polyline class="BarLine" fill="none" stroke="#000000" stroke-width="0.80" stroke-linejoin="bevel" points="275.277,165.847 275.277,185.847"/>
<polyline class="BarLine" fill="none" stroke="#000000" stroke-width="0.80" stroke-linejoin="bevel" points="275.277,113.347 275.277,133.347"/>
<polyline class="LedgerLine" fill="none" stroke="#000000" stroke-width="0.80" stroke-linecap="square" stroke-linejoin="bevel" points="242.53,138.347 252.113,138.347"/>
<polyline class="LedgerLine" fill="none" stroke="#000000" stroke-width="0.80" stroke-linecap="square" stroke-linejoin="bevel" points="227.106,138.347 236.689,138.347"/>
<polyline class="LedgerLine" fill="none" stroke="#000000" stroke-width="0.80" stroke-linecap="square" stroke-linejoin="bevel" points="227.106,143.347 236.689,143.347"/>
<polyline class="LedgerLine" fill="none" stroke="#000000" stroke-width="0.80" stroke-linecap="square" stroke-linejoin="bevel" points="196.259,138.347 205.842,138.347"/>
<polyline class="LedgerLine" fill="none" stroke="#000000" stroke-width="0.80" stroke-linecap="square" stroke-linejoin="bevel" points="180.835,138.347 190.418,138.347"/>
<polyline class="LedgerLine" fill="none" stroke="#000000" stroke-width="0.80" stroke-linecap="square" stroke-linejoin="bevel" points="180.835,143.347 190.418,143.347"/>
<polyline class="LedgerLine" fill="none" stroke="#000000" stroke-width="0.80" stroke-linecap="square" stroke-linejoin="bevel" points="149.988,138.347 159.571,138.347"/>
<polyline class="LedgerLine" fill="none" stroke="#000000" stroke-width="0.80" stroke-linecap="square" stroke-linejoin="bevel" points="134.565,138.347 144.148,138.347"/>
<polyline class="LedgerLine" fill="none" stroke="#000000" stroke-width="0.80" stroke-linecap="square" stroke-linejoin="bevel" points="134.565,143.347 144.148,143.347"/>
<polyline class="LedgerLine" fill="none" stroke="#000000" stroke-width="0.80" stroke-linecap="square" stroke-linejoin="bevel" points="103.718,138.347 113.301,138.347"/>
<polyline class="LedgerLine" fill="none" stroke="#000000" stroke-width="0.80" stroke-linecap="square" stroke-linejoin="bevel" points="86.634,190.847 99.5371,190.847"/>
<polyline class="LedgerLine" fill="none" stroke="#000000" stroke-width="0.80" stroke-linecap="square" stroke-linejoin="bevel" points="86.634,195.847 99.5371,195.847"/>
<polyline class="LedgerLine" fill="none" stroke="#000000" stroke-width="0.80" stroke-linecap="square" stroke-linejoin="bevel" points="88.2941,138.347 97.877,138.347"/>
<polyline class="LedgerLine" fill="none" stroke="#000000" stroke-width="0.80" stroke-linecap="square" stroke-linejoin="bevel" points="88.2941,143.347 97.877,143.347"/>
<polyline class="Stem" fill="none" stroke="#000000" stroke-width="0.65" stroke-linecap="round" stroke-linejoin="bevel" points="265.711,132.407 265.711,118.347"/>
<polyline class="Stem" fill="none" stroke="#000000" stroke-width="0.65" stroke-linecap="round" stroke-linejoin="bevel" points="250.288,137.407 250.288,120.847"/>
<polyline class="Stem" fill="none" stroke="#000000" stroke-width="0.65" stroke-linecap="round" stroke-linejoin="bevel" points="234.864,144.907 234.864,123.347"/>
<polyline class="Stem" fill="none" stroke="#000000" stroke-width="0.65" stroke-linecap="round" stroke-linejoin="bevel" points="219.44,132.407 219.44,118.347"/>
<polyline class="Stem" fill="none" stroke="#000000" stroke-width="0.65" stroke-linecap="round" stroke-linejoin="bevel" points="204.017,137.407 204.017,120.847"/>
<polyline class="Stem" fill="none" stroke="#000000" stroke-width="0.65" stroke-linecap="round" stroke-linejoin="bevel" points="188.593,144.907 188.593,123.347"/>
<polyline class="Stem" fill="none" stroke="#000000" stroke-width="0.65" stroke-linecap="round" stroke-linejoin="bevel" points="173.17,132.407 173.17,118.347"/>
<polyline class="Stem" fill="none" stroke="#000000" stroke-width="0.65" stroke-linecap="round" stroke-linejoin="bevel" points="157.746,137.407 157.746,120.847"/>
<polyline class="Stem" fill="none" stroke="#000000" stroke-width="0.65" stroke-linecap="round" stroke-linejoin="bevel" points="142.323,144.907 142.323,123.347"/>
<polyline class="Stem" fill="none" stroke="#000000" stroke-width="0.65" stroke-linecap="round" stroke-linejoin="bevel" points="126.899,132.407 126.899,118.347"/>
<polyline class="Stem" fill="none" stroke="#000000" stroke-width="0.65" stroke-linecap="round" stroke-linejoin="bevel" points="111.476,137.407 111.476,120.847"/>
<polyline class="Stem" fill="none" stroke="#000000" stroke-width="0.65" stroke-linecap="round" stroke-linejoin="bevel" points="96.052,144.907 96.052,123.347"/>
<path class="Note" d="M263.844,130.597 C264.469,130.597 265,130.758 265.438,131.081 C265.833,131.435 266.031,131.878 266.031,132.409 C266.031,133.305 265.573,134.143 264.656,134.925 C263.719,135.706 262.714,136.097 261.641,136.097 C261.016,136.097 260.49,135.935 260.063,135.612 C259.656,135.258 259.453,134.815 259.453,134.284 C259.453,133.388 259.922,132.55 260.86,131.768 C261.776,130.987 262.771,130.597 263.844,130.597"/>
<path class="Note" d="M248.42,135.597 C249.045,135.597 249.577,135.758 250.014,136.081 C250.41,136.435 250.608,136.878 250.608,137.409 C250.608,138.305 250.15,139.143 249.233,139.925 C248.295,140.706 247.29,141.097 246.217,141.097 C245.592,141.097 245.066,140.935 244.639,140.612 C244.233,140.258 244.03,139.815 244.03,139.284 C244.03,138.388 244.498,137.55 245.436,136.768 C246.353,135.987 247.347,135.597 248.42,135.597"/>
<path class="Note" d="M232.997,143.097 C233.622,143.097 234.153,143.258 234.591,143.581 C234.986,143.935 235.184,144.378 235.184,144.909 C235.184,145.805 234.726,146.643 233.809,147.425 C232.872,148.206 231.867,148.597 230.794,148.597 C230.169,148.597 229.643,148.435 229.216,148.112 C228.809,147.758 228.606,147.315 228.606,146.784 C228.606,145.888 229.075,145.05 230.012,144.268 C230.929,143.487 231.924,143.097 232.997,143.097"/>
<path class="Note" d="M217.573,130.597 C218.198,130.597 218.729,130.758 219.167,131.081 C219.563,131.435 219.761,131.878 219.761,132.409 C219.761,133.305 219.302,134.143 218.386,134.925 C217.448,135.706 216.443,136.097 215.37,136.097 C214.745,136.097 214.219,135.935 213.792,135.612 C213.386,135.258 213.183,134.815 213.183,134.284 C213.183,133.388 213.651,132.55 214.589,131.768 C215.506,130.987 216.5,130.597 217.573,130.597"/>
<path class="Note" d="M202.15,135.597 C202.775,135.597 203.306,135.758 203.743,136.081 C204.139,136.435 204.337,136.878 204.337,137.409 C204.337,138.305 203.879,139.143 202.962,139.925 C202.025,140.706 201.019,141.097 199.947,141.097 C199.322,141.097 198.796,140.935 198.368,140.612 C197.962,140.258 197.759,139.815 197.759,139.284 C197.759,138.388 198.228,137.55 199.165,136.768 C200.082,135.987 201.077,135.597 202.15,135.597"/>
<path class="Note" d="M186.726,143.097 C187.351,143.097 187.882,143.258 188.32,143.581 C188.716,143.935 188.914,144.378 188.914,144.909 C188.914,145.805 188.455,146.643 187.539,147.425 C186.601,148.206 185.596,148.597 184.523,148.597 C183.898,148.597 183.372,148.435 182.945,148.112 C182.539,147.758 182.335,147.315 182.335,146.784 C182.335,145.888 182.804,145.05 183.742,144.268 C184.658,143.487 185.653,143.097 186.726,143.097"/>
<path class="Note" d="M171.303,130.597 C171.928,130.597 172.459,130.758 172.896,131.081 C173.292,131.435 173.49,131.878 173.49,132.409 C173.49,133.305 173.032,134.143 172.115,134.925 C171.178,135.706 170.172,136.097 169.099,136.097 C168.474,136.097 167.948,135.935 167.521,135.612 C167.115,135.258 166.912,134.815 166.912,134.284 C166.912,133.388 167.381,132.55 168.318,131.768 C169.235,130.987 170.23,130.597 171.303,130.597"/>
<path class="Note" d="M155.879,135.597 C156.504,135.597 157.035,135.758 157.473,136.081 C157.869,136.435 158.067,136.878 158.067,137.409 C158.067,138.305 157.608,139.143 156.692,139.925 C155.754,140.706 154.749,141.097 153.676,141.097 C153.051,141.097 152.525,140.935 152.098,140.612 C151.692,140.258 151.488,139.815 151.488,139.284 C151.488,138.388 151.957,137.55 152.895,136.768 C153.811,135.987 154.806,135.597 155.879,135.597"/>
<path class="Note" d="M140.455,143.097 C141.08,143.097 141.612,143.258 142.049,143.581 C142.445,143.935 142.643,144.378 142.643,144.909 C142.643,145.805 142.185,146.643 141.268,147.425 C140.33,148.206 139.325,148.597 138.252,148.597 C137.627,148.597 137.101,148.435 136.674,148.112 C136.268,147.758 136.065,147.315 136.065,146.784 C136.065,145.888 136.534,145.05 137.471,144.268 C138.388,143.487 139.383,143.097 140.455,143.097"/>
<path class="Note" d="M125.032,130.597 C125.657,130.597 126.188,130.758 126.626,131.081 C127.021,131.435 127.219,131.878 127.219,132.409 C127.219,133.305 126.761,134.143 125.844,134.925 C124.907,135.706 123.902,136.097 122.829,136.097 C122.204,136.097 121.678,135.935 121.251,135.612 C120.844,135.258 120.641,134.815 120.641,134.284 C120.641,133.388 121.11,132.55 122.048,131.768 C122.964,130.987 123.959,130.597 125.032,130.597"/>
<path class="Note" d="M109.608,135.597 C110.233,135.597 110.765,135.758 111.202,136.081 C111.598,136.435 111.796,136.878 111.796,137.409 C111.796,138.305 111.337,139.143 110.421,139.925 C109.483,140.706 108.478,141.097 107.405,141.097 C106.78,141.097 106.254,140.935 105.827,140.612 C105.421,140.258 105.218,139.815 105.218,139.284 C105.218,138.388 105.686,137.55 106.624,136.768 C107.541,135.987 108.535,135.597 109.608,135.597"/>
<path class="Note" d="M92.4309,176.097 C91.9621,176.097 91.6236,176.258 91.4152,176.581 C91.1861,176.893 91.0715,177.321 91.0715,177.862 C91.0715,178.477 91.2329,179.003 91.5559,179.44 C91.8788,179.867 92.2382,180.169 92.634,180.347 C92.9777,180.513 93.3475,180.597 93.7434,180.597 C94.2017,180.597 94.5454,180.435 94.7746,180.112 C94.9934,179.779 95.1027,179.352 95.1027,178.831 C95.1027,178.216 94.9413,177.69 94.6184,177.253 C94.2954,176.836 93.9465,176.534 93.5715,176.347 C93.1861,176.18 92.8059,176.097 92.4309,176.097 M93.1027,175.597 C94.509,175.597 95.6809,175.867 96.6184,176.409 C97.5663,176.961 98.0402,177.607 98.0402,178.347 C98.0402,179.138 97.5507,179.789 96.5715,180.3 C95.5923,180.831 94.4361,181.097 93.1027,181.097 C91.7173,181.097 90.5454,180.826 89.5871,180.284 C88.6184,179.732 88.134,179.086 88.134,178.347 C88.134,177.555 88.6288,176.904 89.6184,176.393 C90.5975,175.862 91.759,175.597 93.1027,175.597"/>
<path class="Note" d="M92.4309,193.597 C91.9621,193.597 91.6236,193.758 91.4152,194.081 C91.1861,194.393 91.0715,194.821 91.0715,195.362 C91.0715,195.977 91.2329,196.503 91.5559,196.94 C91.8788,197.367 92.2382,197.669 92.634,197.847 C92.9777,198.013 93.3475,198.097 93.7434,198.097 C94.2017,198.097 94.5454,197.935 94.7746,197.612 C94.9934,197.279 95.1027,196.852 95.1027,196.331 C95.1027,195.716 94.9413,195.19 94.6184,194.753 C94.2954,194.336 93.9465,194.034 93.5715,193.847 C93.1861,193.68 92.8059,193.597 92.4309,193.597 M93.1027,193.097 C94.509,193.097 95.6809,193.367 96.6184,193.909 C97.5663,194.461 98.0402,195.107 98.0402,195.847 C98.0402,196.638 97.5507,197.289 96.5715,197.8 C95.5923,198.331 94.4361,198.597 93.1027,198.597 C91.7173,198.597 90.5454,198.326 89.5871,197.784 C88.6184,197.232 88.134,196.586 88.134,195.847 C88.134,195.055 88.6288,194.404 89.6184,193.893 C90.5975,193.362 91.759,193.097 93.1027,193.097"/>
<path class="Note" d="M94.1848,143.097 C94.8098,143.097 95.341,143.258 95.7785,143.581 C96.1744,143.935 96.3723,144.378 96.3723,144.909 C96.3723,145.805 95.9139,146.643 94.9973,147.425 C94.0598,148.206 93.0546,148.597 91.9816,148.597 C91.3566,148.597 90.8306,148.435 90.4035,148.112 C89.9973,147.758 89.7941,147.315 89.7941,146.784 C89.7941,145.888 90.2629,145.05 91.2004,144.268 C92.1171,143.487 93.1119,143.097 94.1848,143.097"/>
<path class="Clef" d="M43.7761,169.065 C43.5834,168.867 43.4871,168.625 43.4871,168.339 C43.4871,168.052 43.5834,167.813 43.7761,167.62 C43.9688,167.427 44.2084,167.331 44.4949,167.331 C44.7813,167.331 45.0235,167.427 45.2215,167.62 C45.4194,167.813 45.5183,168.052 45.5183,168.339 C45.5183,168.625 45.4194,168.867 45.2215,169.065 C45.0235,169.263 44.7813,169.362 44.4949,169.362 C44.2084,169.362 43.9688,169.263 43.7761,169.065 M43.7761,174.073 C43.5834,173.88 43.4871,173.641 43.4871,173.354 C43.4871,173.068 43.5834,172.826 43.7761,172.628 C43.9688,172.43 44.2084,172.331 44.4949,172.331 C44.7813,172.331 45.0235,172.43 45.2215,172.628 C45.4194,172.826 45.5183,173.068 45.5183,173.354 C45.5183,173.641 45.4194,173.88 45.2215,174.073 C45.0235,174.266 44.7813,174.362 44.4949,174.362 C44.2084,174.362 43.9688,174.266 43.7761,174.073 M37.0027,165.597 C38.7319,165.597 40.1485,166.029 41.2527,166.893 C42.3256,167.81 42.8621,169.05 42.8621,170.612 C42.8621,171.664 42.6537,172.628 42.2371,173.503 C41.8412,174.419 41.3256,175.227 40.6902,175.925 C40.034,176.643 39.2475,177.32 38.3308,177.956 C37.4246,178.581 36.4975,179.143 35.5496,179.643 C33.6225,180.612 32.5548,181.097 32.3465,181.097 C32.1798,181.097 32.0965,181.013 32.0965,180.847 C32.0965,180.784 32.1225,180.727 32.1746,180.675 C32.8412,180.279 33.6537,179.779 34.6121,179.175 C35.2371,178.768 35.9662,178.206 36.7996,177.487 C37.6121,176.81 38.2371,176.175 38.6746,175.581 C39.1329,174.987 39.5496,174.258 39.9246,173.393 C40.2475,172.518 40.409,171.654 40.409,170.8 C40.409,169.539 40.0965,168.44 39.4715,167.503 C38.8465,166.565 38.0235,166.097 37.0027,166.097 C36.2735,166.097 35.6485,166.331 35.1277,166.8 C34.5652,167.279 34.159,167.883 33.909,168.612 C34.159,168.508 34.3881,168.456 34.5965,168.456 C35.1381,168.456 35.6069,168.654 36.0027,169.05 C36.3881,169.466 36.5808,169.94 36.5808,170.472 C36.5808,171.034 36.3933,171.539 36.0183,171.987 C35.6121,172.383 35.1381,172.581 34.5965,172.581 C34.0131,172.581 33.4871,172.383 33.0183,171.987 C32.5704,171.539 32.3465,171.034 32.3465,170.472 C32.3465,169.128 32.8048,167.982 33.7215,167.034 C34.6173,166.076 35.711,165.597 37.0027,165.597"/>
<path class="Clef" d="M39.6902,123.222 C39.6902,123.222 39.7319,123.222 39.8152,123.222 C39.8673,123.211 39.909,123.206 39.9402,123.206 C41.3985,123.206 42.5965,123.722 43.534,124.753 C44.4715,125.763 44.9402,126.945 44.9402,128.3 C44.9402,129.987 44.2475,131.357 42.8621,132.409 C42.4975,132.701 42.0183,132.935 41.4246,133.112 C41.4975,133.956 41.534,134.638 41.534,135.159 C41.534,135.263 41.5183,135.643 41.4871,136.3 C41.435,137.508 41.0183,138.555 40.2371,139.44 C39.4871,140.315 38.5496,140.753 37.4246,140.753 C36.3725,140.753 35.4767,140.383 34.7371,139.643 C33.9871,138.883 33.6121,137.972 33.6121,136.909 C33.6121,136.347 33.8308,135.867 34.2683,135.472 C34.7058,135.086 35.2162,134.893 35.7996,134.893 C36.3204,134.893 36.7579,135.097 37.1121,135.503 C37.4767,135.878 37.659,136.347 37.659,136.909 C37.659,137.409 37.4767,137.841 37.1121,138.206 C36.7475,138.57 36.31,138.753 35.7996,138.753 C35.5912,138.753 35.3933,138.716 35.2058,138.643 C35.7787,139.487 36.5392,139.909 37.4871,139.909 C38.3829,139.909 39.1173,139.544 39.6902,138.815 C40.2944,138.065 40.6225,137.185 40.6746,136.175 C40.6954,135.55 40.7058,135.195 40.7058,135.112 C40.7058,134.383 40.6798,133.784 40.6277,133.315 C39.9819,133.419 39.4037,133.472 38.8933,133.472 C37.0808,133.472 35.5392,132.753 34.2683,131.315 C33.0183,129.867 32.3933,128.149 32.3933,126.159 C32.3933,125.742 32.4298,125.32 32.5027,124.893 C32.586,124.539 32.685,124.154 32.7996,123.737 C32.8621,123.498 33.0392,123.117 33.3308,122.597 C33.435,122.44 33.5522,122.245 33.6824,122.011 C33.8126,121.776 33.9037,121.623 33.9558,121.55 C34.0808,121.289 34.3308,120.935 34.7058,120.487 C34.81,120.373 34.9194,120.245 35.034,120.104 C35.1485,119.964 35.2449,119.847 35.323,119.753 C35.4011,119.659 35.4584,119.586 35.4949,119.534 C35.5313,119.482 35.8256,119.138 36.3777,118.503 C36.5027,118.367 36.6277,118.227 36.7527,118.081 C36.8777,117.935 36.9793,117.818 37.0574,117.729 C37.1355,117.641 37.1954,117.581 37.2371,117.55 C36.7683,115.998 36.4715,114.758 36.3465,113.831 C36.2631,113.091 36.2215,112.076 36.2215,110.784 C36.2215,109.649 36.4819,108.586 37.0027,107.597 C37.5027,106.576 38.211,105.737 39.1277,105.081 C39.1902,105.039 39.2527,105.018 39.3152,105.018 C39.409,105.018 39.4767,105.039 39.5183,105.081 C40.2162,105.925 40.8204,107.024 41.3308,108.378 C41.8517,109.732 42.1121,110.966 42.1121,112.081 C42.1121,113.331 41.8152,114.503 41.2215,115.597 C40.5444,116.753 39.6694,117.951 38.5965,119.19 C38.8673,120.044 39.2319,121.388 39.6902,123.222 M41.3465,132.315 C42.0235,132.065 42.5548,131.643 42.9402,131.05 C43.3569,130.477 43.5652,129.831 43.5652,129.112 C43.5652,128.185 43.2527,127.362 42.6277,126.643 C41.9819,125.904 41.1642,125.487 40.1746,125.393 C40.7371,128.143 41.1277,130.451 41.3465,132.315 M33.7996,127.8 C33.7996,129.091 34.3204,130.227 35.3621,131.206 C36.4246,132.154 37.6225,132.628 38.9558,132.628 C39.4975,132.628 40.0287,132.586 40.5496,132.503 C40.3412,130.524 39.9298,128.154 39.3152,125.393 C38.5756,125.477 37.9871,125.737 37.5496,126.175 C37.1121,126.633 36.8933,127.149 36.8933,127.722 C36.8933,128.711 37.4246,129.513 38.4871,130.128 C38.5704,130.222 38.6121,130.32 38.6121,130.425 C38.6121,130.529 38.5704,130.623 38.4871,130.706 C38.4037,130.8 38.3048,130.847 38.1902,130.847 C38.1798,130.847 38.1225,130.836 38.0183,130.815 C37.2683,130.409 36.6954,129.888 36.2996,129.253 C35.9142,128.565 35.7215,127.878 35.7215,127.19 C35.7215,126.294 36.0027,125.482 36.5652,124.753 C37.1485,124.024 37.909,123.555 38.8465,123.347 C38.4819,121.888 38.185,120.748 37.9558,119.925 C37.7475,120.164 37.4975,120.448 37.2058,120.776 C36.9142,121.104 36.7423,121.305 36.6902,121.378 C36.2215,121.982 35.8621,122.456 35.6121,122.8 C35.1642,123.414 34.836,123.94 34.6277,124.378 C34.409,124.878 34.2162,125.419 34.0496,126.003 C33.8829,126.565 33.7996,127.164 33.7996,127.8 M40.3152,107.94 C39.336,108.419 38.5704,109.107 38.0183,110.003 C37.4454,110.93 37.159,111.925 37.159,112.987 C37.159,113.925 37.3933,115.19 37.8621,116.784 C38.7996,115.649 39.5027,114.602 39.9715,113.643 C40.461,112.623 40.7058,111.56 40.7058,110.456 C40.7058,109.623 40.5756,108.784 40.3152,107.94"/>
<path class="KeySig" d="M67.0355,182.081 C67.0355,182.331 66.9131,182.456 66.6683,182.456 C66.4236,182.456 66.3012,182.331 66.3012,182.081 L66.3012,179.19 L64.6449,179.815 L64.6449,182.972 C64.6449,183.222 64.5199,183.347 64.2699,183.347 C64.0199,183.347 63.8949,183.222 63.8949,182.972 L63.8949,180.065 L63.2699,180.3 C63.2595,180.31 63.2074,180.315 63.1137,180.315 C63.0095,180.315 62.9183,180.276 62.8402,180.198 C62.7621,180.12 62.723,180.029 62.723,179.925 L62.723,178.722 C62.723,178.524 62.8064,178.399 62.973,178.347 L63.8949,178.034 L63.8949,174.831 L63.2699,175.05 C63.2595,175.06 63.2074,175.065 63.1137,175.065 C63.0095,175.065 62.9183,175.026 62.8402,174.948 C62.7621,174.87 62.723,174.779 62.723,174.675 L62.723,173.456 C62.723,173.279 62.8064,173.164 62.973,173.112 L63.8949,172.753 L63.8949,169.612 C63.8949,169.362 64.0199,169.237 64.2699,169.237 C64.5199,169.237 64.6449,169.362 64.6449,169.612 L64.6449,172.503 L66.3012,171.878 L66.3012,168.722 C66.3012,168.472 66.4236,168.347 66.6683,168.347 C66.9131,168.347 67.0355,168.472 67.0355,168.722 L67.0355,171.628 L67.6918,171.393 C67.7022,171.383 67.7439,171.378 67.8168,171.378 C67.9105,171.378 68.0095,171.414 68.1137,171.487 C68.197,171.571 68.2387,171.664 68.2387,171.768 L68.2387,172.972 C68.2387,173.159 68.1449,173.284 67.9574,173.347 L67.0355,173.659 L67.0355,176.862 L67.6918,176.643 C67.7022,176.633 67.7439,176.628 67.8168,176.628 C67.9105,176.628 68.0095,176.669 68.1137,176.753 C68.197,176.826 68.2387,176.914 68.2387,177.018 L68.2387,178.237 C68.2387,178.404 68.1449,178.518 67.9574,178.581 L67.0355,178.94 L67.0355,182.081 M66.3012,173.956 L64.6449,174.534 L64.6449,177.737 L66.3012,177.159 L66.3012,173.956 "/>
<path class="KeySig" d="M62.0355,174.581 C62.0355,174.831 61.9131,174.956 61.6683,174.956 C61.4236,174.956 61.3012,174.831 61.3012,174.581 L61.3012,171.69 L59.6449,172.315 L59.6449,175.472 C59.6449,175.722 59.5199,175.847 59.2699,175.847 C59.0199,175.847 58.8949,175.722 58.8949,175.472 L58.8949,172.565 L58.2699,172.8 C58.2595,172.81 58.2074,172.815 58.1137,172.815 C58.0095,172.815 57.9183,172.776 57.8402,172.698 C57.7621,172.62 57.723,172.529 57.723,172.425 L57.723,171.222 C57.723,171.024 57.8064,170.899 57.973,170.847 L58.8949,170.534 L58.8949,167.331 L58.2699,167.55 C58.2595,167.56 58.2074,167.565 58.1137,167.565 C58.0095,167.565 57.9183,167.526 57.8402,167.448 C57.7621,167.37 57.723,167.279 57.723,167.175 L57.723,165.956 C57.723,165.779 57.8064,165.664 57.973,165.612 L58.8949,165.253 L58.8949,162.112 C58.8949,161.862 59.0199,161.737 59.2699,161.737 C59.5199,161.737 59.6449,161.862 59.6449,162.112 L59.6449,165.003 L61.3012,164.378 L61.3012,161.222 C61.3012,160.972 61.4236,160.847 61.6683,160.847 C61.9131,160.847 62.0355,160.972 62.0355,161.222 L62.0355,164.128 L62.6918,163.893 C62.7022,163.883 62.7439,163.878 62.8168,163.878 C62.9105,163.878 63.0095,163.914 63.1137,163.987 C63.197,164.07 63.2387,164.164 63.2387,164.268 L63.2387,165.472 C63.2387,165.659 63.1449,165.784 62.9574,165.847 L62.0355,166.159 L62.0355,169.362 L62.6918,169.143 C62.7022,169.133 62.7439,169.128 62.8168,169.128 C62.9105,169.128 63.0095,169.169 63.1137,169.253 C63.197,169.326 63.2387,169.414 63.2387,169.518 L63.2387,170.737 C63.2387,170.904 63.1449,171.018 62.9574,171.081 L62.0355,171.44 L62.0355,174.581 M61.3012,166.456 L59.6449,167.034 L59.6449,170.237 L61.3012,169.659 L61.3012,166.456 "/>
<path class="KeySig" d="M57.0355,184.581 C57.0355,184.831 56.9131,184.956 56.6683,184.956 C56.4235,184.956 56.3012,184.831 56.3012,184.581 L56.3012,181.69 L54.6449,182.315 L54.6449,185.472 C54.6449,185.722 54.5199,185.847 54.2699,185.847 C54.0199,185.847 53.8949,185.722 53.8949,185.472 L53.8949,182.565 L53.2699,182.8 C53.2595,182.81 53.2074,182.815 53.1137,182.815 C53.0095,182.815 52.9183,182.776 52.8402,182.698 C52.7621,182.62 52.723,182.529 52.723,182.425 L52.723,181.222 C52.723,181.024 52.8064,180.899 52.973,180.847 L53.8949,180.534 L53.8949,177.331 L53.2699,177.55 C53.2595,177.56 53.2074,177.565 53.1137,177.565 C53.0095,177.565 52.9183,177.526 52.8402,177.448 C52.7621,177.37 52.723,177.279 52.723,177.175 L52.723,175.956 C52.723,175.779 52.8064,175.664 52.973,175.612 L53.8949,175.253 L53.8949,172.112 C53.8949,171.862 54.0199,171.737 54.2699,171.737 C54.5199,171.737 54.6449,171.862 54.6449,172.112 L54.6449,175.003 L56.3012,174.378 L56.3012,171.222 C56.3012,170.972 56.4235,170.847 56.6683,170.847 C56.9131,170.847 57.0355,170.972 57.0355,171.222 L57.0355,174.128 L57.6918,173.893 C57.7022,173.883 57.7439,173.878 57.8168,173.878 C57.9105,173.878 58.0095,173.914 58.1137,173.987 C58.197,174.071 58.2387,174.164 58.2387,174.268 L58.2387,175.472 C58.2387,175.659 58.1449,175.784 57.9574,175.847 L57.0355,176.159 L57.0355,179.362 L57.6918,179.143 C57.7022,179.133 57.7439,179.128 57.8168,179.128 C57.9105,179.128 58.0095,179.169 58.1137,179.253 C58.197,179.326 58.2387,179.414 58.2387,179.518 L58.2387,180.737 C58.2387,180.904 58.1449,181.018 57.9574,181.081 L57.0355,181.44 L57.0355,184.581 M56.3012,176.456 L54.6449,177.034 L54.6449,180.237 L56.3012,179.659 L56.3012,176.456 "/>
<path class="KeySig" d="M52.0355,177.081 C52.0355,177.331 51.9131,177.456 51.6683,177.456 C51.4235,177.456 51.3011,177.331 51.3011,177.081 L51.3011,174.19 L49.6449,174.815 L49.6449,177.972 C49.6449,178.222 49.5199,178.347 49.2699,178.347 C49.0199,178.347 48.8949,178.222 48.8949,177.972 L48.8949,175.065 L48.2699,175.3 C48.2595,175.31 48.2074,175.315 48.1136,175.315 C48.0095,175.315 47.9183,175.276 47.8402,175.198 C47.7621,175.12 47.723,175.029 47.723,174.925 L47.723,173.722 C47.723,173.524 47.8064,173.399 47.973,173.347 L48.8949,173.034 L48.8949,169.831 L48.2699,170.05 C48.2595,170.06 48.2074,170.065 48.1136,170.065 C48.0095,170.065 47.9183,170.026 47.8402,169.948 C47.7621,169.87 47.723,169.779 47.723,169.675 L47.723,168.456 C47.723,168.279 47.8064,168.164 47.973,168.112 L48.8949,167.753 L48.8949,164.612 C48.8949,164.362 49.0199,164.237 49.2699,164.237 C49.5199,164.237 49.6449,164.362 49.6449,164.612 L49.6449,167.503 L51.3011,166.878 L51.3011,163.722 C51.3011,163.472 51.4235,163.347 51.6683,163.347 C51.9131,163.347 52.0355,163.472 52.0355,163.722 L52.0355,166.628 L52.6918,166.393 C52.7022,166.383 52.7439,166.378 52.8168,166.378 C52.9105,166.378 53.0095,166.414 53.1136,166.487 C53.197,166.57 53.2386,166.664 53.2386,166.768 L53.2386,167.972 C53.2386,168.159 53.1449,168.284 52.9574,168.347 L52.0355,168.659 L52.0355,171.862 L52.6918,171.643 C52.7022,171.633 52.7439,171.628 52.8168,171.628 C52.9105,171.628 53.0095,171.669 53.1136,171.753 C53.197,171.826 53.2386,171.914 53.2386,172.018 L53.2386,173.237 C53.2386,173.404 53.1449,173.518 52.9574,173.581 L52.0355,173.94 L52.0355,177.081 M51.3011,168.956 L49.6449,169.534 L49.6449,172.737 L51.3011,172.159 L51.3011,168.956 "/>
<path class="KeySig" d="M67.0355,124.581 C67.0355,124.831 66.9131,124.956 66.6683,124.956 C66.4236,124.956 66.3012,124.831 66.3012,124.581 L66.3012,121.69 L64.6449,122.315 L64.6449,125.472 C64.6449,125.722 64.5199,125.847 64.2699,125.847 C64.0199,125.847 63.8949,125.722 63.8949,125.472 L63.8949,122.565 L63.2699,122.8 C63.2595,122.81 63.2074,122.815 63.1137,122.815 C63.0095,122.815 62.9183,122.776 62.8402,122.698 C62.7621,122.62 62.723,122.529 62.723,122.425 L62.723,121.222 C62.723,121.024 62.8064,120.899 62.973,120.847 L63.8949,120.534 L63.8949,117.331 L63.2699,117.55 C63.2595,117.56 63.2074,117.565 63.1137,117.565 C63.0095,117.565 62.9183,117.526 62.8402,117.448 C62.7621,117.37 62.723,117.279 62.723,117.175 L62.723,115.956 C62.723,115.779 62.8064,115.664 62.973,115.612 L63.8949,115.253 L63.8949,112.112 C63.8949,111.862 64.0199,111.737 64.2699,111.737 C64.5199,111.737 64.6449,111.862 64.6449,112.112 L64.6449,115.003 L66.3012,114.378 L66.3012,111.222 C66.3012,110.972 66.4236,110.847 66.6683,110.847 C66.9131,110.847 67.0355,110.972 67.0355,111.222 L67.0355,114.128 L67.6918,113.893 C67.7022,113.883 67.7439,113.878 67.8168,113.878 C67.9105,113.878 68.0095,113.914 68.1137,113.987 C68.197,114.07 68.2387,114.164 68.2387,114.268 L68.2387,115.472 C68.2387,115.659 68.1449,115.784 67.9574,115.847 L67.0355,116.159 L67.0355,119.362 L67.6918,119.143 C67.7022,119.133 67.7439,119.128 67.8168,119.128 C67.9105,119.128 68.0095,119.169 68.1137,119.253 C68.197,119.326 68.2387,119.414 68.2387,119.518 L68.2387,120.737 C68.2387,120.904 68.1449,121.018 67.9574,121.081 L67.0355,121.44 L67.0355,124.581 M66.3012,116.456 L64.6449,117.034 L64.6449,120.237 L66.3012,119.659 L66.3012,116.456 "/>
<path class="KeySig" d="M62.0355,117.081 C62.0355,117.331 61.9131,117.456 61.6683,117.456 C61.4236,117.456 61.3012,117.331 61.3012,117.081 L61.3012,114.19 L59.6449,114.815 L59.6449,117.972 C59.6449,118.222 59.5199,118.347 59.2699,118.347 C59.0199,118.347 58.8949,118.222 58.8949,117.972 L58.8949,115.065 L58.2699,115.3 C58.2595,115.31 58.2074,115.315 58.1137,115.315 C58.0095,115.315 57.9183,115.276 57.8402,115.198 C57.7621,115.12 57.723,115.029 57.723,114.925 L57.723,113.722 C57.723,113.524 57.8064,113.399 57.973,113.347 L58.8949,113.034 L58.8949,109.831 L58.2699,110.05 C58.2595,110.06 58.2074,110.065 58.1137,110.065 C58.0095,110.065 57.9183,110.026 57.8402,109.948 C57.7621,109.87 57.723,109.779 57.723,109.675 L57.723,108.456 C57.723,108.279 57.8064,108.164 57.973,108.112 L58.8949,107.753 L58.8949,104.612 C58.8949,104.362 59.0199,104.237 59.2699,104.237 C59.5199,104.237 59.6449,104.362 59.6449,104.612 L59.6449,107.503 L61.3012,106.878 L61.3012,103.722 C61.3012,103.472 61.4236,103.347 61.6683,103.347 C61.9131,103.347 62.0355,103.472 62.0355,103.722 L62.0355,106.628 L62.6918,106.393 C62.7022,106.383 62.7439,106.378 62.8168,106.378 C62.9105,106.378 63.0095,106.414 63.1137,106.487 C63.197,106.57 63.2387,106.664 63.2387,106.768 L63.2387,107.972 C63.2387,108.159 63.1449,108.284 62.9574,108.347 L62.0355,108.659 L62.0355,111.862 L62.6918,111.643 C62.7022,111.633 62.7439,111.628 62.8168,111.628 C62.9105,111.628 63.0095,111.669 63.1137,111.753 C63.197,111.826 63.2387,111.914 63.2387,112.018 L63.2387,113.237 C63.2387,113.404 63.1449,113.518 62.9574,113.581 L62.0355,113.94 L62.0355,117.081 M61.3012,108.956 L59.6449,109.534 L59.6449,112.737 L61.3012,112.159 L61.3012,108.956 "/>
<path class="KeySig" d="M57.0355,127.081 C57.0355,127.331 56.9131,127.456 56.6683,127.456 C56.4235,127.456 56.3012,127.331 56.3012,127.081 L56.3012,124.19 L54.6449,124.815 L54.6449,127.972 C54.6449,128.222 54.5199,128.347 54.2699,128.347 C54.0199,128.347 53.8949,128.222 53.8949,127.972 L53.8949,125.065 L53.2699,125.3 C53.2595,125.31 53.2074,125.315 53.1137,125.315 C53.0095,125.315 52.9183,125.276 52.8402,125.198 C52.7621,125.12 52.723,125.029 52.723,124.925 L52.723,123.722 C52.723,123.524 52.8064,123.399 52.973,123.347 L53.8949,123.034 L53.8949,119.831 L53.2699,120.05 C53.2595,120.06 53.2074,120.065 53.1137,120.065 C53.0095,120.065 52.9183,120.026 52.8402,119.948 C52.7621,119.87 52.723,119.779 52.723,119.675 L52.723,118.456 C52.723,118.279 52.8064,118.164 52.973,118.112 L53.8949,117.753 L53.8949,114.612 C53.8949,114.362 54.0199,114.237 54.2699,114.237 C54.5199,114.237 54.6449,114.362 54.6449,114.612 L54.6449,117.503 L56.3012,116.878 L56.3012,113.722 C56.3012,113.472 56.4235,113.347 56.6683,113.347 C56.9131,113.347 57.0355,113.472 57.0355,113.722 L57.0355,116.628 L57.6918,116.393 C57.7022,116.383 57.7439,116.378 57.8168,116.378 C57.9105,116.378 58.0095,116.414 58.1137,116.487 C58.197,116.57 58.2387,116.664 58.2387,116.768 L58.2387,117.972 C58.2387,118.159 58.1449,118.284 57.9574,118.347 L57.0355,118.659 L57.0355,121.862 L57.6918,121.643 C57.7022,121.633 57.7439,121.628 57.8168,121.628 C57.9105,121.628 58.0095,121.669 58.1137,121.753 C58.197,121.826 58.2387,121.914 58.2387,122.018 L58.2387,123.237 C58.2387,123.404 58.1449,123.518 57.9574,123.581 L57.0355,123.94 L57.0355,127.081 M56.3012,118.956 L54.6449,119.534 L54.6449,122.737 L56.3012,122.159 L56.3012,118.956 "/>
<path class="KeySig" d="M52.0355,119.581 C52.0355,119.831 51.9131,119.956 51.6683,119.956 C51.4235,119.956 51.3011,119.831 51.3011,119.581 L51.3011,116.69 L49.6449,117.315 L49.6449,120.472 C49.6449,120.722 49.5199,120.847 49.2699,120.847 C49.0199,120.847 48.8949,120.722 48.8949,120.472 L48.8949,117.565 L48.2699,117.8 C48.2595,117.81 48.2074,117.815 48.1136,117.815 C48.0095,117.815 47.9183,117.776 47.8402,117.698 C47.7621,117.62 47.723,117.529 47.723,117.425 L47.723,116.222 C47.723,116.024 47.8064,115.899 47.973,115.847 L48.8949,115.534 L48.8949,112.331 L48.2699,112.55 C48.2595,112.56 48.2074,112.565 48.1136,112.565 C48.0095,112.565 47.9183,112.526 47.8402,112.448 C47.7621,112.37 47.723,112.279 47.723,112.175 L47.723,110.956 C47.723,110.779 47.8064,110.664 47.973,110.612 L48.8949,110.253 L48.8949,107.112 C48.8949,106.862 49.0199,106.737 49.2699,106.737 C49.5199,106.737 49.6449,106.862 49.6449,107.112 L49.6449,110.003 L51.3011,109.378 L51.3011,106.222 C51.3011,105.972 51.4235,105.847 51.6683,105.847 C51.9131,105.847 52.0355,105.972 52.0355,106.222 L52.0355,109.128 L52.6918,108.893 C52.7022,108.883 52.7439,108.878 52.8168,108.878 C52.9105,108.878 53.0095,108.914 53.1136,108.987 C53.197,109.07 53.2386,109.164 53.2386,109.268 L53.2386,110.472 C53.2386,110.659 53.1449,110.784 52.9574,110.847 L52.0355,111.159 L52.0355,114.362 L52.6918,114.143 C52.7022,114.133 52.7439,114.128 52.8168,114.128 C52.9105,114.128 53.0095,114.169 53.1136,114.253 C53.197,114.326 53.2386,114.414 53.2386,114.518 L53.2386,115.737 C53.2386,115.904 53.1449,116.018 52.9574,116.081 L52.0355,116.44 L52.0355,119.581 M51.3011,111.456 L49.6449,112.034 L49.6449,115.237 L51.3011,114.659 L51.3011,111.456 "/>
<path class="TimeSig" d="M77.9184,175.3 C77.585,175.3 77.2465,175.169 76.9027,174.909 C76.5798,174.659 76.4184,174.294 76.4184,173.815 C76.4184,173.409 76.5538,173.05 76.8246,172.737 C77.085,172.425 77.4288,172.268 77.8559,172.268 C78.0017,172.268 78.0954,172.274 78.1371,172.284 C77.5329,171.524 76.7309,171.128 75.7309,171.097 L75.4809,171.097 L75.4809,180.597 C75.5225,180.597 75.5694,180.602 75.6215,180.612 C75.6215,180.612 75.6579,180.612 75.7309,180.612 C76.5121,180.612 77.1788,180.326 77.7309,179.753 C78.2829,179.19 78.6736,178.466 78.9027,177.581 C78.934,177.456 79.0121,177.393 79.1371,177.393 C79.3038,177.393 79.3871,177.472 79.3871,177.628 C79.3871,177.722 79.3454,177.899 79.2621,178.159 C79.1892,178.399 79.0538,178.685 78.8559,179.018 C78.6996,179.331 78.4809,179.659 78.1996,180.003 C77.9392,180.305 77.585,180.565 77.1371,180.784 C76.7204,180.992 76.2517,181.097 75.7309,181.097 C75.6788,181.097 75.6423,181.091 75.6215,181.081 C75.6215,181.081 75.5746,181.081 75.4809,181.081 L75.4809,182.643 C75.4809,182.779 75.4079,182.847 75.2621,182.847 L74.934,182.847 C74.7986,182.847 74.7309,182.779 74.7309,182.643 L74.7309,181.018 C73.3663,180.8 72.3611,180.222 71.7152,179.284 C71.059,178.326 70.7309,177.18 70.7309,175.847 C70.7309,174.482 71.059,173.336 71.7152,172.409 C72.3194,171.472 73.3246,170.893 74.7309,170.675 L74.7309,169.05 C74.7309,168.914 74.7986,168.847 74.934,168.847 L75.2621,168.847 C75.3975,168.847 75.4704,168.914 75.4809,169.05 L75.4809,170.612 L75.7309,170.612 C76.8038,170.612 77.6527,170.977 78.2777,171.706 C78.9236,172.435 79.2465,173.159 79.2465,173.878 C79.2465,174.294 79.1163,174.633 78.8559,174.893 C78.6267,175.164 78.3142,175.3 77.9184,175.3 M74.7309,180.456 L74.7309,171.237 C74.1996,171.435 73.8559,171.81 73.6996,172.362 C73.5434,172.935 73.4652,173.758 73.4652,174.831 L73.4652,175.847 L73.4652,176.862 C73.4652,177.935 73.5434,178.758 73.6996,179.331 C73.8559,179.883 74.1996,180.258 74.7309,180.456"/>
<path class="TimeSig" d="M77.9184,122.8 C77.585,122.8 77.2465,122.669 76.9027,122.409 C76.5798,122.159 76.4184,121.794 76.4184,121.315 C76.4184,120.909 76.5538,120.55 76.8246,120.237 C77.085,119.925 77.4288,119.768 77.8559,119.768 C78.0017,119.768 78.0954,119.774 78.1371,119.784 C77.5329,119.024 76.7309,118.628 75.7309,118.597 L75.4809,118.597 L75.4809,128.097 C75.5225,128.097 75.5694,128.102 75.6215,128.112 C75.6215,128.112 75.6579,128.112 75.7309,128.112 C76.5121,128.112 77.1788,127.826 77.7309,127.253 C78.2829,126.69 78.6736,125.966 78.9027,125.081 C78.934,124.956 79.0121,124.893 79.1371,124.893 C79.3038,124.893 79.3871,124.972 79.3871,125.128 C79.3871,125.222 79.3454,125.399 79.2621,125.659 C79.1892,125.899 79.0538,126.185 78.8559,126.518 C78.6996,126.831 78.4809,127.159 78.1996,127.503 C77.9392,127.805 77.585,128.065 77.1371,128.284 C76.7204,128.492 76.2517,128.597 75.7309,128.597 C75.6788,128.597 75.6423,128.591 75.6215,128.581 C75.6215,128.581 75.5746,128.581 75.4809,128.581 L75.4809,130.143 C75.4809,130.279 75.4079,130.347 75.2621,130.347 L74.934,130.347 C74.7986,130.347 74.7309,130.279 74.7309,130.143 L74.7309,128.518 C73.3663,128.3 72.3611,127.722 71.7152,126.784 C71.059,125.826 70.7309,124.68 70.7309,123.347 C70.7309,121.982 71.059,120.836 71.7152,119.909 C72.3194,118.972 73.3246,118.393 74.7309,118.175 L74.7309,116.55 C74.7309,116.414 74.7986,116.347 74.934,116.347 L75.2621,116.347 C75.3975,116.347 75.4704,116.414 75.4809,116.55 L75.4809,118.112 L75.7309,118.112 C76.8038,118.112 77.6527,118.477 78.2777,119.206 C78.9236,119.935 79.2465,120.659 79.2465,121.378 C79.2465,121.794 79.1163,122.133 78.8559,122.393 C78.6267,122.664 78.3142,122.8 77.9184,122.8 M74.7309,127.956 L74.7309,118.737 C74.1996,118.935 73.8559,119.31 73.6996,119.862 C73.5434,120.435 73.4652,121.258 73.4652,122.331 L73.4652,123.347 L73.4652,124.362 C73.4652,125.435 73.5434,126.258 73.6996,126.831 C73.8559,127.383 74.1996,127.758 74.7309,127.956"/>
<path class="Rest" d="M517.937,173.972 L510.827,173.972 C510.692,173.972 510.624,173.909 510.624,173.784 L510.624,171.05 C510.624,170.914 510.692,170.847 510.827,170.847 L517.937,170.847 C518.062,170.847 518.124,170.914 518.124,171.05 L518.124,173.784 C518.124,173.909 518.062,173.972 517.937,173.972"/>
<path class="Rest" d="M517.937,121.472 L510.827,121.472 C510.692,121.472 510.624,121.409 510.624,121.284 L510.624,118.55 C510.624,118.414 510.692,118.347 510.827,118.347 L517.937,118.347 C518.062,118.347 518.124,118.414 518.124,118.55 L518.124,121.284 C518.124,121.409 518.062,121.472 517.937,121.472"/>
<path class="Rest" d="M422.298,173.972 L415.188,173.972 C415.053,173.972 414.985,173.909 414.985,173.784 L414.985,171.05 C414.985,170.914 415.053,170.847 415.188,170.847 L422.298,170.847 C422.423,170.847 422.485,170.914 422.485,171.05 L422.485,173.784 C422.485,173.909 422.423,173.972 422.298,173.972"/>
<path class="Rest" d="M422.298,121.472 L415.188,121.472 C415.053,121.472 414.985,121.409 414.985,121.284 L414.985,118.55 C414.985,118.414 415.053,118.347 415.188,118.347 L422.298,118.347 C422.423,118.347 422.485,118.414 422.485,118.55 L422.485,121.284 C422.485,121.409 422.423,121.472 422.298,121.472"/>
<path class="Rest" d="M326.659,173.972 L319.549,173.972 C319.414,173.972 319.346,173.909 319.346,173.784 L319.346,171.05 C319.346,170.914 319.414,170.847 319.549,170.847 L326.659,170.847 C326.784,170.847 326.846,170.914 326.846,171.05 L326.846,173.784 C326.846,173.909 326.784,173.972 326.659,173.972"/>
<path class="Rest" d="M326.659,121.472 L319.549,121.472 C319.414,121.472 319.346,121.409 319.346,121.284 L319.346,118.55 C319.346,118.414 319.414,118.347 319.549,118.347 L326.659,118.347 C326.784,118.347 326.846,118.414 326.846,118.55 L326.846,121.284 C326.846,121.409 326.784,121.472 326.659,121.472"/>
<path class="Beam" fill-rule="evenodd" d="M234.539,122.202 L266.036,117.097 L266.036,119.597 L234.539,124.702 L234.539,122.202 "/>
<path class="Beam" fill-rule="evenodd" d="M188.268,122.202 L219.765,117.097 L219.765,119.597 L188.268,124.702 L188.268,122.202 "/>
<path class="Beam" fill-rule="evenodd" d="M141.998,122.202 L173.495,117.097 L173.495,119.597 L141.998,124.702 L141.998,122.202 "/>
<path class="Beam" fill-rule="evenodd" d="M95.727,122.202 L127.224,117.097 L127.224,119.597 L95.727,124.702 L95.727,122.202 "/>
<path class="Tuplet" d="M248.869,106.831 C250.452,106.57 251.244,106.018 251.244,105.175 C251.244,104.893 251.163,104.669 251.002,104.503 C250.84,104.336 250.624,104.253 250.353,104.253 C249.947,104.253 249.577,104.477 249.244,104.925 L249.088,104.878 C249.254,104.555 249.481,104.297 249.767,104.104 C250.054,103.912 250.374,103.815 250.728,103.815 C251.124,103.815 251.455,103.938 251.72,104.182 C251.986,104.427 252.119,104.737 252.119,105.112 C252.119,105.445 252.009,105.716 251.791,105.925 C251.572,106.133 251.16,106.357 250.556,106.596 L250.556,106.612 C251.202,106.914 251.525,107.414 251.525,108.112 C251.525,108.8 251.267,109.396 250.752,109.901 C250.236,110.406 249.562,110.659 248.728,110.659 C247.989,110.659 247.619,110.466 247.619,110.081 C247.619,109.82 247.765,109.69 248.056,109.69 C248.223,109.69 248.444,109.789 248.72,109.987 C248.996,110.185 249.228,110.284 249.416,110.284 C249.77,110.284 250.077,110.133 250.338,109.831 C250.598,109.529 250.728,109.133 250.728,108.643 C250.728,108.018 250.569,107.586 250.252,107.346 C249.934,107.107 249.473,106.987 248.869,106.987 L248.869,106.831 "/>
<path class="Tuplet" d="M202.598,106.831 C204.181,106.57 204.973,106.018 204.973,105.175 C204.973,104.893 204.892,104.669 204.731,104.503 C204.569,104.336 204.353,104.253 204.082,104.253 C203.676,104.253 203.306,104.477 202.973,104.925 L202.817,104.878 C202.984,104.555 203.21,104.297 203.497,104.104 C203.783,103.912 204.103,103.815 204.457,103.815 C204.853,103.815 205.184,103.938 205.45,104.182 C205.715,104.427 205.848,104.737 205.848,105.112 C205.848,105.445 205.739,105.716 205.52,105.925 C205.301,106.133 204.89,106.357 204.286,106.596 L204.286,106.612 C204.931,106.914 205.254,107.414 205.254,108.112 C205.254,108.8 204.997,109.396 204.481,109.901 C203.965,110.406 203.291,110.659 202.457,110.659 C201.718,110.659 201.348,110.466 201.348,110.081 C201.348,109.82 201.494,109.69 201.786,109.69 C201.952,109.69 202.174,109.789 202.45,109.987 C202.726,110.185 202.957,110.284 203.145,110.284 C203.499,110.284 203.806,110.133 204.067,109.831 C204.327,109.529 204.457,109.133 204.457,108.643 C204.457,108.018 204.299,107.586 203.981,107.346 C203.663,107.107 203.202,106.987 202.598,106.987 L202.598,106.831 "/>
<path class="Tuplet" d="M156.327,106.831 C157.911,106.57 158.702,106.018 158.702,105.175 C158.702,104.893 158.622,104.669 158.46,104.503 C158.299,104.336 158.083,104.253 157.812,104.253 C157.406,104.253 157.036,104.477 156.702,104.925 L156.546,104.878 C156.713,104.555 156.939,104.297 157.226,104.104 C157.512,103.912 157.833,103.815 158.187,103.815 C158.583,103.815 158.913,103.938 159.179,104.182 C159.445,104.427 159.577,104.737 159.577,105.112 C159.577,105.445 159.468,105.716 159.249,105.925 C159.031,106.133 158.619,106.357 158.015,106.596 L158.015,106.612 C158.661,106.914 158.984,107.414 158.984,108.112 C158.984,108.8 158.726,109.396 158.21,109.901 C157.695,110.406 157.02,110.659 156.187,110.659 C155.447,110.659 155.077,110.466 155.077,110.081 C155.077,109.82 155.223,109.69 155.515,109.69 C155.682,109.69 155.903,109.789 156.179,109.987 C156.455,110.185 156.687,110.284 156.874,110.284 C157.228,110.284 157.536,110.133 157.796,109.831 C158.057,109.529 158.187,109.133 158.187,108.643 C158.187,108.018 158.028,107.586 157.71,107.346 C157.393,107.107 156.932,106.987 156.327,106.987 L156.327,106.831 "/>
<path class="Tuplet" d="M110.057,106.831 C111.64,106.57 112.432,106.018 112.432,105.175 C112.432,104.893 112.351,104.669 112.19,104.503 C112.028,104.336 111.812,104.253 111.541,104.253 C111.135,104.253 110.765,104.477 110.432,104.925 L110.276,104.878 C110.442,104.555 110.669,104.297 110.955,104.104 C111.242,103.912 111.562,103.815 111.916,103.815 C112.312,103.815 112.643,103.938 112.908,104.182 C113.174,104.427 113.307,104.737 113.307,105.112 C113.307,105.445 113.197,105.716 112.979,105.925 C112.76,106.133 112.348,106.357 111.744,106.596 L111.744,106.612 C112.39,106.914 112.713,107.414 112.713,108.112 C112.713,108.8 112.455,109.396 111.94,109.901 C111.424,110.406 110.749,110.659 109.916,110.659 C109.177,110.659 108.807,110.466 108.807,110.081 C108.807,109.82 108.953,109.69 109.244,109.69 C109.411,109.69 109.632,109.789 109.908,109.987 C110.184,110.185 110.416,110.284 110.604,110.284 C110.958,110.284 111.265,110.133 111.526,109.831 C111.786,109.529 111.916,109.133 111.916,108.643 C111.916,108.018 111.757,107.586 111.44,107.346 C111.122,107.107 110.661,106.987 110.057,106.987 L110.057,106.831 "/>
</svg>
