<?xml version="1.0" encoding="UTF-8" standalone="no"?>
<svg width="595.44px" height="841.68px" viewBox="0 0 595.44 841.68"
 xmlns="http://www.w3.org/2000/svg" xmlns:xlink="http://www.w3.org/1999/xlink" version="1.2" baseProfile="tiny">
<title>Title</title>
<desc>Generated by MuseScore 2.3.2</desc>
<polyline class="StaffLines" fill="none" stroke="#000000" stroke-width="0.40" stroke-linejoin="bevel" points="28.3465,113.347 567.094,113.347"/>
<polyline class="StaffLines" fill="none" stroke="#000000" stroke-width="0.40" stroke-linejoin="bevel" points="28.3465,118.347 567.094,118.347"/>
<polyline class="StaffLines" fill="none" stroke="#000000" stroke-width="0.40" stroke-linejoin="bevel" points="28.3465,123.347 567.094,123.347"/>
<polyline class="StaffLines" fill="none" stroke="#000000" stroke-width="0.40" stroke-linejoin="bevel" points="28.3465,128.347 567.094,128.347"/>
<polyline class="StaffLines" fill="none" stroke="#000000" stroke-width="0.40" stroke-linejoin="bevel" points="28.3465,133.347 567.094,133.347"/>
<polyline class="StaffLines" fill="none" stroke="#000000" stroke-width="0.40" stroke-linejoin="bevel" points="28.3465,165.847 567.094,165.847"/>
<polyline class="StaffLines" fill="none" stroke="#000000" stroke-width="0.40" stroke-linejoin="bevel" points="28.3465,170.847 567.094,170.847"/>
<polyline class="StaffLines" fill="none" stroke="#000000" stroke-width="0.40" stroke-linejoin="bevel" points="28.3465,175.847 567.094,175.847"/>
<polyline class="StaffLines" fill="none" stroke="#000000" stroke-width="0.40" stroke-linejoin="bevel" points="28.3465,180.847 567.094,180.847"/>
<polyline class="StaffLines" fill="none" stroke="#000000" stroke-width="0.40" stroke-linejoin="bevel" points="28.3465,185.847 567.094,185.847"/>
<path class="SlurSegment" stroke="#000000" stroke-width="0.35" stroke-linecap="round" stroke-linejoin="round" fill-rule="evenodd" d="M94.4294,145.986 C140.688,74.3326 239.206,80.5109 266.249,99.0522 C239.417,81.2827 140.899,75.1043 94.4294,145.986"/>
<path class="SlurSegment" stroke="#000000" stroke-width="0.35" stroke-linecap="round" stroke-linejoin="round" fill-rule="evenodd" d=""/>
<polyline class="BarLine" stroke="#000000" stroke-width="0.80" stroke-linejoin="bevel" points="28.7465,113.347 28.7465,185.847"/>
<polyline class="BarLine" stroke="#000000" stroke-width="0.80" stroke-linejoin="bevel" points="562.194,165.847 562.194,185.847"/>
<polyline class="BarLine" stroke="#000000" stroke-width="2.50" stroke-linejoin="bevel" points="565.844,165.847 565.844,185.847"/>
<polyline class="BarLine" stroke="#000000" stroke-width="0.80" stroke-linejoin="bevel" points="562.194,113.347 562.194,133.347"/>
<polyline class="BarLine" stroke="#000000" stroke-width="2.50" stroke-linejoin="bevel" points="565.844,113.347 565.844,133.347"/>
<polyline class="BarLine" stroke="#000000" stroke-width="0.80" stroke-linejoin="bevel" points="466.428,165.847 466.428,185.847"/>
<polyline class="BarLine" stroke="#000000" stroke-width="0.80" stroke-linejoin="bevel" points="466.428,113.347 466.428,133.347"/>
<polyline class="BarLine" stroke="#000000" stroke-width="0.80" stroke-linejoin="bevel" points="370.662,165.847 370.662,185.847"/>
<polyline class="BarLine" stroke="#000000" stroke-width="0.80" stroke-linejoin="bevel" points="370.662,113.347 370.662,133.347"/>
<polyline class="BarLine" stroke="#000000" stroke-width="0.80" stroke-linejoin="bevel" points="274.897,165.847 274.897,185.847"/>
<polyline class="BarLine" stroke="#000000" stroke-width="0.80" stroke-linejoin="bevel" points="274.897,113.347 274.897,133.347"/>
<path class="Accidental" d="M256.823,129.581 C256.823,129.831 256.701,129.956 256.456,129.956 C256.211,129.956 256.089,129.831 256.089,129.581 L256.089,126.69 L254.432,127.315 L254.432,130.472 C254.432,130.722 254.307,130.847 254.057,130.847 C253.807,130.847 253.682,130.722 253.682,130.472 L253.682,127.565 L253.057,127.8 C253.047,127.81 252.995,127.815 252.901,127.815 C252.797,127.815 252.706,127.776 252.628,127.698 C252.549,127.62 252.51,127.529 252.51,127.425 L252.51,126.222 C252.51,126.024 252.594,125.899 252.76,125.847 L253.682,125.534 L253.682,122.331 L253.057,122.55 C253.047,122.56 252.995,122.565 252.901,122.565 C252.797,122.565 252.706,122.526 252.628,122.448 C252.549,122.37 252.51,122.279 252.51,122.175 L252.51,120.956 C252.51,120.779 252.594,120.664 252.76,120.612 L253.682,120.253 L253.682,117.112 C253.682,116.862 253.807,116.737 254.057,116.737 C254.307,116.737 254.432,116.862 254.432,117.112 L254.432,120.003 L256.089,119.378 L256.089,116.222 C256.089,115.972 256.211,115.847 256.456,115.847 C256.701,115.847 256.823,115.972 256.823,116.222 L256.823,119.128 L257.479,118.893 C257.49,118.883 257.531,118.878 257.604,118.878 C257.698,118.878 257.797,118.914 257.901,118.987 C257.984,119.07 258.026,119.164 258.026,119.268 L258.026,120.472 C258.026,120.659 257.932,120.784 257.745,120.847 L256.823,121.159 L256.823,124.362 L257.479,124.143 C257.49,124.133 257.531,124.128 257.604,124.128 C257.698,124.128 257.797,124.169 257.901,124.253 C257.984,124.326 258.026,124.414 258.026,124.518 L258.026,125.737 C258.026,125.904 257.932,126.018 257.745,126.081 L256.823,126.44 L256.823,129.581 M256.089,121.456 L254.432,122.034 L254.432,125.237 L256.089,124.659 L256.089,121.456 "/>
<path class="Accidental" d="M132.634,147.081 C132.634,147.331 132.511,147.456 132.267,147.456 C132.022,147.456 131.899,147.331 131.899,147.081 L131.899,144.19 L130.243,144.815 L130.243,147.972 C130.243,148.222 130.118,148.347 129.868,148.347 C129.618,148.347 129.493,148.222 129.493,147.972 L129.493,145.065 L128.868,145.3 C128.858,145.31 128.806,145.315 128.712,145.315 C128.608,145.315 128.517,145.276 128.439,145.198 C128.36,145.12 128.321,145.029 128.321,144.925 L128.321,143.722 C128.321,143.524 128.405,143.399 128.571,143.347 L129.493,143.034 L129.493,139.831 L128.868,140.05 C128.858,140.06 128.806,140.065 128.712,140.065 C128.608,140.065 128.517,140.026 128.439,139.948 C128.36,139.87 128.321,139.779 128.321,139.675 L128.321,138.456 C128.321,138.279 128.405,138.164 128.571,138.112 L129.493,137.753 L129.493,134.612 C129.493,134.362 129.618,134.237 129.868,134.237 C130.118,134.237 130.243,134.362 130.243,134.612 L130.243,137.503 L131.899,136.878 L131.899,133.722 C131.899,133.472 132.022,133.347 132.267,133.347 C132.511,133.347 132.634,133.472 132.634,133.722 L132.634,136.628 L133.29,136.393 C133.301,136.383 133.342,136.378 133.415,136.378 C133.509,136.378 133.608,136.414 133.712,136.487 C133.795,136.57 133.837,136.664 133.837,136.768 L133.837,137.972 C133.837,138.159 133.743,138.284 133.556,138.347 L132.634,138.659 L132.634,141.862 L133.29,141.643 C133.301,141.633 133.342,141.628 133.415,141.628 C133.509,141.628 133.608,141.669 133.712,141.753 C133.795,141.826 133.837,141.914 133.837,142.018 L133.837,143.237 C133.837,143.404 133.743,143.518 133.556,143.581 L132.634,143.94 L132.634,147.081 M131.899,138.956 L130.243,139.534 L130.243,142.737 L131.899,142.159 L131.899,138.956 "/>
<polyline class="LedgerLine" stroke="#000000" stroke-width="0.80" stroke-linecap="square" stroke-linejoin="bevel" points="180.564,138.347 190.147,138.347"/>
<polyline class="LedgerLine" stroke="#000000" stroke-width="0.80" stroke-linecap="square" stroke-linejoin="bevel" points="149.808,138.347 159.39,138.347"/>
<polyline class="LedgerLine" stroke="#000000" stroke-width="0.80" stroke-linecap="square" stroke-linejoin="bevel" points="149.808,143.347 159.39,143.347"/>
<polyline class="LedgerLine" stroke="#000000" stroke-width="0.80" stroke-linecap="square" stroke-linejoin="bevel" points="134.429,138.347 144.012,138.347"/>
<polyline class="LedgerLine" stroke="#000000" stroke-width="0.80" stroke-linecap="square" stroke-linejoin="bevel" points="86.634,190.847 99.5371,190.847"/>
<polyline class="LedgerLine" stroke="#000000" stroke-width="0.80" stroke-linecap="square" stroke-linejoin="bevel" points="86.634,195.847 99.5371,195.847"/>
<polyline class="LedgerLine" stroke="#000000" stroke-width="0.80" stroke-linecap="square" stroke-linejoin="bevel" points="86.634,200.847 99.5371,200.847"/>
<polyline class="Stem" stroke="#000000" stroke-width="0.65" stroke-linecap="round" stroke-linejoin="bevel" points="265.376,122.407 265.376,108.347"/>
<polyline class="Stem" stroke="#000000" stroke-width="0.65" stroke-linecap="round" stroke-linejoin="bevel" points="249.835,129.907 249.835,108.975"/>
<polyline class="Stem" stroke="#000000" stroke-width="0.65" stroke-linecap="round" stroke-linejoin="bevel" points="234.457,124.907 234.457,109.597"/>
<polyline class="Stem" stroke="#000000" stroke-width="0.65" stroke-linecap="round" stroke-linejoin="bevel" points="219.079,134.907 219.079,118.347"/>
<polyline class="Stem" stroke="#000000" stroke-width="0.65" stroke-linecap="round" stroke-linejoin="bevel" points="203.7,129.907 203.7,118.347"/>
<polyline class="Stem" stroke="#000000" stroke-width="0.65" stroke-linecap="round" stroke-linejoin="bevel" points="188.322,139.907 188.322,118.347"/>
<polyline class="Stem" stroke="#000000" stroke-width="0.65" stroke-linecap="round" stroke-linejoin="bevel" points="172.944,134.907 172.944,119.597"/>
<polyline class="Stem" stroke="#000000" stroke-width="0.65" stroke-linecap="round" stroke-linejoin="bevel" points="157.565,142.407 157.565,120.847"/>
<polyline class="Stem" stroke="#000000" stroke-width="0.65" stroke-linecap="round" stroke-linejoin="bevel" points="142.187,139.907 142.187,122.097"/>
<polyline class="Stem" stroke="#000000" stroke-width="0.65" stroke-linecap="round" stroke-linejoin="bevel" points="126.809,169.907 126.809,152.097"/>
<polyline class="Stem" stroke="#000000" stroke-width="0.65" stroke-linecap="round" stroke-linejoin="bevel" points="111.43,164.907 111.43,152.097"/>
<polyline class="Stem" stroke="#000000" stroke-width="0.65" stroke-linecap="round" stroke-linejoin="bevel" points="96.052,174.907 96.052,152.097"/>
<path class="Note" d="M263.509,120.597 C264.134,120.597 264.665,120.758 265.103,121.081 C265.498,121.435 265.696,121.878 265.696,122.409 C265.696,123.305 265.238,124.143 264.321,124.925 C263.384,125.706 262.379,126.097 261.306,126.097 C260.681,126.097 260.155,125.935 259.728,125.612 C259.321,125.258 259.118,124.815 259.118,124.284 C259.118,123.388 259.587,122.55 260.524,121.768 C261.441,120.987 262.436,120.597 263.509,120.597"/>
<path class="Note" d="M247.968,128.097 C248.593,128.097 249.124,128.258 249.562,128.581 C249.958,128.935 250.156,129.378 250.156,129.909 C250.156,130.805 249.697,131.643 248.781,132.425 C247.843,133.206 246.838,133.597 245.765,133.597 C245.14,133.597 244.614,133.435 244.187,133.112 C243.781,132.758 243.578,132.315 243.578,131.784 C243.578,130.888 244.046,130.05 244.984,129.268 C245.901,128.487 246.895,128.097 247.968,128.097"/>
<path class="Note" d="M232.59,123.097 C233.215,123.097 233.746,123.258 234.184,123.581 C234.579,123.935 234.777,124.378 234.777,124.909 C234.777,125.805 234.319,126.643 233.402,127.425 C232.465,128.206 231.46,128.597 230.387,128.597 C229.762,128.597 229.236,128.435 228.809,128.112 C228.402,127.758 228.199,127.315 228.199,126.784 C228.199,125.888 228.668,125.05 229.606,124.268 C230.522,123.487 231.517,123.097 232.59,123.097"/>
<path class="Note" d="M217.212,133.097 C217.837,133.097 218.368,133.258 218.805,133.581 C219.201,133.935 219.399,134.378 219.399,134.909 C219.399,135.805 218.941,136.643 218.024,137.425 C217.087,138.206 216.081,138.597 215.008,138.597 C214.383,138.597 213.857,138.435 213.43,138.112 C213.024,137.758 212.821,137.315 212.821,136.784 C212.821,135.888 213.29,135.05 214.227,134.268 C215.144,133.487 216.139,133.097 217.212,133.097"/>
<path class="Note" d="M201.833,128.097 C202.458,128.097 202.989,128.258 203.427,128.581 C203.823,128.935 204.021,129.378 204.021,129.909 C204.021,130.805 203.562,131.643 202.646,132.425 C201.708,133.206 200.703,133.597 199.63,133.597 C199.005,133.597 198.479,133.435 198.052,133.112 C197.646,132.758 197.443,132.315 197.443,131.784 C197.443,130.888 197.911,130.05 198.849,129.268 C199.765,128.487 200.76,128.097 201.833,128.097"/>
<path class="Note" d="M186.455,138.097 C187.08,138.097 187.611,138.258 188.049,138.581 C188.444,138.935 188.642,139.378 188.642,139.909 C188.642,140.805 188.184,141.643 187.267,142.425 C186.33,143.206 185.325,143.597 184.252,143.597 C183.627,143.597 183.101,143.435 182.674,143.112 C182.267,142.758 182.064,142.315 182.064,141.784 C182.064,140.888 182.533,140.05 183.47,139.268 C184.387,138.487 185.382,138.097 186.455,138.097"/>
<path class="Note" d="M171.077,133.097 C171.702,133.097 172.233,133.258 172.67,133.581 C173.066,133.935 173.264,134.378 173.264,134.909 C173.264,135.805 172.806,136.643 171.889,137.425 C170.952,138.206 169.946,138.597 168.873,138.597 C168.248,138.597 167.722,138.435 167.295,138.112 C166.889,137.758 166.686,137.315 166.686,136.784 C166.686,135.888 167.155,135.05 168.092,134.268 C169.009,133.487 170.004,133.097 171.077,133.097"/>
<path class="Note" d="M155.698,140.597 C156.323,140.597 156.854,140.758 157.292,141.081 C157.688,141.435 157.886,141.878 157.886,142.409 C157.886,143.305 157.427,144.143 156.511,144.925 C155.573,145.706 154.568,146.097 153.495,146.097 C152.87,146.097 152.344,145.935 151.917,145.612 C151.511,145.258 151.308,144.815 151.308,144.284 C151.308,143.388 151.776,142.55 152.714,141.768 C153.63,140.987 154.625,140.597 155.698,140.597"/>
<path class="Note" d="M140.32,138.097 C140.945,138.097 141.476,138.258 141.914,138.581 C142.309,138.935 142.507,139.378 142.507,139.909 C142.507,140.805 142.049,141.643 141.132,142.425 C140.195,143.206 139.19,143.597 138.117,143.597 C137.492,143.597 136.966,143.435 136.539,143.112 C136.132,142.758 135.929,142.315 135.929,141.784 C135.929,140.888 136.398,140.05 137.335,139.268 C138.252,138.487 139.247,138.097 140.32,138.097"/>
<path class="Note" d="M124.941,168.097 C125.566,168.097 126.098,168.258 126.535,168.581 C126.931,168.935 127.129,169.378 127.129,169.909 C127.129,170.805 126.671,171.643 125.754,172.425 C124.816,173.206 123.811,173.597 122.738,173.597 C122.113,173.597 121.587,173.435 121.16,173.112 C120.754,172.758 120.551,172.315 120.551,171.784 C120.551,170.888 121.02,170.05 121.957,169.268 C122.874,168.487 123.869,168.097 124.941,168.097"/>
<path class="Note" d="M109.563,163.097 C110.188,163.097 110.719,163.258 111.157,163.581 C111.553,163.935 111.751,164.378 111.751,164.909 C111.751,165.805 111.292,166.643 110.376,167.425 C109.438,168.206 108.433,168.597 107.36,168.597 C106.735,168.597 106.209,168.435 105.782,168.112 C105.376,167.758 105.172,167.315 105.172,166.784 C105.172,165.888 105.641,165.05 106.579,164.268 C107.495,163.487 108.49,163.097 109.563,163.097"/>
<path class="Note" d="M92.4309,183.597 C91.9621,183.597 91.6236,183.758 91.4152,184.081 C91.1861,184.393 91.0715,184.821 91.0715,185.362 C91.0715,185.977 91.233,186.503 91.5559,186.94 C91.8788,187.367 92.2382,187.669 92.634,187.847 C92.9777,188.013 93.3475,188.097 93.7434,188.097 C94.2017,188.097 94.5455,187.935 94.7746,187.612 C94.9934,187.279 95.1027,186.852 95.1027,186.331 C95.1027,185.716 94.9413,185.19 94.6184,184.753 C94.2955,184.336 93.9465,184.034 93.5715,183.847 C93.1861,183.68 92.8059,183.597 92.4309,183.597 M93.1027,183.097 C94.509,183.097 95.6809,183.367 96.6184,183.909 C97.5663,184.461 98.0402,185.107 98.0402,185.847 C98.0402,186.638 97.5507,187.289 96.5715,187.8 C95.5923,188.331 94.4361,188.597 93.1027,188.597 C91.7173,188.597 90.5455,188.326 89.5871,187.784 C88.6184,187.232 88.134,186.586 88.134,185.847 C88.134,185.055 88.6288,184.404 89.6184,183.893 C90.5975,183.362 91.759,183.097 93.1027,183.097"/>
<path class="Note" d="M92.4309,201.097 C91.9621,201.097 91.6236,201.258 91.4152,201.581 C91.1861,201.893 91.0715,202.321 91.0715,202.862 C91.0715,203.477 91.233,204.003 91.5559,204.44 C91.8788,204.867 92.2382,205.169 92.634,205.347 C92.9777,205.513 93.3475,205.597 93.7434,205.597 C94.2017,205.597 94.5455,205.435 94.7746,205.112 C94.9934,204.779 95.1027,204.352 95.1027,203.831 C95.1027,203.216 94.9413,202.69 94.6184,202.253 C94.2955,201.836 93.9465,201.534 93.5715,201.347 C93.1861,201.18 92.8059,201.097 92.4309,201.097 M93.1027,200.597 C94.509,200.597 95.6809,200.867 96.6184,201.409 C97.5663,201.961 98.0402,202.607 98.0402,203.347 C98.0402,204.138 97.5507,204.789 96.5715,205.3 C95.5923,205.831 94.4361,206.097 93.1027,206.097 C91.7173,206.097 90.5455,205.826 89.5871,205.284 C88.6184,204.732 88.134,204.086 88.134,203.347 C88.134,202.555 88.6288,201.904 89.6184,201.393 C90.5975,200.862 91.759,200.597 93.1027,200.597"/>
<path class="Note" d="M94.1848,173.097 C94.8098,173.097 95.341,173.258 95.7785,173.581 C96.1744,173.935 96.3723,174.378 96.3723,174.909 C96.3723,175.805 95.9139,176.643 94.9973,177.425 C94.0598,178.206 93.0546,178.597 91.9817,178.597 C91.3567,178.597 90.8306,178.435 90.4035,178.112 C89.9973,177.758 89.7942,177.315 89.7942,176.784 C89.7942,175.888 90.2629,175.05 91.2004,174.268 C92.1171,173.487 93.1119,173.097 94.1848,173.097"/>
<path class="Clef" d="M43.7761,169.065 C43.5834,168.867 43.4871,168.625 43.4871,168.339 C43.4871,168.052 43.5834,167.813 43.7761,167.62 C43.9689,167.427 44.2084,167.331 44.4949,167.331 C44.7814,167.331 45.0235,167.427 45.2215,167.62 C45.4194,167.813 45.5183,168.052 45.5183,168.339 C45.5183,168.625 45.4194,168.867 45.2215,169.065 C45.0235,169.263 44.7814,169.362 44.4949,169.362 C44.2084,169.362 43.9689,169.263 43.7761,169.065 M43.7761,174.073 C43.5834,173.88 43.4871,173.641 43.4871,173.354 C43.4871,173.068 43.5834,172.826 43.7761,172.628 C43.9689,172.43 44.2084,172.331 44.4949,172.331 C44.7814,172.331 45.0235,172.43 45.2215,172.628 C45.4194,172.826 45.5183,173.068 45.5183,173.354 C45.5183,173.641 45.4194,173.88 45.2215,174.073 C45.0235,174.266 44.7814,174.362 44.4949,174.362 C44.2084,174.362 43.9689,174.266 43.7761,174.073 M37.0027,165.597 C38.7319,165.597 40.1485,166.029 41.2527,166.893 C42.3256,167.81 42.8621,169.05 42.8621,170.612 C42.8621,171.664 42.6538,172.628 42.2371,173.503 C41.8413,174.419 41.3256,175.227 40.6902,175.925 C40.034,176.643 39.2475,177.321 38.3308,177.956 C37.4246,178.581 36.4975,179.143 35.5496,179.643 C33.6225,180.612 32.5548,181.097 32.3465,181.097 C32.1798,181.097 32.0965,181.013 32.0965,180.847 C32.0965,180.784 32.1225,180.727 32.1746,180.675 C32.8413,180.279 33.6538,179.779 34.6121,179.175 C35.2371,178.768 35.9663,178.206 36.7996,177.487 C37.6121,176.81 38.2371,176.175 38.6746,175.581 C39.1329,174.987 39.5496,174.258 39.9246,173.393 C40.2475,172.518 40.409,171.654 40.409,170.8 C40.409,169.539 40.0965,168.44 39.4715,167.503 C38.8465,166.565 38.0235,166.097 37.0027,166.097 C36.2735,166.097 35.6485,166.331 35.1277,166.8 C34.5652,167.279 34.159,167.883 33.909,168.612 C34.159,168.508 34.3881,168.456 34.5965,168.456 C35.1381,168.456 35.6069,168.654 36.0027,169.05 C36.3881,169.466 36.5808,169.94 36.5808,170.472 C36.5808,171.034 36.3933,171.539 36.0183,171.987 C35.6121,172.383 35.1381,172.581 34.5965,172.581 C34.0131,172.581 33.4871,172.383 33.0183,171.987 C32.5704,171.539 32.3465,171.034 32.3465,170.472 C32.3465,169.128 32.8048,167.982 33.7215,167.034 C34.6173,166.076 35.711,165.597 37.0027,165.597"/>
<path class="Clef" d="M39.6902,123.222 C39.6902,123.222 39.7319,123.222 39.8152,123.222 C39.8673,123.211 39.909,123.206 39.9402,123.206 C41.3985,123.206 42.5965,123.722 43.534,124.753 C44.4715,125.763 44.9402,126.945 44.9402,128.3 C44.9402,129.987 44.2475,131.357 42.8621,132.409 C42.4975,132.701 42.0183,132.935 41.4246,133.112 C41.4975,133.956 41.534,134.638 41.534,135.159 C41.534,135.263 41.5183,135.643 41.4871,136.3 C41.435,137.508 41.0183,138.555 40.2371,139.44 C39.4871,140.315 38.5496,140.753 37.4246,140.753 C36.3725,140.753 35.4767,140.383 34.7371,139.643 C33.9871,138.883 33.6121,137.972 33.6121,136.909 C33.6121,136.347 33.8308,135.867 34.2683,135.472 C34.7058,135.086 35.2163,134.893 35.7996,134.893 C36.3204,134.893 36.7579,135.097 37.1121,135.503 C37.4767,135.878 37.659,136.347 37.659,136.909 C37.659,137.409 37.4767,137.841 37.1121,138.206 C36.7475,138.57 36.31,138.753 35.7996,138.753 C35.5913,138.753 35.3933,138.716 35.2058,138.643 C35.7788,139.487 36.5392,139.909 37.4871,139.909 C38.3829,139.909 39.1173,139.544 39.6902,138.815 C40.2944,138.065 40.6225,137.185 40.6746,136.175 C40.6954,135.55 40.7058,135.195 40.7058,135.112 C40.7058,134.383 40.6798,133.784 40.6277,133.315 C39.9819,133.419 39.4038,133.472 38.8933,133.472 C37.0808,133.472 35.5392,132.753 34.2683,131.315 C33.0183,129.867 32.3933,128.149 32.3933,126.159 C32.3933,125.742 32.4298,125.32 32.5027,124.893 C32.586,124.539 32.685,124.154 32.7996,123.737 C32.8621,123.498 33.0392,123.117 33.3308,122.597 C33.435,122.44 33.5522,122.245 33.6824,122.011 C33.8126,121.776 33.9038,121.623 33.9558,121.55 C34.0808,121.289 34.3308,120.935 34.7058,120.487 C34.81,120.373 34.9194,120.245 35.034,120.104 C35.1485,119.964 35.2449,119.847 35.323,119.753 C35.4011,119.659 35.4584,119.586 35.4949,119.534 C35.5314,119.482 35.8256,119.138 36.3777,118.503 C36.5027,118.367 36.6277,118.227 36.7527,118.081 C36.8777,117.935 36.9793,117.818 37.0574,117.729 C37.1355,117.641 37.1954,117.581 37.2371,117.55 C36.7683,115.998 36.4715,114.758 36.3465,113.831 C36.2631,113.091 36.2215,112.076 36.2215,110.784 C36.2215,109.649 36.4819,108.586 37.0027,107.597 C37.5027,106.576 38.211,105.737 39.1277,105.081 C39.1902,105.039 39.2527,105.018 39.3152,105.018 C39.409,105.018 39.4767,105.039 39.5183,105.081 C40.2163,105.925 40.8204,107.024 41.3308,108.378 C41.8517,109.732 42.1121,110.966 42.1121,112.081 C42.1121,113.331 41.8152,114.503 41.2215,115.597 C40.5444,116.753 39.6694,117.951 38.5965,119.19 C38.8673,120.044 39.2319,121.388 39.6902,123.222 M41.3465,132.315 C42.0235,132.065 42.5548,131.643 42.9402,131.05 C43.3569,130.477 43.5652,129.831 43.5652,129.112 C43.5652,128.185 43.2527,127.362 42.6277,126.643 C41.9819,125.904 41.1642,125.487 40.1746,125.393 C40.7371,128.143 41.1277,130.451 41.3465,132.315 M33.7996,127.8 C33.7996,129.091 34.3204,130.227 35.3621,131.206 C36.4246,132.154 37.6225,132.628 38.9558,132.628 C39.4975,132.628 40.0288,132.586 40.5496,132.503 C40.3413,130.524 39.9298,128.154 39.3152,125.393 C38.5756,125.477 37.9871,125.737 37.5496,126.175 C37.1121,126.633 36.8933,127.149 36.8933,127.722 C36.8933,128.711 37.4246,129.513 38.4871,130.128 C38.5704,130.222 38.6121,130.32 38.6121,130.425 C38.6121,130.529 38.5704,130.623 38.4871,130.706 C38.4038,130.8 38.3048,130.847 38.1902,130.847 C38.1798,130.847 38.1225,130.836 38.0183,130.815 C37.2683,130.409 36.6954,129.888 36.2996,129.253 C35.9142,128.565 35.7215,127.878 35.7215,127.19 C35.7215,126.294 36.0027,125.482 36.5652,124.753 C37.1485,124.024 37.909,123.555 38.8465,123.347 C38.4819,121.888 38.185,120.748 37.9558,119.925 C37.7475,120.164 37.4975,120.448 37.2058,120.776 C36.9142,121.104 36.7423,121.305 36.6902,121.378 C36.2215,121.982 35.8621,122.456 35.6121,122.8 C35.1642,123.414 34.836,123.94 34.6277,124.378 C34.409,124.878 34.2163,125.419 34.0496,126.003 C33.8829,126.565 33.7996,127.164 33.7996,127.8 M40.3152,107.94 C39.336,108.419 38.5704,109.107 38.0183,110.003 C37.4454,110.93 37.159,111.925 37.159,112.987 C37.159,113.925 37.3933,115.19 37.8621,116.784 C38.7996,115.649 39.5027,114.602 39.9715,113.643 C40.461,112.623 40.7058,111.56 40.7058,110.456 C40.7058,109.623 40.5756,108.784 40.3152,107.94"/>
<path class="KeySig" d="M67.0355,182.081 C67.0355,182.331 66.9131,182.456 66.6684,182.456 C66.4236,182.456 66.3012,182.331 66.3012,182.081 L66.3012,179.19 L64.6449,179.815 L64.6449,182.972 C64.6449,183.222 64.5199,183.347 64.2699,183.347 C64.0199,183.347 63.8949,183.222 63.8949,182.972 L63.8949,180.065 L63.2699,180.3 C63.2595,180.31 63.2074,180.315 63.1137,180.315 C63.0095,180.315 62.9184,180.276 62.8402,180.198 C62.7621,180.12 62.723,180.029 62.723,179.925 L62.723,178.722 C62.723,178.524 62.8064,178.399 62.973,178.347 L63.8949,178.034 L63.8949,174.831 L63.2699,175.05 C63.2595,175.06 63.2074,175.065 63.1137,175.065 C63.0095,175.065 62.9184,175.026 62.8402,174.948 C62.7621,174.87 62.723,174.779 62.723,174.675 L62.723,173.456 C62.723,173.279 62.8064,173.164 62.973,173.112 L63.8949,172.753 L63.8949,169.612 C63.8949,169.362 64.0199,169.237 64.2699,169.237 C64.5199,169.237 64.6449,169.362 64.6449,169.612 L64.6449,172.503 L66.3012,171.878 L66.3012,168.722 C66.3012,168.472 66.4236,168.347 66.6684,168.347 C66.9131,168.347 67.0355,168.472 67.0355,168.722 L67.0355,171.628 L67.6918,171.393 C67.7022,171.383 67.7439,171.378 67.8168,171.378 C67.9105,171.378 68.0095,171.414 68.1137,171.487 C68.197,171.571 68.2387,171.664 68.2387,171.768 L68.2387,172.972 C68.2387,173.159 68.1449,173.284 67.9574,173.347 L67.0355,173.659 L67.0355,176.862 L67.6918,176.643 C67.7022,176.633 67.7439,176.628 67.8168,176.628 C67.9105,176.628 68.0095,176.669 68.1137,176.753 C68.197,176.826 68.2387,176.914 68.2387,177.018 L68.2387,178.237 C68.2387,178.404 68.1449,178.518 67.9574,178.581 L67.0355,178.94 L67.0355,182.081 M66.3012,173.956 L64.6449,174.534 L64.6449,177.737 L66.3012,177.159 L66.3012,173.956 "/>
<path class="KeySig" d="M62.0355,174.581 C62.0355,174.831 61.9131,174.956 61.6684,174.956 C61.4236,174.956 61.3012,174.831 61.3012,174.581 L61.3012,171.69 L59.6449,172.315 L59.6449,175.472 C59.6449,175.722 59.5199,175.847 59.2699,175.847 C59.0199,175.847 58.8949,175.722 58.8949,175.472 L58.8949,172.565 L58.2699,172.8 C58.2595,172.81 58.2074,172.815 58.1137,172.815 C58.0095,172.815 57.9184,172.776 57.8402,172.698 C57.7621,172.62 57.723,172.529 57.723,172.425 L57.723,171.222 C57.723,171.024 57.8064,170.899 57.973,170.847 L58.8949,170.534 L58.8949,167.331 L58.2699,167.55 C58.2595,167.56 58.2074,167.565 58.1137,167.565 C58.0095,167.565 57.9184,167.526 57.8402,167.448 C57.7621,167.37 57.723,167.279 57.723,167.175 L57.723,165.956 C57.723,165.779 57.8064,165.664 57.973,165.612 L58.8949,165.253 L58.8949,162.112 C58.8949,161.862 59.0199,161.737 59.2699,161.737 C59.5199,161.737 59.6449,161.862 59.6449,162.112 L59.6449,165.003 L61.3012,164.378 L61.3012,161.222 C61.3012,160.972 61.4236,160.847 61.6684,160.847 C61.9131,160.847 62.0355,160.972 62.0355,161.222 L62.0355,164.128 L62.6918,163.893 C62.7022,163.883 62.7439,163.878 62.8168,163.878 C62.9105,163.878 63.0095,163.914 63.1137,163.987 C63.197,164.071 63.2387,164.164 63.2387,164.268 L63.2387,165.472 C63.2387,165.659 63.1449,165.784 62.9574,165.847 L62.0355,166.159 L62.0355,169.362 L62.6918,169.143 C62.7022,169.133 62.7439,169.128 62.8168,169.128 C62.9105,169.128 63.0095,169.169 63.1137,169.253 C63.197,169.326 63.2387,169.414 63.2387,169.518 L63.2387,170.737 C63.2387,170.904 63.1449,171.018 62.9574,171.081 L62.0355,171.44 L62.0355,174.581 M61.3012,166.456 L59.6449,167.034 L59.6449,170.237 L61.3012,169.659 L61.3012,166.456 "/>
<path class="KeySig" d="M57.0355,184.581 C57.0355,184.831 56.9131,184.956 56.6683,184.956 C56.4236,184.956 56.3012,184.831 56.3012,184.581 L56.3012,181.69 L54.6449,182.315 L54.6449,185.472 C54.6449,185.722 54.5199,185.847 54.2699,185.847 C54.0199,185.847 53.8949,185.722 53.8949,185.472 L53.8949,182.565 L53.2699,182.8 C53.2595,182.81 53.2074,182.815 53.1137,182.815 C53.0095,182.815 52.9183,182.776 52.8402,182.698 C52.7621,182.62 52.723,182.529 52.723,182.425 L52.723,181.222 C52.723,181.024 52.8064,180.899 52.973,180.847 L53.8949,180.534 L53.8949,177.331 L53.2699,177.55 C53.2595,177.56 53.2074,177.565 53.1137,177.565 C53.0095,177.565 52.9183,177.526 52.8402,177.448 C52.7621,177.37 52.723,177.279 52.723,177.175 L52.723,175.956 C52.723,175.779 52.8064,175.664 52.973,175.612 L53.8949,175.253 L53.8949,172.112 C53.8949,171.862 54.0199,171.737 54.2699,171.737 C54.5199,171.737 54.6449,171.862 54.6449,172.112 L54.6449,175.003 L56.3012,174.378 L56.3012,171.222 C56.3012,170.972 56.4236,170.847 56.6683,170.847 C56.9131,170.847 57.0355,170.972 57.0355,171.222 L57.0355,174.128 L57.6918,173.893 C57.7022,173.883 57.7439,173.878 57.8168,173.878 C57.9105,173.878 58.0095,173.914 58.1137,173.987 C58.197,174.071 58.2387,174.164 58.2387,174.268 L58.2387,175.472 C58.2387,175.659 58.1449,175.784 57.9574,175.847 L57.0355,176.159 L57.0355,179.362 L57.6918,179.143 C57.7022,179.133 57.7439,179.128 57.8168,179.128 C57.9105,179.128 58.0095,179.169 58.1137,179.253 C58.197,179.326 58.2387,179.414 58.2387,179.518 L58.2387,180.737 C58.2387,180.904 58.1449,181.018 57.9574,181.081 L57.0355,181.44 L57.0355,184.581 M56.3012,176.456 L54.6449,177.034 L54.6449,180.237 L56.3012,179.659 L56.3012,176.456 "/>
<path class="KeySig" d="M52.0355,177.081 C52.0355,177.331 51.9131,177.456 51.6683,177.456 C51.4236,177.456 51.3012,177.331 51.3012,177.081 L51.3012,174.19 L49.6449,174.815 L49.6449,177.972 C49.6449,178.222 49.5199,178.347 49.2699,178.347 C49.0199,178.347 48.8949,178.222 48.8949,177.972 L48.8949,175.065 L48.2699,175.3 C48.2595,175.31 48.2074,175.315 48.1137,175.315 C48.0095,175.315 47.9183,175.276 47.8402,175.198 C47.7621,175.12 47.723,175.029 47.723,174.925 L47.723,173.722 C47.723,173.524 47.8064,173.399 47.973,173.347 L48.8949,173.034 L48.8949,169.831 L48.2699,170.05 C48.2595,170.06 48.2074,170.065 48.1137,170.065 C48.0095,170.065 47.9183,170.026 47.8402,169.948 C47.7621,169.87 47.723,169.779 47.723,169.675 L47.723,168.456 C47.723,168.279 47.8064,168.164 47.973,168.112 L48.8949,167.753 L48.8949,164.612 C48.8949,164.362 49.0199,164.237 49.2699,164.237 C49.5199,164.237 49.6449,164.362 49.6449,164.612 L49.6449,167.503 L51.3012,166.878 L51.3012,163.722 C51.3012,163.472 51.4236,163.347 51.6683,163.347 C51.9131,163.347 52.0355,163.472 52.0355,163.722 L52.0355,166.628 L52.6918,166.393 C52.7022,166.383 52.7439,166.378 52.8168,166.378 C52.9105,166.378 53.0095,166.414 53.1137,166.487 C53.197,166.571 53.2387,166.664 53.2387,166.768 L53.2387,167.972 C53.2387,168.159 53.1449,168.284 52.9574,168.347 L52.0355,168.659 L52.0355,171.862 L52.6918,171.643 C52.7022,171.633 52.7439,171.628 52.8168,171.628 C52.9105,171.628 53.0095,171.669 53.1137,171.753 C53.197,171.826 53.2387,171.914 53.2387,172.018 L53.2387,173.237 C53.2387,173.404 53.1449,173.518 52.9574,173.581 L52.0355,173.94 L52.0355,177.081 M51.3012,168.956 L49.6449,169.534 L49.6449,172.737 L51.3012,172.159 L51.3012,168.956 "/>
<path class="KeySig" d="M67.0355,124.581 C67.0355,124.831 66.9131,124.956 66.6684,124.956 C66.4236,124.956 66.3012,124.831 66.3012,124.581 L66.3012,121.69 L64.6449,122.315 L64.6449,125.472 C64.6449,125.722 64.5199,125.847 64.2699,125.847 C64.0199,125.847 63.8949,125.722 63.8949,125.472 L63.8949,122.565 L63.2699,122.8 C63.2595,122.81 63.2074,122.815 63.1137,122.815 C63.0095,122.815 62.9184,122.776 62.8402,122.698 C62.7621,122.62 62.723,122.529 62.723,122.425 L62.723,121.222 C62.723,121.024 62.8064,120.899 62.973,120.847 L63.8949,120.534 L63.8949,117.331 L63.2699,117.55 C63.2595,117.56 63.2074,117.565 63.1137,117.565 C63.0095,117.565 62.9184,117.526 62.8402,117.448 C62.7621,117.37 62.723,117.279 62.723,117.175 L62.723,115.956 C62.723,115.779 62.8064,115.664 62.973,115.612 L63.8949,115.253 L63.8949,112.112 C63.8949,111.862 64.0199,111.737 64.2699,111.737 C64.5199,111.737 64.6449,111.862 64.6449,112.112 L64.6449,115.003 L66.3012,114.378 L66.3012,111.222 C66.3012,110.972 66.4236,110.847 66.6684,110.847 C66.9131,110.847 67.0355,110.972 67.0355,111.222 L67.0355,114.128 L67.6918,113.893 C67.7022,113.883 67.7439,113.878 67.8168,113.878 C67.9105,113.878 68.0095,113.914 68.1137,113.987 C68.197,114.07 68.2387,114.164 68.2387,114.268 L68.2387,115.472 C68.2387,115.659 68.1449,115.784 67.9574,115.847 L67.0355,116.159 L67.0355,119.362 L67.6918,119.143 C67.7022,119.133 67.7439,119.128 67.8168,119.128 C67.9105,119.128 68.0095,119.169 68.1137,119.253 C68.197,119.326 68.2387,119.414 68.2387,119.518 L68.2387,120.737 C68.2387,120.904 68.1449,121.018 67.9574,121.081 L67.0355,121.44 L67.0355,124.581 M66.3012,116.456 L64.6449,117.034 L64.6449,120.237 L66.3012,119.659 L66.3012,116.456 "/>
<path class="KeySig" d="M62.0355,117.081 C62.0355,117.331 61.9131,117.456 61.6684,117.456 C61.4236,117.456 61.3012,117.331 61.3012,117.081 L61.3012,114.19 L59.6449,114.815 L59.6449,117.972 C59.6449,118.222 59.5199,118.347 59.2699,118.347 C59.0199,118.347 58.8949,118.222 58.8949,117.972 L58.8949,115.065 L58.2699,115.3 C58.2595,115.31 58.2074,115.315 58.1137,115.315 C58.0095,115.315 57.9184,115.276 57.8402,115.198 C57.7621,115.12 57.723,115.029 57.723,114.925 L57.723,113.722 C57.723,113.524 57.8064,113.399 57.973,113.347 L58.8949,113.034 L58.8949,109.831 L58.2699,110.05 C58.2595,110.06 58.2074,110.065 58.1137,110.065 C58.0095,110.065 57.9184,110.026 57.8402,109.948 C57.7621,109.87 57.723,109.779 57.723,109.675 L57.723,108.456 C57.723,108.279 57.8064,108.164 57.973,108.112 L58.8949,107.753 L58.8949,104.612 C58.8949,104.362 59.0199,104.237 59.2699,104.237 C59.5199,104.237 59.6449,104.362 59.6449,104.612 L59.6449,107.503 L61.3012,106.878 L61.3012,103.722 C61.3012,103.472 61.4236,103.347 61.6684,103.347 C61.9131,103.347 62.0355,103.472 62.0355,103.722 L62.0355,106.628 L62.6918,106.393 C62.7022,106.383 62.7439,106.378 62.8168,106.378 C62.9105,106.378 63.0095,106.414 63.1137,106.487 C63.197,106.57 63.2387,106.664 63.2387,106.768 L63.2387,107.972 C63.2387,108.159 63.1449,108.284 62.9574,108.347 L62.0355,108.659 L62.0355,111.862 L62.6918,111.643 C62.7022,111.633 62.7439,111.628 62.8168,111.628 C62.9105,111.628 63.0095,111.669 63.1137,111.753 C63.197,111.826 63.2387,111.914 63.2387,112.018 L63.2387,113.237 C63.2387,113.404 63.1449,113.518 62.9574,113.581 L62.0355,113.94 L62.0355,117.081 M61.3012,108.956 L59.6449,109.534 L59.6449,112.737 L61.3012,112.159 L61.3012,108.956 "/>
<path class="KeySig" d="M57.0355,127.081 C57.0355,127.331 56.9131,127.456 56.6683,127.456 C56.4236,127.456 56.3012,127.331 56.3012,127.081 L56.3012,124.19 L54.6449,124.815 L54.6449,127.972 C54.6449,128.222 54.5199,128.347 54.2699,128.347 C54.0199,128.347 53.8949,128.222 53.8949,127.972 L53.8949,125.065 L53.2699,125.3 C53.2595,125.31 53.2074,125.315 53.1137,125.315 C53.0095,125.315 52.9183,125.276 52.8402,125.198 C52.7621,125.12 52.723,125.029 52.723,124.925 L52.723,123.722 C52.723,123.524 52.8064,123.399 52.973,123.347 L53.8949,123.034 L53.8949,119.831 L53.2699,120.05 C53.2595,120.06 53.2074,120.065 53.1137,120.065 C53.0095,120.065 52.9183,120.026 52.8402,119.948 C52.7621,119.87 52.723,119.779 52.723,119.675 L52.723,118.456 C52.723,118.279 52.8064,118.164 52.973,118.112 L53.8949,117.753 L53.8949,114.612 C53.8949,114.362 54.0199,114.237 54.2699,114.237 C54.5199,114.237 54.6449,114.362 54.6449,114.612 L54.6449,117.503 L56.3012,116.878 L56.3012,113.722 C56.3012,113.472 56.4236,113.347 56.6683,113.347 C56.9131,113.347 57.0355,113.472 57.0355,113.722 L57.0355,116.628 L57.6918,116.393 C57.7022,116.383 57.7439,116.378 57.8168,116.378 C57.9105,116.378 58.0095,116.414 58.1137,116.487 C58.197,116.57 58.2387,116.664 58.2387,116.768 L58.2387,117.972 C58.2387,118.159 58.1449,118.284 57.9574,118.347 L57.0355,118.659 L57.0355,121.862 L57.6918,121.643 C57.7022,121.633 57.7439,121.628 57.8168,121.628 C57.9105,121.628 58.0095,121.669 58.1137,121.753 C58.197,121.826 58.2387,121.914 58.2387,122.018 L58.2387,123.237 C58.2387,123.404 58.1449,123.518 57.9574,123.581 L57.0355,123.94 L57.0355,127.081 M56.3012,118.956 L54.6449,119.534 L54.6449,122.737 L56.3012,122.159 L56.3012,118.956 "/>
<path class="KeySig" d="M52.0355,119.581 C52.0355,119.831 51.9131,119.956 51.6683,119.956 C51.4236,119.956 51.3012,119.831 51.3012,119.581 L51.3012,116.69 L49.6449,117.315 L49.6449,120.472 C49.6449,120.722 49.5199,120.847 49.2699,120.847 C49.0199,120.847 48.8949,120.722 48.8949,120.472 L48.8949,117.565 L48.2699,117.8 C48.2595,117.81 48.2074,117.815 48.1137,117.815 C48.0095,117.815 47.9183,117.776 47.8402,117.698 C47.7621,117.62 47.723,117.529 47.723,117.425 L47.723,116.222 C47.723,116.024 47.8064,115.899 47.973,115.847 L48.8949,115.534 L48.8949,112.331 L48.2699,112.55 C48.2595,112.56 48.2074,112.565 48.1137,112.565 C48.0095,112.565 47.9183,112.526 47.8402,112.448 C47.7621,112.37 47.723,112.279 47.723,112.175 L47.723,110.956 C47.723,110.779 47.8064,110.664 47.973,110.612 L48.8949,110.253 L48.8949,107.112 C48.8949,106.862 49.0199,106.737 49.2699,106.737 C49.5199,106.737 49.6449,106.862 49.6449,107.112 L49.6449,110.003 L51.3012,109.378 L51.3012,106.222 C51.3012,105.972 51.4236,105.847 51.6683,105.847 C51.9131,105.847 52.0355,105.972 52.0355,106.222 L52.0355,109.128 L52.6918,108.893 C52.7022,108.883 52.7439,108.878 52.8168,108.878 C52.9105,108.878 53.0095,108.914 53.1137,108.987 C53.197,109.07 53.2387,109.164 53.2387,109.268 L53.2387,110.472 C53.2387,110.659 53.1449,110.784 52.9574,110.847 L52.0355,111.159 L52.0355,114.362 L52.6918,114.143 C52.7022,114.133 52.7439,114.128 52.8168,114.128 C52.9105,114.128 53.0095,114.169 53.1137,114.253 C53.197,114.326 53.2387,114.414 53.2387,114.518 L53.2387,115.737 C53.2387,115.904 53.1449,116.018 52.9574,116.081 L52.0355,116.44 L52.0355,119.581 M51.3012,111.456 L49.6449,112.034 L49.6449,115.237 L51.3012,114.659 L51.3012,111.456 "/>
<path class="TimeSig" d="M77.9184,175.3 C77.585,175.3 77.2465,175.169 76.9027,174.909 C76.5798,174.659 76.4184,174.294 76.4184,173.815 C76.4184,173.409 76.5538,173.05 76.8246,172.737 C77.085,172.425 77.4288,172.268 77.8559,172.268 C78.0017,172.268 78.0954,172.274 78.1371,172.284 C77.5329,171.524 76.7309,171.128 75.7309,171.097 L75.4809,171.097 L75.4809,180.597 C75.5225,180.597 75.5694,180.602 75.6215,180.612 C75.6215,180.612 75.6579,180.612 75.7309,180.612 C76.5121,180.612 77.1788,180.326 77.7309,179.753 C78.2829,179.19 78.6736,178.466 78.9027,177.581 C78.934,177.456 79.0121,177.393 79.1371,177.393 C79.3038,177.393 79.3871,177.472 79.3871,177.628 C79.3871,177.722 79.3454,177.899 79.2621,178.159 C79.1892,178.399 79.0538,178.685 78.8559,179.018 C78.6996,179.331 78.4809,179.659 78.1996,180.003 C77.9392,180.305 77.585,180.565 77.1371,180.784 C76.7204,180.992 76.2517,181.097 75.7309,181.097 C75.6788,181.097 75.6423,181.091 75.6215,181.081 C75.6215,181.081 75.5746,181.081 75.4809,181.081 L75.4809,182.643 C75.4809,182.779 75.4079,182.847 75.2621,182.847 L74.934,182.847 C74.7986,182.847 74.7309,182.779 74.7309,182.643 L74.7309,181.018 C73.3663,180.8 72.3611,180.222 71.7152,179.284 C71.059,178.326 70.7309,177.18 70.7309,175.847 C70.7309,174.482 71.059,173.336 71.7152,172.409 C72.3194,171.472 73.3246,170.893 74.7309,170.675 L74.7309,169.05 C74.7309,168.914 74.7986,168.847 74.934,168.847 L75.2621,168.847 C75.3975,168.847 75.4704,168.914 75.4809,169.05 L75.4809,170.612 L75.7309,170.612 C76.8038,170.612 77.6527,170.977 78.2777,171.706 C78.9236,172.435 79.2465,173.159 79.2465,173.878 C79.2465,174.294 79.1163,174.633 78.8559,174.893 C78.6267,175.164 78.3142,175.3 77.9184,175.3 M74.7309,180.456 L74.7309,171.237 C74.1996,171.435 73.8559,171.81 73.6996,172.362 C73.5434,172.935 73.4652,173.758 73.4652,174.831 L73.4652,175.847 L73.4652,176.862 C73.4652,177.935 73.5434,178.758 73.6996,179.331 C73.8559,179.883 74.1996,180.258 74.7309,180.456"/>
<path class="TimeSig" d="M77.9184,122.8 C77.585,122.8 77.2465,122.669 76.9027,122.409 C76.5798,122.159 76.4184,121.794 76.4184,121.315 C76.4184,120.909 76.5538,120.55 76.8246,120.237 C77.085,119.925 77.4288,119.768 77.8559,119.768 C78.0017,119.768 78.0954,119.774 78.1371,119.784 C77.5329,119.024 76.7309,118.628 75.7309,118.597 L75.4809,118.597 L75.4809,128.097 C75.5225,128.097 75.5694,128.102 75.6215,128.112 C75.6215,128.112 75.6579,128.112 75.7309,128.112 C76.5121,128.112 77.1788,127.826 77.7309,127.253 C78.2829,126.69 78.6736,125.966 78.9027,125.081 C78.934,124.956 79.0121,124.893 79.1371,124.893 C79.3038,124.893 79.3871,124.972 79.3871,125.128 C79.3871,125.222 79.3454,125.399 79.2621,125.659 C79.1892,125.899 79.0538,126.185 78.8559,126.518 C78.6996,126.831 78.4809,127.159 78.1996,127.503 C77.9392,127.805 77.585,128.065 77.1371,128.284 C76.7204,128.492 76.2517,128.597 75.7309,128.597 C75.6788,128.597 75.6423,128.591 75.6215,128.581 C75.6215,128.581 75.5746,128.581 75.4809,128.581 L75.4809,130.143 C75.4809,130.279 75.4079,130.347 75.2621,130.347 L74.934,130.347 C74.7986,130.347 74.7309,130.279 74.7309,130.143 L74.7309,128.518 C73.3663,128.3 72.3611,127.722 71.7152,126.784 C71.059,125.826 70.7309,124.68 70.7309,123.347 C70.7309,121.982 71.059,120.836 71.7152,119.909 C72.3194,118.972 73.3246,118.393 74.7309,118.175 L74.7309,116.55 C74.7309,116.414 74.7986,116.347 74.934,116.347 L75.2621,116.347 C75.3975,116.347 75.4704,116.414 75.4809,116.55 L75.4809,118.112 L75.7309,118.112 C76.8038,118.112 77.6527,118.477 78.2777,119.206 C78.9236,119.935 79.2465,120.659 79.2465,121.378 C79.2465,121.794 79.1163,122.133 78.8559,122.393 C78.6267,122.664 78.3142,122.8 77.9184,122.8 M74.7309,127.956 L74.7309,118.737 C74.1996,118.935 73.8559,119.31 73.6996,119.862 C73.5434,120.435 73.4652,121.258 73.4652,122.331 L73.4652,123.347 L73.4652,124.362 C73.4652,125.435 73.5434,126.258 73.6996,126.831 C73.8559,127.383 74.1996,127.758 74.7309,127.956"/>
<path class="Rest" d="M517.873,173.972 L510.764,173.972 C510.628,173.972 510.561,173.909 510.561,173.784 L510.561,171.05 C510.561,170.914 510.628,170.847 510.764,170.847 L517.873,170.847 C517.998,170.847 518.061,170.914 518.061,171.05 L518.061,173.784 C518.061,173.909 517.998,173.972 517.873,173.972"/>
<path class="Rest" d="M517.873,121.472 L510.764,121.472 C510.628,121.472 510.561,121.409 510.561,121.284 L510.561,118.55 C510.561,118.414 510.628,118.347 510.764,118.347 L517.873,118.347 C517.998,118.347 518.061,118.414 518.061,118.55 L518.061,121.284 C518.061,121.409 517.998,121.472 517.873,121.472"/>
<path class="Rest" d="M422.108,173.972 L414.998,173.972 C414.863,173.972 414.795,173.909 414.795,173.784 L414.795,171.05 C414.795,170.914 414.863,170.847 414.998,170.847 L422.108,170.847 C422.233,170.847 422.295,170.914 422.295,171.05 L422.295,173.784 C422.295,173.909 422.233,173.972 422.108,173.972"/>
<path class="Rest" d="M422.108,121.472 L414.998,121.472 C414.863,121.472 414.795,121.409 414.795,121.284 L414.795,118.55 C414.795,118.414 414.863,118.347 414.998,118.347 L422.108,118.347 C422.233,118.347 422.295,118.414 422.295,118.55 L422.295,121.284 C422.295,121.409 422.233,121.472 422.108,121.472"/>
<path class="Rest" d="M326.342,173.972 L319.233,173.972 C319.097,173.972 319.029,173.909 319.029,173.784 L319.029,171.05 C319.029,170.914 319.097,170.847 319.233,170.847 L326.342,170.847 C326.467,170.847 326.529,170.914 326.529,171.05 L326.529,173.784 C326.529,173.909 326.467,173.972 326.342,173.972"/>
<path class="Rest" d="M326.342,121.472 L319.233,121.472 C319.097,121.472 319.029,121.409 319.029,121.284 L319.029,118.55 C319.029,118.414 319.097,118.347 319.233,118.347 L326.342,118.347 C326.467,118.347 326.529,118.414 326.529,118.55 L326.529,121.284 C326.529,121.409 326.467,121.472 326.342,121.472"/>
<path class="Beam" fill-rule="evenodd" d="M234.132,108.373 L265.701,107.097 L265.701,109.597 L234.132,110.873 L234.132,108.373 "/>
<path class="Beam" fill-rule="evenodd" d="M187.997,117.097 L219.404,117.097 L219.404,119.597 L187.997,119.597 L187.997,117.097 "/>
<path class="Beam" fill-rule="evenodd" d="M141.862,120.899 L173.269,118.347 L173.269,120.847 L141.862,123.399 L141.862,120.899 "/>
<path class="Beam" fill-rule="evenodd" d="M95.727,150.847 L127.134,150.847 L127.134,153.347 L95.727,153.347 L95.727,150.847 "/>
<path class="Tuplet" d="M248.498,100.881 C250.081,100.62 250.873,100.068 250.873,99.2246 C250.873,98.9434 250.792,98.7194 250.631,98.5528 C250.469,98.3861 250.253,98.3028 249.982,98.3028 C249.576,98.3028 249.206,98.5267 248.873,98.9746 L248.717,98.9278 C248.883,98.6048 249.11,98.347 249.396,98.1543 C249.683,97.9616 250.003,97.8653 250.357,97.8653 C250.753,97.8653 251.084,97.9876 251.349,98.2324 C251.615,98.4772 251.748,98.7871 251.748,99.1621 C251.748,99.4955 251.638,99.7663 251.42,99.9746 C251.201,100.183 250.789,100.407 250.185,100.647 L250.185,100.662 C250.831,100.964 251.154,101.464 251.154,102.162 C251.154,102.85 250.896,103.446 250.381,103.951 C249.865,104.456 249.191,104.709 248.357,104.709 C247.618,104.709 247.248,104.516 247.248,104.131 C247.248,103.87 247.394,103.74 247.685,103.74 C247.852,103.74 248.073,103.839 248.349,104.037 C248.625,104.235 248.857,104.334 249.045,104.334 C249.399,104.334 249.706,104.183 249.967,103.881 C250.227,103.579 250.357,103.183 250.357,102.693 C250.357,102.068 250.198,101.636 249.881,101.397 C249.563,101.157 249.102,101.037 248.498,101.037 L248.498,100.881 "/>
<path class="Tuplet" d="M202.282,106.831 C203.865,106.57 204.657,106.018 204.657,105.175 C204.657,104.893 204.576,104.669 204.414,104.503 C204.253,104.336 204.037,104.253 203.766,104.253 C203.36,104.253 202.99,104.477 202.657,104.925 L202.5,104.878 C202.667,104.555 202.894,104.297 203.18,104.104 C203.467,103.912 203.787,103.815 204.141,103.815 C204.537,103.815 204.868,103.938 205.133,104.182 C205.399,104.427 205.532,104.737 205.532,105.112 C205.532,105.445 205.422,105.716 205.204,105.925 C204.985,106.133 204.573,106.357 203.969,106.597 L203.969,106.612 C204.615,106.914 204.938,107.414 204.938,108.112 C204.938,108.8 204.68,109.396 204.164,109.901 C203.649,110.406 202.974,110.659 202.141,110.659 C201.401,110.659 201.032,110.466 201.032,110.081 C201.032,109.82 201.177,109.69 201.469,109.69 C201.636,109.69 201.857,109.789 202.133,109.987 C202.409,110.185 202.641,110.284 202.829,110.284 C203.183,110.284 203.49,110.133 203.75,109.831 C204.011,109.529 204.141,109.133 204.141,108.643 C204.141,108.018 203.982,107.586 203.664,107.347 C203.347,107.107 202.886,106.987 202.282,106.987 L202.282,106.831 "/>
<path class="Tuplet" d="M156.147,106.831 C157.73,106.57 158.522,106.018 158.522,105.175 C158.522,104.893 158.441,104.669 158.279,104.503 C158.118,104.336 157.902,104.253 157.631,104.253 C157.225,104.253 156.855,104.477 156.522,104.925 L156.365,104.878 C156.532,104.555 156.759,104.297 157.045,104.104 C157.331,103.912 157.652,103.815 158.006,103.815 C158.402,103.815 158.733,103.938 158.998,104.182 C159.264,104.427 159.397,104.737 159.397,105.112 C159.397,105.445 159.287,105.716 159.068,105.925 C158.85,106.133 158.438,106.357 157.834,106.597 L157.834,106.612 C158.48,106.914 158.803,107.414 158.803,108.112 C158.803,108.8 158.545,109.396 158.029,109.901 C157.514,110.406 156.839,110.659 156.006,110.659 C155.266,110.659 154.897,110.466 154.897,110.081 C154.897,109.82 155.042,109.69 155.334,109.69 C155.501,109.69 155.722,109.789 155.998,109.987 C156.274,110.185 156.506,110.284 156.693,110.284 C157.048,110.284 157.355,110.133 157.615,109.831 C157.876,109.529 158.006,109.133 158.006,108.643 C158.006,108.018 157.847,107.586 157.529,107.347 C157.212,107.107 156.751,106.987 156.147,106.987 L156.147,106.831 "/>
<path class="Tuplet" d="M110.651,142.726 C112.235,142.466 113.026,141.914 113.026,141.07 C113.026,140.789 112.946,140.565 112.784,140.398 C112.623,140.231 112.407,140.148 112.136,140.148 C111.73,140.148 111.36,140.372 111.026,140.82 L110.87,140.773 C111.037,140.45 111.263,140.192 111.55,140 C111.836,139.807 112.157,139.711 112.511,139.711 C112.907,139.711 113.237,139.833 113.503,140.078 C113.769,140.323 113.901,140.632 113.901,141.007 C113.901,141.341 113.792,141.612 113.573,141.82 C113.355,142.028 112.943,142.252 112.339,142.492 L112.339,142.507 C112.985,142.809 113.308,143.309 113.308,144.007 C113.308,144.695 113.05,145.291 112.534,145.796 C112.019,146.302 111.344,146.554 110.511,146.554 C109.771,146.554 109.401,146.362 109.401,145.976 C109.401,145.716 109.547,145.586 109.839,145.586 C110.006,145.586 110.227,145.684 110.503,145.882 C110.779,146.08 111.011,146.179 111.198,146.179 C111.552,146.179 111.86,146.028 112.12,145.726 C112.381,145.424 112.511,145.028 112.511,144.539 C112.511,143.914 112.352,143.481 112.034,143.242 C111.717,143.002 111.256,142.882 110.651,142.882 L110.651,142.726 "/>
</svg>
