<?xml version="1.0" encoding="UTF-8" standalone="no"?>
<svg width="595.44px" height="841.68px" viewBox="0 0 595.44 841.68"
 xmlns="http://www.w3.org/2000/svg" xmlns:xlink="http://www.w3.org/1999/xlink" version="1.2" baseProfile="tiny">
<title>Title</title>
<desc>Generated by MuseScore 2.3.2</desc>
<polyline class="StaffLines" fill="none" stroke="#000000" stroke-width="0.40" stroke-linejoin="bevel" points="28.3465,113.347 567.094,113.347"/>
<polyline class="StaffLines" fill="none" stroke="#000000" stroke-width="0.40" stroke-linejoin="bevel" points="28.3465,118.347 567.094,118.347"/>
<polyline class="StaffLines" fill="none" stroke="#000000" stroke-width="0.40" stroke-linejoin="bevel" points="28.3465,123.347 567.094,123.347"/>
<polyline class="StaffLines" fill="none" stroke="#000000" stroke-width="0.40" stroke-linejoin="bevel" points="28.3465,128.347 567.094,128.347"/>
<polyline class="StaffLines" fill="none" stroke="#000000" stroke-width="0.40" stroke-linejoin="bevel" points="28.3465,133.347 567.094,133.347"/>
<polyline class="StaffLines" fill="none" stroke="#000000" stroke-width="0.40" stroke-linejoin="bevel" points="28.3465,165.847 567.094,165.847"/>
<polyline class="StaffLines" fill="none" stroke="#000000" stroke-width="0.40" stroke-linejoin="bevel" points="28.3465,170.847 567.094,170.847"/>
<polyline class="StaffLines" fill="none" stroke="#000000" stroke-width="0.40" stroke-linejoin="bevel" points="28.3465,175.847 567.094,175.847"/>
<polyline class="StaffLines" fill="none" stroke="#000000" stroke-width="0.40" stroke-linejoin="bevel" points="28.3465,180.847 567.094,180.847"/>
<polyline class="StaffLines" fill="none" stroke="#000000" stroke-width="0.40" stroke-linejoin="bevel" points="28.3465,185.847 567.094,185.847"/>
<polyline class="BarLine" fill="none" stroke="#000000" stroke-width="0.80" stroke-linejoin="bevel" points="28.7465,113.347 28.7465,185.847"/>
<polyline class="BarLine" fill="none" stroke="#000000" stroke-width="0.80" stroke-linejoin="bevel" points="562.194,165.847 562.194,185.847"/>
<polyline class="BarLine" fill="none" stroke="#000000" stroke-width="2.50" stroke-linejoin="bevel" points="565.844,165.847 565.844,185.847"/>
<polyline class="BarLine" fill="none" stroke="#000000" stroke-width="0.80" stroke-linejoin="bevel" points="562.194,113.347 562.194,133.347"/>
<polyline class="BarLine" fill="none" stroke="#000000" stroke-width="2.50" stroke-linejoin="bevel" points="565.844,113.347 565.844,133.347"/>
<polyline class="BarLine" fill="none" stroke="#000000" stroke-width="0.80" stroke-linejoin="bevel" points="442.554,165.847 442.554,185.847"/>
<polyline class="BarLine" fill="none" stroke="#000000" stroke-width="0.80" stroke-linejoin="bevel" points="442.554,113.347 442.554,133.347"/>
<polyline class="BarLine" fill="none" stroke="#000000" stroke-width="0.80" stroke-linejoin="bevel" points="322.915,165.847 322.915,185.847"/>
<polyline class="BarLine" fill="none" stroke="#000000" stroke-width="0.80" stroke-linejoin="bevel" points="322.915,113.347 322.915,133.347"/>
<polyline class="BarLine" fill="none" stroke="#000000" stroke-width="0.80" stroke-linejoin="bevel" points="198.776,165.847 198.776,185.847"/>
<polyline class="BarLine" fill="none" stroke="#000000" stroke-width="2.50" stroke-linejoin="bevel" points="202.426,165.847 202.426,185.847"/>
<polyline class="BarLine" fill="none" stroke="#000000" stroke-width="0.80" stroke-linejoin="bevel" points="198.776,113.347 198.776,133.347"/>
<polyline class="BarLine" fill="none" stroke="#000000" stroke-width="2.50" stroke-linejoin="bevel" points="202.426,113.347 202.426,133.347"/>
<polyline class="LedgerLine" fill="none" stroke="#000000" stroke-width="0.80" stroke-linecap="square" stroke-linejoin="bevel" points="86.634,190.847 99.5371,190.847"/>
<polyline class="LedgerLine" fill="none" stroke="#000000" stroke-width="0.80" stroke-linecap="square" stroke-linejoin="bevel" points="86.634,195.847 99.5371,195.847"/>
<polyline class="LedgerLine" fill="none" stroke="#000000" stroke-width="0.80" stroke-linecap="square" stroke-linejoin="bevel" points="86.634,138.347 99.5371,138.347"/>
<path class="Note" d="M92.4309,166.097 C91.9621,166.097 91.6236,166.258 91.4152,166.581 C91.1861,166.893 91.0715,167.32 91.0715,167.862 C91.0715,168.477 91.2329,169.003 91.5559,169.44 C91.8788,169.867 92.2382,170.169 92.634,170.347 C92.9777,170.513 93.3475,170.597 93.7434,170.597 C94.2017,170.597 94.5454,170.435 94.7746,170.112 C94.9934,169.779 95.1027,169.352 95.1027,168.831 C95.1027,168.216 94.9413,167.69 94.6184,167.253 C94.2954,166.836 93.9465,166.534 93.5715,166.347 C93.1861,166.18 92.8059,166.097 92.4309,166.097 M93.1027,165.597 C94.509,165.597 95.6809,165.867 96.6184,166.409 C97.5663,166.961 98.0402,167.607 98.0402,168.347 C98.0402,169.138 97.5507,169.789 96.5715,170.3 C95.5923,170.831 94.4361,171.097 93.1027,171.097 C91.7173,171.097 90.5454,170.826 89.5871,170.284 C88.6184,169.732 88.134,169.086 88.134,168.347 C88.134,167.555 88.6288,166.904 89.6184,166.393 C90.5975,165.862 91.759,165.597 93.1027,165.597"/>
<path class="Note" d="M92.4309,171.097 C91.9621,171.097 91.6236,171.258 91.4152,171.581 C91.1861,171.893 91.0715,172.32 91.0715,172.862 C91.0715,173.477 91.2329,174.003 91.5559,174.44 C91.8788,174.867 92.2382,175.169 92.634,175.347 C92.9777,175.513 93.3475,175.597 93.7434,175.597 C94.2017,175.597 94.5454,175.435 94.7746,175.112 C94.9934,174.779 95.1027,174.352 95.1027,173.831 C95.1027,173.216 94.9413,172.69 94.6184,172.253 C94.2954,171.836 93.9465,171.534 93.5715,171.347 C93.1861,171.18 92.8059,171.097 92.4309,171.097 M93.1027,170.597 C94.509,170.597 95.6809,170.867 96.6184,171.409 C97.5663,171.961 98.0402,172.607 98.0402,173.347 C98.0402,174.138 97.5507,174.789 96.5715,175.3 C95.5923,175.831 94.4361,176.097 93.1027,176.097 C91.7173,176.097 90.5454,175.826 89.5871,175.284 C88.6184,174.732 88.134,174.086 88.134,173.347 C88.134,172.555 88.6288,171.904 89.6184,171.393 C90.5975,170.862 91.759,170.597 93.1027,170.597"/>
<path class="Note" d="M92.4309,176.097 C91.9621,176.097 91.6236,176.258 91.4152,176.581 C91.1861,176.893 91.0715,177.321 91.0715,177.862 C91.0715,178.477 91.2329,179.003 91.5559,179.44 C91.8788,179.867 92.2382,180.169 92.634,180.347 C92.9777,180.513 93.3475,180.597 93.7434,180.597 C94.2017,180.597 94.5454,180.435 94.7746,180.112 C94.9934,179.779 95.1027,179.352 95.1027,178.831 C95.1027,178.216 94.9413,177.69 94.6184,177.253 C94.2954,176.836 93.9465,176.534 93.5715,176.347 C93.1861,176.18 92.8059,176.097 92.4309,176.097 M93.1027,175.597 C94.509,175.597 95.6809,175.867 96.6184,176.409 C97.5663,176.961 98.0402,177.607 98.0402,178.347 C98.0402,179.138 97.5507,179.789 96.5715,180.3 C95.5923,180.831 94.4361,181.097 93.1027,181.097 C91.7173,181.097 90.5454,180.826 89.5871,180.284 C88.6184,179.732 88.134,179.086 88.134,178.347 C88.134,177.555 88.6288,176.904 89.6184,176.393 C90.5975,175.862 91.759,175.597 93.1027,175.597"/>
<path class="Note" d="M92.4309,183.597 C91.9621,183.597 91.6236,183.758 91.4152,184.081 C91.1861,184.393 91.0715,184.821 91.0715,185.362 C91.0715,185.977 91.2329,186.503 91.5559,186.94 C91.8788,187.367 92.2382,187.669 92.634,187.847 C92.9777,188.013 93.3475,188.097 93.7434,188.097 C94.2017,188.097 94.5454,187.935 94.7746,187.612 C94.9934,187.279 95.1027,186.852 95.1027,186.331 C95.1027,185.716 94.9413,185.19 94.6184,184.753 C94.2954,184.336 93.9465,184.034 93.5715,183.847 C93.1861,183.68 92.8059,183.597 92.4309,183.597 M93.1027,183.097 C94.509,183.097 95.6809,183.367 96.6184,183.909 C97.5663,184.461 98.0402,185.107 98.0402,185.847 C98.0402,186.638 97.5507,187.289 96.5715,187.8 C95.5923,188.331 94.4361,188.597 93.1027,188.597 C91.7173,188.597 90.5454,188.326 89.5871,187.784 C88.6184,187.232 88.134,186.586 88.134,185.847 C88.134,185.055 88.6288,184.404 89.6184,183.893 C90.5975,183.362 91.759,183.097 93.1027,183.097"/>
<path class="Note" d="M92.4309,193.597 C91.9621,193.597 91.6236,193.758 91.4152,194.081 C91.1861,194.393 91.0715,194.821 91.0715,195.362 C91.0715,195.977 91.2329,196.503 91.5559,196.94 C91.8788,197.367 92.2382,197.669 92.634,197.847 C92.9777,198.013 93.3475,198.097 93.7434,198.097 C94.2017,198.097 94.5454,197.935 94.7746,197.612 C94.9934,197.279 95.1027,196.852 95.1027,196.331 C95.1027,195.716 94.9413,195.19 94.6184,194.753 C94.2954,194.336 93.9465,194.034 93.5715,193.847 C93.1861,193.68 92.8059,193.597 92.4309,193.597 M93.1027,193.097 C94.509,193.097 95.6809,193.367 96.6184,193.909 C97.5663,194.461 98.0402,195.107 98.0402,195.847 C98.0402,196.638 97.5507,197.289 96.5715,197.8 C95.5923,198.331 94.4361,198.597 93.1027,198.597 C91.7173,198.597 90.5454,198.326 89.5871,197.784 C88.6184,197.232 88.134,196.586 88.134,195.847 C88.134,195.055 88.6288,194.404 89.6184,193.893 C90.5975,193.362 91.759,193.097 93.1027,193.097"/>
<path class="Note" d="M92.4309,136.097 C91.9621,136.097 91.6236,136.258 91.4152,136.581 C91.1861,136.893 91.0715,137.32 91.0715,137.862 C91.0715,138.477 91.2329,139.003 91.5559,139.44 C91.8788,139.867 92.2382,140.169 92.634,140.347 C92.9777,140.513 93.3475,140.597 93.7434,140.597 C94.2017,140.597 94.5454,140.435 94.7746,140.112 C94.9934,139.779 95.1027,139.352 95.1027,138.831 C95.1027,138.216 94.9413,137.69 94.6184,137.253 C94.2954,136.836 93.9465,136.534 93.5715,136.347 C93.1861,136.18 92.8059,136.097 92.4309,136.097 M93.1027,135.597 C94.509,135.597 95.6809,135.867 96.6184,136.409 C97.5663,136.961 98.0402,137.607 98.0402,138.347 C98.0402,139.138 97.5507,139.789 96.5715,140.3 C95.5923,140.831 94.4361,141.097 93.1027,141.097 C91.7173,141.097 90.5454,140.826 89.5871,140.284 C88.6184,139.732 88.134,139.086 88.134,138.347 C88.134,137.555 88.6288,136.904 89.6184,136.393 C90.5975,135.862 91.759,135.597 93.1027,135.597"/>
<path class="Clef" d="M43.7761,169.065 C43.5834,168.867 43.4871,168.625 43.4871,168.339 C43.4871,168.052 43.5834,167.813 43.7761,167.62 C43.9688,167.427 44.2084,167.331 44.4949,167.331 C44.7813,167.331 45.0235,167.427 45.2215,167.62 C45.4194,167.813 45.5183,168.052 45.5183,168.339 C45.5183,168.625 45.4194,168.867 45.2215,169.065 C45.0235,169.263 44.7813,169.362 44.4949,169.362 C44.2084,169.362 43.9688,169.263 43.7761,169.065 M43.7761,174.073 C43.5834,173.88 43.4871,173.641 43.4871,173.354 C43.4871,173.068 43.5834,172.826 43.7761,172.628 C43.9688,172.43 44.2084,172.331 44.4949,172.331 C44.7813,172.331 45.0235,172.43 45.2215,172.628 C45.4194,172.826 45.5183,173.068 45.5183,173.354 C45.5183,173.641 45.4194,173.88 45.2215,174.073 C45.0235,174.266 44.7813,174.362 44.4949,174.362 C44.2084,174.362 43.9688,174.266 43.7761,174.073 M37.0027,165.597 C38.7319,165.597 40.1485,166.029 41.2527,166.893 C42.3256,167.81 42.8621,169.05 42.8621,170.612 C42.8621,171.664 42.6537,172.628 42.2371,173.503 C41.8412,174.419 41.3256,175.227 40.6902,175.925 C40.034,176.643 39.2475,177.32 38.3308,177.956 C37.4246,178.581 36.4975,179.143 35.5496,179.643 C33.6225,180.612 32.5548,181.097 32.3465,181.097 C32.1798,181.097 32.0965,181.013 32.0965,180.847 C32.0965,180.784 32.1225,180.727 32.1746,180.675 C32.8412,180.279 33.6537,179.779 34.6121,179.175 C35.2371,178.768 35.9662,178.206 36.7996,177.487 C37.6121,176.81 38.2371,176.175 38.6746,175.581 C39.1329,174.987 39.5496,174.258 39.9246,173.393 C40.2475,172.518 40.409,171.654 40.409,170.8 C40.409,169.539 40.0965,168.44 39.4715,167.503 C38.8465,166.565 38.0235,166.097 37.0027,166.097 C36.2735,166.097 35.6485,166.331 35.1277,166.8 C34.5652,167.279 34.159,167.883 33.909,168.612 C34.159,168.508 34.3881,168.456 34.5965,168.456 C35.1381,168.456 35.6069,168.654 36.0027,169.05 C36.3881,169.466 36.5808,169.94 36.5808,170.472 C36.5808,171.034 36.3933,171.539 36.0183,171.987 C35.6121,172.383 35.1381,172.581 34.5965,172.581 C34.0131,172.581 33.4871,172.383 33.0183,171.987 C32.5704,171.539 32.3465,171.034 32.3465,170.472 C32.3465,169.128 32.8048,167.982 33.7215,167.034 C34.6173,166.076 35.711,165.597 37.0027,165.597"/>
<path class="Clef" d="M39.6902,123.222 C39.6902,123.222 39.7319,123.222 39.8152,123.222 C39.8673,123.211 39.909,123.206 39.9402,123.206 C41.3985,123.206 42.5965,123.722 43.534,124.753 C44.4715,125.763 44.9402,126.945 44.9402,128.3 C44.9402,129.987 44.2475,131.357 42.8621,132.409 C42.4975,132.701 42.0183,132.935 41.4246,133.112 C41.4975,133.956 41.534,134.638 41.534,135.159 C41.534,135.263 41.5183,135.643 41.4871,136.3 C41.435,137.508 41.0183,138.555 40.2371,139.44 C39.4871,140.315 38.5496,140.753 37.4246,140.753 C36.3725,140.753 35.4767,140.383 34.7371,139.643 C33.9871,138.883 33.6121,137.972 33.6121,136.909 C33.6121,136.347 33.8308,135.867 34.2683,135.472 C34.7058,135.086 35.2162,134.893 35.7996,134.893 C36.3204,134.893 36.7579,135.097 37.1121,135.503 C37.4767,135.878 37.659,136.347 37.659,136.909 C37.659,137.409 37.4767,137.841 37.1121,138.206 C36.7475,138.57 36.31,138.753 35.7996,138.753 C35.5912,138.753 35.3933,138.716 35.2058,138.643 C35.7787,139.487 36.5392,139.909 37.4871,139.909 C38.3829,139.909 39.1173,139.544 39.6902,138.815 C40.2944,138.065 40.6225,137.185 40.6746,136.175 C40.6954,135.55 40.7058,135.195 40.7058,135.112 C40.7058,134.383 40.6798,133.784 40.6277,133.315 C39.9819,133.419 39.4037,133.472 38.8933,133.472 C37.0808,133.472 35.5392,132.753 34.2683,131.315 C33.0183,129.867 32.3933,128.149 32.3933,126.159 C32.3933,125.742 32.4298,125.32 32.5027,124.893 C32.586,124.539 32.685,124.154 32.7996,123.737 C32.8621,123.498 33.0392,123.117 33.3308,122.597 C33.435,122.44 33.5522,122.245 33.6824,122.011 C33.8126,121.776 33.9037,121.623 33.9558,121.55 C34.0808,121.289 34.3308,120.935 34.7058,120.487 C34.81,120.373 34.9194,120.245 35.034,120.104 C35.1485,119.964 35.2449,119.847 35.323,119.753 C35.4011,119.659 35.4584,119.586 35.4949,119.534 C35.5313,119.482 35.8256,119.138 36.3777,118.503 C36.5027,118.367 36.6277,118.227 36.7527,118.081 C36.8777,117.935 36.9793,117.818 37.0574,117.729 C37.1355,117.641 37.1954,117.581 37.2371,117.55 C36.7683,115.998 36.4715,114.758 36.3465,113.831 C36.2631,113.091 36.2215,112.076 36.2215,110.784 C36.2215,109.649 36.4819,108.586 37.0027,107.597 C37.5027,106.576 38.211,105.737 39.1277,105.081 C39.1902,105.039 39.2527,105.018 39.3152,105.018 C39.409,105.018 39.4767,105.039 39.5183,105.081 C40.2162,105.925 40.8204,107.024 41.3308,108.378 C41.8517,109.732 42.1121,110.966 42.1121,112.081 C42.1121,113.331 41.8152,114.503 41.2215,115.597 C40.5444,116.753 39.6694,117.951 38.5965,119.19 C38.8673,120.044 39.2319,121.388 39.6902,123.222 M41.3465,132.315 C42.0235,132.065 42.5548,131.643 42.9402,131.05 C43.3569,130.477 43.5652,129.831 43.5652,129.112 C43.5652,128.185 43.2527,127.362 42.6277,126.643 C41.9819,125.904 41.1642,125.487 40.1746,125.393 C40.7371,128.143 41.1277,130.451 41.3465,132.315 M33.7996,127.8 C33.7996,129.091 34.3204,130.227 35.3621,131.206 C36.4246,132.154 37.6225,132.628 38.9558,132.628 C39.4975,132.628 40.0287,132.586 40.5496,132.503 C40.3412,130.524 39.9298,128.154 39.3152,125.393 C38.5756,125.477 37.9871,125.737 37.5496,126.175 C37.1121,126.633 36.8933,127.149 36.8933,127.722 C36.8933,128.711 37.4246,129.513 38.4871,130.128 C38.5704,130.222 38.6121,130.32 38.6121,130.425 C38.6121,130.529 38.5704,130.623 38.4871,130.706 C38.4037,130.8 38.3048,130.847 38.1902,130.847 C38.1798,130.847 38.1225,130.836 38.0183,130.815 C37.2683,130.409 36.6954,129.888 36.2996,129.253 C35.9142,128.565 35.7215,127.878 35.7215,127.19 C35.7215,126.294 36.0027,125.482 36.5652,124.753 C37.1485,124.024 37.909,123.555 38.8465,123.347 C38.4819,121.888 38.185,120.748 37.9558,119.925 C37.7475,120.164 37.4975,120.448 37.2058,120.776 C36.9142,121.104 36.7423,121.305 36.6902,121.378 C36.2215,121.982 35.8621,122.456 35.6121,122.8 C35.1642,123.414 34.836,123.94 34.6277,124.378 C34.409,124.878 34.2162,125.419 34.0496,126.003 C33.8829,126.565 33.7996,127.164 33.7996,127.8 M40.3152,107.94 C39.336,108.419 38.5704,109.107 38.0183,110.003 C37.4454,110.93 37.159,111.925 37.159,112.987 C37.159,113.925 37.3933,115.19 37.8621,116.784 C38.7996,115.649 39.5027,114.602 39.9715,113.643 C40.461,112.623 40.7058,111.56 40.7058,110.456 C40.7058,109.623 40.5756,108.784 40.3152,107.94"/>
<path class="KeySig" d="M67.0355,182.081 C67.0355,182.331 66.9131,182.456 66.6683,182.456 C66.4236,182.456 66.3012,182.331 66.3012,182.081 L66.3012,179.19 L64.6449,179.815 L64.6449,182.972 C64.6449,183.222 64.5199,183.347 64.2699,183.347 C64.0199,183.347 63.8949,183.222 63.8949,182.972 L63.8949,180.065 L63.2699,180.3 C63.2595,180.31 63.2074,180.315 63.1137,180.315 C63.0095,180.315 62.9183,180.276 62.8402,180.198 C62.7621,180.12 62.723,180.029 62.723,179.925 L62.723,178.722 C62.723,178.524 62.8064,178.399 62.973,178.347 L63.8949,178.034 L63.8949,174.831 L63.2699,175.05 C63.2595,175.06 63.2074,175.065 63.1137,175.065 C63.0095,175.065 62.9183,175.026 62.8402,174.948 C62.7621,174.87 62.723,174.779 62.723,174.675 L62.723,173.456 C62.723,173.279 62.8064,173.164 62.973,173.112 L63.8949,172.753 L63.8949,169.612 C63.8949,169.362 64.0199,169.237 64.2699,169.237 C64.5199,169.237 64.6449,169.362 64.6449,169.612 L64.6449,172.503 L66.3012,171.878 L66.3012,168.722 C66.3012,168.472 66.4236,168.347 66.6683,168.347 C66.9131,168.347 67.0355,168.472 67.0355,168.722 L67.0355,171.628 L67.6918,171.393 C67.7022,171.383 67.7439,171.378 67.8168,171.378 C67.9105,171.378 68.0095,171.414 68.1137,171.487 C68.197,171.571 68.2387,171.664 68.2387,171.768 L68.2387,172.972 C68.2387,173.159 68.1449,173.284 67.9574,173.347 L67.0355,173.659 L67.0355,176.862 L67.6918,176.643 C67.7022,176.633 67.7439,176.628 67.8168,176.628 C67.9105,176.628 68.0095,176.669 68.1137,176.753 C68.197,176.826 68.2387,176.914 68.2387,177.018 L68.2387,178.237 C68.2387,178.404 68.1449,178.518 67.9574,178.581 L67.0355,178.94 L67.0355,182.081 M66.3012,173.956 L64.6449,174.534 L64.6449,177.737 L66.3012,177.159 L66.3012,173.956 "/>
<path class="KeySig" d="M62.0355,174.581 C62.0355,174.831 61.9131,174.956 61.6683,174.956 C61.4236,174.956 61.3012,174.831 61.3012,174.581 L61.3012,171.69 L59.6449,172.315 L59.6449,175.472 C59.6449,175.722 59.5199,175.847 59.2699,175.847 C59.0199,175.847 58.8949,175.722 58.8949,175.472 L58.8949,172.565 L58.2699,172.8 C58.2595,172.81 58.2074,172.815 58.1137,172.815 C58.0095,172.815 57.9183,172.776 57.8402,172.698 C57.7621,172.62 57.723,172.529 57.723,172.425 L57.723,171.222 C57.723,171.024 57.8064,170.899 57.973,170.847 L58.8949,170.534 L58.8949,167.331 L58.2699,167.55 C58.2595,167.56 58.2074,167.565 58.1137,167.565 C58.0095,167.565 57.9183,167.526 57.8402,167.448 C57.7621,167.37 57.723,167.279 57.723,167.175 L57.723,165.956 C57.723,165.779 57.8064,165.664 57.973,165.612 L58.8949,165.253 L58.8949,162.112 C58.8949,161.862 59.0199,161.737 59.2699,161.737 C59.5199,161.737 59.6449,161.862 59.6449,162.112 L59.6449,165.003 L61.3012,164.378 L61.3012,161.222 C61.3012,160.972 61.4236,160.847 61.6683,160.847 C61.9131,160.847 62.0355,160.972 62.0355,161.222 L62.0355,164.128 L62.6918,163.893 C62.7022,163.883 62.7439,163.878 62.8168,163.878 C62.9105,163.878 63.0095,163.914 63.1137,163.987 C63.197,164.07 63.2387,164.164 63.2387,164.268 L63.2387,165.472 C63.2387,165.659 63.1449,165.784 62.9574,165.847 L62.0355,166.159 L62.0355,169.362 L62.6918,169.143 C62.7022,169.133 62.7439,169.128 62.8168,169.128 C62.9105,169.128 63.0095,169.169 63.1137,169.253 C63.197,169.326 63.2387,169.414 63.2387,169.518 L63.2387,170.737 C63.2387,170.904 63.1449,171.018 62.9574,171.081 L62.0355,171.44 L62.0355,174.581 M61.3012,166.456 L59.6449,167.034 L59.6449,170.237 L61.3012,169.659 L61.3012,166.456 "/>
<path class="KeySig" d="M57.0355,184.581 C57.0355,184.831 56.9131,184.956 56.6683,184.956 C56.4235,184.956 56.3012,184.831 56.3012,184.581 L56.3012,181.69 L54.6449,182.315 L54.6449,185.472 C54.6449,185.722 54.5199,185.847 54.2699,185.847 C54.0199,185.847 53.8949,185.722 53.8949,185.472 L53.8949,182.565 L53.2699,182.8 C53.2595,182.81 53.2074,182.815 53.1137,182.815 C53.0095,182.815 52.9183,182.776 52.8402,182.698 C52.7621,182.62 52.723,182.529 52.723,182.425 L52.723,181.222 C52.723,181.024 52.8064,180.899 52.973,180.847 L53.8949,180.534 L53.8949,177.331 L53.2699,177.55 C53.2595,177.56 53.2074,177.565 53.1137,177.565 C53.0095,177.565 52.9183,177.526 52.8402,177.448 C52.7621,177.37 52.723,177.279 52.723,177.175 L52.723,175.956 C52.723,175.779 52.8064,175.664 52.973,175.612 L53.8949,175.253 L53.8949,172.112 C53.8949,171.862 54.0199,171.737 54.2699,171.737 C54.5199,171.737 54.6449,171.862 54.6449,172.112 L54.6449,175.003 L56.3012,174.378 L56.3012,171.222 C56.3012,170.972 56.4235,170.847 56.6683,170.847 C56.9131,170.847 57.0355,170.972 57.0355,171.222 L57.0355,174.128 L57.6918,173.893 C57.7022,173.883 57.7439,173.878 57.8168,173.878 C57.9105,173.878 58.0095,173.914 58.1137,173.987 C58.197,174.071 58.2387,174.164 58.2387,174.268 L58.2387,175.472 C58.2387,175.659 58.1449,175.784 57.9574,175.847 L57.0355,176.159 L57.0355,179.362 L57.6918,179.143 C57.7022,179.133 57.7439,179.128 57.8168,179.128 C57.9105,179.128 58.0095,179.169 58.1137,179.253 C58.197,179.326 58.2387,179.414 58.2387,179.518 L58.2387,180.737 C58.2387,180.904 58.1449,181.018 57.9574,181.081 L57.0355,181.44 L57.0355,184.581 M56.3012,176.456 L54.6449,177.034 L54.6449,180.237 L56.3012,179.659 L56.3012,176.456 "/>
<path class="KeySig" d="M52.0355,177.081 C52.0355,177.331 51.9131,177.456 51.6683,177.456 C51.4235,177.456 51.3011,177.331 51.3011,177.081 L51.3011,174.19 L49.6449,174.815 L49.6449,177.972 C49.6449,178.222 49.5199,178.347 49.2699,178.347 C49.0199,178.347 48.8949,178.222 48.8949,177.972 L48.8949,175.065 L48.2699,175.3 C48.2595,175.31 48.2074,175.315 48.1136,175.315 C48.0095,175.315 47.9183,175.276 47.8402,175.198 C47.7621,175.12 47.723,175.029 47.723,174.925 L47.723,173.722 C47.723,173.524 47.8064,173.399 47.973,173.347 L48.8949,173.034 L48.8949,169.831 L48.2699,170.05 C48.2595,170.06 48.2074,170.065 48.1136,170.065 C48.0095,170.065 47.9183,170.026 47.8402,169.948 C47.7621,169.87 47.723,169.779 47.723,169.675 L47.723,168.456 C47.723,168.279 47.8064,168.164 47.973,168.112 L48.8949,167.753 L48.8949,164.612 C48.8949,164.362 49.0199,164.237 49.2699,164.237 C49.5199,164.237 49.6449,164.362 49.6449,164.612 L49.6449,167.503 L51.3011,166.878 L51.3011,163.722 C51.3011,163.472 51.4235,163.347 51.6683,163.347 C51.9131,163.347 52.0355,163.472 52.0355,163.722 L52.0355,166.628 L52.6918,166.393 C52.7022,166.383 52.7439,166.378 52.8168,166.378 C52.9105,166.378 53.0095,166.414 53.1136,166.487 C53.197,166.57 53.2386,166.664 53.2386,166.768 L53.2386,167.972 C53.2386,168.159 53.1449,168.284 52.9574,168.347 L52.0355,168.659 L52.0355,171.862 L52.6918,171.643 C52.7022,171.633 52.7439,171.628 52.8168,171.628 C52.9105,171.628 53.0095,171.669 53.1136,171.753 C53.197,171.826 53.2386,171.914 53.2386,172.018 L53.2386,173.237 C53.2386,173.404 53.1449,173.518 52.9574,173.581 L52.0355,173.94 L52.0355,177.081 M51.3011,168.956 L49.6449,169.534 L49.6449,172.737 L51.3011,172.159 L51.3011,168.956 "/>
<path class="KeySig" d="M67.0355,124.581 C67.0355,124.831 66.9131,124.956 66.6683,124.956 C66.4236,124.956 66.3012,124.831 66.3012,124.581 L66.3012,121.69 L64.6449,122.315 L64.6449,125.472 C64.6449,125.722 64.5199,125.847 64.2699,125.847 C64.0199,125.847 63.8949,125.722 63.8949,125.472 L63.8949,122.565 L63.2699,122.8 C63.2595,122.81 63.2074,122.815 63.1137,122.815 C63.0095,122.815 62.9183,122.776 62.8402,122.698 C62.7621,122.62 62.723,122.529 62.723,122.425 L62.723,121.222 C62.723,121.024 62.8064,120.899 62.973,120.847 L63.8949,120.534 L63.8949,117.331 L63.2699,117.55 C63.2595,117.56 63.2074,117.565 63.1137,117.565 C63.0095,117.565 62.9183,117.526 62.8402,117.448 C62.7621,117.37 62.723,117.279 62.723,117.175 L62.723,115.956 C62.723,115.779 62.8064,115.664 62.973,115.612 L63.8949,115.253 L63.8949,112.112 C63.8949,111.862 64.0199,111.737 64.2699,111.737 C64.5199,111.737 64.6449,111.862 64.6449,112.112 L64.6449,115.003 L66.3012,114.378 L66.3012,111.222 C66.3012,110.972 66.4236,110.847 66.6683,110.847 C66.9131,110.847 67.0355,110.972 67.0355,111.222 L67.0355,114.128 L67.6918,113.893 C67.7022,113.883 67.7439,113.878 67.8168,113.878 C67.9105,113.878 68.0095,113.914 68.1137,113.987 C68.197,114.07 68.2387,114.164 68.2387,114.268 L68.2387,115.472 C68.2387,115.659 68.1449,115.784 67.9574,115.847 L67.0355,116.159 L67.0355,119.362 L67.6918,119.143 C67.7022,119.133 67.7439,119.128 67.8168,119.128 C67.9105,119.128 68.0095,119.169 68.1137,119.253 C68.197,119.326 68.2387,119.414 68.2387,119.518 L68.2387,120.737 C68.2387,120.904 68.1449,121.018 67.9574,121.081 L67.0355,121.44 L67.0355,124.581 M66.3012,116.456 L64.6449,117.034 L64.6449,120.237 L66.3012,119.659 L66.3012,116.456 "/>
<path class="KeySig" d="M62.0355,117.081 C62.0355,117.331 61.9131,117.456 61.6683,117.456 C61.4236,117.456 61.3012,117.331 61.3012,117.081 L61.3012,114.19 L59.6449,114.815 L59.6449,117.972 C59.6449,118.222 59.5199,118.347 59.2699,118.347 C59.0199,118.347 58.8949,118.222 58.8949,117.972 L58.8949,115.065 L58.2699,115.3 C58.2595,115.31 58.2074,115.315 58.1137,115.315 C58.0095,115.315 57.9183,115.276 57.8402,115.198 C57.7621,115.12 57.723,115.029 57.723,114.925 L57.723,113.722 C57.723,113.524 57.8064,113.399 57.973,113.347 L58.8949,113.034 L58.8949,109.831 L58.2699,110.05 C58.2595,110.06 58.2074,110.065 58.1137,110.065 C58.0095,110.065 57.9183,110.026 57.8402,109.948 C57.7621,109.87 57.723,109.779 57.723,109.675 L57.723,108.456 C57.723,108.279 57.8064,108.164 57.973,108.112 L58.8949,107.753 L58.8949,104.612 C58.8949,104.362 59.0199,104.237 59.2699,104.237 C59.5199,104.237 59.6449,104.362 59.6449,104.612 L59.6449,107.503 L61.3012,106.878 L61.3012,103.722 C61.3012,103.472 61.4236,103.347 61.6683,103.347 C61.9131,103.347 62.0355,103.472 62.0355,103.722 L62.0355,106.628 L62.6918,106.393 C62.7022,106.383 62.7439,106.378 62.8168,106.378 C62.9105,106.378 63.0095,106.414 63.1137,106.487 C63.197,106.57 63.2387,106.664 63.2387,106.768 L63.2387,107.972 C63.2387,108.159 63.1449,108.284 62.9574,108.347 L62.0355,108.659 L62.0355,111.862 L62.6918,111.643 C62.7022,111.633 62.7439,111.628 62.8168,111.628 C62.9105,111.628 63.0095,111.669 63.1137,111.753 C63.197,111.826 63.2387,111.914 63.2387,112.018 L63.2387,113.237 C63.2387,113.404 63.1449,113.518 62.9574,113.581 L62.0355,113.94 L62.0355,117.081 M61.3012,108.956 L59.6449,109.534 L59.6449,112.737 L61.3012,112.159 L61.3012,108.956 "/>
<path class="KeySig" d="M57.0355,127.081 C57.0355,127.331 56.9131,127.456 56.6683,127.456 C56.4235,127.456 56.3012,127.331 56.3012,127.081 L56.3012,124.19 L54.6449,124.815 L54.6449,127.972 C54.6449,128.222 54.5199,128.347 54.2699,128.347 C54.0199,128.347 53.8949,128.222 53.8949,127.972 L53.8949,125.065 L53.2699,125.3 C53.2595,125.31 53.2074,125.315 53.1137,125.315 C53.0095,125.315 52.9183,125.276 52.8402,125.198 C52.7621,125.12 52.723,125.029 52.723,124.925 L52.723,123.722 C52.723,123.524 52.8064,123.399 52.973,123.347 L53.8949,123.034 L53.8949,119.831 L53.2699,120.05 C53.2595,120.06 53.2074,120.065 53.1137,120.065 C53.0095,120.065 52.9183,120.026 52.8402,119.948 C52.7621,119.87 52.723,119.779 52.723,119.675 L52.723,118.456 C52.723,118.279 52.8064,118.164 52.973,118.112 L53.8949,117.753 L53.8949,114.612 C53.8949,114.362 54.0199,114.237 54.2699,114.237 C54.5199,114.237 54.6449,114.362 54.6449,114.612 L54.6449,117.503 L56.3012,116.878 L56.3012,113.722 C56.3012,113.472 56.4235,113.347 56.6683,113.347 C56.9131,113.347 57.0355,113.472 57.0355,113.722 L57.0355,116.628 L57.6918,116.393 C57.7022,116.383 57.7439,116.378 57.8168,116.378 C57.9105,116.378 58.0095,116.414 58.1137,116.487 C58.197,116.57 58.2387,116.664 58.2387,116.768 L58.2387,117.972 C58.2387,118.159 58.1449,118.284 57.9574,118.347 L57.0355,118.659 L57.0355,121.862 L57.6918,121.643 C57.7022,121.633 57.7439,121.628 57.8168,121.628 C57.9105,121.628 58.0095,121.669 58.1137,121.753 C58.197,121.826 58.2387,121.914 58.2387,122.018 L58.2387,123.237 C58.2387,123.404 58.1449,123.518 57.9574,123.581 L57.0355,123.94 L57.0355,127.081 M56.3012,118.956 L54.6449,119.534 L54.6449,122.737 L56.3012,122.159 L56.3012,118.956 "/>
<path class="KeySig" d="M52.0355,119.581 C52.0355,119.831 51.9131,119.956 51.6683,119.956 C51.4235,119.956 51.3011,119.831 51.3011,119.581 L51.3011,116.69 L49.6449,117.315 L49.6449,120.472 C49.6449,120.722 49.5199,120.847 49.2699,120.847 C49.0199,120.847 48.8949,120.722 48.8949,120.472 L48.8949,117.565 L48.2699,117.8 C48.2595,117.81 48.2074,117.815 48.1136,117.815 C48.0095,117.815 47.9183,117.776 47.8402,117.698 C47.7621,117.62 47.723,117.529 47.723,117.425 L47.723,116.222 C47.723,116.024 47.8064,115.899 47.973,115.847 L48.8949,115.534 L48.8949,112.331 L48.2699,112.55 C48.2595,112.56 48.2074,112.565 48.1136,112.565 C48.0095,112.565 47.9183,112.526 47.8402,112.448 C47.7621,112.37 47.723,112.279 47.723,112.175 L47.723,110.956 C47.723,110.779 47.8064,110.664 47.973,110.612 L48.8949,110.253 L48.8949,107.112 C48.8949,106.862 49.0199,106.737 49.2699,106.737 C49.5199,106.737 49.6449,106.862 49.6449,107.112 L49.6449,110.003 L51.3011,109.378 L51.3011,106.222 C51.3011,105.972 51.4235,105.847 51.6683,105.847 C51.9131,105.847 52.0355,105.972 52.0355,106.222 L52.0355,109.128 L52.6918,108.893 C52.7022,108.883 52.7439,108.878 52.8168,108.878 C52.9105,108.878 53.0095,108.914 53.1136,108.987 C53.197,109.07 53.2386,109.164 53.2386,109.268 L53.2386,110.472 C53.2386,110.659 53.1449,110.784 52.9574,110.847 L52.0355,111.159 L52.0355,114.362 L52.6918,114.143 C52.7022,114.133 52.7439,114.128 52.8168,114.128 C52.9105,114.128 53.0095,114.169 53.1136,114.253 C53.197,114.326 53.2386,114.414 53.2386,114.518 L53.2386,115.737 C53.2386,115.904 53.1449,116.018 52.9574,116.081 L52.0355,116.44 L52.0355,119.581 M51.3011,111.456 L49.6449,112.034 L49.6449,115.237 L51.3011,114.659 L51.3011,111.456 "/>
<path class="TimeSig" d="M77.9184,175.3 C77.585,175.3 77.2465,175.169 76.9027,174.909 C76.5798,174.659 76.4184,174.294 76.4184,173.815 C76.4184,173.409 76.5538,173.05 76.8246,172.737 C77.085,172.425 77.4288,172.268 77.8559,172.268 C78.0017,172.268 78.0954,172.274 78.1371,172.284 C77.5329,171.524 76.7309,171.128 75.7309,171.097 L75.4809,171.097 L75.4809,180.597 C75.5225,180.597 75.5694,180.602 75.6215,180.612 C75.6215,180.612 75.6579,180.612 75.7309,180.612 C76.5121,180.612 77.1788,180.326 77.7309,179.753 C78.2829,179.19 78.6736,178.466 78.9027,177.581 C78.934,177.456 79.0121,177.393 79.1371,177.393 C79.3038,177.393 79.3871,177.472 79.3871,177.628 C79.3871,177.722 79.3454,177.899 79.2621,178.159 C79.1892,178.399 79.0538,178.685 78.8559,179.018 C78.6996,179.331 78.4809,179.659 78.1996,180.003 C77.9392,180.305 77.585,180.565 77.1371,180.784 C76.7204,180.992 76.2517,181.097 75.7309,181.097 C75.6788,181.097 75.6423,181.091 75.6215,181.081 C75.6215,181.081 75.5746,181.081 75.4809,181.081 L75.4809,182.643 C75.4809,182.779 75.4079,182.847 75.2621,182.847 L74.934,182.847 C74.7986,182.847 74.7309,182.779 74.7309,182.643 L74.7309,181.018 C73.3663,180.8 72.3611,180.222 71.7152,179.284 C71.059,178.326 70.7309,177.18 70.7309,175.847 C70.7309,174.482 71.059,173.336 71.7152,172.409 C72.3194,171.472 73.3246,170.893 74.7309,170.675 L74.7309,169.05 C74.7309,168.914 74.7986,168.847 74.934,168.847 L75.2621,168.847 C75.3975,168.847 75.4704,168.914 75.4809,169.05 L75.4809,170.612 L75.7309,170.612 C76.8038,170.612 77.6527,170.977 78.2777,171.706 C78.9236,172.435 79.2465,173.159 79.2465,173.878 C79.2465,174.294 79.1163,174.633 78.8559,174.893 C78.6267,175.164 78.3142,175.3 77.9184,175.3 M74.7309,180.456 L74.7309,171.237 C74.1996,171.435 73.8559,171.81 73.6996,172.362 C73.5434,172.935 73.4652,173.758 73.4652,174.831 L73.4652,175.847 L73.4652,176.862 C73.4652,177.935 73.5434,178.758 73.6996,179.331 C73.8559,179.883 74.1996,180.258 74.7309,180.456"/>
<path class="TimeSig" d="M77.9184,122.8 C77.585,122.8 77.2465,122.669 76.9027,122.409 C76.5798,122.159 76.4184,121.794 76.4184,121.315 C76.4184,120.909 76.5538,120.55 76.8246,120.237 C77.085,119.925 77.4288,119.768 77.8559,119.768 C78.0017,119.768 78.0954,119.774 78.1371,119.784 C77.5329,119.024 76.7309,118.628 75.7309,118.597 L75.4809,118.597 L75.4809,128.097 C75.5225,128.097 75.5694,128.102 75.6215,128.112 C75.6215,128.112 75.6579,128.112 75.7309,128.112 C76.5121,128.112 77.1788,127.826 77.7309,127.253 C78.2829,126.69 78.6736,125.966 78.9027,125.081 C78.934,124.956 79.0121,124.893 79.1371,124.893 C79.3038,124.893 79.3871,124.972 79.3871,125.128 C79.3871,125.222 79.3454,125.399 79.2621,125.659 C79.1892,125.899 79.0538,126.185 78.8559,126.518 C78.6996,126.831 78.4809,127.159 78.1996,127.503 C77.9392,127.805 77.585,128.065 77.1371,128.284 C76.7204,128.492 76.2517,128.597 75.7309,128.597 C75.6788,128.597 75.6423,128.591 75.6215,128.581 C75.6215,128.581 75.5746,128.581 75.4809,128.581 L75.4809,130.143 C75.4809,130.279 75.4079,130.347 75.2621,130.347 L74.934,130.347 C74.7986,130.347 74.7309,130.279 74.7309,130.143 L74.7309,128.518 C73.3663,128.3 72.3611,127.722 71.7152,126.784 C71.059,125.826 70.7309,124.68 70.7309,123.347 C70.7309,121.982 71.059,120.836 71.7152,119.909 C72.3194,118.972 73.3246,118.393 74.7309,118.175 L74.7309,116.55 C74.7309,116.414 74.7986,116.347 74.934,116.347 L75.2621,116.347 C75.3975,116.347 75.4704,116.414 75.4809,116.55 L75.4809,118.112 L75.7309,118.112 C76.8038,118.112 77.6527,118.477 78.2777,119.206 C78.9236,119.935 79.2465,120.659 79.2465,121.378 C79.2465,121.794 79.1163,122.133 78.8559,122.393 C78.6267,122.664 78.3142,122.8 77.9184,122.8 M74.7309,127.956 L74.7309,118.737 C74.1996,118.935 73.8559,119.31 73.6996,119.862 C73.5434,120.435 73.4652,121.258 73.4652,122.331 L73.4652,123.347 L73.4652,124.362 C73.4652,125.435 73.5434,126.258 73.6996,126.831 C73.8559,127.383 74.1996,127.758 74.7309,127.956"/>
<path class="Rest" d="M505.936,173.972 L498.827,173.972 C498.692,173.972 498.624,173.909 498.624,173.784 L498.624,171.05 C498.624,170.914 498.692,170.847 498.827,170.847 L505.936,170.847 C506.061,170.847 506.124,170.914 506.124,171.05 L506.124,173.784 C506.124,173.909 506.061,173.972 505.936,173.972"/>
<path class="Rest" d="M505.936,121.472 L498.827,121.472 C498.692,121.472 498.624,121.409 498.624,121.284 L498.624,118.55 C498.624,118.414 498.692,118.347 498.827,118.347 L505.936,118.347 C506.061,118.347 506.124,118.414 506.124,118.55 L506.124,121.284 C506.124,121.409 506.061,121.472 505.936,121.472"/>
<path class="Rest" d="M386.297,173.972 L379.188,173.972 C379.053,173.972 378.985,173.909 378.985,173.784 L378.985,171.05 C378.985,170.914 379.053,170.847 379.188,170.847 L386.297,170.847 C386.422,170.847 386.485,170.914 386.485,171.05 L386.485,173.784 C386.485,173.909 386.422,173.972 386.297,173.972"/>
<path class="Rest" d="M386.297,121.472 L379.188,121.472 C379.053,121.472 378.985,121.409 378.985,121.284 L378.985,118.55 C378.985,118.414 379.053,118.347 379.188,118.347 L386.297,118.347 C386.422,118.347 386.485,118.414 386.485,118.55 L386.485,121.284 C386.485,121.409 386.422,121.472 386.297,121.472"/>
<path class="Rest" d="M266.658,173.972 L259.549,173.972 C259.413,173.972 259.346,173.909 259.346,173.784 L259.346,171.05 C259.346,170.914 259.413,170.847 259.549,170.847 L266.658,170.847 C266.783,170.847 266.846,170.914 266.846,171.05 L266.846,173.784 C266.846,173.909 266.783,173.972 266.658,173.972"/>
<path class="Rest" d="M266.658,121.472 L259.549,121.472 C259.413,121.472 259.346,121.409 259.346,121.284 L259.346,118.55 C259.346,118.414 259.413,118.347 259.549,118.347 L266.658,118.347 C266.783,118.347 266.846,118.414 266.846,118.55 L266.846,121.284 C266.846,121.409 266.783,121.472 266.658,121.472"/>
<path class="Articulation" d="M92.1324,160.456 C91.872,160.195 91.7418,159.875 91.7418,159.495 C91.7418,159.115 91.872,158.794 92.1324,158.534 C92.3928,158.274 92.7105,158.143 93.0855,158.143 C93.4605,158.143 93.7783,158.274 94.0387,158.534 C94.2991,158.794 94.4293,159.115 94.4293,159.495 C94.4293,159.875 94.2991,160.195 94.0387,160.456 C93.7783,160.716 93.4605,160.847 93.0855,160.847 C92.7105,160.847 92.3928,160.716 92.1324,160.456 M90.8199,153.737 C91.497,153.393 92.2522,153.222 93.0855,153.222 C93.9189,153.222 94.6741,153.393 95.3512,153.737 C96.0908,154.07 96.6793,154.492 97.1168,155.003 C97.596,155.555 98.0022,156.107 98.3355,156.659 C98.6897,157.232 98.9658,157.815 99.1637,158.409 C99.3303,158.888 99.471,159.357 99.5855,159.815 C99.6793,160.159 99.7262,160.404 99.7262,160.55 C99.7262,160.612 99.6897,160.685 99.6168,160.768 C99.5126,160.82 99.4241,160.847 99.3512,160.847 C99.1637,160.847 99.0335,160.727 98.9605,160.487 C98.721,159.018 98.0439,157.768 96.9293,156.737 C95.8251,155.748 94.5439,155.253 93.0855,155.253 C91.6272,155.253 90.346,155.748 89.2418,156.737 C88.1376,157.768 87.4605,159.018 87.2105,160.487 C87.1689,160.727 87.0387,160.847 86.8199,160.847 C86.7574,160.847 86.6741,160.82 86.5699,160.768 C86.4866,160.685 86.4449,160.612 86.4449,160.55 C86.4449,160.404 86.4918,160.159 86.5855,159.815 C86.7001,159.357 86.8408,158.888 87.0074,158.409 C87.2053,157.815 87.4814,157.232 87.8355,156.659 C88.1689,156.107 88.5803,155.555 89.0699,155.003 C89.5178,154.472 90.1012,154.05 90.8199,153.737"/>
<path class="Articulation" d="M92.1324,107.956 C91.872,107.695 91.7418,107.375 91.7418,106.995 C91.7418,106.615 91.872,106.294 92.1324,106.034 C92.3928,105.774 92.7105,105.643 93.0855,105.643 C93.4605,105.643 93.7783,105.774 94.0387,106.034 C94.2991,106.294 94.4293,106.615 94.4293,106.995 C94.4293,107.375 94.2991,107.695 94.0387,107.956 C93.7783,108.216 93.4605,108.347 93.0855,108.347 C92.7105,108.347 92.3928,108.216 92.1324,107.956 M90.8199,101.237 C91.497,100.893 92.2522,100.722 93.0855,100.722 C93.9189,100.722 94.6741,100.893 95.3512,101.237 C96.0908,101.57 96.6793,101.992 97.1168,102.503 C97.596,103.055 98.0022,103.607 98.3355,104.159 C98.6897,104.732 98.9658,105.315 99.1637,105.909 C99.3303,106.388 99.471,106.857 99.5855,107.315 C99.6793,107.659 99.7262,107.904 99.7262,108.05 C99.7262,108.112 99.6897,108.185 99.6168,108.268 C99.5126,108.32 99.4241,108.347 99.3512,108.347 C99.1637,108.347 99.0335,108.227 98.9605,107.987 C98.721,106.518 98.0439,105.268 96.9293,104.237 C95.8251,103.248 94.5439,102.753 93.0855,102.753 C91.6272,102.753 90.346,103.248 89.2418,104.237 C88.1376,105.268 87.4605,106.518 87.2105,107.987 C87.1689,108.227 87.0387,108.347 86.8199,108.347 C86.7574,108.347 86.6741,108.32 86.5699,108.268 C86.4866,108.185 86.4449,108.112 86.4449,108.05 C86.4449,107.904 86.4918,107.659 86.5855,107.315 C86.7001,106.857 86.8408,106.388 87.0074,105.909 C87.2053,105.315 87.4814,104.732 87.8355,104.159 C88.1689,103.607 88.5803,103.055 89.0699,102.503 C89.5178,101.972 90.1012,101.55 90.8199,101.237"/>
</svg>
