<?xml version="1.0" encoding="UTF-8" standalone="no"?>
<svg width="595.44px" height="841.68px" viewBox="0 0 595.44 841.68"
 xmlns="http://www.w3.org/2000/svg" xmlns:xlink="http://www.w3.org/1999/xlink" version="1.2" baseProfile="tiny">
<title>Motiv_04</title>
<desc>Generated by MuseScore 2.3.2</desc>
<polyline class="StaffLines" fill="none" stroke="#000000" stroke-width="0.40" stroke-linejoin="bevel" points="38.8465,63.3465 567.094,63.3465"/>
<polyline class="StaffLines" fill="none" stroke="#000000" stroke-width="0.40" stroke-linejoin="bevel" points="38.8465,68.3465 567.094,68.3465"/>
<polyline class="StaffLines" fill="none" stroke="#000000" stroke-width="0.40" stroke-linejoin="bevel" points="38.8465,73.3465 567.094,73.3465"/>
<polyline class="StaffLines" fill="none" stroke="#000000" stroke-width="0.40" stroke-linejoin="bevel" points="38.8465,78.3465 567.094,78.3465"/>
<polyline class="StaffLines" fill="none" stroke="#000000" stroke-width="0.40" stroke-linejoin="bevel" points="38.8465,83.3465 567.094,83.3465"/>
<polyline class="StaffLines" fill="none" stroke="#000000" stroke-width="0.40" stroke-linejoin="bevel" points="38.8465,115.847 567.094,115.847"/>
<polyline class="StaffLines" fill="none" stroke="#000000" stroke-width="0.40" stroke-linejoin="bevel" points="38.8465,120.847 567.094,120.847"/>
<polyline class="StaffLines" fill="none" stroke="#000000" stroke-width="0.40" stroke-linejoin="bevel" points="38.8465,125.847 567.094,125.847"/>
<polyline class="StaffLines" fill="none" stroke="#000000" stroke-width="0.40" stroke-linejoin="bevel" points="38.8465,130.847 567.094,130.847"/>
<polyline class="StaffLines" fill="none" stroke="#000000" stroke-width="0.40" stroke-linejoin="bevel" points="38.8465,135.847 567.094,135.847"/>
<path class="SlurSegment" stroke="#000000" stroke-width="0.35" stroke-linecap="round" stroke-linejoin="round" fill-rule="evenodd" d="M113.045,100.766 C135.789,90.1167 236.293,90.5676 257.536,105.067 C236.269,91.3673 135.766,90.9163 113.045,100.766"/>
<path class="SlurSegment" stroke="#000000" stroke-width="0.35" stroke-linecap="round" stroke-linejoin="round" fill-rule="evenodd" d="M105.366,63.8465 C128.433,48.6592 237.191,46.9092 260.735,61.3465 C237.204,47.7091 128.446,49.4591 105.366,63.8465"/>
<polyline class="BarLine" stroke="#000000" stroke-width="0.80" stroke-linejoin="bevel" points="39.2465,63.3465 39.2465,135.847"/>
<polyline class="BarLine" stroke="#000000" stroke-width="0.80" stroke-linejoin="bevel" points="562.194,63.3465 562.194,135.847"/>
<polyline class="BarLine" stroke="#000000" stroke-width="2.50" stroke-linejoin="bevel" points="565.844,63.3465 565.844,135.847"/>
<polyline class="BarLine" stroke="#000000" stroke-width="0.80" stroke-linejoin="bevel" points="462.56,63.3465 462.56,135.847"/>
<polyline class="BarLine" stroke="#000000" stroke-width="0.80" stroke-linejoin="bevel" points="362.926,63.3465 362.926,135.847"/>
<polyline class="BarLine" stroke="#000000" stroke-width="0.80" stroke-linejoin="bevel" points="251.043,63.3465 251.043,135.847"/>
<polyline class="BarLine" stroke="#000000" stroke-width="0.80" stroke-linejoin="bevel" points="138.635,63.3465 138.635,135.847"/>
<path class="Accidental" d="M205.36,70.8465 C205.527,70.7527 205.696,70.7059 205.868,70.7059 C206.04,70.7059 206.209,70.7527 206.376,70.8465 L206.313,74.5027 L208.454,74.1121 L208.532,74.1121 C208.761,74.1121 208.876,74.2215 208.876,74.4402 L209.016,85.8465 C208.85,85.9402 208.68,85.9871 208.508,85.9871 C208.337,85.9871 208.167,85.9402 208.001,85.8465 L208.063,82.1902 L205.954,82.5809 L205.876,82.5809 C205.636,82.5809 205.516,82.4715 205.516,82.2527 L205.36,70.8465 M208.079,80.2371 L208.141,76.0965 L206.298,76.4559 L206.235,80.5965 L208.079,80.2371 "/>
<polyline class="LedgerLine" stroke="#000000" stroke-width="0.80" stroke-linecap="square" stroke-linejoin="bevel" points="255.943,110.847 265.526,110.847"/>
<polyline class="LedgerLine" stroke="#000000" stroke-width="0.80" stroke-linecap="square" stroke-linejoin="bevel" points="208.594,110.847 218.177,110.847"/>
<polyline class="LedgerLine" stroke="#000000" stroke-width="0.80" stroke-linecap="square" stroke-linejoin="bevel" points="143.535,105.846 153.479,105.846"/>
<polyline class="LedgerLine" stroke="#000000" stroke-width="0.80" stroke-linecap="square" stroke-linejoin="bevel" points="143.535,110.847 153.479,110.847"/>
<polyline class="LedgerLine" stroke="#000000" stroke-width="0.80" stroke-linecap="square" stroke-linejoin="bevel" points="100.575,105.846 110.157,105.846"/>
<polyline class="LedgerLine" stroke="#000000" stroke-width="0.80" stroke-linecap="square" stroke-linejoin="bevel" points="100.575,110.847 110.157,110.847"/>
<polyline class="Stem" stroke="#000000" stroke-width="0.65" stroke-linecap="round" stroke-linejoin="bevel" points="257.768,111.786 257.768,128.347"/>
<polyline class="Stem" stroke="#000000" stroke-width="0.65" stroke-linecap="round" stroke-linejoin="bevel" points="257.768,66.7855 257.768,90.8465"/>
<polyline class="Stem" stroke="#000000" stroke-width="0.65" stroke-linecap="round" stroke-linejoin="bevel" points="210.419,109.286 210.419,125.847"/>
<polyline class="Stem" stroke="#000000" stroke-width="0.65" stroke-linecap="round" stroke-linejoin="bevel" points="216.352,77.4074 216.352,57.7215"/>
<polyline class="Stem" stroke="#000000" stroke-width="0.65" stroke-linecap="round" stroke-linejoin="bevel" points="145.36,106.63 145.36,125.847"/>
<polyline class="Stem" stroke="#000000" stroke-width="0.65" stroke-linecap="round" stroke-linejoin="bevel" points="145.36,71.6305 145.36,90.8465"/>
<polyline class="Stem" stroke="#000000" stroke-width="0.65" stroke-linecap="round" stroke-linejoin="bevel" points="102.4,104.286 102.4,125.847"/>
<polyline class="Stem" stroke="#000000" stroke-width="0.65" stroke-linecap="round" stroke-linejoin="bevel" points="102.4,69.2855 102.4,90.8465"/>
<path class="Note" d="M261.834,108.097 C262.459,108.097 262.99,108.258 263.428,108.581 C263.824,108.935 264.022,109.378 264.022,109.909 C264.022,110.805 263.563,111.643 262.647,112.425 C261.709,113.206 260.704,113.597 259.631,113.597 C259.006,113.597 258.48,113.435 258.053,113.112 C257.647,112.758 257.443,112.315 257.443,111.784 C257.443,110.888 257.912,110.05 258.85,109.268 C259.766,108.487 260.761,108.097 261.834,108.097"/>
<path class="Note" d="M261.834,63.0965 C262.459,63.0965 262.99,63.2579 263.428,63.5808 C263.824,63.935 264.022,64.3777 264.022,64.909 C264.022,65.8048 263.563,66.6433 262.647,67.4246 C261.709,68.2058 260.704,68.5965 259.631,68.5965 C259.006,68.5965 258.48,68.435 258.053,68.1121 C257.647,67.7579 257.443,67.3152 257.443,66.784 C257.443,65.8881 257.912,65.0496 258.85,64.2683 C259.766,63.4871 260.761,63.0965 261.834,63.0965"/>
<path class="Note" d="M261.834,73.0965 C262.459,73.0965 262.99,73.2579 263.428,73.5809 C263.824,73.935 264.022,74.3777 264.022,74.909 C264.022,75.8048 263.563,76.6434 262.647,77.4246 C261.709,78.2059 260.704,78.5965 259.631,78.5965 C259.006,78.5965 258.48,78.435 258.053,78.1121 C257.647,77.7579 257.443,77.3152 257.443,76.784 C257.443,75.8881 257.912,75.0496 258.85,74.2684 C259.766,73.4871 260.761,73.0965 261.834,73.0965"/>
<path class="Note" d="M214.485,105.597 C215.11,105.597 215.641,105.758 216.079,106.081 C216.475,106.435 216.673,106.878 216.673,107.409 C216.673,108.305 216.214,109.143 215.298,109.925 C214.36,110.706 213.355,111.097 212.282,111.097 C211.657,111.097 211.131,110.935 210.704,110.612 C210.298,110.258 210.094,109.815 210.094,109.284 C210.094,108.388 210.563,107.55 211.501,106.768 C212.417,105.987 213.412,105.597 214.485,105.597"/>
<path class="Note" d="M214.485,70.5965 C215.11,70.5965 215.641,70.7579 216.079,71.0809 C216.475,71.435 216.673,71.8777 216.673,72.409 C216.673,73.3048 216.214,74.1434 215.298,74.9246 C214.36,75.7059 213.355,76.0965 212.282,76.0965 C211.657,76.0965 211.131,75.935 210.704,75.6121 C210.298,75.2579 210.094,74.8152 210.094,74.284 C210.094,73.3881 210.563,72.5496 211.501,71.7684 C212.417,70.9871 213.412,70.5965 214.485,70.5965"/>
<path class="Note" d="M214.485,75.5965 C215.11,75.5965 215.641,75.7579 216.079,76.0809 C216.475,76.435 216.673,76.8777 216.673,77.409 C216.673,78.3048 216.214,79.1434 215.298,79.9246 C214.36,80.7059 213.355,81.0965 212.282,81.0965 C211.657,81.0965 211.131,80.935 210.704,80.6121 C210.298,80.2579 210.094,79.8152 210.094,79.284 C210.094,78.3881 210.563,77.5496 211.501,76.7684 C212.417,75.9871 213.412,75.5965 214.485,75.5965"/>
<path class="Note" d="M151.348,104.534 C151.348,104.315 151.265,104.128 151.098,103.971 C150.921,103.805 150.723,103.721 150.504,103.721 C150.119,103.721 149.332,104.112 148.145,104.893 C146.916,105.685 146.166,106.253 145.895,106.596 C145.749,106.774 145.676,106.961 145.676,107.159 C145.676,107.378 145.765,107.565 145.942,107.721 C146.098,107.888 146.291,107.971 146.52,107.971 C146.895,107.971 147.692,107.581 148.91,106.8 C150.108,106.018 150.848,105.451 151.129,105.096 C151.275,104.93 151.348,104.742 151.348,104.534 M150.317,103.096 C151.431,103.096 151.989,103.576 151.989,104.534 C151.989,105.003 151.853,105.55 151.582,106.175 C151.311,106.789 150.947,107.258 150.489,107.581 C149.489,108.258 148.233,108.596 146.723,108.596 C145.598,108.596 145.035,108.117 145.035,107.159 C145.035,106.732 145.171,106.19 145.442,105.534 C145.702,104.909 146.067,104.435 146.535,104.112 C147.546,103.435 148.806,103.096 150.317,103.096"/>
<path class="Note" d="M151.348,69.534 C151.348,69.3152 151.265,69.1277 151.098,68.9715 C150.921,68.8048 150.723,68.7215 150.504,68.7215 C150.119,68.7215 149.332,69.1121 148.145,69.8934 C146.916,70.685 146.166,71.2527 145.895,71.5965 C145.749,71.7736 145.676,71.9611 145.676,72.159 C145.676,72.3777 145.765,72.5652 145.942,72.7215 C146.098,72.8881 146.291,72.9715 146.52,72.9715 C146.895,72.9715 147.692,72.5809 148.91,71.7996 C150.108,71.0184 150.848,70.4506 151.129,70.0965 C151.275,69.9298 151.348,69.7423 151.348,69.534 M150.317,68.0965 C151.431,68.0965 151.989,68.5756 151.989,69.534 C151.989,70.0027 151.853,70.5496 151.582,71.1746 C151.311,71.7892 150.947,72.2579 150.489,72.5809 C149.489,73.2579 148.233,73.5965 146.723,73.5965 C145.598,73.5965 145.035,73.1173 145.035,72.159 C145.035,71.7319 145.171,71.1902 145.442,70.534 C145.702,69.909 146.067,69.435 146.535,69.1121 C147.546,68.435 148.806,68.0965 150.317,68.0965"/>
<path class="Note" d="M151.348,74.534 C151.348,74.3152 151.265,74.1277 151.098,73.9715 C150.921,73.8048 150.723,73.7215 150.504,73.7215 C150.119,73.7215 149.332,74.1121 148.145,74.8934 C146.916,75.685 146.166,76.2527 145.895,76.5965 C145.749,76.7736 145.676,76.9611 145.676,77.159 C145.676,77.3777 145.765,77.5652 145.942,77.7215 C146.098,77.8881 146.291,77.9715 146.52,77.9715 C146.895,77.9715 147.692,77.5809 148.91,76.7996 C150.108,76.0184 150.848,75.4506 151.129,75.0965 C151.275,74.9298 151.348,74.7423 151.348,74.534 M150.317,73.0965 C151.431,73.0965 151.989,73.5756 151.989,74.534 C151.989,75.0027 151.853,75.5496 151.582,76.1746 C151.311,76.7892 150.947,77.2579 150.489,77.5809 C149.489,78.2579 148.233,78.5965 146.723,78.5965 C145.598,78.5965 145.035,78.1173 145.035,77.159 C145.035,76.7319 145.171,76.1902 145.442,75.534 C145.702,74.909 146.067,74.435 146.535,74.1121 C147.546,73.435 148.806,73.0965 150.317,73.0965"/>
<path class="Note" d="M106.465,100.596 C107.09,100.596 107.621,100.758 108.059,101.081 C108.455,101.435 108.653,101.878 108.653,102.409 C108.653,103.305 108.194,104.143 107.278,104.925 C106.34,105.706 105.335,106.096 104.262,106.096 C103.637,106.096 103.111,105.935 102.684,105.612 C102.278,105.258 102.075,104.815 102.075,104.284 C102.075,103.388 102.543,102.55 103.481,101.768 C104.398,100.987 105.392,100.596 106.465,100.596"/>
<path class="Note" d="M106.465,65.5965 C107.09,65.5965 107.621,65.7579 108.059,66.0809 C108.455,66.435 108.653,66.8777 108.653,67.409 C108.653,68.3048 108.194,69.1434 107.278,69.9246 C106.34,70.7059 105.335,71.0965 104.262,71.0965 C103.637,71.0965 103.111,70.935 102.684,70.6121 C102.278,70.2579 102.075,69.8152 102.075,69.284 C102.075,68.3881 102.543,67.5496 103.481,66.7684 C104.398,65.9871 105.392,65.5965 106.465,65.5965"/>
<path class="Note" d="M106.465,73.0965 C107.09,73.0965 107.621,73.2579 108.059,73.5809 C108.455,73.935 108.653,74.3777 108.653,74.909 C108.653,75.8048 108.194,76.6434 107.278,77.4246 C106.34,78.2059 105.335,78.5965 104.262,78.5965 C103.637,78.5965 103.111,78.435 102.684,78.1121 C102.278,77.7579 102.075,77.3152 102.075,76.784 C102.075,75.8881 102.543,75.0496 103.481,74.2684 C104.398,73.4871 105.392,73.0965 106.465,73.0965"/>
<path class="Clef" d="M54.2761,119.065 C54.0834,118.867 53.9871,118.625 53.9871,118.339 C53.9871,118.052 54.0834,117.813 54.2761,117.62 C54.4689,117.427 54.7084,117.331 54.9949,117.331 C55.2814,117.331 55.5235,117.427 55.7215,117.62 C55.9194,117.813 56.0183,118.052 56.0183,118.339 C56.0183,118.625 55.9194,118.867 55.7215,119.065 C55.5235,119.263 55.2814,119.362 54.9949,119.362 C54.7084,119.362 54.4689,119.263 54.2761,119.065 M54.2761,124.073 C54.0834,123.88 53.9871,123.641 53.9871,123.354 C53.9871,123.068 54.0834,122.826 54.2761,122.628 C54.4689,122.43 54.7084,122.331 54.9949,122.331 C55.2814,122.331 55.5235,122.43 55.7215,122.628 C55.9194,122.826 56.0183,123.068 56.0183,123.354 C56.0183,123.641 55.9194,123.88 55.7215,124.073 C55.5235,124.266 55.2814,124.362 54.9949,124.362 C54.7084,124.362 54.4689,124.266 54.2761,124.073 M47.5027,115.597 C49.2319,115.597 50.6485,116.029 51.7527,116.893 C52.8256,117.81 53.3621,119.05 53.3621,120.612 C53.3621,121.664 53.1538,122.628 52.7371,123.503 C52.3413,124.419 51.8256,125.227 51.1902,125.925 C50.534,126.643 49.7475,127.32 48.8308,127.956 C47.9246,128.581 46.9975,129.143 46.0496,129.643 C44.1225,130.612 43.0548,131.097 42.8465,131.097 C42.6798,131.097 42.5965,131.013 42.5965,130.847 C42.5965,130.784 42.6225,130.727 42.6746,130.675 C43.3413,130.279 44.1538,129.779 45.1121,129.175 C45.7371,128.768 46.4663,128.206 47.2996,127.487 C48.1121,126.81 48.7371,126.175 49.1746,125.581 C49.6329,124.987 50.0496,124.258 50.4246,123.393 C50.7475,122.518 50.909,121.654 50.909,120.8 C50.909,119.539 50.5965,118.44 49.9715,117.503 C49.3465,116.565 48.5235,116.097 47.5027,116.097 C46.7735,116.097 46.1485,116.331 45.6277,116.8 C45.0652,117.279 44.659,117.883 44.409,118.612 C44.659,118.508 44.8881,118.456 45.0965,118.456 C45.6381,118.456 46.1069,118.654 46.5027,119.05 C46.8881,119.466 47.0808,119.94 47.0808,120.472 C47.0808,121.034 46.8933,121.539 46.5183,121.987 C46.1121,122.383 45.6381,122.581 45.0965,122.581 C44.5131,122.581 43.9871,122.383 43.5183,121.987 C43.0704,121.539 42.8465,121.034 42.8465,120.472 C42.8465,119.128 43.3048,117.982 44.2215,117.034 C45.1173,116.076 46.211,115.597 47.5027,115.597"/>
<path class="Clef" d="M50.1902,73.2215 C50.1902,73.2215 50.2319,73.2215 50.3152,73.2215 C50.3673,73.2111 50.409,73.2059 50.4402,73.2059 C51.8985,73.2059 53.0965,73.7215 54.034,74.7527 C54.9715,75.7631 55.4402,76.9454 55.4402,78.2996 C55.4402,79.9871 54.7475,81.3569 53.3621,82.409 C52.9975,82.7006 52.5183,82.935 51.9246,83.1121 C51.9975,83.9559 52.034,84.6381 52.034,85.159 C52.034,85.2631 52.0183,85.6434 51.9871,86.2996 C51.935,87.5079 51.5183,88.5548 50.7371,89.4402 C49.9871,90.3152 49.0496,90.7527 47.9246,90.7527 C46.8725,90.7527 45.9767,90.3829 45.2371,89.6434 C44.4871,88.8829 44.1121,87.9715 44.1121,86.909 C44.1121,86.3465 44.3308,85.8673 44.7683,85.4715 C45.2058,85.0861 45.7163,84.8934 46.2996,84.8934 C46.8204,84.8934 47.2579,85.0965 47.6121,85.5027 C47.9767,85.8777 48.159,86.3465 48.159,86.909 C48.159,87.409 47.9767,87.8413 47.6121,88.2059 C47.2475,88.5704 46.81,88.7527 46.2996,88.7527 C46.0913,88.7527 45.8933,88.7163 45.7058,88.6434 C46.2788,89.4871 47.0392,89.909 47.9871,89.909 C48.8829,89.909 49.6173,89.5444 50.1902,88.8152 C50.7944,88.0652 51.1225,87.185 51.1746,86.1746 C51.1954,85.5496 51.2058,85.1954 51.2058,85.1121 C51.2058,84.3829 51.1798,83.784 51.1277,83.3152 C50.4819,83.4194 49.9038,83.4715 49.3933,83.4715 C47.5808,83.4715 46.0392,82.7527 44.7683,81.3152 C43.5183,79.8673 42.8933,78.1486 42.8933,76.159 C42.8933,75.7423 42.9298,75.3204 43.0027,74.8934 C43.086,74.5392 43.185,74.1538 43.2996,73.7371 C43.3621,73.4975 43.5392,73.1173 43.8308,72.5965 C43.935,72.4402 44.0522,72.2449 44.1824,72.0105 C44.3126,71.7762 44.4038,71.6225 44.4558,71.5496 C44.5808,71.2892 44.8308,70.935 45.2058,70.4871 C45.31,70.3725 45.4194,70.2449 45.534,70.1043 C45.6485,69.9637 45.7449,69.8465 45.823,69.7527 C45.9011,69.659 45.9584,69.5861 45.9949,69.534 C46.0314,69.4819 46.3256,69.1381 46.8777,68.5027 C47.0027,68.3673 47.1277,68.2267 47.2527,68.0809 C47.3777,67.935 47.4793,67.8178 47.5574,67.7293 C47.6355,67.6408 47.6954,67.5809 47.7371,67.5496 C47.2683,65.9975 46.9715,64.7579 46.8465,63.8309 C46.7631,63.0913 46.7215,62.0756 46.7215,60.784 C46.7215,59.6486 46.9819,58.5861 47.5027,57.5965 C48.0027,56.5756 48.711,55.7371 49.6277,55.0809 C49.6902,55.0392 49.7527,55.0184 49.8152,55.0184 C49.909,55.0184 49.9767,55.0392 50.0183,55.0809 C50.7163,55.9246 51.3204,57.0236 51.8308,58.3777 C52.3517,59.7319 52.6121,60.9663 52.6121,62.0809 C52.6121,63.3309 52.3152,64.5027 51.7215,65.5965 C51.0444,66.7527 50.1694,67.9506 49.0965,69.1902 C49.3673,70.0444 49.7319,71.3881 50.1902,73.2215 M51.8465,82.3152 C52.5235,82.0652 53.0548,81.6434 53.4402,81.0496 C53.8569,80.4767 54.0652,79.8309 54.0652,79.1121 C54.0652,78.185 53.7527,77.3621 53.1277,76.6434 C52.4819,75.9038 51.6642,75.4871 50.6746,75.3934 C51.2371,78.1434 51.6277,80.4506 51.8465,82.3152 M44.2996,77.7996 C44.2996,79.0913 44.8204,80.2267 45.8621,81.2059 C46.9246,82.1538 48.1225,82.6277 49.4558,82.6277 C49.9975,82.6277 50.5288,82.5861 51.0496,82.5027 C50.8413,80.5236 50.4298,78.1538 49.8152,75.3934 C49.0756,75.4767 48.4871,75.7371 48.0496,76.1746 C47.6121,76.6329 47.3933,77.1486 47.3933,77.7215 C47.3933,78.7111 47.9246,79.5131 48.9871,80.1277 C49.0704,80.2215 49.1121,80.3204 49.1121,80.4246 C49.1121,80.5288 49.0704,80.6225 48.9871,80.7059 C48.9038,80.7996 48.8048,80.8465 48.6902,80.8465 C48.6798,80.8465 48.6225,80.8361 48.5183,80.8152 C47.7683,80.409 47.1954,79.8881 46.7996,79.2527 C46.4142,78.5652 46.2215,77.8777 46.2215,77.1902 C46.2215,76.2944 46.5027,75.4819 47.0652,74.7527 C47.6485,74.0236 48.409,73.5548 49.3465,73.3465 C48.9819,71.8881 48.685,70.7475 48.4558,69.9246 C48.2475,70.1642 47.9975,70.448 47.7058,70.7762 C47.4142,71.1043 47.2423,71.3048 47.1902,71.3777 C46.7215,71.9819 46.3621,72.4559 46.1121,72.7996 C45.6642,73.4142 45.336,73.9402 45.1277,74.3777 C44.909,74.8777 44.7163,75.4194 44.5496,76.0027 C44.3829,76.5652 44.2996,77.1642 44.2996,77.7996 M50.8152,57.9402 C49.836,58.4194 49.0704,59.1069 48.5183,60.0027 C47.9454,60.9298 47.659,61.9246 47.659,62.9871 C47.659,63.9246 47.8933,65.1902 48.3621,66.784 C49.2996,65.6486 50.0027,64.6017 50.4715,63.6434 C50.961,62.6225 51.2058,61.56 51.2058,60.4559 C51.2058,59.6225 51.0756,58.784 50.8152,57.9402"/>
<path class="KeySig" d="M79.2621,135.018 L79.2621,136.565 C79.2621,137.117 79.2881,137.555 79.3402,137.878 C79.7673,137.513 80.0746,137.242 80.2621,137.065 C80.4704,136.857 80.6788,136.568 80.8871,136.198 C81.0954,135.828 81.1996,135.461 81.1996,135.097 C81.1996,134.732 81.1215,134.419 80.9652,134.159 C80.809,133.899 80.6006,133.768 80.3402,133.768 C80.0277,133.768 79.7673,133.888 79.559,134.128 C79.3611,134.388 79.2621,134.685 79.2621,135.018 M78.434,138.597 L78.184,126.706 C78.3715,126.602 78.5564,126.55 78.7387,126.55 C78.921,126.55 79.1006,126.602 79.2777,126.706 L79.1215,133.597 C79.6527,133.138 80.2673,132.909 80.9652,132.909 C81.4652,132.909 81.8845,133.117 82.223,133.534 C82.5616,133.951 82.7309,134.43 82.7309,134.972 C82.7309,135.305 82.6215,135.664 82.4027,136.05 C82.1944,136.393 81.9756,136.664 81.7465,136.862 C81.6111,136.966 81.2777,137.227 80.7465,137.643 C80.5902,137.758 80.4053,137.893 80.1918,138.05 C79.9783,138.206 79.8454,138.305 79.7934,138.347 C79.6996,138.399 79.6111,138.503 79.5277,138.659 C79.4444,138.794 79.3402,138.904 79.2152,138.987 C79.1319,139.07 79.0251,139.112 78.8949,139.112 C78.7647,139.112 78.6579,139.065 78.5746,138.972 C78.4809,138.878 78.434,138.753 78.434,138.597"/>
<path class="KeySig" d="M74.2621,125.018 L74.2621,126.565 C74.2621,127.117 74.2881,127.555 74.3402,127.878 C74.7673,127.513 75.0746,127.242 75.2621,127.065 C75.4704,126.857 75.6788,126.568 75.8871,126.198 C76.0954,125.828 76.1996,125.461 76.1996,125.097 C76.1996,124.732 76.1215,124.419 75.9652,124.159 C75.809,123.899 75.6006,123.768 75.3402,123.768 C75.0277,123.768 74.7673,123.888 74.559,124.128 C74.3611,124.388 74.2621,124.685 74.2621,125.018 M73.434,128.597 L73.184,116.706 C73.3715,116.602 73.5564,116.55 73.7387,116.55 C73.921,116.55 74.1006,116.602 74.2777,116.706 L74.1215,123.597 C74.6527,123.138 75.2673,122.909 75.9652,122.909 C76.4652,122.909 76.8845,123.117 77.223,123.534 C77.5616,123.951 77.7309,124.43 77.7309,124.972 C77.7309,125.305 77.6215,125.664 77.4027,126.05 C77.1944,126.393 76.9756,126.664 76.7465,126.862 C76.6111,126.966 76.2777,127.227 75.7465,127.643 C75.5902,127.758 75.4053,127.893 75.1918,128.05 C74.9782,128.206 74.8454,128.305 74.7934,128.347 C74.6996,128.399 74.6111,128.503 74.5277,128.659 C74.4444,128.794 74.3402,128.904 74.2152,128.987 C74.1319,129.07 74.0251,129.112 73.8949,129.112 C73.7647,129.112 73.6579,129.065 73.5746,128.972 C73.4809,128.878 73.434,128.753 73.434,128.597"/>
<path class="KeySig" d="M69.2621,132.518 L69.2621,134.065 C69.2621,134.617 69.2881,135.055 69.3402,135.378 C69.7673,135.013 70.0746,134.742 70.2621,134.565 C70.4704,134.357 70.6788,134.068 70.8871,133.698 C71.0954,133.328 71.1996,132.961 71.1996,132.597 C71.1996,132.232 71.1215,131.919 70.9652,131.659 C70.809,131.399 70.6006,131.268 70.3402,131.268 C70.0277,131.268 69.7673,131.388 69.559,131.628 C69.3611,131.888 69.2621,132.185 69.2621,132.518 M68.434,136.097 L68.184,124.206 C68.3715,124.102 68.5564,124.05 68.7387,124.05 C68.921,124.05 69.1006,124.102 69.2777,124.206 L69.1215,131.097 C69.6527,130.638 70.2673,130.409 70.9652,130.409 C71.4652,130.409 71.8845,130.617 72.223,131.034 C72.5616,131.451 72.7309,131.93 72.7309,132.472 C72.7309,132.805 72.6215,133.164 72.4027,133.55 C72.1944,133.893 71.9756,134.164 71.7465,134.362 C71.6111,134.466 71.2777,134.727 70.7465,135.143 C70.5902,135.258 70.4053,135.393 70.1918,135.55 C69.9782,135.706 69.8454,135.805 69.7934,135.847 C69.6996,135.899 69.6111,136.003 69.5277,136.159 C69.4444,136.294 69.3402,136.404 69.2152,136.487 C69.1319,136.57 69.0251,136.612 68.8949,136.612 C68.7647,136.612 68.6579,136.565 68.5746,136.472 C68.4809,136.378 68.434,136.253 68.434,136.097"/>
<path class="KeySig" d="M64.2621,122.518 L64.2621,124.065 C64.2621,124.617 64.2881,125.055 64.3402,125.378 C64.7673,125.013 65.0746,124.742 65.2621,124.565 C65.4704,124.357 65.6788,124.068 65.8871,123.698 C66.0954,123.328 66.1996,122.961 66.1996,122.597 C66.1996,122.232 66.1215,121.919 65.9652,121.659 C65.809,121.399 65.6006,121.268 65.3402,121.268 C65.0277,121.268 64.7673,121.388 64.559,121.628 C64.3611,121.888 64.2621,122.185 64.2621,122.518 M63.434,126.097 L63.184,114.206 C63.3715,114.102 63.5564,114.05 63.7387,114.05 C63.921,114.05 64.1006,114.102 64.2777,114.206 L64.1215,121.097 C64.6527,120.638 65.2673,120.409 65.9652,120.409 C66.4652,120.409 66.8845,120.617 67.223,121.034 C67.5616,121.451 67.7308,121.93 67.7308,122.472 C67.7308,122.805 67.6215,123.164 67.4027,123.55 C67.1944,123.893 66.9756,124.164 66.7465,124.362 C66.6111,124.466 66.2777,124.727 65.7465,125.143 C65.5902,125.258 65.4053,125.393 65.1918,125.55 C64.9782,125.706 64.8454,125.805 64.7933,125.847 C64.6996,125.899 64.6111,126.003 64.5277,126.159 C64.4444,126.294 64.3402,126.404 64.2152,126.487 C64.1319,126.57 64.0251,126.612 63.8949,126.612 C63.7647,126.612 63.6579,126.565 63.5746,126.472 C63.4808,126.378 63.434,126.253 63.434,126.097"/>
<path class="KeySig" d="M59.2621,130.018 L59.2621,131.565 C59.2621,132.117 59.2881,132.555 59.3402,132.878 C59.7673,132.513 60.0746,132.242 60.2621,132.065 C60.4704,131.857 60.6788,131.568 60.8871,131.198 C61.0954,130.828 61.1996,130.461 61.1996,130.097 C61.1996,129.732 61.1215,129.419 60.9652,129.159 C60.809,128.899 60.6006,128.768 60.3402,128.768 C60.0277,128.768 59.7673,128.888 59.559,129.128 C59.3611,129.388 59.2621,129.685 59.2621,130.018 M58.434,133.597 L58.184,121.706 C58.3715,121.602 58.5564,121.55 58.7387,121.55 C58.9209,121.55 59.1006,121.602 59.2777,121.706 L59.1215,128.597 C59.6527,128.138 60.2673,127.909 60.9652,127.909 C61.4652,127.909 61.8845,128.117 62.223,128.534 C62.5616,128.951 62.7308,129.43 62.7308,129.972 C62.7308,130.305 62.6215,130.664 62.4027,131.05 C62.1944,131.393 61.9756,131.664 61.7465,131.862 C61.6111,131.966 61.2777,132.227 60.7465,132.643 C60.5902,132.758 60.4053,132.893 60.1918,133.05 C59.9782,133.206 59.8454,133.305 59.7933,133.347 C59.6996,133.399 59.6111,133.503 59.5277,133.659 C59.4444,133.794 59.3402,133.904 59.2152,133.987 C59.1319,134.07 59.0251,134.112 58.8949,134.112 C58.7647,134.112 58.6579,134.065 58.5746,133.972 C58.4808,133.878 58.434,133.753 58.434,133.597"/>
<path class="KeySig" d="M79.2621,77.5184 L79.2621,79.0652 C79.2621,79.6173 79.2881,80.0548 79.3402,80.3777 C79.7673,80.0131 80.0746,79.7423 80.2621,79.5652 C80.4704,79.3569 80.6788,79.0678 80.8871,78.698 C81.0954,78.3283 81.1996,77.9611 81.1996,77.5965 C81.1996,77.2319 81.1215,76.9194 80.9652,76.659 C80.809,76.3986 80.6006,76.2684 80.3402,76.2684 C80.0277,76.2684 79.7673,76.3881 79.559,76.6277 C79.3611,76.8881 79.2621,77.185 79.2621,77.5184 M78.434,81.0965 L78.184,69.2059 C78.3715,69.1017 78.5564,69.0496 78.7387,69.0496 C78.921,69.0496 79.1006,69.1017 79.2777,69.2059 L79.1215,76.0965 C79.6527,75.6381 80.2673,75.409 80.9652,75.409 C81.4652,75.409 81.8845,75.6173 82.223,76.034 C82.5616,76.4506 82.7309,76.9298 82.7309,77.4715 C82.7309,77.8048 82.6215,78.1642 82.4027,78.5496 C82.1944,78.8934 81.9756,79.1642 81.7465,79.3621 C81.6111,79.4663 81.2777,79.7267 80.7465,80.1434 C80.5902,80.2579 80.4053,80.3934 80.1918,80.5496 C79.9783,80.7059 79.8454,80.8048 79.7934,80.8465 C79.6996,80.8986 79.6111,81.0027 79.5277,81.159 C79.4444,81.2944 79.3402,81.4038 79.2152,81.4871 C79.1319,81.5704 79.0251,81.6121 78.8949,81.6121 C78.7647,81.6121 78.6579,81.5652 78.5746,81.4715 C78.4809,81.3777 78.434,81.2527 78.434,81.0965"/>
<path class="KeySig" d="M74.2621,67.5184 L74.2621,69.0652 C74.2621,69.6173 74.2881,70.0548 74.3402,70.3777 C74.7673,70.0131 75.0746,69.7423 75.2621,69.5652 C75.4704,69.3569 75.6788,69.0678 75.8871,68.698 C76.0954,68.3282 76.1996,67.9611 76.1996,67.5965 C76.1996,67.2319 76.1215,66.9194 75.9652,66.659 C75.809,66.3986 75.6006,66.2684 75.3402,66.2684 C75.0277,66.2684 74.7673,66.3881 74.559,66.6277 C74.3611,66.8881 74.2621,67.185 74.2621,67.5184 M73.434,71.0965 L73.184,59.2059 C73.3715,59.1017 73.5564,59.0496 73.7387,59.0496 C73.921,59.0496 74.1006,59.1017 74.2777,59.2059 L74.1215,66.0965 C74.6527,65.6381 75.2673,65.409 75.9652,65.409 C76.4652,65.409 76.8845,65.6173 77.223,66.034 C77.5616,66.4506 77.7309,66.9298 77.7309,67.4715 C77.7309,67.8048 77.6215,68.1642 77.4027,68.5496 C77.1944,68.8934 76.9756,69.1642 76.7465,69.3621 C76.6111,69.4663 76.2777,69.7267 75.7465,70.1434 C75.5902,70.2579 75.4053,70.3934 75.1918,70.5496 C74.9782,70.7059 74.8454,70.8048 74.7934,70.8465 C74.6996,70.8986 74.6111,71.0027 74.5277,71.159 C74.4444,71.2944 74.3402,71.4038 74.2152,71.4871 C74.1319,71.5704 74.0251,71.6121 73.8949,71.6121 C73.7647,71.6121 73.6579,71.5652 73.5746,71.4715 C73.4809,71.3777 73.434,71.2527 73.434,71.0965"/>
<path class="KeySig" d="M69.2621,75.0184 L69.2621,76.5652 C69.2621,77.1173 69.2881,77.5548 69.3402,77.8777 C69.7673,77.5131 70.0746,77.2423 70.2621,77.0652 C70.4704,76.8569 70.6788,76.5678 70.8871,76.198 C71.0954,75.8283 71.1996,75.4611 71.1996,75.0965 C71.1996,74.7319 71.1215,74.4194 70.9652,74.159 C70.809,73.8986 70.6006,73.7684 70.3402,73.7684 C70.0277,73.7684 69.7673,73.8881 69.559,74.1277 C69.3611,74.3881 69.2621,74.685 69.2621,75.0184 M68.434,78.5965 L68.184,66.7059 C68.3715,66.6017 68.5564,66.5496 68.7387,66.5496 C68.921,66.5496 69.1006,66.6017 69.2777,66.7059 L69.1215,73.5965 C69.6527,73.1381 70.2673,72.909 70.9652,72.909 C71.4652,72.909 71.8845,73.1173 72.223,73.534 C72.5616,73.9506 72.7309,74.4298 72.7309,74.9715 C72.7309,75.3048 72.6215,75.6642 72.4027,76.0496 C72.1944,76.3934 71.9756,76.6642 71.7465,76.8621 C71.6111,76.9663 71.2777,77.2267 70.7465,77.6434 C70.5902,77.7579 70.4053,77.8934 70.1918,78.0496 C69.9782,78.2059 69.8454,78.3048 69.7934,78.3465 C69.6996,78.3986 69.6111,78.5027 69.5277,78.659 C69.4444,78.7944 69.3402,78.9038 69.2152,78.9871 C69.1319,79.0704 69.0251,79.1121 68.8949,79.1121 C68.7647,79.1121 68.6579,79.0652 68.5746,78.9715 C68.4809,78.8777 68.434,78.7527 68.434,78.5965"/>
<path class="KeySig" d="M64.2621,65.0183 L64.2621,66.5652 C64.2621,67.1173 64.2881,67.5548 64.3402,67.8777 C64.7673,67.5131 65.0746,67.2423 65.2621,67.0652 C65.4704,66.8569 65.6788,66.5678 65.8871,66.198 C66.0954,65.8282 66.1996,65.4611 66.1996,65.0965 C66.1996,64.7319 66.1215,64.4194 65.9652,64.159 C65.809,63.8986 65.6006,63.7683 65.3402,63.7683 C65.0277,63.7683 64.7673,63.8881 64.559,64.1277 C64.3611,64.3881 64.2621,64.685 64.2621,65.0183 M63.434,68.5965 L63.184,56.7058 C63.3715,56.6017 63.5564,56.5496 63.7387,56.5496 C63.921,56.5496 64.1006,56.6017 64.2777,56.7058 L64.1215,63.5965 C64.6527,63.1381 65.2673,62.909 65.9652,62.909 C66.4652,62.909 66.8845,63.1173 67.223,63.534 C67.5616,63.9506 67.7308,64.4298 67.7308,64.9715 C67.7308,65.3048 67.6215,65.6642 67.4027,66.0496 C67.1944,66.3933 66.9756,66.6642 66.7465,66.8621 C66.6111,66.9663 66.2777,67.2267 65.7465,67.6433 C65.5902,67.7579 65.4053,67.8933 65.1918,68.0496 C64.9782,68.2058 64.8454,68.3048 64.7933,68.3465 C64.6996,68.3986 64.6111,68.5027 64.5277,68.659 C64.4444,68.7944 64.3402,68.9038 64.2152,68.9871 C64.1319,69.0704 64.0251,69.1121 63.8949,69.1121 C63.7647,69.1121 63.6579,69.0652 63.5746,68.9715 C63.4808,68.8777 63.434,68.7527 63.434,68.5965"/>
<path class="KeySig" d="M59.2621,72.5184 L59.2621,74.0652 C59.2621,74.6173 59.2881,75.0548 59.3402,75.3777 C59.7673,75.0131 60.0746,74.7423 60.2621,74.5652 C60.4704,74.3569 60.6788,74.0678 60.8871,73.698 C61.0954,73.3282 61.1996,72.9611 61.1996,72.5965 C61.1996,72.2319 61.1215,71.9194 60.9652,71.659 C60.809,71.3986 60.6006,71.2684 60.3402,71.2684 C60.0277,71.2684 59.7673,71.3881 59.559,71.6277 C59.3611,71.8881 59.2621,72.185 59.2621,72.5184 M58.434,76.0965 L58.184,64.2059 C58.3715,64.1017 58.5564,64.0496 58.7387,64.0496 C58.9209,64.0496 59.1006,64.1017 59.2777,64.2059 L59.1215,71.0965 C59.6527,70.6381 60.2673,70.409 60.9652,70.409 C61.4652,70.409 61.8845,70.6173 62.223,71.034 C62.5616,71.4506 62.7308,71.9298 62.7308,72.4715 C62.7308,72.8048 62.6215,73.1642 62.4027,73.5496 C62.1944,73.8934 61.9756,74.1642 61.7465,74.3621 C61.6111,74.4663 61.2777,74.7267 60.7465,75.1434 C60.5902,75.2579 60.4053,75.3934 60.1918,75.5496 C59.9782,75.7059 59.8454,75.8048 59.7933,75.8465 C59.6996,75.8986 59.6111,76.0027 59.5277,76.159 C59.4444,76.2944 59.3402,76.4038 59.2152,76.4871 C59.1319,76.5704 59.0251,76.6121 58.8949,76.6121 C58.7647,76.6121 58.6579,76.5652 58.5746,76.4715 C58.4808,76.3777 58.434,76.2527 58.434,76.0965"/>
<path class="TimeSig" d="M91.2777,120.55 C91.2777,120.685 91.3507,120.81 91.4965,120.925 C91.7048,121.081 91.8663,121.201 91.9809,121.284 C92.1371,121.367 92.3038,121.576 92.4809,121.909 C92.6163,122.222 92.684,122.602 92.684,123.05 C92.684,123.956 92.3559,124.649 91.6996,125.128 C91.0225,125.607 90.1632,125.847 89.1215,125.847 C88.2673,125.847 87.5486,125.638 86.9652,125.222 C86.3402,124.836 86.0277,124.289 86.0277,123.581 C86.0277,123.248 86.1579,122.935 86.4184,122.643 C86.6892,122.393 87.0017,122.268 87.3559,122.268 C87.7204,122.268 88.0225,122.399 88.2621,122.659 C88.5225,122.909 88.6527,123.216 88.6527,123.581 C88.6527,123.748 88.5225,123.93 88.2621,124.128 C87.9809,124.315 87.8402,124.492 87.8402,124.659 C87.8402,124.909 87.9652,125.091 88.2152,125.206 C88.4757,125.32 88.7777,125.378 89.1215,125.378 C89.5694,125.378 89.8923,125.159 90.0902,124.722 C90.2777,124.232 90.3715,123.675 90.3715,123.05 L90.3715,122.722 C90.3715,122.347 90.3559,122.013 90.3246,121.722 C90.3038,121.503 90.2152,121.305 90.059,121.128 C89.9132,120.94 89.684,120.847 89.3715,120.847 L87.7621,120.847 C87.585,120.847 87.4965,120.748 87.4965,120.55 C87.4965,120.383 87.585,120.284 87.7621,120.253 L89.3715,120.253 C89.7361,120.253 89.9965,120.138 90.1527,119.909 C90.2777,119.722 90.3402,119.393 90.3402,118.925 L90.3402,118.284 L90.3402,118.128 C90.3402,116.919 89.8975,116.315 89.0121,116.315 C88.2309,116.315 87.8402,116.529 87.8402,116.956 C87.8402,117.102 87.9652,117.258 88.2152,117.425 C88.4548,117.591 88.5746,117.748 88.5746,117.893 C88.5746,118.216 88.4548,118.498 88.2152,118.737 C87.9965,118.956 87.7257,119.065 87.4027,119.065 C87.0902,119.065 86.8194,118.956 86.5902,118.737 C86.3715,118.487 86.2621,118.206 86.2621,117.893 C86.2621,117.279 86.5382,116.779 87.0902,116.393 C87.6632,116.029 88.3142,115.847 89.0434,115.847 C90.0121,115.847 90.8194,116.034 91.4652,116.409 C92.1007,116.774 92.4184,117.347 92.4184,118.128 C92.4184,118.69 92.3611,119.112 92.2465,119.393 C92.1215,119.695 91.9913,119.878 91.8559,119.94 C91.6996,120.013 91.5694,120.091 91.4652,120.175 C91.3402,120.279 91.2777,120.404 91.2777,120.55"/>
<path class="TimeSig" d="M89.8246,126.097 C90.21,126.097 90.5408,126.052 90.8168,125.964 C91.0928,125.875 91.2673,125.831 91.3402,125.831 C91.434,125.831 91.5069,125.857 91.559,125.909 C91.6007,125.94 91.6267,125.982 91.6371,126.034 C91.6371,126.065 91.6215,126.107 91.5902,126.159 L85.9184,132.768 L89.2465,132.768 L89.2465,130.143 C89.2465,129.977 89.2934,129.831 89.3871,129.706 C89.5434,129.581 89.6736,129.503 89.7777,129.472 C89.9444,129.399 90.1527,129.216 90.4027,128.925 C90.6111,128.695 90.8611,128.289 91.1527,127.706 C91.184,127.623 91.2413,127.581 91.3246,127.581 C91.4809,127.581 91.5694,127.675 91.5902,127.862 L91.5902,132.768 L93.0277,132.768 C93.2048,132.768 93.309,132.862 93.3402,133.05 C93.3402,133.248 93.2361,133.347 93.0277,133.347 L91.5902,133.347 L91.5902,133.503 C91.5902,134.024 91.7204,134.466 91.9809,134.831 C92.2829,135.195 92.6371,135.378 93.0434,135.378 C93.1996,135.378 93.2777,135.456 93.2777,135.612 C93.2777,135.768 93.1996,135.847 93.0434,135.847 C92.7725,135.847 92.3298,135.81 91.7152,135.737 C91.1527,135.643 90.7152,135.597 90.4027,135.597 C90.0798,135.597 89.6423,135.643 89.0902,135.737 C88.5069,135.81 88.0746,135.847 87.7934,135.847 C87.6371,135.847 87.559,135.768 87.559,135.612 C87.559,135.456 87.6371,135.378 87.7934,135.378 C88.1892,135.378 88.5382,135.195 88.8402,134.831 C89.1111,134.466 89.2465,134.024 89.2465,133.503 L89.2465,133.347 L85.9184,133.347 C85.6892,133.347 85.5329,133.294 85.4496,133.19 C85.335,133.117 85.2777,133.013 85.2777,132.878 C85.2777,132.836 85.3767,132.701 85.5746,132.472 C85.8038,132.211 86.0382,131.893 86.2777,131.518 C86.5694,131.07 86.8454,130.612 87.1059,130.143 C87.3871,129.612 87.6163,128.998 87.7934,128.3 C87.9809,127.602 88.0746,126.888 88.0746,126.159 C88.0746,125.951 88.1684,125.847 88.3559,125.847 C88.3975,125.847 88.4809,125.867 88.6059,125.909 C88.6475,125.919 88.7309,125.938 88.8559,125.964 C88.9809,125.99 89.0798,126.013 89.1527,126.034 C89.3923,126.076 89.6163,126.097 89.8246,126.097"/>
<path class="TimeSig" d="M91.2777,68.0496 C91.2777,68.185 91.3507,68.31 91.4965,68.4246 C91.7048,68.5809 91.8663,68.7006 91.9809,68.784 C92.1371,68.8673 92.3038,69.0756 92.4809,69.409 C92.6163,69.7215 92.684,70.1017 92.684,70.5496 C92.684,71.4559 92.3559,72.1486 91.6996,72.6277 C91.0225,73.1069 90.1632,73.3465 89.1215,73.3465 C88.2673,73.3465 87.5486,73.1381 86.9652,72.7215 C86.3402,72.3361 86.0277,71.7892 86.0277,71.0809 C86.0277,70.7475 86.1579,70.435 86.4184,70.1434 C86.6892,69.8934 87.0017,69.7684 87.3559,69.7684 C87.7204,69.7684 88.0225,69.8986 88.2621,70.159 C88.5225,70.409 88.6527,70.7163 88.6527,71.0809 C88.6527,71.2475 88.5225,71.4298 88.2621,71.6277 C87.9809,71.8152 87.8402,71.9923 87.8402,72.159 C87.8402,72.409 87.9652,72.5913 88.2152,72.7059 C88.4757,72.8204 88.7777,72.8777 89.1215,72.8777 C89.5694,72.8777 89.8923,72.659 90.0902,72.2215 C90.2777,71.7319 90.3715,71.1746 90.3715,70.5496 L90.3715,70.2215 C90.3715,69.8465 90.3559,69.5131 90.3246,69.2215 C90.3038,69.0027 90.2152,68.8048 90.059,68.6277 C89.9132,68.4402 89.684,68.3465 89.3715,68.3465 L87.7621,68.3465 C87.585,68.3465 87.4965,68.2475 87.4965,68.0496 C87.4965,67.8829 87.585,67.784 87.7621,67.7527 L89.3715,67.7527 C89.7361,67.7527 89.9965,67.6381 90.1527,67.409 C90.2777,67.2215 90.3402,66.8934 90.3402,66.4246 L90.3402,65.784 L90.3402,65.6277 C90.3402,64.4194 89.8975,63.8152 89.0121,63.8152 C88.2309,63.8152 87.8402,64.0288 87.8402,64.4559 C87.8402,64.6017 87.9652,64.7579 88.2152,64.9246 C88.4548,65.0913 88.5746,65.2475 88.5746,65.3934 C88.5746,65.7163 88.4548,65.9975 88.2152,66.2371 C87.9965,66.4559 87.7257,66.5652 87.4027,66.5652 C87.0902,66.5652 86.8194,66.4559 86.5902,66.2371 C86.3715,65.9871 86.2621,65.7059 86.2621,65.3934 C86.2621,64.7788 86.5382,64.2788 87.0902,63.8934 C87.6632,63.5288 88.3142,63.3465 89.0434,63.3465 C90.0121,63.3465 90.8194,63.534 91.4652,63.909 C92.1007,64.2736 92.4184,64.8465 92.4184,65.6277 C92.4184,66.1902 92.3611,66.6121 92.2465,66.8934 C92.1215,67.1954 91.9913,67.3777 91.8559,67.4402 C91.6996,67.5131 91.5694,67.5913 91.4652,67.6746 C91.3402,67.7788 91.2777,67.9038 91.2777,68.0496"/>
<path class="TimeSig" d="M89.8246,73.5965 C90.21,73.5965 90.5408,73.5522 90.8168,73.4637 C91.0928,73.3751 91.2673,73.3309 91.3402,73.3309 C91.434,73.3309 91.5069,73.3569 91.559,73.409 C91.6007,73.4402 91.6267,73.4819 91.6371,73.534 C91.6371,73.5652 91.6215,73.6069 91.5902,73.659 L85.9184,80.2684 L89.2465,80.2684 L89.2465,77.6434 C89.2465,77.4767 89.2934,77.3309 89.3871,77.2059 C89.5434,77.0809 89.6736,77.0027 89.7777,76.9715 C89.9444,76.8986 90.1527,76.7163 90.4027,76.4246 C90.6111,76.1954 90.8611,75.7892 91.1527,75.2059 C91.184,75.1225 91.2413,75.0809 91.3246,75.0809 C91.4809,75.0809 91.5694,75.1746 91.5902,75.3621 L91.5902,80.2684 L93.0277,80.2684 C93.2048,80.2684 93.309,80.3621 93.3402,80.5496 C93.3402,80.7475 93.2361,80.8465 93.0277,80.8465 L91.5902,80.8465 L91.5902,81.0027 C91.5902,81.5236 91.7204,81.9663 91.9809,82.3309 C92.2829,82.6954 92.6371,82.8777 93.0434,82.8777 C93.1996,82.8777 93.2777,82.9559 93.2777,83.1121 C93.2777,83.2684 93.1996,83.3465 93.0434,83.3465 C92.7725,83.3465 92.3298,83.31 91.7152,83.2371 C91.1527,83.1434 90.7152,83.0965 90.4027,83.0965 C90.0798,83.0965 89.6423,83.1434 89.0902,83.2371 C88.5069,83.31 88.0746,83.3465 87.7934,83.3465 C87.6371,83.3465 87.559,83.2684 87.559,83.1121 C87.559,82.9559 87.6371,82.8777 87.7934,82.8777 C88.1892,82.8777 88.5382,82.6954 88.8402,82.3309 C89.1111,81.9663 89.2465,81.5236 89.2465,81.0027 L89.2465,80.8465 L85.9184,80.8465 C85.6892,80.8465 85.5329,80.7944 85.4496,80.6902 C85.335,80.6173 85.2777,80.5131 85.2777,80.3777 C85.2777,80.3361 85.3767,80.2006 85.5746,79.9715 C85.8038,79.7111 86.0382,79.3934 86.2777,79.0184 C86.5694,78.5704 86.8454,78.1121 87.1059,77.6434 C87.3871,77.1121 87.6163,76.4975 87.7934,75.7996 C87.9809,75.1017 88.0746,74.3881 88.0746,73.659 C88.0746,73.4506 88.1684,73.3465 88.3559,73.3465 C88.3975,73.3465 88.4809,73.3673 88.6059,73.409 C88.6475,73.4194 88.7309,73.4376 88.8559,73.4637 C88.9809,73.4897 89.0798,73.5131 89.1527,73.534 C89.3923,73.5756 89.6163,73.5965 89.8246,73.5965"/>
<path class="Rest" d="M515.939,123.972 L508.83,123.972 C508.694,123.972 508.627,123.909 508.627,123.784 L508.627,121.05 C508.627,120.914 508.694,120.847 508.83,120.847 L515.939,120.847 C516.064,120.847 516.127,120.914 516.127,121.05 L516.127,123.784 C516.127,123.909 516.064,123.972 515.939,123.972"/>
<path class="Rest" d="M515.939,71.4715 L508.83,71.4715 C508.694,71.4715 508.627,71.409 508.627,71.284 L508.627,68.5496 C508.627,68.4142 508.694,68.3465 508.83,68.3465 L515.939,68.3465 C516.064,68.3465 516.127,68.4142 516.127,68.5496 L516.127,71.284 C516.127,71.409 516.064,71.4715 515.939,71.4715"/>
<path class="Rest" d="M416.305,123.972 L409.196,123.972 C409.06,123.972 408.993,123.909 408.993,123.784 L408.993,121.05 C408.993,120.914 409.06,120.847 409.196,120.847 L416.305,120.847 C416.43,120.847 416.493,120.914 416.493,121.05 L416.493,123.784 C416.493,123.909 416.43,123.972 416.305,123.972"/>
<path class="Rest" d="M416.305,71.4715 L409.196,71.4715 C409.06,71.4715 408.993,71.409 408.993,71.284 L408.993,68.5496 C408.993,68.4142 409.06,68.3465 409.196,68.3465 L416.305,68.3465 C416.43,68.3465 416.493,68.4142 416.493,68.5496 L416.493,71.284 C416.493,71.409 416.43,71.4715 416.305,71.4715"/>
<path class="Rest" d="M327.373,124.284 C327.373,124.044 327.509,123.784 327.78,123.503 C327.967,123.294 328.254,123.044 328.639,122.753 C328.92,122.565 329.196,122.274 329.467,121.878 C329.728,121.503 329.858,121.091 329.858,120.643 C329.858,120.123 329.691,119.664 329.358,119.268 L328.655,118.425 C328.603,118.373 328.576,118.307 328.576,118.229 C328.576,118.151 328.613,118.081 328.686,118.018 C328.78,117.945 328.858,117.909 328.92,117.909 C329.014,117.909 329.087,117.951 329.139,118.034 L332.17,121.628 C332.295,121.794 332.358,121.961 332.358,122.128 C332.358,122.367 332.228,122.628 331.967,122.909 C331.8,123.097 331.524,123.347 331.139,123.659 C330.837,123.836 330.55,124.128 330.28,124.534 C330.019,124.909 329.889,125.32 329.889,125.768 C329.889,126.32 330.045,126.784 330.358,127.159 L332.03,129.128 C332.071,129.169 332.103,129.237 332.123,129.331 C332.123,129.414 332.092,129.492 332.03,129.565 C331.936,129.628 331.858,129.659 331.795,129.659 C331.774,129.659 331.67,129.586 331.483,129.44 C331.285,129.284 331.024,129.133 330.701,128.987 C330.337,128.852 329.978,128.784 329.623,128.784 C329.3,128.784 329.035,128.873 328.826,129.05 C328.649,129.237 328.561,129.591 328.561,130.112 C328.561,130.904 328.748,131.529 329.123,131.987 C329.165,132.039 329.17,132.102 329.139,132.175 C329.118,132.227 329.071,132.253 328.998,132.253 C328.915,132.253 328.717,132.018 328.405,131.55 C328.071,131.06 327.764,130.492 327.483,129.847 C327.181,129.169 327.03,128.612 327.03,128.175 C327.03,127.612 327.295,127.331 327.826,127.331 C328.441,127.331 329.238,127.539 330.217,127.956 L327.576,124.784 C327.441,124.617 327.373,124.451 327.373,124.284"/>
<path class="Rest" d="M327.373,71.784 C327.373,71.5444 327.509,71.284 327.78,71.0027 C327.967,70.7944 328.254,70.5444 328.639,70.2527 C328.92,70.0652 329.196,69.7736 329.467,69.3777 C329.728,69.0027 329.858,68.5913 329.858,68.1434 C329.858,67.6225 329.691,67.1642 329.358,66.7684 L328.655,65.9246 C328.603,65.8725 328.576,65.8074 328.576,65.7293 C328.576,65.6512 328.613,65.5809 328.686,65.5184 C328.78,65.4454 328.858,65.409 328.92,65.409 C329.014,65.409 329.087,65.4506 329.139,65.534 L332.17,69.1277 C332.295,69.2944 332.358,69.4611 332.358,69.6277 C332.358,69.8673 332.228,70.1277 331.967,70.409 C331.8,70.5965 331.524,70.8465 331.139,71.159 C330.837,71.3361 330.55,71.6277 330.28,72.034 C330.019,72.409 329.889,72.8204 329.889,73.2684 C329.889,73.8204 330.045,74.284 330.358,74.659 L332.03,76.6277 C332.071,76.6694 332.103,76.7371 332.123,76.8309 C332.123,76.9142 332.092,76.9923 332.03,77.0652 C331.936,77.1277 331.858,77.159 331.795,77.159 C331.774,77.159 331.67,77.0861 331.483,76.9402 C331.285,76.784 331.024,76.6329 330.701,76.4871 C330.337,76.3517 329.978,76.284 329.623,76.284 C329.3,76.284 329.035,76.3725 328.826,76.5496 C328.649,76.7371 328.561,77.0913 328.561,77.6121 C328.561,78.4038 328.748,79.0288 329.123,79.4871 C329.165,79.5392 329.17,79.6017 329.139,79.6746 C329.118,79.7267 329.071,79.7527 328.998,79.7527 C328.915,79.7527 328.717,79.5184 328.405,79.0496 C328.071,78.56 327.764,77.9923 327.483,77.3465 C327.181,76.6694 327.03,76.1121 327.03,75.6746 C327.03,75.1121 327.295,74.8309 327.826,74.8309 C328.441,74.8309 329.238,75.0392 330.217,75.4559 L327.576,72.284 C327.441,72.1173 327.373,71.9506 327.373,71.784"/>
<path class="Rest" d="M292.346,124.284 C292.346,124.044 292.481,123.784 292.752,123.503 C292.94,123.294 293.226,123.044 293.612,122.753 C293.893,122.565 294.169,122.274 294.44,121.878 C294.7,121.503 294.83,121.091 294.83,120.643 C294.83,120.123 294.664,119.664 294.33,119.268 L293.627,118.425 C293.575,118.373 293.549,118.307 293.549,118.229 C293.549,118.151 293.586,118.081 293.658,118.018 C293.752,117.945 293.83,117.909 293.893,117.909 C293.987,117.909 294.059,117.951 294.112,118.034 L297.143,121.628 C297.268,121.794 297.33,121.961 297.33,122.128 C297.33,122.367 297.2,122.628 296.94,122.909 C296.773,123.097 296.497,123.347 296.112,123.659 C295.809,123.836 295.523,124.128 295.252,124.534 C294.992,124.909 294.862,125.32 294.862,125.768 C294.862,126.32 295.018,126.784 295.33,127.159 L297.002,129.128 C297.044,129.169 297.075,129.237 297.096,129.331 C297.096,129.414 297.065,129.492 297.002,129.565 C296.908,129.628 296.83,129.659 296.768,129.659 C296.747,129.659 296.643,129.586 296.455,129.44 C296.257,129.284 295.997,129.133 295.674,128.987 C295.309,128.852 294.95,128.784 294.596,128.784 C294.273,128.784 294.007,128.873 293.799,129.05 C293.622,129.237 293.533,129.591 293.533,130.112 C293.533,130.904 293.721,131.529 294.096,131.987 C294.138,132.039 294.143,132.102 294.112,132.175 C294.091,132.227 294.044,132.253 293.971,132.253 C293.888,132.253 293.69,132.018 293.377,131.55 C293.044,131.06 292.737,130.492 292.455,129.847 C292.153,129.169 292.002,128.612 292.002,128.175 C292.002,127.612 292.268,127.331 292.799,127.331 C293.414,127.331 294.211,127.539 295.19,127.956 L292.549,124.784 C292.414,124.617 292.346,124.451 292.346,124.284"/>
<path class="Rest" d="M292.346,71.784 C292.346,71.5444 292.481,71.284 292.752,71.0027 C292.94,70.7944 293.226,70.5444 293.612,70.2527 C293.893,70.0652 294.169,69.7736 294.44,69.3777 C294.7,69.0027 294.83,68.5913 294.83,68.1434 C294.83,67.6225 294.664,67.1642 294.33,66.7684 L293.627,65.9246 C293.575,65.8725 293.549,65.8074 293.549,65.7293 C293.549,65.6512 293.586,65.5809 293.658,65.5184 C293.752,65.4454 293.83,65.409 293.893,65.409 C293.987,65.409 294.059,65.4506 294.112,65.534 L297.143,69.1277 C297.268,69.2944 297.33,69.4611 297.33,69.6277 C297.33,69.8673 297.2,70.1277 296.94,70.409 C296.773,70.5965 296.497,70.8465 296.112,71.159 C295.809,71.3361 295.523,71.6277 295.252,72.034 C294.992,72.409 294.862,72.8204 294.862,73.2684 C294.862,73.8204 295.018,74.284 295.33,74.659 L297.002,76.6277 C297.044,76.6694 297.075,76.7371 297.096,76.8309 C297.096,76.9142 297.065,76.9923 297.002,77.0652 C296.908,77.1277 296.83,77.159 296.768,77.159 C296.747,77.159 296.643,77.0861 296.455,76.9402 C296.257,76.784 295.997,76.6329 295.674,76.4871 C295.309,76.3517 294.95,76.284 294.596,76.284 C294.273,76.284 294.007,76.3725 293.799,76.5496 C293.622,76.7371 293.533,77.0913 293.533,77.6121 C293.533,78.4038 293.721,79.0288 294.096,79.4871 C294.138,79.5392 294.143,79.6017 294.112,79.6746 C294.091,79.7267 294.044,79.7527 293.971,79.7527 C293.888,79.7527 293.69,79.5184 293.377,79.0496 C293.044,78.56 292.737,77.9923 292.455,77.3465 C292.153,76.6694 292.002,76.1121 292.002,75.6746 C292.002,75.1121 292.268,74.8309 292.799,74.8309 C293.414,74.8309 294.211,75.0392 295.19,75.4559 L292.549,72.284 C292.414,72.1173 292.346,71.9506 292.346,71.784"/>
<path class="Dynamic" d="M92.4541,90.4969 C92.0999,90.4969 91.7822,90.6844 91.501,91.0594 C91.1989,91.4552 90.9697,91.8927 90.8135,92.3719 C90.6572,92.8302 90.5843,93.2313 90.5947,93.575 C90.5947,94.0646 90.777,94.3094 91.1416,94.3094 C91.4645,94.3094 91.7406,94.1844 91.9697,93.9344 C92.2302,93.6636 92.4489,93.1948 92.626,92.5281 C92.8135,91.8406 92.9072,91.3615 92.9072,91.0906 C92.8968,90.6948 92.7458,90.4969 92.4541,90.4969 M89.5322,89.575 C89.8552,89.575 90.139,89.661 90.3838,89.8328 C90.6286,90.0047 90.7822,90.2365 90.8447,90.5281 C91.1052,90.2469 91.4124,90.0177 91.7666,89.8406 C92.1208,89.6636 92.4489,89.575 92.751,89.575 C93.376,89.575 93.8604,89.7677 94.2041,90.1531 C94.5374,90.5594 94.7041,91.0698 94.7041,91.6844 C94.7041,92.7052 94.3447,93.5386 93.626,94.1844 C92.9697,94.7365 92.376,95.0125 91.8447,95.0125 C91.5218,95.0125 91.2614,94.9813 91.0635,94.9188 C90.8135,94.8563 90.6468,94.799 90.5635,94.7469 C90.4489,94.674 90.3552,94.6375 90.2822,94.6375 C90.1156,94.6375 90.0062,94.7052 89.9541,94.8406 L89.251,96.9656 L89.251,97.0594 C89.251,97.1844 89.3447,97.2573 89.5322,97.2781 C89.5947,97.2886 89.6911,97.299 89.8213,97.3094 C89.9515,97.3198 90.0531,97.325 90.126,97.325 C90.3135,97.3563 90.4072,97.4084 90.4072,97.4813 C90.4072,97.5854 90.3604,97.6375 90.2666,97.6375 C89.1312,97.5646 88.3968,97.5281 88.0635,97.5281 C87.6989,97.5281 86.9489,97.5646 85.8135,97.6375 C85.7093,97.6375 85.6677,97.5854 85.6885,97.4813 C85.6885,97.4084 85.7718,97.3563 85.9385,97.325 C86.0114,97.3042 86.3447,97.2938 86.9385,97.2938 C87.2093,97.2938 87.3708,97.2104 87.4229,97.0438 L89.4697,91.1219 C89.501,91.0073 89.5218,90.9084 89.5322,90.825 C89.5322,90.5959 89.4281,90.4865 89.2197,90.4969 C88.9281,90.4969 88.6208,90.6844 88.2979,91.0594 C87.9854,91.4136 87.7354,91.8146 87.5479,92.2625 C87.4958,92.3667 87.4124,92.424 87.2979,92.4344 C87.2041,92.4344 87.1572,92.3979 87.1572,92.325 C87.1572,92.2209 87.1885,92.1219 87.251,92.0281 C87.5114,91.4761 87.7822,90.9761 88.0635,90.5281 C88.2302,90.2781 88.4489,90.0594 88.7197,89.8719 C88.9697,89.674 89.2406,89.575 89.5322,89.575"/>
<path class="Bracket" fill-rule="evenodd" d="M36.755,89.1402 C36.755,83.2993 32.7322,77.6218 32.7322,72.0261 C32.7322,69.2077 33.8293,66.4711 37.2122,64.0204 C37.2579,63.9898 37.2807,63.9387 37.2807,63.9081 C37.2807,63.8162 37.0293,63.7345 36.8465,63.7345 C36.755,63.7345 36.595,63.7447 36.4807,63.8162 C32.0922,66.9613 30.6293,70.5965 30.6293,74.2725 C30.6293,80.1951 34.9265,85.9134 34.9265,91.5909 C34.9265,94.4092 33.8293,97.0641 30.4465,99.5148 L30.4465,99.5965 L30.4465,99.6782 C33.8293,102.129 34.9265,104.784 34.9265,107.602 C34.9265,113.28 30.6293,118.998 30.6293,124.92 C30.6293,128.597 32.0922,132.232 36.4807,135.377 C36.595,135.448 36.755,135.458 36.8465,135.458 C37.0293,135.458 37.2807,135.377 37.2807,135.285 C37.2807,135.254 37.2579,135.203 37.2122,135.173 C33.8293,132.722 32.7322,129.985 32.7322,127.167 C32.7322,121.571 36.755,115.894 36.755,110.053 C36.755,106.336 35.2922,102.782 30.995,99.5965 C35.2922,96.4106 36.755,92.8571 36.755,89.1402"/>
</svg>
