<?xml version="1.0" encoding="UTF-8" standalone="no"?>
<svg width="595.44px" height="841.68px" viewBox="0 0 595.44 841.68"
 xmlns="http://www.w3.org/2000/svg" xmlns:xlink="http://www.w3.org/1999/xlink" version="1.2" baseProfile="tiny">
<title>Motiv_05</title>
<desc>Generated by MuseScore 2.3.2</desc>
<polyline class="StaffLines" fill="none" stroke="#000000" stroke-width="0.40" stroke-linejoin="bevel" points="38.8465,63.3465 567.094,63.3465"/>
<polyline class="StaffLines" fill="none" stroke="#000000" stroke-width="0.40" stroke-linejoin="bevel" points="38.8465,68.3465 567.094,68.3465"/>
<polyline class="StaffLines" fill="none" stroke="#000000" stroke-width="0.40" stroke-linejoin="bevel" points="38.8465,73.3465 567.094,73.3465"/>
<polyline class="StaffLines" fill="none" stroke="#000000" stroke-width="0.40" stroke-linejoin="bevel" points="38.8465,78.3465 567.094,78.3465"/>
<polyline class="StaffLines" fill="none" stroke="#000000" stroke-width="0.40" stroke-linejoin="bevel" points="38.8465,83.3465 567.094,83.3465"/>
<polyline class="StaffLines" fill="none" stroke="#000000" stroke-width="0.40" stroke-linejoin="bevel" points="38.8465,115.846 567.094,115.846"/>
<polyline class="StaffLines" fill="none" stroke="#000000" stroke-width="0.40" stroke-linejoin="bevel" points="38.8465,120.846 567.094,120.846"/>
<polyline class="StaffLines" fill="none" stroke="#000000" stroke-width="0.40" stroke-linejoin="bevel" points="38.8465,125.846 567.094,125.846"/>
<polyline class="StaffLines" fill="none" stroke="#000000" stroke-width="0.40" stroke-linejoin="bevel" points="38.8465,130.846 567.094,130.846"/>
<polyline class="StaffLines" fill="none" stroke="#000000" stroke-width="0.40" stroke-linejoin="bevel" points="38.8465,135.846 567.094,135.846"/>
<polyline class="BarLine" fill="none" stroke="#000000" stroke-width="0.80" stroke-linejoin="bevel" points="39.2465,63.3465 39.2465,135.846"/>
<polyline class="BarLine" fill="none" stroke="#000000" stroke-width="0.80" stroke-linejoin="bevel" points="562.194,63.3465 562.194,135.846"/>
<polyline class="BarLine" fill="none" stroke="#000000" stroke-width="2.50" stroke-linejoin="bevel" points="565.844,63.3465 565.844,135.846"/>
<polyline class="BarLine" fill="none" stroke="#000000" stroke-width="0.80" stroke-linejoin="bevel" points="464.037,63.3465 464.037,135.846"/>
<polyline class="BarLine" fill="none" stroke="#000000" stroke-width="0.80" stroke-linejoin="bevel" points="365.881,63.3465 365.881,135.846"/>
<polyline class="BarLine" fill="none" stroke="#000000" stroke-width="0.80" stroke-linejoin="bevel" points="255.476,63.3465 255.476,135.846"/>
<polyline class="BarLine" fill="none" stroke="#000000" stroke-width="0.80" stroke-linejoin="bevel" points="138.143,63.3465 138.143,135.846"/>
<path class="Accidental" d="M213.497,70.8465 C213.664,70.7527 213.833,70.7058 214.005,70.7058 C214.177,70.7058 214.346,70.7527 214.513,70.8465 L214.45,74.5027 L216.591,74.1121 L216.669,74.1121 C216.898,74.1121 217.013,74.2215 217.013,74.4402 L217.153,85.8465 C216.987,85.9402 216.817,85.9871 216.646,85.9871 C216.474,85.9871 216.304,85.9402 216.138,85.8465 L216.2,82.1902 L214.091,82.5808 L214.013,82.5808 C213.773,82.5808 213.653,82.4715 213.653,82.2527 L213.497,70.8465 M216.216,80.2371 L216.278,76.0965 L214.435,76.4558 L214.372,80.5965 L216.216,80.2371 "/>
<polyline class="LedgerLine" fill="none" stroke="#000000" stroke-width="0.80" stroke-linecap="square" stroke-linejoin="bevel" points="260.376,110.846 269.959,110.846"/>
<polyline class="LedgerLine" fill="none" stroke="#000000" stroke-width="0.80" stroke-linecap="square" stroke-linejoin="bevel" points="216.732,110.846 226.314,110.846"/>
<polyline class="LedgerLine" fill="none" stroke="#000000" stroke-width="0.80" stroke-linecap="square" stroke-linejoin="bevel" points="143.043,105.846 152.626,105.846"/>
<polyline class="LedgerLine" fill="none" stroke="#000000" stroke-width="0.80" stroke-linecap="square" stroke-linejoin="bevel" points="143.043,110.846 152.626,110.846"/>
<polyline class="Stem" fill="none" stroke="#000000" stroke-width="0.65" stroke-linecap="round" stroke-linejoin="bevel" points="262.201,111.786 262.201,133.346"/>
<polyline class="Stem" fill="none" stroke="#000000" stroke-width="0.65" stroke-linecap="round" stroke-linejoin="bevel" points="268.134,74.9074 268.134,59.5965"/>
<polyline class="Stem" fill="none" stroke="#000000" stroke-width="0.65" stroke-linecap="round" stroke-linejoin="bevel" points="218.557,109.286 218.557,139.596"/>
<polyline class="Stem" fill="none" stroke="#000000" stroke-width="0.65" stroke-linecap="round" stroke-linejoin="bevel" points="224.489,77.4074 224.489,57.7215"/>
<polyline class="Stem" fill="none" stroke="#000000" stroke-width="0.65" stroke-linecap="round" stroke-linejoin="bevel" points="144.868,106.786 144.868,139.596"/>
<polyline class="Stem" fill="none" stroke="#000000" stroke-width="0.65" stroke-linecap="round" stroke-linejoin="bevel" points="144.868,71.7855 144.868,90.8465"/>
<polyline class="Stem" fill="none" stroke="#000000" stroke-width="0.65" stroke-linecap="round" stroke-linejoin="bevel" points="102.4,114.286 102.4,141.471"/>
<polyline class="Stem" fill="none" stroke="#000000" stroke-width="0.65" stroke-linecap="round" stroke-linejoin="bevel" points="108.332,79.9074 108.332,53.9715"/>
<path class="Note" d="M266.266,108.096 C266.891,108.096 267.423,108.258 267.86,108.581 C268.256,108.935 268.454,109.378 268.454,109.909 C268.454,110.805 267.996,111.643 267.079,112.425 C266.141,113.206 265.136,113.596 264.063,113.596 C263.438,113.596 262.912,113.435 262.485,113.112 C262.079,112.758 261.876,112.315 261.876,111.784 C261.876,110.888 262.345,110.05 263.282,109.268 C264.199,108.487 265.194,108.096 266.266,108.096"/>
<path class="Note" d="M266.266,113.096 C266.891,113.096 267.423,113.258 267.86,113.581 C268.256,113.935 268.454,114.378 268.454,114.909 C268.454,115.805 267.996,116.643 267.079,117.425 C266.141,118.206 265.136,118.596 264.063,118.596 C263.438,118.596 262.912,118.435 262.485,118.112 C262.079,117.758 261.876,117.315 261.876,116.784 C261.876,115.888 262.345,115.05 263.282,114.268 C264.199,113.487 265.194,113.096 266.266,113.096"/>
<path class="Note" d="M266.266,73.0965 C266.891,73.0965 267.423,73.2579 267.86,73.5808 C268.256,73.935 268.454,74.3777 268.454,74.909 C268.454,75.8048 267.996,76.6433 267.079,77.4246 C266.141,78.2058 265.136,78.5965 264.063,78.5965 C263.438,78.5965 262.912,78.435 262.485,78.1121 C262.079,77.7579 261.876,77.3152 261.876,76.784 C261.876,75.8881 262.345,75.0496 263.282,74.2683 C264.199,73.4871 265.194,73.0965 266.266,73.0965"/>
<path class="Note" d="M222.622,105.596 C223.247,105.596 223.778,105.758 224.216,106.081 C224.612,106.435 224.81,106.878 224.81,107.409 C224.81,108.305 224.351,109.143 223.435,109.925 C222.497,110.706 221.492,111.096 220.419,111.096 C219.794,111.096 219.268,110.935 218.841,110.612 C218.435,110.258 218.232,109.815 218.232,109.284 C218.232,108.388 218.7,107.55 219.638,106.768 C220.554,105.987 221.549,105.596 222.622,105.596"/>
<path class="Note" d="M222.622,120.596 C223.247,120.596 223.778,120.758 224.216,121.081 C224.612,121.435 224.81,121.878 224.81,122.409 C224.81,123.305 224.351,124.143 223.435,124.925 C222.497,125.706 221.492,126.096 220.419,126.096 C219.794,126.096 219.268,125.935 218.841,125.612 C218.435,125.258 218.232,124.815 218.232,124.284 C218.232,123.388 218.7,122.55 219.638,121.768 C220.554,120.987 221.549,120.596 222.622,120.596"/>
<path class="Note" d="M222.622,70.5965 C223.247,70.5965 223.778,70.7579 224.216,71.0808 C224.612,71.435 224.81,71.8777 224.81,72.409 C224.81,73.3048 224.351,74.1433 223.435,74.9246 C222.497,75.7058 221.492,76.0965 220.419,76.0965 C219.794,76.0965 219.268,75.935 218.841,75.6121 C218.435,75.2579 218.232,74.8152 218.232,74.284 C218.232,73.3881 218.7,72.5496 219.638,71.7683 C220.554,70.9871 221.549,70.5965 222.622,70.5965"/>
<path class="Note" d="M222.622,75.5965 C223.247,75.5965 223.778,75.7579 224.216,76.0808 C224.612,76.435 224.81,76.8777 224.81,77.409 C224.81,78.3048 224.351,79.1433 223.435,79.9246 C222.497,80.7058 221.492,81.0965 220.419,81.0965 C219.794,81.0965 219.268,80.935 218.841,80.6121 C218.435,80.2579 218.232,79.8152 218.232,79.284 C218.232,78.3881 218.7,77.5496 219.638,76.7683 C220.554,75.9871 221.549,75.5965 222.622,75.5965"/>
<path class="Note" d="M148.933,103.096 C149.558,103.096 150.09,103.258 150.527,103.581 C150.923,103.935 151.121,104.378 151.121,104.909 C151.121,105.805 150.663,106.643 149.746,107.425 C148.808,108.206 147.803,108.596 146.73,108.596 C146.105,108.596 145.579,108.435 145.152,108.112 C144.746,107.758 144.543,107.315 144.543,106.784 C144.543,105.888 145.012,105.05 145.949,104.268 C146.866,103.487 147.861,103.096 148.933,103.096"/>
<path class="Note" d="M148.933,120.596 C149.558,120.596 150.09,120.758 150.527,121.081 C150.923,121.435 151.121,121.878 151.121,122.409 C151.121,123.305 150.663,124.143 149.746,124.925 C148.808,125.706 147.803,126.096 146.73,126.096 C146.105,126.096 145.579,125.935 145.152,125.612 C144.746,125.258 144.543,124.815 144.543,124.284 C144.543,123.388 145.012,122.55 145.949,121.768 C146.866,120.987 147.861,120.596 148.933,120.596"/>
<path class="Note" d="M148.933,68.0965 C149.558,68.0965 150.09,68.2579 150.527,68.5808 C150.923,68.935 151.121,69.3777 151.121,69.909 C151.121,70.8048 150.663,71.6433 149.746,72.4246 C148.808,73.2058 147.803,73.5965 146.73,73.5965 C146.105,73.5965 145.579,73.435 145.152,73.1121 C144.746,72.7579 144.543,72.3152 144.543,71.784 C144.543,70.8881 145.012,70.0496 145.949,69.2683 C146.866,68.4871 147.861,68.0965 148.933,68.0965"/>
<path class="Note" d="M148.933,73.0965 C149.558,73.0965 150.09,73.2579 150.527,73.5808 C150.923,73.935 151.121,74.3777 151.121,74.909 C151.121,75.8048 150.663,76.6433 149.746,77.4246 C148.808,78.2058 147.803,78.5965 146.73,78.5965 C146.105,78.5965 145.579,78.435 145.152,78.1121 C144.746,77.7579 144.543,77.3152 144.543,76.784 C144.543,75.8881 145.012,75.0496 145.949,74.2683 C146.866,73.4871 147.861,73.0965 148.933,73.0965"/>
<path class="Note" d="M106.465,110.596 C107.09,110.596 107.621,110.758 108.059,111.081 C108.455,111.435 108.653,111.878 108.653,112.409 C108.653,113.305 108.194,114.143 107.278,114.925 C106.34,115.706 105.335,116.096 104.262,116.096 C103.637,116.096 103.111,115.935 102.684,115.612 C102.278,115.258 102.075,114.815 102.075,114.284 C102.075,113.388 102.543,112.55 103.481,111.768 C104.397,110.987 105.392,110.596 106.465,110.596"/>
<path class="Note" d="M106.465,123.096 C107.09,123.096 107.621,123.258 108.059,123.581 C108.455,123.935 108.653,124.378 108.653,124.909 C108.653,125.805 108.194,126.643 107.278,127.425 C106.34,128.206 105.335,128.596 104.262,128.596 C103.637,128.596 103.111,128.435 102.684,128.112 C102.278,127.758 102.075,127.315 102.075,126.784 C102.075,125.888 102.543,125.05 103.481,124.268 C104.397,123.487 105.392,123.096 106.465,123.096"/>
<path class="Note" d="M106.465,65.5965 C107.09,65.5965 107.621,65.7579 108.059,66.0808 C108.455,66.435 108.653,66.8777 108.653,67.409 C108.653,68.3048 108.194,69.1433 107.278,69.9246 C106.34,70.7058 105.335,71.0965 104.262,71.0965 C103.637,71.0965 103.111,70.935 102.684,70.6121 C102.278,70.2579 102.075,69.8152 102.075,69.284 C102.075,68.3881 102.543,67.5496 103.481,66.7683 C104.397,65.9871 105.392,65.5965 106.465,65.5965"/>
<path class="Note" d="M106.465,78.0965 C107.09,78.0965 107.621,78.2579 108.059,78.5808 C108.455,78.935 108.653,79.3777 108.653,79.909 C108.653,80.8048 108.194,81.6433 107.278,82.4246 C106.34,83.2058 105.335,83.5965 104.262,83.5965 C103.637,83.5965 103.111,83.435 102.684,83.1121 C102.278,82.7579 102.075,82.3152 102.075,81.784 C102.075,80.8881 102.543,80.0496 103.481,79.2683 C104.397,78.4871 105.392,78.0965 106.465,78.0965"/>
<path class="Clef" d="M54.2761,119.065 C54.0834,118.867 53.9871,118.625 53.9871,118.339 C53.9871,118.052 54.0834,117.813 54.2761,117.62 C54.4689,117.427 54.7084,117.331 54.9949,117.331 C55.2814,117.331 55.5235,117.427 55.7215,117.62 C55.9194,117.813 56.0183,118.052 56.0183,118.339 C56.0183,118.625 55.9194,118.867 55.7215,119.065 C55.5235,119.263 55.2814,119.362 54.9949,119.362 C54.7084,119.362 54.4689,119.263 54.2761,119.065 M54.2761,124.073 C54.0834,123.88 53.9871,123.641 53.9871,123.354 C53.9871,123.068 54.0834,122.826 54.2761,122.628 C54.4689,122.43 54.7084,122.331 54.9949,122.331 C55.2814,122.331 55.5235,122.43 55.7215,122.628 C55.9194,122.826 56.0183,123.068 56.0183,123.354 C56.0183,123.641 55.9194,123.88 55.7215,124.073 C55.5235,124.266 55.2814,124.362 54.9949,124.362 C54.7084,124.362 54.4689,124.266 54.2761,124.073 M47.5027,115.596 C49.2319,115.596 50.6485,116.029 51.7527,116.893 C52.8256,117.81 53.3621,119.05 53.3621,120.612 C53.3621,121.664 53.1537,122.628 52.7371,123.503 C52.3412,124.419 51.8256,125.227 51.1902,125.925 C50.534,126.643 49.7475,127.32 48.8308,127.956 C47.9246,128.581 46.9975,129.143 46.0496,129.643 C44.1225,130.612 43.0548,131.096 42.8465,131.096 C42.6798,131.096 42.5965,131.013 42.5965,130.846 C42.5965,130.784 42.6225,130.727 42.6746,130.675 C43.3412,130.279 44.1537,129.779 45.1121,129.175 C45.7371,128.768 46.4662,128.206 47.2996,127.487 C48.1121,126.81 48.7371,126.175 49.1746,125.581 C49.6329,124.987 50.0496,124.258 50.4246,123.393 C50.7475,122.518 50.909,121.654 50.909,120.8 C50.909,119.539 50.5965,118.44 49.9715,117.503 C49.3465,116.565 48.5235,116.096 47.5027,116.096 C46.7735,116.096 46.1485,116.331 45.6277,116.8 C45.0652,117.279 44.659,117.883 44.409,118.612 C44.659,118.508 44.8881,118.456 45.0965,118.456 C45.6381,118.456 46.1069,118.654 46.5027,119.05 C46.8881,119.466 47.0808,119.94 47.0808,120.471 C47.0808,121.034 46.8933,121.539 46.5183,121.987 C46.1121,122.383 45.6381,122.581 45.0965,122.581 C44.5131,122.581 43.9871,122.383 43.5183,121.987 C43.0704,121.539 42.8465,121.034 42.8465,120.471 C42.8465,119.128 43.3048,117.982 44.2215,117.034 C45.1173,116.076 46.211,115.596 47.5027,115.596"/>
<path class="Clef" d="M50.1902,73.2215 C50.1902,73.2215 50.2319,73.2215 50.3152,73.2215 C50.3673,73.211 50.409,73.2058 50.4402,73.2058 C51.8985,73.2058 53.0965,73.7215 54.034,74.7527 C54.9715,75.7631 55.4402,76.9454 55.4402,78.2996 C55.4402,79.9871 54.7475,81.3569 53.3621,82.409 C52.9975,82.7006 52.5183,82.935 51.9246,83.1121 C51.9975,83.9558 52.034,84.6381 52.034,85.159 C52.034,85.2631 52.0183,85.6433 51.9871,86.2996 C51.935,87.5079 51.5183,88.5548 50.7371,89.4402 C49.9871,90.3152 49.0496,90.7527 47.9246,90.7527 C46.8725,90.7527 45.9767,90.3829 45.2371,89.6433 C44.4871,88.8829 44.1121,87.9715 44.1121,86.909 C44.1121,86.3465 44.3308,85.8673 44.7683,85.4715 C45.2058,85.086 45.7162,84.8933 46.2996,84.8933 C46.8204,84.8933 47.2579,85.0965 47.6121,85.5027 C47.9767,85.8777 48.159,86.3465 48.159,86.909 C48.159,87.409 47.9767,87.8412 47.6121,88.2058 C47.2475,88.5704 46.81,88.7527 46.2996,88.7527 C46.0912,88.7527 45.8933,88.7162 45.7058,88.6433 C46.2787,89.4871 47.0392,89.909 47.9871,89.909 C48.8829,89.909 49.6173,89.5444 50.1902,88.8152 C50.7944,88.0652 51.1225,87.185 51.1746,86.1746 C51.1954,85.5496 51.2058,85.1954 51.2058,85.1121 C51.2058,84.3829 51.1798,83.784 51.1277,83.3152 C50.4819,83.4194 49.9037,83.4715 49.3933,83.4715 C47.5808,83.4715 46.0392,82.7527 44.7683,81.3152 C43.5183,79.8673 42.8933,78.1485 42.8933,76.159 C42.8933,75.7423 42.9298,75.3204 43.0027,74.8933 C43.086,74.5392 43.185,74.1537 43.2996,73.7371 C43.3621,73.4975 43.5392,73.1173 43.8308,72.5965 C43.935,72.4402 44.0522,72.2449 44.1824,72.0105 C44.3126,71.7761 44.4037,71.6225 44.4558,71.5496 C44.5808,71.2892 44.8308,70.935 45.2058,70.4871 C45.31,70.3725 45.4194,70.2449 45.534,70.1043 C45.6485,69.9636 45.7449,69.8465 45.823,69.7527 C45.9011,69.659 45.9584,69.586 45.9949,69.534 C46.0314,69.4819 46.3256,69.1381 46.8777,68.5027 C47.0027,68.3673 47.1277,68.2267 47.2527,68.0808 C47.3777,67.935 47.4793,67.8178 47.5574,67.7293 C47.6355,67.6407 47.6954,67.5808 47.7371,67.5496 C47.2683,65.9975 46.9715,64.7579 46.8465,63.8308 C46.7631,63.0912 46.7215,62.0756 46.7215,60.784 C46.7215,59.6485 46.9819,58.586 47.5027,57.5965 C48.0027,56.5756 48.711,55.7371 49.6277,55.0808 C49.6902,55.0392 49.7527,55.0183 49.8152,55.0183 C49.909,55.0183 49.9767,55.0392 50.0183,55.0808 C50.7162,55.9246 51.3204,57.0235 51.8308,58.3777 C52.3517,59.7319 52.6121,60.9662 52.6121,62.0808 C52.6121,63.3308 52.3152,64.5027 51.7215,65.5965 C51.0444,66.7527 50.1694,67.9506 49.0965,69.1902 C49.3673,70.0444 49.7319,71.3881 50.1902,73.2215 M51.8465,82.3152 C52.5235,82.0652 53.0548,81.6433 53.4402,81.0496 C53.8569,80.4767 54.0652,79.8308 54.0652,79.1121 C54.0652,78.185 53.7527,77.3621 53.1277,76.6433 C52.4819,75.9037 51.6642,75.4871 50.6746,75.3933 C51.2371,78.1433 51.6277,80.4506 51.8465,82.3152 M44.2996,77.7996 C44.2996,79.0912 44.8204,80.2267 45.8621,81.2058 C46.9246,82.1537 48.1225,82.6277 49.4558,82.6277 C49.9975,82.6277 50.5287,82.586 51.0496,82.5027 C50.8412,80.5235 50.4298,78.1537 49.8152,75.3933 C49.0756,75.4767 48.4871,75.7371 48.0496,76.1746 C47.6121,76.6329 47.3933,77.1485 47.3933,77.7215 C47.3933,78.711 47.9246,79.5131 48.9871,80.1277 C49.0704,80.2215 49.1121,80.3204 49.1121,80.4246 C49.1121,80.5287 49.0704,80.6225 48.9871,80.7058 C48.9037,80.7996 48.8048,80.8465 48.6902,80.8465 C48.6798,80.8465 48.6225,80.836 48.5183,80.8152 C47.7683,80.409 47.1954,79.8881 46.7996,79.2527 C46.4142,78.5652 46.2215,77.8777 46.2215,77.1902 C46.2215,76.2944 46.5027,75.4819 47.0652,74.7527 C47.6485,74.0235 48.409,73.5548 49.3465,73.3465 C48.9819,71.8881 48.685,70.7475 48.4558,69.9246 C48.2475,70.1642 47.9975,70.448 47.7058,70.7761 C47.4142,71.1043 47.2423,71.3048 47.1902,71.3777 C46.7215,71.9819 46.3621,72.4558 46.1121,72.7996 C45.6642,73.4142 45.336,73.9402 45.1277,74.3777 C44.909,74.8777 44.7162,75.4194 44.5496,76.0027 C44.3829,76.5652 44.2996,77.1642 44.2996,77.7996 M50.8152,57.9402 C49.836,58.4194 49.0704,59.1069 48.5183,60.0027 C47.9454,60.9298 47.659,61.9246 47.659,62.9871 C47.659,63.9246 47.8933,65.1902 48.3621,66.784 C49.2996,65.6485 50.0027,64.6017 50.4715,63.6433 C50.961,62.6225 51.2058,61.56 51.2058,60.4558 C51.2058,59.6225 51.0756,58.784 50.8152,57.9402"/>
<path class="KeySig" d="M79.2621,135.018 L79.2621,136.565 C79.2621,137.117 79.2881,137.555 79.3402,137.878 C79.7673,137.513 80.0746,137.242 80.2621,137.065 C80.4704,136.857 80.6787,136.568 80.8871,136.198 C81.0954,135.828 81.1996,135.461 81.1996,135.096 C81.1996,134.732 81.1215,134.419 80.9652,134.159 C80.809,133.899 80.6006,133.768 80.3402,133.768 C80.0277,133.768 79.7673,133.888 79.559,134.128 C79.361,134.388 79.2621,134.685 79.2621,135.018 M78.434,138.596 L78.184,126.706 C78.3715,126.602 78.5564,126.55 78.7386,126.55 C78.9209,126.55 79.1006,126.602 79.2777,126.706 L79.1215,133.596 C79.6527,133.138 80.2673,132.909 80.9652,132.909 C81.4652,132.909 81.8845,133.117 82.223,133.534 C82.5616,133.951 82.7308,134.43 82.7308,134.971 C82.7308,135.305 82.6215,135.664 82.4027,136.05 C82.1944,136.393 81.9756,136.664 81.7465,136.862 C81.611,136.966 81.2777,137.227 80.7465,137.643 C80.5902,137.758 80.4053,137.893 80.1918,138.05 C79.9782,138.206 79.8454,138.305 79.7933,138.346 C79.6996,138.399 79.611,138.503 79.5277,138.659 C79.4444,138.794 79.3402,138.904 79.2152,138.987 C79.1319,139.07 79.0251,139.112 78.8949,139.112 C78.7647,139.112 78.6579,139.065 78.5746,138.971 C78.4808,138.878 78.434,138.753 78.434,138.596"/>
<path class="KeySig" d="M74.2621,125.018 L74.2621,126.565 C74.2621,127.117 74.2881,127.555 74.3402,127.878 C74.7673,127.513 75.0746,127.242 75.2621,127.065 C75.4704,126.857 75.6787,126.568 75.8871,126.198 C76.0954,125.828 76.1996,125.461 76.1996,125.096 C76.1996,124.732 76.1215,124.419 75.9652,124.159 C75.809,123.899 75.6006,123.768 75.3402,123.768 C75.0277,123.768 74.7673,123.888 74.559,124.128 C74.361,124.388 74.2621,124.685 74.2621,125.018 M73.434,128.596 L73.184,116.706 C73.3715,116.602 73.5564,116.55 73.7386,116.55 C73.9209,116.55 74.1006,116.602 74.2777,116.706 L74.1215,123.596 C74.6527,123.138 75.2673,122.909 75.9652,122.909 C76.4652,122.909 76.8845,123.117 77.223,123.534 C77.5616,123.951 77.7308,124.43 77.7308,124.971 C77.7308,125.305 77.6215,125.664 77.4027,126.05 C77.1944,126.393 76.9756,126.664 76.7465,126.862 C76.611,126.966 76.2777,127.227 75.7465,127.643 C75.5902,127.758 75.4053,127.893 75.1918,128.05 C74.9782,128.206 74.8454,128.305 74.7933,128.346 C74.6996,128.399 74.611,128.503 74.5277,128.659 C74.4444,128.794 74.3402,128.904 74.2152,128.987 C74.1319,129.07 74.0251,129.112 73.8949,129.112 C73.7647,129.112 73.6579,129.065 73.5746,128.971 C73.4808,128.878 73.434,128.753 73.434,128.596"/>
<path class="KeySig" d="M69.2621,132.518 L69.2621,134.065 C69.2621,134.617 69.2881,135.055 69.3402,135.378 C69.7673,135.013 70.0746,134.742 70.2621,134.565 C70.4704,134.357 70.6787,134.068 70.8871,133.698 C71.0954,133.328 71.1996,132.961 71.1996,132.596 C71.1996,132.232 71.1215,131.919 70.9652,131.659 C70.809,131.399 70.6006,131.268 70.3402,131.268 C70.0277,131.268 69.7673,131.388 69.559,131.628 C69.361,131.888 69.2621,132.185 69.2621,132.518 M68.434,136.096 L68.184,124.206 C68.3715,124.102 68.5564,124.05 68.7386,124.05 C68.9209,124.05 69.1006,124.102 69.2777,124.206 L69.1215,131.096 C69.6527,130.638 70.2673,130.409 70.9652,130.409 C71.4652,130.409 71.8845,130.617 72.223,131.034 C72.5616,131.451 72.7308,131.93 72.7308,132.471 C72.7308,132.805 72.6215,133.164 72.4027,133.55 C72.1944,133.893 71.9756,134.164 71.7465,134.362 C71.611,134.466 71.2777,134.727 70.7465,135.143 C70.5902,135.258 70.4053,135.393 70.1918,135.55 C69.9782,135.706 69.8454,135.805 69.7933,135.846 C69.6996,135.899 69.611,136.003 69.5277,136.159 C69.4444,136.294 69.3402,136.404 69.2152,136.487 C69.1319,136.57 69.0251,136.612 68.8949,136.612 C68.7647,136.612 68.6579,136.565 68.5746,136.471 C68.4808,136.378 68.434,136.253 68.434,136.096"/>
<path class="KeySig" d="M64.2621,122.518 L64.2621,124.065 C64.2621,124.617 64.2881,125.055 64.3402,125.378 C64.7673,125.013 65.0746,124.742 65.2621,124.565 C65.4704,124.357 65.6787,124.068 65.8871,123.698 C66.0954,123.328 66.1996,122.961 66.1996,122.596 C66.1996,122.232 66.1215,121.919 65.9652,121.659 C65.809,121.399 65.6006,121.268 65.3402,121.268 C65.0277,121.268 64.7673,121.388 64.559,121.628 C64.361,121.888 64.2621,122.185 64.2621,122.518 M63.434,126.096 L63.184,114.206 C63.3715,114.102 63.5564,114.05 63.7386,114.05 C63.9209,114.05 64.1006,114.102 64.2777,114.206 L64.1215,121.096 C64.6527,120.638 65.2673,120.409 65.9652,120.409 C66.4652,120.409 66.8845,120.617 67.223,121.034 C67.5616,121.451 67.7308,121.93 67.7308,122.471 C67.7308,122.805 67.6215,123.164 67.4027,123.55 C67.1944,123.893 66.9756,124.164 66.7465,124.362 C66.611,124.466 66.2777,124.727 65.7465,125.143 C65.5902,125.258 65.4053,125.393 65.1918,125.55 C64.9782,125.706 64.8454,125.805 64.7933,125.846 C64.6996,125.899 64.611,126.003 64.5277,126.159 C64.4444,126.294 64.3402,126.404 64.2152,126.487 C64.1319,126.57 64.0251,126.612 63.8949,126.612 C63.7647,126.612 63.6579,126.565 63.5746,126.471 C63.4808,126.378 63.434,126.253 63.434,126.096"/>
<path class="KeySig" d="M59.2621,130.018 L59.2621,131.565 C59.2621,132.117 59.2881,132.555 59.3402,132.878 C59.7673,132.513 60.0746,132.242 60.2621,132.065 C60.4704,131.857 60.6787,131.568 60.8871,131.198 C61.0954,130.828 61.1996,130.461 61.1996,130.096 C61.1996,129.732 61.1215,129.419 60.9652,129.159 C60.809,128.899 60.6006,128.768 60.3402,128.768 C60.0277,128.768 59.7673,128.888 59.559,129.128 C59.361,129.388 59.2621,129.685 59.2621,130.018 M58.434,133.596 L58.184,121.706 C58.3715,121.602 58.5564,121.55 58.7386,121.55 C58.9209,121.55 59.1006,121.602 59.2777,121.706 L59.1215,128.596 C59.6527,128.138 60.2673,127.909 60.9652,127.909 C61.4652,127.909 61.8845,128.117 62.223,128.534 C62.5616,128.951 62.7308,129.43 62.7308,129.971 C62.7308,130.305 62.6215,130.664 62.4027,131.05 C62.1944,131.393 61.9756,131.664 61.7465,131.862 C61.611,131.966 61.2777,132.227 60.7465,132.643 C60.5902,132.758 60.4053,132.893 60.1918,133.05 C59.9782,133.206 59.8454,133.305 59.7933,133.346 C59.6996,133.399 59.611,133.503 59.5277,133.659 C59.4444,133.794 59.3402,133.904 59.2152,133.987 C59.1319,134.07 59.0251,134.112 58.8949,134.112 C58.7647,134.112 58.6579,134.065 58.5746,133.971 C58.4808,133.878 58.434,133.753 58.434,133.596"/>
<path class="KeySig" d="M79.2621,77.5183 L79.2621,79.0652 C79.2621,79.6173 79.2881,80.0548 79.3402,80.3777 C79.7673,80.0131 80.0746,79.7423 80.2621,79.5652 C80.4704,79.3569 80.6787,79.0678 80.8871,78.698 C81.0954,78.3282 81.1996,77.961 81.1996,77.5965 C81.1996,77.2319 81.1215,76.9194 80.9652,76.659 C80.809,76.3985 80.6006,76.2683 80.3402,76.2683 C80.0277,76.2683 79.7673,76.3881 79.559,76.6277 C79.361,76.8881 79.2621,77.185 79.2621,77.5183 M78.434,81.0965 L78.184,69.2058 C78.3715,69.1017 78.5564,69.0496 78.7386,69.0496 C78.9209,69.0496 79.1006,69.1017 79.2777,69.2058 L79.1215,76.0965 C79.6527,75.6381 80.2673,75.409 80.9652,75.409 C81.4652,75.409 81.8845,75.6173 82.223,76.034 C82.5616,76.4506 82.7308,76.9298 82.7308,77.4715 C82.7308,77.8048 82.6215,78.1642 82.4027,78.5496 C82.1944,78.8933 81.9756,79.1642 81.7465,79.3621 C81.611,79.4662 81.2777,79.7267 80.7465,80.1433 C80.5902,80.2579 80.4053,80.3933 80.1918,80.5496 C79.9782,80.7058 79.8454,80.8048 79.7933,80.8465 C79.6996,80.8985 79.611,81.0027 79.5277,81.159 C79.4444,81.2944 79.3402,81.4037 79.2152,81.4871 C79.1319,81.5704 79.0251,81.6121 78.8949,81.6121 C78.7647,81.6121 78.6579,81.5652 78.5746,81.4715 C78.4808,81.3777 78.434,81.2527 78.434,81.0965"/>
<path class="KeySig" d="M74.2621,67.5183 L74.2621,69.0652 C74.2621,69.6173 74.2881,70.0548 74.3402,70.3777 C74.7673,70.0131 75.0746,69.7423 75.2621,69.5652 C75.4704,69.3569 75.6787,69.0678 75.8871,68.698 C76.0954,68.3282 76.1996,67.961 76.1996,67.5965 C76.1996,67.2319 76.1215,66.9194 75.9652,66.659 C75.809,66.3985 75.6006,66.2683 75.3402,66.2683 C75.0277,66.2683 74.7673,66.3881 74.559,66.6277 C74.361,66.8881 74.2621,67.185 74.2621,67.5183 M73.434,71.0965 L73.184,59.2058 C73.3715,59.1017 73.5564,59.0496 73.7386,59.0496 C73.9209,59.0496 74.1006,59.1017 74.2777,59.2058 L74.1215,66.0965 C74.6527,65.6381 75.2673,65.409 75.9652,65.409 C76.4652,65.409 76.8845,65.6173 77.223,66.034 C77.5616,66.4506 77.7308,66.9298 77.7308,67.4715 C77.7308,67.8048 77.6215,68.1642 77.4027,68.5496 C77.1944,68.8933 76.9756,69.1642 76.7465,69.3621 C76.611,69.4662 76.2777,69.7267 75.7465,70.1433 C75.5902,70.2579 75.4053,70.3933 75.1918,70.5496 C74.9782,70.7058 74.8454,70.8048 74.7933,70.8465 C74.6996,70.8985 74.611,71.0027 74.5277,71.159 C74.4444,71.2944 74.3402,71.4037 74.2152,71.4871 C74.1319,71.5704 74.0251,71.6121 73.8949,71.6121 C73.7647,71.6121 73.6579,71.5652 73.5746,71.4715 C73.4808,71.3777 73.434,71.2527 73.434,71.0965"/>
<path class="KeySig" d="M69.2621,75.0183 L69.2621,76.5652 C69.2621,77.1173 69.2881,77.5548 69.3402,77.8777 C69.7673,77.5131 70.0746,77.2423 70.2621,77.0652 C70.4704,76.8569 70.6787,76.5678 70.8871,76.198 C71.0954,75.8282 71.1996,75.461 71.1996,75.0965 C71.1996,74.7319 71.1215,74.4194 70.9652,74.159 C70.809,73.8985 70.6006,73.7683 70.3402,73.7683 C70.0277,73.7683 69.7673,73.8881 69.559,74.1277 C69.361,74.3881 69.2621,74.685 69.2621,75.0183 M68.434,78.5965 L68.184,66.7058 C68.3715,66.6017 68.5564,66.5496 68.7386,66.5496 C68.9209,66.5496 69.1006,66.6017 69.2777,66.7058 L69.1215,73.5965 C69.6527,73.1381 70.2673,72.909 70.9652,72.909 C71.4652,72.909 71.8845,73.1173 72.223,73.534 C72.5616,73.9506 72.7308,74.4298 72.7308,74.9715 C72.7308,75.3048 72.6215,75.6642 72.4027,76.0496 C72.1944,76.3933 71.9756,76.6642 71.7465,76.8621 C71.611,76.9662 71.2777,77.2267 70.7465,77.6433 C70.5902,77.7579 70.4053,77.8933 70.1918,78.0496 C69.9782,78.2058 69.8454,78.3048 69.7933,78.3465 C69.6996,78.3985 69.611,78.5027 69.5277,78.659 C69.4444,78.7944 69.3402,78.9037 69.2152,78.9871 C69.1319,79.0704 69.0251,79.1121 68.8949,79.1121 C68.7647,79.1121 68.6579,79.0652 68.5746,78.9715 C68.4808,78.8777 68.434,78.7527 68.434,78.5965"/>
<path class="KeySig" d="M64.2621,65.0183 L64.2621,66.5652 C64.2621,67.1173 64.2881,67.5548 64.3402,67.8777 C64.7673,67.5131 65.0746,67.2423 65.2621,67.0652 C65.4704,66.8569 65.6787,66.5678 65.8871,66.198 C66.0954,65.8282 66.1996,65.461 66.1996,65.0965 C66.1996,64.7319 66.1215,64.4194 65.9652,64.159 C65.809,63.8985 65.6006,63.7683 65.3402,63.7683 C65.0277,63.7683 64.7673,63.8881 64.559,64.1277 C64.361,64.3881 64.2621,64.685 64.2621,65.0183 M63.434,68.5965 L63.184,56.7058 C63.3715,56.6017 63.5564,56.5496 63.7386,56.5496 C63.9209,56.5496 64.1006,56.6017 64.2777,56.7058 L64.1215,63.5965 C64.6527,63.1381 65.2673,62.909 65.9652,62.909 C66.4652,62.909 66.8845,63.1173 67.223,63.534 C67.5616,63.9506 67.7308,64.4298 67.7308,64.9715 C67.7308,65.3048 67.6215,65.6642 67.4027,66.0496 C67.1944,66.3933 66.9756,66.6642 66.7465,66.8621 C66.611,66.9662 66.2777,67.2267 65.7465,67.6433 C65.5902,67.7579 65.4053,67.8933 65.1918,68.0496 C64.9782,68.2058 64.8454,68.3048 64.7933,68.3465 C64.6996,68.3985 64.611,68.5027 64.5277,68.659 C64.4444,68.7944 64.3402,68.9037 64.2152,68.9871 C64.1319,69.0704 64.0251,69.1121 63.8949,69.1121 C63.7647,69.1121 63.6579,69.0652 63.5746,68.9715 C63.4808,68.8777 63.434,68.7527 63.434,68.5965"/>
<path class="KeySig" d="M59.2621,72.5183 L59.2621,74.0652 C59.2621,74.6173 59.2881,75.0548 59.3402,75.3777 C59.7673,75.0131 60.0746,74.7423 60.2621,74.5652 C60.4704,74.3569 60.6787,74.0678 60.8871,73.698 C61.0954,73.3282 61.1996,72.961 61.1996,72.5965 C61.1996,72.2319 61.1215,71.9194 60.9652,71.659 C60.809,71.3985 60.6006,71.2683 60.3402,71.2683 C60.0277,71.2683 59.7673,71.3881 59.559,71.6277 C59.361,71.8881 59.2621,72.185 59.2621,72.5183 M58.434,76.0965 L58.184,64.2058 C58.3715,64.1017 58.5564,64.0496 58.7386,64.0496 C58.9209,64.0496 59.1006,64.1017 59.2777,64.2058 L59.1215,71.0965 C59.6527,70.6381 60.2673,70.409 60.9652,70.409 C61.4652,70.409 61.8845,70.6173 62.223,71.034 C62.5616,71.4506 62.7308,71.9298 62.7308,72.4715 C62.7308,72.8048 62.6215,73.1642 62.4027,73.5496 C62.1944,73.8933 61.9756,74.1642 61.7465,74.3621 C61.611,74.4662 61.2777,74.7267 60.7465,75.1433 C60.5902,75.2579 60.4053,75.3933 60.1918,75.5496 C59.9782,75.7058 59.8454,75.8048 59.7933,75.8465 C59.6996,75.8985 59.611,76.0027 59.5277,76.159 C59.4444,76.2944 59.3402,76.4037 59.2152,76.4871 C59.1319,76.5704 59.0251,76.6121 58.8949,76.6121 C58.7647,76.6121 58.6579,76.5652 58.5746,76.4715 C58.4808,76.3777 58.434,76.2527 58.434,76.0965"/>
<path class="TimeSig" d="M91.2777,120.55 C91.2777,120.685 91.3506,120.81 91.4965,120.925 C91.7048,121.081 91.8662,121.201 91.9808,121.284 C92.1371,121.367 92.3037,121.576 92.4808,121.909 C92.6162,122.221 92.684,122.602 92.684,123.05 C92.684,123.956 92.3558,124.649 91.6996,125.128 C91.0225,125.607 90.1631,125.846 89.1215,125.846 C88.2673,125.846 87.5485,125.638 86.9652,125.221 C86.3402,124.836 86.0277,124.289 86.0277,123.581 C86.0277,123.247 86.1579,122.935 86.4183,122.643 C86.6892,122.393 87.0017,122.268 87.3558,122.268 C87.7204,122.268 88.0225,122.399 88.2621,122.659 C88.5225,122.909 88.6527,123.216 88.6527,123.581 C88.6527,123.747 88.5225,123.93 88.2621,124.128 C87.9808,124.315 87.8402,124.492 87.8402,124.659 C87.8402,124.909 87.9652,125.091 88.2152,125.206 C88.4756,125.32 88.7777,125.378 89.1215,125.378 C89.5694,125.378 89.8923,125.159 90.0902,124.721 C90.2777,124.232 90.3715,123.675 90.3715,123.05 L90.3715,122.721 C90.3715,122.346 90.3558,122.013 90.3246,121.721 C90.3037,121.503 90.2152,121.305 90.059,121.128 C89.9131,120.94 89.684,120.846 89.3715,120.846 L87.7621,120.846 C87.585,120.846 87.4965,120.747 87.4965,120.55 C87.4965,120.383 87.585,120.284 87.7621,120.253 L89.3715,120.253 C89.736,120.253 89.9965,120.138 90.1527,119.909 C90.2777,119.721 90.3402,119.393 90.3402,118.925 L90.3402,118.284 L90.3402,118.128 C90.3402,116.919 89.8975,116.315 89.0121,116.315 C88.2308,116.315 87.8402,116.529 87.8402,116.956 C87.8402,117.102 87.9652,117.258 88.2152,117.425 C88.4548,117.591 88.5746,117.747 88.5746,117.893 C88.5746,118.216 88.4548,118.497 88.2152,118.737 C87.9965,118.956 87.7256,119.065 87.4027,119.065 C87.0902,119.065 86.8194,118.956 86.5902,118.737 C86.3715,118.487 86.2621,118.206 86.2621,117.893 C86.2621,117.279 86.5381,116.779 87.0902,116.393 C87.6631,116.029 88.3142,115.846 89.0433,115.846 C90.0121,115.846 90.8194,116.034 91.4652,116.409 C92.1006,116.774 92.4183,117.346 92.4183,118.128 C92.4183,118.69 92.361,119.112 92.2465,119.393 C92.1215,119.695 91.9912,119.878 91.8558,119.94 C91.6996,120.013 91.5694,120.091 91.4652,120.175 C91.3402,120.279 91.2777,120.404 91.2777,120.55"/>
<path class="TimeSig" d="M89.8246,126.096 C90.21,126.096 90.5407,126.052 90.8168,125.964 C91.0928,125.875 91.2673,125.831 91.3402,125.831 C91.434,125.831 91.5069,125.857 91.559,125.909 C91.6006,125.94 91.6267,125.982 91.6371,126.034 C91.6371,126.065 91.6215,126.107 91.5902,126.159 L85.9183,132.768 L89.2465,132.768 L89.2465,130.143 C89.2465,129.977 89.2933,129.831 89.3871,129.706 C89.5433,129.581 89.6735,129.503 89.7777,129.471 C89.9444,129.399 90.1527,129.216 90.4027,128.925 C90.611,128.695 90.861,128.289 91.1527,127.706 C91.184,127.622 91.2412,127.581 91.3246,127.581 C91.4808,127.581 91.5694,127.675 91.5902,127.862 L91.5902,132.768 L93.0277,132.768 C93.2048,132.768 93.309,132.862 93.3402,133.05 C93.3402,133.247 93.236,133.346 93.0277,133.346 L91.5902,133.346 L91.5902,133.503 C91.5902,134.024 91.7204,134.466 91.9808,134.831 C92.2829,135.195 92.6371,135.378 93.0433,135.378 C93.1996,135.378 93.2777,135.456 93.2777,135.612 C93.2777,135.768 93.1996,135.846 93.0433,135.846 C92.7725,135.846 92.3298,135.81 91.7152,135.737 C91.1527,135.643 90.7152,135.596 90.4027,135.596 C90.0798,135.596 89.6423,135.643 89.0902,135.737 C88.5069,135.81 88.0746,135.846 87.7933,135.846 C87.6371,135.846 87.559,135.768 87.559,135.612 C87.559,135.456 87.6371,135.378 87.7933,135.378 C88.1892,135.378 88.5381,135.195 88.8402,134.831 C89.111,134.466 89.2465,134.024 89.2465,133.503 L89.2465,133.346 L85.9183,133.346 C85.6892,133.346 85.5329,133.294 85.4496,133.19 C85.335,133.117 85.2777,133.013 85.2777,132.878 C85.2777,132.836 85.3767,132.701 85.5746,132.471 C85.8037,132.211 86.0381,131.893 86.2777,131.518 C86.5694,131.07 86.8454,130.612 87.1058,130.143 C87.3871,129.612 87.6162,128.997 87.7933,128.3 C87.9808,127.602 88.0746,126.888 88.0746,126.159 C88.0746,125.951 88.1683,125.846 88.3558,125.846 C88.3975,125.846 88.4808,125.867 88.6058,125.909 C88.6475,125.919 88.7308,125.938 88.8558,125.964 C88.9808,125.99 89.0798,126.013 89.1527,126.034 C89.3923,126.076 89.6162,126.096 89.8246,126.096"/>
<path class="TimeSig" d="M91.2777,68.0496 C91.2777,68.185 91.3506,68.31 91.4965,68.4246 C91.7048,68.5808 91.8662,68.7006 91.9808,68.784 C92.1371,68.8673 92.3037,69.0756 92.4808,69.409 C92.6162,69.7215 92.684,70.1017 92.684,70.5496 C92.684,71.4558 92.3558,72.1485 91.6996,72.6277 C91.0225,73.1069 90.1631,73.3465 89.1215,73.3465 C88.2673,73.3465 87.5485,73.1381 86.9652,72.7215 C86.3402,72.336 86.0277,71.7892 86.0277,71.0808 C86.0277,70.7475 86.1579,70.435 86.4183,70.1433 C86.6892,69.8933 87.0017,69.7683 87.3558,69.7683 C87.7204,69.7683 88.0225,69.8985 88.2621,70.159 C88.5225,70.409 88.6527,70.7162 88.6527,71.0808 C88.6527,71.2475 88.5225,71.4298 88.2621,71.6277 C87.9808,71.8152 87.8402,71.9923 87.8402,72.159 C87.8402,72.409 87.9652,72.5912 88.2152,72.7058 C88.4756,72.8204 88.7777,72.8777 89.1215,72.8777 C89.5694,72.8777 89.8923,72.659 90.0902,72.2215 C90.2777,71.7319 90.3715,71.1746 90.3715,70.5496 L90.3715,70.2215 C90.3715,69.8465 90.3558,69.5131 90.3246,69.2215 C90.3037,69.0027 90.2152,68.8048 90.059,68.6277 C89.9131,68.4402 89.684,68.3465 89.3715,68.3465 L87.7621,68.3465 C87.585,68.3465 87.4965,68.2475 87.4965,68.0496 C87.4965,67.8829 87.585,67.784 87.7621,67.7527 L89.3715,67.7527 C89.736,67.7527 89.9965,67.6381 90.1527,67.409 C90.2777,67.2215 90.3402,66.8933 90.3402,66.4246 L90.3402,65.784 L90.3402,65.6277 C90.3402,64.4194 89.8975,63.8152 89.0121,63.8152 C88.2308,63.8152 87.8402,64.0287 87.8402,64.4558 C87.8402,64.6017 87.9652,64.7579 88.2152,64.9246 C88.4548,65.0912 88.5746,65.2475 88.5746,65.3933 C88.5746,65.7162 88.4548,65.9975 88.2152,66.2371 C87.9965,66.4558 87.7256,66.5652 87.4027,66.5652 C87.0902,66.5652 86.8194,66.4558 86.5902,66.2371 C86.3715,65.9871 86.2621,65.7058 86.2621,65.3933 C86.2621,64.7787 86.5381,64.2787 87.0902,63.8933 C87.6631,63.5287 88.3142,63.3465 89.0433,63.3465 C90.0121,63.3465 90.8194,63.534 91.4652,63.909 C92.1006,64.2735 92.4183,64.8465 92.4183,65.6277 C92.4183,66.1902 92.361,66.6121 92.2465,66.8933 C92.1215,67.1954 91.9912,67.3777 91.8558,67.4402 C91.6996,67.5131 91.5694,67.5912 91.4652,67.6746 C91.3402,67.7787 91.2777,67.9037 91.2777,68.0496"/>
<path class="TimeSig" d="M89.8246,73.5965 C90.21,73.5965 90.5407,73.5522 90.8168,73.4636 C91.0928,73.3751 91.2673,73.3308 91.3402,73.3308 C91.434,73.3308 91.5069,73.3569 91.559,73.409 C91.6006,73.4402 91.6267,73.4819 91.6371,73.534 C91.6371,73.5652 91.6215,73.6069 91.5902,73.659 L85.9183,80.2683 L89.2465,80.2683 L89.2465,77.6433 C89.2465,77.4767 89.2933,77.3308 89.3871,77.2058 C89.5433,77.0808 89.6735,77.0027 89.7777,76.9715 C89.9444,76.8985 90.1527,76.7162 90.4027,76.4246 C90.611,76.1954 90.861,75.7892 91.1527,75.2058 C91.184,75.1225 91.2412,75.0808 91.3246,75.0808 C91.4808,75.0808 91.5694,75.1746 91.5902,75.3621 L91.5902,80.2683 L93.0277,80.2683 C93.2048,80.2683 93.309,80.3621 93.3402,80.5496 C93.3402,80.7475 93.236,80.8465 93.0277,80.8465 L91.5902,80.8465 L91.5902,81.0027 C91.5902,81.5235 91.7204,81.9662 91.9808,82.3308 C92.2829,82.6954 92.6371,82.8777 93.0433,82.8777 C93.1996,82.8777 93.2777,82.9558 93.2777,83.1121 C93.2777,83.2683 93.1996,83.3465 93.0433,83.3465 C92.7725,83.3465 92.3298,83.31 91.7152,83.2371 C91.1527,83.1433 90.7152,83.0965 90.4027,83.0965 C90.0798,83.0965 89.6423,83.1433 89.0902,83.2371 C88.5069,83.31 88.0746,83.3465 87.7933,83.3465 C87.6371,83.3465 87.559,83.2683 87.559,83.1121 C87.559,82.9558 87.6371,82.8777 87.7933,82.8777 C88.1892,82.8777 88.5381,82.6954 88.8402,82.3308 C89.111,81.9662 89.2465,81.5235 89.2465,81.0027 L89.2465,80.8465 L85.9183,80.8465 C85.6892,80.8465 85.5329,80.7944 85.4496,80.6902 C85.335,80.6173 85.2777,80.5131 85.2777,80.3777 C85.2777,80.336 85.3767,80.2006 85.5746,79.9715 C85.8037,79.711 86.0381,79.3933 86.2777,79.0183 C86.5694,78.5704 86.8454,78.1121 87.1058,77.6433 C87.3871,77.1121 87.6162,76.4975 87.7933,75.7996 C87.9808,75.1017 88.0746,74.3881 88.0746,73.659 C88.0746,73.4506 88.1683,73.3465 88.3558,73.3465 C88.3975,73.3465 88.4808,73.3673 88.6058,73.409 C88.6475,73.4194 88.7308,73.4376 88.8558,73.4636 C88.9808,73.4897 89.0798,73.5131 89.1527,73.534 C89.3923,73.5756 89.6162,73.5965 89.8246,73.5965"/>
<path class="Rest" d="M516.678,123.971 L509.568,123.971 C509.433,123.971 509.365,123.909 509.365,123.784 L509.365,121.05 C509.365,120.914 509.433,120.846 509.568,120.846 L516.678,120.846 C516.803,120.846 516.865,120.914 516.865,121.05 L516.865,123.784 C516.865,123.909 516.803,123.971 516.678,123.971"/>
<path class="Rest" d="M516.678,71.4715 L509.568,71.4715 C509.433,71.4715 509.365,71.409 509.365,71.284 L509.365,68.5496 C509.365,68.4142 509.433,68.3465 509.568,68.3465 L516.678,68.3465 C516.803,68.3465 516.865,68.4142 516.865,68.5496 L516.865,71.284 C516.865,71.409 516.803,71.4715 516.678,71.4715"/>
<path class="Rest" d="M418.521,123.971 L411.412,123.971 C411.277,123.971 411.209,123.909 411.209,123.784 L411.209,121.05 C411.209,120.914 411.277,120.846 411.412,120.846 L418.521,120.846 C418.646,120.846 418.709,120.914 418.709,121.05 L418.709,123.784 C418.709,123.909 418.646,123.971 418.521,123.971"/>
<path class="Rest" d="M418.521,71.4715 L411.412,71.4715 C411.277,71.4715 411.209,71.409 411.209,71.284 L411.209,68.5496 C411.209,68.4142 411.277,68.3465 411.412,68.3465 L418.521,68.3465 C418.646,68.3465 418.709,68.4142 418.709,68.5496 L418.709,71.284 C418.709,71.409 418.646,71.4715 418.521,71.4715"/>
<path class="Rest" d="M330.821,124.284 C330.821,124.044 330.956,123.784 331.227,123.503 C331.415,123.294 331.701,123.044 332.086,122.753 C332.368,122.565 332.644,122.274 332.915,121.878 C333.175,121.503 333.305,121.091 333.305,120.643 C333.305,120.122 333.138,119.664 332.805,119.268 L332.102,118.425 C332.05,118.372 332.024,118.307 332.024,118.229 C332.024,118.151 332.06,118.081 332.133,118.018 C332.227,117.945 332.305,117.909 332.368,117.909 C332.461,117.909 332.534,117.951 332.586,118.034 L335.618,121.628 C335.743,121.794 335.805,121.961 335.805,122.128 C335.805,122.367 335.675,122.628 335.415,122.909 C335.248,123.096 334.972,123.346 334.586,123.659 C334.284,123.836 333.998,124.128 333.727,124.534 C333.467,124.909 333.336,125.32 333.336,125.768 C333.336,126.32 333.493,126.784 333.805,127.159 L335.477,129.128 C335.519,129.169 335.55,129.237 335.571,129.331 C335.571,129.414 335.54,129.492 335.477,129.565 C335.383,129.628 335.305,129.659 335.243,129.659 C335.222,129.659 335.118,129.586 334.93,129.44 C334.732,129.284 334.472,129.133 334.149,128.987 C333.784,128.852 333.425,128.784 333.071,128.784 C332.748,128.784 332.482,128.872 332.274,129.05 C332.097,129.237 332.008,129.591 332.008,130.112 C332.008,130.904 332.196,131.529 332.571,131.987 C332.612,132.039 332.618,132.102 332.586,132.175 C332.566,132.227 332.519,132.253 332.446,132.253 C332.362,132.253 332.165,132.018 331.852,131.55 C331.519,131.06 331.211,130.492 330.93,129.846 C330.628,129.169 330.477,128.612 330.477,128.175 C330.477,127.612 330.743,127.331 331.274,127.331 C331.888,127.331 332.685,127.539 333.665,127.956 L331.024,124.784 C330.888,124.617 330.821,124.451 330.821,124.284"/>
<path class="Rest" d="M330.821,71.784 C330.821,71.5444 330.956,71.284 331.227,71.0027 C331.415,70.7944 331.701,70.5444 332.086,70.2527 C332.368,70.0652 332.644,69.7735 332.915,69.3777 C333.175,69.0027 333.305,68.5912 333.305,68.1433 C333.305,67.6225 333.138,67.1642 332.805,66.7683 L332.102,65.9246 C332.05,65.8725 332.024,65.8074 332.024,65.7293 C332.024,65.6511 332.06,65.5808 332.133,65.5183 C332.227,65.4454 332.305,65.409 332.368,65.409 C332.461,65.409 332.534,65.4506 332.586,65.534 L335.618,69.1277 C335.743,69.2944 335.805,69.461 335.805,69.6277 C335.805,69.8673 335.675,70.1277 335.415,70.409 C335.248,70.5965 334.972,70.8465 334.586,71.159 C334.284,71.336 333.998,71.6277 333.727,72.034 C333.467,72.409 333.336,72.8204 333.336,73.2683 C333.336,73.8204 333.493,74.284 333.805,74.659 L335.477,76.6277 C335.519,76.6694 335.55,76.7371 335.571,76.8308 C335.571,76.9142 335.54,76.9923 335.477,77.0652 C335.383,77.1277 335.305,77.159 335.243,77.159 C335.222,77.159 335.118,77.086 334.93,76.9402 C334.732,76.784 334.472,76.6329 334.149,76.4871 C333.784,76.3517 333.425,76.284 333.071,76.284 C332.748,76.284 332.482,76.3725 332.274,76.5496 C332.097,76.7371 332.008,77.0912 332.008,77.6121 C332.008,78.4037 332.196,79.0287 332.571,79.4871 C332.612,79.5392 332.618,79.6017 332.586,79.6746 C332.566,79.7267 332.519,79.7527 332.446,79.7527 C332.362,79.7527 332.165,79.5183 331.852,79.0496 C331.519,78.56 331.211,77.9923 330.93,77.3465 C330.628,76.6694 330.477,76.1121 330.477,75.6746 C330.477,75.1121 330.743,74.8308 331.274,74.8308 C331.888,74.8308 332.685,75.0392 333.665,75.4558 L331.024,72.284 C330.888,72.1173 330.821,71.9506 330.821,71.784"/>
<path class="Rest" d="M296.286,124.284 C296.286,124.044 296.421,123.784 296.692,123.503 C296.88,123.294 297.166,123.044 297.551,122.753 C297.833,122.565 298.109,122.274 298.38,121.878 C298.64,121.503 298.77,121.091 298.77,120.643 C298.77,120.122 298.604,119.664 298.27,119.268 L297.567,118.425 C297.515,118.372 297.489,118.307 297.489,118.229 C297.489,118.151 297.525,118.081 297.598,118.018 C297.692,117.945 297.77,117.909 297.833,117.909 C297.926,117.909 297.999,117.951 298.051,118.034 L301.083,121.628 C301.208,121.794 301.27,121.961 301.27,122.128 C301.27,122.367 301.14,122.628 300.88,122.909 C300.713,123.096 300.437,123.346 300.051,123.659 C299.749,123.836 299.463,124.128 299.192,124.534 C298.932,124.909 298.801,125.32 298.801,125.768 C298.801,126.32 298.958,126.784 299.27,127.159 L300.942,129.128 C300.984,129.169 301.015,129.237 301.036,129.331 C301.036,129.414 301.005,129.492 300.942,129.565 C300.848,129.628 300.77,129.659 300.708,129.659 C300.687,129.659 300.583,129.586 300.395,129.44 C300.197,129.284 299.937,129.133 299.614,128.987 C299.249,128.852 298.89,128.784 298.536,128.784 C298.213,128.784 297.947,128.872 297.739,129.05 C297.562,129.237 297.473,129.591 297.473,130.112 C297.473,130.904 297.661,131.529 298.036,131.987 C298.077,132.039 298.083,132.102 298.051,132.175 C298.031,132.227 297.984,132.253 297.911,132.253 C297.827,132.253 297.63,132.018 297.317,131.55 C296.984,131.06 296.676,130.492 296.395,129.846 C296.093,129.169 295.942,128.612 295.942,128.175 C295.942,127.612 296.208,127.331 296.739,127.331 C297.354,127.331 298.15,127.539 299.13,127.956 L296.489,124.784 C296.354,124.617 296.286,124.451 296.286,124.284"/>
<path class="Rest" d="M296.286,71.784 C296.286,71.5444 296.421,71.284 296.692,71.0027 C296.88,70.7944 297.166,70.5444 297.551,70.2527 C297.833,70.0652 298.109,69.7735 298.38,69.3777 C298.64,69.0027 298.77,68.5912 298.77,68.1433 C298.77,67.6225 298.604,67.1642 298.27,66.7683 L297.567,65.9246 C297.515,65.8725 297.489,65.8074 297.489,65.7293 C297.489,65.6511 297.525,65.5808 297.598,65.5183 C297.692,65.4454 297.77,65.409 297.833,65.409 C297.926,65.409 297.999,65.4506 298.051,65.534 L301.083,69.1277 C301.208,69.2944 301.27,69.461 301.27,69.6277 C301.27,69.8673 301.14,70.1277 300.88,70.409 C300.713,70.5965 300.437,70.8465 300.051,71.159 C299.749,71.336 299.463,71.6277 299.192,72.034 C298.932,72.409 298.801,72.8204 298.801,73.2683 C298.801,73.8204 298.958,74.284 299.27,74.659 L300.942,76.6277 C300.984,76.6694 301.015,76.7371 301.036,76.8308 C301.036,76.9142 301.005,76.9923 300.942,77.0652 C300.848,77.1277 300.77,77.159 300.708,77.159 C300.687,77.159 300.583,77.086 300.395,76.9402 C300.197,76.784 299.937,76.6329 299.614,76.4871 C299.249,76.3517 298.89,76.284 298.536,76.284 C298.213,76.284 297.947,76.3725 297.739,76.5496 C297.562,76.7371 297.473,77.0912 297.473,77.6121 C297.473,78.4037 297.661,79.0287 298.036,79.4871 C298.077,79.5392 298.083,79.6017 298.051,79.6746 C298.031,79.7267 297.984,79.7527 297.911,79.7527 C297.827,79.7527 297.63,79.5183 297.317,79.0496 C296.984,78.56 296.676,77.9923 296.395,77.3465 C296.093,76.6694 295.942,76.1121 295.942,75.6746 C295.942,75.1121 296.208,74.8308 296.739,74.8308 C297.354,74.8308 298.15,75.0392 299.13,75.4558 L296.489,72.284 C296.354,72.1173 296.286,71.9506 296.286,71.784"/>
<path class="Rest" d="M181.262,124.284 C181.262,124.044 181.398,123.784 181.668,123.503 C181.856,123.294 182.142,123.044 182.528,122.753 C182.809,122.565 183.085,122.274 183.356,121.878 C183.616,121.503 183.747,121.091 183.747,120.643 C183.747,120.122 183.58,119.664 183.247,119.268 L182.543,118.425 C182.491,118.372 182.465,118.307 182.465,118.229 C182.465,118.151 182.502,118.081 182.575,118.018 C182.668,117.945 182.747,117.909 182.809,117.909 C182.903,117.909 182.976,117.951 183.028,118.034 L186.059,121.628 C186.184,121.794 186.247,121.961 186.247,122.128 C186.247,122.367 186.116,122.628 185.856,122.909 C185.689,123.096 185.413,123.346 185.028,123.659 C184.726,123.836 184.439,124.128 184.168,124.534 C183.908,124.909 183.778,125.32 183.778,125.768 C183.778,126.32 183.934,126.784 184.247,127.159 L185.918,129.128 C185.96,129.169 185.991,129.237 186.012,129.331 C186.012,129.414 185.981,129.492 185.918,129.565 C185.825,129.628 185.747,129.659 185.684,129.659 C185.663,129.659 185.559,129.586 185.372,129.44 C185.174,129.284 184.913,129.133 184.59,128.987 C184.226,128.852 183.866,128.784 183.512,128.784 C183.189,128.784 182.924,128.872 182.715,129.05 C182.538,129.237 182.45,129.591 182.45,130.112 C182.45,130.904 182.637,131.529 183.012,131.987 C183.054,132.039 183.059,132.102 183.028,132.175 C183.007,132.227 182.96,132.253 182.887,132.253 C182.804,132.253 182.606,132.018 182.293,131.55 C181.96,131.06 181.653,130.492 181.372,129.846 C181.069,129.169 180.918,128.612 180.918,128.175 C180.918,127.612 181.184,127.331 181.715,127.331 C182.33,127.331 183.127,127.539 184.106,127.956 L181.465,124.784 C181.33,124.617 181.262,124.451 181.262,124.284"/>
<path class="Rest" d="M181.262,71.784 C181.262,71.5444 181.398,71.284 181.668,71.0027 C181.856,70.7944 182.142,70.5444 182.528,70.2527 C182.809,70.0652 183.085,69.7735 183.356,69.3777 C183.616,69.0027 183.747,68.5912 183.747,68.1433 C183.747,67.6225 183.58,67.1642 183.247,66.7683 L182.543,65.9246 C182.491,65.8725 182.465,65.8074 182.465,65.7293 C182.465,65.6511 182.502,65.5808 182.575,65.5183 C182.668,65.4454 182.747,65.409 182.809,65.409 C182.903,65.409 182.976,65.4506 183.028,65.534 L186.059,69.1277 C186.184,69.2944 186.247,69.461 186.247,69.6277 C186.247,69.8673 186.116,70.1277 185.856,70.409 C185.689,70.5965 185.413,70.8465 185.028,71.159 C184.726,71.336 184.439,71.6277 184.168,72.034 C183.908,72.409 183.778,72.8204 183.778,73.2683 C183.778,73.8204 183.934,74.284 184.247,74.659 L185.918,76.6277 C185.96,76.6694 185.991,76.7371 186.012,76.8308 C186.012,76.9142 185.981,76.9923 185.918,77.0652 C185.825,77.1277 185.747,77.159 185.684,77.159 C185.663,77.159 185.559,77.086 185.372,76.9402 C185.174,76.784 184.913,76.6329 184.59,76.4871 C184.226,76.3517 183.866,76.284 183.512,76.284 C183.189,76.284 182.924,76.3725 182.715,76.5496 C182.538,76.7371 182.45,77.0912 182.45,77.6121 C182.45,78.4037 182.637,79.0287 183.012,79.4871 C183.054,79.5392 183.059,79.6017 183.028,79.6746 C183.007,79.7267 182.96,79.7527 182.887,79.7527 C182.804,79.7527 182.606,79.5183 182.293,79.0496 C181.96,78.56 181.653,77.9923 181.372,77.3465 C181.069,76.6694 180.918,76.1121 180.918,75.6746 C180.918,75.1121 181.184,74.8308 181.715,74.8308 C182.33,74.8308 183.127,75.0392 184.106,75.4558 L181.465,72.284 C181.33,72.1173 181.262,71.9506 181.262,71.784"/>
<path class="Bracket" fill-rule="evenodd" d="M36.755,89.1401 C36.755,83.2993 32.7322,77.6218 32.7322,72.026 C32.7322,69.2077 33.8293,66.4711 37.2122,64.0204 C37.2579,63.9898 37.2807,63.9387 37.2807,63.9081 C37.2807,63.8162 37.0293,63.7345 36.8465,63.7345 C36.755,63.7345 36.595,63.7447 36.4807,63.8162 C32.0922,66.9612 30.6293,70.5965 30.6293,74.2725 C30.6293,80.195 34.9265,85.9134 34.9265,91.5908 C34.9265,94.4091 33.8293,97.0641 30.4465,99.5148 L30.4465,99.5965 L30.4465,99.6781 C33.8293,102.129 34.9265,104.784 34.9265,107.602 C34.9265,113.28 30.6293,118.998 30.6293,124.92 C30.6293,128.596 32.0922,132.232 36.4807,135.377 C36.595,135.448 36.755,135.458 36.8465,135.458 C37.0293,135.458 37.2807,135.377 37.2807,135.285 C37.2807,135.254 37.2579,135.203 37.2122,135.173 C33.8293,132.722 32.7322,129.985 32.7322,127.167 C32.7322,121.571 36.755,115.894 36.755,110.053 C36.755,106.336 35.2922,102.782 30.995,99.5965 C35.2922,96.4105 36.755,92.857 36.755,89.1401"/>
</svg>
