<?xml version="1.0" encoding="UTF-8" standalone="no"?>
<svg width="595.44px" height="841.68px" viewBox="0 0 595.44 841.68"
 xmlns="http://www.w3.org/2000/svg" xmlns:xlink="http://www.w3.org/1999/xlink" version="1.2" baseProfile="tiny">
<title>Title</title>
<desc>Generated by MuseScore 2.3.2</desc>
<polyline class="StaffLines" fill="none" stroke="#000000" stroke-width="0.40" stroke-linejoin="bevel" points="28.3465,113.347 567.094,113.347"/>
<polyline class="StaffLines" fill="none" stroke="#000000" stroke-width="0.40" stroke-linejoin="bevel" points="28.3465,118.347 567.094,118.347"/>
<polyline class="StaffLines" fill="none" stroke="#000000" stroke-width="0.40" stroke-linejoin="bevel" points="28.3465,123.347 567.094,123.347"/>
<polyline class="StaffLines" fill="none" stroke="#000000" stroke-width="0.40" stroke-linejoin="bevel" points="28.3465,128.347 567.094,128.347"/>
<polyline class="StaffLines" fill="none" stroke="#000000" stroke-width="0.40" stroke-linejoin="bevel" points="28.3465,133.347 567.094,133.347"/>
<polyline class="StaffLines" fill="none" stroke="#000000" stroke-width="0.40" stroke-linejoin="bevel" points="28.3465,165.847 567.094,165.847"/>
<polyline class="StaffLines" fill="none" stroke="#000000" stroke-width="0.40" stroke-linejoin="bevel" points="28.3465,170.847 567.094,170.847"/>
<polyline class="StaffLines" fill="none" stroke="#000000" stroke-width="0.40" stroke-linejoin="bevel" points="28.3465,175.847 567.094,175.847"/>
<polyline class="StaffLines" fill="none" stroke="#000000" stroke-width="0.40" stroke-linejoin="bevel" points="28.3465,180.847 567.094,180.847"/>
<polyline class="StaffLines" fill="none" stroke="#000000" stroke-width="0.40" stroke-linejoin="bevel" points="28.3465,185.847 567.094,185.847"/>
<polyline class="BarLine" fill="none" stroke="#000000" stroke-width="0.80" stroke-linejoin="bevel" points="28.7465,113.347 28.7465,185.847"/>
<polyline class="BarLine" fill="none" stroke="#000000" stroke-width="0.80" stroke-linejoin="bevel" points="562.194,165.847 562.194,185.847"/>
<polyline class="BarLine" fill="none" stroke="#000000" stroke-width="2.50" stroke-linejoin="bevel" points="565.844,165.847 565.844,185.847"/>
<polyline class="BarLine" fill="none" stroke="#000000" stroke-width="0.80" stroke-linejoin="bevel" points="562.194,113.347 562.194,133.347"/>
<polyline class="BarLine" fill="none" stroke="#000000" stroke-width="2.50" stroke-linejoin="bevel" points="565.844,113.347 565.844,133.347"/>
<polyline class="BarLine" fill="none" stroke="#000000" stroke-width="0.80" stroke-linejoin="bevel" points="474.097,165.847 474.097,185.847"/>
<polyline class="BarLine" fill="none" stroke="#000000" stroke-width="0.80" stroke-linejoin="bevel" points="474.097,113.347 474.097,133.347"/>
<polyline class="BarLine" fill="none" stroke="#000000" stroke-width="0.80" stroke-linejoin="bevel" points="386.001,165.847 386.001,185.847"/>
<polyline class="BarLine" fill="none" stroke="#000000" stroke-width="0.80" stroke-linejoin="bevel" points="386.001,113.347 386.001,133.347"/>
<polyline class="BarLine" fill="none" stroke="#000000" stroke-width="0.80" stroke-linejoin="bevel" points="297.905,165.847 297.905,185.847"/>
<polyline class="BarLine" fill="none" stroke="#000000" stroke-width="0.80" stroke-linejoin="bevel" points="297.905,113.347 297.905,133.347"/>
<polyline class="LedgerLine" fill="none" stroke="#000000" stroke-width="0.80" stroke-linecap="square" stroke-linejoin="bevel" points="269.896,138.347 279.479,138.347"/>
<polyline class="LedgerLine" fill="none" stroke="#000000" stroke-width="0.80" stroke-linecap="square" stroke-linejoin="bevel" points="256.842,138.347 266.425,138.347"/>
<polyline class="LedgerLine" fill="none" stroke="#000000" stroke-width="0.80" stroke-linecap="square" stroke-linejoin="bevel" points="256.842,143.347 266.425,143.347"/>
<polyline class="LedgerLine" fill="none" stroke="#000000" stroke-width="0.80" stroke-linecap="square" stroke-linejoin="bevel" points="243.787,190.847 253.37,190.847"/>
<polyline class="LedgerLine" fill="none" stroke="#000000" stroke-width="0.80" stroke-linecap="square" stroke-linejoin="bevel" points="243.787,195.847 253.37,195.847"/>
<polyline class="LedgerLine" fill="none" stroke="#000000" stroke-width="0.80" stroke-linecap="square" stroke-linejoin="bevel" points="230.733,138.347 240.316,138.347"/>
<polyline class="LedgerLine" fill="none" stroke="#000000" stroke-width="0.80" stroke-linecap="square" stroke-linejoin="bevel" points="217.678,138.347 227.261,138.347"/>
<polyline class="LedgerLine" fill="none" stroke="#000000" stroke-width="0.80" stroke-linecap="square" stroke-linejoin="bevel" points="217.678,143.347 227.261,143.347"/>
<polyline class="LedgerLine" fill="none" stroke="#000000" stroke-width="0.80" stroke-linecap="square" stroke-linejoin="bevel" points="204.624,138.347 214.207,138.347"/>
<polyline class="LedgerLine" fill="none" stroke="#000000" stroke-width="0.80" stroke-linecap="square" stroke-linejoin="bevel" points="204.624,143.347 214.207,143.347"/>
<polyline class="LedgerLine" fill="none" stroke="#000000" stroke-width="0.80" stroke-linecap="square" stroke-linejoin="bevel" points="204.624,148.347 214.207,148.347"/>
<polyline class="LedgerLine" fill="none" stroke="#000000" stroke-width="0.80" stroke-linecap="square" stroke-linejoin="bevel" points="191.57,190.847 201.152,190.847"/>
<polyline class="LedgerLine" fill="none" stroke="#000000" stroke-width="0.80" stroke-linecap="square" stroke-linejoin="bevel" points="191.57,195.847 201.152,195.847"/>
<polyline class="LedgerLine" fill="none" stroke="#000000" stroke-width="0.80" stroke-linecap="square" stroke-linejoin="bevel" points="191.57,138.347 201.152,138.347"/>
<polyline class="LedgerLine" fill="none" stroke="#000000" stroke-width="0.80" stroke-linecap="square" stroke-linejoin="bevel" points="139.352,190.847 148.935,190.847"/>
<polyline class="LedgerLine" fill="none" stroke="#000000" stroke-width="0.80" stroke-linecap="square" stroke-linejoin="bevel" points="139.352,195.847 148.935,195.847"/>
<polyline class="LedgerLine" fill="none" stroke="#000000" stroke-width="0.80" stroke-linecap="square" stroke-linejoin="bevel" points="87.134,190.847 96.7168,190.847"/>
<polyline class="LedgerLine" fill="none" stroke="#000000" stroke-width="0.80" stroke-linecap="square" stroke-linejoin="bevel" points="87.134,195.847 96.7168,195.847"/>
<polyline class="Stem" fill="none" stroke="#000000" stroke-width="0.65" stroke-linecap="round" stroke-linejoin="bevel" points="290.709,132.407 290.709,118.347"/>
<polyline class="Stem" fill="none" stroke="#000000" stroke-width="0.65" stroke-linecap="round" stroke-linejoin="bevel" points="271.721,186.786 271.721,210.847"/>
<polyline class="Stem" fill="none" stroke="#000000" stroke-width="0.65" stroke-linecap="round" stroke-linejoin="bevel" points="277.654,137.407 277.654,118.347"/>
<polyline class="Stem" fill="none" stroke="#000000" stroke-width="0.65" stroke-linecap="round" stroke-linejoin="bevel" points="264.6,144.907 264.6,118.347"/>
<polyline class="Stem" fill="none" stroke="#000000" stroke-width="0.65" stroke-linecap="round" stroke-linejoin="bevel" points="245.612,196.786 245.612,210.847"/>
<polyline class="Stem" fill="none" stroke="#000000" stroke-width="0.65" stroke-linecap="round" stroke-linejoin="bevel" points="251.545,132.407 251.545,118.347"/>
<polyline class="Stem" fill="none" stroke="#000000" stroke-width="0.65" stroke-linecap="round" stroke-linejoin="bevel" points="238.491,137.407 238.491,123.347"/>
<polyline class="Stem" fill="none" stroke="#000000" stroke-width="0.65" stroke-linecap="round" stroke-linejoin="bevel" points="219.503,186.786 219.503,210.847"/>
<polyline class="Stem" fill="none" stroke="#000000" stroke-width="0.65" stroke-linecap="round" stroke-linejoin="bevel" points="225.436,144.907 225.436,123.347"/>
<polyline class="Stem" fill="none" stroke="#000000" stroke-width="0.65" stroke-linecap="round" stroke-linejoin="bevel" points="212.382,149.907 212.382,123.347"/>
<polyline class="Stem" fill="none" stroke="#000000" stroke-width="0.65" stroke-linecap="round" stroke-linejoin="bevel" points="193.395,196.786 193.395,210.847"/>
<polyline class="Stem" fill="none" stroke="#000000" stroke-width="0.65" stroke-linecap="round" stroke-linejoin="bevel" points="199.327,137.407 199.327,123.347"/>
<polyline class="Stem" fill="none" stroke="#000000" stroke-width="0.65" stroke-linecap="round" stroke-linejoin="bevel" points="186.273,167.407 186.273,152.097"/>
<polyline class="Stem" fill="none" stroke="#000000" stroke-width="0.65" stroke-linecap="round" stroke-linejoin="bevel" points="167.286,186.786 167.286,210.847"/>
<polyline class="Stem" fill="none" stroke="#000000" stroke-width="0.65" stroke-linecap="round" stroke-linejoin="bevel" points="173.219,172.407 173.219,152.097"/>
<polyline class="Stem" fill="none" stroke="#000000" stroke-width="0.65" stroke-linecap="round" stroke-linejoin="bevel" points="160.164,177.407 160.164,152.097"/>
<polyline class="Stem" fill="none" stroke="#000000" stroke-width="0.65" stroke-linecap="round" stroke-linejoin="bevel" points="141.177,196.786 141.177,210.847"/>
<polyline class="Stem" fill="none" stroke="#000000" stroke-width="0.65" stroke-linecap="round" stroke-linejoin="bevel" points="147.11,167.407 147.11,152.097"/>
<polyline class="Stem" fill="none" stroke="#000000" stroke-width="0.65" stroke-linecap="round" stroke-linejoin="bevel" points="134.055,172.407 134.055,155.847"/>
<polyline class="Stem" fill="none" stroke="#000000" stroke-width="0.65" stroke-linecap="round" stroke-linejoin="bevel" points="115.068,186.786 115.068,210.847"/>
<polyline class="Stem" fill="none" stroke="#000000" stroke-width="0.65" stroke-linecap="round" stroke-linejoin="bevel" points="121.001,177.407 121.001,158.972"/>
<polyline class="Stem" fill="none" stroke="#000000" stroke-width="0.65" stroke-linecap="round" stroke-linejoin="bevel" points="107.946,184.907 107.946,162.097"/>
<polyline class="Stem" fill="none" stroke="#000000" stroke-width="0.65" stroke-linecap="round" stroke-linejoin="bevel" points="88.959,196.786 88.959,210.847"/>
<path class="Note" d="M288.841,130.597 C289.466,130.597 289.998,130.758 290.435,131.081 C290.831,131.435 291.029,131.878 291.029,132.409 C291.029,133.305 290.571,134.143 289.654,134.925 C288.716,135.706 287.711,136.097 286.638,136.097 C286.013,136.097 285.487,135.935 285.06,135.612 C284.654,135.258 284.451,134.815 284.451,134.284 C284.451,133.388 284.919,132.55 285.857,131.768 C286.774,130.987 287.768,130.597 288.841,130.597"/>
<path class="Note" d="M275.787,183.097 C276.412,183.097 276.943,183.258 277.381,183.581 C277.776,183.935 277.974,184.378 277.974,184.909 C277.974,185.805 277.516,186.643 276.599,187.425 C275.662,188.206 274.657,188.597 273.584,188.597 C272.959,188.597 272.433,188.435 272.006,188.112 C271.599,187.758 271.396,187.315 271.396,186.784 C271.396,185.888 271.865,185.05 272.803,184.268 C273.719,183.487 274.714,183.097 275.787,183.097"/>
<path class="Note" d="M275.787,135.597 C276.412,135.597 276.943,135.758 277.381,136.081 C277.776,136.435 277.974,136.878 277.974,137.409 C277.974,138.305 277.516,139.143 276.599,139.925 C275.662,140.706 274.657,141.097 273.584,141.097 C272.959,141.097 272.433,140.935 272.006,140.612 C271.599,140.258 271.396,139.815 271.396,139.284 C271.396,138.388 271.865,137.55 272.803,136.768 C273.719,135.987 274.714,135.597 275.787,135.597"/>
<path class="Note" d="M262.732,143.097 C263.357,143.097 263.889,143.258 264.326,143.581 C264.722,143.935 264.92,144.378 264.92,144.909 C264.92,145.805 264.462,146.643 263.545,147.425 C262.607,148.206 261.602,148.597 260.529,148.597 C259.904,148.597 259.378,148.435 258.951,148.112 C258.545,147.758 258.342,147.315 258.342,146.784 C258.342,145.888 258.811,145.05 259.748,144.268 C260.665,143.487 261.66,143.097 262.732,143.097"/>
<path class="Note" d="M249.678,193.097 C250.303,193.097 250.834,193.258 251.272,193.581 C251.668,193.935 251.866,194.378 251.866,194.909 C251.866,195.805 251.407,196.643 250.491,197.425 C249.553,198.206 248.548,198.597 247.475,198.597 C246.85,198.597 246.324,198.435 245.897,198.112 C245.491,197.758 245.287,197.315 245.287,196.784 C245.287,195.888 245.756,195.05 246.694,194.268 C247.61,193.487 248.605,193.097 249.678,193.097"/>
<path class="Note" d="M249.678,130.597 C250.303,130.597 250.834,130.758 251.272,131.081 C251.668,131.435 251.866,131.878 251.866,132.409 C251.866,133.305 251.407,134.143 250.491,134.925 C249.553,135.706 248.548,136.097 247.475,136.097 C246.85,136.097 246.324,135.935 245.897,135.612 C245.491,135.258 245.287,134.815 245.287,134.284 C245.287,133.388 245.756,132.55 246.694,131.768 C247.61,130.987 248.605,130.597 249.678,130.597"/>
<path class="Note" d="M236.624,135.597 C237.249,135.597 237.78,135.758 238.217,136.081 C238.613,136.435 238.811,136.878 238.811,137.409 C238.811,138.305 238.353,139.143 237.436,139.925 C236.499,140.706 235.493,141.097 234.42,141.097 C233.795,141.097 233.269,140.935 232.842,140.612 C232.436,140.258 232.233,139.815 232.233,139.284 C232.233,138.388 232.702,137.55 233.639,136.768 C234.556,135.987 235.551,135.597 236.624,135.597"/>
<path class="Note" d="M223.569,183.097 C224.194,183.097 224.725,183.258 225.163,183.581 C225.559,183.935 225.757,184.378 225.757,184.909 C225.757,185.805 225.298,186.643 224.382,187.425 C223.444,188.206 222.439,188.597 221.366,188.597 C220.741,188.597 220.215,188.435 219.788,188.112 C219.382,187.758 219.178,187.315 219.178,186.784 C219.178,185.888 219.647,185.05 220.585,184.268 C221.501,183.487 222.496,183.097 223.569,183.097"/>
<path class="Note" d="M223.569,143.097 C224.194,143.097 224.725,143.258 225.163,143.581 C225.559,143.935 225.757,144.378 225.757,144.909 C225.757,145.805 225.298,146.643 224.382,147.425 C223.444,148.206 222.439,148.597 221.366,148.597 C220.741,148.597 220.215,148.435 219.788,148.112 C219.382,147.758 219.178,147.315 219.178,146.784 C219.178,145.888 219.647,145.05 220.585,144.268 C221.501,143.487 222.496,143.097 223.569,143.097"/>
<path class="Note" d="M210.515,148.097 C211.14,148.097 211.671,148.258 212.108,148.581 C212.504,148.935 212.702,149.378 212.702,149.909 C212.702,150.805 212.244,151.643 211.327,152.425 C210.39,153.206 209.384,153.597 208.312,153.597 C207.687,153.597 207.16,153.435 206.733,153.112 C206.327,152.758 206.124,152.315 206.124,151.784 C206.124,150.888 206.593,150.05 207.53,149.268 C208.447,148.487 209.442,148.097 210.515,148.097"/>
<path class="Note" d="M197.46,193.097 C198.085,193.097 198.616,193.258 199.054,193.581 C199.45,193.935 199.648,194.378 199.648,194.909 C199.648,195.805 199.189,196.643 198.273,197.425 C197.335,198.206 196.33,198.597 195.257,198.597 C194.632,198.597 194.106,198.435 193.679,198.112 C193.273,197.758 193.07,197.315 193.07,196.784 C193.07,195.888 193.538,195.05 194.476,194.268 C195.393,193.487 196.387,193.097 197.46,193.097"/>
<path class="Note" d="M197.46,135.597 C198.085,135.597 198.616,135.758 199.054,136.081 C199.45,136.435 199.648,136.878 199.648,137.409 C199.648,138.305 199.189,139.143 198.273,139.925 C197.335,140.706 196.33,141.097 195.257,141.097 C194.632,141.097 194.106,140.935 193.679,140.612 C193.273,140.258 193.07,139.815 193.07,139.284 C193.07,138.388 193.538,137.55 194.476,136.768 C195.393,135.987 196.387,135.597 197.46,135.597"/>
<path class="Note" d="M184.406,165.597 C185.031,165.597 185.562,165.758 186,166.081 C186.395,166.435 186.593,166.878 186.593,167.409 C186.593,168.305 186.135,169.143 185.218,169.925 C184.281,170.706 183.276,171.097 182.203,171.097 C181.578,171.097 181.052,170.935 180.625,170.612 C180.218,170.258 180.015,169.815 180.015,169.284 C180.015,168.388 180.484,167.55 181.421,166.768 C182.338,165.987 183.333,165.597 184.406,165.597"/>
<path class="Note" d="M171.351,183.097 C171.976,183.097 172.508,183.258 172.945,183.581 C173.341,183.935 173.539,184.378 173.539,184.909 C173.539,185.805 173.08,186.643 172.164,187.425 C171.226,188.206 170.221,188.597 169.148,188.597 C168.523,188.597 167.997,188.435 167.57,188.112 C167.164,187.758 166.961,187.315 166.961,186.784 C166.961,185.888 167.429,185.05 168.367,184.268 C169.284,183.487 170.278,183.097 171.351,183.097"/>
<path class="Note" d="M171.351,170.597 C171.976,170.597 172.508,170.758 172.945,171.081 C173.341,171.435 173.539,171.878 173.539,172.409 C173.539,173.305 173.08,174.143 172.164,174.925 C171.226,175.706 170.221,176.097 169.148,176.097 C168.523,176.097 167.997,175.935 167.57,175.612 C167.164,175.258 166.961,174.815 166.961,174.284 C166.961,173.388 167.429,172.55 168.367,171.768 C169.284,170.987 170.278,170.597 171.351,170.597"/>
<path class="Note" d="M158.297,175.597 C158.922,175.597 159.453,175.758 159.891,176.081 C160.286,176.435 160.484,176.878 160.484,177.409 C160.484,178.305 160.026,179.143 159.109,179.925 C158.172,180.706 157.167,181.097 156.094,181.097 C155.469,181.097 154.943,180.935 154.516,180.612 C154.109,180.258 153.906,179.815 153.906,179.284 C153.906,178.388 154.375,177.55 155.312,176.768 C156.229,175.987 157.224,175.597 158.297,175.597"/>
<path class="Note" d="M145.242,193.097 C145.867,193.097 146.399,193.258 146.836,193.581 C147.232,193.935 147.43,194.378 147.43,194.909 C147.43,195.805 146.972,196.643 146.055,197.425 C145.117,198.206 144.112,198.597 143.039,198.597 C142.414,198.597 141.888,198.435 141.461,198.112 C141.055,197.758 140.852,197.315 140.852,196.784 C140.852,195.888 141.321,195.05 142.258,194.268 C143.175,193.487 144.169,193.097 145.242,193.097"/>
<path class="Note" d="M145.242,165.597 C145.867,165.597 146.399,165.758 146.836,166.081 C147.232,166.435 147.43,166.878 147.43,167.409 C147.43,168.305 146.972,169.143 146.055,169.925 C145.117,170.706 144.112,171.097 143.039,171.097 C142.414,171.097 141.888,170.935 141.461,170.612 C141.055,170.258 140.852,169.815 140.852,169.284 C140.852,168.388 141.321,167.55 142.258,166.768 C143.175,165.987 144.169,165.597 145.242,165.597"/>
<path class="Note" d="M132.188,170.597 C132.813,170.597 133.344,170.758 133.782,171.081 C134.178,171.435 134.375,171.878 134.375,172.409 C134.375,173.305 133.917,174.143 133,174.925 C132.063,175.706 131.058,176.097 129.985,176.097 C129.36,176.097 128.834,175.935 128.407,175.612 C128,175.258 127.797,174.815 127.797,174.284 C127.797,173.388 128.266,172.55 129.204,171.768 C130.12,170.987 131.115,170.597 132.188,170.597"/>
<path class="Note" d="M119.134,183.097 C119.759,183.097 120.29,183.258 120.727,183.581 C121.123,183.935 121.321,184.378 121.321,184.909 C121.321,185.805 120.863,186.643 119.946,187.425 C119.009,188.206 118.003,188.597 116.93,188.597 C116.305,188.597 115.779,188.435 115.352,188.112 C114.946,187.758 114.743,187.315 114.743,186.784 C114.743,185.888 115.212,185.05 116.149,184.268 C117.066,183.487 118.061,183.097 119.134,183.097"/>
<path class="Note" d="M119.134,175.597 C119.759,175.597 120.29,175.758 120.727,176.081 C121.123,176.435 121.321,176.878 121.321,177.409 C121.321,178.305 120.863,179.143 119.946,179.925 C119.009,180.706 118.003,181.097 116.93,181.097 C116.305,181.097 115.779,180.935 115.352,180.612 C114.946,180.258 114.743,179.815 114.743,179.284 C114.743,178.388 115.212,177.55 116.149,176.768 C117.066,175.987 118.061,175.597 119.134,175.597"/>
<path class="Note" d="M106.079,183.097 C106.704,183.097 107.235,183.258 107.673,183.581 C108.069,183.935 108.267,184.378 108.267,184.909 C108.267,185.805 107.808,186.643 106.892,187.425 C105.954,188.206 104.949,188.597 103.876,188.597 C103.251,188.597 102.725,188.435 102.298,188.112 C101.892,187.758 101.688,187.315 101.688,186.784 C101.688,185.888 102.157,185.05 103.095,184.268 C104.011,183.487 105.006,183.097 106.079,183.097"/>
<path class="Note" d="M93.0246,193.097 C93.6496,193.097 94.1809,193.258 94.6184,193.581 C95.0142,193.935 95.2121,194.378 95.2121,194.909 C95.2121,195.805 94.7538,196.643 93.8371,197.425 C92.8996,198.206 91.8944,198.597 90.8215,198.597 C90.1965,198.597 89.6704,198.435 89.2434,198.112 C88.8371,197.758 88.634,197.315 88.634,196.784 C88.634,195.888 89.1027,195.05 90.0402,194.268 C90.9569,193.487 91.9517,193.097 93.0246,193.097"/>
<path class="Clef" d="M43.7761,169.065 C43.5834,168.867 43.4871,168.625 43.4871,168.339 C43.4871,168.052 43.5834,167.813 43.7761,167.62 C43.9688,167.427 44.2084,167.331 44.4949,167.331 C44.7813,167.331 45.0235,167.427 45.2215,167.62 C45.4194,167.813 45.5183,168.052 45.5183,168.339 C45.5183,168.625 45.4194,168.867 45.2215,169.065 C45.0235,169.263 44.7813,169.362 44.4949,169.362 C44.2084,169.362 43.9688,169.263 43.7761,169.065 M43.7761,174.073 C43.5834,173.88 43.4871,173.641 43.4871,173.354 C43.4871,173.068 43.5834,172.826 43.7761,172.628 C43.9688,172.43 44.2084,172.331 44.4949,172.331 C44.7813,172.331 45.0235,172.43 45.2215,172.628 C45.4194,172.826 45.5183,173.068 45.5183,173.354 C45.5183,173.641 45.4194,173.88 45.2215,174.073 C45.0235,174.266 44.7813,174.362 44.4949,174.362 C44.2084,174.362 43.9688,174.266 43.7761,174.073 M37.0027,165.597 C38.7319,165.597 40.1485,166.029 41.2527,166.893 C42.3256,167.81 42.8621,169.05 42.8621,170.612 C42.8621,171.664 42.6537,172.628 42.2371,173.503 C41.8412,174.419 41.3256,175.227 40.6902,175.925 C40.034,176.643 39.2475,177.32 38.3308,177.956 C37.4246,178.581 36.4975,179.143 35.5496,179.643 C33.6225,180.612 32.5548,181.097 32.3465,181.097 C32.1798,181.097 32.0965,181.013 32.0965,180.847 C32.0965,180.784 32.1225,180.727 32.1746,180.675 C32.8412,180.279 33.6537,179.779 34.6121,179.175 C35.2371,178.768 35.9662,178.206 36.7996,177.487 C37.6121,176.81 38.2371,176.175 38.6746,175.581 C39.1329,174.987 39.5496,174.258 39.9246,173.393 C40.2475,172.518 40.409,171.654 40.409,170.8 C40.409,169.539 40.0965,168.44 39.4715,167.503 C38.8465,166.565 38.0235,166.097 37.0027,166.097 C36.2735,166.097 35.6485,166.331 35.1277,166.8 C34.5652,167.279 34.159,167.883 33.909,168.612 C34.159,168.508 34.3881,168.456 34.5965,168.456 C35.1381,168.456 35.6069,168.654 36.0027,169.05 C36.3881,169.466 36.5808,169.94 36.5808,170.472 C36.5808,171.034 36.3933,171.539 36.0183,171.987 C35.6121,172.383 35.1381,172.581 34.5965,172.581 C34.0131,172.581 33.4871,172.383 33.0183,171.987 C32.5704,171.539 32.3465,171.034 32.3465,170.472 C32.3465,169.128 32.8048,167.982 33.7215,167.034 C34.6173,166.076 35.711,165.597 37.0027,165.597"/>
<path class="Clef" d="M39.6902,123.222 C39.6902,123.222 39.7319,123.222 39.8152,123.222 C39.8673,123.211 39.909,123.206 39.9402,123.206 C41.3985,123.206 42.5965,123.722 43.534,124.753 C44.4715,125.763 44.9402,126.945 44.9402,128.3 C44.9402,129.987 44.2475,131.357 42.8621,132.409 C42.4975,132.701 42.0183,132.935 41.4246,133.112 C41.4975,133.956 41.534,134.638 41.534,135.159 C41.534,135.263 41.5183,135.643 41.4871,136.3 C41.435,137.508 41.0183,138.555 40.2371,139.44 C39.4871,140.315 38.5496,140.753 37.4246,140.753 C36.3725,140.753 35.4767,140.383 34.7371,139.643 C33.9871,138.883 33.6121,137.972 33.6121,136.909 C33.6121,136.347 33.8308,135.867 34.2683,135.472 C34.7058,135.086 35.2162,134.893 35.7996,134.893 C36.3204,134.893 36.7579,135.097 37.1121,135.503 C37.4767,135.878 37.659,136.347 37.659,136.909 C37.659,137.409 37.4767,137.841 37.1121,138.206 C36.7475,138.57 36.31,138.753 35.7996,138.753 C35.5912,138.753 35.3933,138.716 35.2058,138.643 C35.7787,139.487 36.5392,139.909 37.4871,139.909 C38.3829,139.909 39.1173,139.544 39.6902,138.815 C40.2944,138.065 40.6225,137.185 40.6746,136.175 C40.6954,135.55 40.7058,135.195 40.7058,135.112 C40.7058,134.383 40.6798,133.784 40.6277,133.315 C39.9819,133.419 39.4037,133.472 38.8933,133.472 C37.0808,133.472 35.5392,132.753 34.2683,131.315 C33.0183,129.867 32.3933,128.149 32.3933,126.159 C32.3933,125.742 32.4298,125.32 32.5027,124.893 C32.586,124.539 32.685,124.154 32.7996,123.737 C32.8621,123.498 33.0392,123.117 33.3308,122.597 C33.435,122.44 33.5522,122.245 33.6824,122.011 C33.8126,121.776 33.9037,121.623 33.9558,121.55 C34.0808,121.289 34.3308,120.935 34.7058,120.487 C34.81,120.373 34.9194,120.245 35.034,120.104 C35.1485,119.964 35.2449,119.847 35.323,119.753 C35.4011,119.659 35.4584,119.586 35.4949,119.534 C35.5313,119.482 35.8256,119.138 36.3777,118.503 C36.5027,118.367 36.6277,118.227 36.7527,118.081 C36.8777,117.935 36.9793,117.818 37.0574,117.729 C37.1355,117.641 37.1954,117.581 37.2371,117.55 C36.7683,115.998 36.4715,114.758 36.3465,113.831 C36.2631,113.091 36.2215,112.076 36.2215,110.784 C36.2215,109.649 36.4819,108.586 37.0027,107.597 C37.5027,106.576 38.211,105.737 39.1277,105.081 C39.1902,105.039 39.2527,105.018 39.3152,105.018 C39.409,105.018 39.4767,105.039 39.5183,105.081 C40.2162,105.925 40.8204,107.024 41.3308,108.378 C41.8517,109.732 42.1121,110.966 42.1121,112.081 C42.1121,113.331 41.8152,114.503 41.2215,115.597 C40.5444,116.753 39.6694,117.951 38.5965,119.19 C38.8673,120.044 39.2319,121.388 39.6902,123.222 M41.3465,132.315 C42.0235,132.065 42.5548,131.643 42.9402,131.05 C43.3569,130.477 43.5652,129.831 43.5652,129.112 C43.5652,128.185 43.2527,127.362 42.6277,126.643 C41.9819,125.904 41.1642,125.487 40.1746,125.393 C40.7371,128.143 41.1277,130.451 41.3465,132.315 M33.7996,127.8 C33.7996,129.091 34.3204,130.227 35.3621,131.206 C36.4246,132.154 37.6225,132.628 38.9558,132.628 C39.4975,132.628 40.0287,132.586 40.5496,132.503 C40.3412,130.524 39.9298,128.154 39.3152,125.393 C38.5756,125.477 37.9871,125.737 37.5496,126.175 C37.1121,126.633 36.8933,127.149 36.8933,127.722 C36.8933,128.711 37.4246,129.513 38.4871,130.128 C38.5704,130.222 38.6121,130.32 38.6121,130.425 C38.6121,130.529 38.5704,130.623 38.4871,130.706 C38.4037,130.8 38.3048,130.847 38.1902,130.847 C38.1798,130.847 38.1225,130.836 38.0183,130.815 C37.2683,130.409 36.6954,129.888 36.2996,129.253 C35.9142,128.565 35.7215,127.878 35.7215,127.19 C35.7215,126.294 36.0027,125.482 36.5652,124.753 C37.1485,124.024 37.909,123.555 38.8465,123.347 C38.4819,121.888 38.185,120.748 37.9558,119.925 C37.7475,120.164 37.4975,120.448 37.2058,120.776 C36.9142,121.104 36.7423,121.305 36.6902,121.378 C36.2215,121.982 35.8621,122.456 35.6121,122.8 C35.1642,123.414 34.836,123.94 34.6277,124.378 C34.409,124.878 34.2162,125.419 34.0496,126.003 C33.8829,126.565 33.7996,127.164 33.7996,127.8 M40.3152,107.94 C39.336,108.419 38.5704,109.107 38.0183,110.003 C37.4454,110.93 37.159,111.925 37.159,112.987 C37.159,113.925 37.3933,115.19 37.8621,116.784 C38.7996,115.649 39.5027,114.602 39.9715,113.643 C40.461,112.623 40.7058,111.56 40.7058,110.456 C40.7058,109.623 40.5756,108.784 40.3152,107.94"/>
<path class="KeySig" d="M67.0355,182.081 C67.0355,182.331 66.9131,182.456 66.6683,182.456 C66.4236,182.456 66.3012,182.331 66.3012,182.081 L66.3012,179.19 L64.6449,179.815 L64.6449,182.972 C64.6449,183.222 64.5199,183.347 64.2699,183.347 C64.0199,183.347 63.8949,183.222 63.8949,182.972 L63.8949,180.065 L63.2699,180.3 C63.2595,180.31 63.2074,180.315 63.1137,180.315 C63.0095,180.315 62.9183,180.276 62.8402,180.198 C62.7621,180.12 62.723,180.029 62.723,179.925 L62.723,178.722 C62.723,178.524 62.8064,178.399 62.973,178.347 L63.8949,178.034 L63.8949,174.831 L63.2699,175.05 C63.2595,175.06 63.2074,175.065 63.1137,175.065 C63.0095,175.065 62.9183,175.026 62.8402,174.948 C62.7621,174.87 62.723,174.779 62.723,174.675 L62.723,173.456 C62.723,173.279 62.8064,173.164 62.973,173.112 L63.8949,172.753 L63.8949,169.612 C63.8949,169.362 64.0199,169.237 64.2699,169.237 C64.5199,169.237 64.6449,169.362 64.6449,169.612 L64.6449,172.503 L66.3012,171.878 L66.3012,168.722 C66.3012,168.472 66.4236,168.347 66.6683,168.347 C66.9131,168.347 67.0355,168.472 67.0355,168.722 L67.0355,171.628 L67.6918,171.393 C67.7022,171.383 67.7439,171.378 67.8168,171.378 C67.9105,171.378 68.0095,171.414 68.1137,171.487 C68.197,171.571 68.2387,171.664 68.2387,171.768 L68.2387,172.972 C68.2387,173.159 68.1449,173.284 67.9574,173.347 L67.0355,173.659 L67.0355,176.862 L67.6918,176.643 C67.7022,176.633 67.7439,176.628 67.8168,176.628 C67.9105,176.628 68.0095,176.669 68.1137,176.753 C68.197,176.826 68.2387,176.914 68.2387,177.018 L68.2387,178.237 C68.2387,178.404 68.1449,178.518 67.9574,178.581 L67.0355,178.94 L67.0355,182.081 M66.3012,173.956 L64.6449,174.534 L64.6449,177.737 L66.3012,177.159 L66.3012,173.956 "/>
<path class="KeySig" d="M62.0355,174.581 C62.0355,174.831 61.9131,174.956 61.6683,174.956 C61.4236,174.956 61.3012,174.831 61.3012,174.581 L61.3012,171.69 L59.6449,172.315 L59.6449,175.472 C59.6449,175.722 59.5199,175.847 59.2699,175.847 C59.0199,175.847 58.8949,175.722 58.8949,175.472 L58.8949,172.565 L58.2699,172.8 C58.2595,172.81 58.2074,172.815 58.1137,172.815 C58.0095,172.815 57.9183,172.776 57.8402,172.698 C57.7621,172.62 57.723,172.529 57.723,172.425 L57.723,171.222 C57.723,171.024 57.8064,170.899 57.973,170.847 L58.8949,170.534 L58.8949,167.331 L58.2699,167.55 C58.2595,167.56 58.2074,167.565 58.1137,167.565 C58.0095,167.565 57.9183,167.526 57.8402,167.448 C57.7621,167.37 57.723,167.279 57.723,167.175 L57.723,165.956 C57.723,165.779 57.8064,165.664 57.973,165.612 L58.8949,165.253 L58.8949,162.112 C58.8949,161.862 59.0199,161.737 59.2699,161.737 C59.5199,161.737 59.6449,161.862 59.6449,162.112 L59.6449,165.003 L61.3012,164.378 L61.3012,161.222 C61.3012,160.972 61.4236,160.847 61.6683,160.847 C61.9131,160.847 62.0355,160.972 62.0355,161.222 L62.0355,164.128 L62.6918,163.893 C62.7022,163.883 62.7439,163.878 62.8168,163.878 C62.9105,163.878 63.0095,163.914 63.1137,163.987 C63.197,164.07 63.2387,164.164 63.2387,164.268 L63.2387,165.472 C63.2387,165.659 63.1449,165.784 62.9574,165.847 L62.0355,166.159 L62.0355,169.362 L62.6918,169.143 C62.7022,169.133 62.7439,169.128 62.8168,169.128 C62.9105,169.128 63.0095,169.169 63.1137,169.253 C63.197,169.326 63.2387,169.414 63.2387,169.518 L63.2387,170.737 C63.2387,170.904 63.1449,171.018 62.9574,171.081 L62.0355,171.44 L62.0355,174.581 M61.3012,166.456 L59.6449,167.034 L59.6449,170.237 L61.3012,169.659 L61.3012,166.456 "/>
<path class="KeySig" d="M57.0355,184.581 C57.0355,184.831 56.9131,184.956 56.6683,184.956 C56.4235,184.956 56.3012,184.831 56.3012,184.581 L56.3012,181.69 L54.6449,182.315 L54.6449,185.472 C54.6449,185.722 54.5199,185.847 54.2699,185.847 C54.0199,185.847 53.8949,185.722 53.8949,185.472 L53.8949,182.565 L53.2699,182.8 C53.2595,182.81 53.2074,182.815 53.1137,182.815 C53.0095,182.815 52.9183,182.776 52.8402,182.698 C52.7621,182.62 52.723,182.529 52.723,182.425 L52.723,181.222 C52.723,181.024 52.8064,180.899 52.973,180.847 L53.8949,180.534 L53.8949,177.331 L53.2699,177.55 C53.2595,177.56 53.2074,177.565 53.1137,177.565 C53.0095,177.565 52.9183,177.526 52.8402,177.448 C52.7621,177.37 52.723,177.279 52.723,177.175 L52.723,175.956 C52.723,175.779 52.8064,175.664 52.973,175.612 L53.8949,175.253 L53.8949,172.112 C53.8949,171.862 54.0199,171.737 54.2699,171.737 C54.5199,171.737 54.6449,171.862 54.6449,172.112 L54.6449,175.003 L56.3012,174.378 L56.3012,171.222 C56.3012,170.972 56.4235,170.847 56.6683,170.847 C56.9131,170.847 57.0355,170.972 57.0355,171.222 L57.0355,174.128 L57.6918,173.893 C57.7022,173.883 57.7439,173.878 57.8168,173.878 C57.9105,173.878 58.0095,173.914 58.1137,173.987 C58.197,174.071 58.2387,174.164 58.2387,174.268 L58.2387,175.472 C58.2387,175.659 58.1449,175.784 57.9574,175.847 L57.0355,176.159 L57.0355,179.362 L57.6918,179.143 C57.7022,179.133 57.7439,179.128 57.8168,179.128 C57.9105,179.128 58.0095,179.169 58.1137,179.253 C58.197,179.326 58.2387,179.414 58.2387,179.518 L58.2387,180.737 C58.2387,180.904 58.1449,181.018 57.9574,181.081 L57.0355,181.44 L57.0355,184.581 M56.3012,176.456 L54.6449,177.034 L54.6449,180.237 L56.3012,179.659 L56.3012,176.456 "/>
<path class="KeySig" d="M52.0355,177.081 C52.0355,177.331 51.9131,177.456 51.6683,177.456 C51.4235,177.456 51.3011,177.331 51.3011,177.081 L51.3011,174.19 L49.6449,174.815 L49.6449,177.972 C49.6449,178.222 49.5199,178.347 49.2699,178.347 C49.0199,178.347 48.8949,178.222 48.8949,177.972 L48.8949,175.065 L48.2699,175.3 C48.2595,175.31 48.2074,175.315 48.1136,175.315 C48.0095,175.315 47.9183,175.276 47.8402,175.198 C47.7621,175.12 47.723,175.029 47.723,174.925 L47.723,173.722 C47.723,173.524 47.8064,173.399 47.973,173.347 L48.8949,173.034 L48.8949,169.831 L48.2699,170.05 C48.2595,170.06 48.2074,170.065 48.1136,170.065 C48.0095,170.065 47.9183,170.026 47.8402,169.948 C47.7621,169.87 47.723,169.779 47.723,169.675 L47.723,168.456 C47.723,168.279 47.8064,168.164 47.973,168.112 L48.8949,167.753 L48.8949,164.612 C48.8949,164.362 49.0199,164.237 49.2699,164.237 C49.5199,164.237 49.6449,164.362 49.6449,164.612 L49.6449,167.503 L51.3011,166.878 L51.3011,163.722 C51.3011,163.472 51.4235,163.347 51.6683,163.347 C51.9131,163.347 52.0355,163.472 52.0355,163.722 L52.0355,166.628 L52.6918,166.393 C52.7022,166.383 52.7439,166.378 52.8168,166.378 C52.9105,166.378 53.0095,166.414 53.1136,166.487 C53.197,166.57 53.2386,166.664 53.2386,166.768 L53.2386,167.972 C53.2386,168.159 53.1449,168.284 52.9574,168.347 L52.0355,168.659 L52.0355,171.862 L52.6918,171.643 C52.7022,171.633 52.7439,171.628 52.8168,171.628 C52.9105,171.628 53.0095,171.669 53.1136,171.753 C53.197,171.826 53.2386,171.914 53.2386,172.018 L53.2386,173.237 C53.2386,173.404 53.1449,173.518 52.9574,173.581 L52.0355,173.94 L52.0355,177.081 M51.3011,168.956 L49.6449,169.534 L49.6449,172.737 L51.3011,172.159 L51.3011,168.956 "/>
<path class="KeySig" d="M67.0355,124.581 C67.0355,124.831 66.9131,124.956 66.6683,124.956 C66.4236,124.956 66.3012,124.831 66.3012,124.581 L66.3012,121.69 L64.6449,122.315 L64.6449,125.472 C64.6449,125.722 64.5199,125.847 64.2699,125.847 C64.0199,125.847 63.8949,125.722 63.8949,125.472 L63.8949,122.565 L63.2699,122.8 C63.2595,122.81 63.2074,122.815 63.1137,122.815 C63.0095,122.815 62.9183,122.776 62.8402,122.698 C62.7621,122.62 62.723,122.529 62.723,122.425 L62.723,121.222 C62.723,121.024 62.8064,120.899 62.973,120.847 L63.8949,120.534 L63.8949,117.331 L63.2699,117.55 C63.2595,117.56 63.2074,117.565 63.1137,117.565 C63.0095,117.565 62.9183,117.526 62.8402,117.448 C62.7621,117.37 62.723,117.279 62.723,117.175 L62.723,115.956 C62.723,115.779 62.8064,115.664 62.973,115.612 L63.8949,115.253 L63.8949,112.112 C63.8949,111.862 64.0199,111.737 64.2699,111.737 C64.5199,111.737 64.6449,111.862 64.6449,112.112 L64.6449,115.003 L66.3012,114.378 L66.3012,111.222 C66.3012,110.972 66.4236,110.847 66.6683,110.847 C66.9131,110.847 67.0355,110.972 67.0355,111.222 L67.0355,114.128 L67.6918,113.893 C67.7022,113.883 67.7439,113.878 67.8168,113.878 C67.9105,113.878 68.0095,113.914 68.1137,113.987 C68.197,114.07 68.2387,114.164 68.2387,114.268 L68.2387,115.472 C68.2387,115.659 68.1449,115.784 67.9574,115.847 L67.0355,116.159 L67.0355,119.362 L67.6918,119.143 C67.7022,119.133 67.7439,119.128 67.8168,119.128 C67.9105,119.128 68.0095,119.169 68.1137,119.253 C68.197,119.326 68.2387,119.414 68.2387,119.518 L68.2387,120.737 C68.2387,120.904 68.1449,121.018 67.9574,121.081 L67.0355,121.44 L67.0355,124.581 M66.3012,116.456 L64.6449,117.034 L64.6449,120.237 L66.3012,119.659 L66.3012,116.456 "/>
<path class="KeySig" d="M62.0355,117.081 C62.0355,117.331 61.9131,117.456 61.6683,117.456 C61.4236,117.456 61.3012,117.331 61.3012,117.081 L61.3012,114.19 L59.6449,114.815 L59.6449,117.972 C59.6449,118.222 59.5199,118.347 59.2699,118.347 C59.0199,118.347 58.8949,118.222 58.8949,117.972 L58.8949,115.065 L58.2699,115.3 C58.2595,115.31 58.2074,115.315 58.1137,115.315 C58.0095,115.315 57.9183,115.276 57.8402,115.198 C57.7621,115.12 57.723,115.029 57.723,114.925 L57.723,113.722 C57.723,113.524 57.8064,113.399 57.973,113.347 L58.8949,113.034 L58.8949,109.831 L58.2699,110.05 C58.2595,110.06 58.2074,110.065 58.1137,110.065 C58.0095,110.065 57.9183,110.026 57.8402,109.948 C57.7621,109.87 57.723,109.779 57.723,109.675 L57.723,108.456 C57.723,108.279 57.8064,108.164 57.973,108.112 L58.8949,107.753 L58.8949,104.612 C58.8949,104.362 59.0199,104.237 59.2699,104.237 C59.5199,104.237 59.6449,104.362 59.6449,104.612 L59.6449,107.503 L61.3012,106.878 L61.3012,103.722 C61.3012,103.472 61.4236,103.347 61.6683,103.347 C61.9131,103.347 62.0355,103.472 62.0355,103.722 L62.0355,106.628 L62.6918,106.393 C62.7022,106.383 62.7439,106.378 62.8168,106.378 C62.9105,106.378 63.0095,106.414 63.1137,106.487 C63.197,106.57 63.2387,106.664 63.2387,106.768 L63.2387,107.972 C63.2387,108.159 63.1449,108.284 62.9574,108.347 L62.0355,108.659 L62.0355,111.862 L62.6918,111.643 C62.7022,111.633 62.7439,111.628 62.8168,111.628 C62.9105,111.628 63.0095,111.669 63.1137,111.753 C63.197,111.826 63.2387,111.914 63.2387,112.018 L63.2387,113.237 C63.2387,113.404 63.1449,113.518 62.9574,113.581 L62.0355,113.94 L62.0355,117.081 M61.3012,108.956 L59.6449,109.534 L59.6449,112.737 L61.3012,112.159 L61.3012,108.956 "/>
<path class="KeySig" d="M57.0355,127.081 C57.0355,127.331 56.9131,127.456 56.6683,127.456 C56.4235,127.456 56.3012,127.331 56.3012,127.081 L56.3012,124.19 L54.6449,124.815 L54.6449,127.972 C54.6449,128.222 54.5199,128.347 54.2699,128.347 C54.0199,128.347 53.8949,128.222 53.8949,127.972 L53.8949,125.065 L53.2699,125.3 C53.2595,125.31 53.2074,125.315 53.1137,125.315 C53.0095,125.315 52.9183,125.276 52.8402,125.198 C52.7621,125.12 52.723,125.029 52.723,124.925 L52.723,123.722 C52.723,123.524 52.8064,123.399 52.973,123.347 L53.8949,123.034 L53.8949,119.831 L53.2699,120.05 C53.2595,120.06 53.2074,120.065 53.1137,120.065 C53.0095,120.065 52.9183,120.026 52.8402,119.948 C52.7621,119.87 52.723,119.779 52.723,119.675 L52.723,118.456 C52.723,118.279 52.8064,118.164 52.973,118.112 L53.8949,117.753 L53.8949,114.612 C53.8949,114.362 54.0199,114.237 54.2699,114.237 C54.5199,114.237 54.6449,114.362 54.6449,114.612 L54.6449,117.503 L56.3012,116.878 L56.3012,113.722 C56.3012,113.472 56.4235,113.347 56.6683,113.347 C56.9131,113.347 57.0355,113.472 57.0355,113.722 L57.0355,116.628 L57.6918,116.393 C57.7022,116.383 57.7439,116.378 57.8168,116.378 C57.9105,116.378 58.0095,116.414 58.1137,116.487 C58.197,116.57 58.2387,116.664 58.2387,116.768 L58.2387,117.972 C58.2387,118.159 58.1449,118.284 57.9574,118.347 L57.0355,118.659 L57.0355,121.862 L57.6918,121.643 C57.7022,121.633 57.7439,121.628 57.8168,121.628 C57.9105,121.628 58.0095,121.669 58.1137,121.753 C58.197,121.826 58.2387,121.914 58.2387,122.018 L58.2387,123.237 C58.2387,123.404 58.1449,123.518 57.9574,123.581 L57.0355,123.94 L57.0355,127.081 M56.3012,118.956 L54.6449,119.534 L54.6449,122.737 L56.3012,122.159 L56.3012,118.956 "/>
<path class="KeySig" d="M52.0355,119.581 C52.0355,119.831 51.9131,119.956 51.6683,119.956 C51.4235,119.956 51.3011,119.831 51.3011,119.581 L51.3011,116.69 L49.6449,117.315 L49.6449,120.472 C49.6449,120.722 49.5199,120.847 49.2699,120.847 C49.0199,120.847 48.8949,120.722 48.8949,120.472 L48.8949,117.565 L48.2699,117.8 C48.2595,117.81 48.2074,117.815 48.1136,117.815 C48.0095,117.815 47.9183,117.776 47.8402,117.698 C47.7621,117.62 47.723,117.529 47.723,117.425 L47.723,116.222 C47.723,116.024 47.8064,115.899 47.973,115.847 L48.8949,115.534 L48.8949,112.331 L48.2699,112.55 C48.2595,112.56 48.2074,112.565 48.1136,112.565 C48.0095,112.565 47.9183,112.526 47.8402,112.448 C47.7621,112.37 47.723,112.279 47.723,112.175 L47.723,110.956 C47.723,110.779 47.8064,110.664 47.973,110.612 L48.8949,110.253 L48.8949,107.112 C48.8949,106.862 49.0199,106.737 49.2699,106.737 C49.5199,106.737 49.6449,106.862 49.6449,107.112 L49.6449,110.003 L51.3011,109.378 L51.3011,106.222 C51.3011,105.972 51.4235,105.847 51.6683,105.847 C51.9131,105.847 52.0355,105.972 52.0355,106.222 L52.0355,109.128 L52.6918,108.893 C52.7022,108.883 52.7439,108.878 52.8168,108.878 C52.9105,108.878 53.0095,108.914 53.1136,108.987 C53.197,109.07 53.2386,109.164 53.2386,109.268 L53.2386,110.472 C53.2386,110.659 53.1449,110.784 52.9574,110.847 L52.0355,111.159 L52.0355,114.362 L52.6918,114.143 C52.7022,114.133 52.7439,114.128 52.8168,114.128 C52.9105,114.128 53.0095,114.169 53.1136,114.253 C53.197,114.326 53.2386,114.414 53.2386,114.518 L53.2386,115.737 C53.2386,115.904 53.1449,116.018 52.9574,116.081 L52.0355,116.44 L52.0355,119.581 M51.3011,111.456 L49.6449,112.034 L49.6449,115.237 L51.3011,114.659 L51.3011,111.456 "/>
<path class="TimeSig" d="M77.9184,175.3 C77.585,175.3 77.2465,175.169 76.9027,174.909 C76.5798,174.659 76.4184,174.294 76.4184,173.815 C76.4184,173.409 76.5538,173.05 76.8246,172.737 C77.085,172.425 77.4288,172.268 77.8559,172.268 C78.0017,172.268 78.0954,172.274 78.1371,172.284 C77.5329,171.524 76.7309,171.128 75.7309,171.097 C74.9809,171.097 74.4079,171.31 74.0121,171.737 C73.8871,171.914 73.7725,172.19 73.6684,172.565 C73.5642,172.94 73.5121,173.279 73.5121,173.581 C73.4809,173.789 73.4652,174.206 73.4652,174.831 L73.4652,176.862 C73.4652,177.487 73.4809,177.909 73.5121,178.128 C73.5642,178.982 73.7309,179.591 74.0121,179.956 C74.4184,180.393 74.9913,180.612 75.7309,180.612 C76.5121,180.612 77.1788,180.326 77.7309,179.753 C78.2829,179.19 78.6736,178.466 78.9027,177.581 C78.934,177.456 79.0121,177.393 79.1371,177.393 C79.3038,177.393 79.3871,177.472 79.3871,177.628 C79.3871,177.722 79.3454,177.899 79.2621,178.159 C79.085,178.742 78.7309,179.357 78.1996,180.003 C77.5538,180.732 76.7309,181.097 75.7309,181.097 C75.1475,181.097 74.5486,181.013 73.934,180.847 C73.3402,180.638 72.8142,180.352 72.3559,179.987 C71.8454,179.581 71.4496,179.034 71.1684,178.347 C70.8767,177.597 70.7309,176.763 70.7309,175.847 C70.7309,174.253 71.1631,172.987 72.0277,172.05 C72.8611,171.091 74.0954,170.612 75.7309,170.612 C76.8038,170.612 77.6527,170.977 78.2777,171.706 C78.9236,172.435 79.2465,173.159 79.2465,173.878 C79.2465,174.294 79.1163,174.633 78.8559,174.893 C78.6267,175.164 78.3142,175.3 77.9184,175.3"/>
<path class="TimeSig" d="M77.9184,122.8 C77.585,122.8 77.2465,122.669 76.9027,122.409 C76.5798,122.159 76.4184,121.794 76.4184,121.315 C76.4184,120.909 76.5538,120.55 76.8246,120.237 C77.085,119.925 77.4288,119.768 77.8559,119.768 C78.0017,119.768 78.0954,119.774 78.1371,119.784 C77.5329,119.024 76.7309,118.628 75.7309,118.597 C74.9809,118.597 74.4079,118.81 74.0121,119.237 C73.8871,119.414 73.7725,119.69 73.6684,120.065 C73.5642,120.44 73.5121,120.779 73.5121,121.081 C73.4809,121.289 73.4652,121.706 73.4652,122.331 L73.4652,124.362 C73.4652,124.987 73.4809,125.409 73.5121,125.628 C73.5642,126.482 73.7309,127.091 74.0121,127.456 C74.4184,127.893 74.9913,128.112 75.7309,128.112 C76.5121,128.112 77.1788,127.826 77.7309,127.253 C78.2829,126.69 78.6736,125.966 78.9027,125.081 C78.934,124.956 79.0121,124.893 79.1371,124.893 C79.3038,124.893 79.3871,124.972 79.3871,125.128 C79.3871,125.222 79.3454,125.399 79.2621,125.659 C79.085,126.242 78.7309,126.857 78.1996,127.503 C77.5538,128.232 76.7309,128.597 75.7309,128.597 C75.1475,128.597 74.5486,128.513 73.934,128.347 C73.3402,128.138 72.8142,127.852 72.3559,127.487 C71.8454,127.081 71.4496,126.534 71.1684,125.847 C70.8767,125.097 70.7309,124.263 70.7309,123.347 C70.7309,121.753 71.1631,120.487 72.0277,119.55 C72.8611,118.591 74.0954,118.112 75.7309,118.112 C76.8038,118.112 77.6527,118.477 78.2777,119.206 C78.9236,119.935 79.2465,120.659 79.2465,121.378 C79.2465,121.794 79.1163,122.133 78.8559,122.393 C78.6267,122.664 78.3142,122.8 77.9184,122.8"/>
<path class="Rest" d="M521.708,173.972 L514.599,173.972 C514.463,173.972 514.395,173.909 514.395,173.784 L514.395,171.05 C514.395,170.914 514.463,170.847 514.599,170.847 L521.708,170.847 C521.833,170.847 521.895,170.914 521.895,171.05 L521.895,173.784 C521.895,173.909 521.833,173.972 521.708,173.972"/>
<path class="Rest" d="M521.708,121.472 L514.599,121.472 C514.463,121.472 514.395,121.409 514.395,121.284 L514.395,118.55 C514.395,118.414 514.463,118.347 514.599,118.347 L521.708,118.347 C521.833,118.347 521.895,118.414 521.895,118.55 L521.895,121.284 C521.895,121.409 521.833,121.472 521.708,121.472"/>
<path class="Rest" d="M433.612,173.972 L426.502,173.972 C426.367,173.972 426.299,173.909 426.299,173.784 L426.299,171.05 C426.299,170.914 426.367,170.847 426.502,170.847 L433.612,170.847 C433.737,170.847 433.799,170.914 433.799,171.05 L433.799,173.784 C433.799,173.909 433.737,173.972 433.612,173.972"/>
<path class="Rest" d="M433.612,121.472 L426.502,121.472 C426.367,121.472 426.299,121.409 426.299,121.284 L426.299,118.55 C426.299,118.414 426.367,118.347 426.502,118.347 L433.612,118.347 C433.737,118.347 433.799,118.414 433.799,118.55 L433.799,121.284 C433.799,121.409 433.737,121.472 433.612,121.472"/>
<path class="Rest" d="M345.516,173.972 L338.406,173.972 C338.271,173.972 338.203,173.909 338.203,173.784 L338.203,171.05 C338.203,170.914 338.271,170.847 338.406,170.847 L345.516,170.847 C345.641,170.847 345.703,170.914 345.703,171.05 L345.703,173.784 C345.703,173.909 345.641,173.972 345.516,173.972"/>
<path class="Rest" d="M345.516,121.472 L338.406,121.472 C338.271,121.472 338.203,121.409 338.203,121.284 L338.203,118.55 C338.203,118.414 338.271,118.347 338.406,118.347 L345.516,118.347 C345.641,118.347 345.703,118.414 345.703,118.55 L345.703,121.284 C345.703,121.409 345.641,121.472 345.516,121.472"/>
<path class="Rest" d="M91.134,156.737 C91.5298,156.737 91.8111,156.841 91.9777,157.05 C92.1548,157.279 92.2642,157.503 92.3059,157.722 C92.3163,157.94 92.384,158.159 92.509,158.378 C92.5819,158.586 92.7225,158.69 92.9309,158.69 C93.0663,158.69 93.2642,158.534 93.5246,158.222 C93.8163,157.857 94.0038,157.597 94.0871,157.44 C94.1496,157.315 94.2382,157.253 94.3527,157.253 C94.3527,157.253 94.3632,157.253 94.384,157.253 C94.4986,157.263 94.5819,157.326 94.634,157.44 L91.0559,170.847 C90.9309,170.982 90.7512,171.05 90.5168,171.05 C90.2824,171.05 90.0975,170.982 89.9621,170.847 L91.9777,164.3 C91.1027,164.612 90.3944,164.768 89.8527,164.768 C89.384,164.768 88.9777,164.623 88.634,164.331 C88.2798,164.039 88.1027,163.659 88.1027,163.19 C88.1027,162.784 88.2382,162.445 88.509,162.175 C88.8007,161.893 89.1496,161.753 89.5559,161.753 C89.9413,161.753 90.2225,161.857 90.3996,162.065 C90.5871,162.284 90.7017,162.503 90.7434,162.722 C90.785,162.982 90.8527,163.206 90.9465,163.393 C91.0298,163.602 91.1704,163.706 91.3684,163.706 C91.5246,163.706 91.7486,163.524 92.0402,163.159 C92.3319,162.815 92.5142,162.544 92.5871,162.347 L93.4934,159.315 C92.66,159.617 91.9673,159.768 91.4152,159.768 C90.9465,159.768 90.5402,159.617 90.1965,159.315 C89.8423,159.034 89.6652,158.659 89.6652,158.19 C89.6652,157.784 89.8111,157.445 90.1027,157.175 C90.384,156.883 90.7277,156.737 91.134,156.737"/>
<path class="Dynamic" d="M88.4152,147.315 C88.0611,147.315 87.7434,147.503 87.4621,147.878 C87.16,148.274 86.9309,148.711 86.7746,149.19 C86.6184,149.649 86.5454,150.05 86.5559,150.393 C86.5559,150.883 86.7382,151.128 87.1027,151.128 C87.4257,151.128 87.7017,151.003 87.9309,150.753 C88.1913,150.482 88.41,150.013 88.5871,149.347 C88.7746,148.659 88.8684,148.18 88.8684,147.909 C88.8579,147.513 88.7069,147.315 88.4152,147.315 M85.4934,146.393 C85.8163,146.393 86.1001,146.479 86.3449,146.651 C86.5897,146.823 86.7434,147.055 86.8059,147.347 C87.0663,147.065 87.3736,146.836 87.7277,146.659 C88.0819,146.482 88.41,146.393 88.7121,146.393 C89.3371,146.393 89.8215,146.586 90.1652,146.972 C90.4986,147.378 90.6652,147.888 90.6652,148.503 C90.6652,149.524 90.3059,150.357 89.5871,151.003 C88.9309,151.555 88.3371,151.831 87.8059,151.831 C87.4829,151.831 87.2225,151.8 87.0246,151.737 C86.7746,151.675 86.6079,151.617 86.5246,151.565 C86.41,151.492 86.3163,151.456 86.2434,151.456 C86.0767,151.456 85.9673,151.524 85.9152,151.659 L85.2121,153.784 L85.2121,153.878 C85.2121,154.003 85.3059,154.076 85.4934,154.097 C85.5559,154.107 85.6522,154.117 85.7824,154.128 C85.9126,154.138 86.0142,154.143 86.0871,154.143 C86.2746,154.175 86.3684,154.227 86.3684,154.3 C86.3684,154.404 86.3215,154.456 86.2277,154.456 C85.0923,154.383 84.3579,154.347 84.0246,154.347 C83.66,154.347 82.91,154.383 81.7746,154.456 C81.6704,154.456 81.6288,154.404 81.6496,154.3 C81.6496,154.227 81.7329,154.175 81.8996,154.143 C81.9725,154.123 82.3059,154.112 82.8996,154.112 C83.1704,154.112 83.3319,154.029 83.384,153.862 L85.4309,147.94 C85.4621,147.826 85.4829,147.727 85.4934,147.643 C85.4934,147.414 85.3892,147.305 85.1809,147.315 C84.8892,147.315 84.5819,147.503 84.259,147.878 C83.9465,148.232 83.6965,148.633 83.509,149.081 C83.4569,149.185 83.3736,149.242 83.259,149.253 C83.1652,149.253 83.1184,149.216 83.1184,149.143 C83.1184,149.039 83.1496,148.94 83.2121,148.847 C83.4725,148.294 83.7434,147.794 84.0246,147.347 C84.1913,147.097 84.41,146.878 84.6809,146.69 C84.9309,146.492 85.2017,146.393 85.4934,146.393"/>
<path class="Beam" fill-rule="evenodd" d="M251.22,117.097 L291.034,117.097 L291.034,119.597 L251.22,119.597 L251.22,117.097 "/>
<path class="Beam" fill-rule="evenodd" d="M251.22,120.847 L291.034,120.847 L291.034,123.347 L251.22,123.347 L251.22,120.847 "/>
<path class="Beam" fill-rule="evenodd" d="M193.07,209.597 L272.046,209.597 L272.046,212.097 L193.07,212.097 L193.07,209.597 "/>
<path class="Beam" fill-rule="evenodd" d="M199.002,122.097 L238.816,122.097 L238.816,124.597 L199.002,124.597 L199.002,122.097 "/>
<path class="Beam" fill-rule="evenodd" d="M199.002,125.847 L238.816,125.847 L238.816,128.347 L199.002,128.347 L199.002,125.847 "/>
<path class="Beam" fill-rule="evenodd" d="M146.785,150.847 L186.598,150.847 L186.598,153.347 L146.785,153.347 L146.785,150.847 "/>
<path class="Beam" fill-rule="evenodd" d="M146.785,154.597 L186.598,154.597 L186.598,157.097 L146.785,157.097 L146.785,154.597 "/>
<path class="Beam" fill-rule="evenodd" d="M107.621,161.002 L134.38,154.597 L134.38,157.097 L107.621,163.502 L107.621,161.002 "/>
<path class="Beam" fill-rule="evenodd" d="M107.621,164.752 L134.38,158.347 L134.38,160.847 L107.621,167.252 L107.621,164.752 "/>
<path class="Beam" fill-rule="evenodd" d="M88.634,209.597 L167.611,209.597 L167.611,212.097 L88.634,212.097 L88.634,209.597 "/>
</svg>
