<?xml version="1.0" encoding="UTF-8" standalone="no"?>
<svg width="595.44px" height="841.68px" viewBox="0 0 595.44 841.68"
 xmlns="http://www.w3.org/2000/svg" xmlns:xlink="http://www.w3.org/1999/xlink" version="1.2" baseProfile="tiny">
<title>Title</title>
<desc>Generated by MuseScore 2.3.2</desc>
<polyline class="StaffLines" fill="none" stroke="#000000" stroke-width="0.40" stroke-linejoin="bevel" points="28.3465,113.347 567.094,113.347"/>
<polyline class="StaffLines" fill="none" stroke="#000000" stroke-width="0.40" stroke-linejoin="bevel" points="28.3465,118.347 567.094,118.347"/>
<polyline class="StaffLines" fill="none" stroke="#000000" stroke-width="0.40" stroke-linejoin="bevel" points="28.3465,123.347 567.094,123.347"/>
<polyline class="StaffLines" fill="none" stroke="#000000" stroke-width="0.40" stroke-linejoin="bevel" points="28.3465,128.347 567.094,128.347"/>
<polyline class="StaffLines" fill="none" stroke="#000000" stroke-width="0.40" stroke-linejoin="bevel" points="28.3465,133.347 567.094,133.347"/>
<polyline class="BarLine" fill="none" stroke="#000000" stroke-width="0.80" stroke-linejoin="bevel" points="562.194,113.347 562.194,133.347"/>
<polyline class="BarLine" fill="none" stroke="#000000" stroke-width="2.50" stroke-linejoin="bevel" points="565.844,113.347 565.844,133.347"/>
<polyline class="BarLine" fill="none" stroke="#000000" stroke-width="0.80" stroke-linejoin="bevel" points="445.398,113.347 445.398,133.347"/>
<polyline class="BarLine" fill="none" stroke="#000000" stroke-width="0.80" stroke-linejoin="bevel" points="328.602,113.347 328.602,133.347"/>
<polyline class="BarLine" fill="none" stroke="#000000" stroke-width="0.80" stroke-linejoin="bevel" points="212.544,113.347 212.544,133.347"/>
<polyline class="Stem" fill="none" stroke="#000000" stroke-width="0.65" stroke-linecap="round" stroke-linejoin="bevel" points="225.562,132.579 225.562,115.847"/>
<polyline class="Stem" fill="none" stroke="#000000" stroke-width="0.65" stroke-linecap="round" stroke-linejoin="bevel" points="185.512,127.407 185.512,113.347"/>
<polyline class="Stem" fill="none" stroke="#000000" stroke-width="0.65" stroke-linecap="round" stroke-linejoin="bevel" points="152.622,127.407 152.622,113.347"/>
<polyline class="Stem" fill="none" stroke="#000000" stroke-width="0.65" stroke-linecap="round" stroke-linejoin="bevel" points="119.733,127.407 119.733,111.472"/>
<path class="Note" d="M225.256,132.034 C225.256,131.815 225.173,131.628 225.006,131.472 C224.829,131.305 224.631,131.222 224.412,131.222 C224.027,131.222 223.24,131.612 222.053,132.393 C220.824,133.185 220.074,133.753 219.803,134.097 C219.657,134.274 219.584,134.461 219.584,134.659 C219.584,134.878 219.673,135.065 219.85,135.222 C220.006,135.388 220.199,135.472 220.428,135.472 C220.803,135.472 221.6,135.081 222.819,134.3 C224.017,133.518 224.756,132.951 225.037,132.597 C225.183,132.43 225.256,132.242 225.256,132.034 M224.225,130.597 C225.339,130.597 225.897,131.076 225.897,132.034 C225.897,132.503 225.761,133.05 225.49,133.675 C225.22,134.289 224.855,134.758 224.397,135.081 C223.397,135.758 222.142,136.097 220.631,136.097 C219.506,136.097 218.944,135.617 218.944,134.659 C218.944,134.232 219.079,133.69 219.35,133.034 C219.61,132.409 219.975,131.935 220.444,131.612 C221.454,130.935 222.714,130.597 224.225,130.597"/>
<path class="Note" d="M183.645,125.597 C184.27,125.597 184.801,125.758 185.238,126.081 C185.634,126.435 185.832,126.878 185.832,127.409 C185.832,128.305 185.374,129.143 184.457,129.925 C183.52,130.706 182.515,131.097 181.442,131.097 C180.817,131.097 180.291,130.935 179.863,130.612 C179.457,130.258 179.254,129.815 179.254,129.284 C179.254,128.388 179.723,127.55 180.66,126.768 C181.577,125.987 182.572,125.597 183.645,125.597"/>
<path class="Note" d="M150.755,125.597 C151.38,125.597 151.911,125.758 152.349,126.081 C152.745,126.435 152.943,126.878 152.943,127.409 C152.943,128.305 152.484,129.143 151.568,129.925 C150.63,130.706 149.625,131.097 148.552,131.097 C147.927,131.097 147.401,130.935 146.974,130.612 C146.568,130.258 146.365,129.815 146.365,129.284 C146.365,128.388 146.833,127.55 147.771,126.768 C148.687,125.987 149.682,125.597 150.755,125.597"/>
<path class="Note" d="M117.866,125.597 C118.491,125.597 119.022,125.758 119.459,126.081 C119.855,126.435 120.053,126.878 120.053,127.409 C120.053,128.305 119.595,129.143 118.678,129.925 C117.741,130.706 116.735,131.097 115.663,131.097 C115.038,131.097 114.512,130.935 114.084,130.612 C113.678,130.258 113.475,129.815 113.475,129.284 C113.475,128.388 113.944,127.55 114.881,126.768 C115.798,125.987 116.793,125.597 117.866,125.597"/>
<path class="Clef" d="M38.8902,123.222 C38.8902,123.222 38.9319,123.222 39.0152,123.222 C39.0673,123.211 39.109,123.206 39.1402,123.206 C40.5985,123.206 41.7965,123.722 42.734,124.753 C43.6715,125.763 44.1402,126.945 44.1402,128.3 C44.1402,129.987 43.4475,131.357 42.0621,132.409 C41.6975,132.701 41.2183,132.935 40.6246,133.112 C40.6975,133.956 40.734,134.638 40.734,135.159 C40.734,135.263 40.7183,135.643 40.6871,136.3 C40.635,137.508 40.2183,138.555 39.4371,139.44 C38.6871,140.315 37.7496,140.753 36.6246,140.753 C35.5725,140.753 34.6767,140.383 33.9371,139.643 C33.1871,138.883 32.8121,137.972 32.8121,136.909 C32.8121,136.347 33.0308,135.867 33.4683,135.472 C33.9058,135.086 34.4162,134.893 34.9996,134.893 C35.5204,134.893 35.9579,135.097 36.3121,135.503 C36.6767,135.878 36.859,136.347 36.859,136.909 C36.859,137.409 36.6767,137.841 36.3121,138.206 C35.9475,138.57 35.51,138.753 34.9996,138.753 C34.7912,138.753 34.5933,138.716 34.4058,138.643 C34.9787,139.487 35.7392,139.909 36.6871,139.909 C37.5829,139.909 38.3173,139.544 38.8902,138.815 C39.4944,138.065 39.8225,137.185 39.8746,136.175 C39.8954,135.55 39.9058,135.195 39.9058,135.112 C39.9058,134.383 39.8798,133.784 39.8277,133.315 C39.1819,133.419 38.6037,133.472 38.0933,133.472 C36.2808,133.472 34.7392,132.753 33.4683,131.315 C32.2183,129.867 31.5933,128.149 31.5933,126.159 C31.5933,125.742 31.6298,125.32 31.7027,124.893 C31.786,124.539 31.885,124.154 31.9996,123.737 C32.0621,123.498 32.2392,123.117 32.5308,122.597 C32.635,122.44 32.7522,122.245 32.8824,122.011 C33.0126,121.776 33.1037,121.623 33.1558,121.55 C33.2808,121.289 33.5308,120.935 33.9058,120.487 C34.01,120.373 34.1194,120.245 34.234,120.104 C34.3485,119.964 34.4449,119.847 34.523,119.753 C34.6011,119.659 34.6584,119.586 34.6949,119.534 C34.7313,119.482 35.0256,119.138 35.5777,118.503 C35.7027,118.367 35.8277,118.227 35.9527,118.081 C36.0777,117.935 36.1793,117.818 36.2574,117.729 C36.3355,117.641 36.3954,117.581 36.4371,117.55 C35.9683,115.998 35.6715,114.758 35.5465,113.831 C35.4631,113.091 35.4215,112.076 35.4215,110.784 C35.4215,109.649 35.6819,108.586 36.2027,107.597 C36.7027,106.576 37.411,105.737 38.3277,105.081 C38.3902,105.039 38.4527,105.018 38.5152,105.018 C38.609,105.018 38.6767,105.039 38.7183,105.081 C39.4162,105.925 40.0204,107.024 40.5308,108.378 C41.0517,109.732 41.3121,110.966 41.3121,112.081 C41.3121,113.331 41.0152,114.503 40.4215,115.597 C39.7444,116.753 38.8694,117.951 37.7965,119.19 C38.0673,120.044 38.4319,121.388 38.8902,123.222 M40.5465,132.315 C41.2235,132.065 41.7548,131.643 42.1402,131.05 C42.5569,130.477 42.7652,129.831 42.7652,129.112 C42.7652,128.185 42.4527,127.362 41.8277,126.643 C41.1819,125.904 40.3642,125.487 39.3746,125.393 C39.9371,128.143 40.3277,130.451 40.5465,132.315 M32.9996,127.8 C32.9996,129.091 33.5204,130.227 34.5621,131.206 C35.6246,132.154 36.8225,132.628 38.1558,132.628 C38.6975,132.628 39.2287,132.586 39.7496,132.503 C39.5412,130.524 39.1298,128.154 38.5152,125.393 C37.7756,125.477 37.1871,125.737 36.7496,126.175 C36.3121,126.633 36.0933,127.149 36.0933,127.722 C36.0933,128.711 36.6246,129.513 37.6871,130.128 C37.7704,130.222 37.8121,130.32 37.8121,130.425 C37.8121,130.529 37.7704,130.623 37.6871,130.706 C37.6037,130.8 37.5048,130.847 37.3902,130.847 C37.3798,130.847 37.3225,130.836 37.2183,130.815 C36.4683,130.409 35.8954,129.888 35.4996,129.253 C35.1142,128.565 34.9215,127.878 34.9215,127.19 C34.9215,126.294 35.2027,125.482 35.7652,124.753 C36.3485,124.024 37.109,123.555 38.0465,123.347 C37.6819,121.888 37.385,120.748 37.1558,119.925 C36.9475,120.164 36.6975,120.448 36.4058,120.776 C36.1142,121.104 35.9423,121.305 35.8902,121.378 C35.4215,121.982 35.0621,122.456 34.8121,122.8 C34.3642,123.414 34.036,123.94 33.8277,124.378 C33.609,124.878 33.4162,125.419 33.2496,126.003 C33.0829,126.565 32.9996,127.164 32.9996,127.8 M39.5152,107.94 C38.536,108.419 37.7704,109.107 37.2183,110.003 C36.6454,110.93 36.359,111.925 36.359,112.987 C36.359,113.925 36.5933,115.19 37.0621,116.784 C37.9996,115.649 38.7027,114.602 39.1715,113.643 C39.661,112.623 39.9058,111.56 39.9058,110.456 C39.9058,109.623 39.7756,108.784 39.5152,107.94"/>
<path class="KeySig" d="M57.673,125.018 L57.673,126.565 C57.673,127.117 57.6991,127.555 57.7512,127.878 C58.1782,127.513 58.4855,127.242 58.673,127.065 C58.8814,126.857 59.0897,126.568 59.298,126.198 C59.5064,125.828 59.6105,125.461 59.6105,125.097 C59.6105,124.732 59.5324,124.419 59.3762,124.159 C59.2199,123.899 59.0116,123.768 58.7512,123.768 C58.4387,123.768 58.1782,123.888 57.9699,124.128 C57.772,124.388 57.673,124.685 57.673,125.018 M56.8449,128.597 L56.5949,116.706 C56.7824,116.602 56.9673,116.55 57.1496,116.55 C57.3319,116.55 57.5116,116.602 57.6887,116.706 L57.5324,123.597 C58.0637,123.138 58.6782,122.909 59.3762,122.909 C59.8762,122.909 60.2954,123.117 60.634,123.534 C60.9725,123.951 61.1418,124.43 61.1418,124.972 C61.1418,125.305 61.0324,125.664 60.8137,126.05 C60.6053,126.393 60.3866,126.664 60.1574,126.862 C60.022,126.966 59.6887,127.227 59.1574,127.643 C59.0012,127.758 58.8163,127.893 58.6027,128.05 C58.3892,128.206 58.2564,128.305 58.2043,128.347 C58.1105,128.399 58.022,128.503 57.9387,128.659 C57.8553,128.794 57.7512,128.904 57.6262,128.987 C57.5428,129.07 57.4361,129.112 57.3058,129.112 C57.1756,129.112 57.0689,129.065 56.9855,128.972 C56.8918,128.878 56.8449,128.753 56.8449,128.597"/>
<path class="KeySig" d="M52.673,115.018 L52.673,116.565 C52.673,117.117 52.6991,117.555 52.7512,117.878 C53.1782,117.513 53.4855,117.242 53.673,117.065 C53.8814,116.857 54.0897,116.568 54.298,116.198 C54.5064,115.828 54.6105,115.461 54.6105,115.097 C54.6105,114.732 54.5324,114.419 54.3762,114.159 C54.2199,113.899 54.0116,113.768 53.7512,113.768 C53.4387,113.768 53.1782,113.888 52.9699,114.128 C52.772,114.388 52.673,114.685 52.673,115.018 M51.8449,118.597 L51.5949,106.706 C51.7824,106.602 51.9673,106.55 52.1496,106.55 C52.3319,106.55 52.5116,106.602 52.6887,106.706 L52.5324,113.597 C53.0637,113.138 53.6782,112.909 54.3762,112.909 C54.8762,112.909 55.2954,113.117 55.634,113.534 C55.9725,113.951 56.1418,114.43 56.1418,114.972 C56.1418,115.305 56.0324,115.664 55.8137,116.05 C55.6053,116.393 55.3866,116.664 55.1574,116.862 C55.022,116.966 54.6887,117.227 54.1574,117.643 C54.0012,117.758 53.8163,117.893 53.6027,118.05 C53.3892,118.206 53.2564,118.305 53.2043,118.347 C53.1105,118.399 53.022,118.503 52.9387,118.659 C52.8553,118.794 52.7512,118.904 52.6262,118.987 C52.5428,119.07 52.436,119.112 52.3058,119.112 C52.1756,119.112 52.0689,119.065 51.9855,118.972 C51.8918,118.878 51.8449,118.753 51.8449,118.597"/>
<path class="KeySig" d="M47.673,122.518 L47.673,124.065 C47.673,124.617 47.6991,125.055 47.7511,125.378 C48.1782,125.013 48.4855,124.742 48.673,124.565 C48.8814,124.357 49.0897,124.068 49.298,123.698 C49.5064,123.328 49.6105,122.961 49.6105,122.597 C49.6105,122.232 49.5324,121.919 49.3761,121.659 C49.2199,121.399 49.0116,121.268 48.7511,121.268 C48.4386,121.268 48.1782,121.388 47.9699,121.628 C47.772,121.888 47.673,122.185 47.673,122.518 M46.8449,126.097 L46.5949,114.206 C46.7824,114.102 46.9673,114.05 47.1496,114.05 C47.3319,114.05 47.5116,114.102 47.6886,114.206 L47.5324,121.097 C48.0636,120.638 48.6782,120.409 49.3761,120.409 C49.8761,120.409 50.2954,120.617 50.634,121.034 C50.9725,121.451 51.1418,121.93 51.1418,122.472 C51.1418,122.805 51.0324,123.164 50.8136,123.55 C50.6053,123.893 50.3866,124.164 50.1574,124.362 C50.022,124.466 49.6886,124.727 49.1574,125.143 C49.0011,125.258 48.8163,125.393 48.6027,125.55 C48.3892,125.706 48.2564,125.805 48.2043,125.847 C48.1105,125.899 48.022,126.003 47.9386,126.159 C47.8553,126.294 47.7511,126.404 47.6261,126.487 C47.5428,126.57 47.436,126.612 47.3058,126.612 C47.1756,126.612 47.0689,126.565 46.9855,126.472 C46.8918,126.378 46.8449,126.253 46.8449,126.097"/>
<path class="TimeSig" d="M68.6574,123.347 C68.2616,123.347 67.9074,123.276 67.5949,123.136 C67.2824,122.995 67.0637,122.847 66.9387,122.69 C66.7616,122.492 66.5897,122.341 66.423,122.237 C66.2147,122.091 66.0012,122.018 65.7824,122.018 C65.4387,122.018 65.1574,122.123 64.9387,122.331 C64.7095,122.529 64.5793,122.794 64.548,123.128 C64.5272,123.274 64.4491,123.347 64.3137,123.347 C64.1574,123.347 64.0793,123.274 64.0793,123.128 C64.0793,122.628 64.1991,122.175 64.4387,121.768 C64.6678,121.352 64.9543,121.008 65.298,120.737 C65.5793,120.487 65.9543,120.185 66.423,119.831 C66.5064,119.768 66.673,119.633 66.923,119.425 C67.173,119.216 67.3866,119.039 67.5637,118.893 C67.897,118.612 68.1887,118.232 68.4387,117.753 C68.6678,117.284 68.7824,116.779 68.7824,116.237 C68.7824,115.57 68.673,114.998 68.4543,114.518 C68.2251,114.05 67.8657,113.815 67.3762,113.815 C67.0845,113.815 66.8449,113.878 66.6574,114.003 C66.4595,114.138 66.3605,114.315 66.3605,114.534 C66.3605,114.722 66.4777,114.951 66.7121,115.222 C66.9465,115.492 67.0637,115.722 67.0637,115.909 C67.0637,116.294 66.9282,116.623 66.6574,116.893 C66.397,117.154 66.0793,117.284 65.7043,117.284 C65.3085,117.284 64.9751,117.149 64.7043,116.878 C64.4439,116.597 64.3137,116.274 64.3137,115.909 C64.3137,115.159 64.6131,114.544 65.2121,114.065 C65.8111,113.586 66.5324,113.347 67.3762,113.347 C68.3866,113.347 69.2616,113.617 70.0012,114.159 C70.7407,114.68 71.1105,115.373 71.1105,116.237 C71.1105,116.82 71.0064,117.32 70.798,117.737 C70.6001,118.185 70.3085,118.534 69.923,118.784 C69.4751,119.065 69.0897,119.284 68.7668,119.44 C68.3085,119.649 67.8553,119.847 67.4074,120.034 C66.8553,120.253 66.4282,120.461 66.1262,120.659 C66.3032,120.617 66.4803,120.597 66.6574,120.597 C67.2616,120.597 67.8866,120.789 68.5324,121.175 C69.1991,121.57 69.7147,121.768 70.0793,121.768 C70.298,121.768 70.4751,121.727 70.6105,121.643 C70.7355,121.57 70.8189,121.487 70.8605,121.393 C70.9126,121.268 70.9595,121.18 71.0012,121.128 C71.0532,121.044 71.1157,121.003 71.1887,121.003 C71.3449,121.003 71.423,121.081 71.423,121.237 C71.423,121.602 71.1626,122.044 70.6418,122.565 C70.1314,123.086 69.4699,123.347 68.6574,123.347"/>
<path class="TimeSig" d="M68.2355,123.597 C68.621,123.597 68.9517,123.552 69.2277,123.464 C69.5038,123.375 69.6782,123.331 69.7512,123.331 C69.8449,123.331 69.9178,123.357 69.9699,123.409 C70.0116,123.44 70.0376,123.482 70.048,123.534 C70.048,123.565 70.0324,123.607 70.0012,123.659 L64.3293,130.268 L67.6574,130.268 L67.6574,127.643 C67.6574,127.477 67.7043,127.331 67.798,127.206 C67.9543,127.081 68.0845,127.003 68.1887,126.972 C68.3553,126.899 68.5637,126.716 68.8137,126.425 C69.022,126.195 69.272,125.789 69.5637,125.206 C69.5949,125.123 69.6522,125.081 69.7355,125.081 C69.8918,125.081 69.9803,125.175 70.0012,125.362 L70.0012,130.268 L71.4387,130.268 C71.6157,130.268 71.7199,130.362 71.7512,130.55 C71.7512,130.748 71.647,130.847 71.4387,130.847 L70.0012,130.847 L70.0012,131.003 C70.0012,131.524 70.1314,131.966 70.3918,132.331 C70.6939,132.695 71.048,132.878 71.4543,132.878 C71.6105,132.878 71.6887,132.956 71.6887,133.112 C71.6887,133.268 71.6105,133.347 71.4543,133.347 C71.1835,133.347 70.7407,133.31 70.1262,133.237 C69.5637,133.143 69.1262,133.097 68.8137,133.097 C68.4907,133.097 68.0532,133.143 67.5012,133.237 C66.9178,133.31 66.4855,133.347 66.2043,133.347 C66.048,133.347 65.9699,133.268 65.9699,133.112 C65.9699,132.956 66.048,132.878 66.2043,132.878 C66.6001,132.878 66.9491,132.695 67.2512,132.331 C67.522,131.966 67.6574,131.524 67.6574,131.003 L67.6574,130.847 L64.3293,130.847 C64.1001,130.847 63.9439,130.794 63.8605,130.69 C63.746,130.617 63.6887,130.513 63.6887,130.378 C63.6887,130.336 63.7876,130.201 63.9855,129.972 C64.2147,129.711 64.4491,129.393 64.6887,129.018 C64.9803,128.57 65.2564,128.112 65.5168,127.643 C65.798,127.112 66.0272,126.498 66.2043,125.8 C66.3918,125.102 66.4855,124.388 66.4855,123.659 C66.4855,123.451 66.5793,123.347 66.7668,123.347 C66.8085,123.347 66.8918,123.367 67.0168,123.409 C67.0585,123.419 67.1418,123.438 67.2668,123.464 C67.3918,123.49 67.4907,123.513 67.5637,123.534 C67.8032,123.576 68.0272,123.597 68.2355,123.597"/>
<path class="Rest" d="M507.358,121.472 L500.249,121.472 C500.113,121.472 500.046,121.409 500.046,121.284 L500.046,118.55 C500.046,118.414 500.113,118.347 500.249,118.347 L507.358,118.347 C507.483,118.347 507.546,118.414 507.546,118.55 L507.546,121.284 C507.546,121.409 507.483,121.472 507.358,121.472"/>
<path class="Rest" d="M390.563,121.472 L383.453,121.472 C383.318,121.472 383.25,121.409 383.25,121.284 L383.25,118.55 C383.25,118.414 383.318,118.347 383.453,118.347 L390.563,118.347 C390.688,118.347 390.75,118.414 390.75,118.55 L390.75,121.284 C390.75,121.409 390.688,121.472 390.563,121.472"/>
<path class="Rest" d="M81.9918,119.237 C82.3668,119.237 82.6533,119.341 82.8512,119.55 C83.0491,119.789 83.1533,120.013 83.1637,120.222 C83.1949,120.419 83.2626,120.638 83.3668,120.878 C83.4814,121.086 83.6272,121.19 83.8043,121.19 C83.9501,121.19 84.1689,121.029 84.4605,120.706 C84.721,120.425 84.9085,120.169 85.023,119.94 C85.0855,119.815 85.1741,119.753 85.2887,119.753 L85.3199,119.753 C85.4449,119.763 85.5335,119.826 85.5855,119.94 L83.1324,128.347 C82.997,128.482 82.8121,128.55 82.5777,128.55 C82.3434,128.55 82.1637,128.482 82.0387,128.347 L84.3824,121.815 C83.5491,122.117 82.846,122.268 82.273,122.268 C81.8043,122.268 81.398,122.117 81.0543,121.815 C80.7001,121.534 80.523,121.159 80.523,120.69 C80.523,120.284 80.6689,119.945 80.9605,119.675 C81.2418,119.383 81.5855,119.237 81.9918,119.237"/>
<path class="Articulation" d="M221.462,107.956 C221.202,107.695 221.072,107.375 221.072,106.995 C221.072,106.615 221.202,106.294 221.462,106.034 C221.723,105.774 222.04,105.643 222.415,105.643 C222.79,105.643 223.108,105.774 223.369,106.034 C223.629,106.294 223.759,106.615 223.759,106.995 C223.759,107.375 223.629,107.695 223.369,107.956 C223.108,108.216 222.79,108.347 222.415,108.347 C222.04,108.347 221.723,108.216 221.462,107.956 M220.15,101.237 C220.827,100.893 221.582,100.722 222.415,100.722 C223.249,100.722 224.004,100.893 224.681,101.237 C225.421,101.57 226.009,101.992 226.447,102.503 C226.926,103.055 227.332,103.607 227.665,104.159 C228.02,104.732 228.296,105.315 228.494,105.909 C228.66,106.388 228.801,106.857 228.915,107.315 C229.009,107.659 229.056,107.904 229.056,108.05 C229.056,108.112 229.02,108.185 228.947,108.268 C228.843,108.32 228.754,108.347 228.681,108.347 C228.494,108.347 228.363,108.227 228.29,107.987 C228.051,106.518 227.374,105.268 226.259,104.237 C225.155,103.248 223.874,102.753 222.415,102.753 C220.957,102.753 219.676,103.248 218.572,104.237 C217.468,105.268 216.79,106.518 216.54,107.987 C216.499,108.227 216.369,108.347 216.15,108.347 C216.087,108.347 216.004,108.32 215.9,108.268 C215.817,108.185 215.775,108.112 215.775,108.05 C215.775,107.904 215.822,107.659 215.915,107.315 C216.03,106.857 216.171,106.388 216.337,105.909 C216.535,105.315 216.811,104.732 217.165,104.159 C217.499,103.607 217.91,103.055 218.4,102.503 C218.848,101.972 219.431,101.55 220.15,101.237"/>
<path class="Dynamic" d="M114.251,148.268 L113.298,151.362 C112.964,152.477 112.407,153.555 111.626,154.597 C110.834,155.638 110.027,156.159 109.204,156.159 C108.777,156.159 108.399,156.047 108.071,155.823 C107.743,155.599 107.579,155.31 107.579,154.956 C107.579,154.55 107.662,154.206 107.829,153.925 C108.006,153.654 108.251,153.508 108.563,153.487 C108.793,153.487 108.985,153.57 109.141,153.737 C109.298,153.904 109.376,154.097 109.376,154.315 C109.376,154.513 109.261,154.695 109.032,154.862 C108.793,155.008 108.668,155.175 108.657,155.362 C108.657,155.487 108.798,155.55 109.079,155.55 L109.204,155.55 C109.266,155.55 109.36,155.534 109.485,155.503 C109.558,155.492 109.647,155.451 109.751,155.378 C109.751,155.378 109.813,155.326 109.938,155.222 C110.022,155.107 110.074,155.024 110.095,154.972 C110.136,154.867 110.173,154.784 110.204,154.722 C110.246,154.68 110.282,154.576 110.313,154.409 C110.334,154.367 110.35,154.32 110.36,154.268 C110.371,154.216 110.381,154.18 110.391,154.159 C110.402,154.138 110.407,154.123 110.407,154.112 C110.459,153.904 110.496,153.779 110.516,153.737 C110.558,153.529 110.579,153.425 110.579,153.425 L111.86,148.268 L110.876,148.268 C110.782,148.268 110.714,148.237 110.673,148.175 C110.621,148.091 110.595,148.018 110.595,147.956 C110.595,147.873 110.621,147.8 110.673,147.737 C110.756,147.675 110.824,147.643 110.876,147.643 L112.048,147.643 C112.371,146.664 112.907,145.82 113.657,145.112 C114.397,144.383 115.194,144.018 116.048,144.018 C116.506,144.018 116.886,144.133 117.188,144.362 C117.511,144.581 117.678,144.867 117.688,145.222 C117.688,145.607 117.605,145.951 117.438,146.253 C117.24,146.524 116.996,146.664 116.704,146.675 C116.475,146.675 116.282,146.594 116.126,146.432 C115.97,146.271 115.891,146.081 115.891,145.862 C115.891,145.675 116.011,145.503 116.251,145.347 C116.49,145.19 116.605,145.013 116.595,144.815 C116.595,144.669 116.459,144.602 116.188,144.612 L116.141,144.612 C116.11,144.633 116.079,144.638 116.048,144.628 C115.819,144.628 115.626,144.685 115.47,144.8 C115.313,144.904 115.168,145.091 115.032,145.362 C114.99,145.435 114.957,145.508 114.931,145.581 C114.904,145.654 114.876,145.735 114.845,145.823 C114.813,145.912 114.787,145.972 114.766,146.003 C114.756,146.065 114.735,146.195 114.704,146.393 C114.662,146.581 114.626,146.742 114.595,146.878 C114.511,147.274 114.454,147.529 114.423,147.643 L115.501,147.643 C115.584,147.643 115.66,147.672 115.727,147.729 C115.795,147.787 115.829,147.86 115.829,147.948 C115.829,148.037 115.795,148.112 115.727,148.175 C115.66,148.237 115.584,148.268 115.501,148.268 L114.251,148.268 M119.532,148.268 L118.579,151.362 C118.246,152.477 117.688,153.555 116.907,154.597 C116.115,155.638 115.308,156.159 114.485,156.159 C114.058,156.159 113.681,156.047 113.352,155.823 C113.024,155.599 112.86,155.31 112.86,154.956 C112.86,154.55 112.944,154.206 113.11,153.925 C113.287,153.654 113.532,153.508 113.845,153.487 C114.074,153.487 114.266,153.57 114.423,153.737 C114.579,153.904 114.657,154.097 114.657,154.315 C114.657,154.513 114.543,154.695 114.313,154.862 C114.074,155.008 113.949,155.175 113.938,155.362 C113.938,155.487 114.079,155.55 114.36,155.55 L114.485,155.55 C114.548,155.55 114.641,155.534 114.766,155.503 C114.839,155.492 114.928,155.451 115.032,155.378 C115.032,155.378 115.095,155.326 115.22,155.222 C115.303,155.107 115.355,155.024 115.376,154.972 C115.418,154.867 115.454,154.784 115.485,154.722 C115.527,154.68 115.563,154.576 115.595,154.409 C115.615,154.367 115.631,154.32 115.641,154.268 C115.652,154.216 115.662,154.18 115.673,154.159 C115.683,154.138 115.688,154.123 115.688,154.112 C115.74,153.904 115.777,153.779 115.798,153.737 C115.839,153.529 115.86,153.425 115.86,153.425 L117.141,148.268 L116.157,148.268 C116.063,148.268 115.996,148.237 115.954,148.175 C115.902,148.091 115.876,148.018 115.876,147.956 C115.876,147.873 115.902,147.8 115.954,147.737 C116.037,147.675 116.105,147.643 116.157,147.643 L117.329,147.643 C117.652,146.664 118.188,145.82 118.938,145.112 C119.678,144.383 120.475,144.018 121.329,144.018 C121.787,144.018 122.168,144.133 122.47,144.362 C122.793,144.581 122.959,144.867 122.97,145.222 C122.97,145.607 122.886,145.951 122.72,146.253 C122.522,146.524 122.277,146.664 121.985,146.675 C121.756,146.675 121.563,146.594 121.407,146.432 C121.251,146.271 121.173,146.081 121.173,145.862 C121.173,145.675 121.293,145.503 121.532,145.347 C121.772,145.19 121.886,145.013 121.876,144.815 C121.876,144.669 121.74,144.602 121.47,144.612 L121.423,144.612 C121.391,144.633 121.36,144.638 121.329,144.628 C121.1,144.628 120.907,144.685 120.751,144.8 C120.595,144.904 120.449,145.091 120.313,145.362 C120.272,145.435 120.238,145.508 120.212,145.581 C120.186,145.654 120.157,145.735 120.126,145.823 C120.095,145.912 120.069,145.972 120.048,146.003 C120.037,146.065 120.016,146.195 119.985,146.393 C119.944,146.581 119.907,146.742 119.876,146.878 C119.793,147.274 119.735,147.529 119.704,147.643 L120.782,147.643 C120.865,147.643 120.941,147.672 121.009,147.729 C121.076,147.787 121.11,147.86 121.11,147.948 C121.11,148.037 121.076,148.112 121.009,148.175 C120.941,148.237 120.865,148.268 120.782,148.268 L119.532,148.268 "/>
<path class="Beam" fill-rule="evenodd" d="M152.297,112.097 L185.837,112.097 L185.837,114.597 L152.297,114.597 L152.297,112.097 "/>
<path class="Hook" d="M119.408,116.472 L119.408,111.472 L120.033,111.472 C120.033,112.211 120.179,112.956 120.47,113.706 C120.783,114.508 121.127,115.211 121.502,115.815 C121.772,116.242 122.184,116.899 122.736,117.784 C123.153,118.461 123.504,119.169 123.791,119.909 C124.077,120.649 124.22,121.393 124.22,122.143 C124.22,123.498 123.939,124.878 123.377,126.284 C123.283,126.44 123.158,126.518 123.002,126.518 C122.877,126.518 122.762,126.466 122.658,126.362 C122.575,126.279 122.533,126.18 122.533,126.065 L122.533,125.972 C123.095,124.68 123.377,123.404 123.377,122.143 C123.377,121.487 123.179,120.784 122.783,120.034 C122.397,119.263 122.002,118.649 121.595,118.19 C121.137,117.659 120.616,117.086 120.033,116.472 L119.408,116.472 "/>
</svg>
