<?xml version="1.0" encoding="UTF-8" standalone="no"?>
<svg width="595.44px" height="841.68px" viewBox="0 0 595.44 841.68"
 xmlns="http://www.w3.org/2000/svg" xmlns:xlink="http://www.w3.org/1999/xlink" version="1.2" baseProfile="tiny">
<title>Title</title>
<desc>Generated by MuseScore 2.3.2</desc>
<polyline class="StaffLines" fill="none" stroke="#000000" stroke-width="0.40" stroke-linejoin="bevel" points="28.3465,113.347 567.094,113.347"/>
<polyline class="StaffLines" fill="none" stroke="#000000" stroke-width="0.40" stroke-linejoin="bevel" points="28.3465,118.347 567.094,118.347"/>
<polyline class="StaffLines" fill="none" stroke="#000000" stroke-width="0.40" stroke-linejoin="bevel" points="28.3465,123.347 567.094,123.347"/>
<polyline class="StaffLines" fill="none" stroke="#000000" stroke-width="0.40" stroke-linejoin="bevel" points="28.3465,128.347 567.094,128.347"/>
<polyline class="StaffLines" fill="none" stroke="#000000" stroke-width="0.40" stroke-linejoin="bevel" points="28.3465,133.347 567.094,133.347"/>
<polyline class="StaffLines" fill="none" stroke="#000000" stroke-width="0.40" stroke-linejoin="bevel" points="28.3465,165.847 567.094,165.847"/>
<polyline class="StaffLines" fill="none" stroke="#000000" stroke-width="0.40" stroke-linejoin="bevel" points="28.3465,170.847 567.094,170.847"/>
<polyline class="StaffLines" fill="none" stroke="#000000" stroke-width="0.40" stroke-linejoin="bevel" points="28.3465,175.847 567.094,175.847"/>
<polyline class="StaffLines" fill="none" stroke="#000000" stroke-width="0.40" stroke-linejoin="bevel" points="28.3465,180.847 567.094,180.847"/>
<polyline class="StaffLines" fill="none" stroke="#000000" stroke-width="0.40" stroke-linejoin="bevel" points="28.3465,185.847 567.094,185.847"/>
<polyline class="BarLine" fill="none" stroke="#000000" stroke-width="0.80" stroke-linejoin="bevel" points="28.7465,113.347 28.7465,185.847"/>
<polyline class="BarLine" fill="none" stroke="#000000" stroke-width="0.80" stroke-linejoin="bevel" points="562.194,165.847 562.194,185.847"/>
<polyline class="BarLine" fill="none" stroke="#000000" stroke-width="2.50" stroke-linejoin="bevel" points="565.844,165.847 565.844,185.847"/>
<polyline class="BarLine" fill="none" stroke="#000000" stroke-width="0.80" stroke-linejoin="bevel" points="562.194,113.347 562.194,133.347"/>
<polyline class="BarLine" fill="none" stroke="#000000" stroke-width="2.50" stroke-linejoin="bevel" points="565.844,113.347 565.844,133.347"/>
<polyline class="BarLine" fill="none" stroke="#000000" stroke-width="0.80" stroke-linejoin="bevel" points="506.388,165.847 506.388,185.847"/>
<polyline class="BarLine" fill="none" stroke="#000000" stroke-width="0.80" stroke-linejoin="bevel" points="506.388,113.347 506.388,133.347"/>
<polyline class="BarLine" fill="none" stroke="#000000" stroke-width="0.80" stroke-linejoin="bevel" points="450.582,165.847 450.582,185.847"/>
<polyline class="BarLine" fill="none" stroke="#000000" stroke-width="0.80" stroke-linejoin="bevel" points="450.582,113.347 450.582,133.347"/>
<polyline class="BarLine" fill="none" stroke="#000000" stroke-width="0.80" stroke-linejoin="bevel" points="394.776,165.847 394.776,185.847"/>
<polyline class="BarLine" fill="none" stroke="#000000" stroke-width="0.80" stroke-linejoin="bevel" points="394.776,113.347 394.776,133.347"/>
<polyline class="BarLine" fill="none" stroke="#000000" stroke-width="0.80" stroke-linejoin="bevel" points="338.97,165.847 338.97,185.847"/>
<polyline class="BarLine" fill="none" stroke="#000000" stroke-width="0.80" stroke-linejoin="bevel" points="338.97,113.347 338.97,133.347"/>
<polyline class="BarLine" fill="none" stroke="#000000" stroke-width="0.80" stroke-linejoin="bevel" points="275.659,165.847 275.659,185.847"/>
<polyline class="BarLine" fill="none" stroke="#000000" stroke-width="0.80" stroke-linejoin="bevel" points="275.659,113.347 275.659,133.347"/>
<polyline class="BarLine" fill="none" stroke="#000000" stroke-width="0.80" stroke-linejoin="bevel" points="214.188,165.847 214.188,185.847"/>
<polyline class="BarLine" fill="none" stroke="#000000" stroke-width="0.80" stroke-linejoin="bevel" points="214.188,113.347 214.188,133.347"/>
<polyline class="BarLine" fill="none" stroke="#000000" stroke-width="0.80" stroke-linejoin="bevel" points="152.716,165.847 152.716,185.847"/>
<polyline class="BarLine" fill="none" stroke="#000000" stroke-width="0.80" stroke-linejoin="bevel" points="152.716,113.347 152.716,133.347"/>
<path class="Accidental" d="M278.503,115.847 C278.67,115.753 278.839,115.706 279.011,115.706 C279.183,115.706 279.352,115.753 279.519,115.847 L279.456,119.503 L281.597,119.112 L281.675,119.112 C281.904,119.112 282.019,119.222 282.019,119.44 L282.159,130.847 C281.993,130.94 281.824,130.987 281.652,130.987 C281.48,130.987 281.31,130.94 281.144,130.847 L281.206,127.19 L279.097,127.581 L279.019,127.581 C278.779,127.581 278.659,127.472 278.659,127.253 L278.503,115.847 M281.222,125.237 L281.284,121.097 L279.441,121.456 L279.378,125.597 L281.222,125.237 "/>
<path class="Accidental" d="M221.5,137.081 C221.5,137.331 221.378,137.456 221.133,137.456 C220.888,137.456 220.766,137.331 220.766,137.081 L220.766,134.19 L219.11,134.815 L219.11,137.972 C219.11,138.222 218.985,138.347 218.735,138.347 C218.485,138.347 218.36,138.222 218.36,137.972 L218.36,135.065 L217.735,135.3 C217.724,135.31 217.672,135.315 217.579,135.315 C217.474,135.315 217.383,135.276 217.305,135.198 C217.227,135.12 217.188,135.029 217.188,134.925 L217.188,133.722 C217.188,133.524 217.271,133.399 217.438,133.347 L218.36,133.034 L218.36,129.831 L217.735,130.05 C217.724,130.06 217.672,130.065 217.579,130.065 C217.474,130.065 217.383,130.026 217.305,129.948 C217.227,129.87 217.188,129.779 217.188,129.675 L217.188,128.456 C217.188,128.279 217.271,128.164 217.438,128.112 L218.36,127.753 L218.36,124.612 C218.36,124.362 218.485,124.237 218.735,124.237 C218.985,124.237 219.11,124.362 219.11,124.612 L219.11,127.503 L220.766,126.878 L220.766,123.722 C220.766,123.472 220.888,123.347 221.133,123.347 C221.378,123.347 221.5,123.472 221.5,123.722 L221.5,126.628 L222.157,126.393 C222.167,126.383 222.209,126.378 222.282,126.378 C222.375,126.378 222.474,126.414 222.579,126.487 C222.662,126.57 222.704,126.664 222.704,126.768 L222.704,127.972 C222.704,128.159 222.61,128.284 222.422,128.347 L221.5,128.659 L221.5,131.862 L222.157,131.643 C222.167,131.633 222.209,131.628 222.282,131.628 C222.375,131.628 222.474,131.669 222.579,131.753 C222.662,131.826 222.704,131.914 222.704,132.018 L222.704,133.237 C222.704,133.404 222.61,133.518 222.422,133.581 L221.5,133.94 L221.5,137.081 M220.766,128.956 L219.11,129.534 L219.11,132.737 L220.766,132.159 L220.766,128.956 "/>
<path class="Accidental" d="M94.6007,155.847 C94.7674,155.753 94.9366,155.706 95.1085,155.706 C95.2804,155.706 95.4496,155.753 95.6163,155.847 L95.5538,159.503 L97.6944,159.112 L97.7726,159.112 C98.0017,159.112 98.1163,159.222 98.1163,159.44 L98.2569,170.847 C98.0903,170.94 97.921,170.987 97.7491,170.987 C97.5772,170.987 97.408,170.94 97.2413,170.847 L97.3038,167.19 L95.1944,167.581 L95.1163,167.581 C94.8767,167.581 94.7569,167.472 94.7569,167.253 L94.6007,155.847 M97.3194,165.237 L97.3819,161.097 L95.5382,161.456 L95.4757,165.597 L97.3194,165.237 "/>
<path class="Accidental" d="M94.6007,173.347 C94.7674,173.253 94.9366,173.206 95.1085,173.206 C95.2804,173.206 95.4496,173.253 95.6163,173.347 L95.5538,177.003 L97.6944,176.612 L97.7726,176.612 C98.0017,176.612 98.1163,176.722 98.1163,176.94 L98.2569,188.347 C98.0903,188.44 97.921,188.487 97.7491,188.487 C97.5772,188.487 97.408,188.44 97.2413,188.347 L97.3038,184.69 L95.1944,185.081 L95.1163,185.081 C94.8767,185.081 94.7569,184.972 94.7569,184.753 L94.6007,173.347 M97.3194,182.737 L97.3819,178.597 L95.5382,178.956 L95.4757,183.097 L97.3194,182.737 "/>
<polyline class="LedgerLine" fill="none" stroke="#000000" stroke-width="0.80" stroke-linecap="square" stroke-linejoin="bevel" points="222.296,138.347 231.879,138.347"/>
<polyline class="LedgerLine" fill="none" stroke="#000000" stroke-width="0.80" stroke-linecap="square" stroke-linejoin="bevel" points="157.616,160.847 167.199,160.847"/>
<polyline class="Stem" fill="none" stroke="#000000" stroke-width="0.65" stroke-linecap="round" stroke-linejoin="bevel" points="289.676,184.907 289.676,154.597"/>
<polyline class="Stem" fill="none" stroke="#000000" stroke-width="0.65" stroke-linecap="round" stroke-linejoin="bevel" points="283.743,124.286 283.743,142.722"/>
<polyline class="Stem" fill="none" stroke="#000000" stroke-width="0.65" stroke-linecap="round" stroke-linejoin="bevel" points="289.856,110.079 289.856,98.3465"/>
<polyline class="Stem" fill="none" stroke="#000000" stroke-width="0.65" stroke-linecap="round" stroke-linejoin="bevel" points="224.121,166.786 224.121,197.097"/>
<polyline class="Stem" fill="none" stroke="#000000" stroke-width="0.65" stroke-linecap="round" stroke-linejoin="bevel" points="230.054,137.407 230.054,105.846"/>
<polyline class="Stem" fill="none" stroke="#000000" stroke-width="0.65" stroke-linecap="round" stroke-linejoin="bevel" points="159.441,161.786 159.441,193.347"/>
<polyline class="Stem" fill="none" stroke="#000000" stroke-width="0.65" stroke-linecap="round" stroke-linejoin="bevel" points="159.441,116.786 159.441,142.722"/>
<polyline class="Stem" fill="none" stroke="#000000" stroke-width="0.65" stroke-linecap="round" stroke-linejoin="bevel" points="134.981,164.286 134.981,194.597"/>
<polyline class="Stem" fill="none" stroke="#000000" stroke-width="0.65" stroke-linecap="round" stroke-linejoin="bevel" points="134.981,114.286 134.981,142.097"/>
<polyline class="Stem" fill="none" stroke="#000000" stroke-width="0.65" stroke-linecap="round" stroke-linejoin="bevel" points="117.321,164.286 117.321,194.597"/>
<polyline class="Stem" fill="none" stroke="#000000" stroke-width="0.65" stroke-linecap="round" stroke-linejoin="bevel" points="117.321,111.786 117.321,142.097"/>
<polyline class="Stem" fill="none" stroke="#000000" stroke-width="0.65" stroke-linecap="round" stroke-linejoin="bevel" points="99.6601,164.286 99.6601,198.347"/>
<polyline class="Stem" fill="none" stroke="#000000" stroke-width="0.65" stroke-linecap="round" stroke-linejoin="bevel" points="99.6601,111.786 99.6601,145.847"/>
<path class="Note" d="M287.809,165.597 C288.434,165.597 288.965,165.758 289.402,166.081 C289.798,166.435 289.996,166.878 289.996,167.409 C289.996,168.305 289.538,169.143 288.621,169.925 C287.684,170.706 286.678,171.097 285.606,171.097 C284.981,171.097 284.455,170.935 284.027,170.612 C283.621,170.258 283.418,169.815 283.418,169.284 C283.418,168.388 283.887,167.55 284.824,166.768 C285.741,165.987 286.736,165.597 287.809,165.597"/>
<path class="Note" d="M287.809,173.097 C288.434,173.097 288.965,173.258 289.402,173.581 C289.798,173.935 289.996,174.378 289.996,174.909 C289.996,175.805 289.538,176.643 288.621,177.425 C287.684,178.206 286.678,178.597 285.606,178.597 C284.981,178.597 284.455,178.435 284.027,178.112 C283.621,177.758 283.418,177.315 283.418,176.784 C283.418,175.888 283.887,175.05 284.824,174.268 C285.741,173.487 286.736,173.097 287.809,173.097"/>
<path class="Note" d="M287.809,183.097 C288.434,183.097 288.965,183.258 289.402,183.581 C289.798,183.935 289.996,184.378 289.996,184.909 C289.996,185.805 289.538,186.643 288.621,187.425 C287.684,188.206 286.678,188.597 285.606,188.597 C284.981,188.597 284.455,188.435 284.027,188.112 C283.621,187.758 283.418,187.315 283.418,186.784 C283.418,185.888 283.887,185.05 284.824,184.268 C285.741,183.487 286.736,183.097 287.809,183.097"/>
<path class="Note" d="M287.809,120.597 C288.434,120.597 288.965,120.758 289.402,121.081 C289.798,121.435 289.996,121.878 289.996,122.409 C289.996,123.305 289.538,124.143 288.621,124.925 C287.684,125.706 286.678,126.097 285.606,126.097 C284.981,126.097 284.455,125.935 284.027,125.612 C283.621,125.258 283.418,124.815 283.418,124.284 C283.418,123.388 283.887,122.55 284.824,121.768 C285.741,120.987 286.736,120.597 287.809,120.597"/>
<path class="Note" d="M287.809,125.597 C288.434,125.597 288.965,125.758 289.402,126.081 C289.798,126.435 289.996,126.878 289.996,127.409 C289.996,128.305 289.538,129.143 288.621,129.925 C287.684,130.706 286.678,131.097 285.606,131.097 C284.981,131.097 284.455,130.935 284.027,130.612 C283.621,130.258 283.418,129.815 283.418,129.284 C283.418,128.388 283.887,127.55 284.824,126.768 C285.741,125.987 286.736,125.597 287.809,125.597"/>
<path class="Note" d="M289.55,109.534 C289.55,109.315 289.467,109.128 289.3,108.972 C289.123,108.805 288.925,108.722 288.706,108.722 C288.321,108.722 287.534,109.112 286.347,109.893 C285.118,110.685 284.368,111.253 284.097,111.597 C283.951,111.774 283.878,111.961 283.878,112.159 C283.878,112.378 283.967,112.565 284.144,112.722 C284.3,112.888 284.493,112.972 284.722,112.972 C285.097,112.972 285.894,112.581 287.113,111.8 C288.31,111.018 289.05,110.451 289.331,110.097 C289.477,109.93 289.55,109.742 289.55,109.534 M288.519,108.097 C289.633,108.097 290.191,108.576 290.191,109.534 C290.191,110.003 290.055,110.55 289.784,111.175 C289.514,111.789 289.149,112.258 288.691,112.581 C287.691,113.258 286.435,113.597 284.925,113.597 C283.8,113.597 283.238,113.117 283.238,112.159 C283.238,111.732 283.373,111.19 283.644,110.534 C283.904,109.909 284.269,109.435 284.738,109.112 C285.748,108.435 287.008,108.097 288.519,108.097"/>
<path class="Note" d="M228.186,163.097 C228.811,163.097 229.343,163.258 229.78,163.581 C230.176,163.935 230.374,164.378 230.374,164.909 C230.374,165.805 229.916,166.643 228.999,167.425 C228.061,168.206 227.056,168.597 225.983,168.597 C225.358,168.597 224.832,168.435 224.405,168.112 C223.999,167.758 223.796,167.315 223.796,166.784 C223.796,165.888 224.265,165.05 225.202,164.268 C226.119,163.487 227.113,163.097 228.186,163.097"/>
<path class="Note" d="M228.186,175.597 C228.811,175.597 229.343,175.758 229.78,176.081 C230.176,176.435 230.374,176.878 230.374,177.409 C230.374,178.305 229.916,179.143 228.999,179.925 C228.061,180.706 227.056,181.097 225.983,181.097 C225.358,181.097 224.832,180.935 224.405,180.612 C223.999,180.258 223.796,179.815 223.796,179.284 C223.796,178.388 224.265,177.55 225.202,176.768 C226.119,175.987 227.113,175.597 228.186,175.597"/>
<path class="Note" d="M228.186,180.597 C228.811,180.597 229.343,180.758 229.78,181.081 C230.176,181.435 230.374,181.878 230.374,182.409 C230.374,183.305 229.916,184.143 228.999,184.925 C228.061,185.706 227.056,186.097 225.983,186.097 C225.358,186.097 224.832,185.935 224.405,185.612 C223.999,185.258 223.796,184.815 223.796,184.284 C223.796,183.388 224.265,182.55 225.202,181.768 C226.119,180.987 227.113,180.597 228.186,180.597"/>
<path class="Note" d="M228.186,118.097 C228.811,118.097 229.343,118.258 229.78,118.581 C230.176,118.935 230.374,119.378 230.374,119.909 C230.374,120.805 229.916,121.643 228.999,122.425 C228.061,123.206 227.056,123.597 225.983,123.597 C225.358,123.597 224.832,123.435 224.405,123.112 C223.999,122.758 223.796,122.315 223.796,121.784 C223.796,120.888 224.265,120.05 225.202,119.268 C226.119,118.487 227.113,118.097 228.186,118.097"/>
<path class="Note" d="M228.186,128.097 C228.811,128.097 229.343,128.258 229.78,128.581 C230.176,128.935 230.374,129.378 230.374,129.909 C230.374,130.805 229.916,131.643 228.999,132.425 C228.061,133.206 227.056,133.597 225.983,133.597 C225.358,133.597 224.832,133.435 224.405,133.112 C223.999,132.758 223.796,132.315 223.796,131.784 C223.796,130.888 224.265,130.05 225.202,129.268 C226.119,128.487 227.113,128.097 228.186,128.097"/>
<path class="Note" d="M228.186,135.597 C228.811,135.597 229.343,135.758 229.78,136.081 C230.176,136.435 230.374,136.878 230.374,137.409 C230.374,138.305 229.916,139.143 228.999,139.925 C228.061,140.706 227.056,141.097 225.983,141.097 C225.358,141.097 224.832,140.935 224.405,140.612 C223.999,140.258 223.796,139.815 223.796,139.284 C223.796,138.388 224.265,137.55 225.202,136.768 C226.119,135.987 227.113,135.597 228.186,135.597"/>
<path class="Note" d="M163.507,158.097 C164.132,158.097 164.663,158.258 165.101,158.581 C165.497,158.935 165.695,159.378 165.695,159.909 C165.695,160.805 165.236,161.643 164.32,162.425 C163.382,163.206 162.377,163.597 161.304,163.597 C160.679,163.597 160.153,163.435 159.726,163.112 C159.32,162.758 159.116,162.315 159.116,161.784 C159.116,160.888 159.585,160.05 160.523,159.268 C161.439,158.487 162.434,158.097 163.507,158.097"/>
<path class="Note" d="M163.507,165.597 C164.132,165.597 164.663,165.758 165.101,166.081 C165.497,166.435 165.695,166.878 165.695,167.409 C165.695,168.305 165.236,169.143 164.32,169.925 C163.382,170.706 162.377,171.097 161.304,171.097 C160.679,171.097 160.153,170.935 159.726,170.612 C159.32,170.258 159.116,169.815 159.116,169.284 C159.116,168.388 159.585,167.55 160.523,166.768 C161.439,165.987 162.434,165.597 163.507,165.597"/>
<path class="Note" d="M163.507,175.597 C164.132,175.597 164.663,175.758 165.101,176.081 C165.497,176.435 165.695,176.878 165.695,177.409 C165.695,178.305 165.236,179.143 164.32,179.925 C163.382,180.706 162.377,181.097 161.304,181.097 C160.679,181.097 160.153,180.935 159.726,180.612 C159.32,180.258 159.116,179.815 159.116,179.284 C159.116,178.388 159.585,177.55 160.523,176.768 C161.439,175.987 162.434,175.597 163.507,175.597"/>
<path class="Note" d="M163.507,113.097 C164.132,113.097 164.663,113.258 165.101,113.581 C165.497,113.935 165.695,114.378 165.695,114.909 C165.695,115.805 165.236,116.643 164.32,117.425 C163.382,118.206 162.377,118.597 161.304,118.597 C160.679,118.597 160.153,118.435 159.726,118.112 C159.32,117.758 159.116,117.315 159.116,116.784 C159.116,115.888 159.585,115.05 160.523,114.268 C161.439,113.487 162.434,113.097 163.507,113.097"/>
<path class="Note" d="M163.507,118.097 C164.132,118.097 164.663,118.258 165.101,118.581 C165.497,118.935 165.695,119.378 165.695,119.909 C165.695,120.805 165.236,121.643 164.32,122.425 C163.382,123.206 162.377,123.597 161.304,123.597 C160.679,123.597 160.153,123.435 159.726,123.112 C159.32,122.758 159.116,122.315 159.116,121.784 C159.116,120.888 159.585,120.05 160.523,119.268 C161.439,118.487 162.434,118.097 163.507,118.097"/>
<path class="Note" d="M163.507,125.597 C164.132,125.597 164.663,125.758 165.101,126.081 C165.497,126.435 165.695,126.878 165.695,127.409 C165.695,128.305 165.236,129.143 164.32,129.925 C163.382,130.706 162.377,131.097 161.304,131.097 C160.679,131.097 160.153,130.935 159.726,130.612 C159.32,130.258 159.116,129.815 159.116,129.284 C159.116,128.388 159.585,127.55 160.523,126.768 C161.439,125.987 162.434,125.597 163.507,125.597"/>
<path class="Note" d="M139.047,160.597 C139.672,160.597 140.203,160.758 140.64,161.081 C141.036,161.435 141.234,161.878 141.234,162.409 C141.234,163.305 140.776,164.143 139.859,164.925 C138.922,165.706 137.916,166.097 136.843,166.097 C136.218,166.097 135.692,165.935 135.265,165.612 C134.859,165.258 134.656,164.815 134.656,164.284 C134.656,163.388 135.125,162.55 136.062,161.768 C136.979,160.987 137.974,160.597 139.047,160.597"/>
<path class="Note" d="M139.047,165.597 C139.672,165.597 140.203,165.758 140.64,166.081 C141.036,166.435 141.234,166.878 141.234,167.409 C141.234,168.305 140.776,169.143 139.859,169.925 C138.922,170.706 137.916,171.097 136.843,171.097 C136.218,171.097 135.692,170.935 135.265,170.612 C134.859,170.258 134.656,169.815 134.656,169.284 C134.656,168.388 135.125,167.55 136.062,166.768 C136.979,165.987 137.974,165.597 139.047,165.597"/>
<path class="Note" d="M139.047,178.097 C139.672,178.097 140.203,178.258 140.64,178.581 C141.036,178.935 141.234,179.378 141.234,179.909 C141.234,180.805 140.776,181.643 139.859,182.425 C138.922,183.206 137.916,183.597 136.843,183.597 C136.218,183.597 135.692,183.435 135.265,183.112 C134.859,182.758 134.656,182.315 134.656,181.784 C134.656,180.888 135.125,180.05 136.062,179.268 C136.979,178.487 137.974,178.097 139.047,178.097"/>
<path class="Note" d="M139.047,110.597 C139.672,110.597 140.203,110.758 140.64,111.081 C141.036,111.435 141.234,111.878 141.234,112.409 C141.234,113.305 140.776,114.143 139.859,114.925 C138.922,115.706 137.916,116.097 136.843,116.097 C136.218,116.097 135.692,115.935 135.265,115.612 C134.859,115.258 134.656,114.815 134.656,114.284 C134.656,113.388 135.125,112.55 136.062,111.768 C136.979,110.987 137.974,110.597 139.047,110.597"/>
<path class="Note" d="M139.047,115.597 C139.672,115.597 140.203,115.758 140.64,116.081 C141.036,116.435 141.234,116.878 141.234,117.409 C141.234,118.305 140.776,119.143 139.859,119.925 C138.922,120.706 137.916,121.097 136.843,121.097 C136.218,121.097 135.692,120.935 135.265,120.612 C134.859,120.258 134.656,119.815 134.656,119.284 C134.656,118.388 135.125,117.55 136.062,116.768 C136.979,115.987 137.974,115.597 139.047,115.597"/>
<path class="Note" d="M139.047,125.597 C139.672,125.597 140.203,125.758 140.64,126.081 C141.036,126.435 141.234,126.878 141.234,127.409 C141.234,128.305 140.776,129.143 139.859,129.925 C138.922,130.706 137.916,131.097 136.843,131.097 C136.218,131.097 135.692,130.935 135.265,130.612 C134.859,130.258 134.656,129.815 134.656,129.284 C134.656,128.388 135.125,127.55 136.062,126.768 C136.979,125.987 137.974,125.597 139.047,125.597"/>
<path class="Note" d="M121.386,160.597 C122.011,160.597 122.542,160.758 122.98,161.081 C123.376,161.435 123.574,161.878 123.574,162.409 C123.574,163.305 123.115,164.143 122.199,164.925 C121.261,165.706 120.256,166.097 119.183,166.097 C118.558,166.097 118.032,165.935 117.605,165.612 C117.199,165.258 116.996,164.815 116.996,164.284 C116.996,163.388 117.464,162.55 118.402,161.768 C119.318,160.987 120.313,160.597 121.386,160.597"/>
<path class="Note" d="M121.386,165.597 C122.011,165.597 122.542,165.758 122.98,166.081 C123.376,166.435 123.574,166.878 123.574,167.409 C123.574,168.305 123.115,169.143 122.199,169.925 C121.261,170.706 120.256,171.097 119.183,171.097 C118.558,171.097 118.032,170.935 117.605,170.612 C117.199,170.258 116.996,169.815 116.996,169.284 C116.996,168.388 117.464,167.55 118.402,166.768 C119.318,165.987 120.313,165.597 121.386,165.597"/>
<path class="Note" d="M121.386,178.097 C122.011,178.097 122.542,178.258 122.98,178.581 C123.376,178.935 123.574,179.378 123.574,179.909 C123.574,180.805 123.115,181.643 122.199,182.425 C121.261,183.206 120.256,183.597 119.183,183.597 C118.558,183.597 118.032,183.435 117.605,183.112 C117.199,182.758 116.996,182.315 116.996,181.784 C116.996,180.888 117.464,180.05 118.402,179.268 C119.318,178.487 120.313,178.097 121.386,178.097"/>
<path class="Note" d="M121.386,108.097 C122.011,108.097 122.542,108.258 122.98,108.581 C123.376,108.935 123.574,109.378 123.574,109.909 C123.574,110.805 123.115,111.643 122.199,112.425 C121.261,113.206 120.256,113.597 119.183,113.597 C118.558,113.597 118.032,113.435 117.605,113.112 C117.199,112.758 116.996,112.315 116.996,111.784 C116.996,110.888 117.464,110.05 118.402,109.268 C119.318,108.487 120.313,108.097 121.386,108.097"/>
<path class="Note" d="M121.386,115.597 C122.011,115.597 122.542,115.758 122.98,116.081 C123.376,116.435 123.574,116.878 123.574,117.409 C123.574,118.305 123.115,119.143 122.199,119.925 C121.261,120.706 120.256,121.097 119.183,121.097 C118.558,121.097 118.032,120.935 117.605,120.612 C117.199,120.258 116.996,119.815 116.996,119.284 C116.996,118.388 117.464,117.55 118.402,116.768 C119.318,115.987 120.313,115.597 121.386,115.597"/>
<path class="Note" d="M121.386,125.597 C122.011,125.597 122.542,125.758 122.98,126.081 C123.376,126.435 123.574,126.878 123.574,127.409 C123.574,128.305 123.115,129.143 122.199,129.925 C121.261,130.706 120.256,131.097 119.183,131.097 C118.558,131.097 118.032,130.935 117.605,130.612 C117.199,130.258 116.996,129.815 116.996,129.284 C116.996,128.388 117.464,127.55 118.402,126.768 C119.318,125.987 120.313,125.597 121.386,125.597"/>
<path class="Note" d="M103.726,160.597 C104.351,160.597 104.882,160.758 105.319,161.081 C105.715,161.435 105.913,161.878 105.913,162.409 C105.913,163.305 105.455,164.143 104.538,164.925 C103.601,165.706 102.595,166.097 101.523,166.097 C100.898,166.097 100.372,165.935 99.9444,165.612 C99.5382,165.258 99.3351,164.815 99.3351,164.284 C99.3351,163.388 99.8038,162.55 100.741,161.768 C101.658,160.987 102.653,160.597 103.726,160.597"/>
<path class="Note" d="M103.726,165.597 C104.351,165.597 104.882,165.758 105.319,166.081 C105.715,166.435 105.913,166.878 105.913,167.409 C105.913,168.305 105.455,169.143 104.538,169.925 C103.601,170.706 102.595,171.097 101.523,171.097 C100.898,171.097 100.372,170.935 99.9444,170.612 C99.5382,170.258 99.3351,169.815 99.3351,169.284 C99.3351,168.388 99.8038,167.55 100.741,166.768 C101.658,165.987 102.653,165.597 103.726,165.597"/>
<path class="Note" d="M103.726,178.097 C104.351,178.097 104.882,178.258 105.319,178.581 C105.715,178.935 105.913,179.378 105.913,179.909 C105.913,180.805 105.455,181.643 104.538,182.425 C103.601,183.206 102.595,183.597 101.523,183.597 C100.898,183.597 100.372,183.435 99.9444,183.112 C99.5382,182.758 99.3351,182.315 99.3351,181.784 C99.3351,180.888 99.8038,180.05 100.741,179.268 C101.658,178.487 102.653,178.097 103.726,178.097"/>
<path class="Note" d="M103.726,108.097 C104.351,108.097 104.882,108.258 105.319,108.581 C105.715,108.935 105.913,109.378 105.913,109.909 C105.913,110.805 105.455,111.643 104.538,112.425 C103.601,113.206 102.595,113.597 101.523,113.597 C100.898,113.597 100.372,113.435 99.9444,113.112 C99.5382,112.758 99.3351,112.315 99.3351,111.784 C99.3351,110.888 99.8038,110.05 100.741,109.268 C101.658,108.487 102.653,108.097 103.726,108.097"/>
<path class="Note" d="M103.726,115.597 C104.351,115.597 104.882,115.758 105.319,116.081 C105.715,116.435 105.913,116.878 105.913,117.409 C105.913,118.305 105.455,119.143 104.538,119.925 C103.601,120.706 102.595,121.097 101.523,121.097 C100.898,121.097 100.372,120.935 99.9444,120.612 C99.5382,120.258 99.3351,119.815 99.3351,119.284 C99.3351,118.388 99.8038,117.55 100.741,116.768 C101.658,115.987 102.653,115.597 103.726,115.597"/>
<path class="Note" d="M103.726,125.597 C104.351,125.597 104.882,125.758 105.319,126.081 C105.715,126.435 105.913,126.878 105.913,127.409 C105.913,128.305 105.455,129.143 104.538,129.925 C103.601,130.706 102.595,131.097 101.523,131.097 C100.898,131.097 100.372,130.935 99.9444,130.612 C99.5382,130.258 99.3351,129.815 99.3351,129.284 C99.3351,128.388 99.8038,127.55 100.741,126.768 C101.658,125.987 102.653,125.597 103.726,125.597"/>
<path class="Clef" d="M43.7761,169.065 C43.5834,168.867 43.4871,168.625 43.4871,168.339 C43.4871,168.052 43.5834,167.813 43.7761,167.62 C43.9688,167.427 44.2084,167.331 44.4949,167.331 C44.7813,167.331 45.0235,167.427 45.2215,167.62 C45.4194,167.813 45.5183,168.052 45.5183,168.339 C45.5183,168.625 45.4194,168.867 45.2215,169.065 C45.0235,169.263 44.7813,169.362 44.4949,169.362 C44.2084,169.362 43.9688,169.263 43.7761,169.065 M43.7761,174.073 C43.5834,173.88 43.4871,173.641 43.4871,173.354 C43.4871,173.068 43.5834,172.826 43.7761,172.628 C43.9688,172.43 44.2084,172.331 44.4949,172.331 C44.7813,172.331 45.0235,172.43 45.2215,172.628 C45.4194,172.826 45.5183,173.068 45.5183,173.354 C45.5183,173.641 45.4194,173.88 45.2215,174.073 C45.0235,174.266 44.7813,174.362 44.4949,174.362 C44.2084,174.362 43.9688,174.266 43.7761,174.073 M37.0027,165.597 C38.7319,165.597 40.1485,166.029 41.2527,166.893 C42.3256,167.81 42.8621,169.05 42.8621,170.612 C42.8621,171.664 42.6537,172.628 42.2371,173.503 C41.8412,174.419 41.3256,175.227 40.6902,175.925 C40.034,176.643 39.2475,177.32 38.3308,177.956 C37.4246,178.581 36.4975,179.143 35.5496,179.643 C33.6225,180.612 32.5548,181.097 32.3465,181.097 C32.1798,181.097 32.0965,181.013 32.0965,180.847 C32.0965,180.784 32.1225,180.727 32.1746,180.675 C32.8412,180.279 33.6537,179.779 34.6121,179.175 C35.2371,178.768 35.9662,178.206 36.7996,177.487 C37.6121,176.81 38.2371,176.175 38.6746,175.581 C39.1329,174.987 39.5496,174.258 39.9246,173.393 C40.2475,172.518 40.409,171.654 40.409,170.8 C40.409,169.539 40.0965,168.44 39.4715,167.503 C38.8465,166.565 38.0235,166.097 37.0027,166.097 C36.2735,166.097 35.6485,166.331 35.1277,166.8 C34.5652,167.279 34.159,167.883 33.909,168.612 C34.159,168.508 34.3881,168.456 34.5965,168.456 C35.1381,168.456 35.6069,168.654 36.0027,169.05 C36.3881,169.466 36.5808,169.94 36.5808,170.472 C36.5808,171.034 36.3933,171.539 36.0183,171.987 C35.6121,172.383 35.1381,172.581 34.5965,172.581 C34.0131,172.581 33.4871,172.383 33.0183,171.987 C32.5704,171.539 32.3465,171.034 32.3465,170.472 C32.3465,169.128 32.8048,167.982 33.7215,167.034 C34.6173,166.076 35.711,165.597 37.0027,165.597"/>
<path class="Clef" d="M39.6902,123.222 C39.6902,123.222 39.7319,123.222 39.8152,123.222 C39.8673,123.211 39.909,123.206 39.9402,123.206 C41.3985,123.206 42.5965,123.722 43.534,124.753 C44.4715,125.763 44.9402,126.945 44.9402,128.3 C44.9402,129.987 44.2475,131.357 42.8621,132.409 C42.4975,132.701 42.0183,132.935 41.4246,133.112 C41.4975,133.956 41.534,134.638 41.534,135.159 C41.534,135.263 41.5183,135.643 41.4871,136.3 C41.435,137.508 41.0183,138.555 40.2371,139.44 C39.4871,140.315 38.5496,140.753 37.4246,140.753 C36.3725,140.753 35.4767,140.383 34.7371,139.643 C33.9871,138.883 33.6121,137.972 33.6121,136.909 C33.6121,136.347 33.8308,135.867 34.2683,135.472 C34.7058,135.086 35.2162,134.893 35.7996,134.893 C36.3204,134.893 36.7579,135.097 37.1121,135.503 C37.4767,135.878 37.659,136.347 37.659,136.909 C37.659,137.409 37.4767,137.841 37.1121,138.206 C36.7475,138.57 36.31,138.753 35.7996,138.753 C35.5912,138.753 35.3933,138.716 35.2058,138.643 C35.7787,139.487 36.5392,139.909 37.4871,139.909 C38.3829,139.909 39.1173,139.544 39.6902,138.815 C40.2944,138.065 40.6225,137.185 40.6746,136.175 C40.6954,135.55 40.7058,135.195 40.7058,135.112 C40.7058,134.383 40.6798,133.784 40.6277,133.315 C39.9819,133.419 39.4037,133.472 38.8933,133.472 C37.0808,133.472 35.5392,132.753 34.2683,131.315 C33.0183,129.867 32.3933,128.149 32.3933,126.159 C32.3933,125.742 32.4298,125.32 32.5027,124.893 C32.586,124.539 32.685,124.154 32.7996,123.737 C32.8621,123.498 33.0392,123.117 33.3308,122.597 C33.435,122.44 33.5522,122.245 33.6824,122.011 C33.8126,121.776 33.9037,121.623 33.9558,121.55 C34.0808,121.289 34.3308,120.935 34.7058,120.487 C34.81,120.373 34.9194,120.245 35.034,120.104 C35.1485,119.964 35.2449,119.847 35.323,119.753 C35.4011,119.659 35.4584,119.586 35.4949,119.534 C35.5313,119.482 35.8256,119.138 36.3777,118.503 C36.5027,118.367 36.6277,118.227 36.7527,118.081 C36.8777,117.935 36.9793,117.818 37.0574,117.729 C37.1355,117.641 37.1954,117.581 37.2371,117.55 C36.7683,115.998 36.4715,114.758 36.3465,113.831 C36.2631,113.091 36.2215,112.076 36.2215,110.784 C36.2215,109.649 36.4819,108.586 37.0027,107.597 C37.5027,106.576 38.211,105.737 39.1277,105.081 C39.1902,105.039 39.2527,105.018 39.3152,105.018 C39.409,105.018 39.4767,105.039 39.5183,105.081 C40.2162,105.925 40.8204,107.024 41.3308,108.378 C41.8517,109.732 42.1121,110.966 42.1121,112.081 C42.1121,113.331 41.8152,114.503 41.2215,115.597 C40.5444,116.753 39.6694,117.951 38.5965,119.19 C38.8673,120.044 39.2319,121.388 39.6902,123.222 M41.3465,132.315 C42.0235,132.065 42.5548,131.643 42.9402,131.05 C43.3569,130.477 43.5652,129.831 43.5652,129.112 C43.5652,128.185 43.2527,127.362 42.6277,126.643 C41.9819,125.904 41.1642,125.487 40.1746,125.393 C40.7371,128.143 41.1277,130.451 41.3465,132.315 M33.7996,127.8 C33.7996,129.091 34.3204,130.227 35.3621,131.206 C36.4246,132.154 37.6225,132.628 38.9558,132.628 C39.4975,132.628 40.0287,132.586 40.5496,132.503 C40.3412,130.524 39.9298,128.154 39.3152,125.393 C38.5756,125.477 37.9871,125.737 37.5496,126.175 C37.1121,126.633 36.8933,127.149 36.8933,127.722 C36.8933,128.711 37.4246,129.513 38.4871,130.128 C38.5704,130.222 38.6121,130.32 38.6121,130.425 C38.6121,130.529 38.5704,130.623 38.4871,130.706 C38.4037,130.8 38.3048,130.847 38.1902,130.847 C38.1798,130.847 38.1225,130.836 38.0183,130.815 C37.2683,130.409 36.6954,129.888 36.2996,129.253 C35.9142,128.565 35.7215,127.878 35.7215,127.19 C35.7215,126.294 36.0027,125.482 36.5652,124.753 C37.1485,124.024 37.909,123.555 38.8465,123.347 C38.4819,121.888 38.185,120.748 37.9558,119.925 C37.7475,120.164 37.4975,120.448 37.2058,120.776 C36.9142,121.104 36.7423,121.305 36.6902,121.378 C36.2215,121.982 35.8621,122.456 35.6121,122.8 C35.1642,123.414 34.836,123.94 34.6277,124.378 C34.409,124.878 34.2162,125.419 34.0496,126.003 C33.8829,126.565 33.7996,127.164 33.7996,127.8 M40.3152,107.94 C39.336,108.419 38.5704,109.107 38.0183,110.003 C37.4454,110.93 37.159,111.925 37.159,112.987 C37.159,113.925 37.3933,115.19 37.8621,116.784 C38.7996,115.649 39.5027,114.602 39.9715,113.643 C40.461,112.623 40.7058,111.56 40.7058,110.456 C40.7058,109.623 40.5756,108.784 40.3152,107.94"/>
<path class="KeySig" d="M58.7621,182.518 L58.7621,184.065 C58.7621,184.617 58.7881,185.055 58.8402,185.378 C59.2673,185.013 59.5746,184.742 59.7621,184.565 C59.9704,184.357 60.1788,184.068 60.3871,183.698 C60.5954,183.328 60.6996,182.961 60.6996,182.597 C60.6996,182.232 60.6215,181.919 60.4652,181.659 C60.309,181.399 60.1006,181.268 59.8402,181.268 C59.5277,181.268 59.2673,181.388 59.059,181.628 C58.8611,181.888 58.7621,182.185 58.7621,182.518 M57.934,186.097 L57.684,174.206 C57.8715,174.102 58.0564,174.05 58.2387,174.05 C58.4209,174.05 58.6006,174.102 58.7777,174.206 L58.6215,181.097 C59.1527,180.638 59.7673,180.409 60.4652,180.409 C60.9652,180.409 61.3845,180.617 61.723,181.034 C62.0616,181.451 62.2308,181.93 62.2308,182.472 C62.2308,182.805 62.1215,183.164 61.9027,183.55 C61.6944,183.893 61.4756,184.164 61.2465,184.362 C61.1111,184.466 60.7777,184.727 60.2465,185.143 C60.0902,185.258 59.9053,185.393 59.6918,185.55 C59.4782,185.706 59.3454,185.805 59.2933,185.847 C59.1996,185.899 59.1111,186.003 59.0277,186.159 C58.9444,186.294 58.8402,186.404 58.7152,186.487 C58.6319,186.571 58.5251,186.612 58.3949,186.612 C58.2647,186.612 58.1579,186.565 58.0746,186.472 C57.9808,186.378 57.934,186.253 57.934,186.097"/>
<path class="KeySig" d="M53.7621,172.518 L53.7621,174.065 C53.7621,174.617 53.7881,175.055 53.8402,175.378 C54.2673,175.013 54.5746,174.742 54.7621,174.565 C54.9704,174.357 55.1788,174.068 55.3871,173.698 C55.5954,173.328 55.6996,172.961 55.6996,172.597 C55.6996,172.232 55.6215,171.919 55.4652,171.659 C55.309,171.399 55.1006,171.268 54.8402,171.268 C54.5277,171.268 54.2673,171.388 54.059,171.628 C53.861,171.888 53.7621,172.185 53.7621,172.518 M52.934,176.097 L52.684,164.206 C52.8715,164.102 53.0564,164.05 53.2387,164.05 C53.4209,164.05 53.6006,164.102 53.7777,164.206 L53.6215,171.097 C54.1527,170.638 54.7673,170.409 55.4652,170.409 C55.9652,170.409 56.3845,170.617 56.723,171.034 C57.0616,171.451 57.2308,171.93 57.2308,172.472 C57.2308,172.805 57.1215,173.164 56.9027,173.55 C56.6944,173.893 56.4756,174.164 56.2465,174.362 C56.111,174.466 55.7777,174.727 55.2465,175.143 C55.0902,175.258 54.9053,175.393 54.6918,175.55 C54.4782,175.706 54.3454,175.805 54.2933,175.847 C54.1996,175.899 54.111,176.003 54.0277,176.159 C53.9444,176.294 53.8402,176.404 53.7152,176.487 C53.6319,176.57 53.5251,176.612 53.3949,176.612 C53.2647,176.612 53.1579,176.565 53.0746,176.472 C52.9808,176.378 52.934,176.253 52.934,176.097"/>
<path class="KeySig" d="M48.7621,180.018 L48.7621,181.565 C48.7621,182.117 48.7881,182.555 48.8402,182.878 C49.2673,182.513 49.5746,182.242 49.7621,182.065 C49.9704,181.857 50.1788,181.568 50.3871,181.198 C50.5954,180.828 50.6996,180.461 50.6996,180.097 C50.6996,179.732 50.6215,179.419 50.4652,179.159 C50.309,178.899 50.1006,178.768 49.8402,178.768 C49.5277,178.768 49.2673,178.888 49.059,179.128 C48.861,179.388 48.7621,179.685 48.7621,180.018 M47.934,183.597 L47.684,171.706 C47.8715,171.602 48.0564,171.55 48.2386,171.55 C48.4209,171.55 48.6006,171.602 48.7777,171.706 L48.6215,178.597 C49.1527,178.138 49.7673,177.909 50.4652,177.909 C50.9652,177.909 51.3845,178.117 51.723,178.534 C52.0616,178.951 52.2308,179.43 52.2308,179.972 C52.2308,180.305 52.1215,180.664 51.9027,181.05 C51.6944,181.393 51.4756,181.664 51.2465,181.862 C51.111,181.966 50.7777,182.227 50.2465,182.643 C50.0902,182.758 49.9053,182.893 49.6918,183.05 C49.4782,183.206 49.3454,183.305 49.2933,183.347 C49.1996,183.399 49.111,183.503 49.0277,183.659 C48.9444,183.794 48.8402,183.904 48.7152,183.987 C48.6319,184.071 48.5251,184.112 48.3949,184.112 C48.2647,184.112 48.1579,184.065 48.0746,183.972 C47.9808,183.878 47.934,183.753 47.934,183.597"/>
<path class="KeySig" d="M58.7621,125.018 L58.7621,126.565 C58.7621,127.117 58.7881,127.555 58.8402,127.878 C59.2673,127.513 59.5746,127.242 59.7621,127.065 C59.9704,126.857 60.1788,126.568 60.3871,126.198 C60.5954,125.828 60.6996,125.461 60.6996,125.097 C60.6996,124.732 60.6215,124.419 60.4652,124.159 C60.309,123.899 60.1006,123.768 59.8402,123.768 C59.5277,123.768 59.2673,123.888 59.059,124.128 C58.8611,124.388 58.7621,124.685 58.7621,125.018 M57.934,128.597 L57.684,116.706 C57.8715,116.602 58.0564,116.55 58.2387,116.55 C58.4209,116.55 58.6006,116.602 58.7777,116.706 L58.6215,123.597 C59.1527,123.138 59.7673,122.909 60.4652,122.909 C60.9652,122.909 61.3845,123.117 61.723,123.534 C62.0616,123.951 62.2308,124.43 62.2308,124.972 C62.2308,125.305 62.1215,125.664 61.9027,126.05 C61.6944,126.393 61.4756,126.664 61.2465,126.862 C61.1111,126.966 60.7777,127.227 60.2465,127.643 C60.0902,127.758 59.9053,127.893 59.6918,128.05 C59.4782,128.206 59.3454,128.305 59.2933,128.347 C59.1996,128.399 59.1111,128.503 59.0277,128.659 C58.9444,128.794 58.8402,128.904 58.7152,128.987 C58.6319,129.07 58.5251,129.112 58.3949,129.112 C58.2647,129.112 58.1579,129.065 58.0746,128.972 C57.9808,128.878 57.934,128.753 57.934,128.597"/>
<path class="KeySig" d="M53.7621,115.018 L53.7621,116.565 C53.7621,117.117 53.7881,117.555 53.8402,117.878 C54.2673,117.513 54.5746,117.242 54.7621,117.065 C54.9704,116.857 55.1788,116.568 55.3871,116.198 C55.5954,115.828 55.6996,115.461 55.6996,115.097 C55.6996,114.732 55.6215,114.419 55.4652,114.159 C55.309,113.899 55.1006,113.768 54.8402,113.768 C54.5277,113.768 54.2673,113.888 54.059,114.128 C53.861,114.388 53.7621,114.685 53.7621,115.018 M52.934,118.597 L52.684,106.706 C52.8715,106.602 53.0564,106.55 53.2387,106.55 C53.4209,106.55 53.6006,106.602 53.7777,106.706 L53.6215,113.597 C54.1527,113.138 54.7673,112.909 55.4652,112.909 C55.9652,112.909 56.3845,113.117 56.723,113.534 C57.0616,113.951 57.2308,114.43 57.2308,114.972 C57.2308,115.305 57.1215,115.664 56.9027,116.05 C56.6944,116.393 56.4756,116.664 56.2465,116.862 C56.111,116.966 55.7777,117.227 55.2465,117.643 C55.0902,117.758 54.9053,117.893 54.6918,118.05 C54.4782,118.206 54.3454,118.305 54.2933,118.347 C54.1996,118.399 54.111,118.503 54.0277,118.659 C53.9444,118.794 53.8402,118.904 53.7152,118.987 C53.6319,119.07 53.5251,119.112 53.3949,119.112 C53.2647,119.112 53.1579,119.065 53.0746,118.972 C52.9808,118.878 52.934,118.753 52.934,118.597"/>
<path class="KeySig" d="M48.7621,122.518 L48.7621,124.065 C48.7621,124.617 48.7881,125.055 48.8402,125.378 C49.2673,125.013 49.5746,124.742 49.7621,124.565 C49.9704,124.357 50.1788,124.068 50.3871,123.698 C50.5954,123.328 50.6996,122.961 50.6996,122.597 C50.6996,122.232 50.6215,121.919 50.4652,121.659 C50.309,121.399 50.1006,121.268 49.8402,121.268 C49.5277,121.268 49.2673,121.388 49.059,121.628 C48.861,121.888 48.7621,122.185 48.7621,122.518 M47.934,126.097 L47.684,114.206 C47.8715,114.102 48.0564,114.05 48.2386,114.05 C48.4209,114.05 48.6006,114.102 48.7777,114.206 L48.6215,121.097 C49.1527,120.638 49.7673,120.409 50.4652,120.409 C50.9652,120.409 51.3845,120.617 51.723,121.034 C52.0616,121.451 52.2308,121.93 52.2308,122.472 C52.2308,122.805 52.1215,123.164 51.9027,123.55 C51.6944,123.893 51.4756,124.164 51.2465,124.362 C51.111,124.466 50.7777,124.727 50.2465,125.143 C50.0902,125.258 49.9053,125.393 49.6918,125.55 C49.4782,125.706 49.3454,125.805 49.2933,125.847 C49.1996,125.899 49.111,126.003 49.0277,126.159 C48.9444,126.294 48.8402,126.404 48.7152,126.487 C48.6319,126.57 48.5251,126.612 48.3949,126.612 C48.2647,126.612 48.1579,126.565 48.0746,126.472 C47.9808,126.378 47.934,126.253 47.934,126.097"/>
<path class="TimeSig" d="M69.7465,175.847 C69.3506,175.847 68.9965,175.776 68.684,175.636 C68.3715,175.495 68.1527,175.347 68.0277,175.19 C67.8506,174.992 67.6788,174.841 67.5121,174.737 C67.3038,174.591 67.0902,174.518 66.8715,174.518 C66.5277,174.518 66.2465,174.623 66.0277,174.831 C65.7986,175.029 65.6683,175.294 65.6371,175.628 C65.6163,175.774 65.5381,175.847 65.4027,175.847 C65.2465,175.847 65.1683,175.774 65.1683,175.628 C65.1683,175.128 65.2881,174.675 65.5277,174.268 C65.7569,173.852 66.0433,173.508 66.3871,173.237 C66.6683,172.987 67.0433,172.685 67.5121,172.331 C67.5954,172.268 67.7621,172.133 68.0121,171.925 C68.2621,171.716 68.4756,171.539 68.6527,171.393 C68.9861,171.112 69.2777,170.732 69.5277,170.253 C69.7569,169.784 69.8715,169.279 69.8715,168.737 C69.8715,168.07 69.7621,167.498 69.5433,167.018 C69.3142,166.55 68.9548,166.315 68.4652,166.315 C68.1736,166.315 67.934,166.378 67.7465,166.503 C67.5486,166.638 67.4496,166.815 67.4496,167.034 C67.4496,167.222 67.5668,167.451 67.8012,167.722 C68.0355,167.992 68.1527,168.222 68.1527,168.409 C68.1527,168.794 68.0173,169.123 67.7465,169.393 C67.4861,169.654 67.1683,169.784 66.7933,169.784 C66.3975,169.784 66.0642,169.649 65.7933,169.378 C65.5329,169.097 65.4027,168.774 65.4027,168.409 C65.4027,167.659 65.7022,167.044 66.3012,166.565 C66.9001,166.086 67.6215,165.847 68.4652,165.847 C69.4756,165.847 70.3506,166.117 71.0902,166.659 C71.8298,167.18 72.1996,167.873 72.1996,168.737 C72.1996,169.32 72.0954,169.82 71.8871,170.237 C71.6892,170.685 71.3975,171.034 71.0121,171.284 C70.5642,171.565 70.1788,171.784 69.8558,171.94 C69.3975,172.149 68.9444,172.347 68.4965,172.534 C67.9444,172.753 67.5173,172.961 67.2152,173.159 C67.3923,173.117 67.5694,173.097 67.7465,173.097 C68.3506,173.097 68.9756,173.289 69.6215,173.675 C70.2881,174.07 70.8038,174.268 71.1683,174.268 C71.3871,174.268 71.5642,174.227 71.6996,174.143 C71.8246,174.07 71.9079,173.987 71.9496,173.893 C72.0017,173.768 72.0486,173.68 72.0902,173.628 C72.1423,173.544 72.2048,173.503 72.2777,173.503 C72.434,173.503 72.5121,173.581 72.5121,173.737 C72.5121,174.102 72.2517,174.544 71.7308,175.065 C71.2204,175.586 70.559,175.847 69.7465,175.847"/>
<path class="TimeSig" d="M69.3246,176.097 C69.71,176.097 70.0407,176.052 70.3168,175.964 C70.5928,175.875 70.7673,175.831 70.8402,175.831 C70.934,175.831 71.0069,175.857 71.059,175.909 C71.1006,175.94 71.1267,175.982 71.1371,176.034 C71.1371,176.065 71.1215,176.107 71.0902,176.159 L65.4183,182.768 L68.7465,182.768 L68.7465,180.143 C68.7465,179.977 68.7933,179.831 68.8871,179.706 C69.0433,179.581 69.1736,179.503 69.2777,179.472 C69.4444,179.399 69.6527,179.216 69.9027,178.925 C70.1111,178.696 70.3611,178.289 70.6527,177.706 C70.684,177.623 70.7413,177.581 70.8246,177.581 C70.9808,177.581 71.0694,177.675 71.0902,177.862 L71.0902,182.768 L72.5277,182.768 C72.7048,182.768 72.809,182.862 72.8402,183.05 C72.8402,183.248 72.7361,183.347 72.5277,183.347 L71.0902,183.347 L71.0902,183.503 C71.0902,184.024 71.2204,184.466 71.4808,184.831 C71.7829,185.196 72.1371,185.378 72.5433,185.378 C72.6996,185.378 72.7777,185.456 72.7777,185.612 C72.7777,185.768 72.6996,185.847 72.5433,185.847 C72.2725,185.847 71.8298,185.81 71.2152,185.737 C70.6527,185.643 70.2152,185.597 69.9027,185.597 C69.5798,185.597 69.1423,185.643 68.5902,185.737 C68.0069,185.81 67.5746,185.847 67.2933,185.847 C67.1371,185.847 67.059,185.768 67.059,185.612 C67.059,185.456 67.1371,185.378 67.2933,185.378 C67.6892,185.378 68.0381,185.196 68.3402,184.831 C68.6111,184.466 68.7465,184.024 68.7465,183.503 L68.7465,183.347 L65.4183,183.347 C65.1892,183.347 65.0329,183.294 64.9496,183.19 C64.835,183.117 64.7777,183.013 64.7777,182.878 C64.7777,182.836 64.8767,182.701 65.0746,182.472 C65.3038,182.211 65.5381,181.893 65.7777,181.518 C66.0694,181.071 66.3454,180.612 66.6058,180.143 C66.8871,179.612 67.1163,178.998 67.2933,178.3 C67.4808,177.602 67.5746,176.888 67.5746,176.159 C67.5746,175.951 67.6683,175.847 67.8558,175.847 C67.8975,175.847 67.9808,175.867 68.1058,175.909 C68.1475,175.919 68.2308,175.938 68.3558,175.964 C68.4808,175.99 68.5798,176.013 68.6527,176.034 C68.8923,176.076 69.1163,176.097 69.3246,176.097"/>
<path class="TimeSig" d="M69.7465,123.347 C69.3506,123.347 68.9965,123.276 68.684,123.136 C68.3715,122.995 68.1527,122.847 68.0277,122.69 C67.8506,122.492 67.6788,122.341 67.5121,122.237 C67.3038,122.091 67.0902,122.018 66.8715,122.018 C66.5277,122.018 66.2465,122.123 66.0277,122.331 C65.7986,122.529 65.6683,122.794 65.6371,123.128 C65.6163,123.274 65.5381,123.347 65.4027,123.347 C65.2465,123.347 65.1683,123.274 65.1683,123.128 C65.1683,122.628 65.2881,122.175 65.5277,121.768 C65.7569,121.352 66.0433,121.008 66.3871,120.737 C66.6683,120.487 67.0433,120.185 67.5121,119.831 C67.5954,119.768 67.7621,119.633 68.0121,119.425 C68.2621,119.216 68.4756,119.039 68.6527,118.893 C68.9861,118.612 69.2777,118.232 69.5277,117.753 C69.7569,117.284 69.8715,116.779 69.8715,116.237 C69.8715,115.57 69.7621,114.998 69.5433,114.518 C69.3142,114.05 68.9548,113.815 68.4652,113.815 C68.1736,113.815 67.934,113.878 67.7465,114.003 C67.5486,114.138 67.4496,114.315 67.4496,114.534 C67.4496,114.722 67.5668,114.951 67.8012,115.222 C68.0355,115.492 68.1527,115.722 68.1527,115.909 C68.1527,116.294 68.0173,116.623 67.7465,116.893 C67.4861,117.154 67.1683,117.284 66.7933,117.284 C66.3975,117.284 66.0642,117.149 65.7933,116.878 C65.5329,116.597 65.4027,116.274 65.4027,115.909 C65.4027,115.159 65.7022,114.544 66.3012,114.065 C66.9001,113.586 67.6215,113.347 68.4652,113.347 C69.4756,113.347 70.3506,113.617 71.0902,114.159 C71.8298,114.68 72.1996,115.373 72.1996,116.237 C72.1996,116.82 72.0954,117.32 71.8871,117.737 C71.6892,118.185 71.3975,118.534 71.0121,118.784 C70.5642,119.065 70.1788,119.284 69.8558,119.44 C69.3975,119.649 68.9444,119.847 68.4965,120.034 C67.9444,120.253 67.5173,120.461 67.2152,120.659 C67.3923,120.617 67.5694,120.597 67.7465,120.597 C68.3506,120.597 68.9756,120.789 69.6215,121.175 C70.2881,121.57 70.8038,121.768 71.1683,121.768 C71.3871,121.768 71.5642,121.727 71.6996,121.643 C71.8246,121.57 71.9079,121.487 71.9496,121.393 C72.0017,121.268 72.0486,121.18 72.0902,121.128 C72.1423,121.044 72.2048,121.003 72.2777,121.003 C72.434,121.003 72.5121,121.081 72.5121,121.237 C72.5121,121.602 72.2517,122.044 71.7308,122.565 C71.2204,123.086 70.559,123.347 69.7465,123.347"/>
<path class="TimeSig" d="M69.3246,123.597 C69.71,123.597 70.0407,123.552 70.3168,123.464 C70.5928,123.375 70.7673,123.331 70.8402,123.331 C70.934,123.331 71.0069,123.357 71.059,123.409 C71.1006,123.44 71.1267,123.482 71.1371,123.534 C71.1371,123.565 71.1215,123.607 71.0902,123.659 L65.4183,130.268 L68.7465,130.268 L68.7465,127.643 C68.7465,127.477 68.7933,127.331 68.8871,127.206 C69.0433,127.081 69.1736,127.003 69.2777,126.972 C69.4444,126.899 69.6527,126.716 69.9027,126.425 C70.1111,126.195 70.3611,125.789 70.6527,125.206 C70.684,125.123 70.7413,125.081 70.8246,125.081 C70.9808,125.081 71.0694,125.175 71.0902,125.362 L71.0902,130.268 L72.5277,130.268 C72.7048,130.268 72.809,130.362 72.8402,130.55 C72.8402,130.748 72.7361,130.847 72.5277,130.847 L71.0902,130.847 L71.0902,131.003 C71.0902,131.524 71.2204,131.966 71.4808,132.331 C71.7829,132.695 72.1371,132.878 72.5433,132.878 C72.6996,132.878 72.7777,132.956 72.7777,133.112 C72.7777,133.268 72.6996,133.347 72.5433,133.347 C72.2725,133.347 71.8298,133.31 71.2152,133.237 C70.6527,133.143 70.2152,133.097 69.9027,133.097 C69.5798,133.097 69.1423,133.143 68.5902,133.237 C68.0069,133.31 67.5746,133.347 67.2933,133.347 C67.1371,133.347 67.059,133.268 67.059,133.112 C67.059,132.956 67.1371,132.878 67.2933,132.878 C67.6892,132.878 68.0381,132.695 68.3402,132.331 C68.6111,131.966 68.7465,131.524 68.7465,131.003 L68.7465,130.847 L65.4183,130.847 C65.1892,130.847 65.0329,130.794 64.9496,130.69 C64.835,130.617 64.7777,130.513 64.7777,130.378 C64.7777,130.336 64.8767,130.201 65.0746,129.972 C65.3038,129.711 65.5381,129.393 65.7777,129.018 C66.0694,128.57 66.3454,128.112 66.6058,127.643 C66.8871,127.112 67.1163,126.498 67.2933,125.8 C67.4808,125.102 67.5746,124.388 67.5746,123.659 C67.5746,123.451 67.6683,123.347 67.8558,123.347 C67.8975,123.347 67.9808,123.367 68.1058,123.409 C68.1475,123.419 68.2308,123.438 68.3558,123.464 C68.4808,123.49 68.5798,123.513 68.6527,123.534 C68.8923,123.576 69.1163,123.597 69.3246,123.597"/>
<path class="Rest" d="M537.853,173.972 L530.744,173.972 C530.608,173.972 530.541,173.909 530.541,173.784 L530.541,171.05 C530.541,170.914 530.608,170.847 530.744,170.847 L537.853,170.847 C537.978,170.847 538.041,170.914 538.041,171.05 L538.041,173.784 C538.041,173.909 537.978,173.972 537.853,173.972"/>
<path class="Rest" d="M537.853,121.472 L530.744,121.472 C530.608,121.472 530.541,121.409 530.541,121.284 L530.541,118.55 C530.541,118.414 530.608,118.347 530.744,118.347 L537.853,118.347 C537.978,118.347 538.041,118.414 538.041,118.55 L538.041,121.284 C538.041,121.409 537.978,121.472 537.853,121.472"/>
<path class="Rest" d="M482.047,173.972 L474.938,173.972 C474.802,173.972 474.735,173.909 474.735,173.784 L474.735,171.05 C474.735,170.914 474.802,170.847 474.938,170.847 L482.047,170.847 C482.172,170.847 482.235,170.914 482.235,171.05 L482.235,173.784 C482.235,173.909 482.172,173.972 482.047,173.972"/>
<path class="Rest" d="M482.047,121.472 L474.938,121.472 C474.802,121.472 474.735,121.409 474.735,121.284 L474.735,118.55 C474.735,118.414 474.802,118.347 474.938,118.347 L482.047,118.347 C482.172,118.347 482.235,118.414 482.235,118.55 L482.235,121.284 C482.235,121.409 482.172,121.472 482.047,121.472"/>
<path class="Rest" d="M426.241,173.972 L419.132,173.972 C418.997,173.972 418.929,173.909 418.929,173.784 L418.929,171.05 C418.929,170.914 418.997,170.847 419.132,170.847 L426.241,170.847 C426.366,170.847 426.429,170.914 426.429,171.05 L426.429,173.784 C426.429,173.909 426.366,173.972 426.241,173.972"/>
<path class="Rest" d="M426.241,121.472 L419.132,121.472 C418.997,121.472 418.929,121.409 418.929,121.284 L418.929,118.55 C418.929,118.414 418.997,118.347 419.132,118.347 L426.241,118.347 C426.366,118.347 426.429,118.414 426.429,118.55 L426.429,121.284 C426.429,121.409 426.366,121.472 426.241,121.472"/>
<path class="Rest" d="M370.435,173.972 L363.326,173.972 C363.191,173.972 363.123,173.909 363.123,173.784 L363.123,171.05 C363.123,170.914 363.191,170.847 363.326,170.847 L370.435,170.847 C370.56,170.847 370.623,170.914 370.623,171.05 L370.623,173.784 C370.623,173.909 370.56,173.972 370.435,173.972"/>
<path class="Rest" d="M370.435,121.472 L363.326,121.472 C363.191,121.472 363.123,121.409 363.123,121.284 L363.123,118.55 C363.123,118.414 363.191,118.347 363.326,118.347 L370.435,118.347 C370.56,118.347 370.623,118.414 370.623,118.55 L370.623,121.284 C370.623,121.409 370.56,121.472 370.435,121.472"/>
<path class="Rest" d="M310.869,174.284 C310.869,174.044 311.004,173.784 311.275,173.503 C311.463,173.294 311.749,173.044 312.135,172.753 C312.416,172.565 312.692,172.274 312.963,171.878 C313.223,171.503 313.353,171.091 313.353,170.643 C313.353,170.123 313.187,169.664 312.853,169.268 L312.15,168.425 C312.098,168.373 312.072,168.307 312.072,168.229 C312.072,168.151 312.109,168.081 312.182,168.018 C312.275,167.946 312.353,167.909 312.416,167.909 C312.51,167.909 312.583,167.951 312.635,168.034 L315.666,171.628 C315.791,171.794 315.853,171.961 315.853,172.128 C315.853,172.367 315.723,172.628 315.463,172.909 C315.296,173.097 315.02,173.347 314.635,173.659 C314.333,173.836 314.046,174.128 313.775,174.534 C313.515,174.909 313.385,175.321 313.385,175.768 C313.385,176.321 313.541,176.784 313.853,177.159 L315.525,179.128 C315.567,179.169 315.598,179.237 315.619,179.331 C315.619,179.414 315.588,179.492 315.525,179.565 C315.432,179.628 315.353,179.659 315.291,179.659 C315.27,179.659 315.166,179.586 314.978,179.44 C314.78,179.284 314.52,179.133 314.197,178.987 C313.833,178.852 313.473,178.784 313.119,178.784 C312.796,178.784 312.53,178.873 312.322,179.05 C312.145,179.237 312.057,179.591 312.057,180.112 C312.057,180.904 312.244,181.529 312.619,181.987 C312.661,182.039 312.666,182.102 312.635,182.175 C312.614,182.227 312.567,182.253 312.494,182.253 C312.411,182.253 312.213,182.018 311.9,181.55 C311.567,181.06 311.26,180.492 310.978,179.847 C310.676,179.169 310.525,178.612 310.525,178.175 C310.525,177.612 310.791,177.331 311.322,177.331 C311.937,177.331 312.734,177.539 313.713,177.956 L311.072,174.784 C310.937,174.617 310.869,174.451 310.869,174.284"/>
<path class="Rest" d="M310.869,131.784 C310.869,131.544 311.004,131.284 311.275,131.003 C311.463,130.794 311.749,130.544 312.135,130.253 C312.416,130.065 312.692,129.774 312.963,129.378 C313.223,129.003 313.353,128.591 313.353,128.143 C313.353,127.623 313.187,127.164 312.853,126.768 L312.15,125.925 C312.098,125.873 312.072,125.807 312.072,125.729 C312.072,125.651 312.109,125.581 312.182,125.518 C312.275,125.445 312.353,125.409 312.416,125.409 C312.51,125.409 312.583,125.451 312.635,125.534 L315.666,129.128 C315.791,129.294 315.853,129.461 315.853,129.628 C315.853,129.867 315.723,130.128 315.463,130.409 C315.296,130.597 315.02,130.847 314.635,131.159 C314.333,131.336 314.046,131.628 313.775,132.034 C313.515,132.409 313.385,132.82 313.385,133.268 C313.385,133.82 313.541,134.284 313.853,134.659 L315.525,136.628 C315.567,136.669 315.598,136.737 315.619,136.831 C315.619,136.914 315.588,136.992 315.525,137.065 C315.432,137.128 315.353,137.159 315.291,137.159 C315.27,137.159 315.166,137.086 314.978,136.94 C314.78,136.784 314.52,136.633 314.197,136.487 C313.833,136.352 313.473,136.284 313.119,136.284 C312.796,136.284 312.53,136.373 312.322,136.55 C312.145,136.737 312.057,137.091 312.057,137.612 C312.057,138.404 312.244,139.029 312.619,139.487 C312.661,139.539 312.666,139.602 312.635,139.675 C312.614,139.727 312.567,139.753 312.494,139.753 C312.411,139.753 312.213,139.518 311.9,139.05 C311.567,138.56 311.26,137.992 310.978,137.347 C310.676,136.669 310.525,136.112 310.525,135.675 C310.525,135.112 310.791,134.831 311.322,134.831 C311.937,134.831 312.734,135.039 313.713,135.456 L311.072,132.284 C310.937,132.117 310.869,131.951 310.869,131.784"/>
<path class="Rest" d="M249.403,174.284 C249.403,174.044 249.538,173.784 249.809,173.503 C249.996,173.294 250.283,173.044 250.668,172.753 C250.949,172.565 251.226,172.274 251.496,171.878 C251.757,171.503 251.887,171.091 251.887,170.643 C251.887,170.123 251.72,169.664 251.387,169.268 L250.684,168.425 C250.632,168.373 250.606,168.307 250.606,168.229 C250.606,168.151 250.642,168.081 250.715,168.018 C250.809,167.946 250.887,167.909 250.949,167.909 C251.043,167.909 251.116,167.951 251.168,168.034 L254.199,171.628 C254.324,171.794 254.387,171.961 254.387,172.128 C254.387,172.367 254.257,172.628 253.996,172.909 C253.83,173.097 253.554,173.347 253.168,173.659 C252.866,173.836 252.58,174.128 252.309,174.534 C252.048,174.909 251.918,175.321 251.918,175.768 C251.918,176.321 252.074,176.784 252.387,177.159 L254.059,179.128 C254.101,179.169 254.132,179.237 254.153,179.331 C254.153,179.414 254.121,179.492 254.059,179.565 C253.965,179.628 253.887,179.659 253.824,179.659 C253.804,179.659 253.699,179.586 253.512,179.44 C253.314,179.284 253.054,179.133 252.731,178.987 C252.366,178.852 252.007,178.784 251.653,178.784 C251.33,178.784 251.064,178.873 250.856,179.05 C250.679,179.237 250.59,179.591 250.59,180.112 C250.59,180.904 250.778,181.529 251.153,181.987 C251.194,182.039 251.199,182.102 251.168,182.175 C251.147,182.227 251.101,182.253 251.028,182.253 C250.944,182.253 250.746,182.018 250.434,181.55 C250.101,181.06 249.793,180.492 249.512,179.847 C249.21,179.169 249.059,178.612 249.059,178.175 C249.059,177.612 249.324,177.331 249.856,177.331 C250.47,177.331 251.267,177.539 252.246,177.956 L249.606,174.784 C249.47,174.617 249.403,174.451 249.403,174.284"/>
<path class="Rest" d="M249.403,121.784 C249.403,121.544 249.538,121.284 249.809,121.003 C249.996,120.794 250.283,120.544 250.668,120.253 C250.949,120.065 251.226,119.774 251.496,119.378 C251.757,119.003 251.887,118.591 251.887,118.143 C251.887,117.623 251.72,117.164 251.387,116.768 L250.684,115.925 C250.632,115.873 250.606,115.807 250.606,115.729 C250.606,115.651 250.642,115.581 250.715,115.518 C250.809,115.445 250.887,115.409 250.949,115.409 C251.043,115.409 251.116,115.451 251.168,115.534 L254.199,119.128 C254.324,119.294 254.387,119.461 254.387,119.628 C254.387,119.867 254.257,120.128 253.996,120.409 C253.83,120.597 253.554,120.847 253.168,121.159 C252.866,121.336 252.58,121.628 252.309,122.034 C252.048,122.409 251.918,122.82 251.918,123.268 C251.918,123.82 252.074,124.284 252.387,124.659 L254.059,126.628 C254.101,126.669 254.132,126.737 254.153,126.831 C254.153,126.914 254.121,126.992 254.059,127.065 C253.965,127.128 253.887,127.159 253.824,127.159 C253.804,127.159 253.699,127.086 253.512,126.94 C253.314,126.784 253.054,126.633 252.731,126.487 C252.366,126.352 252.007,126.284 251.653,126.284 C251.33,126.284 251.064,126.373 250.856,126.55 C250.679,126.737 250.59,127.091 250.59,127.612 C250.59,128.404 250.778,129.029 251.153,129.487 C251.194,129.539 251.199,129.602 251.168,129.675 C251.147,129.727 251.101,129.753 251.028,129.753 C250.944,129.753 250.746,129.518 250.434,129.05 C250.101,128.56 249.793,127.992 249.512,127.347 C249.21,126.669 249.059,126.112 249.059,125.675 C249.059,125.112 249.324,124.831 249.856,124.831 C250.47,124.831 251.267,125.039 252.246,125.456 L249.606,122.284 C249.47,122.117 249.403,121.951 249.403,121.784"/>
<path class="Rest" d="M186.327,174.284 C186.327,174.044 186.463,173.784 186.733,173.503 C186.921,173.294 187.207,173.044 187.593,172.753 C187.874,172.565 188.15,172.274 188.421,171.878 C188.681,171.503 188.812,171.091 188.812,170.643 C188.812,170.123 188.645,169.664 188.312,169.268 L187.608,168.425 C187.556,168.373 187.53,168.307 187.53,168.229 C187.53,168.151 187.567,168.081 187.64,168.018 C187.733,167.946 187.812,167.909 187.874,167.909 C187.968,167.909 188.041,167.951 188.093,168.034 L191.124,171.628 C191.249,171.794 191.312,171.961 191.312,172.128 C191.312,172.367 191.181,172.628 190.921,172.909 C190.754,173.097 190.478,173.347 190.093,173.659 C189.791,173.836 189.504,174.128 189.233,174.534 C188.973,174.909 188.843,175.321 188.843,175.768 C188.843,176.321 188.999,176.784 189.312,177.159 L190.983,179.128 C191.025,179.169 191.056,179.237 191.077,179.331 C191.077,179.414 191.046,179.492 190.983,179.565 C190.89,179.628 190.812,179.659 190.749,179.659 C190.728,179.659 190.624,179.586 190.437,179.44 C190.239,179.284 189.978,179.133 189.655,178.987 C189.291,178.852 188.931,178.784 188.577,178.784 C188.254,178.784 187.989,178.873 187.78,179.05 C187.603,179.237 187.515,179.591 187.515,180.112 C187.515,180.904 187.702,181.529 188.077,181.987 C188.119,182.039 188.124,182.102 188.093,182.175 C188.072,182.227 188.025,182.253 187.952,182.253 C187.869,182.253 187.671,182.018 187.358,181.55 C187.025,181.06 186.718,180.492 186.437,179.847 C186.134,179.169 185.983,178.612 185.983,178.175 C185.983,177.612 186.249,177.331 186.78,177.331 C187.395,177.331 188.192,177.539 189.171,177.956 L186.53,174.784 C186.395,174.617 186.327,174.451 186.327,174.284"/>
<path class="Rest" d="M186.327,121.784 C186.327,121.544 186.463,121.284 186.733,121.003 C186.921,120.794 187.207,120.544 187.593,120.253 C187.874,120.065 188.15,119.774 188.421,119.378 C188.681,119.003 188.812,118.591 188.812,118.143 C188.812,117.623 188.645,117.164 188.312,116.768 L187.608,115.925 C187.556,115.873 187.53,115.807 187.53,115.729 C187.53,115.651 187.567,115.581 187.64,115.518 C187.733,115.445 187.812,115.409 187.874,115.409 C187.968,115.409 188.041,115.451 188.093,115.534 L191.124,119.128 C191.249,119.294 191.312,119.461 191.312,119.628 C191.312,119.867 191.181,120.128 190.921,120.409 C190.754,120.597 190.478,120.847 190.093,121.159 C189.791,121.336 189.504,121.628 189.233,122.034 C188.973,122.409 188.843,122.82 188.843,123.268 C188.843,123.82 188.999,124.284 189.312,124.659 L190.983,126.628 C191.025,126.669 191.056,126.737 191.077,126.831 C191.077,126.914 191.046,126.992 190.983,127.065 C190.89,127.128 190.812,127.159 190.749,127.159 C190.728,127.159 190.624,127.086 190.437,126.94 C190.239,126.784 189.978,126.633 189.655,126.487 C189.291,126.352 188.931,126.284 188.577,126.284 C188.254,126.284 187.989,126.373 187.78,126.55 C187.603,126.737 187.515,127.091 187.515,127.612 C187.515,128.404 187.702,129.029 188.077,129.487 C188.119,129.539 188.124,129.602 188.093,129.675 C188.072,129.727 188.025,129.753 187.952,129.753 C187.869,129.753 187.671,129.518 187.358,129.05 C187.025,128.56 186.718,127.992 186.437,127.347 C186.134,126.669 185.983,126.112 185.983,125.675 C185.983,125.112 186.249,124.831 186.78,124.831 C187.395,124.831 188.192,125.039 189.171,125.456 L186.53,122.284 C186.395,122.117 186.327,121.951 186.327,121.784"/>
<path class="Rest" d="M83.0809,171.737 C83.4559,171.737 83.7423,171.841 83.9402,172.05 C84.1382,172.289 84.2423,172.513 84.2527,172.722 C84.284,172.919 84.3517,173.138 84.4559,173.378 C84.5704,173.586 84.7163,173.69 84.8934,173.69 C85.0392,173.69 85.2579,173.529 85.5496,173.206 C85.81,172.925 85.9975,172.669 86.1121,172.44 C86.1746,172.315 86.2632,172.253 86.3777,172.253 L86.409,172.253 C86.534,172.263 86.6225,172.326 86.6746,172.44 L84.2215,180.847 C84.0861,180.982 83.9012,181.05 83.6668,181.05 C83.4324,181.05 83.2527,180.982 83.1277,180.847 L85.4715,174.315 C84.6382,174.617 83.935,174.768 83.3621,174.768 C82.8934,174.768 82.4871,174.617 82.1434,174.315 C81.7892,174.034 81.6121,173.659 81.6121,173.19 C81.6121,172.784 81.7579,172.446 82.0496,172.175 C82.3309,171.883 82.6746,171.737 83.0809,171.737"/>
<path class="Rest" d="M83.0809,119.237 C83.4559,119.237 83.7423,119.341 83.9402,119.55 C84.1382,119.789 84.2423,120.013 84.2527,120.222 C84.284,120.419 84.3517,120.638 84.4559,120.878 C84.5704,121.086 84.7163,121.19 84.8934,121.19 C85.0392,121.19 85.2579,121.029 85.5496,120.706 C85.81,120.425 85.9975,120.169 86.1121,119.94 C86.1746,119.815 86.2632,119.753 86.3777,119.753 L86.409,119.753 C86.534,119.763 86.6225,119.826 86.6746,119.94 L84.2215,128.347 C84.0861,128.482 83.9012,128.55 83.6668,128.55 C83.4324,128.55 83.2527,128.482 83.1277,128.347 L85.4715,121.815 C84.6382,122.117 83.935,122.268 83.3621,122.268 C82.8934,122.268 82.4871,122.117 82.1434,121.815 C81.7892,121.534 81.6121,121.159 81.6121,120.69 C81.6121,120.284 81.7579,119.945 82.0496,119.675 C82.3309,119.383 82.6746,119.237 83.0809,119.237"/>
<path class="Articulation" d="M312.707,164.526 C312.447,164.266 312.317,163.945 312.317,163.565 C312.317,163.185 312.447,162.865 312.707,162.604 C312.968,162.344 313.285,162.214 313.66,162.214 C314.035,162.214 314.353,162.344 314.614,162.604 C314.874,162.865 315.004,163.185 315.004,163.565 C315.004,163.945 314.874,164.266 314.614,164.526 C314.353,164.787 314.035,164.917 313.66,164.917 C313.285,164.917 312.968,164.787 312.707,164.526 M311.395,157.807 C312.072,157.464 312.827,157.292 313.66,157.292 C314.494,157.292 315.249,157.464 315.926,157.807 C316.666,158.141 317.254,158.563 317.692,159.073 C318.171,159.625 318.577,160.177 318.91,160.729 C319.265,161.302 319.541,161.886 319.739,162.479 C319.905,162.959 320.046,163.427 320.16,163.886 C320.254,164.229 320.301,164.474 320.301,164.62 C320.301,164.682 320.265,164.755 320.192,164.839 C320.088,164.891 319.999,164.917 319.926,164.917 C319.739,164.917 319.608,164.797 319.535,164.557 C319.296,163.089 318.619,161.839 317.504,160.807 C316.4,159.818 315.119,159.323 313.66,159.323 C312.202,159.323 310.921,159.818 309.817,160.807 C308.713,161.839 308.035,163.089 307.785,164.557 C307.744,164.797 307.614,164.917 307.395,164.917 C307.332,164.917 307.249,164.891 307.145,164.839 C307.061,164.755 307.02,164.682 307.02,164.62 C307.02,164.474 307.067,164.229 307.16,163.886 C307.275,163.427 307.416,162.959 307.582,162.479 C307.78,161.886 308.056,161.302 308.41,160.729 C308.744,160.177 309.155,159.625 309.645,159.073 C310.093,158.542 310.676,158.12 311.395,157.807"/>
<path class="Articulation" d="M312.707,146.659 C312.447,146.399 312.317,146.078 312.317,145.698 C312.317,145.318 312.447,144.998 312.707,144.737 C312.968,144.477 313.285,144.347 313.66,144.347 C314.035,144.347 314.353,144.477 314.614,144.737 C314.874,144.998 315.004,145.318 315.004,145.698 C315.004,146.078 314.874,146.399 314.614,146.659 C314.353,146.919 314.035,147.05 313.66,147.05 C313.285,147.05 312.968,146.919 312.707,146.659 M315.926,151.456 C315.249,151.8 314.494,151.972 313.66,151.972 C312.827,151.972 312.072,151.8 311.395,151.456 C310.676,151.143 310.093,150.722 309.645,150.19 C309.155,149.638 308.744,149.086 308.41,148.534 C308.056,147.961 307.78,147.378 307.582,146.784 C307.416,146.305 307.275,145.836 307.16,145.378 C307.067,145.034 307.02,144.789 307.02,144.643 C307.02,144.581 307.061,144.508 307.145,144.425 C307.249,144.373 307.332,144.347 307.395,144.347 C307.593,144.347 307.723,144.466 307.785,144.706 C308.035,146.175 308.713,147.425 309.817,148.456 C310.921,149.445 312.202,149.94 313.66,149.94 C315.119,149.94 316.4,149.445 317.504,148.456 C318.619,147.425 319.296,146.175 319.535,144.706 C319.577,144.466 319.707,144.347 319.926,144.347 C319.999,144.347 320.088,144.373 320.192,144.425 C320.265,144.508 320.301,144.581 320.301,144.643 C320.301,144.789 320.254,145.034 320.16,145.378 C320.046,145.836 319.905,146.305 319.739,146.784 C319.541,147.378 319.265,147.961 318.91,148.534 C318.577,149.086 318.171,149.638 317.692,150.19 C317.254,150.701 316.666,151.123 315.926,151.456"/>
<path class="Articulation" d="M285.756,92.9559 C285.496,92.6954 285.366,92.3751 285.366,91.9949 C285.366,91.6147 285.496,91.2944 285.756,91.034 C286.017,90.7736 286.334,90.6434 286.709,90.6434 C287.084,90.6434 287.402,90.7736 287.663,91.034 C287.923,91.2944 288.053,91.6147 288.053,91.9949 C288.053,92.3751 287.923,92.6954 287.663,92.9559 C287.402,93.2163 287.084,93.3465 286.709,93.3465 C286.334,93.3465 286.017,93.2163 285.756,92.9559 M284.444,86.2371 C285.121,85.8934 285.876,85.7215 286.709,85.7215 C287.543,85.7215 288.298,85.8934 288.975,86.2371 C289.715,86.5704 290.303,86.9923 290.741,87.5027 C291.22,88.0548 291.626,88.6069 291.959,89.159 C292.314,89.7319 292.59,90.3152 292.788,90.909 C292.954,91.3882 293.095,91.8569 293.209,92.3152 C293.303,92.659 293.35,92.9038 293.35,93.0496 C293.35,93.1121 293.314,93.185 293.241,93.2684 C293.137,93.3204 293.048,93.3465 292.975,93.3465 C292.788,93.3465 292.657,93.2267 292.584,92.9871 C292.345,91.5184 291.668,90.2684 290.553,89.2371 C289.449,88.2475 288.168,87.7527 286.709,87.7527 C285.251,87.7527 283.97,88.2475 282.866,89.2371 C281.762,90.2684 281.084,91.5184 280.834,92.9871 C280.793,93.2267 280.663,93.3465 280.444,93.3465 C280.381,93.3465 280.298,93.3204 280.194,93.2684 C280.11,93.185 280.069,93.1121 280.069,93.0496 C280.069,92.9038 280.116,92.659 280.209,92.3152 C280.324,91.8569 280.465,91.3882 280.631,90.909 C280.829,90.3152 281.105,89.7319 281.459,89.159 C281.793,88.6069 282.204,88.0548 282.694,87.5027 C283.142,86.9715 283.725,86.5496 284.444,86.2371"/>
<path class="Dynamic" d="M155.072,147.494 L154.119,150.587 C153.785,151.702 153.228,152.78 152.447,153.822 C151.655,154.863 150.848,155.384 150.025,155.384 C149.598,155.384 149.22,155.272 148.892,155.048 C148.564,154.824 148.4,154.535 148.4,154.181 C148.4,153.775 148.483,153.431 148.65,153.15 C148.827,152.879 149.072,152.733 149.384,152.712 C149.613,152.712 149.806,152.796 149.962,152.962 C150.119,153.129 150.197,153.322 150.197,153.541 C150.197,153.738 150.082,153.921 149.853,154.087 C149.613,154.233 149.488,154.4 149.478,154.587 C149.478,154.712 149.619,154.775 149.9,154.775 L150.025,154.775 C150.087,154.775 150.181,154.759 150.306,154.728 C150.379,154.718 150.468,154.676 150.572,154.603 C150.572,154.603 150.634,154.551 150.759,154.447 C150.843,154.332 150.895,154.249 150.916,154.197 C150.957,154.093 150.994,154.009 151.025,153.947 C151.067,153.905 151.103,153.801 151.134,153.634 C151.155,153.593 151.171,153.546 151.181,153.494 C151.192,153.442 151.202,153.405 151.212,153.384 C151.223,153.363 151.228,153.348 151.228,153.337 C151.28,153.129 151.317,153.004 151.337,152.962 C151.379,152.754 151.4,152.65 151.4,152.65 L152.681,147.494 L151.697,147.494 C151.603,147.494 151.535,147.462 151.494,147.4 C151.442,147.317 151.416,147.244 151.416,147.181 C151.416,147.098 151.442,147.025 151.494,146.962 C151.577,146.9 151.645,146.869 151.697,146.869 L152.869,146.869 C153.192,145.89 153.728,145.046 154.478,144.337 C155.218,143.608 156.015,143.244 156.869,143.244 C157.327,143.244 157.707,143.358 158.009,143.587 C158.332,143.806 158.499,144.093 158.509,144.447 C158.509,144.832 158.426,145.176 158.259,145.478 C158.061,145.749 157.817,145.89 157.525,145.9 C157.296,145.9 157.103,145.819 156.947,145.658 C156.791,145.496 156.712,145.306 156.712,145.087 C156.712,144.9 156.832,144.728 157.072,144.572 C157.311,144.416 157.426,144.238 157.416,144.041 C157.416,143.895 157.28,143.827 157.009,143.837 L156.962,143.837 C156.931,143.858 156.9,143.863 156.869,143.853 C156.64,143.853 156.447,143.91 156.291,144.025 C156.134,144.129 155.988,144.317 155.853,144.587 C155.811,144.66 155.778,144.733 155.751,144.806 C155.725,144.879 155.697,144.96 155.666,145.048 C155.634,145.137 155.608,145.197 155.587,145.228 C155.577,145.291 155.556,145.421 155.525,145.619 C155.483,145.806 155.447,145.968 155.416,146.103 C155.332,146.499 155.275,146.754 155.244,146.869 L156.322,146.869 C156.405,146.869 156.481,146.897 156.548,146.955 C156.616,147.012 156.65,147.085 156.65,147.173 C156.65,147.262 156.616,147.337 156.548,147.4 C156.481,147.462 156.405,147.494 156.322,147.494 L155.072,147.494 M160.353,147.494 L159.4,150.587 C159.067,151.702 158.509,152.78 157.728,153.822 C156.936,154.863 156.129,155.384 155.306,155.384 C154.879,155.384 154.501,155.272 154.173,155.048 C153.845,154.824 153.681,154.535 153.681,154.181 C153.681,153.775 153.765,153.431 153.931,153.15 C154.108,152.879 154.353,152.733 154.666,152.712 C154.895,152.712 155.087,152.796 155.244,152.962 C155.4,153.129 155.478,153.322 155.478,153.541 C155.478,153.738 155.363,153.921 155.134,154.087 C154.895,154.233 154.77,154.4 154.759,154.587 C154.759,154.712 154.9,154.775 155.181,154.775 L155.306,154.775 C155.369,154.775 155.462,154.759 155.587,154.728 C155.66,154.718 155.749,154.676 155.853,154.603 C155.853,154.603 155.916,154.551 156.041,154.447 C156.124,154.332 156.176,154.249 156.197,154.197 C156.238,154.093 156.275,154.009 156.306,153.947 C156.348,153.905 156.384,153.801 156.416,153.634 C156.436,153.593 156.452,153.546 156.462,153.494 C156.473,153.442 156.483,153.405 156.494,153.384 C156.504,153.363 156.509,153.348 156.509,153.337 C156.561,153.129 156.598,153.004 156.619,152.962 C156.66,152.754 156.681,152.65 156.681,152.65 L157.962,147.494 L156.978,147.494 C156.884,147.494 156.817,147.462 156.775,147.4 C156.723,147.317 156.697,147.244 156.697,147.181 C156.697,147.098 156.723,147.025 156.775,146.962 C156.858,146.9 156.926,146.869 156.978,146.869 L158.15,146.869 C158.473,145.89 159.009,145.046 159.759,144.337 C160.499,143.608 161.296,143.244 162.15,143.244 C162.608,143.244 162.988,143.358 163.291,143.587 C163.613,143.806 163.78,144.093 163.791,144.447 C163.791,144.832 163.707,145.176 163.541,145.478 C163.343,145.749 163.098,145.89 162.806,145.9 C162.577,145.9 162.384,145.819 162.228,145.658 C162.072,145.496 161.994,145.306 161.994,145.087 C161.994,144.9 162.113,144.728 162.353,144.572 C162.593,144.416 162.707,144.238 162.697,144.041 C162.697,143.895 162.561,143.827 162.291,143.837 L162.244,143.837 C162.212,143.858 162.181,143.863 162.15,143.853 C161.921,143.853 161.728,143.91 161.572,144.025 C161.416,144.129 161.27,144.317 161.134,144.587 C161.093,144.66 161.059,144.733 161.033,144.806 C161.007,144.879 160.978,144.96 160.947,145.048 C160.916,145.137 160.89,145.197 160.869,145.228 C160.858,145.291 160.837,145.421 160.806,145.619 C160.765,145.806 160.728,145.968 160.697,146.103 C160.613,146.499 160.556,146.754 160.525,146.869 L161.603,146.869 C161.686,146.869 161.762,146.897 161.83,146.955 C161.897,147.012 161.931,147.085 161.931,147.173 C161.931,147.262 161.897,147.337 161.83,147.4 C161.762,147.462 161.686,147.494 161.603,147.494 L160.353,147.494 "/>
<path class="Beam" fill-rule="evenodd" d="M116.996,193.347 L135.306,193.347 L135.306,195.847 L116.996,195.847 L116.996,193.347 "/>
<path class="Beam" fill-rule="evenodd" d="M116.996,140.847 L135.306,140.847 L135.306,143.347 L116.996,143.347 L116.996,140.847 "/>
<path class="Hook" d="M103.882,183.878 C104.184,183.878 104.507,184.362 104.851,185.331 C105.174,186.3 105.335,187.222 105.335,188.097 C105.335,188.836 105.153,189.571 104.788,190.3 C104.413,191.081 103.965,191.758 103.444,192.331 L101.835,194.128 C101.345,194.701 100.903,195.362 100.507,196.112 C100.142,196.841 99.9601,197.586 99.9601,198.347 L99.3351,198.347 L99.3351,193.347 L99.9601,193.347 C100.314,193.128 100.835,192.774 101.523,192.284 C101.835,192.055 102.304,191.664 102.929,191.112 C103.439,190.643 103.825,190.164 104.085,189.675 C104.356,189.154 104.491,188.628 104.491,188.097 C104.491,186.857 104.132,185.623 103.413,184.393 C103.413,184.393 103.413,184.367 103.413,184.315 C103.413,184.201 103.455,184.107 103.538,184.034 C103.642,183.93 103.757,183.878 103.882,183.878"/>
<path class="Hook" d="M103.882,131.378 C104.184,131.378 104.507,131.862 104.851,132.831 C105.174,133.8 105.335,134.722 105.335,135.597 C105.335,136.336 105.153,137.07 104.788,137.8 C104.413,138.581 103.965,139.258 103.444,139.831 L101.835,141.628 C101.345,142.201 100.903,142.862 100.507,143.612 C100.142,144.341 99.9601,145.086 99.9601,145.847 L99.3351,145.847 L99.3351,140.847 L99.9601,140.847 C100.314,140.628 100.835,140.274 101.523,139.784 C101.835,139.555 102.304,139.164 102.929,138.612 C103.439,138.143 103.825,137.664 104.085,137.175 C104.356,136.654 104.491,136.128 104.491,135.597 C104.491,134.357 104.132,133.123 103.413,131.893 C103.413,131.893 103.413,131.867 103.413,131.815 C103.413,131.701 103.455,131.607 103.538,131.534 C103.642,131.43 103.757,131.378 103.882,131.378"/>
<path class="HairpinSegment" d="M97.9191,148.924 C97.4399,148.924 97.0129,149.114 96.6379,149.494 C96.2629,149.874 95.9842,150.317 95.8019,150.822 C95.6196,151.328 95.5285,151.82 95.5285,152.299 C95.5285,152.716 95.6248,153.046 95.8176,153.291 C96.0103,153.536 96.2785,153.658 96.6222,153.658 C96.9243,153.658 97.2056,153.585 97.466,153.44 C97.7264,153.294 98.0181,153.044 98.341,152.69 L98.5285,152.815 C98.1743,153.273 97.8202,153.604 97.466,153.807 C97.1118,154.01 96.7108,154.111 96.2629,154.111 C95.7108,154.111 95.2785,153.953 94.966,153.635 C94.6535,153.317 94.4972,152.872 94.4972,152.299 C94.4972,151.372 94.854,150.538 95.5676,149.799 C96.2811,149.059 97.0858,148.69 97.9816,148.69 C98.3462,148.69 98.6483,148.783 98.8879,148.971 C99.1274,149.158 99.2472,149.393 99.2472,149.674 C99.2472,149.82 99.1899,149.947 99.0754,150.057 C98.9608,150.166 98.8254,150.221 98.6691,150.221 C98.3566,150.221 98.2004,150.065 98.2004,149.752 C98.2004,149.669 98.229,149.562 98.2863,149.432 C98.3436,149.301 98.3722,149.216 98.3722,149.174 C98.3722,149.007 98.2212,148.924 97.9191,148.924 M103.122,149.908 C102.966,149.908 102.857,149.877 102.794,149.815 C102.732,149.752 102.685,149.687 102.653,149.619 C102.622,149.551 102.57,149.518 102.497,149.518 C102.278,149.518 101.966,149.867 101.56,150.565 C101.289,151.012 101.07,151.442 100.903,151.854 C100.737,152.265 100.497,152.976 100.185,153.986 L99.2785,153.986 L100.247,150.486 C100.372,150.049 100.435,149.736 100.435,149.549 C100.435,149.309 100.294,149.19 100.013,149.19 C99.9295,149.19 99.7941,149.216 99.6066,149.268 L99.6066,149.033 C99.9608,148.971 100.581,148.856 101.466,148.69 L101.497,148.721 L100.872,151.33 C100.945,151.122 101.049,150.89 101.185,150.635 C101.32,150.38 101.487,150.096 101.685,149.783 C101.883,149.471 102.109,149.21 102.364,149.002 C102.62,148.794 102.867,148.69 103.107,148.69 C103.273,148.69 103.409,148.749 103.513,148.869 C103.617,148.989 103.669,149.137 103.669,149.315 C103.669,149.71 103.487,149.908 103.122,149.908 M107.638,152.69 L107.794,152.83 C107.44,153.236 107.042,153.551 106.599,153.775 C106.156,153.999 105.726,154.111 105.31,154.111 C104.831,154.111 104.445,153.96 104.153,153.658 C103.862,153.356 103.716,152.966 103.716,152.486 C103.716,151.903 103.898,151.315 104.263,150.721 C104.627,150.127 105.091,149.64 105.653,149.26 C106.216,148.88 106.773,148.69 107.325,148.69 C107.627,148.69 107.864,148.762 108.036,148.908 C108.208,149.054 108.294,149.257 108.294,149.518 C108.294,150.038 108.005,150.502 107.427,150.908 C106.849,151.315 106.112,151.585 105.216,151.721 L104.888,151.768 C104.805,152.08 104.763,152.325 104.763,152.502 C104.763,152.835 104.864,153.101 105.068,153.299 C105.271,153.497 105.544,153.596 105.888,153.596 C106.148,153.596 106.398,153.533 106.638,153.408 C106.877,153.283 107.211,153.044 107.638,152.69 M104.966,151.502 C105.403,151.398 105.784,151.27 106.107,151.119 C106.43,150.968 106.677,150.82 106.849,150.674 C107.021,150.528 107.159,150.369 107.263,150.197 C107.367,150.025 107.432,149.885 107.458,149.775 C107.484,149.666 107.497,149.554 107.497,149.44 C107.497,149.304 107.461,149.192 107.388,149.104 C107.315,149.015 107.211,148.971 107.075,148.971 C106.773,148.971 106.43,149.169 106.044,149.565 C105.659,149.96 105.367,150.429 105.169,150.971 L104.966,151.502 M110.028,154.111 C109.862,154.111 109.643,154.078 109.372,154.01 C109.101,153.942 108.903,153.908 108.778,153.908 C108.664,153.908 108.565,153.986 108.482,154.143 L108.294,154.143 L108.528,152.252 L108.732,152.252 C108.825,152.825 108.969,153.242 109.161,153.502 C109.354,153.762 109.617,153.893 109.95,153.893 C110.211,153.893 110.424,153.807 110.591,153.635 C110.758,153.463 110.841,153.236 110.841,152.955 C110.841,152.726 110.765,152.479 110.614,152.213 C110.463,151.947 110.299,151.716 110.122,151.518 C109.945,151.32 109.781,151.085 109.63,150.815 C109.479,150.544 109.403,150.278 109.403,150.018 C109.403,149.622 109.536,149.301 109.802,149.057 C110.068,148.812 110.419,148.69 110.857,148.69 C111.023,148.69 111.232,148.726 111.482,148.799 C111.732,148.872 111.893,148.908 111.966,148.908 C112.122,148.908 112.242,148.835 112.325,148.69 L112.497,148.69 L112.247,150.361 L112.06,150.361 C111.945,149.434 111.575,148.971 110.95,148.971 C110.742,148.971 110.578,149.031 110.458,149.15 C110.338,149.27 110.278,149.429 110.278,149.627 C110.278,149.815 110.357,150.038 110.513,150.299 C110.669,150.559 110.838,150.796 111.021,151.01 C111.203,151.223 111.37,151.473 111.521,151.76 C111.672,152.046 111.747,152.32 111.747,152.58 C111.747,153.028 111.586,153.395 111.263,153.682 C110.94,153.968 110.528,154.111 110.028,154.111 M116.122,148.924 C115.643,148.924 115.216,149.114 114.841,149.494 C114.466,149.874 114.187,150.317 114.005,150.822 C113.823,151.328 113.732,151.82 113.732,152.299 C113.732,152.716 113.828,153.046 114.021,153.291 C114.213,153.536 114.482,153.658 114.825,153.658 C115.127,153.658 115.409,153.585 115.669,153.44 C115.93,153.294 116.221,153.044 116.544,152.69 L116.732,152.815 C116.377,153.273 116.023,153.604 115.669,153.807 C115.315,154.01 114.914,154.111 114.466,154.111 C113.914,154.111 113.482,153.953 113.169,153.635 C112.857,153.317 112.7,152.872 112.7,152.299 C112.7,151.372 113.057,150.538 113.771,149.799 C114.484,149.059 115.289,148.69 116.185,148.69 C116.549,148.69 116.851,148.783 117.091,148.971 C117.331,149.158 117.45,149.393 117.45,149.674 C117.45,149.82 117.393,149.947 117.278,150.057 C117.164,150.166 117.028,150.221 116.872,150.221 C116.56,150.221 116.403,150.065 116.403,149.752 C116.403,149.669 116.432,149.562 116.489,149.432 C116.547,149.301 116.575,149.216 116.575,149.174 C116.575,149.007 116.424,148.924 116.122,148.924 M118.232,152.783 C118.419,152.783 118.578,152.851 118.708,152.986 C118.838,153.122 118.903,153.283 118.903,153.471 C118.903,153.648 118.836,153.799 118.7,153.924 C118.565,154.049 118.398,154.111 118.2,154.111 C118.034,154.111 117.888,154.049 117.763,153.924 C117.638,153.799 117.575,153.648 117.575,153.471 C117.575,153.283 117.64,153.122 117.771,152.986 C117.901,152.851 118.055,152.783 118.232,152.783"/>
<polyline class="HairpinSegment" fill="none" stroke="#000000" stroke-dasharray="3.25,13" stroke-dashoffset="9.75001" stroke-width="0.65" stroke-linecap="square" stroke-linejoin="bevel" points="122.747,153.986 142.197,153.986"/>
</svg>
