<?xml version="1.0" encoding="UTF-8" standalone="no"?>
<svg width="595.44px" height="841.68px" viewBox="0 0 595.44 841.68"
 xmlns="http://www.w3.org/2000/svg" xmlns:xlink="http://www.w3.org/1999/xlink" version="1.2" baseProfile="tiny">
<title>Title</title>
<desc>Generated by MuseScore 2.3.2</desc>
<polyline class="StaffLines" fill="none" stroke="#000000" stroke-width="0.40" stroke-linejoin="bevel" points="28.3465,113.347 567.094,113.347"/>
<polyline class="StaffLines" fill="none" stroke="#000000" stroke-width="0.40" stroke-linejoin="bevel" points="28.3465,118.347 567.094,118.347"/>
<polyline class="StaffLines" fill="none" stroke="#000000" stroke-width="0.40" stroke-linejoin="bevel" points="28.3465,123.347 567.094,123.347"/>
<polyline class="StaffLines" fill="none" stroke="#000000" stroke-width="0.40" stroke-linejoin="bevel" points="28.3465,128.347 567.094,128.347"/>
<polyline class="StaffLines" fill="none" stroke="#000000" stroke-width="0.40" stroke-linejoin="bevel" points="28.3465,133.347 567.094,133.347"/>
<polyline class="StaffLines" fill="none" stroke="#000000" stroke-width="0.40" stroke-linejoin="bevel" points="28.3465,165.847 567.094,165.847"/>
<polyline class="StaffLines" fill="none" stroke="#000000" stroke-width="0.40" stroke-linejoin="bevel" points="28.3465,170.847 567.094,170.847"/>
<polyline class="StaffLines" fill="none" stroke="#000000" stroke-width="0.40" stroke-linejoin="bevel" points="28.3465,175.847 567.094,175.847"/>
<polyline class="StaffLines" fill="none" stroke="#000000" stroke-width="0.40" stroke-linejoin="bevel" points="28.3465,180.847 567.094,180.847"/>
<polyline class="StaffLines" fill="none" stroke="#000000" stroke-width="0.40" stroke-linejoin="bevel" points="28.3465,185.847 567.094,185.847"/>
<path class="SlurSegment" stroke="#000000" stroke-width="0.35" stroke-linecap="round" stroke-linejoin="round" fill-rule="evenodd" d="M237.073,153.763 C249.405,146.863 286.401,146.863 298.733,153.763 C286.401,147.663 249.405,147.663 237.073,153.763"/>
<path class="SlurSegment" stroke="#000000" stroke-width="0.35" stroke-linecap="round" stroke-linejoin="round" fill-rule="evenodd" d="M237.073,158.763 C249.405,151.863 286.401,151.863 298.733,158.763 C286.401,152.663 249.405,152.663 237.073,158.763"/>
<path class="SlurSegment" stroke="#000000" stroke-width="0.35" stroke-linecap="round" stroke-linejoin="round" fill-rule="evenodd" d="M237.073,166.263 C249.405,159.363 286.401,159.363 298.733,166.263 C286.401,160.163 249.405,160.163 237.073,166.263"/>
<path class="SlurSegment" stroke="#000000" stroke-width="0.35" stroke-linecap="round" stroke-linejoin="round" fill-rule="evenodd" d="M237.073,180.43 C249.405,186.53 286.401,186.53 298.733,180.43 C286.401,187.33 249.405,187.33 237.073,180.43"/>
<path class="SlurSegment" stroke="#000000" stroke-width="0.35" stroke-linecap="round" stroke-linejoin="round" fill-rule="evenodd" d="M166.803,153.763 C179.135,146.863 216.131,146.863 228.463,153.763 C216.131,147.663 179.135,147.663 166.803,153.763"/>
<path class="SlurSegment" stroke="#000000" stroke-width="0.35" stroke-linecap="round" stroke-linejoin="round" fill-rule="evenodd" d="M166.803,158.763 C179.135,151.863 216.131,151.863 228.463,158.763 C216.131,152.663 179.135,152.663 166.803,158.763"/>
<path class="SlurSegment" stroke="#000000" stroke-width="0.35" stroke-linecap="round" stroke-linejoin="round" fill-rule="evenodd" d="M166.803,166.263 C179.135,159.363 216.131,159.363 228.463,166.263 C216.131,160.163 179.135,160.163 166.803,166.263"/>
<path class="SlurSegment" stroke="#000000" stroke-width="0.35" stroke-linecap="round" stroke-linejoin="round" fill-rule="evenodd" d="M166.803,180.43 C179.135,186.53 216.131,186.53 228.463,180.43 C216.131,187.33 179.135,187.33 166.803,180.43"/>
<path class="SlurSegment" stroke="#000000" stroke-width="0.35" stroke-linecap="round" stroke-linejoin="round" fill-rule="evenodd" d="M89.3516,153.763 C103.12,146.863 144.424,146.863 158.192,153.763 C144.424,147.663 103.12,147.663 89.3516,153.763"/>
<path class="SlurSegment" stroke="#000000" stroke-width="0.35" stroke-linecap="round" stroke-linejoin="round" fill-rule="evenodd" d="M89.3516,158.763 C103.12,151.863 144.424,151.863 158.192,158.763 C144.424,152.663 103.12,152.663 89.3516,158.763"/>
<path class="SlurSegment" stroke="#000000" stroke-width="0.35" stroke-linecap="round" stroke-linejoin="round" fill-rule="evenodd" d="M89.3516,166.263 C103.12,159.363 144.424,159.363 158.192,166.263 C144.424,160.163 103.12,160.163 89.3516,166.263"/>
<path class="SlurSegment" stroke="#000000" stroke-width="0.35" stroke-linecap="round" stroke-linejoin="round" fill-rule="evenodd" d="M89.3516,180.43 C103.12,186.53 144.424,186.53 158.192,180.43 C144.424,187.33 103.12,187.33 89.3516,180.43"/>
<polyline class="BarLine" stroke="#000000" stroke-width="0.80" stroke-linejoin="bevel" points="28.7465,113.347 28.7465,185.847"/>
<polyline class="BarLine" stroke="#000000" stroke-width="0.80" stroke-linejoin="bevel" points="562.194,165.847 562.194,185.847"/>
<polyline class="BarLine" stroke="#000000" stroke-width="2.50" stroke-linejoin="bevel" points="565.844,165.847 565.844,185.847"/>
<polyline class="BarLine" stroke="#000000" stroke-width="0.80" stroke-linejoin="bevel" points="562.194,113.347 562.194,133.347"/>
<polyline class="BarLine" stroke="#000000" stroke-width="2.50" stroke-linejoin="bevel" points="565.844,113.347 565.844,133.347"/>
<polyline class="BarLine" stroke="#000000" stroke-width="0.80" stroke-linejoin="bevel" points="514.504,165.847 514.504,185.847"/>
<polyline class="BarLine" stroke="#000000" stroke-width="0.80" stroke-linejoin="bevel" points="514.504,113.347 514.504,133.347"/>
<polyline class="BarLine" stroke="#000000" stroke-width="0.80" stroke-linejoin="bevel" points="466.815,165.847 466.815,185.847"/>
<polyline class="BarLine" stroke="#000000" stroke-width="0.80" stroke-linejoin="bevel" points="466.815,113.347 466.815,133.347"/>
<polyline class="BarLine" stroke="#000000" stroke-width="0.80" stroke-linejoin="bevel" points="419.126,165.847 419.126,185.847"/>
<polyline class="BarLine" stroke="#000000" stroke-width="0.80" stroke-linejoin="bevel" points="419.126,113.347 419.126,133.347"/>
<polyline class="BarLine" stroke="#000000" stroke-width="0.80" stroke-linejoin="bevel" points="371.437,165.847 371.437,185.847"/>
<polyline class="BarLine" stroke="#000000" stroke-width="0.80" stroke-linejoin="bevel" points="371.437,113.347 371.437,133.347"/>
<polyline class="BarLine" stroke="#000000" stroke-width="0.80" stroke-linejoin="bevel" points="293.166,165.847 293.166,185.847"/>
<polyline class="BarLine" stroke="#000000" stroke-width="0.80" stroke-linejoin="bevel" points="293.166,113.347 293.166,133.347"/>
<polyline class="BarLine" stroke="#000000" stroke-width="0.80" stroke-linejoin="bevel" points="222.896,165.847 222.896,185.847"/>
<polyline class="BarLine" stroke="#000000" stroke-width="0.80" stroke-linejoin="bevel" points="222.896,113.347 222.896,133.347"/>
<polyline class="BarLine" stroke="#000000" stroke-width="0.80" stroke-linejoin="bevel" points="152.626,165.847 152.626,185.847"/>
<polyline class="BarLine" stroke="#000000" stroke-width="0.80" stroke-linejoin="bevel" points="152.626,113.347 152.626,133.347"/>
<polyline class="LedgerLine" stroke="#000000" stroke-width="0.80" stroke-linecap="square" stroke-linejoin="bevel" points="351.714,138.347 361.297,138.347"/>
<polyline class="LedgerLine" stroke="#000000" stroke-width="0.80" stroke-linecap="square" stroke-linejoin="bevel" points="333.892,138.347 343.475,138.347"/>
<polyline class="LedgerLine" stroke="#000000" stroke-width="0.80" stroke-linecap="square" stroke-linejoin="bevel" points="316.069,138.347 325.652,138.347"/>
<polyline class="LedgerLine" stroke="#000000" stroke-width="0.80" stroke-linecap="square" stroke-linejoin="bevel" points="298.066,155.847 308.01,155.847"/>
<polyline class="LedgerLine" stroke="#000000" stroke-width="0.80" stroke-linecap="square" stroke-linejoin="bevel" points="298.066,160.847 308.01,160.847"/>
<polyline class="LedgerLine" stroke="#000000" stroke-width="0.80" stroke-linecap="square" stroke-linejoin="bevel" points="227.796,155.847 237.74,155.847"/>
<polyline class="LedgerLine" stroke="#000000" stroke-width="0.80" stroke-linecap="square" stroke-linejoin="bevel" points="227.796,160.847 237.74,160.847"/>
<polyline class="LedgerLine" stroke="#000000" stroke-width="0.80" stroke-linecap="square" stroke-linejoin="bevel" points="157.526,155.847 167.469,155.847"/>
<polyline class="LedgerLine" stroke="#000000" stroke-width="0.80" stroke-linecap="square" stroke-linejoin="bevel" points="157.526,160.847 167.469,160.847"/>
<polyline class="LedgerLine" stroke="#000000" stroke-width="0.80" stroke-linecap="square" stroke-linejoin="bevel" points="157.706,103.346 167.289,103.346"/>
<polyline class="LedgerLine" stroke="#000000" stroke-width="0.80" stroke-linecap="square" stroke-linejoin="bevel" points="157.706,108.347 167.289,108.347"/>
<polyline class="LedgerLine" stroke="#000000" stroke-width="0.80" stroke-linecap="square" stroke-linejoin="bevel" points="133.108,98.3465 142.691,98.3465"/>
<polyline class="LedgerLine" stroke="#000000" stroke-width="0.80" stroke-linecap="square" stroke-linejoin="bevel" points="133.108,103.346 142.691,103.346"/>
<polyline class="LedgerLine" stroke="#000000" stroke-width="0.80" stroke-linecap="square" stroke-linejoin="bevel" points="133.108,108.347 142.691,108.347"/>
<polyline class="LedgerLine" stroke="#000000" stroke-width="0.80" stroke-linecap="square" stroke-linejoin="bevel" points="115.49,98.3465 125.073,98.3465"/>
<polyline class="LedgerLine" stroke="#000000" stroke-width="0.80" stroke-linecap="square" stroke-linejoin="bevel" points="115.49,103.346 125.073,103.346"/>
<polyline class="LedgerLine" stroke="#000000" stroke-width="0.80" stroke-linecap="square" stroke-linejoin="bevel" points="115.49,108.347 125.073,108.347"/>
<polyline class="LedgerLine" stroke="#000000" stroke-width="0.80" stroke-linecap="square" stroke-linejoin="bevel" points="97.8727,98.3465 107.456,98.3465"/>
<polyline class="LedgerLine" stroke="#000000" stroke-width="0.80" stroke-linecap="square" stroke-linejoin="bevel" points="97.8727,103.346 107.456,103.346"/>
<polyline class="LedgerLine" stroke="#000000" stroke-width="0.80" stroke-linecap="square" stroke-linejoin="bevel" points="97.8727,108.347 107.456,108.347"/>
<polyline class="LedgerLine" stroke="#000000" stroke-width="0.80" stroke-linecap="square" stroke-linejoin="bevel" points="80.0746,155.847 90.0184,155.847"/>
<polyline class="LedgerLine" stroke="#000000" stroke-width="0.80" stroke-linecap="square" stroke-linejoin="bevel" points="80.0746,160.847 90.0184,160.847"/>
<polyline class="LedgerLine" stroke="#000000" stroke-width="0.80" stroke-linecap="square" stroke-linejoin="bevel" points="80.2551,103.346 89.8379,103.346"/>
<polyline class="LedgerLine" stroke="#000000" stroke-width="0.80" stroke-linecap="square" stroke-linejoin="bevel" points="80.2551,108.347 89.8379,108.347"/>
<polyline class="Stem" stroke="#000000" stroke-width="0.65" stroke-linecap="round" stroke-linejoin="bevel" points="359.472,137.407 359.472,123.347"/>
<polyline class="Stem" stroke="#000000" stroke-width="0.65" stroke-linecap="round" stroke-linejoin="bevel" points="341.65,137.407 341.65,123.347"/>
<polyline class="Stem" stroke="#000000" stroke-width="0.65" stroke-linecap="round" stroke-linejoin="bevel" points="323.827,137.407 323.827,123.347"/>
<polyline class="Stem" stroke="#000000" stroke-width="0.65" stroke-linecap="round" stroke-linejoin="bevel" points="299.891,156.631 299.891,193.347"/>
<polyline class="Stem" stroke="#000000" stroke-width="0.65" stroke-linecap="round" stroke-linejoin="bevel" points="306.005,132.407 306.005,118.347"/>
<polyline class="Stem" stroke="#000000" stroke-width="0.65" stroke-linecap="round" stroke-linejoin="bevel" points="283.202,127.407 283.202,113.347"/>
<polyline class="Stem" stroke="#000000" stroke-width="0.65" stroke-linecap="round" stroke-linejoin="bevel" points="267.379,127.407 267.379,113.347"/>
<polyline class="Stem" stroke="#000000" stroke-width="0.65" stroke-linecap="round" stroke-linejoin="bevel" points="245.624,121.786 245.624,134.597"/>
<polyline class="Stem" stroke="#000000" stroke-width="0.65" stroke-linecap="round" stroke-linejoin="bevel" points="229.621,156.631 229.621,193.347"/>
<polyline class="Stem" stroke="#000000" stroke-width="0.65" stroke-linecap="round" stroke-linejoin="bevel" points="229.801,116.786 229.801,132.097"/>
<polyline class="Stem" stroke="#000000" stroke-width="0.65" stroke-linecap="round" stroke-linejoin="bevel" points="206.998,111.786 206.998,127.097"/>
<polyline class="Stem" stroke="#000000" stroke-width="0.65" stroke-linecap="round" stroke-linejoin="bevel" points="191.176,111.786 191.176,127.097"/>
<polyline class="Stem" stroke="#000000" stroke-width="0.65" stroke-linecap="round" stroke-linejoin="bevel" points="175.353,111.786 175.353,129.597"/>
<polyline class="Stem" stroke="#000000" stroke-width="0.65" stroke-linecap="round" stroke-linejoin="bevel" points="159.351,156.631 159.351,193.347"/>
<polyline class="Stem" stroke="#000000" stroke-width="0.65" stroke-linecap="round" stroke-linejoin="bevel" points="159.531,104.286 159.531,134.597"/>
<polyline class="Stem" stroke="#000000" stroke-width="0.65" stroke-linecap="round" stroke-linejoin="bevel" points="134.933,99.2856 134.933,132.097"/>
<polyline class="Stem" stroke="#000000" stroke-width="0.65" stroke-linecap="round" stroke-linejoin="bevel" points="117.315,99.2856 117.315,132.097"/>
<polyline class="Stem" stroke="#000000" stroke-width="0.65" stroke-linecap="round" stroke-linejoin="bevel" points="99.6977,99.2856 99.6977,132.097"/>
<polyline class="Stem" stroke="#000000" stroke-width="0.65" stroke-linecap="round" stroke-linejoin="bevel" points="81.8996,156.631 81.8996,193.347"/>
<polyline class="Stem" stroke="#000000" stroke-width="0.65" stroke-linecap="round" stroke-linejoin="bevel" points="82.0801,104.286 82.0801,132.097"/>
<path class="Note" d="M357.605,135.597 C358.23,135.597 358.761,135.758 359.199,136.081 C359.595,136.435 359.792,136.878 359.792,137.409 C359.792,138.305 359.334,139.143 358.417,139.925 C357.48,140.706 356.475,141.097 355.402,141.097 C354.777,141.097 354.251,140.935 353.824,140.612 C353.417,140.258 353.214,139.815 353.214,139.284 C353.214,138.388 353.683,137.55 354.621,136.768 C355.537,135.987 356.532,135.597 357.605,135.597"/>
<path class="Note" d="M339.782,135.597 C340.407,135.597 340.939,135.758 341.376,136.081 C341.772,136.435 341.97,136.878 341.97,137.409 C341.97,138.305 341.512,139.143 340.595,139.925 C339.657,140.706 338.652,141.097 337.579,141.097 C336.954,141.097 336.428,140.935 336.001,140.612 C335.595,140.258 335.392,139.815 335.392,139.284 C335.392,138.388 335.861,137.55 336.798,136.768 C337.715,135.987 338.71,135.597 339.782,135.597"/>
<path class="Note" d="M321.96,135.597 C322.585,135.597 323.116,135.758 323.554,136.081 C323.95,136.435 324.147,136.878 324.147,137.409 C324.147,138.305 323.689,139.143 322.772,139.925 C321.835,140.706 320.83,141.097 319.757,141.097 C319.132,141.097 318.606,140.935 318.179,140.612 C317.772,140.258 317.569,139.815 317.569,139.284 C317.569,138.388 318.038,137.55 318.976,136.768 C319.892,135.987 320.887,135.597 321.96,135.597"/>
<path class="Note" d="M305.879,154.534 C305.879,154.315 305.796,154.128 305.629,153.972 C305.452,153.805 305.254,153.722 305.035,153.722 C304.65,153.722 303.863,154.112 302.676,154.893 C301.447,155.685 300.697,156.253 300.426,156.597 C300.28,156.774 300.207,156.961 300.207,157.159 C300.207,157.378 300.296,157.565 300.473,157.722 C300.629,157.888 300.822,157.972 301.051,157.972 C301.426,157.972 302.223,157.581 303.441,156.8 C304.639,156.018 305.379,155.451 305.66,155.097 C305.806,154.93 305.879,154.742 305.879,154.534 M304.848,153.097 C305.962,153.097 306.52,153.576 306.52,154.534 C306.52,155.003 306.384,155.55 306.113,156.175 C305.842,156.789 305.478,157.258 305.02,157.581 C304.02,158.258 302.764,158.597 301.254,158.597 C300.129,158.597 299.566,158.117 299.566,157.159 C299.566,156.732 299.702,156.19 299.973,155.534 C300.233,154.909 300.598,154.435 301.066,154.112 C302.077,153.435 303.337,153.097 304.848,153.097"/>
<path class="Note" d="M305.879,159.534 C305.879,159.315 305.796,159.128 305.629,158.972 C305.452,158.805 305.254,158.722 305.035,158.722 C304.65,158.722 303.863,159.112 302.676,159.893 C301.447,160.685 300.697,161.253 300.426,161.597 C300.28,161.774 300.207,161.961 300.207,162.159 C300.207,162.378 300.296,162.565 300.473,162.722 C300.629,162.888 300.822,162.972 301.051,162.972 C301.426,162.972 302.223,162.581 303.441,161.8 C304.639,161.018 305.379,160.451 305.66,160.097 C305.806,159.93 305.879,159.742 305.879,159.534 M304.848,158.097 C305.962,158.097 306.52,158.576 306.52,159.534 C306.52,160.003 306.384,160.55 306.113,161.175 C305.842,161.789 305.478,162.258 305.02,162.581 C304.02,163.258 302.764,163.597 301.254,163.597 C300.129,163.597 299.566,163.117 299.566,162.159 C299.566,161.732 299.702,161.19 299.973,160.534 C300.233,159.909 300.598,159.435 301.066,159.112 C302.077,158.435 303.337,158.097 304.848,158.097"/>
<path class="Note" d="M305.879,167.034 C305.879,166.815 305.796,166.628 305.629,166.472 C305.452,166.305 305.254,166.222 305.035,166.222 C304.65,166.222 303.863,166.612 302.676,167.393 C301.447,168.185 300.697,168.753 300.426,169.097 C300.28,169.274 300.207,169.461 300.207,169.659 C300.207,169.878 300.296,170.065 300.473,170.222 C300.629,170.388 300.822,170.472 301.051,170.472 C301.426,170.472 302.223,170.081 303.441,169.3 C304.639,168.518 305.379,167.951 305.66,167.597 C305.806,167.43 305.879,167.242 305.879,167.034 M304.848,165.597 C305.962,165.597 306.52,166.076 306.52,167.034 C306.52,167.503 306.384,168.05 306.113,168.675 C305.842,169.289 305.478,169.758 305.02,170.081 C304.02,170.758 302.764,171.097 301.254,171.097 C300.129,171.097 299.566,170.617 299.566,169.659 C299.566,169.232 299.702,168.69 299.973,168.034 C300.233,167.409 300.598,166.935 301.066,166.612 C302.077,165.935 303.337,165.597 304.848,165.597"/>
<path class="Note" d="M305.879,177.034 C305.879,176.815 305.796,176.628 305.629,176.472 C305.452,176.305 305.254,176.222 305.035,176.222 C304.65,176.222 303.863,176.612 302.676,177.393 C301.447,178.185 300.697,178.753 300.426,179.097 C300.28,179.274 300.207,179.461 300.207,179.659 C300.207,179.878 300.296,180.065 300.473,180.222 C300.629,180.388 300.822,180.472 301.051,180.472 C301.426,180.472 302.223,180.081 303.441,179.3 C304.639,178.518 305.379,177.951 305.66,177.597 C305.806,177.43 305.879,177.242 305.879,177.034 M304.848,175.597 C305.962,175.597 306.52,176.076 306.52,177.034 C306.52,177.503 306.384,178.05 306.113,178.675 C305.842,179.289 305.478,179.758 305.02,180.081 C304.02,180.758 302.764,181.097 301.254,181.097 C300.129,181.097 299.566,180.617 299.566,179.659 C299.566,179.232 299.702,178.69 299.973,178.034 C300.233,177.409 300.598,176.935 301.066,176.612 C302.077,175.935 303.337,175.597 304.848,175.597"/>
<path class="Note" d="M304.137,130.597 C304.762,130.597 305.294,130.758 305.731,131.081 C306.127,131.435 306.325,131.878 306.325,132.409 C306.325,133.305 305.867,134.143 304.95,134.925 C304.012,135.706 303.007,136.097 301.934,136.097 C301.309,136.097 300.783,135.935 300.356,135.612 C299.95,135.258 299.747,134.815 299.747,134.284 C299.747,133.388 300.216,132.55 301.153,131.768 C302.07,130.987 303.065,130.597 304.137,130.597"/>
<path class="Note" d="M281.335,125.597 C281.96,125.597 282.491,125.758 282.928,126.081 C283.324,126.435 283.522,126.878 283.522,127.409 C283.522,128.305 283.064,129.143 282.147,129.925 C281.21,130.706 280.204,131.097 279.131,131.097 C278.506,131.097 277.98,130.935 277.553,130.612 C277.147,130.258 276.944,129.815 276.944,129.284 C276.944,128.388 277.413,127.55 278.35,126.768 C279.267,125.987 280.262,125.597 281.335,125.597"/>
<path class="Note" d="M265.512,125.597 C266.137,125.597 266.668,125.758 267.106,126.081 C267.502,126.435 267.7,126.878 267.7,127.409 C267.7,128.305 267.241,129.143 266.325,129.925 C265.387,130.706 264.382,131.097 263.309,131.097 C262.684,131.097 262.158,130.935 261.731,130.612 C261.325,130.258 261.121,129.815 261.121,129.284 C261.121,128.388 261.59,127.55 262.528,126.768 C263.444,125.987 264.439,125.597 265.512,125.597"/>
<path class="Note" d="M249.69,118.097 C250.315,118.097 250.846,118.258 251.283,118.581 C251.679,118.935 251.877,119.378 251.877,119.909 C251.877,120.805 251.419,121.643 250.502,122.425 C249.565,123.206 248.559,123.597 247.486,123.597 C246.861,123.597 246.335,123.435 245.908,123.112 C245.502,122.758 245.299,122.315 245.299,121.784 C245.299,120.888 245.768,120.05 246.705,119.268 C247.622,118.487 248.617,118.097 249.69,118.097"/>
<path class="Note" d="M235.608,154.534 C235.608,154.315 235.525,154.128 235.358,153.972 C235.181,153.805 234.983,153.722 234.765,153.722 C234.379,153.722 233.593,154.112 232.405,154.893 C231.176,155.685 230.426,156.253 230.155,156.597 C230.01,156.774 229.937,156.961 229.937,157.159 C229.937,157.378 230.025,157.565 230.202,157.722 C230.358,157.888 230.551,157.972 230.78,157.972 C231.155,157.972 231.952,157.581 233.171,156.8 C234.369,156.018 235.108,155.451 235.39,155.097 C235.536,154.93 235.608,154.742 235.608,154.534 M234.577,153.097 C235.692,153.097 236.249,153.576 236.249,154.534 C236.249,155.003 236.114,155.55 235.843,156.175 C235.572,156.789 235.207,157.258 234.749,157.581 C233.749,158.258 232.494,158.597 230.983,158.597 C229.858,158.597 229.296,158.117 229.296,157.159 C229.296,156.732 229.431,156.19 229.702,155.534 C229.963,154.909 230.327,154.435 230.796,154.112 C231.806,153.435 233.067,153.097 234.577,153.097"/>
<path class="Note" d="M235.608,159.534 C235.608,159.315 235.525,159.128 235.358,158.972 C235.181,158.805 234.983,158.722 234.765,158.722 C234.379,158.722 233.593,159.112 232.405,159.893 C231.176,160.685 230.426,161.253 230.155,161.597 C230.01,161.774 229.937,161.961 229.937,162.159 C229.937,162.378 230.025,162.565 230.202,162.722 C230.358,162.888 230.551,162.972 230.78,162.972 C231.155,162.972 231.952,162.581 233.171,161.8 C234.369,161.018 235.108,160.451 235.39,160.097 C235.536,159.93 235.608,159.742 235.608,159.534 M234.577,158.097 C235.692,158.097 236.249,158.576 236.249,159.534 C236.249,160.003 236.114,160.55 235.843,161.175 C235.572,161.789 235.207,162.258 234.749,162.581 C233.749,163.258 232.494,163.597 230.983,163.597 C229.858,163.597 229.296,163.117 229.296,162.159 C229.296,161.732 229.431,161.19 229.702,160.534 C229.963,159.909 230.327,159.435 230.796,159.112 C231.806,158.435 233.067,158.097 234.577,158.097"/>
<path class="Note" d="M235.608,167.034 C235.608,166.815 235.525,166.628 235.358,166.472 C235.181,166.305 234.983,166.222 234.765,166.222 C234.379,166.222 233.593,166.612 232.405,167.393 C231.176,168.185 230.426,168.753 230.155,169.097 C230.01,169.274 229.937,169.461 229.937,169.659 C229.937,169.878 230.025,170.065 230.202,170.222 C230.358,170.388 230.551,170.472 230.78,170.472 C231.155,170.472 231.952,170.081 233.171,169.3 C234.369,168.518 235.108,167.951 235.39,167.597 C235.536,167.43 235.608,167.242 235.608,167.034 M234.577,165.597 C235.692,165.597 236.249,166.076 236.249,167.034 C236.249,167.503 236.114,168.05 235.843,168.675 C235.572,169.289 235.207,169.758 234.749,170.081 C233.749,170.758 232.494,171.097 230.983,171.097 C229.858,171.097 229.296,170.617 229.296,169.659 C229.296,169.232 229.431,168.69 229.702,168.034 C229.963,167.409 230.327,166.935 230.796,166.612 C231.806,165.935 233.067,165.597 234.577,165.597"/>
<path class="Note" d="M235.608,177.034 C235.608,176.815 235.525,176.628 235.358,176.472 C235.181,176.305 234.983,176.222 234.765,176.222 C234.379,176.222 233.593,176.612 232.405,177.393 C231.176,178.185 230.426,178.753 230.155,179.097 C230.01,179.274 229.937,179.461 229.937,179.659 C229.937,179.878 230.025,180.065 230.202,180.222 C230.358,180.388 230.551,180.472 230.78,180.472 C231.155,180.472 231.952,180.081 233.171,179.3 C234.369,178.518 235.108,177.951 235.39,177.597 C235.536,177.43 235.608,177.242 235.608,177.034 M234.577,175.597 C235.692,175.597 236.249,176.076 236.249,177.034 C236.249,177.503 236.114,178.05 235.843,178.675 C235.572,179.289 235.207,179.758 234.749,180.081 C233.749,180.758 232.494,181.097 230.983,181.097 C229.858,181.097 229.296,180.617 229.296,179.659 C229.296,179.232 229.431,178.69 229.702,178.034 C229.963,177.409 230.327,176.935 230.796,176.612 C231.806,175.935 233.067,175.597 234.577,175.597"/>
<path class="Note" d="M233.867,113.097 C234.492,113.097 235.023,113.258 235.461,113.581 C235.857,113.935 236.055,114.378 236.055,114.909 C236.055,115.805 235.596,116.643 234.68,117.425 C233.742,118.206 232.737,118.597 231.664,118.597 C231.039,118.597 230.513,118.435 230.086,118.112 C229.68,117.758 229.476,117.315 229.476,116.784 C229.476,115.888 229.945,115.05 230.883,114.268 C231.799,113.487 232.794,113.097 233.867,113.097"/>
<path class="Note" d="M211.064,108.097 C211.689,108.097 212.22,108.258 212.658,108.581 C213.054,108.935 213.252,109.378 213.252,109.909 C213.252,110.805 212.793,111.643 211.877,112.425 C210.939,113.206 209.934,113.597 208.861,113.597 C208.236,113.597 207.71,113.435 207.283,113.112 C206.877,112.758 206.673,112.315 206.673,111.784 C206.673,110.888 207.142,110.05 208.08,109.268 C208.996,108.487 209.991,108.097 211.064,108.097"/>
<path class="Note" d="M195.242,108.097 C195.867,108.097 196.398,108.258 196.835,108.581 C197.231,108.935 197.429,109.378 197.429,109.909 C197.429,110.805 196.971,111.643 196.054,112.425 C195.117,113.206 194.111,113.597 193.038,113.597 C192.413,113.597 191.887,113.435 191.46,113.112 C191.054,112.758 190.851,112.315 190.851,111.784 C190.851,110.888 191.32,110.05 192.257,109.268 C193.174,108.487 194.169,108.097 195.242,108.097"/>
<path class="Note" d="M179.419,108.097 C180.044,108.097 180.575,108.258 181.013,108.581 C181.409,108.935 181.607,109.378 181.607,109.909 C181.607,110.805 181.148,111.643 180.232,112.425 C179.294,113.206 178.289,113.597 177.216,113.597 C176.591,113.597 176.065,113.435 175.638,113.112 C175.232,112.758 175.028,112.315 175.028,111.784 C175.028,110.888 175.497,110.05 176.435,109.268 C177.351,108.487 178.346,108.097 179.419,108.097"/>
<path class="Note" d="M165.338,154.534 C165.338,154.315 165.255,154.128 165.088,153.972 C164.911,153.805 164.713,153.722 164.494,153.722 C164.109,153.722 163.322,154.112 162.135,154.893 C160.906,155.685 160.156,156.253 159.885,156.597 C159.739,156.774 159.666,156.961 159.666,157.159 C159.666,157.378 159.755,157.565 159.932,157.722 C160.088,157.888 160.281,157.972 160.51,157.972 C160.885,157.972 161.682,157.581 162.901,156.8 C164.098,156.018 164.838,155.451 165.119,155.097 C165.265,154.93 165.338,154.742 165.338,154.534 M164.307,153.097 C165.421,153.097 165.979,153.576 165.979,154.534 C165.979,155.003 165.843,155.55 165.572,156.175 C165.302,156.789 164.937,157.258 164.479,157.581 C163.479,158.258 162.223,158.597 160.713,158.597 C159.588,158.597 159.026,158.117 159.026,157.159 C159.026,156.732 159.161,156.19 159.432,155.534 C159.692,154.909 160.057,154.435 160.526,154.112 C161.536,153.435 162.796,153.097 164.307,153.097"/>
<path class="Note" d="M165.338,159.534 C165.338,159.315 165.255,159.128 165.088,158.972 C164.911,158.805 164.713,158.722 164.494,158.722 C164.109,158.722 163.322,159.112 162.135,159.893 C160.906,160.685 160.156,161.253 159.885,161.597 C159.739,161.774 159.666,161.961 159.666,162.159 C159.666,162.378 159.755,162.565 159.932,162.722 C160.088,162.888 160.281,162.972 160.51,162.972 C160.885,162.972 161.682,162.581 162.901,161.8 C164.098,161.018 164.838,160.451 165.119,160.097 C165.265,159.93 165.338,159.742 165.338,159.534 M164.307,158.097 C165.421,158.097 165.979,158.576 165.979,159.534 C165.979,160.003 165.843,160.55 165.572,161.175 C165.302,161.789 164.937,162.258 164.479,162.581 C163.479,163.258 162.223,163.597 160.713,163.597 C159.588,163.597 159.026,163.117 159.026,162.159 C159.026,161.732 159.161,161.19 159.432,160.534 C159.692,159.909 160.057,159.435 160.526,159.112 C161.536,158.435 162.796,158.097 164.307,158.097"/>
<path class="Note" d="M165.338,167.034 C165.338,166.815 165.255,166.628 165.088,166.472 C164.911,166.305 164.713,166.222 164.494,166.222 C164.109,166.222 163.322,166.612 162.135,167.393 C160.906,168.185 160.156,168.753 159.885,169.097 C159.739,169.274 159.666,169.461 159.666,169.659 C159.666,169.878 159.755,170.065 159.932,170.222 C160.088,170.388 160.281,170.472 160.51,170.472 C160.885,170.472 161.682,170.081 162.901,169.3 C164.098,168.518 164.838,167.951 165.119,167.597 C165.265,167.43 165.338,167.242 165.338,167.034 M164.307,165.597 C165.421,165.597 165.979,166.076 165.979,167.034 C165.979,167.503 165.843,168.05 165.572,168.675 C165.302,169.289 164.937,169.758 164.479,170.081 C163.479,170.758 162.223,171.097 160.713,171.097 C159.588,171.097 159.026,170.617 159.026,169.659 C159.026,169.232 159.161,168.69 159.432,168.034 C159.692,167.409 160.057,166.935 160.526,166.612 C161.536,165.935 162.796,165.597 164.307,165.597"/>
<path class="Note" d="M165.338,177.034 C165.338,176.815 165.255,176.628 165.088,176.472 C164.911,176.305 164.713,176.222 164.494,176.222 C164.109,176.222 163.322,176.612 162.135,177.393 C160.906,178.185 160.156,178.753 159.885,179.097 C159.739,179.274 159.666,179.461 159.666,179.659 C159.666,179.878 159.755,180.065 159.932,180.222 C160.088,180.388 160.281,180.472 160.51,180.472 C160.885,180.472 161.682,180.081 162.901,179.3 C164.098,178.518 164.838,177.951 165.119,177.597 C165.265,177.43 165.338,177.242 165.338,177.034 M164.307,175.597 C165.421,175.597 165.979,176.076 165.979,177.034 C165.979,177.503 165.843,178.05 165.572,178.675 C165.302,179.289 164.937,179.758 164.479,180.081 C163.479,180.758 162.223,181.097 160.713,181.097 C159.588,181.097 159.026,180.617 159.026,179.659 C159.026,179.232 159.161,178.69 159.432,178.034 C159.692,177.409 160.057,176.935 160.526,176.612 C161.536,175.935 162.796,175.597 164.307,175.597"/>
<path class="Note" d="M163.597,100.596 C164.222,100.596 164.753,100.758 165.19,101.081 C165.586,101.435 165.784,101.878 165.784,102.409 C165.784,103.305 165.326,104.143 164.409,104.925 C163.472,105.706 162.466,106.096 161.393,106.096 C160.768,106.096 160.242,105.935 159.815,105.612 C159.409,105.258 159.206,104.815 159.206,104.284 C159.206,103.388 159.675,102.55 160.612,101.768 C161.529,100.987 162.524,100.596 163.597,100.596"/>
<path class="Note" d="M163.597,118.097 C164.222,118.097 164.753,118.258 165.19,118.581 C165.586,118.935 165.784,119.378 165.784,119.909 C165.784,120.805 165.326,121.643 164.409,122.425 C163.472,123.206 162.466,123.597 161.393,123.597 C160.768,123.597 160.242,123.435 159.815,123.112 C159.409,122.758 159.206,122.315 159.206,121.784 C159.206,120.888 159.675,120.05 160.612,119.268 C161.529,118.487 162.524,118.097 163.597,118.097"/>
<path class="Note" d="M138.999,95.5965 C139.624,95.5965 140.155,95.758 140.592,96.0809 C140.988,96.435 141.186,96.8777 141.186,97.409 C141.186,98.3048 140.728,99.1434 139.811,99.9246 C138.874,100.706 137.868,101.096 136.795,101.096 C136.17,101.096 135.644,100.935 135.217,100.612 C134.811,100.258 134.608,99.8152 134.608,99.284 C134.608,98.3882 135.077,97.5496 136.014,96.7684 C136.931,95.9871 137.926,95.5965 138.999,95.5965"/>
<path class="Note" d="M138.999,113.097 C139.624,113.097 140.155,113.258 140.592,113.581 C140.988,113.935 141.186,114.378 141.186,114.909 C141.186,115.805 140.728,116.643 139.811,117.425 C138.874,118.206 137.868,118.597 136.795,118.597 C136.17,118.597 135.644,118.435 135.217,118.112 C134.811,117.758 134.608,117.315 134.608,116.784 C134.608,115.888 135.077,115.05 136.014,114.268 C136.931,113.487 137.926,113.097 138.999,113.097"/>
<path class="Note" d="M121.381,95.5965 C122.006,95.5965 122.537,95.758 122.975,96.0809 C123.371,96.435 123.568,96.8777 123.568,97.409 C123.568,98.3048 123.11,99.1434 122.193,99.9246 C121.256,100.706 120.251,101.096 119.178,101.096 C118.553,101.096 118.027,100.935 117.6,100.612 C117.193,100.258 116.99,99.8152 116.99,99.284 C116.99,98.3882 117.459,97.5496 118.397,96.7684 C119.313,95.9871 120.308,95.5965 121.381,95.5965"/>
<path class="Note" d="M121.381,113.097 C122.006,113.097 122.537,113.258 122.975,113.581 C123.371,113.935 123.568,114.378 123.568,114.909 C123.568,115.805 123.11,116.643 122.193,117.425 C121.256,118.206 120.251,118.597 119.178,118.597 C118.553,118.597 118.027,118.435 117.6,118.112 C117.193,117.758 116.99,117.315 116.99,116.784 C116.99,115.888 117.459,115.05 118.397,114.268 C119.313,113.487 120.308,113.097 121.381,113.097"/>
<path class="Note" d="M103.763,95.5965 C104.388,95.5965 104.92,95.758 105.357,96.0809 C105.753,96.435 105.951,96.8777 105.951,97.409 C105.951,98.3048 105.492,99.1434 104.576,99.9246 C103.638,100.706 102.633,101.096 101.56,101.096 C100.935,101.096 100.409,100.935 99.9821,100.612 C99.5758,100.258 99.3727,99.8152 99.3727,99.284 C99.3727,98.3882 99.8414,97.5496 100.779,96.7684 C101.696,95.9871 102.69,95.5965 103.763,95.5965"/>
<path class="Note" d="M103.763,113.097 C104.388,113.097 104.92,113.258 105.357,113.581 C105.753,113.935 105.951,114.378 105.951,114.909 C105.951,115.805 105.492,116.643 104.576,117.425 C103.638,118.206 102.633,118.597 101.56,118.597 C100.935,118.597 100.409,118.435 99.9821,118.112 C99.5758,117.758 99.3727,117.315 99.3727,116.784 C99.3727,115.888 99.8414,115.05 100.779,114.268 C101.696,113.487 102.69,113.097 103.763,113.097"/>
<path class="Note" d="M87.8871,154.534 C87.8871,154.315 87.8038,154.128 87.6371,153.972 C87.46,153.805 87.2621,153.722 87.0434,153.722 C86.6579,153.722 85.8715,154.112 84.684,154.893 C83.4548,155.685 82.7048,156.253 82.434,156.597 C82.2882,156.774 82.2152,156.961 82.2152,157.159 C82.2152,157.378 82.3038,157.565 82.4809,157.722 C82.6371,157.888 82.8298,157.972 83.059,157.972 C83.434,157.972 84.2309,157.581 85.4496,156.8 C86.6475,156.018 87.3871,155.451 87.6684,155.097 C87.8142,154.93 87.8871,154.742 87.8871,154.534 M86.8559,153.097 C87.9704,153.097 88.5277,153.576 88.5277,154.534 C88.5277,155.003 88.3923,155.55 88.1215,156.175 C87.8507,156.789 87.4861,157.258 87.0277,157.581 C86.0277,158.258 84.7725,158.597 83.2621,158.597 C82.1371,158.597 81.5746,158.117 81.5746,157.159 C81.5746,156.732 81.71,156.19 81.9809,155.534 C82.2413,154.909 82.6059,154.435 83.0746,154.112 C84.085,153.435 85.3454,153.097 86.8559,153.097"/>
<path class="Note" d="M87.8871,159.534 C87.8871,159.315 87.8038,159.128 87.6371,158.972 C87.46,158.805 87.2621,158.722 87.0434,158.722 C86.6579,158.722 85.8715,159.112 84.684,159.893 C83.4548,160.685 82.7048,161.253 82.434,161.597 C82.2882,161.774 82.2152,161.961 82.2152,162.159 C82.2152,162.378 82.3038,162.565 82.4809,162.722 C82.6371,162.888 82.8298,162.972 83.059,162.972 C83.434,162.972 84.2309,162.581 85.4496,161.8 C86.6475,161.018 87.3871,160.451 87.6684,160.097 C87.8142,159.93 87.8871,159.742 87.8871,159.534 M86.8559,158.097 C87.9704,158.097 88.5277,158.576 88.5277,159.534 C88.5277,160.003 88.3923,160.55 88.1215,161.175 C87.8507,161.789 87.4861,162.258 87.0277,162.581 C86.0277,163.258 84.7725,163.597 83.2621,163.597 C82.1371,163.597 81.5746,163.117 81.5746,162.159 C81.5746,161.732 81.71,161.19 81.9809,160.534 C82.2413,159.909 82.6059,159.435 83.0746,159.112 C84.085,158.435 85.3454,158.097 86.8559,158.097"/>
<path class="Note" d="M87.8871,167.034 C87.8871,166.815 87.8038,166.628 87.6371,166.472 C87.46,166.305 87.2621,166.222 87.0434,166.222 C86.6579,166.222 85.8715,166.612 84.684,167.393 C83.4548,168.185 82.7048,168.753 82.434,169.097 C82.2882,169.274 82.2152,169.461 82.2152,169.659 C82.2152,169.878 82.3038,170.065 82.4809,170.222 C82.6371,170.388 82.8298,170.472 83.059,170.472 C83.434,170.472 84.2309,170.081 85.4496,169.3 C86.6475,168.518 87.3871,167.951 87.6684,167.597 C87.8142,167.43 87.8871,167.242 87.8871,167.034 M86.8559,165.597 C87.9704,165.597 88.5277,166.076 88.5277,167.034 C88.5277,167.503 88.3923,168.05 88.1215,168.675 C87.8507,169.289 87.4861,169.758 87.0277,170.081 C86.0277,170.758 84.7725,171.097 83.2621,171.097 C82.1371,171.097 81.5746,170.617 81.5746,169.659 C81.5746,169.232 81.71,168.69 81.9809,168.034 C82.2413,167.409 82.6059,166.935 83.0746,166.612 C84.085,165.935 85.3454,165.597 86.8559,165.597"/>
<path class="Note" d="M87.8871,177.034 C87.8871,176.815 87.8038,176.628 87.6371,176.472 C87.46,176.305 87.2621,176.222 87.0434,176.222 C86.6579,176.222 85.8715,176.612 84.684,177.393 C83.4548,178.185 82.7048,178.753 82.434,179.097 C82.2882,179.274 82.2152,179.461 82.2152,179.659 C82.2152,179.878 82.3038,180.065 82.4809,180.222 C82.6371,180.388 82.8298,180.472 83.059,180.472 C83.434,180.472 84.2309,180.081 85.4496,179.3 C86.6475,178.518 87.3871,177.951 87.6684,177.597 C87.8142,177.43 87.8871,177.242 87.8871,177.034 M86.8559,175.597 C87.9704,175.597 88.5277,176.076 88.5277,177.034 C88.5277,177.503 88.3923,178.05 88.1215,178.675 C87.8507,179.289 87.4861,179.758 87.0277,180.081 C86.0277,180.758 84.7725,181.097 83.2621,181.097 C82.1371,181.097 81.5746,180.617 81.5746,179.659 C81.5746,179.232 81.71,178.69 81.9809,178.034 C82.2413,177.409 82.6059,176.935 83.0746,176.612 C84.085,175.935 85.3454,175.597 86.8559,175.597"/>
<path class="Note" d="M86.1457,100.596 C86.7707,100.596 87.302,100.758 87.7395,101.081 C88.1353,101.435 88.3332,101.878 88.3332,102.409 C88.3332,103.305 87.8749,104.143 86.9582,104.925 C86.0207,105.706 85.0155,106.096 83.9426,106.096 C83.3176,106.096 82.7915,105.935 82.3645,105.612 C81.9582,105.258 81.7551,104.815 81.7551,104.284 C81.7551,103.388 82.2238,102.55 83.1613,101.768 C84.078,100.987 85.0728,100.596 86.1457,100.596"/>
<path class="Note" d="M86.1457,108.097 C86.7707,108.097 87.302,108.258 87.7395,108.581 C88.1353,108.935 88.3332,109.378 88.3332,109.909 C88.3332,110.805 87.8749,111.643 86.9582,112.425 C86.0207,113.206 85.0155,113.597 83.9426,113.597 C83.3176,113.597 82.7915,113.435 82.3645,113.112 C81.9582,112.758 81.7551,112.315 81.7551,111.784 C81.7551,110.888 82.2238,110.05 83.1613,109.268 C84.078,108.487 85.0728,108.097 86.1457,108.097"/>
<path class="Note" d="M86.1457,113.097 C86.7707,113.097 87.302,113.258 87.7395,113.581 C88.1353,113.935 88.3332,114.378 88.3332,114.909 C88.3332,115.805 87.8749,116.643 86.9582,117.425 C86.0207,118.206 85.0155,118.597 83.9426,118.597 C83.3176,118.597 82.7915,118.435 82.3645,118.112 C81.9582,117.758 81.7551,117.315 81.7551,116.784 C81.7551,115.888 82.2238,115.05 83.1613,114.268 C84.078,113.487 85.0728,113.097 86.1457,113.097"/>
<path class="Clef" d="M43.7761,169.065 C43.5834,168.867 43.4871,168.625 43.4871,168.339 C43.4871,168.052 43.5834,167.813 43.7761,167.62 C43.9688,167.427 44.2084,167.331 44.4949,167.331 C44.7813,167.331 45.0235,167.427 45.2215,167.62 C45.4194,167.813 45.5183,168.052 45.5183,168.339 C45.5183,168.625 45.4194,168.867 45.2215,169.065 C45.0235,169.263 44.7813,169.362 44.4949,169.362 C44.2084,169.362 43.9688,169.263 43.7761,169.065 M43.7761,174.073 C43.5834,173.88 43.4871,173.641 43.4871,173.354 C43.4871,173.068 43.5834,172.826 43.7761,172.628 C43.9688,172.43 44.2084,172.331 44.4949,172.331 C44.7813,172.331 45.0235,172.43 45.2215,172.628 C45.4194,172.826 45.5183,173.068 45.5183,173.354 C45.5183,173.641 45.4194,173.88 45.2215,174.073 C45.0235,174.266 44.7813,174.362 44.4949,174.362 C44.2084,174.362 43.9688,174.266 43.7761,174.073 M37.0027,165.597 C38.7319,165.597 40.1485,166.029 41.2527,166.893 C42.3256,167.81 42.8621,169.05 42.8621,170.612 C42.8621,171.664 42.6537,172.628 42.2371,173.503 C41.8412,174.419 41.3256,175.227 40.6902,175.925 C40.034,176.643 39.2475,177.32 38.3308,177.956 C37.4246,178.581 36.4975,179.143 35.5496,179.643 C33.6225,180.612 32.5548,181.097 32.3465,181.097 C32.1798,181.097 32.0965,181.013 32.0965,180.847 C32.0965,180.784 32.1225,180.727 32.1746,180.675 C32.8412,180.279 33.6537,179.779 34.6121,179.175 C35.2371,178.768 35.9662,178.206 36.7996,177.487 C37.6121,176.81 38.2371,176.175 38.6746,175.581 C39.1329,174.987 39.5496,174.258 39.9246,173.393 C40.2475,172.518 40.409,171.654 40.409,170.8 C40.409,169.539 40.0965,168.44 39.4715,167.503 C38.8465,166.565 38.0235,166.097 37.0027,166.097 C36.2735,166.097 35.6485,166.331 35.1277,166.8 C34.5652,167.279 34.159,167.883 33.909,168.612 C34.159,168.508 34.3881,168.456 34.5965,168.456 C35.1381,168.456 35.6069,168.654 36.0027,169.05 C36.3881,169.466 36.5808,169.94 36.5808,170.472 C36.5808,171.034 36.3933,171.539 36.0183,171.987 C35.6121,172.383 35.1381,172.581 34.5965,172.581 C34.0131,172.581 33.4871,172.383 33.0183,171.987 C32.5704,171.539 32.3465,171.034 32.3465,170.472 C32.3465,169.128 32.8048,167.982 33.7215,167.034 C34.6173,166.076 35.711,165.597 37.0027,165.597"/>
<path class="Clef" d="M39.6902,123.222 C39.6902,123.222 39.7319,123.222 39.8152,123.222 C39.8673,123.211 39.909,123.206 39.9402,123.206 C41.3985,123.206 42.5965,123.722 43.534,124.753 C44.4715,125.763 44.9402,126.945 44.9402,128.3 C44.9402,129.987 44.2475,131.357 42.8621,132.409 C42.4975,132.701 42.0183,132.935 41.4246,133.112 C41.4975,133.956 41.534,134.638 41.534,135.159 C41.534,135.263 41.5183,135.643 41.4871,136.3 C41.435,137.508 41.0183,138.555 40.2371,139.44 C39.4871,140.315 38.5496,140.753 37.4246,140.753 C36.3725,140.753 35.4767,140.383 34.7371,139.643 C33.9871,138.883 33.6121,137.972 33.6121,136.909 C33.6121,136.347 33.8308,135.867 34.2683,135.472 C34.7058,135.086 35.2162,134.893 35.7996,134.893 C36.3204,134.893 36.7579,135.097 37.1121,135.503 C37.4767,135.878 37.659,136.347 37.659,136.909 C37.659,137.409 37.4767,137.841 37.1121,138.206 C36.7475,138.57 36.31,138.753 35.7996,138.753 C35.5912,138.753 35.3933,138.716 35.2058,138.643 C35.7787,139.487 36.5392,139.909 37.4871,139.909 C38.3829,139.909 39.1173,139.544 39.6902,138.815 C40.2944,138.065 40.6225,137.185 40.6746,136.175 C40.6954,135.55 40.7058,135.195 40.7058,135.112 C40.7058,134.383 40.6798,133.784 40.6277,133.315 C39.9819,133.419 39.4037,133.472 38.8933,133.472 C37.0808,133.472 35.5392,132.753 34.2683,131.315 C33.0183,129.867 32.3933,128.149 32.3933,126.159 C32.3933,125.742 32.4298,125.32 32.5027,124.893 C32.586,124.539 32.685,124.154 32.7996,123.737 C32.8621,123.498 33.0392,123.117 33.3308,122.597 C33.435,122.44 33.5522,122.245 33.6824,122.011 C33.8126,121.776 33.9037,121.623 33.9558,121.55 C34.0808,121.289 34.3308,120.935 34.7058,120.487 C34.81,120.373 34.9194,120.245 35.034,120.104 C35.1485,119.964 35.2449,119.847 35.323,119.753 C35.4011,119.659 35.4584,119.586 35.4949,119.534 C35.5313,119.482 35.8256,119.138 36.3777,118.503 C36.5027,118.367 36.6277,118.227 36.7527,118.081 C36.8777,117.935 36.9793,117.818 37.0574,117.729 C37.1355,117.641 37.1954,117.581 37.2371,117.55 C36.7683,115.998 36.4715,114.758 36.3465,113.831 C36.2631,113.091 36.2215,112.076 36.2215,110.784 C36.2215,109.649 36.4819,108.586 37.0027,107.597 C37.5027,106.576 38.211,105.737 39.1277,105.081 C39.1902,105.039 39.2527,105.018 39.3152,105.018 C39.409,105.018 39.4767,105.039 39.5183,105.081 C40.2162,105.925 40.8204,107.024 41.3308,108.378 C41.8517,109.732 42.1121,110.966 42.1121,112.081 C42.1121,113.331 41.8152,114.503 41.2215,115.597 C40.5444,116.753 39.6694,117.951 38.5965,119.19 C38.8673,120.044 39.2319,121.388 39.6902,123.222 M41.3465,132.315 C42.0235,132.065 42.5548,131.643 42.9402,131.05 C43.3569,130.477 43.5652,129.831 43.5652,129.112 C43.5652,128.185 43.2527,127.362 42.6277,126.643 C41.9819,125.904 41.1642,125.487 40.1746,125.393 C40.7371,128.143 41.1277,130.451 41.3465,132.315 M33.7996,127.8 C33.7996,129.091 34.3204,130.227 35.3621,131.206 C36.4246,132.154 37.6225,132.628 38.9558,132.628 C39.4975,132.628 40.0287,132.586 40.5496,132.503 C40.3412,130.524 39.9298,128.154 39.3152,125.393 C38.5756,125.477 37.9871,125.737 37.5496,126.175 C37.1121,126.633 36.8933,127.149 36.8933,127.722 C36.8933,128.711 37.4246,129.513 38.4871,130.128 C38.5704,130.222 38.6121,130.32 38.6121,130.425 C38.6121,130.529 38.5704,130.623 38.4871,130.706 C38.4037,130.8 38.3048,130.847 38.1902,130.847 C38.1798,130.847 38.1225,130.836 38.0183,130.815 C37.2683,130.409 36.6954,129.888 36.2996,129.253 C35.9142,128.565 35.7215,127.878 35.7215,127.19 C35.7215,126.294 36.0027,125.482 36.5652,124.753 C37.1485,124.024 37.909,123.555 38.8465,123.347 C38.4819,121.888 38.185,120.748 37.9558,119.925 C37.7475,120.164 37.4975,120.448 37.2058,120.776 C36.9142,121.104 36.7423,121.305 36.6902,121.378 C36.2215,121.982 35.8621,122.456 35.6121,122.8 C35.1642,123.414 34.836,123.94 34.6277,124.378 C34.409,124.878 34.2162,125.419 34.0496,126.003 C33.8829,126.565 33.7996,127.164 33.7996,127.8 M40.3152,107.94 C39.336,108.419 38.5704,109.107 38.0183,110.003 C37.4454,110.93 37.159,111.925 37.159,112.987 C37.159,113.925 37.3933,115.19 37.8621,116.784 C38.7996,115.649 39.5027,114.602 39.9715,113.643 C40.461,112.623 40.7058,111.56 40.7058,110.456 C40.7058,109.623 40.5756,108.784 40.3152,107.94"/>
<path class="KeySig" d="M58.7621,182.518 L58.7621,184.065 C58.7621,184.617 58.7881,185.055 58.8402,185.378 C59.2673,185.013 59.5746,184.742 59.7621,184.565 C59.9704,184.357 60.1788,184.068 60.3871,183.698 C60.5954,183.328 60.6996,182.961 60.6996,182.597 C60.6996,182.232 60.6215,181.919 60.4652,181.659 C60.309,181.399 60.1006,181.268 59.8402,181.268 C59.5277,181.268 59.2673,181.388 59.059,181.628 C58.8611,181.888 58.7621,182.185 58.7621,182.518 M57.934,186.097 L57.684,174.206 C57.8715,174.102 58.0564,174.05 58.2387,174.05 C58.4209,174.05 58.6006,174.102 58.7777,174.206 L58.6215,181.097 C59.1527,180.638 59.7673,180.409 60.4652,180.409 C60.9652,180.409 61.3845,180.617 61.723,181.034 C62.0616,181.451 62.2308,181.93 62.2308,182.472 C62.2308,182.805 62.1215,183.164 61.9027,183.55 C61.6944,183.893 61.4756,184.164 61.2465,184.362 C61.1111,184.466 60.7777,184.727 60.2465,185.143 C60.0902,185.258 59.9053,185.393 59.6918,185.55 C59.4782,185.706 59.3454,185.805 59.2933,185.847 C59.1996,185.899 59.1111,186.003 59.0277,186.159 C58.9444,186.294 58.8402,186.404 58.7152,186.487 C58.6319,186.571 58.5251,186.612 58.3949,186.612 C58.2647,186.612 58.1579,186.565 58.0746,186.472 C57.9808,186.378 57.934,186.253 57.934,186.097"/>
<path class="KeySig" d="M53.7621,172.518 L53.7621,174.065 C53.7621,174.617 53.7881,175.055 53.8402,175.378 C54.2673,175.013 54.5746,174.742 54.7621,174.565 C54.9704,174.357 55.1788,174.068 55.3871,173.698 C55.5954,173.328 55.6996,172.961 55.6996,172.597 C55.6996,172.232 55.6215,171.919 55.4652,171.659 C55.309,171.399 55.1006,171.268 54.8402,171.268 C54.5277,171.268 54.2673,171.388 54.059,171.628 C53.861,171.888 53.7621,172.185 53.7621,172.518 M52.934,176.097 L52.684,164.206 C52.8715,164.102 53.0564,164.05 53.2387,164.05 C53.4209,164.05 53.6006,164.102 53.7777,164.206 L53.6215,171.097 C54.1527,170.638 54.7673,170.409 55.4652,170.409 C55.9652,170.409 56.3845,170.617 56.723,171.034 C57.0616,171.451 57.2308,171.93 57.2308,172.472 C57.2308,172.805 57.1215,173.164 56.9027,173.55 C56.6944,173.893 56.4756,174.164 56.2465,174.362 C56.111,174.466 55.7777,174.727 55.2465,175.143 C55.0902,175.258 54.9053,175.393 54.6918,175.55 C54.4782,175.706 54.3454,175.805 54.2933,175.847 C54.1996,175.899 54.111,176.003 54.0277,176.159 C53.9444,176.294 53.8402,176.404 53.7152,176.487 C53.6319,176.57 53.5251,176.612 53.3949,176.612 C53.2647,176.612 53.1579,176.565 53.0746,176.472 C52.9808,176.378 52.934,176.253 52.934,176.097"/>
<path class="KeySig" d="M48.7621,180.018 L48.7621,181.565 C48.7621,182.117 48.7881,182.555 48.8402,182.878 C49.2673,182.513 49.5746,182.242 49.7621,182.065 C49.9704,181.857 50.1788,181.568 50.3871,181.198 C50.5954,180.828 50.6996,180.461 50.6996,180.097 C50.6996,179.732 50.6215,179.419 50.4652,179.159 C50.309,178.899 50.1006,178.768 49.8402,178.768 C49.5277,178.768 49.2673,178.888 49.059,179.128 C48.861,179.388 48.7621,179.685 48.7621,180.018 M47.934,183.597 L47.684,171.706 C47.8715,171.602 48.0564,171.55 48.2386,171.55 C48.4209,171.55 48.6006,171.602 48.7777,171.706 L48.6215,178.597 C49.1527,178.138 49.7673,177.909 50.4652,177.909 C50.9652,177.909 51.3845,178.117 51.723,178.534 C52.0616,178.951 52.2308,179.43 52.2308,179.972 C52.2308,180.305 52.1215,180.664 51.9027,181.05 C51.6944,181.393 51.4756,181.664 51.2465,181.862 C51.111,181.966 50.7777,182.227 50.2465,182.643 C50.0902,182.758 49.9053,182.893 49.6918,183.05 C49.4782,183.206 49.3454,183.305 49.2933,183.347 C49.1996,183.399 49.111,183.503 49.0277,183.659 C48.9444,183.794 48.8402,183.904 48.7152,183.987 C48.6319,184.071 48.5251,184.112 48.3949,184.112 C48.2647,184.112 48.1579,184.065 48.0746,183.972 C47.9808,183.878 47.934,183.753 47.934,183.597"/>
<path class="KeySig" d="M58.7621,125.018 L58.7621,126.565 C58.7621,127.117 58.7881,127.555 58.8402,127.878 C59.2673,127.513 59.5746,127.242 59.7621,127.065 C59.9704,126.857 60.1788,126.568 60.3871,126.198 C60.5954,125.828 60.6996,125.461 60.6996,125.097 C60.6996,124.732 60.6215,124.419 60.4652,124.159 C60.309,123.899 60.1006,123.768 59.8402,123.768 C59.5277,123.768 59.2673,123.888 59.059,124.128 C58.8611,124.388 58.7621,124.685 58.7621,125.018 M57.934,128.597 L57.684,116.706 C57.8715,116.602 58.0564,116.55 58.2387,116.55 C58.4209,116.55 58.6006,116.602 58.7777,116.706 L58.6215,123.597 C59.1527,123.138 59.7673,122.909 60.4652,122.909 C60.9652,122.909 61.3845,123.117 61.723,123.534 C62.0616,123.951 62.2308,124.43 62.2308,124.972 C62.2308,125.305 62.1215,125.664 61.9027,126.05 C61.6944,126.393 61.4756,126.664 61.2465,126.862 C61.1111,126.966 60.7777,127.227 60.2465,127.643 C60.0902,127.758 59.9053,127.893 59.6918,128.05 C59.4782,128.206 59.3454,128.305 59.2933,128.347 C59.1996,128.399 59.1111,128.503 59.0277,128.659 C58.9444,128.794 58.8402,128.904 58.7152,128.987 C58.6319,129.07 58.5251,129.112 58.3949,129.112 C58.2647,129.112 58.1579,129.065 58.0746,128.972 C57.9808,128.878 57.934,128.753 57.934,128.597"/>
<path class="KeySig" d="M53.7621,115.018 L53.7621,116.565 C53.7621,117.117 53.7881,117.555 53.8402,117.878 C54.2673,117.513 54.5746,117.242 54.7621,117.065 C54.9704,116.857 55.1788,116.568 55.3871,116.198 C55.5954,115.828 55.6996,115.461 55.6996,115.097 C55.6996,114.732 55.6215,114.419 55.4652,114.159 C55.309,113.899 55.1006,113.768 54.8402,113.768 C54.5277,113.768 54.2673,113.888 54.059,114.128 C53.861,114.388 53.7621,114.685 53.7621,115.018 M52.934,118.597 L52.684,106.706 C52.8715,106.602 53.0564,106.55 53.2387,106.55 C53.4209,106.55 53.6006,106.602 53.7777,106.706 L53.6215,113.597 C54.1527,113.138 54.7673,112.909 55.4652,112.909 C55.9652,112.909 56.3845,113.117 56.723,113.534 C57.0616,113.951 57.2308,114.43 57.2308,114.972 C57.2308,115.305 57.1215,115.664 56.9027,116.05 C56.6944,116.393 56.4756,116.664 56.2465,116.862 C56.111,116.966 55.7777,117.227 55.2465,117.643 C55.0902,117.758 54.9053,117.893 54.6918,118.05 C54.4782,118.206 54.3454,118.305 54.2933,118.347 C54.1996,118.399 54.111,118.503 54.0277,118.659 C53.9444,118.794 53.8402,118.904 53.7152,118.987 C53.6319,119.07 53.5251,119.112 53.3949,119.112 C53.2647,119.112 53.1579,119.065 53.0746,118.972 C52.9808,118.878 52.934,118.753 52.934,118.597"/>
<path class="KeySig" d="M48.7621,122.518 L48.7621,124.065 C48.7621,124.617 48.7881,125.055 48.8402,125.378 C49.2673,125.013 49.5746,124.742 49.7621,124.565 C49.9704,124.357 50.1788,124.068 50.3871,123.698 C50.5954,123.328 50.6996,122.961 50.6996,122.597 C50.6996,122.232 50.6215,121.919 50.4652,121.659 C50.309,121.399 50.1006,121.268 49.8402,121.268 C49.5277,121.268 49.2673,121.388 49.059,121.628 C48.861,121.888 48.7621,122.185 48.7621,122.518 M47.934,126.097 L47.684,114.206 C47.8715,114.102 48.0564,114.05 48.2386,114.05 C48.4209,114.05 48.6006,114.102 48.7777,114.206 L48.6215,121.097 C49.1527,120.638 49.7673,120.409 50.4652,120.409 C50.9652,120.409 51.3845,120.617 51.723,121.034 C52.0616,121.451 52.2308,121.93 52.2308,122.472 C52.2308,122.805 52.1215,123.164 51.9027,123.55 C51.6944,123.893 51.4756,124.164 51.2465,124.362 C51.111,124.466 50.7777,124.727 50.2465,125.143 C50.0902,125.258 49.9053,125.393 49.6918,125.55 C49.4782,125.706 49.3454,125.805 49.2933,125.847 C49.1996,125.899 49.111,126.003 49.0277,126.159 C48.9444,126.294 48.8402,126.404 48.7152,126.487 C48.6319,126.57 48.5251,126.612 48.3949,126.612 C48.2647,126.612 48.1579,126.565 48.0746,126.472 C47.9808,126.378 47.934,126.253 47.934,126.097"/>
<path class="TimeSig" d="M69.7465,175.847 C69.3506,175.847 68.9965,175.776 68.684,175.636 C68.3715,175.495 68.1527,175.347 68.0277,175.19 C67.8506,174.992 67.6788,174.841 67.5121,174.737 C67.3038,174.591 67.0902,174.518 66.8715,174.518 C66.5277,174.518 66.2465,174.623 66.0277,174.831 C65.7986,175.029 65.6683,175.294 65.6371,175.628 C65.6163,175.774 65.5381,175.847 65.4027,175.847 C65.2465,175.847 65.1683,175.774 65.1683,175.628 C65.1683,175.128 65.2881,174.675 65.5277,174.268 C65.7569,173.852 66.0433,173.508 66.3871,173.237 C66.6683,172.987 67.0433,172.685 67.5121,172.331 C67.5954,172.268 67.7621,172.133 68.0121,171.925 C68.2621,171.716 68.4756,171.539 68.6527,171.393 C68.9861,171.112 69.2777,170.732 69.5277,170.253 C69.7569,169.784 69.8715,169.279 69.8715,168.737 C69.8715,168.07 69.7621,167.498 69.5433,167.018 C69.3142,166.55 68.9548,166.315 68.4652,166.315 C68.1736,166.315 67.934,166.378 67.7465,166.503 C67.5486,166.638 67.4496,166.815 67.4496,167.034 C67.4496,167.222 67.5668,167.451 67.8012,167.722 C68.0355,167.992 68.1527,168.222 68.1527,168.409 C68.1527,168.794 68.0173,169.123 67.7465,169.393 C67.4861,169.654 67.1683,169.784 66.7933,169.784 C66.3975,169.784 66.0642,169.649 65.7933,169.378 C65.5329,169.097 65.4027,168.774 65.4027,168.409 C65.4027,167.659 65.7022,167.044 66.3012,166.565 C66.9001,166.086 67.6215,165.847 68.4652,165.847 C69.4756,165.847 70.3506,166.117 71.0902,166.659 C71.8298,167.18 72.1996,167.873 72.1996,168.737 C72.1996,169.32 72.0954,169.82 71.8871,170.237 C71.6892,170.685 71.3975,171.034 71.0121,171.284 C70.5642,171.565 70.1788,171.784 69.8558,171.94 C69.3975,172.149 68.9444,172.347 68.4965,172.534 C67.9444,172.753 67.5173,172.961 67.2152,173.159 C67.3923,173.117 67.5694,173.097 67.7465,173.097 C68.3506,173.097 68.9756,173.289 69.6215,173.675 C70.2881,174.07 70.8038,174.268 71.1683,174.268 C71.3871,174.268 71.5642,174.227 71.6996,174.143 C71.8246,174.07 71.9079,173.987 71.9496,173.893 C72.0017,173.768 72.0486,173.68 72.0902,173.628 C72.1423,173.544 72.2048,173.503 72.2777,173.503 C72.434,173.503 72.5121,173.581 72.5121,173.737 C72.5121,174.102 72.2517,174.544 71.7308,175.065 C71.2204,175.586 70.559,175.847 69.7465,175.847"/>
<path class="TimeSig" d="M69.3246,176.097 C69.71,176.097 70.0407,176.052 70.3168,175.964 C70.5928,175.875 70.7673,175.831 70.8402,175.831 C70.934,175.831 71.0069,175.857 71.059,175.909 C71.1006,175.94 71.1267,175.982 71.1371,176.034 C71.1371,176.065 71.1215,176.107 71.0902,176.159 L65.4183,182.768 L68.7465,182.768 L68.7465,180.143 C68.7465,179.977 68.7933,179.831 68.8871,179.706 C69.0433,179.581 69.1736,179.503 69.2777,179.472 C69.4444,179.399 69.6527,179.216 69.9027,178.925 C70.1111,178.696 70.3611,178.289 70.6527,177.706 C70.684,177.623 70.7413,177.581 70.8246,177.581 C70.9808,177.581 71.0694,177.675 71.0902,177.862 L71.0902,182.768 L72.5277,182.768 C72.7048,182.768 72.809,182.862 72.8402,183.05 C72.8402,183.248 72.7361,183.347 72.5277,183.347 L71.0902,183.347 L71.0902,183.503 C71.0902,184.024 71.2204,184.466 71.4808,184.831 C71.7829,185.196 72.1371,185.378 72.5433,185.378 C72.6996,185.378 72.7777,185.456 72.7777,185.612 C72.7777,185.768 72.6996,185.847 72.5433,185.847 C72.2725,185.847 71.8298,185.81 71.2152,185.737 C70.6527,185.643 70.2152,185.597 69.9027,185.597 C69.5798,185.597 69.1423,185.643 68.5902,185.737 C68.0069,185.81 67.5746,185.847 67.2933,185.847 C67.1371,185.847 67.059,185.768 67.059,185.612 C67.059,185.456 67.1371,185.378 67.2933,185.378 C67.6892,185.378 68.0381,185.196 68.3402,184.831 C68.6111,184.466 68.7465,184.024 68.7465,183.503 L68.7465,183.347 L65.4183,183.347 C65.1892,183.347 65.0329,183.294 64.9496,183.19 C64.835,183.117 64.7777,183.013 64.7777,182.878 C64.7777,182.836 64.8767,182.701 65.0746,182.472 C65.3038,182.211 65.5381,181.893 65.7777,181.518 C66.0694,181.071 66.3454,180.612 66.6058,180.143 C66.8871,179.612 67.1163,178.998 67.2933,178.3 C67.4808,177.602 67.5746,176.888 67.5746,176.159 C67.5746,175.951 67.6683,175.847 67.8558,175.847 C67.8975,175.847 67.9808,175.867 68.1058,175.909 C68.1475,175.919 68.2308,175.938 68.3558,175.964 C68.4808,175.99 68.5798,176.013 68.6527,176.034 C68.8923,176.076 69.1163,176.097 69.3246,176.097"/>
<path class="TimeSig" d="M69.7465,123.347 C69.3506,123.347 68.9965,123.276 68.684,123.136 C68.3715,122.995 68.1527,122.847 68.0277,122.69 C67.8506,122.492 67.6788,122.341 67.5121,122.237 C67.3038,122.091 67.0902,122.018 66.8715,122.018 C66.5277,122.018 66.2465,122.123 66.0277,122.331 C65.7986,122.529 65.6683,122.794 65.6371,123.128 C65.6163,123.274 65.5381,123.347 65.4027,123.347 C65.2465,123.347 65.1683,123.274 65.1683,123.128 C65.1683,122.628 65.2881,122.175 65.5277,121.768 C65.7569,121.352 66.0433,121.008 66.3871,120.737 C66.6683,120.487 67.0433,120.185 67.5121,119.831 C67.5954,119.768 67.7621,119.633 68.0121,119.425 C68.2621,119.216 68.4756,119.039 68.6527,118.893 C68.9861,118.612 69.2777,118.232 69.5277,117.753 C69.7569,117.284 69.8715,116.779 69.8715,116.237 C69.8715,115.57 69.7621,114.998 69.5433,114.518 C69.3142,114.05 68.9548,113.815 68.4652,113.815 C68.1736,113.815 67.934,113.878 67.7465,114.003 C67.5486,114.138 67.4496,114.315 67.4496,114.534 C67.4496,114.722 67.5668,114.951 67.8012,115.222 C68.0355,115.492 68.1527,115.722 68.1527,115.909 C68.1527,116.294 68.0173,116.623 67.7465,116.893 C67.4861,117.154 67.1683,117.284 66.7933,117.284 C66.3975,117.284 66.0642,117.149 65.7933,116.878 C65.5329,116.597 65.4027,116.274 65.4027,115.909 C65.4027,115.159 65.7022,114.544 66.3012,114.065 C66.9001,113.586 67.6215,113.347 68.4652,113.347 C69.4756,113.347 70.3506,113.617 71.0902,114.159 C71.8298,114.68 72.1996,115.373 72.1996,116.237 C72.1996,116.82 72.0954,117.32 71.8871,117.737 C71.6892,118.185 71.3975,118.534 71.0121,118.784 C70.5642,119.065 70.1788,119.284 69.8558,119.44 C69.3975,119.649 68.9444,119.847 68.4965,120.034 C67.9444,120.253 67.5173,120.461 67.2152,120.659 C67.3923,120.617 67.5694,120.597 67.7465,120.597 C68.3506,120.597 68.9756,120.789 69.6215,121.175 C70.2881,121.57 70.8038,121.768 71.1683,121.768 C71.3871,121.768 71.5642,121.727 71.6996,121.643 C71.8246,121.57 71.9079,121.487 71.9496,121.393 C72.0017,121.268 72.0486,121.18 72.0902,121.128 C72.1423,121.044 72.2048,121.003 72.2777,121.003 C72.434,121.003 72.5121,121.081 72.5121,121.237 C72.5121,121.602 72.2517,122.044 71.7308,122.565 C71.2204,123.086 70.559,123.347 69.7465,123.347"/>
<path class="TimeSig" d="M69.3246,123.597 C69.71,123.597 70.0407,123.552 70.3168,123.464 C70.5928,123.375 70.7673,123.331 70.8402,123.331 C70.934,123.331 71.0069,123.357 71.059,123.409 C71.1006,123.44 71.1267,123.482 71.1371,123.534 C71.1371,123.565 71.1215,123.607 71.0902,123.659 L65.4183,130.268 L68.7465,130.268 L68.7465,127.643 C68.7465,127.477 68.7933,127.331 68.8871,127.206 C69.0433,127.081 69.1736,127.003 69.2777,126.972 C69.4444,126.899 69.6527,126.716 69.9027,126.425 C70.1111,126.195 70.3611,125.789 70.6527,125.206 C70.684,125.123 70.7413,125.081 70.8246,125.081 C70.9808,125.081 71.0694,125.175 71.0902,125.362 L71.0902,130.268 L72.5277,130.268 C72.7048,130.268 72.809,130.362 72.8402,130.55 C72.8402,130.748 72.7361,130.847 72.5277,130.847 L71.0902,130.847 L71.0902,131.003 C71.0902,131.524 71.2204,131.966 71.4808,132.331 C71.7829,132.695 72.1371,132.878 72.5433,132.878 C72.6996,132.878 72.7777,132.956 72.7777,133.112 C72.7777,133.268 72.6996,133.347 72.5433,133.347 C72.2725,133.347 71.8298,133.31 71.2152,133.237 C70.6527,133.143 70.2152,133.097 69.9027,133.097 C69.5798,133.097 69.1423,133.143 68.5902,133.237 C68.0069,133.31 67.5746,133.347 67.2933,133.347 C67.1371,133.347 67.059,133.268 67.059,133.112 C67.059,132.956 67.1371,132.878 67.2933,132.878 C67.6892,132.878 68.0381,132.695 68.3402,132.331 C68.6111,131.966 68.7465,131.524 68.7465,131.003 L68.7465,130.847 L65.4183,130.847 C65.1892,130.847 65.0329,130.794 64.9496,130.69 C64.835,130.617 64.7777,130.513 64.7777,130.378 C64.7777,130.336 64.8767,130.201 65.0746,129.972 C65.3038,129.711 65.5381,129.393 65.7777,129.018 C66.0694,128.57 66.3454,128.112 66.6058,127.643 C66.8871,127.112 67.1163,126.498 67.2933,125.8 C67.4808,125.102 67.5746,124.388 67.5746,123.659 C67.5746,123.451 67.6683,123.347 67.8558,123.347 C67.8975,123.347 67.9808,123.367 68.1058,123.409 C68.1475,123.419 68.2308,123.438 68.3558,123.464 C68.4808,123.49 68.5798,123.513 68.6527,123.534 C68.8923,123.576 69.1163,123.597 69.3246,123.597"/>
<path class="Rest" d="M541.911,173.972 L534.802,173.972 C534.667,173.972 534.599,173.909 534.599,173.784 L534.599,171.05 C534.599,170.914 534.667,170.847 534.802,170.847 L541.911,170.847 C542.036,170.847 542.099,170.914 542.099,171.05 L542.099,173.784 C542.099,173.909 542.036,173.972 541.911,173.972"/>
<path class="Rest" d="M541.911,121.472 L534.802,121.472 C534.667,121.472 534.599,121.409 534.599,121.284 L534.599,118.55 C534.599,118.414 534.667,118.347 534.802,118.347 L541.911,118.347 C542.036,118.347 542.099,118.414 542.099,118.55 L542.099,121.284 C542.099,121.409 542.036,121.472 541.911,121.472"/>
<path class="Rest" d="M494.222,173.972 L487.113,173.972 C486.977,173.972 486.91,173.909 486.91,173.784 L486.91,171.05 C486.91,170.914 486.977,170.847 487.113,170.847 L494.222,170.847 C494.347,170.847 494.41,170.914 494.41,171.05 L494.41,173.784 C494.41,173.909 494.347,173.972 494.222,173.972"/>
<path class="Rest" d="M494.222,121.472 L487.113,121.472 C486.977,121.472 486.91,121.409 486.91,121.284 L486.91,118.55 C486.91,118.414 486.977,118.347 487.113,118.347 L494.222,118.347 C494.347,118.347 494.41,118.414 494.41,118.55 L494.41,121.284 C494.41,121.409 494.347,121.472 494.222,121.472"/>
<path class="Rest" d="M446.533,173.972 L439.424,173.972 C439.288,173.972 439.221,173.909 439.221,173.784 L439.221,171.05 C439.221,170.914 439.288,170.847 439.424,170.847 L446.533,170.847 C446.658,170.847 446.721,170.914 446.721,171.05 L446.721,173.784 C446.721,173.909 446.658,173.972 446.533,173.972"/>
<path class="Rest" d="M446.533,121.472 L439.424,121.472 C439.288,121.472 439.221,121.409 439.221,121.284 L439.221,118.55 C439.221,118.414 439.288,118.347 439.424,118.347 L446.533,118.347 C446.658,118.347 446.721,118.414 446.721,118.55 L446.721,121.284 C446.721,121.409 446.658,121.472 446.533,121.472"/>
<path class="Rest" d="M398.844,173.972 L391.735,173.972 C391.599,173.972 391.531,173.909 391.531,173.784 L391.531,171.05 C391.531,170.914 391.599,170.847 391.735,170.847 L398.844,170.847 C398.969,170.847 399.031,170.914 399.031,171.05 L399.031,173.784 C399.031,173.909 398.969,173.972 398.844,173.972"/>
<path class="Rest" d="M398.844,121.472 L391.735,121.472 C391.599,121.472 391.531,121.409 391.531,121.284 L391.531,118.55 C391.531,118.414 391.599,118.347 391.735,118.347 L398.844,118.347 C398.969,118.347 399.031,118.414 399.031,118.55 L399.031,121.284 C399.031,121.409 398.969,121.472 398.844,121.472"/>
<path class="Dynamic" d="M83.5258,144.768 L82.5727,147.862 C82.2393,148.977 81.682,150.055 80.9008,151.097 C80.1091,152.138 79.3018,152.659 78.4789,152.659 C78.0518,152.659 77.6742,152.547 77.3461,152.323 C77.018,152.099 76.8539,151.81 76.8539,151.456 C76.8539,151.05 76.9372,150.706 77.1039,150.425 C77.281,150.154 77.5258,150.008 77.8383,149.987 C78.0675,149.987 78.2602,150.07 78.4164,150.237 C78.5727,150.404 78.6508,150.597 78.6508,150.815 C78.6508,151.013 78.5362,151.195 78.307,151.362 C78.0675,151.508 77.9425,151.675 77.932,151.862 C77.932,151.987 78.0727,152.05 78.3539,152.05 L78.4789,152.05 C78.5414,152.05 78.6352,152.034 78.7602,152.003 C78.8331,151.992 78.9216,151.951 79.0258,151.878 C79.0258,151.878 79.0883,151.826 79.2133,151.722 C79.2966,151.607 79.3487,151.524 79.3695,151.472 C79.4112,151.367 79.4477,151.284 79.4789,151.222 C79.5206,151.18 79.557,151.076 79.5883,150.909 C79.6091,150.867 79.6247,150.82 79.6352,150.768 C79.6456,150.716 79.656,150.68 79.6664,150.659 C79.6768,150.638 79.682,150.623 79.682,150.612 C79.7341,150.404 79.7706,150.279 79.7914,150.237 C79.8331,150.029 79.8539,149.925 79.8539,149.925 L81.1352,144.768 L80.1508,144.768 C80.057,144.768 79.9893,144.737 79.9477,144.675 C79.8956,144.591 79.8695,144.518 79.8695,144.456 C79.8695,144.373 79.8956,144.3 79.9477,144.237 C80.031,144.175 80.0987,144.143 80.1508,144.143 L81.3227,144.143 C81.6456,143.164 82.182,142.32 82.932,141.612 C83.6716,140.883 84.4685,140.518 85.3227,140.518 C85.781,140.518 86.1612,140.633 86.4633,140.862 C86.7862,141.081 86.9529,141.367 86.9633,141.722 C86.9633,142.107 86.88,142.451 86.7133,142.753 C86.5154,143.024 86.2706,143.164 85.9789,143.175 C85.7497,143.175 85.557,143.094 85.4008,142.932 C85.2445,142.771 85.1664,142.581 85.1664,142.362 C85.1664,142.175 85.2862,142.003 85.5258,141.847 C85.7654,141.69 85.88,141.513 85.8695,141.315 C85.8695,141.169 85.7341,141.102 85.4633,141.112 L85.4164,141.112 C85.3852,141.133 85.3539,141.138 85.3227,141.128 C85.0935,141.128 84.9008,141.185 84.7445,141.3 C84.5883,141.404 84.4425,141.591 84.307,141.862 C84.2654,141.935 84.2315,142.008 84.2055,142.081 C84.1794,142.154 84.1508,142.235 84.1195,142.323 C84.0883,142.412 84.0622,142.472 84.0414,142.503 C84.031,142.565 84.0102,142.695 83.9789,142.893 C83.9372,143.081 83.9008,143.242 83.8695,143.378 C83.7862,143.774 83.7289,144.029 83.6977,144.143 L84.7758,144.143 C84.8591,144.143 84.9346,144.172 85.0023,144.229 C85.0701,144.287 85.1039,144.36 85.1039,144.448 C85.1039,144.537 85.0701,144.612 85.0023,144.675 C84.9346,144.737 84.8591,144.768 84.7758,144.768 L83.5258,144.768 "/>
<path class="Beam" fill-rule="evenodd" d="M341.325,122.097 L359.797,122.097 L359.797,124.597 L341.325,124.597 L341.325,122.097 "/>
<path class="Beam" fill-rule="evenodd" d="M305.68,116.914 L324.152,122.097 L324.152,124.597 L305.68,119.414 L305.68,116.914 "/>
<path class="Beam" fill-rule="evenodd" d="M267.054,112.097 L283.527,112.097 L283.527,114.597 L267.054,114.597 L267.054,112.097 "/>
<path class="Beam" fill-rule="evenodd" d="M229.476,130.847 L245.949,133.449 L245.949,135.949 L229.476,133.347 L229.476,130.847 "/>
<path class="Beam" fill-rule="evenodd" d="M190.851,125.847 L207.323,125.847 L207.323,128.347 L190.851,128.347 L190.851,125.847 "/>
<path class="Beam" fill-rule="evenodd" d="M159.206,133.347 L175.678,128.141 L175.678,130.641 L159.206,135.847 L159.206,133.347 "/>
<path class="Beam" fill-rule="evenodd" d="M116.99,130.847 L135.258,130.847 L135.258,133.347 L116.99,133.347 L116.99,130.847 "/>
<path class="Beam" fill-rule="evenodd" d="M81.7551,130.847 L100.023,130.847 L100.023,133.347 L81.7551,133.347 L81.7551,130.847 "/>
</svg>
