<?xml version="1.0" encoding="UTF-8" standalone="no"?>
<svg width="595.44px" height="841.68px" viewBox="0 0 595.44 841.68"
 xmlns="http://www.w3.org/2000/svg" xmlns:xlink="http://www.w3.org/1999/xlink" version="1.2" baseProfile="tiny">
<title>Title</title>
<desc>Generated by MuseScore 2.3.2</desc>
<polyline class="StaffLines" fill="none" stroke="#000000" stroke-width="0.40" stroke-linejoin="bevel" points="28.3465,113.347 567.094,113.347"/>
<polyline class="StaffLines" fill="none" stroke="#000000" stroke-width="0.40" stroke-linejoin="bevel" points="28.3465,118.347 567.094,118.347"/>
<polyline class="StaffLines" fill="none" stroke="#000000" stroke-width="0.40" stroke-linejoin="bevel" points="28.3465,123.347 567.094,123.347"/>
<polyline class="StaffLines" fill="none" stroke="#000000" stroke-width="0.40" stroke-linejoin="bevel" points="28.3465,128.347 567.094,128.347"/>
<polyline class="StaffLines" fill="none" stroke="#000000" stroke-width="0.40" stroke-linejoin="bevel" points="28.3465,133.347 567.094,133.347"/>
<polyline class="StaffLines" fill="none" stroke="#000000" stroke-width="0.40" stroke-linejoin="bevel" points="28.3465,165.847 567.094,165.847"/>
<polyline class="StaffLines" fill="none" stroke="#000000" stroke-width="0.40" stroke-linejoin="bevel" points="28.3465,170.847 567.094,170.847"/>
<polyline class="StaffLines" fill="none" stroke="#000000" stroke-width="0.40" stroke-linejoin="bevel" points="28.3465,175.847 567.094,175.847"/>
<polyline class="StaffLines" fill="none" stroke="#000000" stroke-width="0.40" stroke-linejoin="bevel" points="28.3465,180.847 567.094,180.847"/>
<polyline class="StaffLines" fill="none" stroke="#000000" stroke-width="0.40" stroke-linejoin="bevel" points="28.3465,185.847 567.094,185.847"/>
<path class="SlurSegment" stroke="#000000" stroke-width="0.35" stroke-linecap="round" stroke-linejoin="round" fill-rule="evenodd" d="M216.113,161.347 C230.976,150.358 274.375,151.858 288.444,163.847 C274.347,152.657 230.948,151.157 216.113,161.347"/>
<path class="SlurSegment" stroke="#000000" stroke-width="0.35" stroke-linecap="round" stroke-linejoin="round" fill-rule="evenodd" d="M85.0465,158.847 C97.616,148.625 133.998,150.125 145.684,161.347 C133.965,150.924 97.5831,149.424 85.0465,158.847"/>
<path class="SlurSegment" stroke="#000000" stroke-width="0.35" stroke-linecap="round" stroke-linejoin="round" fill-rule="evenodd" d="M85.0465,101.346 C119.942,84.7797 282.787,84.7797 317.682,101.346 C282.787,85.5797 119.942,85.5797 85.0465,101.346"/>
<path class="SlurSegment" stroke="#000000" stroke-width="0.35" stroke-linecap="round" stroke-linejoin="round" fill-rule="evenodd" d="M149.989,182.93 C161.403,189.03 195.645,189.03 207.059,182.93 C195.645,189.83 161.403,189.83 149.989,182.93"/>
<path class="SlurSegment" stroke="#000000" stroke-width="0.35" stroke-linecap="round" stroke-linejoin="round" fill-rule="evenodd" d="M89.3516,182.93 C99.757,189.03 130.973,189.03 141.379,182.93 C130.973,189.83 99.757,189.83 89.3516,182.93"/>
<polyline class="BarLine" stroke="#000000" stroke-width="0.80" stroke-linejoin="bevel" points="28.7465,113.347 28.7465,185.847"/>
<polyline class="BarLine" stroke="#000000" stroke-width="0.80" stroke-linejoin="bevel" points="562.194,165.847 562.194,185.847"/>
<polyline class="BarLine" stroke="#000000" stroke-width="2.50" stroke-linejoin="bevel" points="565.844,165.847 565.844,185.847"/>
<polyline class="BarLine" stroke="#000000" stroke-width="0.80" stroke-linejoin="bevel" points="562.194,113.347 562.194,133.347"/>
<polyline class="BarLine" stroke="#000000" stroke-width="2.50" stroke-linejoin="bevel" points="565.844,113.347 565.844,133.347"/>
<polyline class="BarLine" stroke="#000000" stroke-width="0.80" stroke-linejoin="bevel" points="507.652,165.847 507.652,185.847"/>
<polyline class="BarLine" stroke="#000000" stroke-width="0.80" stroke-linejoin="bevel" points="507.652,113.347 507.652,133.347"/>
<polyline class="BarLine" stroke="#000000" stroke-width="0.80" stroke-linejoin="bevel" points="453.111,165.847 453.111,185.847"/>
<polyline class="BarLine" stroke="#000000" stroke-width="0.80" stroke-linejoin="bevel" points="453.111,113.347 453.111,133.347"/>
<polyline class="BarLine" stroke="#000000" stroke-width="0.80" stroke-linejoin="bevel" points="398.57,165.847 398.57,185.847"/>
<polyline class="BarLine" stroke="#000000" stroke-width="0.80" stroke-linejoin="bevel" points="398.57,113.347 398.57,133.347"/>
<polyline class="BarLine" stroke="#000000" stroke-width="0.80" stroke-linejoin="bevel" points="344.029,165.847 344.029,185.847"/>
<polyline class="BarLine" stroke="#000000" stroke-width="0.80" stroke-linejoin="bevel" points="344.029,113.347 344.029,133.347"/>
<polyline class="BarLine" stroke="#000000" stroke-width="0.80" stroke-linejoin="bevel" points="278.572,165.847 278.572,185.847"/>
<polyline class="BarLine" stroke="#000000" stroke-width="0.80" stroke-linejoin="bevel" points="278.572,113.347 278.572,133.347"/>
<polyline class="BarLine" stroke="#000000" stroke-width="0.80" stroke-linejoin="bevel" points="201.269,165.847 201.269,185.847"/>
<polyline class="BarLine" stroke="#000000" stroke-width="0.80" stroke-linejoin="bevel" points="201.269,113.347 201.269,133.347"/>
<polyline class="BarLine" stroke="#000000" stroke-width="0.80" stroke-linejoin="bevel" points="135.812,165.847 135.812,185.847"/>
<polyline class="BarLine" stroke="#000000" stroke-width="0.80" stroke-linejoin="bevel" points="135.812,113.347 135.812,133.347"/>
<polyline class="LedgerLine" stroke="#000000" stroke-width="0.80" stroke-linecap="square" stroke-linejoin="bevel" points="312.89,108.347 322.473,108.347"/>
<polyline class="LedgerLine" stroke="#000000" stroke-width="0.80" stroke-linecap="square" stroke-linejoin="bevel" points="283.652,103.346 293.235,103.346"/>
<polyline class="LedgerLine" stroke="#000000" stroke-width="0.80" stroke-linecap="square" stroke-linejoin="bevel" points="283.652,108.347 293.235,108.347"/>
<polyline class="LedgerLine" stroke="#000000" stroke-width="0.80" stroke-linecap="square" stroke-linejoin="bevel" points="241.511,103.346 251.093,103.346"/>
<polyline class="LedgerLine" stroke="#000000" stroke-width="0.80" stroke-linecap="square" stroke-linejoin="bevel" points="241.511,108.347 251.093,108.347"/>
<polyline class="LedgerLine" stroke="#000000" stroke-width="0.80" stroke-linecap="square" stroke-linejoin="bevel" points="206.349,98.3465 215.932,98.3465"/>
<polyline class="LedgerLine" stroke="#000000" stroke-width="0.80" stroke-linecap="square" stroke-linejoin="bevel" points="206.349,103.346 215.932,103.346"/>
<polyline class="LedgerLine" stroke="#000000" stroke-width="0.80" stroke-linecap="square" stroke-linejoin="bevel" points="206.349,108.347 215.932,108.347"/>
<polyline class="LedgerLine" stroke="#000000" stroke-width="0.80" stroke-linecap="square" stroke-linejoin="bevel" points="170.131,98.3465 179.713,98.3465"/>
<polyline class="LedgerLine" stroke="#000000" stroke-width="0.80" stroke-linecap="square" stroke-linejoin="bevel" points="170.131,103.346 179.713,103.346"/>
<polyline class="LedgerLine" stroke="#000000" stroke-width="0.80" stroke-linecap="square" stroke-linejoin="bevel" points="170.131,108.347 179.713,108.347"/>
<polyline class="LedgerLine" stroke="#000000" stroke-width="0.80" stroke-linecap="square" stroke-linejoin="bevel" points="140.892,103.346 150.475,103.346"/>
<polyline class="LedgerLine" stroke="#000000" stroke-width="0.80" stroke-linecap="square" stroke-linejoin="bevel" points="140.892,108.347 150.475,108.347"/>
<polyline class="LedgerLine" stroke="#000000" stroke-width="0.80" stroke-linecap="square" stroke-linejoin="bevel" points="107.084,98.3465 116.666,98.3465"/>
<polyline class="LedgerLine" stroke="#000000" stroke-width="0.80" stroke-linecap="square" stroke-linejoin="bevel" points="107.084,103.346 116.666,103.346"/>
<polyline class="LedgerLine" stroke="#000000" stroke-width="0.80" stroke-linecap="square" stroke-linejoin="bevel" points="107.084,108.347 116.666,108.347"/>
<polyline class="LedgerLine" stroke="#000000" stroke-width="0.80" stroke-linecap="square" stroke-linejoin="bevel" points="80.2551,108.347 89.8379,108.347"/>
<polyline class="Stem" stroke="#000000" stroke-width="0.65" stroke-linecap="round" stroke-linejoin="bevel" points="314.715,106.786 314.715,138.972"/>
<polyline class="Stem" stroke="#000000" stroke-width="0.65" stroke-linecap="round" stroke-linejoin="bevel" points="285.297,169.131 285.297,189.597"/>
<polyline class="Stem" stroke="#000000" stroke-width="0.65" stroke-linecap="round" stroke-linejoin="bevel" points="285.477,104.286 285.477,137.097"/>
<polyline class="Stem" stroke="#000000" stroke-width="0.65" stroke-linecap="round" stroke-linejoin="bevel" points="260.916,181.786 260.916,194.597"/>
<polyline class="Stem" stroke="#000000" stroke-width="0.65" stroke-linecap="round" stroke-linejoin="bevel" points="243.336,181.786 243.336,194.597"/>
<polyline class="Stem" stroke="#000000" stroke-width="0.65" stroke-linecap="round" stroke-linejoin="bevel" points="243.336,104.286 243.336,137.097"/>
<polyline class="Stem" stroke="#000000" stroke-width="0.65" stroke-linecap="round" stroke-linejoin="bevel" points="225.755,181.786 225.755,194.597"/>
<polyline class="Stem" stroke="#000000" stroke-width="0.65" stroke-linecap="round" stroke-linejoin="bevel" points="208.174,181.786 208.174,194.597"/>
<polyline class="Stem" stroke="#000000" stroke-width="0.65" stroke-linecap="round" stroke-linejoin="bevel" points="214.288,175.079 214.288,152.722"/>
<polyline class="Stem" stroke="#000000" stroke-width="0.65" stroke-linecap="round" stroke-linejoin="bevel" points="208.174,96.7856 208.174,130.847"/>
<polyline class="Stem" stroke="#000000" stroke-width="0.65" stroke-linecap="round" stroke-linejoin="bevel" points="171.956,99.2856 171.956,133.347"/>
<polyline class="Stem" stroke="#000000" stroke-width="0.65" stroke-linecap="round" stroke-linejoin="bevel" points="142.537,166.631 142.537,195.222"/>
<polyline class="Stem" stroke="#000000" stroke-width="0.65" stroke-linecap="round" stroke-linejoin="bevel" points="142.717,101.786 142.717,135.222"/>
<polyline class="Stem" stroke="#000000" stroke-width="0.65" stroke-linecap="round" stroke-linejoin="bevel" points="108.909,99.2856 108.909,133.347"/>
<polyline class="Stem" stroke="#000000" stroke-width="0.65" stroke-linecap="round" stroke-linejoin="bevel" points="81.8996,164.131 81.8996,195.222"/>
<polyline class="Stem" stroke="#000000" stroke-width="0.65" stroke-linecap="round" stroke-linejoin="bevel" points="82.0801,106.786 82.0801,138.972"/>
<path class="Note" d="M318.781,103.096 C319.406,103.096 319.937,103.258 320.375,103.581 C320.771,103.935 320.969,104.378 320.969,104.909 C320.969,105.805 320.51,106.643 319.594,107.425 C318.656,108.206 317.651,108.596 316.578,108.596 C315.953,108.596 315.427,108.435 315,108.112 C314.594,107.758 314.39,107.315 314.39,106.784 C314.39,105.888 314.859,105.05 315.797,104.268 C316.713,103.487 317.708,103.096 318.781,103.096"/>
<path class="Note" d="M318.781,120.597 C319.406,120.597 319.937,120.758 320.375,121.081 C320.771,121.435 320.969,121.878 320.969,122.409 C320.969,123.305 320.51,124.143 319.594,124.925 C318.656,125.706 317.651,126.097 316.578,126.097 C315.953,126.097 315.427,125.935 315,125.612 C314.594,125.258 314.39,124.815 314.39,124.284 C314.39,123.388 314.859,122.55 315.797,121.768 C316.713,120.987 317.708,120.597 318.781,120.597"/>
<path class="Note" d="M291.284,167.034 C291.284,166.815 291.201,166.628 291.034,166.472 C290.857,166.305 290.659,166.222 290.441,166.222 C290.055,166.222 289.269,166.612 288.081,167.393 C286.852,168.185 286.102,168.753 285.831,169.097 C285.685,169.274 285.612,169.461 285.612,169.659 C285.612,169.878 285.701,170.065 285.878,170.222 C286.034,170.388 286.227,170.472 286.456,170.472 C286.831,170.472 287.628,170.081 288.847,169.3 C290.045,168.518 290.784,167.951 291.066,167.597 C291.211,167.43 291.284,167.242 291.284,167.034 M290.253,165.597 C291.368,165.597 291.925,166.076 291.925,167.034 C291.925,167.503 291.789,168.05 291.519,168.675 C291.248,169.289 290.883,169.758 290.425,170.081 C289.425,170.758 288.17,171.097 286.659,171.097 C285.534,171.097 284.972,170.617 284.972,169.659 C284.972,169.232 285.107,168.69 285.378,168.034 C285.638,167.409 286.003,166.935 286.472,166.612 C287.482,165.935 288.743,165.597 290.253,165.597"/>
<path class="Note" d="M291.284,172.034 C291.284,171.815 291.201,171.628 291.034,171.472 C290.857,171.305 290.659,171.222 290.441,171.222 C290.055,171.222 289.269,171.612 288.081,172.393 C286.852,173.185 286.102,173.753 285.831,174.097 C285.685,174.274 285.612,174.461 285.612,174.659 C285.612,174.878 285.701,175.065 285.878,175.222 C286.034,175.388 286.227,175.472 286.456,175.472 C286.831,175.472 287.628,175.081 288.847,174.3 C290.045,173.518 290.784,172.951 291.066,172.597 C291.211,172.43 291.284,172.242 291.284,172.034 M290.253,170.597 C291.368,170.597 291.925,171.076 291.925,172.034 C291.925,172.503 291.789,173.05 291.519,173.675 C291.248,174.289 290.883,174.758 290.425,175.081 C289.425,175.758 288.17,176.097 286.659,176.097 C285.534,176.097 284.972,175.617 284.972,174.659 C284.972,174.232 285.107,173.69 285.378,173.034 C285.638,172.409 286.003,171.935 286.472,171.612 C287.482,170.935 288.743,170.597 290.253,170.597"/>
<path class="Note" d="M289.543,100.596 C290.168,100.596 290.699,100.758 291.137,101.081 C291.532,101.435 291.73,101.878 291.73,102.409 C291.73,103.305 291.272,104.143 290.355,104.925 C289.418,105.706 288.413,106.096 287.34,106.096 C286.715,106.096 286.189,105.935 285.762,105.612 C285.355,105.258 285.152,104.815 285.152,104.284 C285.152,103.388 285.621,102.55 286.558,101.768 C287.475,100.987 288.47,100.596 289.543,100.596"/>
<path class="Note" d="M289.543,118.097 C290.168,118.097 290.699,118.258 291.137,118.581 C291.532,118.935 291.73,119.378 291.73,119.909 C291.73,120.805 291.272,121.643 290.355,122.425 C289.418,123.206 288.413,123.597 287.34,123.597 C286.715,123.597 286.189,123.435 285.762,123.112 C285.355,122.758 285.152,122.315 285.152,121.784 C285.152,120.888 285.621,120.05 286.558,119.268 C287.475,118.487 288.47,118.097 289.543,118.097"/>
<path class="Note" d="M264.982,178.097 C265.607,178.097 266.138,178.258 266.576,178.581 C266.971,178.935 267.169,179.378 267.169,179.909 C267.169,180.805 266.711,181.643 265.794,182.425 C264.857,183.206 263.852,183.597 262.779,183.597 C262.154,183.597 261.628,183.435 261.201,183.112 C260.794,182.758 260.591,182.315 260.591,181.784 C260.591,180.888 261.06,180.05 261.997,179.268 C262.914,178.487 263.909,178.097 264.982,178.097"/>
<path class="Note" d="M247.401,178.097 C248.026,178.097 248.557,178.258 248.995,178.581 C249.391,178.935 249.589,179.378 249.589,179.909 C249.589,180.805 249.13,181.643 248.214,182.425 C247.276,183.206 246.271,183.597 245.198,183.597 C244.573,183.597 244.047,183.435 243.62,183.112 C243.214,182.758 243.011,182.315 243.011,181.784 C243.011,180.888 243.479,180.05 244.417,179.268 C245.333,178.487 246.328,178.097 247.401,178.097"/>
<path class="Note" d="M247.401,100.596 C248.026,100.596 248.557,100.758 248.995,101.081 C249.391,101.435 249.589,101.878 249.589,102.409 C249.589,103.305 249.13,104.143 248.214,104.925 C247.276,105.706 246.271,106.096 245.198,106.096 C244.573,106.096 244.047,105.935 243.62,105.612 C243.214,105.258 243.011,104.815 243.011,104.284 C243.011,103.388 243.479,102.55 244.417,101.768 C245.333,100.987 246.328,100.596 247.401,100.596"/>
<path class="Note" d="M247.401,118.097 C248.026,118.097 248.557,118.258 248.995,118.581 C249.391,118.935 249.589,119.378 249.589,119.909 C249.589,120.805 249.13,121.643 248.214,122.425 C247.276,123.206 246.271,123.597 245.198,123.597 C244.573,123.597 244.047,123.435 243.62,123.112 C243.214,122.758 243.011,122.315 243.011,121.784 C243.011,120.888 243.479,120.05 244.417,119.268 C245.333,118.487 246.328,118.097 247.401,118.097"/>
<path class="Note" d="M229.821,178.097 C230.446,178.097 230.977,178.258 231.414,178.581 C231.81,178.935 232.008,179.378 232.008,179.909 C232.008,180.805 231.55,181.643 230.633,182.425 C229.696,183.206 228.69,183.597 227.617,183.597 C226.992,183.597 226.466,183.435 226.039,183.112 C225.633,182.758 225.43,182.315 225.43,181.784 C225.43,180.888 225.899,180.05 226.836,179.268 C227.753,178.487 228.748,178.097 229.821,178.097"/>
<path class="Note" d="M212.24,178.097 C212.865,178.097 213.396,178.258 213.834,178.581 C214.229,178.935 214.427,179.378 214.427,179.909 C214.427,180.805 213.969,181.643 213.052,182.425 C212.115,183.206 211.11,183.597 210.037,183.597 C209.412,183.597 208.886,183.435 208.459,183.112 C208.052,182.758 207.849,182.315 207.849,181.784 C207.849,180.888 208.318,180.05 209.256,179.268 C210.172,178.487 211.167,178.097 212.24,178.097"/>
<path class="Note" d="M213.981,164.534 C213.981,164.315 213.898,164.128 213.731,163.972 C213.554,163.805 213.356,163.722 213.138,163.722 C212.752,163.722 211.966,164.112 210.778,164.893 C209.549,165.685 208.799,166.253 208.528,166.597 C208.382,166.774 208.309,166.961 208.309,167.159 C208.309,167.378 208.398,167.565 208.575,167.722 C208.731,167.888 208.924,167.972 209.153,167.972 C209.528,167.972 210.325,167.581 211.544,166.8 C212.742,166.018 213.481,165.451 213.763,165.097 C213.908,164.93 213.981,164.742 213.981,164.534 M212.95,163.097 C214.065,163.097 214.622,163.576 214.622,164.534 C214.622,165.003 214.487,165.55 214.216,166.175 C213.945,166.789 213.58,167.258 213.122,167.581 C212.122,168.258 210.867,168.597 209.356,168.597 C208.231,168.597 207.669,168.117 207.669,167.159 C207.669,166.732 207.804,166.19 208.075,165.534 C208.335,164.909 208.7,164.435 209.169,164.112 C210.179,163.435 211.44,163.097 212.95,163.097"/>
<path class="Note" d="M213.981,174.534 C213.981,174.315 213.898,174.128 213.731,173.972 C213.554,173.805 213.356,173.722 213.138,173.722 C212.752,173.722 211.966,174.112 210.778,174.893 C209.549,175.685 208.799,176.253 208.528,176.597 C208.382,176.774 208.309,176.961 208.309,177.159 C208.309,177.378 208.398,177.565 208.575,177.722 C208.731,177.888 208.924,177.972 209.153,177.972 C209.528,177.972 210.325,177.581 211.544,176.8 C212.742,176.018 213.481,175.451 213.763,175.097 C213.908,174.93 213.981,174.742 213.981,174.534 M212.95,173.097 C214.065,173.097 214.622,173.576 214.622,174.534 C214.622,175.003 214.487,175.55 214.216,176.175 C213.945,176.789 213.58,177.258 213.122,177.581 C212.122,178.258 210.867,178.597 209.356,178.597 C208.231,178.597 207.669,178.117 207.669,177.159 C207.669,176.732 207.804,176.19 208.075,175.534 C208.335,174.909 208.7,174.435 209.169,174.112 C210.179,173.435 211.44,173.097 212.95,173.097"/>
<path class="Note" d="M212.24,93.0965 C212.865,93.0965 213.396,93.258 213.834,93.5809 C214.229,93.935 214.427,94.3777 214.427,94.909 C214.427,95.8048 213.969,96.6434 213.052,97.4246 C212.115,98.2059 211.11,98.5965 210.037,98.5965 C209.412,98.5965 208.886,98.435 208.459,98.1121 C208.052,97.758 207.849,97.3152 207.849,96.784 C207.849,95.8882 208.318,95.0496 209.256,94.2684 C210.172,93.4871 211.167,93.0965 212.24,93.0965"/>
<path class="Note" d="M212.24,110.597 C212.865,110.597 213.396,110.758 213.834,111.081 C214.229,111.435 214.427,111.878 214.427,112.409 C214.427,113.305 213.969,114.143 213.052,114.925 C212.115,115.706 211.11,116.097 210.037,116.097 C209.412,116.097 208.886,115.935 208.459,115.612 C208.052,115.258 207.849,114.815 207.849,114.284 C207.849,113.388 208.318,112.55 209.256,111.768 C210.172,110.987 211.167,110.597 212.24,110.597"/>
<path class="Note" d="M176.021,95.5965 C176.646,95.5965 177.177,95.758 177.615,96.0809 C178.011,96.435 178.209,96.8777 178.209,97.409 C178.209,98.3048 177.75,99.1434 176.834,99.9246 C175.896,100.706 174.891,101.096 173.818,101.096 C173.193,101.096 172.667,100.935 172.24,100.612 C171.834,100.258 171.631,99.8152 171.631,99.284 C171.631,98.3882 172.099,97.5496 173.037,96.7684 C173.954,95.9871 174.948,95.5965 176.021,95.5965"/>
<path class="Note" d="M176.021,113.097 C176.646,113.097 177.177,113.258 177.615,113.581 C178.011,113.935 178.209,114.378 178.209,114.909 C178.209,115.805 177.75,116.643 176.834,117.425 C175.896,118.206 174.891,118.597 173.818,118.597 C173.193,118.597 172.667,118.435 172.24,118.112 C171.834,117.758 171.631,117.315 171.631,116.784 C171.631,115.888 172.099,115.05 173.037,114.268 C173.954,113.487 174.948,113.097 176.021,113.097"/>
<path class="Note" d="M148.524,164.534 C148.524,164.315 148.441,164.128 148.274,163.972 C148.097,163.805 147.899,163.722 147.681,163.722 C147.295,163.722 146.509,164.112 145.321,164.893 C144.092,165.685 143.342,166.253 143.071,166.597 C142.925,166.774 142.853,166.961 142.853,167.159 C142.853,167.378 142.941,167.565 143.118,167.722 C143.274,167.888 143.467,167.972 143.696,167.972 C144.071,167.972 144.868,167.581 146.087,166.8 C147.285,166.018 148.024,165.451 148.306,165.097 C148.452,164.93 148.524,164.742 148.524,164.534 M147.493,163.097 C148.608,163.097 149.165,163.576 149.165,164.534 C149.165,165.003 149.03,165.55 148.759,166.175 C148.488,166.789 148.123,167.258 147.665,167.581 C146.665,168.258 145.41,168.597 143.899,168.597 C142.774,168.597 142.212,168.117 142.212,167.159 C142.212,166.732 142.347,166.19 142.618,165.534 C142.879,164.909 143.243,164.435 143.712,164.112 C144.722,163.435 145.983,163.097 147.493,163.097"/>
<path class="Note" d="M148.524,169.534 C148.524,169.315 148.441,169.128 148.274,168.972 C148.097,168.805 147.899,168.722 147.681,168.722 C147.295,168.722 146.509,169.112 145.321,169.893 C144.092,170.685 143.342,171.253 143.071,171.597 C142.925,171.774 142.853,171.961 142.853,172.159 C142.853,172.378 142.941,172.565 143.118,172.722 C143.274,172.888 143.467,172.972 143.696,172.972 C144.071,172.972 144.868,172.581 146.087,171.8 C147.285,171.018 148.024,170.451 148.306,170.097 C148.452,169.93 148.524,169.742 148.524,169.534 M147.493,168.097 C148.608,168.097 149.165,168.576 149.165,169.534 C149.165,170.003 149.03,170.55 148.759,171.175 C148.488,171.789 148.123,172.258 147.665,172.581 C146.665,173.258 145.41,173.597 143.899,173.597 C142.774,173.597 142.212,173.117 142.212,172.159 C142.212,171.732 142.347,171.19 142.618,170.534 C142.879,169.909 143.243,169.435 143.712,169.112 C144.722,168.435 145.983,168.097 147.493,168.097"/>
<path class="Note" d="M148.524,179.534 C148.524,179.315 148.441,179.128 148.274,178.972 C148.097,178.805 147.899,178.722 147.681,178.722 C147.295,178.722 146.509,179.112 145.321,179.893 C144.092,180.685 143.342,181.253 143.071,181.597 C142.925,181.774 142.853,181.961 142.853,182.159 C142.853,182.378 142.941,182.565 143.118,182.722 C143.274,182.888 143.467,182.972 143.696,182.972 C144.071,182.972 144.868,182.581 146.087,181.8 C147.285,181.018 148.024,180.451 148.306,180.097 C148.452,179.93 148.524,179.742 148.524,179.534 M147.493,178.097 C148.608,178.097 149.165,178.576 149.165,179.534 C149.165,180.003 149.03,180.55 148.759,181.175 C148.488,181.789 148.123,182.258 147.665,182.581 C146.665,183.258 145.41,183.597 143.899,183.597 C142.774,183.597 142.212,183.117 142.212,182.159 C142.212,181.732 142.347,181.19 142.618,180.534 C142.879,179.909 143.243,179.435 143.712,179.112 C144.722,178.435 145.983,178.097 147.493,178.097"/>
<path class="Note" d="M146.783,98.0965 C147.408,98.0965 147.939,98.258 148.377,98.5809 C148.773,98.935 148.971,99.3777 148.971,99.909 C148.971,100.805 148.512,101.643 147.596,102.425 C146.658,103.206 145.653,103.596 144.58,103.596 C143.955,103.596 143.429,103.435 143.002,103.112 C142.596,102.758 142.392,102.315 142.392,101.784 C142.392,100.888 142.861,100.05 143.799,99.2684 C144.715,98.4871 145.71,98.0965 146.783,98.0965"/>
<path class="Note" d="M146.783,115.597 C147.408,115.597 147.939,115.758 148.377,116.081 C148.773,116.435 148.971,116.878 148.971,117.409 C148.971,118.305 148.512,119.143 147.596,119.925 C146.658,120.706 145.653,121.097 144.58,121.097 C143.955,121.097 143.429,120.935 143.002,120.612 C142.596,120.258 142.392,119.815 142.392,119.284 C142.392,118.388 142.861,117.55 143.799,116.768 C144.715,115.987 145.71,115.597 146.783,115.597"/>
<path class="Note" d="M112.974,95.5965 C113.599,95.5965 114.13,95.758 114.568,96.0809 C114.964,96.435 115.162,96.8777 115.162,97.409 C115.162,98.3048 114.703,99.1434 113.787,99.9246 C112.849,100.706 111.844,101.096 110.771,101.096 C110.146,101.096 109.62,100.935 109.193,100.612 C108.787,100.258 108.584,99.8152 108.584,99.284 C108.584,98.3882 109.052,97.5496 109.99,96.7684 C110.906,95.9871 111.901,95.5965 112.974,95.5965"/>
<path class="Note" d="M112.974,113.097 C113.599,113.097 114.13,113.258 114.568,113.581 C114.964,113.935 115.162,114.378 115.162,114.909 C115.162,115.805 114.703,116.643 113.787,117.425 C112.849,118.206 111.844,118.597 110.771,118.597 C110.146,118.597 109.62,118.435 109.193,118.112 C108.787,117.758 108.584,117.315 108.584,116.784 C108.584,115.888 109.052,115.05 109.99,114.268 C110.906,113.487 111.901,113.097 112.974,113.097"/>
<path class="Note" d="M87.8871,162.034 C87.8871,161.815 87.8038,161.628 87.6371,161.472 C87.46,161.305 87.2621,161.222 87.0434,161.222 C86.6579,161.222 85.8715,161.612 84.684,162.393 C83.4548,163.185 82.7048,163.753 82.434,164.097 C82.2882,164.274 82.2152,164.461 82.2152,164.659 C82.2152,164.878 82.3038,165.065 82.4809,165.222 C82.6371,165.388 82.8298,165.472 83.059,165.472 C83.434,165.472 84.2309,165.081 85.4496,164.3 C86.6475,163.518 87.3871,162.951 87.6684,162.597 C87.8142,162.43 87.8871,162.242 87.8871,162.034 M86.8559,160.597 C87.9704,160.597 88.5277,161.076 88.5277,162.034 C88.5277,162.503 88.3923,163.05 88.1215,163.675 C87.8507,164.289 87.4861,164.758 87.0277,165.081 C86.0277,165.758 84.7725,166.097 83.2621,166.097 C82.1371,166.097 81.5746,165.617 81.5746,164.659 C81.5746,164.232 81.71,163.69 81.9809,163.034 C82.2413,162.409 82.6059,161.935 83.0746,161.612 C84.085,160.935 85.3454,160.597 86.8559,160.597"/>
<path class="Note" d="M87.8871,167.034 C87.8871,166.815 87.8038,166.628 87.6371,166.472 C87.46,166.305 87.2621,166.222 87.0434,166.222 C86.6579,166.222 85.8715,166.612 84.684,167.393 C83.4548,168.185 82.7048,168.753 82.434,169.097 C82.2882,169.274 82.2152,169.461 82.2152,169.659 C82.2152,169.878 82.3038,170.065 82.4809,170.222 C82.6371,170.388 82.8298,170.472 83.059,170.472 C83.434,170.472 84.2309,170.081 85.4496,169.3 C86.6475,168.518 87.3871,167.951 87.6684,167.597 C87.8142,167.43 87.8871,167.242 87.8871,167.034 M86.8559,165.597 C87.9704,165.597 88.5277,166.076 88.5277,167.034 C88.5277,167.503 88.3923,168.05 88.1215,168.675 C87.8507,169.289 87.4861,169.758 87.0277,170.081 C86.0277,170.758 84.7725,171.097 83.2621,171.097 C82.1371,171.097 81.5746,170.617 81.5746,169.659 C81.5746,169.232 81.71,168.69 81.9809,168.034 C82.2413,167.409 82.6059,166.935 83.0746,166.612 C84.085,165.935 85.3454,165.597 86.8559,165.597"/>
<path class="Note" d="M87.8871,179.534 C87.8871,179.315 87.8038,179.128 87.6371,178.972 C87.46,178.805 87.2621,178.722 87.0434,178.722 C86.6579,178.722 85.8715,179.112 84.684,179.893 C83.4548,180.685 82.7048,181.253 82.434,181.597 C82.2882,181.774 82.2152,181.961 82.2152,182.159 C82.2152,182.378 82.3038,182.565 82.4809,182.722 C82.6371,182.888 82.8298,182.972 83.059,182.972 C83.434,182.972 84.2309,182.581 85.4496,181.8 C86.6475,181.018 87.3871,180.451 87.6684,180.097 C87.8142,179.93 87.8871,179.742 87.8871,179.534 M86.8559,178.097 C87.9704,178.097 88.5277,178.576 88.5277,179.534 C88.5277,180.003 88.3923,180.55 88.1215,181.175 C87.8507,181.789 87.4861,182.258 87.0277,182.581 C86.0277,183.258 84.7725,183.597 83.2621,183.597 C82.1371,183.597 81.5746,183.117 81.5746,182.159 C81.5746,181.732 81.71,181.19 81.9809,180.534 C82.2413,179.909 82.6059,179.435 83.0746,179.112 C84.085,178.435 85.3454,178.097 86.8559,178.097"/>
<path class="Note" d="M86.1457,103.096 C86.7707,103.096 87.302,103.258 87.7395,103.581 C88.1353,103.935 88.3332,104.378 88.3332,104.909 C88.3332,105.805 87.8749,106.643 86.9582,107.425 C86.0207,108.206 85.0155,108.596 83.9426,108.596 C83.3176,108.596 82.7915,108.435 82.3645,108.112 C81.9582,107.758 81.7551,107.315 81.7551,106.784 C81.7551,105.888 82.2238,105.05 83.1613,104.268 C84.078,103.487 85.0728,103.096 86.1457,103.096"/>
<path class="Note" d="M86.1457,120.597 C86.7707,120.597 87.302,120.758 87.7395,121.081 C88.1353,121.435 88.3332,121.878 88.3332,122.409 C88.3332,123.305 87.8749,124.143 86.9582,124.925 C86.0207,125.706 85.0155,126.097 83.9426,126.097 C83.3176,126.097 82.7915,125.935 82.3645,125.612 C81.9582,125.258 81.7551,124.815 81.7551,124.284 C81.7551,123.388 82.2238,122.55 83.1613,121.768 C84.078,120.987 85.0728,120.597 86.1457,120.597"/>
<path class="Clef" d="M43.7761,169.065 C43.5834,168.867 43.4871,168.625 43.4871,168.339 C43.4871,168.052 43.5834,167.813 43.7761,167.62 C43.9688,167.427 44.2084,167.331 44.4949,167.331 C44.7813,167.331 45.0235,167.427 45.2215,167.62 C45.4194,167.813 45.5183,168.052 45.5183,168.339 C45.5183,168.625 45.4194,168.867 45.2215,169.065 C45.0235,169.263 44.7813,169.362 44.4949,169.362 C44.2084,169.362 43.9688,169.263 43.7761,169.065 M43.7761,174.073 C43.5834,173.88 43.4871,173.641 43.4871,173.354 C43.4871,173.068 43.5834,172.826 43.7761,172.628 C43.9688,172.43 44.2084,172.331 44.4949,172.331 C44.7813,172.331 45.0235,172.43 45.2215,172.628 C45.4194,172.826 45.5183,173.068 45.5183,173.354 C45.5183,173.641 45.4194,173.88 45.2215,174.073 C45.0235,174.266 44.7813,174.362 44.4949,174.362 C44.2084,174.362 43.9688,174.266 43.7761,174.073 M37.0027,165.597 C38.7319,165.597 40.1485,166.029 41.2527,166.893 C42.3256,167.81 42.8621,169.05 42.8621,170.612 C42.8621,171.664 42.6537,172.628 42.2371,173.503 C41.8412,174.419 41.3256,175.227 40.6902,175.925 C40.034,176.643 39.2475,177.32 38.3308,177.956 C37.4246,178.581 36.4975,179.143 35.5496,179.643 C33.6225,180.612 32.5548,181.097 32.3465,181.097 C32.1798,181.097 32.0965,181.013 32.0965,180.847 C32.0965,180.784 32.1225,180.727 32.1746,180.675 C32.8412,180.279 33.6537,179.779 34.6121,179.175 C35.2371,178.768 35.9662,178.206 36.7996,177.487 C37.6121,176.81 38.2371,176.175 38.6746,175.581 C39.1329,174.987 39.5496,174.258 39.9246,173.393 C40.2475,172.518 40.409,171.654 40.409,170.8 C40.409,169.539 40.0965,168.44 39.4715,167.503 C38.8465,166.565 38.0235,166.097 37.0027,166.097 C36.2735,166.097 35.6485,166.331 35.1277,166.8 C34.5652,167.279 34.159,167.883 33.909,168.612 C34.159,168.508 34.3881,168.456 34.5965,168.456 C35.1381,168.456 35.6069,168.654 36.0027,169.05 C36.3881,169.466 36.5808,169.94 36.5808,170.472 C36.5808,171.034 36.3933,171.539 36.0183,171.987 C35.6121,172.383 35.1381,172.581 34.5965,172.581 C34.0131,172.581 33.4871,172.383 33.0183,171.987 C32.5704,171.539 32.3465,171.034 32.3465,170.472 C32.3465,169.128 32.8048,167.982 33.7215,167.034 C34.6173,166.076 35.711,165.597 37.0027,165.597"/>
<path class="Clef" d="M39.6902,123.222 C39.6902,123.222 39.7319,123.222 39.8152,123.222 C39.8673,123.211 39.909,123.206 39.9402,123.206 C41.3985,123.206 42.5965,123.722 43.534,124.753 C44.4715,125.763 44.9402,126.945 44.9402,128.3 C44.9402,129.987 44.2475,131.357 42.8621,132.409 C42.4975,132.701 42.0183,132.935 41.4246,133.112 C41.4975,133.956 41.534,134.638 41.534,135.159 C41.534,135.263 41.5183,135.643 41.4871,136.3 C41.435,137.508 41.0183,138.555 40.2371,139.44 C39.4871,140.315 38.5496,140.753 37.4246,140.753 C36.3725,140.753 35.4767,140.383 34.7371,139.643 C33.9871,138.883 33.6121,137.972 33.6121,136.909 C33.6121,136.347 33.8308,135.867 34.2683,135.472 C34.7058,135.086 35.2162,134.893 35.7996,134.893 C36.3204,134.893 36.7579,135.097 37.1121,135.503 C37.4767,135.878 37.659,136.347 37.659,136.909 C37.659,137.409 37.4767,137.841 37.1121,138.206 C36.7475,138.57 36.31,138.753 35.7996,138.753 C35.5912,138.753 35.3933,138.716 35.2058,138.643 C35.7787,139.487 36.5392,139.909 37.4871,139.909 C38.3829,139.909 39.1173,139.544 39.6902,138.815 C40.2944,138.065 40.6225,137.185 40.6746,136.175 C40.6954,135.55 40.7058,135.195 40.7058,135.112 C40.7058,134.383 40.6798,133.784 40.6277,133.315 C39.9819,133.419 39.4037,133.472 38.8933,133.472 C37.0808,133.472 35.5392,132.753 34.2683,131.315 C33.0183,129.867 32.3933,128.149 32.3933,126.159 C32.3933,125.742 32.4298,125.32 32.5027,124.893 C32.586,124.539 32.685,124.154 32.7996,123.737 C32.8621,123.498 33.0392,123.117 33.3308,122.597 C33.435,122.44 33.5522,122.245 33.6824,122.011 C33.8126,121.776 33.9037,121.623 33.9558,121.55 C34.0808,121.289 34.3308,120.935 34.7058,120.487 C34.81,120.373 34.9194,120.245 35.034,120.104 C35.1485,119.964 35.2449,119.847 35.323,119.753 C35.4011,119.659 35.4584,119.586 35.4949,119.534 C35.5313,119.482 35.8256,119.138 36.3777,118.503 C36.5027,118.367 36.6277,118.227 36.7527,118.081 C36.8777,117.935 36.9793,117.818 37.0574,117.729 C37.1355,117.641 37.1954,117.581 37.2371,117.55 C36.7683,115.998 36.4715,114.758 36.3465,113.831 C36.2631,113.091 36.2215,112.076 36.2215,110.784 C36.2215,109.649 36.4819,108.586 37.0027,107.597 C37.5027,106.576 38.211,105.737 39.1277,105.081 C39.1902,105.039 39.2527,105.018 39.3152,105.018 C39.409,105.018 39.4767,105.039 39.5183,105.081 C40.2162,105.925 40.8204,107.024 41.3308,108.378 C41.8517,109.732 42.1121,110.966 42.1121,112.081 C42.1121,113.331 41.8152,114.503 41.2215,115.597 C40.5444,116.753 39.6694,117.951 38.5965,119.19 C38.8673,120.044 39.2319,121.388 39.6902,123.222 M41.3465,132.315 C42.0235,132.065 42.5548,131.643 42.9402,131.05 C43.3569,130.477 43.5652,129.831 43.5652,129.112 C43.5652,128.185 43.2527,127.362 42.6277,126.643 C41.9819,125.904 41.1642,125.487 40.1746,125.393 C40.7371,128.143 41.1277,130.451 41.3465,132.315 M33.7996,127.8 C33.7996,129.091 34.3204,130.227 35.3621,131.206 C36.4246,132.154 37.6225,132.628 38.9558,132.628 C39.4975,132.628 40.0287,132.586 40.5496,132.503 C40.3412,130.524 39.9298,128.154 39.3152,125.393 C38.5756,125.477 37.9871,125.737 37.5496,126.175 C37.1121,126.633 36.8933,127.149 36.8933,127.722 C36.8933,128.711 37.4246,129.513 38.4871,130.128 C38.5704,130.222 38.6121,130.32 38.6121,130.425 C38.6121,130.529 38.5704,130.623 38.4871,130.706 C38.4037,130.8 38.3048,130.847 38.1902,130.847 C38.1798,130.847 38.1225,130.836 38.0183,130.815 C37.2683,130.409 36.6954,129.888 36.2996,129.253 C35.9142,128.565 35.7215,127.878 35.7215,127.19 C35.7215,126.294 36.0027,125.482 36.5652,124.753 C37.1485,124.024 37.909,123.555 38.8465,123.347 C38.4819,121.888 38.185,120.748 37.9558,119.925 C37.7475,120.164 37.4975,120.448 37.2058,120.776 C36.9142,121.104 36.7423,121.305 36.6902,121.378 C36.2215,121.982 35.8621,122.456 35.6121,122.8 C35.1642,123.414 34.836,123.94 34.6277,124.378 C34.409,124.878 34.2162,125.419 34.0496,126.003 C33.8829,126.565 33.7996,127.164 33.7996,127.8 M40.3152,107.94 C39.336,108.419 38.5704,109.107 38.0183,110.003 C37.4454,110.93 37.159,111.925 37.159,112.987 C37.159,113.925 37.3933,115.19 37.8621,116.784 C38.7996,115.649 39.5027,114.602 39.9715,113.643 C40.461,112.623 40.7058,111.56 40.7058,110.456 C40.7058,109.623 40.5756,108.784 40.3152,107.94"/>
<path class="KeySig" d="M58.7621,182.518 L58.7621,184.065 C58.7621,184.617 58.7881,185.055 58.8402,185.378 C59.2673,185.013 59.5746,184.742 59.7621,184.565 C59.9704,184.357 60.1788,184.068 60.3871,183.698 C60.5954,183.328 60.6996,182.961 60.6996,182.597 C60.6996,182.232 60.6215,181.919 60.4652,181.659 C60.309,181.399 60.1006,181.268 59.8402,181.268 C59.5277,181.268 59.2673,181.388 59.059,181.628 C58.8611,181.888 58.7621,182.185 58.7621,182.518 M57.934,186.097 L57.684,174.206 C57.8715,174.102 58.0564,174.05 58.2387,174.05 C58.4209,174.05 58.6006,174.102 58.7777,174.206 L58.6215,181.097 C59.1527,180.638 59.7673,180.409 60.4652,180.409 C60.9652,180.409 61.3845,180.617 61.723,181.034 C62.0616,181.451 62.2308,181.93 62.2308,182.472 C62.2308,182.805 62.1215,183.164 61.9027,183.55 C61.6944,183.893 61.4756,184.164 61.2465,184.362 C61.1111,184.466 60.7777,184.727 60.2465,185.143 C60.0902,185.258 59.9053,185.393 59.6918,185.55 C59.4782,185.706 59.3454,185.805 59.2933,185.847 C59.1996,185.899 59.1111,186.003 59.0277,186.159 C58.9444,186.294 58.8402,186.404 58.7152,186.487 C58.6319,186.571 58.5251,186.612 58.3949,186.612 C58.2647,186.612 58.1579,186.565 58.0746,186.472 C57.9808,186.378 57.934,186.253 57.934,186.097"/>
<path class="KeySig" d="M53.7621,172.518 L53.7621,174.065 C53.7621,174.617 53.7881,175.055 53.8402,175.378 C54.2673,175.013 54.5746,174.742 54.7621,174.565 C54.9704,174.357 55.1788,174.068 55.3871,173.698 C55.5954,173.328 55.6996,172.961 55.6996,172.597 C55.6996,172.232 55.6215,171.919 55.4652,171.659 C55.309,171.399 55.1006,171.268 54.8402,171.268 C54.5277,171.268 54.2673,171.388 54.059,171.628 C53.861,171.888 53.7621,172.185 53.7621,172.518 M52.934,176.097 L52.684,164.206 C52.8715,164.102 53.0564,164.05 53.2387,164.05 C53.4209,164.05 53.6006,164.102 53.7777,164.206 L53.6215,171.097 C54.1527,170.638 54.7673,170.409 55.4652,170.409 C55.9652,170.409 56.3845,170.617 56.723,171.034 C57.0616,171.451 57.2308,171.93 57.2308,172.472 C57.2308,172.805 57.1215,173.164 56.9027,173.55 C56.6944,173.893 56.4756,174.164 56.2465,174.362 C56.111,174.466 55.7777,174.727 55.2465,175.143 C55.0902,175.258 54.9053,175.393 54.6918,175.55 C54.4782,175.706 54.3454,175.805 54.2933,175.847 C54.1996,175.899 54.111,176.003 54.0277,176.159 C53.9444,176.294 53.8402,176.404 53.7152,176.487 C53.6319,176.57 53.5251,176.612 53.3949,176.612 C53.2647,176.612 53.1579,176.565 53.0746,176.472 C52.9808,176.378 52.934,176.253 52.934,176.097"/>
<path class="KeySig" d="M48.7621,180.018 L48.7621,181.565 C48.7621,182.117 48.7881,182.555 48.8402,182.878 C49.2673,182.513 49.5746,182.242 49.7621,182.065 C49.9704,181.857 50.1788,181.568 50.3871,181.198 C50.5954,180.828 50.6996,180.461 50.6996,180.097 C50.6996,179.732 50.6215,179.419 50.4652,179.159 C50.309,178.899 50.1006,178.768 49.8402,178.768 C49.5277,178.768 49.2673,178.888 49.059,179.128 C48.861,179.388 48.7621,179.685 48.7621,180.018 M47.934,183.597 L47.684,171.706 C47.8715,171.602 48.0564,171.55 48.2386,171.55 C48.4209,171.55 48.6006,171.602 48.7777,171.706 L48.6215,178.597 C49.1527,178.138 49.7673,177.909 50.4652,177.909 C50.9652,177.909 51.3845,178.117 51.723,178.534 C52.0616,178.951 52.2308,179.43 52.2308,179.972 C52.2308,180.305 52.1215,180.664 51.9027,181.05 C51.6944,181.393 51.4756,181.664 51.2465,181.862 C51.111,181.966 50.7777,182.227 50.2465,182.643 C50.0902,182.758 49.9053,182.893 49.6918,183.05 C49.4782,183.206 49.3454,183.305 49.2933,183.347 C49.1996,183.399 49.111,183.503 49.0277,183.659 C48.9444,183.794 48.8402,183.904 48.7152,183.987 C48.6319,184.071 48.5251,184.112 48.3949,184.112 C48.2647,184.112 48.1579,184.065 48.0746,183.972 C47.9808,183.878 47.934,183.753 47.934,183.597"/>
<path class="KeySig" d="M58.7621,125.018 L58.7621,126.565 C58.7621,127.117 58.7881,127.555 58.8402,127.878 C59.2673,127.513 59.5746,127.242 59.7621,127.065 C59.9704,126.857 60.1788,126.568 60.3871,126.198 C60.5954,125.828 60.6996,125.461 60.6996,125.097 C60.6996,124.732 60.6215,124.419 60.4652,124.159 C60.309,123.899 60.1006,123.768 59.8402,123.768 C59.5277,123.768 59.2673,123.888 59.059,124.128 C58.8611,124.388 58.7621,124.685 58.7621,125.018 M57.934,128.597 L57.684,116.706 C57.8715,116.602 58.0564,116.55 58.2387,116.55 C58.4209,116.55 58.6006,116.602 58.7777,116.706 L58.6215,123.597 C59.1527,123.138 59.7673,122.909 60.4652,122.909 C60.9652,122.909 61.3845,123.117 61.723,123.534 C62.0616,123.951 62.2308,124.43 62.2308,124.972 C62.2308,125.305 62.1215,125.664 61.9027,126.05 C61.6944,126.393 61.4756,126.664 61.2465,126.862 C61.1111,126.966 60.7777,127.227 60.2465,127.643 C60.0902,127.758 59.9053,127.893 59.6918,128.05 C59.4782,128.206 59.3454,128.305 59.2933,128.347 C59.1996,128.399 59.1111,128.503 59.0277,128.659 C58.9444,128.794 58.8402,128.904 58.7152,128.987 C58.6319,129.07 58.5251,129.112 58.3949,129.112 C58.2647,129.112 58.1579,129.065 58.0746,128.972 C57.9808,128.878 57.934,128.753 57.934,128.597"/>
<path class="KeySig" d="M53.7621,115.018 L53.7621,116.565 C53.7621,117.117 53.7881,117.555 53.8402,117.878 C54.2673,117.513 54.5746,117.242 54.7621,117.065 C54.9704,116.857 55.1788,116.568 55.3871,116.198 C55.5954,115.828 55.6996,115.461 55.6996,115.097 C55.6996,114.732 55.6215,114.419 55.4652,114.159 C55.309,113.899 55.1006,113.768 54.8402,113.768 C54.5277,113.768 54.2673,113.888 54.059,114.128 C53.861,114.388 53.7621,114.685 53.7621,115.018 M52.934,118.597 L52.684,106.706 C52.8715,106.602 53.0564,106.55 53.2387,106.55 C53.4209,106.55 53.6006,106.602 53.7777,106.706 L53.6215,113.597 C54.1527,113.138 54.7673,112.909 55.4652,112.909 C55.9652,112.909 56.3845,113.117 56.723,113.534 C57.0616,113.951 57.2308,114.43 57.2308,114.972 C57.2308,115.305 57.1215,115.664 56.9027,116.05 C56.6944,116.393 56.4756,116.664 56.2465,116.862 C56.111,116.966 55.7777,117.227 55.2465,117.643 C55.0902,117.758 54.9053,117.893 54.6918,118.05 C54.4782,118.206 54.3454,118.305 54.2933,118.347 C54.1996,118.399 54.111,118.503 54.0277,118.659 C53.9444,118.794 53.8402,118.904 53.7152,118.987 C53.6319,119.07 53.5251,119.112 53.3949,119.112 C53.2647,119.112 53.1579,119.065 53.0746,118.972 C52.9808,118.878 52.934,118.753 52.934,118.597"/>
<path class="KeySig" d="M48.7621,122.518 L48.7621,124.065 C48.7621,124.617 48.7881,125.055 48.8402,125.378 C49.2673,125.013 49.5746,124.742 49.7621,124.565 C49.9704,124.357 50.1788,124.068 50.3871,123.698 C50.5954,123.328 50.6996,122.961 50.6996,122.597 C50.6996,122.232 50.6215,121.919 50.4652,121.659 C50.309,121.399 50.1006,121.268 49.8402,121.268 C49.5277,121.268 49.2673,121.388 49.059,121.628 C48.861,121.888 48.7621,122.185 48.7621,122.518 M47.934,126.097 L47.684,114.206 C47.8715,114.102 48.0564,114.05 48.2386,114.05 C48.4209,114.05 48.6006,114.102 48.7777,114.206 L48.6215,121.097 C49.1527,120.638 49.7673,120.409 50.4652,120.409 C50.9652,120.409 51.3845,120.617 51.723,121.034 C52.0616,121.451 52.2308,121.93 52.2308,122.472 C52.2308,122.805 52.1215,123.164 51.9027,123.55 C51.6944,123.893 51.4756,124.164 51.2465,124.362 C51.111,124.466 50.7777,124.727 50.2465,125.143 C50.0902,125.258 49.9053,125.393 49.6918,125.55 C49.4782,125.706 49.3454,125.805 49.2933,125.847 C49.1996,125.899 49.111,126.003 49.0277,126.159 C48.9444,126.294 48.8402,126.404 48.7152,126.487 C48.6319,126.57 48.5251,126.612 48.3949,126.612 C48.2647,126.612 48.1579,126.565 48.0746,126.472 C47.9808,126.378 47.934,126.253 47.934,126.097"/>
<path class="TimeSig" d="M69.7465,175.847 C69.3506,175.847 68.9965,175.776 68.684,175.636 C68.3715,175.495 68.1527,175.347 68.0277,175.19 C67.8506,174.992 67.6788,174.841 67.5121,174.737 C67.3038,174.591 67.0902,174.518 66.8715,174.518 C66.5277,174.518 66.2465,174.623 66.0277,174.831 C65.7986,175.029 65.6683,175.294 65.6371,175.628 C65.6163,175.774 65.5381,175.847 65.4027,175.847 C65.2465,175.847 65.1683,175.774 65.1683,175.628 C65.1683,175.128 65.2881,174.675 65.5277,174.268 C65.7569,173.852 66.0433,173.508 66.3871,173.237 C66.6683,172.987 67.0433,172.685 67.5121,172.331 C67.5954,172.268 67.7621,172.133 68.0121,171.925 C68.2621,171.716 68.4756,171.539 68.6527,171.393 C68.9861,171.112 69.2777,170.732 69.5277,170.253 C69.7569,169.784 69.8715,169.279 69.8715,168.737 C69.8715,168.07 69.7621,167.498 69.5433,167.018 C69.3142,166.55 68.9548,166.315 68.4652,166.315 C68.1736,166.315 67.934,166.378 67.7465,166.503 C67.5486,166.638 67.4496,166.815 67.4496,167.034 C67.4496,167.222 67.5668,167.451 67.8012,167.722 C68.0355,167.992 68.1527,168.222 68.1527,168.409 C68.1527,168.794 68.0173,169.123 67.7465,169.393 C67.4861,169.654 67.1683,169.784 66.7933,169.784 C66.3975,169.784 66.0642,169.649 65.7933,169.378 C65.5329,169.097 65.4027,168.774 65.4027,168.409 C65.4027,167.659 65.7022,167.044 66.3012,166.565 C66.9001,166.086 67.6215,165.847 68.4652,165.847 C69.4756,165.847 70.3506,166.117 71.0902,166.659 C71.8298,167.18 72.1996,167.873 72.1996,168.737 C72.1996,169.32 72.0954,169.82 71.8871,170.237 C71.6892,170.685 71.3975,171.034 71.0121,171.284 C70.5642,171.565 70.1788,171.784 69.8558,171.94 C69.3975,172.149 68.9444,172.347 68.4965,172.534 C67.9444,172.753 67.5173,172.961 67.2152,173.159 C67.3923,173.117 67.5694,173.097 67.7465,173.097 C68.3506,173.097 68.9756,173.289 69.6215,173.675 C70.2881,174.07 70.8038,174.268 71.1683,174.268 C71.3871,174.268 71.5642,174.227 71.6996,174.143 C71.8246,174.07 71.9079,173.987 71.9496,173.893 C72.0017,173.768 72.0486,173.68 72.0902,173.628 C72.1423,173.544 72.2048,173.503 72.2777,173.503 C72.434,173.503 72.5121,173.581 72.5121,173.737 C72.5121,174.102 72.2517,174.544 71.7308,175.065 C71.2204,175.586 70.559,175.847 69.7465,175.847"/>
<path class="TimeSig" d="M69.3246,176.097 C69.71,176.097 70.0407,176.052 70.3168,175.964 C70.5928,175.875 70.7673,175.831 70.8402,175.831 C70.934,175.831 71.0069,175.857 71.059,175.909 C71.1006,175.94 71.1267,175.982 71.1371,176.034 C71.1371,176.065 71.1215,176.107 71.0902,176.159 L65.4183,182.768 L68.7465,182.768 L68.7465,180.143 C68.7465,179.977 68.7933,179.831 68.8871,179.706 C69.0433,179.581 69.1736,179.503 69.2777,179.472 C69.4444,179.399 69.6527,179.216 69.9027,178.925 C70.1111,178.696 70.3611,178.289 70.6527,177.706 C70.684,177.623 70.7413,177.581 70.8246,177.581 C70.9808,177.581 71.0694,177.675 71.0902,177.862 L71.0902,182.768 L72.5277,182.768 C72.7048,182.768 72.809,182.862 72.8402,183.05 C72.8402,183.248 72.7361,183.347 72.5277,183.347 L71.0902,183.347 L71.0902,183.503 C71.0902,184.024 71.2204,184.466 71.4808,184.831 C71.7829,185.196 72.1371,185.378 72.5433,185.378 C72.6996,185.378 72.7777,185.456 72.7777,185.612 C72.7777,185.768 72.6996,185.847 72.5433,185.847 C72.2725,185.847 71.8298,185.81 71.2152,185.737 C70.6527,185.643 70.2152,185.597 69.9027,185.597 C69.5798,185.597 69.1423,185.643 68.5902,185.737 C68.0069,185.81 67.5746,185.847 67.2933,185.847 C67.1371,185.847 67.059,185.768 67.059,185.612 C67.059,185.456 67.1371,185.378 67.2933,185.378 C67.6892,185.378 68.0381,185.196 68.3402,184.831 C68.6111,184.466 68.7465,184.024 68.7465,183.503 L68.7465,183.347 L65.4183,183.347 C65.1892,183.347 65.0329,183.294 64.9496,183.19 C64.835,183.117 64.7777,183.013 64.7777,182.878 C64.7777,182.836 64.8767,182.701 65.0746,182.472 C65.3038,182.211 65.5381,181.893 65.7777,181.518 C66.0694,181.071 66.3454,180.612 66.6058,180.143 C66.8871,179.612 67.1163,178.998 67.2933,178.3 C67.4808,177.602 67.5746,176.888 67.5746,176.159 C67.5746,175.951 67.6683,175.847 67.8558,175.847 C67.8975,175.847 67.9808,175.867 68.1058,175.909 C68.1475,175.919 68.2308,175.938 68.3558,175.964 C68.4808,175.99 68.5798,176.013 68.6527,176.034 C68.8923,176.076 69.1163,176.097 69.3246,176.097"/>
<path class="TimeSig" d="M69.7465,123.347 C69.3506,123.347 68.9965,123.276 68.684,123.136 C68.3715,122.995 68.1527,122.847 68.0277,122.69 C67.8506,122.492 67.6788,122.341 67.5121,122.237 C67.3038,122.091 67.0902,122.018 66.8715,122.018 C66.5277,122.018 66.2465,122.123 66.0277,122.331 C65.7986,122.529 65.6683,122.794 65.6371,123.128 C65.6163,123.274 65.5381,123.347 65.4027,123.347 C65.2465,123.347 65.1683,123.274 65.1683,123.128 C65.1683,122.628 65.2881,122.175 65.5277,121.768 C65.7569,121.352 66.0433,121.008 66.3871,120.737 C66.6683,120.487 67.0433,120.185 67.5121,119.831 C67.5954,119.768 67.7621,119.633 68.0121,119.425 C68.2621,119.216 68.4756,119.039 68.6527,118.893 C68.9861,118.612 69.2777,118.232 69.5277,117.753 C69.7569,117.284 69.8715,116.779 69.8715,116.237 C69.8715,115.57 69.7621,114.998 69.5433,114.518 C69.3142,114.05 68.9548,113.815 68.4652,113.815 C68.1736,113.815 67.934,113.878 67.7465,114.003 C67.5486,114.138 67.4496,114.315 67.4496,114.534 C67.4496,114.722 67.5668,114.951 67.8012,115.222 C68.0355,115.492 68.1527,115.722 68.1527,115.909 C68.1527,116.294 68.0173,116.623 67.7465,116.893 C67.4861,117.154 67.1683,117.284 66.7933,117.284 C66.3975,117.284 66.0642,117.149 65.7933,116.878 C65.5329,116.597 65.4027,116.274 65.4027,115.909 C65.4027,115.159 65.7022,114.544 66.3012,114.065 C66.9001,113.586 67.6215,113.347 68.4652,113.347 C69.4756,113.347 70.3506,113.617 71.0902,114.159 C71.8298,114.68 72.1996,115.373 72.1996,116.237 C72.1996,116.82 72.0954,117.32 71.8871,117.737 C71.6892,118.185 71.3975,118.534 71.0121,118.784 C70.5642,119.065 70.1788,119.284 69.8558,119.44 C69.3975,119.649 68.9444,119.847 68.4965,120.034 C67.9444,120.253 67.5173,120.461 67.2152,120.659 C67.3923,120.617 67.5694,120.597 67.7465,120.597 C68.3506,120.597 68.9756,120.789 69.6215,121.175 C70.2881,121.57 70.8038,121.768 71.1683,121.768 C71.3871,121.768 71.5642,121.727 71.6996,121.643 C71.8246,121.57 71.9079,121.487 71.9496,121.393 C72.0017,121.268 72.0486,121.18 72.0902,121.128 C72.1423,121.044 72.2048,121.003 72.2777,121.003 C72.434,121.003 72.5121,121.081 72.5121,121.237 C72.5121,121.602 72.2517,122.044 71.7308,122.565 C71.2204,123.086 70.559,123.347 69.7465,123.347"/>
<path class="TimeSig" d="M69.3246,123.597 C69.71,123.597 70.0407,123.552 70.3168,123.464 C70.5928,123.375 70.7673,123.331 70.8402,123.331 C70.934,123.331 71.0069,123.357 71.059,123.409 C71.1006,123.44 71.1267,123.482 71.1371,123.534 C71.1371,123.565 71.1215,123.607 71.0902,123.659 L65.4183,130.268 L68.7465,130.268 L68.7465,127.643 C68.7465,127.477 68.7933,127.331 68.8871,127.206 C69.0433,127.081 69.1736,127.003 69.2777,126.972 C69.4444,126.899 69.6527,126.716 69.9027,126.425 C70.1111,126.195 70.3611,125.789 70.6527,125.206 C70.684,125.123 70.7413,125.081 70.8246,125.081 C70.9808,125.081 71.0694,125.175 71.0902,125.362 L71.0902,130.268 L72.5277,130.268 C72.7048,130.268 72.809,130.362 72.8402,130.55 C72.8402,130.748 72.7361,130.847 72.5277,130.847 L71.0902,130.847 L71.0902,131.003 C71.0902,131.524 71.2204,131.966 71.4808,132.331 C71.7829,132.695 72.1371,132.878 72.5433,132.878 C72.6996,132.878 72.7777,132.956 72.7777,133.112 C72.7777,133.268 72.6996,133.347 72.5433,133.347 C72.2725,133.347 71.8298,133.31 71.2152,133.237 C70.6527,133.143 70.2152,133.097 69.9027,133.097 C69.5798,133.097 69.1423,133.143 68.5902,133.237 C68.0069,133.31 67.5746,133.347 67.2933,133.347 C67.1371,133.347 67.059,133.268 67.059,133.112 C67.059,132.956 67.1371,132.878 67.2933,132.878 C67.6892,132.878 68.0381,132.695 68.3402,132.331 C68.6111,131.966 68.7465,131.524 68.7465,131.003 L68.7465,130.847 L65.4183,130.847 C65.1892,130.847 65.0329,130.794 64.9496,130.69 C64.835,130.617 64.7777,130.513 64.7777,130.378 C64.7777,130.336 64.8767,130.201 65.0746,129.972 C65.3038,129.711 65.5381,129.393 65.7777,129.018 C66.0694,128.57 66.3454,128.112 66.6058,127.643 C66.8871,127.112 67.1163,126.498 67.2933,125.8 C67.4808,125.102 67.5746,124.388 67.5746,123.659 C67.5746,123.451 67.6683,123.347 67.8558,123.347 C67.8975,123.347 67.9808,123.367 68.1058,123.409 C68.1475,123.419 68.2308,123.438 68.3558,123.464 C68.4808,123.49 68.5798,123.513 68.6527,123.534 C68.8923,123.576 69.1163,123.597 69.3246,123.597"/>
<path class="Rest" d="M538.485,173.972 L531.376,173.972 C531.241,173.972 531.173,173.909 531.173,173.784 L531.173,171.05 C531.173,170.914 531.241,170.847 531.376,170.847 L538.485,170.847 C538.61,170.847 538.673,170.914 538.673,171.05 L538.673,173.784 C538.673,173.909 538.61,173.972 538.485,173.972"/>
<path class="Rest" d="M538.485,121.472 L531.376,121.472 C531.241,121.472 531.173,121.409 531.173,121.284 L531.173,118.55 C531.173,118.414 531.241,118.347 531.376,118.347 L538.485,118.347 C538.61,118.347 538.673,118.414 538.673,118.55 L538.673,121.284 C538.673,121.409 538.61,121.472 538.485,121.472"/>
<path class="Rest" d="M483.944,173.972 L476.835,173.972 C476.699,173.972 476.632,173.909 476.632,173.784 L476.632,171.05 C476.632,170.914 476.699,170.847 476.835,170.847 L483.944,170.847 C484.069,170.847 484.132,170.914 484.132,171.05 L484.132,173.784 C484.132,173.909 484.069,173.972 483.944,173.972"/>
<path class="Rest" d="M483.944,121.472 L476.835,121.472 C476.699,121.472 476.632,121.409 476.632,121.284 L476.632,118.55 C476.632,118.414 476.699,118.347 476.835,118.347 L483.944,118.347 C484.069,118.347 484.132,118.414 484.132,118.55 L484.132,121.284 C484.132,121.409 484.069,121.472 483.944,121.472"/>
<path class="Rest" d="M429.403,173.972 L422.294,173.972 C422.158,173.972 422.09,173.909 422.09,173.784 L422.09,171.05 C422.09,170.914 422.158,170.847 422.294,170.847 L429.403,170.847 C429.528,170.847 429.59,170.914 429.59,171.05 L429.59,173.784 C429.59,173.909 429.528,173.972 429.403,173.972"/>
<path class="Rest" d="M429.403,121.472 L422.294,121.472 C422.158,121.472 422.09,121.409 422.09,121.284 L422.09,118.55 C422.09,118.414 422.158,118.347 422.294,118.347 L429.403,118.347 C429.528,118.347 429.59,118.414 429.59,118.55 L429.59,121.284 C429.59,121.409 429.528,121.472 429.403,121.472"/>
<path class="Rest" d="M374.862,173.972 L367.752,173.972 C367.617,173.972 367.549,173.909 367.549,173.784 L367.549,171.05 C367.549,170.914 367.617,170.847 367.752,170.847 L374.862,170.847 C374.987,170.847 375.049,170.914 375.049,171.05 L375.049,173.784 C375.049,173.909 374.987,173.972 374.862,173.972"/>
<path class="Rest" d="M374.862,121.472 L367.752,121.472 C367.617,121.472 367.549,121.409 367.549,121.284 L367.549,118.55 C367.549,118.414 367.617,118.347 367.752,118.347 L374.862,118.347 C374.987,118.347 375.049,118.414 375.049,118.55 L375.049,121.284 C375.049,121.409 374.987,121.472 374.862,121.472"/>
<path class="Beam" fill-rule="evenodd" d="M243.011,193.347 L261.241,193.347 L261.241,195.847 L243.011,195.847 L243.011,193.347 "/>
<path class="Beam" fill-rule="evenodd" d="M207.849,193.347 L226.08,193.347 L226.08,195.847 L207.849,195.847 L207.849,193.347 "/>
</svg>
