<?xml version="1.0" encoding="UTF-8" standalone="no"?>
<svg width="595.44px" height="841.68px" viewBox="0 0 595.44 841.68"
 xmlns="http://www.w3.org/2000/svg" xmlns:xlink="http://www.w3.org/1999/xlink" version="1.2" baseProfile="tiny">
<title>Title</title>
<desc>Generated by MuseScore 2.3.2</desc>
<polyline class="StaffLines" fill="none" stroke="#000000" stroke-width="0.40" stroke-linejoin="bevel" points="28.3465,113.347 567.094,113.347"/>
<polyline class="StaffLines" fill="none" stroke="#000000" stroke-width="0.40" stroke-linejoin="bevel" points="28.3465,118.347 567.094,118.347"/>
<polyline class="StaffLines" fill="none" stroke="#000000" stroke-width="0.40" stroke-linejoin="bevel" points="28.3465,123.347 567.094,123.347"/>
<polyline class="StaffLines" fill="none" stroke="#000000" stroke-width="0.40" stroke-linejoin="bevel" points="28.3465,128.347 567.094,128.347"/>
<polyline class="StaffLines" fill="none" stroke="#000000" stroke-width="0.40" stroke-linejoin="bevel" points="28.3465,133.347 567.094,133.347"/>
<polyline class="BarLine" fill="none" stroke="#000000" stroke-width="0.80" stroke-linejoin="bevel" points="562.194,113.347 562.194,133.347"/>
<polyline class="BarLine" fill="none" stroke="#000000" stroke-width="2.50" stroke-linejoin="bevel" points="565.844,113.347 565.844,133.347"/>
<polyline class="BarLine" fill="none" stroke="#000000" stroke-width="0.80" stroke-linejoin="bevel" points="484.682,113.347 484.682,133.347"/>
<polyline class="BarLine" fill="none" stroke="#000000" stroke-width="0.80" stroke-linejoin="bevel" points="407.17,113.347 407.17,133.347"/>
<polyline class="BarLine" fill="none" stroke="#000000" stroke-width="0.80" stroke-linejoin="bevel" points="329.658,113.347 329.658,133.347"/>
<polyline class="BarLine" fill="none" stroke="#000000" stroke-width="0.80" stroke-linejoin="bevel" points="252.883,113.347 252.883,133.347"/>
<polyline class="BarLine" fill="none" stroke="#000000" stroke-width="0.80" stroke-linejoin="bevel" points="168.455,113.347 168.455,133.347"/>
<polyline class="LedgerLine" fill="none" stroke="#000000" stroke-width="0.80" stroke-linecap="square" stroke-linejoin="bevel" points="257.783,138.347 267.727,138.347"/>
<polyline class="Stem" fill="none" stroke="#000000" stroke-width="0.65" stroke-linecap="round" stroke-linejoin="bevel" points="265.902,140.079 265.902,123.347"/>
<polyline class="Stem" fill="none" stroke="#000000" stroke-width="0.65" stroke-linecap="round" stroke-linejoin="bevel" points="219.927,129.907 219.927,113.347"/>
<polyline class="Stem" fill="none" stroke="#000000" stroke-width="0.65" stroke-linecap="round" stroke-linejoin="bevel" points="181.113,132.407 181.113,115.847"/>
<polyline class="Stem" fill="none" stroke="#000000" stroke-width="0.65" stroke-linecap="round" stroke-linejoin="bevel" points="146.513,124.286 146.513,138.347"/>
<polyline class="Stem" fill="none" stroke="#000000" stroke-width="0.65" stroke-linecap="round" stroke-linejoin="bevel" points="124.645,124.286 124.645,138.347"/>
<polyline class="Stem" fill="none" stroke="#000000" stroke-width="0.65" stroke-linecap="round" stroke-linejoin="bevel" points="102.778,124.286 102.778,140.847"/>
<path class="Note" d="M265.595,139.534 C265.595,139.315 265.512,139.128 265.345,138.972 C265.168,138.805 264.97,138.722 264.752,138.722 C264.366,138.722 263.58,139.112 262.392,139.893 C261.163,140.685 260.413,141.253 260.142,141.597 C259.996,141.774 259.923,141.961 259.923,142.159 C259.923,142.378 260.012,142.565 260.189,142.722 C260.345,142.888 260.538,142.972 260.767,142.972 C261.142,142.972 261.939,142.581 263.158,141.8 C264.356,141.018 265.095,140.451 265.377,140.097 C265.522,139.93 265.595,139.742 265.595,139.534 M264.564,138.097 C265.679,138.097 266.236,138.576 266.236,139.534 C266.236,140.003 266.1,140.55 265.83,141.175 C265.559,141.789 265.194,142.258 264.736,142.581 C263.736,143.258 262.481,143.597 260.97,143.597 C259.845,143.597 259.283,143.117 259.283,142.159 C259.283,141.732 259.418,141.19 259.689,140.534 C259.949,139.909 260.314,139.435 260.783,139.112 C261.793,138.435 263.054,138.097 264.564,138.097"/>
<path class="Note" d="M218.06,128.097 C218.685,128.097 219.216,128.258 219.653,128.581 C220.049,128.935 220.247,129.378 220.247,129.909 C220.247,130.805 219.789,131.643 218.872,132.425 C217.935,133.206 216.929,133.597 215.856,133.597 C215.231,133.597 214.705,133.435 214.278,133.112 C213.872,132.758 213.669,132.315 213.669,131.784 C213.669,130.888 214.138,130.05 215.075,129.268 C215.992,128.487 216.987,128.097 218.06,128.097"/>
<path class="Note" d="M179.246,130.597 C179.871,130.597 180.402,130.758 180.84,131.081 C181.235,131.435 181.433,131.878 181.433,132.409 C181.433,133.305 180.975,134.143 180.058,134.925 C179.121,135.706 178.116,136.097 177.043,136.097 C176.418,136.097 175.892,135.935 175.465,135.612 C175.058,135.258 174.855,134.815 174.855,134.284 C174.855,133.388 175.324,132.55 176.261,131.768 C177.178,130.987 178.173,130.597 179.246,130.597"/>
<path class="Note" d="M150.578,120.597 C151.203,120.597 151.735,120.758 152.172,121.081 C152.568,121.435 152.766,121.878 152.766,122.409 C152.766,123.305 152.308,124.143 151.391,124.925 C150.453,125.706 149.448,126.097 148.375,126.097 C147.75,126.097 147.224,125.935 146.797,125.612 C146.391,125.258 146.188,124.815 146.188,124.284 C146.188,123.388 146.657,122.55 147.594,121.768 C148.511,120.987 149.506,120.597 150.578,120.597"/>
<path class="Note" d="M128.711,120.597 C129.336,120.597 129.867,120.758 130.305,121.081 C130.701,121.435 130.899,121.878 130.899,122.409 C130.899,123.305 130.44,124.143 129.524,124.925 C128.586,125.706 127.581,126.097 126.508,126.097 C125.883,126.097 125.357,125.935 124.93,125.612 C124.524,125.258 124.32,124.815 124.32,124.284 C124.32,123.388 124.789,122.55 125.727,121.768 C126.643,120.987 127.638,120.597 128.711,120.597"/>
<path class="Note" d="M106.844,120.597 C107.469,120.597 108,120.758 108.437,121.081 C108.833,121.435 109.031,121.878 109.031,122.409 C109.031,123.305 108.573,124.143 107.656,124.925 C106.719,125.706 105.713,126.097 104.64,126.097 C104.015,126.097 103.489,125.935 103.062,125.612 C102.656,125.258 102.453,124.815 102.453,124.284 C102.453,123.388 102.922,122.55 103.859,121.768 C104.776,120.987 105.771,120.597 106.844,120.597"/>
<path class="Clef" d="M38.8902,123.222 C38.8902,123.222 38.9319,123.222 39.0152,123.222 C39.0673,123.211 39.109,123.206 39.1402,123.206 C40.5985,123.206 41.7965,123.722 42.734,124.753 C43.6715,125.763 44.1402,126.945 44.1402,128.3 C44.1402,129.987 43.4475,131.357 42.0621,132.409 C41.6975,132.701 41.2183,132.935 40.6246,133.112 C40.6975,133.956 40.734,134.638 40.734,135.159 C40.734,135.263 40.7183,135.643 40.6871,136.3 C40.635,137.508 40.2183,138.555 39.4371,139.44 C38.6871,140.315 37.7496,140.753 36.6246,140.753 C35.5725,140.753 34.6767,140.383 33.9371,139.643 C33.1871,138.883 32.8121,137.972 32.8121,136.909 C32.8121,136.347 33.0308,135.867 33.4683,135.472 C33.9058,135.086 34.4162,134.893 34.9996,134.893 C35.5204,134.893 35.9579,135.097 36.3121,135.503 C36.6767,135.878 36.859,136.347 36.859,136.909 C36.859,137.409 36.6767,137.841 36.3121,138.206 C35.9475,138.57 35.51,138.753 34.9996,138.753 C34.7912,138.753 34.5933,138.716 34.4058,138.643 C34.9787,139.487 35.7392,139.909 36.6871,139.909 C37.5829,139.909 38.3173,139.544 38.8902,138.815 C39.4944,138.065 39.8225,137.185 39.8746,136.175 C39.8954,135.55 39.9058,135.195 39.9058,135.112 C39.9058,134.383 39.8798,133.784 39.8277,133.315 C39.1819,133.419 38.6037,133.472 38.0933,133.472 C36.2808,133.472 34.7392,132.753 33.4683,131.315 C32.2183,129.867 31.5933,128.149 31.5933,126.159 C31.5933,125.742 31.6298,125.32 31.7027,124.893 C31.786,124.539 31.885,124.154 31.9996,123.737 C32.0621,123.498 32.2392,123.117 32.5308,122.597 C32.635,122.44 32.7522,122.245 32.8824,122.011 C33.0126,121.776 33.1037,121.623 33.1558,121.55 C33.2808,121.289 33.5308,120.935 33.9058,120.487 C34.01,120.373 34.1194,120.245 34.234,120.104 C34.3485,119.964 34.4449,119.847 34.523,119.753 C34.6011,119.659 34.6584,119.586 34.6949,119.534 C34.7313,119.482 35.0256,119.138 35.5777,118.503 C35.7027,118.367 35.8277,118.227 35.9527,118.081 C36.0777,117.935 36.1793,117.818 36.2574,117.729 C36.3355,117.641 36.3954,117.581 36.4371,117.55 C35.9683,115.998 35.6715,114.758 35.5465,113.831 C35.4631,113.091 35.4215,112.076 35.4215,110.784 C35.4215,109.649 35.6819,108.586 36.2027,107.597 C36.7027,106.576 37.411,105.737 38.3277,105.081 C38.3902,105.039 38.4527,105.018 38.5152,105.018 C38.609,105.018 38.6767,105.039 38.7183,105.081 C39.4162,105.925 40.0204,107.024 40.5308,108.378 C41.0517,109.732 41.3121,110.966 41.3121,112.081 C41.3121,113.331 41.0152,114.503 40.4215,115.597 C39.7444,116.753 38.8694,117.951 37.7965,119.19 C38.0673,120.044 38.4319,121.388 38.8902,123.222 M40.5465,132.315 C41.2235,132.065 41.7548,131.643 42.1402,131.05 C42.5569,130.477 42.7652,129.831 42.7652,129.112 C42.7652,128.185 42.4527,127.362 41.8277,126.643 C41.1819,125.904 40.3642,125.487 39.3746,125.393 C39.9371,128.143 40.3277,130.451 40.5465,132.315 M32.9996,127.8 C32.9996,129.091 33.5204,130.227 34.5621,131.206 C35.6246,132.154 36.8225,132.628 38.1558,132.628 C38.6975,132.628 39.2287,132.586 39.7496,132.503 C39.5412,130.524 39.1298,128.154 38.5152,125.393 C37.7756,125.477 37.1871,125.737 36.7496,126.175 C36.3121,126.633 36.0933,127.149 36.0933,127.722 C36.0933,128.711 36.6246,129.513 37.6871,130.128 C37.7704,130.222 37.8121,130.32 37.8121,130.425 C37.8121,130.529 37.7704,130.623 37.6871,130.706 C37.6037,130.8 37.5048,130.847 37.3902,130.847 C37.3798,130.847 37.3225,130.836 37.2183,130.815 C36.4683,130.409 35.8954,129.888 35.4996,129.253 C35.1142,128.565 34.9215,127.878 34.9215,127.19 C34.9215,126.294 35.2027,125.482 35.7652,124.753 C36.3485,124.024 37.109,123.555 38.0465,123.347 C37.6819,121.888 37.385,120.748 37.1558,119.925 C36.9475,120.164 36.6975,120.448 36.4058,120.776 C36.1142,121.104 35.9423,121.305 35.8902,121.378 C35.4215,121.982 35.0621,122.456 34.8121,122.8 C34.3642,123.414 34.036,123.94 33.8277,124.378 C33.609,124.878 33.4162,125.419 33.2496,126.003 C33.0829,126.565 32.9996,127.164 32.9996,127.8 M39.5152,107.94 C38.536,108.419 37.7704,109.107 37.2183,110.003 C36.6454,110.93 36.359,111.925 36.359,112.987 C36.359,113.925 36.5933,115.19 37.0621,116.784 C37.9996,115.649 38.7027,114.602 39.1715,113.643 C39.661,112.623 39.9058,111.56 39.9058,110.456 C39.9058,109.623 39.7756,108.784 39.5152,107.94"/>
<path class="KeySig" d="M57.673,125.018 L57.673,126.565 C57.673,127.117 57.6991,127.555 57.7512,127.878 C58.1782,127.513 58.4855,127.242 58.673,127.065 C58.8814,126.857 59.0897,126.568 59.298,126.198 C59.5064,125.828 59.6105,125.461 59.6105,125.097 C59.6105,124.732 59.5324,124.419 59.3762,124.159 C59.2199,123.899 59.0116,123.768 58.7512,123.768 C58.4387,123.768 58.1782,123.888 57.9699,124.128 C57.772,124.388 57.673,124.685 57.673,125.018 M56.8449,128.597 L56.5949,116.706 C56.7824,116.602 56.9673,116.55 57.1496,116.55 C57.3319,116.55 57.5116,116.602 57.6887,116.706 L57.5324,123.597 C58.0637,123.138 58.6782,122.909 59.3762,122.909 C59.8762,122.909 60.2954,123.117 60.634,123.534 C60.9725,123.951 61.1418,124.43 61.1418,124.972 C61.1418,125.305 61.0324,125.664 60.8137,126.05 C60.6053,126.393 60.3866,126.664 60.1574,126.862 C60.022,126.966 59.6887,127.227 59.1574,127.643 C59.0012,127.758 58.8163,127.893 58.6027,128.05 C58.3892,128.206 58.2564,128.305 58.2043,128.347 C58.1105,128.399 58.022,128.503 57.9387,128.659 C57.8553,128.794 57.7512,128.904 57.6262,128.987 C57.5428,129.07 57.4361,129.112 57.3058,129.112 C57.1756,129.112 57.0689,129.065 56.9855,128.972 C56.8918,128.878 56.8449,128.753 56.8449,128.597"/>
<path class="KeySig" d="M52.673,115.018 L52.673,116.565 C52.673,117.117 52.6991,117.555 52.7512,117.878 C53.1782,117.513 53.4855,117.242 53.673,117.065 C53.8814,116.857 54.0897,116.568 54.298,116.198 C54.5064,115.828 54.6105,115.461 54.6105,115.097 C54.6105,114.732 54.5324,114.419 54.3762,114.159 C54.2199,113.899 54.0116,113.768 53.7512,113.768 C53.4387,113.768 53.1782,113.888 52.9699,114.128 C52.772,114.388 52.673,114.685 52.673,115.018 M51.8449,118.597 L51.5949,106.706 C51.7824,106.602 51.9673,106.55 52.1496,106.55 C52.3319,106.55 52.5116,106.602 52.6887,106.706 L52.5324,113.597 C53.0637,113.138 53.6782,112.909 54.3762,112.909 C54.8762,112.909 55.2954,113.117 55.634,113.534 C55.9725,113.951 56.1418,114.43 56.1418,114.972 C56.1418,115.305 56.0324,115.664 55.8137,116.05 C55.6053,116.393 55.3866,116.664 55.1574,116.862 C55.022,116.966 54.6887,117.227 54.1574,117.643 C54.0012,117.758 53.8163,117.893 53.6027,118.05 C53.3892,118.206 53.2564,118.305 53.2043,118.347 C53.1105,118.399 53.022,118.503 52.9387,118.659 C52.8553,118.794 52.7512,118.904 52.6262,118.987 C52.5428,119.07 52.436,119.112 52.3058,119.112 C52.1756,119.112 52.0689,119.065 51.9855,118.972 C51.8918,118.878 51.8449,118.753 51.8449,118.597"/>
<path class="KeySig" d="M47.673,122.518 L47.673,124.065 C47.673,124.617 47.6991,125.055 47.7511,125.378 C48.1782,125.013 48.4855,124.742 48.673,124.565 C48.8814,124.357 49.0897,124.068 49.298,123.698 C49.5064,123.328 49.6105,122.961 49.6105,122.597 C49.6105,122.232 49.5324,121.919 49.3761,121.659 C49.2199,121.399 49.0116,121.268 48.7511,121.268 C48.4386,121.268 48.1782,121.388 47.9699,121.628 C47.772,121.888 47.673,122.185 47.673,122.518 M46.8449,126.097 L46.5949,114.206 C46.7824,114.102 46.9673,114.05 47.1496,114.05 C47.3319,114.05 47.5116,114.102 47.6886,114.206 L47.5324,121.097 C48.0636,120.638 48.6782,120.409 49.3761,120.409 C49.8761,120.409 50.2954,120.617 50.634,121.034 C50.9725,121.451 51.1418,121.93 51.1418,122.472 C51.1418,122.805 51.0324,123.164 50.8136,123.55 C50.6053,123.893 50.3866,124.164 50.1574,124.362 C50.022,124.466 49.6886,124.727 49.1574,125.143 C49.0011,125.258 48.8163,125.393 48.6027,125.55 C48.3892,125.706 48.2564,125.805 48.2043,125.847 C48.1105,125.899 48.022,126.003 47.9386,126.159 C47.8553,126.294 47.7511,126.404 47.6261,126.487 C47.5428,126.57 47.436,126.612 47.3058,126.612 C47.1756,126.612 47.0689,126.565 46.9855,126.472 C46.8918,126.378 46.8449,126.253 46.8449,126.097"/>
<path class="TimeSig" d="M68.6574,123.347 C68.2616,123.347 67.9074,123.276 67.5949,123.136 C67.2824,122.995 67.0637,122.847 66.9387,122.69 C66.7616,122.492 66.5897,122.341 66.423,122.237 C66.2147,122.091 66.0012,122.018 65.7824,122.018 C65.4387,122.018 65.1574,122.123 64.9387,122.331 C64.7095,122.529 64.5793,122.794 64.548,123.128 C64.5272,123.274 64.4491,123.347 64.3137,123.347 C64.1574,123.347 64.0793,123.274 64.0793,123.128 C64.0793,122.628 64.1991,122.175 64.4387,121.768 C64.6678,121.352 64.9543,121.008 65.298,120.737 C65.5793,120.487 65.9543,120.185 66.423,119.831 C66.5064,119.768 66.673,119.633 66.923,119.425 C67.173,119.216 67.3866,119.039 67.5637,118.893 C67.897,118.612 68.1887,118.232 68.4387,117.753 C68.6678,117.284 68.7824,116.779 68.7824,116.237 C68.7824,115.57 68.673,114.998 68.4543,114.518 C68.2251,114.05 67.8657,113.815 67.3762,113.815 C67.0845,113.815 66.8449,113.878 66.6574,114.003 C66.4595,114.138 66.3605,114.315 66.3605,114.534 C66.3605,114.722 66.4777,114.951 66.7121,115.222 C66.9465,115.492 67.0637,115.722 67.0637,115.909 C67.0637,116.294 66.9282,116.623 66.6574,116.893 C66.397,117.154 66.0793,117.284 65.7043,117.284 C65.3085,117.284 64.9751,117.149 64.7043,116.878 C64.4439,116.597 64.3137,116.274 64.3137,115.909 C64.3137,115.159 64.6131,114.544 65.2121,114.065 C65.8111,113.586 66.5324,113.347 67.3762,113.347 C68.3866,113.347 69.2616,113.617 70.0012,114.159 C70.7407,114.68 71.1105,115.373 71.1105,116.237 C71.1105,116.82 71.0064,117.32 70.798,117.737 C70.6001,118.185 70.3085,118.534 69.923,118.784 C69.4751,119.065 69.0897,119.284 68.7668,119.44 C68.3085,119.649 67.8553,119.847 67.4074,120.034 C66.8553,120.253 66.4282,120.461 66.1262,120.659 C66.3032,120.617 66.4803,120.597 66.6574,120.597 C67.2616,120.597 67.8866,120.789 68.5324,121.175 C69.1991,121.57 69.7147,121.768 70.0793,121.768 C70.298,121.768 70.4751,121.727 70.6105,121.643 C70.7355,121.57 70.8189,121.487 70.8605,121.393 C70.9126,121.268 70.9595,121.18 71.0012,121.128 C71.0532,121.044 71.1157,121.003 71.1887,121.003 C71.3449,121.003 71.423,121.081 71.423,121.237 C71.423,121.602 71.1626,122.044 70.6418,122.565 C70.1314,123.086 69.4699,123.347 68.6574,123.347"/>
<path class="TimeSig" d="M68.2355,123.597 C68.621,123.597 68.9517,123.552 69.2277,123.464 C69.5038,123.375 69.6782,123.331 69.7512,123.331 C69.8449,123.331 69.9178,123.357 69.9699,123.409 C70.0116,123.44 70.0376,123.482 70.048,123.534 C70.048,123.565 70.0324,123.607 70.0012,123.659 L64.3293,130.268 L67.6574,130.268 L67.6574,127.643 C67.6574,127.477 67.7043,127.331 67.798,127.206 C67.9543,127.081 68.0845,127.003 68.1887,126.972 C68.3553,126.899 68.5637,126.716 68.8137,126.425 C69.022,126.195 69.272,125.789 69.5637,125.206 C69.5949,125.123 69.6522,125.081 69.7355,125.081 C69.8918,125.081 69.9803,125.175 70.0012,125.362 L70.0012,130.268 L71.4387,130.268 C71.6157,130.268 71.7199,130.362 71.7512,130.55 C71.7512,130.748 71.647,130.847 71.4387,130.847 L70.0012,130.847 L70.0012,131.003 C70.0012,131.524 70.1314,131.966 70.3918,132.331 C70.6939,132.695 71.048,132.878 71.4543,132.878 C71.6105,132.878 71.6887,132.956 71.6887,133.112 C71.6887,133.268 71.6105,133.347 71.4543,133.347 C71.1835,133.347 70.7407,133.31 70.1262,133.237 C69.5637,133.143 69.1262,133.097 68.8137,133.097 C68.4907,133.097 68.0532,133.143 67.5012,133.237 C66.9178,133.31 66.4855,133.347 66.2043,133.347 C66.048,133.347 65.9699,133.268 65.9699,133.112 C65.9699,132.956 66.048,132.878 66.2043,132.878 C66.6001,132.878 66.9491,132.695 67.2512,132.331 C67.522,131.966 67.6574,131.524 67.6574,131.003 L67.6574,130.847 L64.3293,130.847 C64.1001,130.847 63.9439,130.794 63.8605,130.69 C63.746,130.617 63.6887,130.513 63.6887,130.378 C63.6887,130.336 63.7876,130.201 63.9855,129.972 C64.2147,129.711 64.4491,129.393 64.6887,129.018 C64.9803,128.57 65.2564,128.112 65.5168,127.643 C65.798,127.112 66.0272,126.498 66.2043,125.8 C66.3918,125.102 66.4855,124.388 66.4855,123.659 C66.4855,123.451 66.5793,123.347 66.7668,123.347 C66.8085,123.347 66.8918,123.367 67.0168,123.409 C67.0585,123.419 67.1418,123.438 67.2668,123.464 C67.3918,123.49 67.4907,123.513 67.5637,123.534 C67.8032,123.576 68.0272,123.597 68.2355,123.597"/>
<path class="Rest" d="M527,121.472 L519.891,121.472 C519.755,121.472 519.688,121.409 519.688,121.284 L519.688,118.55 C519.688,118.414 519.755,118.347 519.891,118.347 L527,118.347 C527.125,118.347 527.188,118.414 527.188,118.55 L527.188,121.284 C527.188,121.409 527.125,121.472 527,121.472"/>
<path class="Rest" d="M449.488,121.472 L442.379,121.472 C442.243,121.472 442.176,121.409 442.176,121.284 L442.176,118.55 C442.176,118.414 442.243,118.347 442.379,118.347 L449.488,118.347 C449.613,118.347 449.676,118.414 449.676,118.55 L449.676,121.284 C449.676,121.409 449.613,121.472 449.488,121.472"/>
<path class="Rest" d="M371.976,121.472 L364.867,121.472 C364.732,121.472 364.664,121.409 364.664,121.284 L364.664,118.55 C364.664,118.414 364.732,118.347 364.867,118.347 L371.976,118.347 C372.101,118.347 372.164,118.414 372.164,118.55 L372.164,121.284 C372.164,121.409 372.101,121.472 371.976,121.472"/>
<path class="Rest" d="M81.9918,119.237 C82.3668,119.237 82.6533,119.341 82.8512,119.55 C83.0491,119.789 83.1533,120.013 83.1637,120.222 C83.1949,120.419 83.2626,120.638 83.3668,120.878 C83.4814,121.086 83.6272,121.19 83.8043,121.19 C83.9501,121.19 84.1689,121.029 84.4605,120.706 C84.721,120.425 84.9085,120.169 85.023,119.94 C85.0855,119.815 85.1741,119.753 85.2887,119.753 L85.3199,119.753 C85.4449,119.763 85.5335,119.826 85.5855,119.94 L83.1324,128.347 C82.997,128.482 82.8121,128.55 82.5777,128.55 C82.3434,128.55 82.1637,128.482 82.0387,128.347 L84.3824,121.815 C83.5491,122.117 82.846,122.268 82.273,122.268 C81.8043,122.268 81.398,122.117 81.0543,121.815 C80.7001,121.534 80.523,121.159 80.523,120.69 C80.523,120.284 80.6689,119.945 80.9605,119.675 C81.2418,119.383 81.5855,119.237 81.9918,119.237"/>
<path class="Dynamic" d="M258.911,149.331 C258.911,149.518 258.999,149.685 259.177,149.831 C259.374,149.998 259.583,150.149 259.802,150.284 C260.02,150.419 260.229,150.602 260.427,150.831 C260.614,151.07 260.703,151.326 260.692,151.597 C260.692,152.128 260.479,152.55 260.052,152.862 C259.624,153.185 259.119,153.347 258.536,153.347 C258.13,153.347 257.775,153.253 257.473,153.065 C257.171,152.878 257.02,152.617 257.02,152.284 C257.02,152.076 257.072,151.899 257.177,151.753 C257.291,151.607 257.429,151.534 257.591,151.534 C257.752,151.534 257.89,151.591 258.005,151.706 C258.119,151.82 258.177,151.961 258.177,152.128 C258.177,152.211 258.109,152.3 257.973,152.393 C257.838,152.498 257.77,152.581 257.77,152.643 C257.77,152.789 257.848,152.896 258.005,152.964 C258.161,153.031 258.328,153.065 258.505,153.065 C258.775,153.065 259.031,152.977 259.27,152.8 C259.51,152.612 259.624,152.388 259.614,152.128 C259.614,151.888 259.515,151.659 259.317,151.44 C259.15,151.263 258.945,151.102 258.7,150.956 C258.455,150.81 258.255,150.654 258.098,150.487 C257.911,150.289 257.817,150.081 257.817,149.862 C257.817,149.352 258.01,148.919 258.395,148.565 C258.749,148.222 259.208,148.05 259.77,148.05 C260.229,148.05 260.557,148.154 260.755,148.362 C260.984,148.602 261.098,148.862 261.098,149.143 C261.098,149.352 261.046,149.524 260.942,149.659 C260.828,149.815 260.687,149.883 260.52,149.862 C260.354,149.862 260.213,149.826 260.098,149.753 C259.984,149.68 259.927,149.591 259.927,149.487 C259.927,149.466 259.968,149.367 260.052,149.19 C260.135,149.044 260.177,148.896 260.177,148.745 C260.177,148.594 260.15,148.487 260.098,148.425 C260.015,148.331 259.927,148.279 259.833,148.268 C259.562,148.268 259.341,148.378 259.169,148.597 C258.997,148.815 258.911,149.06 258.911,149.331 M265.083,148.268 L264.13,151.362 C263.796,152.477 263.239,153.555 262.458,154.597 C261.666,155.638 260.859,156.159 260.036,156.159 C259.609,156.159 259.231,156.047 258.903,155.823 C258.575,155.599 258.411,155.31 258.411,154.956 C258.411,154.55 258.494,154.206 258.661,153.925 C258.838,153.654 259.083,153.508 259.395,153.487 C259.624,153.487 259.817,153.57 259.973,153.737 C260.13,153.904 260.208,154.097 260.208,154.315 C260.208,154.513 260.093,154.695 259.864,154.862 C259.624,155.008 259.499,155.175 259.489,155.362 C259.489,155.487 259.63,155.55 259.911,155.55 L260.036,155.55 C260.098,155.55 260.192,155.534 260.317,155.503 C260.39,155.492 260.479,155.451 260.583,155.378 C260.583,155.378 260.645,155.326 260.77,155.222 C260.854,155.107 260.906,155.024 260.927,154.972 C260.968,154.867 261.005,154.784 261.036,154.722 C261.078,154.68 261.114,154.576 261.145,154.409 C261.166,154.367 261.182,154.32 261.192,154.268 C261.203,154.216 261.213,154.18 261.223,154.159 C261.234,154.138 261.239,154.123 261.239,154.112 C261.291,153.904 261.328,153.779 261.348,153.737 C261.39,153.529 261.411,153.425 261.411,153.425 L262.692,148.268 L261.708,148.268 C261.614,148.268 261.546,148.237 261.505,148.175 C261.453,148.091 261.427,148.018 261.427,147.956 C261.427,147.873 261.453,147.8 261.505,147.737 C261.588,147.675 261.656,147.643 261.708,147.643 L262.88,147.643 C263.203,146.664 263.739,145.82 264.489,145.112 C265.229,144.383 266.025,144.018 266.88,144.018 C267.338,144.018 267.718,144.133 268.02,144.362 C268.343,144.581 268.51,144.867 268.52,145.222 C268.52,145.607 268.437,145.951 268.27,146.253 C268.072,146.524 267.828,146.664 267.536,146.675 C267.307,146.675 267.114,146.594 266.958,146.432 C266.802,146.271 266.723,146.081 266.723,145.862 C266.723,145.675 266.843,145.503 267.083,145.347 C267.322,145.19 267.437,145.013 267.427,144.815 C267.427,144.669 267.291,144.602 267.02,144.612 L266.973,144.612 C266.942,144.633 266.911,144.638 266.88,144.628 C266.65,144.628 266.458,144.685 266.302,144.8 C266.145,144.904 265.999,145.091 265.864,145.362 C265.822,145.435 265.788,145.508 265.762,145.581 C265.736,145.654 265.708,145.735 265.677,145.823 C265.645,145.912 265.619,145.972 265.598,146.003 C265.588,146.065 265.567,146.195 265.536,146.393 C265.494,146.581 265.458,146.742 265.427,146.878 C265.343,147.274 265.286,147.529 265.255,147.643 L266.333,147.643 C266.416,147.643 266.492,147.672 266.559,147.729 C266.627,147.787 266.661,147.86 266.661,147.948 C266.661,148.037 266.627,148.112 266.559,148.175 C266.492,148.237 266.416,148.268 266.333,148.268 L265.083,148.268 "/>
<path class="Dynamic" d="M213.117,149.331 C213.117,149.518 213.205,149.685 213.382,149.831 C213.58,149.998 213.789,150.149 214.007,150.284 C214.226,150.419 214.434,150.602 214.632,150.831 C214.82,151.07 214.908,151.326 214.898,151.597 C214.898,152.128 214.684,152.55 214.257,152.862 C213.83,153.185 213.325,153.347 212.742,153.347 C212.335,153.347 211.981,153.253 211.679,153.065 C211.377,152.878 211.226,152.617 211.226,152.284 C211.226,152.076 211.278,151.899 211.382,151.753 C211.497,151.607 211.635,151.534 211.796,151.534 C211.958,151.534 212.096,151.591 212.21,151.706 C212.325,151.82 212.382,151.961 212.382,152.128 C212.382,152.211 212.315,152.3 212.179,152.393 C212.044,152.498 211.976,152.581 211.976,152.643 C211.976,152.789 212.054,152.896 212.21,152.964 C212.367,153.031 212.533,153.065 212.71,153.065 C212.981,153.065 213.236,152.977 213.476,152.8 C213.716,152.612 213.83,152.388 213.82,152.128 C213.82,151.888 213.721,151.659 213.523,151.44 C213.356,151.263 213.151,151.102 212.906,150.956 C212.661,150.81 212.46,150.654 212.304,150.487 C212.117,150.289 212.023,150.081 212.023,149.862 C212.023,149.352 212.216,148.919 212.601,148.565 C212.955,148.222 213.414,148.05 213.976,148.05 C214.434,148.05 214.762,148.154 214.96,148.362 C215.19,148.602 215.304,148.862 215.304,149.143 C215.304,149.352 215.252,149.524 215.148,149.659 C215.033,149.815 214.893,149.883 214.726,149.862 C214.559,149.862 214.419,149.826 214.304,149.753 C214.19,149.68 214.132,149.591 214.132,149.487 C214.132,149.466 214.174,149.367 214.257,149.19 C214.341,149.044 214.382,148.896 214.382,148.745 C214.382,148.594 214.356,148.487 214.304,148.425 C214.221,148.331 214.132,148.279 214.039,148.268 C213.768,148.268 213.546,148.378 213.374,148.597 C213.203,148.815 213.117,149.06 213.117,149.331 M219.289,148.268 L218.335,151.362 C218.002,152.477 217.445,153.555 216.664,154.597 C215.872,155.638 215.065,156.159 214.242,156.159 C213.815,156.159 213.437,156.047 213.109,155.823 C212.781,155.599 212.617,155.31 212.617,154.956 C212.617,154.55 212.7,154.206 212.867,153.925 C213.044,153.654 213.289,153.508 213.601,153.487 C213.83,153.487 214.023,153.57 214.179,153.737 C214.335,153.904 214.414,154.097 214.414,154.315 C214.414,154.513 214.299,154.695 214.07,154.862 C213.83,155.008 213.705,155.175 213.695,155.362 C213.695,155.487 213.835,155.55 214.117,155.55 L214.242,155.55 C214.304,155.55 214.398,155.534 214.523,155.503 C214.596,155.492 214.684,155.451 214.789,155.378 C214.789,155.378 214.851,155.326 214.976,155.222 C215.059,155.107 215.111,155.024 215.132,154.972 C215.174,154.867 215.21,154.784 215.242,154.722 C215.283,154.68 215.32,154.576 215.351,154.409 C215.372,154.367 215.387,154.32 215.398,154.268 C215.408,154.216 215.419,154.18 215.429,154.159 C215.44,154.138 215.445,154.123 215.445,154.112 C215.497,153.904 215.533,153.779 215.554,153.737 C215.596,153.529 215.617,153.425 215.617,153.425 L216.898,148.268 L215.914,148.268 C215.82,148.268 215.752,148.237 215.71,148.175 C215.658,148.091 215.632,148.018 215.632,147.956 C215.632,147.873 215.658,147.8 215.71,147.737 C215.794,147.675 215.861,147.643 215.914,147.643 L217.085,147.643 C217.408,146.664 217.945,145.82 218.695,145.112 C219.434,144.383 220.231,144.018 221.085,144.018 C221.544,144.018 221.924,144.133 222.226,144.362 C222.549,144.581 222.716,144.867 222.726,145.222 C222.726,145.607 222.643,145.951 222.476,146.253 C222.278,146.524 222.033,146.664 221.742,146.675 C221.512,146.675 221.32,146.594 221.164,146.432 C221.007,146.271 220.929,146.081 220.929,145.862 C220.929,145.675 221.049,145.503 221.289,145.347 C221.528,145.19 221.643,145.013 221.632,144.815 C221.632,144.669 221.497,144.602 221.226,144.612 L221.179,144.612 C221.148,144.633 221.117,144.638 221.085,144.628 C220.856,144.628 220.664,144.685 220.507,144.8 C220.351,144.904 220.205,145.091 220.07,145.362 C220.028,145.435 219.994,145.508 219.968,145.581 C219.942,145.654 219.914,145.735 219.882,145.823 C219.851,145.912 219.825,145.972 219.804,146.003 C219.794,146.065 219.773,146.195 219.742,146.393 C219.7,146.581 219.664,146.742 219.632,146.878 C219.549,147.274 219.492,147.529 219.46,147.643 L220.539,147.643 C220.622,147.643 220.697,147.672 220.765,147.729 C220.833,147.787 220.867,147.86 220.867,147.948 C220.867,148.037 220.833,148.112 220.765,148.175 C220.697,148.237 220.622,148.268 220.539,148.268 L219.289,148.268 "/>
<path class="Dynamic" d="M174.303,149.331 C174.303,149.518 174.391,149.685 174.569,149.831 C174.766,149.998 174.975,150.149 175.194,150.284 C175.412,150.419 175.621,150.602 175.819,150.831 C176.006,151.07 176.095,151.326 176.084,151.597 C176.084,152.128 175.871,152.55 175.444,152.862 C175.016,153.185 174.511,153.347 173.928,153.347 C173.522,153.347 173.167,153.253 172.865,153.065 C172.563,152.878 172.412,152.617 172.412,152.284 C172.412,152.076 172.464,151.899 172.569,151.753 C172.683,151.607 172.821,151.534 172.983,151.534 C173.144,151.534 173.282,151.591 173.397,151.706 C173.511,151.82 173.569,151.961 173.569,152.128 C173.569,152.211 173.501,152.3 173.365,152.393 C173.23,152.498 173.162,152.581 173.162,152.643 C173.162,152.789 173.24,152.896 173.397,152.964 C173.553,153.031 173.72,153.065 173.897,153.065 C174.167,153.065 174.423,152.977 174.662,152.8 C174.902,152.612 175.016,152.388 175.006,152.128 C175.006,151.888 174.907,151.659 174.709,151.44 C174.542,151.263 174.337,151.102 174.092,150.956 C173.847,150.81 173.647,150.654 173.49,150.487 C173.303,150.289 173.209,150.081 173.209,149.862 C173.209,149.352 173.402,148.919 173.787,148.565 C174.141,148.222 174.6,148.05 175.162,148.05 C175.621,148.05 175.949,148.154 176.147,148.362 C176.376,148.602 176.49,148.862 176.49,149.143 C176.49,149.352 176.438,149.524 176.334,149.659 C176.22,149.815 176.079,149.883 175.912,149.862 C175.746,149.862 175.605,149.826 175.49,149.753 C175.376,149.68 175.319,149.591 175.319,149.487 C175.319,149.466 175.36,149.367 175.444,149.19 C175.527,149.044 175.569,148.896 175.569,148.745 C175.569,148.594 175.542,148.487 175.49,148.425 C175.407,148.331 175.319,148.279 175.225,148.268 C174.954,148.268 174.733,148.378 174.561,148.597 C174.389,148.815 174.303,149.06 174.303,149.331 M180.475,148.268 L179.522,151.362 C179.188,152.477 178.631,153.555 177.85,154.597 C177.058,155.638 176.251,156.159 175.428,156.159 C175.001,156.159 174.623,156.047 174.295,155.823 C173.967,155.599 173.803,155.31 173.803,154.956 C173.803,154.55 173.886,154.206 174.053,153.925 C174.23,153.654 174.475,153.508 174.787,153.487 C175.016,153.487 175.209,153.57 175.365,153.737 C175.522,153.904 175.6,154.097 175.6,154.315 C175.6,154.513 175.485,154.695 175.256,154.862 C175.016,155.008 174.891,155.175 174.881,155.362 C174.881,155.487 175.022,155.55 175.303,155.55 L175.428,155.55 C175.49,155.55 175.584,155.534 175.709,155.503 C175.782,155.492 175.871,155.451 175.975,155.378 C175.975,155.378 176.037,155.326 176.162,155.222 C176.246,155.107 176.298,155.024 176.319,154.972 C176.36,154.867 176.397,154.784 176.428,154.722 C176.47,154.68 176.506,154.576 176.537,154.409 C176.558,154.367 176.574,154.32 176.584,154.268 C176.595,154.216 176.605,154.18 176.615,154.159 C176.626,154.138 176.631,154.123 176.631,154.112 C176.683,153.904 176.72,153.779 176.74,153.737 C176.782,153.529 176.803,153.425 176.803,153.425 L178.084,148.268 L177.1,148.268 C177.006,148.268 176.938,148.237 176.897,148.175 C176.845,148.091 176.819,148.018 176.819,147.956 C176.819,147.873 176.845,147.8 176.897,147.737 C176.98,147.675 177.048,147.643 177.1,147.643 L178.272,147.643 C178.595,146.664 179.131,145.82 179.881,145.112 C180.621,144.383 181.417,144.018 182.272,144.018 C182.73,144.018 183.11,144.133 183.412,144.362 C183.735,144.581 183.902,144.867 183.912,145.222 C183.912,145.607 183.829,145.951 183.662,146.253 C183.464,146.524 183.22,146.664 182.928,146.675 C182.699,146.675 182.506,146.594 182.35,146.432 C182.194,146.271 182.115,146.081 182.115,145.862 C182.115,145.675 182.235,145.503 182.475,145.347 C182.714,145.19 182.829,145.013 182.819,144.815 C182.819,144.669 182.683,144.602 182.412,144.612 L182.365,144.612 C182.334,144.633 182.303,144.638 182.272,144.628 C182.042,144.628 181.85,144.685 181.694,144.8 C181.537,144.904 181.391,145.091 181.256,145.362 C181.214,145.435 181.181,145.508 181.154,145.581 C181.128,145.654 181.1,145.735 181.069,145.823 C181.037,145.912 181.011,145.972 180.99,146.003 C180.98,146.065 180.959,146.195 180.928,146.393 C180.886,146.581 180.85,146.742 180.819,146.878 C180.735,147.274 180.678,147.529 180.647,147.643 L181.725,147.643 C181.808,147.643 181.884,147.672 181.951,147.729 C182.019,147.787 182.053,147.86 182.053,147.948 C182.053,148.037 182.019,148.112 181.951,148.175 C181.884,148.237 181.808,148.268 181.725,148.268 L180.475,148.268 "/>
<path class="Dynamic" d="M101.583,148.268 L100.63,151.362 C100.297,152.477 99.7393,153.555 98.958,154.597 C98.1664,155.638 97.3591,156.159 96.5362,156.159 C96.1091,156.159 95.7315,156.047 95.4034,155.823 C95.0752,155.599 94.9112,155.31 94.9112,154.956 C94.9112,154.55 94.9945,154.206 95.1612,153.925 C95.3383,153.654 95.583,153.508 95.8955,153.487 C96.1247,153.487 96.3174,153.57 96.4737,153.737 C96.6299,153.904 96.708,154.097 96.708,154.315 C96.708,154.513 96.5935,154.695 96.3643,154.862 C96.1247,155.008 95.9997,155.175 95.9893,155.362 C95.9893,155.487 96.1299,155.55 96.4112,155.55 L96.5362,155.55 C96.5987,155.55 96.6924,155.534 96.8174,155.503 C96.8903,155.492 96.9789,155.451 97.083,155.378 C97.083,155.378 97.1455,155.326 97.2705,155.222 C97.3539,155.107 97.406,155.024 97.4268,154.972 C97.4685,154.867 97.5049,154.784 97.5362,154.722 C97.5778,154.68 97.6143,154.576 97.6455,154.409 C97.6664,154.367 97.682,154.32 97.6924,154.268 C97.7028,154.216 97.7133,154.18 97.7237,154.159 C97.7341,154.138 97.7393,154.123 97.7393,154.112 C97.7914,153.904 97.8278,153.779 97.8487,153.737 C97.8903,153.529 97.9112,153.425 97.9112,153.425 L99.1924,148.268 L98.208,148.268 C98.1143,148.268 98.0466,148.237 98.0049,148.175 C97.9528,148.091 97.9268,148.018 97.9268,147.956 C97.9268,147.873 97.9528,147.8 98.0049,147.737 C98.0883,147.675 98.156,147.643 98.208,147.643 L99.3799,147.643 C99.7028,146.664 100.239,145.82 100.989,145.112 C101.729,144.383 102.526,144.018 103.38,144.018 C103.838,144.018 104.218,144.133 104.521,144.362 C104.843,144.581 105.01,144.867 105.021,145.222 C105.021,145.607 104.937,145.951 104.771,146.253 C104.573,146.524 104.328,146.664 104.036,146.675 C103.807,146.675 103.614,146.594 103.458,146.432 C103.302,146.271 103.224,146.081 103.224,145.862 C103.224,145.675 103.343,145.503 103.583,145.347 C103.823,145.19 103.937,145.013 103.927,144.815 C103.927,144.669 103.791,144.602 103.521,144.612 L103.474,144.612 C103.442,144.633 103.411,144.638 103.38,144.628 C103.151,144.628 102.958,144.685 102.802,144.8 C102.646,144.904 102.5,145.091 102.364,145.362 C102.323,145.435 102.289,145.508 102.263,145.581 C102.237,145.654 102.208,145.735 102.177,145.823 C102.146,145.912 102.12,145.972 102.099,146.003 C102.088,146.065 102.067,146.195 102.036,146.393 C101.995,146.581 101.958,146.742 101.927,146.878 C101.843,147.274 101.786,147.529 101.755,147.643 L102.833,147.643 C102.916,147.643 102.992,147.672 103.06,147.729 C103.127,147.787 103.161,147.86 103.161,147.948 C103.161,148.037 103.127,148.112 103.06,148.175 C102.992,148.237 102.916,148.268 102.833,148.268 L101.583,148.268 M106.864,148.268 L105.911,151.362 C105.578,152.477 105.021,153.555 104.239,154.597 C103.448,155.638 102.64,156.159 101.817,156.159 C101.39,156.159 101.013,156.047 100.685,155.823 C100.356,155.599 100.192,155.31 100.192,154.956 C100.192,154.55 100.276,154.206 100.442,153.925 C100.62,153.654 100.864,153.508 101.177,153.487 C101.406,153.487 101.599,153.57 101.755,153.737 C101.911,153.904 101.989,154.097 101.989,154.315 C101.989,154.513 101.875,154.695 101.646,154.862 C101.406,155.008 101.281,155.175 101.271,155.362 C101.271,155.487 101.411,155.55 101.692,155.55 L101.817,155.55 C101.88,155.55 101.974,155.534 102.099,155.503 C102.172,155.492 102.26,155.451 102.364,155.378 C102.364,155.378 102.427,155.326 102.552,155.222 C102.635,155.107 102.687,155.024 102.708,154.972 C102.75,154.867 102.786,154.784 102.817,154.722 C102.859,154.68 102.896,154.576 102.927,154.409 C102.948,154.367 102.963,154.32 102.974,154.268 C102.984,154.216 102.995,154.18 103.005,154.159 C103.015,154.138 103.021,154.123 103.021,154.112 C103.073,153.904 103.109,153.779 103.13,153.737 C103.172,153.529 103.192,153.425 103.192,153.425 L104.474,148.268 L103.489,148.268 C103.396,148.268 103.328,148.237 103.286,148.175 C103.234,148.091 103.208,148.018 103.208,147.956 C103.208,147.873 103.234,147.8 103.286,147.737 C103.37,147.675 103.437,147.643 103.489,147.643 L104.661,147.643 C104.984,146.664 105.521,145.82 106.271,145.112 C107.01,144.383 107.807,144.018 108.661,144.018 C109.12,144.018 109.5,144.133 109.802,144.362 C110.125,144.581 110.291,144.867 110.302,145.222 C110.302,145.607 110.218,145.951 110.052,146.253 C109.854,146.524 109.609,146.664 109.317,146.675 C109.088,146.675 108.896,146.594 108.739,146.432 C108.583,146.271 108.505,146.081 108.505,145.862 C108.505,145.675 108.625,145.503 108.864,145.347 C109.104,145.19 109.218,145.013 109.208,144.815 C109.208,144.669 109.073,144.602 108.802,144.612 L108.755,144.612 C108.724,144.633 108.692,144.638 108.661,144.628 C108.432,144.628 108.239,144.685 108.083,144.8 C107.927,144.904 107.781,145.091 107.646,145.362 C107.604,145.435 107.57,145.508 107.544,145.581 C107.518,145.654 107.489,145.735 107.458,145.823 C107.427,145.912 107.401,145.972 107.38,146.003 C107.37,146.065 107.349,146.195 107.317,146.393 C107.276,146.581 107.239,146.742 107.208,146.878 C107.125,147.274 107.067,147.529 107.036,147.643 L108.114,147.643 C108.198,147.643 108.273,147.672 108.341,147.729 C108.409,147.787 108.442,147.86 108.442,147.948 C108.442,148.037 108.409,148.112 108.341,148.175 C108.273,148.237 108.198,148.268 108.114,148.268 L106.864,148.268 "/>
<path class="Beam" fill-rule="evenodd" d="M124.32,137.097 L146.838,137.097 L146.838,139.597 L124.32,139.597 L124.32,137.097 "/>
<path class="Hook" d="M107,126.378 C107.302,126.378 107.625,126.862 107.969,127.831 C108.292,128.8 108.453,129.722 108.453,130.597 C108.453,131.336 108.271,132.07 107.906,132.8 C107.531,133.581 107.083,134.258 106.562,134.831 L104.953,136.628 C104.463,137.201 104.021,137.862 103.625,138.612 C103.26,139.341 103.078,140.086 103.078,140.847 L102.453,140.847 L102.453,135.847 L103.078,135.847 C103.432,135.628 103.953,135.274 104.64,134.784 C104.953,134.555 105.422,134.164 106.047,133.612 C106.557,133.143 106.943,132.664 107.203,132.175 C107.474,131.654 107.609,131.128 107.609,130.597 C107.609,129.357 107.25,128.123 106.531,126.893 C106.531,126.893 106.531,126.867 106.531,126.815 C106.531,126.701 106.573,126.607 106.656,126.534 C106.76,126.43 106.875,126.378 107,126.378"/>
<polyline class="HairpinSegment" stroke="#000000" stroke-width="0.65" stroke-linecap="square" stroke-linejoin="bevel" points="269.061,153.847 322.978,150.847"/>
<polyline class="HairpinSegment" stroke="#000000" stroke-width="0.65" stroke-linecap="square" stroke-linejoin="bevel" points="269.061,147.847 322.978,150.847"/>
</svg>
