<?xml version="1.0" encoding="UTF-8" standalone="no"?>
<svg width="595.44px" height="841.68px" viewBox="0 0 595.44 841.68"
 xmlns="http://www.w3.org/2000/svg" xmlns:xlink="http://www.w3.org/1999/xlink" version="1.2" baseProfile="tiny">
<title>Title</title>
<desc>Generated by MuseScore 2.3.2</desc>
<polyline class="StaffLines" fill="none" stroke="#000000" stroke-width="0.40" stroke-linejoin="bevel" points="28.3465,113.347 567.094,113.347"/>
<polyline class="StaffLines" fill="none" stroke="#000000" stroke-width="0.40" stroke-linejoin="bevel" points="28.3465,118.347 567.094,118.347"/>
<polyline class="StaffLines" fill="none" stroke="#000000" stroke-width="0.40" stroke-linejoin="bevel" points="28.3465,123.347 567.094,123.347"/>
<polyline class="StaffLines" fill="none" stroke="#000000" stroke-width="0.40" stroke-linejoin="bevel" points="28.3465,128.347 567.094,128.347"/>
<polyline class="StaffLines" fill="none" stroke="#000000" stroke-width="0.40" stroke-linejoin="bevel" points="28.3465,133.347 567.094,133.347"/>
<polyline class="StaffLines" fill="none" stroke="#000000" stroke-width="0.40" stroke-linejoin="bevel" points="28.3465,165.847 567.094,165.847"/>
<polyline class="StaffLines" fill="none" stroke="#000000" stroke-width="0.40" stroke-linejoin="bevel" points="28.3465,170.847 567.094,170.847"/>
<polyline class="StaffLines" fill="none" stroke="#000000" stroke-width="0.40" stroke-linejoin="bevel" points="28.3465,175.847 567.094,175.847"/>
<polyline class="StaffLines" fill="none" stroke="#000000" stroke-width="0.40" stroke-linejoin="bevel" points="28.3465,180.847 567.094,180.847"/>
<polyline class="StaffLines" fill="none" stroke="#000000" stroke-width="0.40" stroke-linejoin="bevel" points="28.3465,185.847 567.094,185.847"/>
<polyline class="BarLine" fill="none" stroke="#000000" stroke-width="0.80" stroke-linejoin="bevel" points="28.7465,113.347 28.7465,185.847"/>
<polyline class="BarLine" fill="none" stroke="#000000" stroke-width="0.80" stroke-linejoin="bevel" points="562.194,165.847 562.194,185.847"/>
<polyline class="BarLine" fill="none" stroke="#000000" stroke-width="2.50" stroke-linejoin="bevel" points="565.844,165.847 565.844,185.847"/>
<polyline class="BarLine" fill="none" stroke="#000000" stroke-width="0.80" stroke-linejoin="bevel" points="562.194,113.347 562.194,133.347"/>
<polyline class="BarLine" fill="none" stroke="#000000" stroke-width="2.50" stroke-linejoin="bevel" points="565.844,113.347 565.844,133.347"/>
<polyline class="BarLine" fill="none" stroke="#000000" stroke-width="0.80" stroke-linejoin="bevel" points="450.49,165.847 450.49,185.847"/>
<polyline class="BarLine" fill="none" stroke="#000000" stroke-width="0.80" stroke-linejoin="bevel" points="450.49,113.347 450.49,133.347"/>
<polyline class="BarLine" fill="none" stroke="#000000" stroke-width="0.80" stroke-linejoin="bevel" points="338.787,165.847 338.787,185.847"/>
<polyline class="BarLine" fill="none" stroke="#000000" stroke-width="0.80" stroke-linejoin="bevel" points="338.787,113.347 338.787,133.347"/>
<polyline class="BarLine" fill="none" stroke="#000000" stroke-width="0.80" stroke-linejoin="bevel" points="221.418,165.847 221.418,185.847"/>
<polyline class="BarLine" fill="none" stroke="#000000" stroke-width="0.80" stroke-linejoin="bevel" points="221.418,113.347 221.418,133.347"/>
<path class="Accidental" d="M111.776,115.847 C111.943,115.753 112.112,115.706 112.284,115.706 C112.456,115.706 112.625,115.753 112.792,115.847 L112.729,119.503 L114.87,119.112 L114.948,119.112 C115.177,119.112 115.292,119.222 115.292,119.44 L115.432,130.847 C115.266,130.94 115.096,130.987 114.925,130.987 C114.753,130.987 114.583,130.94 114.417,130.847 L114.479,127.19 L112.37,127.581 L112.292,127.581 C112.052,127.581 111.932,127.472 111.932,127.253 L111.776,115.847 M114.495,125.237 L114.557,121.097 L112.714,121.456 L112.651,125.597 L114.495,125.237 "/>
<polyline class="LedgerLine" fill="none" stroke="#000000" stroke-width="0.80" stroke-linecap="square" stroke-linejoin="bevel" points="226.318,190.847 235.901,190.847"/>
<polyline class="LedgerLine" fill="none" stroke="#000000" stroke-width="0.80" stroke-linecap="square" stroke-linejoin="bevel" points="226.318,195.847 235.901,195.847"/>
<polyline class="LedgerLine" fill="none" stroke="#000000" stroke-width="0.80" stroke-linecap="square" stroke-linejoin="bevel" points="184.682,190.847 194.265,190.847"/>
<polyline class="LedgerLine" fill="none" stroke="#000000" stroke-width="0.80" stroke-linecap="square" stroke-linejoin="bevel" points="184.682,195.847 194.265,195.847"/>
<polyline class="LedgerLine" fill="none" stroke="#000000" stroke-width="0.80" stroke-linecap="square" stroke-linejoin="bevel" points="184.682,200.847 194.265,200.847"/>
<polyline class="LedgerLine" fill="none" stroke="#000000" stroke-width="0.80" stroke-linecap="square" stroke-linejoin="bevel" points="149.847,190.847 159.429,190.847"/>
<polyline class="LedgerLine" fill="none" stroke="#000000" stroke-width="0.80" stroke-linecap="square" stroke-linejoin="bevel" points="149.847,195.847 159.429,195.847"/>
<polyline class="LedgerLine" fill="none" stroke="#000000" stroke-width="0.80" stroke-linecap="square" stroke-linejoin="bevel" points="149.847,200.847 159.429,200.847"/>
<polyline class="LedgerLine" fill="none" stroke="#000000" stroke-width="0.80" stroke-linecap="square" stroke-linejoin="bevel" points="115.011,190.847 124.593,190.847"/>
<polyline class="LedgerLine" fill="none" stroke="#000000" stroke-width="0.80" stroke-linecap="square" stroke-linejoin="bevel" points="115.011,195.847 124.593,195.847"/>
<polyline class="LedgerLine" fill="none" stroke="#000000" stroke-width="0.80" stroke-linecap="square" stroke-linejoin="bevel" points="115.011,200.847 124.593,200.847"/>
<polyline class="Stem" fill="none" stroke="#000000" stroke-width="0.65" stroke-linecap="round" stroke-linejoin="bevel" points="234.076,194.907 234.076,162.097"/>
<polyline class="Stem" fill="none" stroke="#000000" stroke-width="0.65" stroke-linecap="round" stroke-linejoin="bevel" points="228.143,111.786 228.143,142.722"/>
<polyline class="Stem" fill="none" stroke="#000000" stroke-width="0.65" stroke-linecap="round" stroke-linejoin="bevel" points="192.44,202.407 192.44,170.847"/>
<polyline class="Stem" fill="none" stroke="#000000" stroke-width="0.65" stroke-linecap="round" stroke-linejoin="bevel" points="186.507,111.786 186.507,142.097"/>
<polyline class="Stem" fill="none" stroke="#000000" stroke-width="0.65" stroke-linecap="round" stroke-linejoin="bevel" points="157.604,202.407 157.604,170.847"/>
<polyline class="Stem" fill="none" stroke="#000000" stroke-width="0.65" stroke-linecap="round" stroke-linejoin="bevel" points="151.672,111.786 151.672,142.097"/>
<polyline class="Stem" fill="none" stroke="#000000" stroke-width="0.65" stroke-linecap="round" stroke-linejoin="bevel" points="122.768,202.407 122.768,168.347"/>
<polyline class="Stem" fill="none" stroke="#000000" stroke-width="0.65" stroke-linecap="round" stroke-linejoin="bevel" points="116.836,111.786 116.836,145.847"/>
<path class="Note" d="M232.209,175.597 C232.834,175.597 233.365,175.758 233.803,176.081 C234.199,176.435 234.397,176.878 234.397,177.409 C234.397,178.305 233.938,179.143 233.022,179.925 C232.084,180.706 231.079,181.097 230.006,181.097 C229.381,181.097 228.855,180.935 228.428,180.612 C228.022,180.258 227.818,179.815 227.818,179.284 C227.818,178.388 228.287,177.55 229.225,176.768 C230.141,175.987 231.136,175.597 232.209,175.597"/>
<path class="Note" d="M232.209,193.097 C232.834,193.097 233.365,193.258 233.803,193.581 C234.199,193.935 234.397,194.378 234.397,194.909 C234.397,195.805 233.938,196.643 233.022,197.425 C232.084,198.206 231.079,198.597 230.006,198.597 C229.381,198.597 228.855,198.435 228.428,198.112 C228.022,197.758 227.818,197.315 227.818,196.784 C227.818,195.888 228.287,195.05 229.225,194.268 C230.141,193.487 231.136,193.097 232.209,193.097"/>
<path class="Note" d="M232.209,108.097 C232.834,108.097 233.365,108.258 233.803,108.581 C234.199,108.935 234.397,109.378 234.397,109.909 C234.397,110.805 233.938,111.643 233.022,112.425 C232.084,113.206 231.079,113.597 230.006,113.597 C229.381,113.597 228.855,113.435 228.428,113.112 C228.022,112.758 227.818,112.315 227.818,111.784 C227.818,110.888 228.287,110.05 229.225,109.268 C230.141,108.487 231.136,108.097 232.209,108.097"/>
<path class="Note" d="M232.209,113.097 C232.834,113.097 233.365,113.258 233.803,113.581 C234.199,113.935 234.397,114.378 234.397,114.909 C234.397,115.805 233.938,116.643 233.022,117.425 C232.084,118.206 231.079,118.597 230.006,118.597 C229.381,118.597 228.855,118.435 228.428,118.112 C228.022,117.758 227.818,117.315 227.818,116.784 C227.818,115.888 228.287,115.05 229.225,114.268 C230.141,113.487 231.136,113.097 232.209,113.097"/>
<path class="Note" d="M232.209,118.097 C232.834,118.097 233.365,118.258 233.803,118.581 C234.199,118.935 234.397,119.378 234.397,119.909 C234.397,120.805 233.938,121.643 233.022,122.425 C232.084,123.206 231.079,123.597 230.006,123.597 C229.381,123.597 228.855,123.435 228.428,123.112 C228.022,122.758 227.818,122.315 227.818,121.784 C227.818,120.888 228.287,120.05 229.225,119.268 C230.141,118.487 231.136,118.097 232.209,118.097"/>
<path class="Note" d="M232.209,125.597 C232.834,125.597 233.365,125.758 233.803,126.081 C234.199,126.435 234.397,126.878 234.397,127.409 C234.397,128.305 233.938,129.143 233.022,129.925 C232.084,130.706 231.079,131.097 230.006,131.097 C229.381,131.097 228.855,130.935 228.428,130.612 C228.022,130.258 227.818,129.815 227.818,129.284 C227.818,128.388 228.287,127.55 229.225,126.768 C230.141,125.987 231.136,125.597 232.209,125.597"/>
<path class="Note" d="M190.573,183.097 C191.198,183.097 191.729,183.258 192.167,183.581 C192.563,183.935 192.761,184.378 192.761,184.909 C192.761,185.805 192.302,186.643 191.386,187.425 C190.448,188.206 189.443,188.597 188.37,188.597 C187.745,188.597 187.219,188.435 186.792,188.112 C186.386,187.758 186.182,187.315 186.182,186.784 C186.182,185.888 186.651,185.05 187.589,184.268 C188.505,183.487 189.5,183.097 190.573,183.097"/>
<path class="Note" d="M190.573,200.597 C191.198,200.597 191.729,200.758 192.167,201.081 C192.563,201.435 192.761,201.878 192.761,202.409 C192.761,203.305 192.302,204.143 191.386,204.925 C190.448,205.706 189.443,206.097 188.37,206.097 C187.745,206.097 187.219,205.935 186.792,205.612 C186.386,205.258 186.182,204.815 186.182,204.284 C186.182,203.388 186.651,202.55 187.589,201.768 C188.505,200.987 189.5,200.597 190.573,200.597"/>
<path class="Note" d="M190.573,108.097 C191.198,108.097 191.729,108.258 192.167,108.581 C192.563,108.935 192.761,109.378 192.761,109.909 C192.761,110.805 192.302,111.643 191.386,112.425 C190.448,113.206 189.443,113.597 188.37,113.597 C187.745,113.597 187.219,113.435 186.792,113.112 C186.386,112.758 186.182,112.315 186.182,111.784 C186.182,110.888 186.651,110.05 187.589,109.268 C188.505,108.487 189.5,108.097 190.573,108.097"/>
<path class="Note" d="M190.573,115.597 C191.198,115.597 191.729,115.758 192.167,116.081 C192.563,116.435 192.761,116.878 192.761,117.409 C192.761,118.305 192.302,119.143 191.386,119.925 C190.448,120.706 189.443,121.097 188.37,121.097 C187.745,121.097 187.219,120.935 186.792,120.612 C186.386,120.258 186.182,119.815 186.182,119.284 C186.182,118.388 186.651,117.55 187.589,116.768 C188.505,115.987 189.5,115.597 190.573,115.597"/>
<path class="Note" d="M190.573,120.597 C191.198,120.597 191.729,120.758 192.167,121.081 C192.563,121.435 192.761,121.878 192.761,122.409 C192.761,123.305 192.302,124.143 191.386,124.925 C190.448,125.706 189.443,126.097 188.37,126.097 C187.745,126.097 187.219,125.935 186.792,125.612 C186.386,125.258 186.182,124.815 186.182,124.284 C186.182,123.388 186.651,122.55 187.589,121.768 C188.505,120.987 189.5,120.597 190.573,120.597"/>
<path class="Note" d="M190.573,125.597 C191.198,125.597 191.729,125.758 192.167,126.081 C192.563,126.435 192.761,126.878 192.761,127.409 C192.761,128.305 192.302,129.143 191.386,129.925 C190.448,130.706 189.443,131.097 188.37,131.097 C187.745,131.097 187.219,130.935 186.792,130.612 C186.386,130.258 186.182,129.815 186.182,129.284 C186.182,128.388 186.651,127.55 187.589,126.768 C188.505,125.987 189.5,125.597 190.573,125.597"/>
<path class="Note" d="M155.737,183.097 C156.362,183.097 156.893,183.258 157.331,183.581 C157.727,183.935 157.925,184.378 157.925,184.909 C157.925,185.805 157.466,186.643 156.55,187.425 C155.612,188.206 154.607,188.597 153.534,188.597 C152.909,188.597 152.383,188.435 151.956,188.112 C151.55,187.758 151.347,187.315 151.347,186.784 C151.347,185.888 151.815,185.05 152.753,184.268 C153.669,183.487 154.664,183.097 155.737,183.097"/>
<path class="Note" d="M155.737,200.597 C156.362,200.597 156.893,200.758 157.331,201.081 C157.727,201.435 157.925,201.878 157.925,202.409 C157.925,203.305 157.466,204.143 156.55,204.925 C155.612,205.706 154.607,206.097 153.534,206.097 C152.909,206.097 152.383,205.935 151.956,205.612 C151.55,205.258 151.347,204.815 151.347,204.284 C151.347,203.388 151.815,202.55 152.753,201.768 C153.669,200.987 154.664,200.597 155.737,200.597"/>
<path class="Note" d="M155.737,108.097 C156.362,108.097 156.893,108.258 157.331,108.581 C157.727,108.935 157.925,109.378 157.925,109.909 C157.925,110.805 157.466,111.643 156.55,112.425 C155.612,113.206 154.607,113.597 153.534,113.597 C152.909,113.597 152.383,113.435 151.956,113.112 C151.55,112.758 151.347,112.315 151.347,111.784 C151.347,110.888 151.815,110.05 152.753,109.268 C153.669,108.487 154.664,108.097 155.737,108.097"/>
<path class="Note" d="M155.737,115.597 C156.362,115.597 156.893,115.758 157.331,116.081 C157.727,116.435 157.925,116.878 157.925,117.409 C157.925,118.305 157.466,119.143 156.55,119.925 C155.612,120.706 154.607,121.097 153.534,121.097 C152.909,121.097 152.383,120.935 151.956,120.612 C151.55,120.258 151.347,119.815 151.347,119.284 C151.347,118.388 151.815,117.55 152.753,116.768 C153.669,115.987 154.664,115.597 155.737,115.597"/>
<path class="Note" d="M155.737,120.597 C156.362,120.597 156.893,120.758 157.331,121.081 C157.727,121.435 157.925,121.878 157.925,122.409 C157.925,123.305 157.466,124.143 156.55,124.925 C155.612,125.706 154.607,126.097 153.534,126.097 C152.909,126.097 152.383,125.935 151.956,125.612 C151.55,125.258 151.347,124.815 151.347,124.284 C151.347,123.388 151.815,122.55 152.753,121.768 C153.669,120.987 154.664,120.597 155.737,120.597"/>
<path class="Note" d="M155.737,125.597 C156.362,125.597 156.893,125.758 157.331,126.081 C157.727,126.435 157.925,126.878 157.925,127.409 C157.925,128.305 157.466,129.143 156.55,129.925 C155.612,130.706 154.607,131.097 153.534,131.097 C152.909,131.097 152.383,130.935 151.956,130.612 C151.55,130.258 151.347,129.815 151.347,129.284 C151.347,128.388 151.815,127.55 152.753,126.768 C153.669,125.987 154.664,125.597 155.737,125.597"/>
<path class="Note" d="M120.901,183.097 C121.526,183.097 122.057,183.258 122.495,183.581 C122.891,183.935 123.089,184.378 123.089,184.909 C123.089,185.805 122.63,186.643 121.714,187.425 C120.776,188.206 119.771,188.597 118.698,188.597 C118.073,188.597 117.547,188.435 117.12,188.112 C116.714,187.758 116.511,187.315 116.511,186.784 C116.511,185.888 116.979,185.05 117.917,184.268 C118.833,183.487 119.828,183.097 120.901,183.097"/>
<path class="Note" d="M120.901,200.597 C121.526,200.597 122.057,200.758 122.495,201.081 C122.891,201.435 123.089,201.878 123.089,202.409 C123.089,203.305 122.63,204.143 121.714,204.925 C120.776,205.706 119.771,206.097 118.698,206.097 C118.073,206.097 117.547,205.935 117.12,205.612 C116.714,205.258 116.511,204.815 116.511,204.284 C116.511,203.388 116.979,202.55 117.917,201.768 C118.833,200.987 119.828,200.597 120.901,200.597"/>
<path class="Note" d="M120.901,108.097 C121.526,108.097 122.057,108.258 122.495,108.581 C122.891,108.935 123.089,109.378 123.089,109.909 C123.089,110.805 122.63,111.643 121.714,112.425 C120.776,113.206 119.771,113.597 118.698,113.597 C118.073,113.597 117.547,113.435 117.12,113.112 C116.714,112.758 116.511,112.315 116.511,111.784 C116.511,110.888 116.979,110.05 117.917,109.268 C118.833,108.487 119.828,108.097 120.901,108.097"/>
<path class="Note" d="M120.901,115.597 C121.526,115.597 122.057,115.758 122.495,116.081 C122.891,116.435 123.089,116.878 123.089,117.409 C123.089,118.305 122.63,119.143 121.714,119.925 C120.776,120.706 119.771,121.097 118.698,121.097 C118.073,121.097 117.547,120.935 117.12,120.612 C116.714,120.258 116.511,119.815 116.511,119.284 C116.511,118.388 116.979,117.55 117.917,116.768 C118.833,115.987 119.828,115.597 120.901,115.597"/>
<path class="Note" d="M120.901,120.597 C121.526,120.597 122.057,120.758 122.495,121.081 C122.891,121.435 123.089,121.878 123.089,122.409 C123.089,123.305 122.63,124.143 121.714,124.925 C120.776,125.706 119.771,126.097 118.698,126.097 C118.073,126.097 117.547,125.935 117.12,125.612 C116.714,125.258 116.511,124.815 116.511,124.284 C116.511,123.388 116.979,122.55 117.917,121.768 C118.833,120.987 119.828,120.597 120.901,120.597"/>
<path class="Note" d="M120.901,125.597 C121.526,125.597 122.057,125.758 122.495,126.081 C122.891,126.435 123.089,126.878 123.089,127.409 C123.089,128.305 122.63,129.143 121.714,129.925 C120.776,130.706 119.771,131.097 118.698,131.097 C118.073,131.097 117.547,130.935 117.12,130.612 C116.714,130.258 116.511,129.815 116.511,129.284 C116.511,128.388 116.979,127.55 117.917,126.768 C118.833,125.987 119.828,125.597 120.901,125.597"/>
<path class="Clef" d="M43.7761,169.065 C43.5834,168.867 43.4871,168.625 43.4871,168.339 C43.4871,168.052 43.5834,167.813 43.7761,167.62 C43.9688,167.427 44.2084,167.331 44.4949,167.331 C44.7813,167.331 45.0235,167.427 45.2215,167.62 C45.4194,167.813 45.5183,168.052 45.5183,168.339 C45.5183,168.625 45.4194,168.867 45.2215,169.065 C45.0235,169.263 44.7813,169.362 44.4949,169.362 C44.2084,169.362 43.9688,169.263 43.7761,169.065 M43.7761,174.073 C43.5834,173.88 43.4871,173.641 43.4871,173.354 C43.4871,173.068 43.5834,172.826 43.7761,172.628 C43.9688,172.43 44.2084,172.331 44.4949,172.331 C44.7813,172.331 45.0235,172.43 45.2215,172.628 C45.4194,172.826 45.5183,173.068 45.5183,173.354 C45.5183,173.641 45.4194,173.88 45.2215,174.073 C45.0235,174.266 44.7813,174.362 44.4949,174.362 C44.2084,174.362 43.9688,174.266 43.7761,174.073 M37.0027,165.597 C38.7319,165.597 40.1485,166.029 41.2527,166.893 C42.3256,167.81 42.8621,169.05 42.8621,170.612 C42.8621,171.664 42.6537,172.628 42.2371,173.503 C41.8412,174.419 41.3256,175.227 40.6902,175.925 C40.034,176.643 39.2475,177.32 38.3308,177.956 C37.4246,178.581 36.4975,179.143 35.5496,179.643 C33.6225,180.612 32.5548,181.097 32.3465,181.097 C32.1798,181.097 32.0965,181.013 32.0965,180.847 C32.0965,180.784 32.1225,180.727 32.1746,180.675 C32.8412,180.279 33.6537,179.779 34.6121,179.175 C35.2371,178.768 35.9662,178.206 36.7996,177.487 C37.6121,176.81 38.2371,176.175 38.6746,175.581 C39.1329,174.987 39.5496,174.258 39.9246,173.393 C40.2475,172.518 40.409,171.654 40.409,170.8 C40.409,169.539 40.0965,168.44 39.4715,167.503 C38.8465,166.565 38.0235,166.097 37.0027,166.097 C36.2735,166.097 35.6485,166.331 35.1277,166.8 C34.5652,167.279 34.159,167.883 33.909,168.612 C34.159,168.508 34.3881,168.456 34.5965,168.456 C35.1381,168.456 35.6069,168.654 36.0027,169.05 C36.3881,169.466 36.5808,169.94 36.5808,170.472 C36.5808,171.034 36.3933,171.539 36.0183,171.987 C35.6121,172.383 35.1381,172.581 34.5965,172.581 C34.0131,172.581 33.4871,172.383 33.0183,171.987 C32.5704,171.539 32.3465,171.034 32.3465,170.472 C32.3465,169.128 32.8048,167.982 33.7215,167.034 C34.6173,166.076 35.711,165.597 37.0027,165.597"/>
<path class="Clef" d="M39.6902,123.222 C39.6902,123.222 39.7319,123.222 39.8152,123.222 C39.8673,123.211 39.909,123.206 39.9402,123.206 C41.3985,123.206 42.5965,123.722 43.534,124.753 C44.4715,125.763 44.9402,126.945 44.9402,128.3 C44.9402,129.987 44.2475,131.357 42.8621,132.409 C42.4975,132.701 42.0183,132.935 41.4246,133.112 C41.4975,133.956 41.534,134.638 41.534,135.159 C41.534,135.263 41.5183,135.643 41.4871,136.3 C41.435,137.508 41.0183,138.555 40.2371,139.44 C39.4871,140.315 38.5496,140.753 37.4246,140.753 C36.3725,140.753 35.4767,140.383 34.7371,139.643 C33.9871,138.883 33.6121,137.972 33.6121,136.909 C33.6121,136.347 33.8308,135.867 34.2683,135.472 C34.7058,135.086 35.2162,134.893 35.7996,134.893 C36.3204,134.893 36.7579,135.097 37.1121,135.503 C37.4767,135.878 37.659,136.347 37.659,136.909 C37.659,137.409 37.4767,137.841 37.1121,138.206 C36.7475,138.57 36.31,138.753 35.7996,138.753 C35.5912,138.753 35.3933,138.716 35.2058,138.643 C35.7787,139.487 36.5392,139.909 37.4871,139.909 C38.3829,139.909 39.1173,139.544 39.6902,138.815 C40.2944,138.065 40.6225,137.185 40.6746,136.175 C40.6954,135.55 40.7058,135.195 40.7058,135.112 C40.7058,134.383 40.6798,133.784 40.6277,133.315 C39.9819,133.419 39.4037,133.472 38.8933,133.472 C37.0808,133.472 35.5392,132.753 34.2683,131.315 C33.0183,129.867 32.3933,128.149 32.3933,126.159 C32.3933,125.742 32.4298,125.32 32.5027,124.893 C32.586,124.539 32.685,124.154 32.7996,123.737 C32.8621,123.498 33.0392,123.117 33.3308,122.597 C33.435,122.44 33.5522,122.245 33.6824,122.011 C33.8126,121.776 33.9037,121.623 33.9558,121.55 C34.0808,121.289 34.3308,120.935 34.7058,120.487 C34.81,120.373 34.9194,120.245 35.034,120.104 C35.1485,119.964 35.2449,119.847 35.323,119.753 C35.4011,119.659 35.4584,119.586 35.4949,119.534 C35.5313,119.482 35.8256,119.138 36.3777,118.503 C36.5027,118.367 36.6277,118.227 36.7527,118.081 C36.8777,117.935 36.9793,117.818 37.0574,117.729 C37.1355,117.641 37.1954,117.581 37.2371,117.55 C36.7683,115.998 36.4715,114.758 36.3465,113.831 C36.2631,113.091 36.2215,112.076 36.2215,110.784 C36.2215,109.649 36.4819,108.586 37.0027,107.597 C37.5027,106.576 38.211,105.737 39.1277,105.081 C39.1902,105.039 39.2527,105.018 39.3152,105.018 C39.409,105.018 39.4767,105.039 39.5183,105.081 C40.2162,105.925 40.8204,107.024 41.3308,108.378 C41.8517,109.732 42.1121,110.966 42.1121,112.081 C42.1121,113.331 41.8152,114.503 41.2215,115.597 C40.5444,116.753 39.6694,117.951 38.5965,119.19 C38.8673,120.044 39.2319,121.388 39.6902,123.222 M41.3465,132.315 C42.0235,132.065 42.5548,131.643 42.9402,131.05 C43.3569,130.477 43.5652,129.831 43.5652,129.112 C43.5652,128.185 43.2527,127.362 42.6277,126.643 C41.9819,125.904 41.1642,125.487 40.1746,125.393 C40.7371,128.143 41.1277,130.451 41.3465,132.315 M33.7996,127.8 C33.7996,129.091 34.3204,130.227 35.3621,131.206 C36.4246,132.154 37.6225,132.628 38.9558,132.628 C39.4975,132.628 40.0287,132.586 40.5496,132.503 C40.3412,130.524 39.9298,128.154 39.3152,125.393 C38.5756,125.477 37.9871,125.737 37.5496,126.175 C37.1121,126.633 36.8933,127.149 36.8933,127.722 C36.8933,128.711 37.4246,129.513 38.4871,130.128 C38.5704,130.222 38.6121,130.32 38.6121,130.425 C38.6121,130.529 38.5704,130.623 38.4871,130.706 C38.4037,130.8 38.3048,130.847 38.1902,130.847 C38.1798,130.847 38.1225,130.836 38.0183,130.815 C37.2683,130.409 36.6954,129.888 36.2996,129.253 C35.9142,128.565 35.7215,127.878 35.7215,127.19 C35.7215,126.294 36.0027,125.482 36.5652,124.753 C37.1485,124.024 37.909,123.555 38.8465,123.347 C38.4819,121.888 38.185,120.748 37.9558,119.925 C37.7475,120.164 37.4975,120.448 37.2058,120.776 C36.9142,121.104 36.7423,121.305 36.6902,121.378 C36.2215,121.982 35.8621,122.456 35.6121,122.8 C35.1642,123.414 34.836,123.94 34.6277,124.378 C34.409,124.878 34.2162,125.419 34.0496,126.003 C33.8829,126.565 33.7996,127.164 33.7996,127.8 M40.3152,107.94 C39.336,108.419 38.5704,109.107 38.0183,110.003 C37.4454,110.93 37.159,111.925 37.159,112.987 C37.159,113.925 37.3933,115.19 37.8621,116.784 C38.7996,115.649 39.5027,114.602 39.9715,113.643 C40.461,112.623 40.7058,111.56 40.7058,110.456 C40.7058,109.623 40.5756,108.784 40.3152,107.94"/>
<path class="KeySig" d="M58.7621,182.518 L58.7621,184.065 C58.7621,184.617 58.7881,185.055 58.8402,185.378 C59.2673,185.013 59.5746,184.742 59.7621,184.565 C59.9704,184.357 60.1788,184.068 60.3871,183.698 C60.5954,183.328 60.6996,182.961 60.6996,182.597 C60.6996,182.232 60.6215,181.919 60.4652,181.659 C60.309,181.399 60.1006,181.268 59.8402,181.268 C59.5277,181.268 59.2673,181.388 59.059,181.628 C58.8611,181.888 58.7621,182.185 58.7621,182.518 M57.934,186.097 L57.684,174.206 C57.8715,174.102 58.0564,174.05 58.2387,174.05 C58.4209,174.05 58.6006,174.102 58.7777,174.206 L58.6215,181.097 C59.1527,180.638 59.7673,180.409 60.4652,180.409 C60.9652,180.409 61.3845,180.617 61.723,181.034 C62.0616,181.451 62.2308,181.93 62.2308,182.472 C62.2308,182.805 62.1215,183.164 61.9027,183.55 C61.6944,183.893 61.4756,184.164 61.2465,184.362 C61.1111,184.466 60.7777,184.727 60.2465,185.143 C60.0902,185.258 59.9053,185.393 59.6918,185.55 C59.4782,185.706 59.3454,185.805 59.2933,185.847 C59.1996,185.899 59.1111,186.003 59.0277,186.159 C58.9444,186.294 58.8402,186.404 58.7152,186.487 C58.6319,186.571 58.5251,186.612 58.3949,186.612 C58.2647,186.612 58.1579,186.565 58.0746,186.472 C57.9808,186.378 57.934,186.253 57.934,186.097"/>
<path class="KeySig" d="M53.7621,172.518 L53.7621,174.065 C53.7621,174.617 53.7881,175.055 53.8402,175.378 C54.2673,175.013 54.5746,174.742 54.7621,174.565 C54.9704,174.357 55.1788,174.068 55.3871,173.698 C55.5954,173.328 55.6996,172.961 55.6996,172.597 C55.6996,172.232 55.6215,171.919 55.4652,171.659 C55.309,171.399 55.1006,171.268 54.8402,171.268 C54.5277,171.268 54.2673,171.388 54.059,171.628 C53.861,171.888 53.7621,172.185 53.7621,172.518 M52.934,176.097 L52.684,164.206 C52.8715,164.102 53.0564,164.05 53.2387,164.05 C53.4209,164.05 53.6006,164.102 53.7777,164.206 L53.6215,171.097 C54.1527,170.638 54.7673,170.409 55.4652,170.409 C55.9652,170.409 56.3845,170.617 56.723,171.034 C57.0616,171.451 57.2308,171.93 57.2308,172.472 C57.2308,172.805 57.1215,173.164 56.9027,173.55 C56.6944,173.893 56.4756,174.164 56.2465,174.362 C56.111,174.466 55.7777,174.727 55.2465,175.143 C55.0902,175.258 54.9053,175.393 54.6918,175.55 C54.4782,175.706 54.3454,175.805 54.2933,175.847 C54.1996,175.899 54.111,176.003 54.0277,176.159 C53.9444,176.294 53.8402,176.404 53.7152,176.487 C53.6319,176.57 53.5251,176.612 53.3949,176.612 C53.2647,176.612 53.1579,176.565 53.0746,176.472 C52.9808,176.378 52.934,176.253 52.934,176.097"/>
<path class="KeySig" d="M48.7621,180.018 L48.7621,181.565 C48.7621,182.117 48.7881,182.555 48.8402,182.878 C49.2673,182.513 49.5746,182.242 49.7621,182.065 C49.9704,181.857 50.1788,181.568 50.3871,181.198 C50.5954,180.828 50.6996,180.461 50.6996,180.097 C50.6996,179.732 50.6215,179.419 50.4652,179.159 C50.309,178.899 50.1006,178.768 49.8402,178.768 C49.5277,178.768 49.2673,178.888 49.059,179.128 C48.861,179.388 48.7621,179.685 48.7621,180.018 M47.934,183.597 L47.684,171.706 C47.8715,171.602 48.0564,171.55 48.2386,171.55 C48.4209,171.55 48.6006,171.602 48.7777,171.706 L48.6215,178.597 C49.1527,178.138 49.7673,177.909 50.4652,177.909 C50.9652,177.909 51.3845,178.117 51.723,178.534 C52.0616,178.951 52.2308,179.43 52.2308,179.972 C52.2308,180.305 52.1215,180.664 51.9027,181.05 C51.6944,181.393 51.4756,181.664 51.2465,181.862 C51.111,181.966 50.7777,182.227 50.2465,182.643 C50.0902,182.758 49.9053,182.893 49.6918,183.05 C49.4782,183.206 49.3454,183.305 49.2933,183.347 C49.1996,183.399 49.111,183.503 49.0277,183.659 C48.9444,183.794 48.8402,183.904 48.7152,183.987 C48.6319,184.071 48.5251,184.112 48.3949,184.112 C48.2647,184.112 48.1579,184.065 48.0746,183.972 C47.9808,183.878 47.934,183.753 47.934,183.597"/>
<path class="KeySig" d="M58.7621,125.018 L58.7621,126.565 C58.7621,127.117 58.7881,127.555 58.8402,127.878 C59.2673,127.513 59.5746,127.242 59.7621,127.065 C59.9704,126.857 60.1788,126.568 60.3871,126.198 C60.5954,125.828 60.6996,125.461 60.6996,125.097 C60.6996,124.732 60.6215,124.419 60.4652,124.159 C60.309,123.899 60.1006,123.768 59.8402,123.768 C59.5277,123.768 59.2673,123.888 59.059,124.128 C58.8611,124.388 58.7621,124.685 58.7621,125.018 M57.934,128.597 L57.684,116.706 C57.8715,116.602 58.0564,116.55 58.2387,116.55 C58.4209,116.55 58.6006,116.602 58.7777,116.706 L58.6215,123.597 C59.1527,123.138 59.7673,122.909 60.4652,122.909 C60.9652,122.909 61.3845,123.117 61.723,123.534 C62.0616,123.951 62.2308,124.43 62.2308,124.972 C62.2308,125.305 62.1215,125.664 61.9027,126.05 C61.6944,126.393 61.4756,126.664 61.2465,126.862 C61.1111,126.966 60.7777,127.227 60.2465,127.643 C60.0902,127.758 59.9053,127.893 59.6918,128.05 C59.4782,128.206 59.3454,128.305 59.2933,128.347 C59.1996,128.399 59.1111,128.503 59.0277,128.659 C58.9444,128.794 58.8402,128.904 58.7152,128.987 C58.6319,129.07 58.5251,129.112 58.3949,129.112 C58.2647,129.112 58.1579,129.065 58.0746,128.972 C57.9808,128.878 57.934,128.753 57.934,128.597"/>
<path class="KeySig" d="M53.7621,115.018 L53.7621,116.565 C53.7621,117.117 53.7881,117.555 53.8402,117.878 C54.2673,117.513 54.5746,117.242 54.7621,117.065 C54.9704,116.857 55.1788,116.568 55.3871,116.198 C55.5954,115.828 55.6996,115.461 55.6996,115.097 C55.6996,114.732 55.6215,114.419 55.4652,114.159 C55.309,113.899 55.1006,113.768 54.8402,113.768 C54.5277,113.768 54.2673,113.888 54.059,114.128 C53.861,114.388 53.7621,114.685 53.7621,115.018 M52.934,118.597 L52.684,106.706 C52.8715,106.602 53.0564,106.55 53.2387,106.55 C53.4209,106.55 53.6006,106.602 53.7777,106.706 L53.6215,113.597 C54.1527,113.138 54.7673,112.909 55.4652,112.909 C55.9652,112.909 56.3845,113.117 56.723,113.534 C57.0616,113.951 57.2308,114.43 57.2308,114.972 C57.2308,115.305 57.1215,115.664 56.9027,116.05 C56.6944,116.393 56.4756,116.664 56.2465,116.862 C56.111,116.966 55.7777,117.227 55.2465,117.643 C55.0902,117.758 54.9053,117.893 54.6918,118.05 C54.4782,118.206 54.3454,118.305 54.2933,118.347 C54.1996,118.399 54.111,118.503 54.0277,118.659 C53.9444,118.794 53.8402,118.904 53.7152,118.987 C53.6319,119.07 53.5251,119.112 53.3949,119.112 C53.2647,119.112 53.1579,119.065 53.0746,118.972 C52.9808,118.878 52.934,118.753 52.934,118.597"/>
<path class="KeySig" d="M48.7621,122.518 L48.7621,124.065 C48.7621,124.617 48.7881,125.055 48.8402,125.378 C49.2673,125.013 49.5746,124.742 49.7621,124.565 C49.9704,124.357 50.1788,124.068 50.3871,123.698 C50.5954,123.328 50.6996,122.961 50.6996,122.597 C50.6996,122.232 50.6215,121.919 50.4652,121.659 C50.309,121.399 50.1006,121.268 49.8402,121.268 C49.5277,121.268 49.2673,121.388 49.059,121.628 C48.861,121.888 48.7621,122.185 48.7621,122.518 M47.934,126.097 L47.684,114.206 C47.8715,114.102 48.0564,114.05 48.2386,114.05 C48.4209,114.05 48.6006,114.102 48.7777,114.206 L48.6215,121.097 C49.1527,120.638 49.7673,120.409 50.4652,120.409 C50.9652,120.409 51.3845,120.617 51.723,121.034 C52.0616,121.451 52.2308,121.93 52.2308,122.472 C52.2308,122.805 52.1215,123.164 51.9027,123.55 C51.6944,123.893 51.4756,124.164 51.2465,124.362 C51.111,124.466 50.7777,124.727 50.2465,125.143 C50.0902,125.258 49.9053,125.393 49.6918,125.55 C49.4782,125.706 49.3454,125.805 49.2933,125.847 C49.1996,125.899 49.111,126.003 49.0277,126.159 C48.9444,126.294 48.8402,126.404 48.7152,126.487 C48.6319,126.57 48.5251,126.612 48.3949,126.612 C48.2647,126.612 48.1579,126.565 48.0746,126.472 C47.9808,126.378 47.934,126.253 47.934,126.097"/>
<path class="TimeSig" d="M69.7465,175.847 C69.3506,175.847 68.9965,175.776 68.684,175.636 C68.3715,175.495 68.1527,175.347 68.0277,175.19 C67.8506,174.992 67.6788,174.841 67.5121,174.737 C67.3038,174.591 67.0902,174.518 66.8715,174.518 C66.5277,174.518 66.2465,174.623 66.0277,174.831 C65.7986,175.029 65.6683,175.294 65.6371,175.628 C65.6163,175.774 65.5381,175.847 65.4027,175.847 C65.2465,175.847 65.1683,175.774 65.1683,175.628 C65.1683,175.128 65.2881,174.675 65.5277,174.268 C65.7569,173.852 66.0433,173.508 66.3871,173.237 C66.6683,172.987 67.0433,172.685 67.5121,172.331 C67.5954,172.268 67.7621,172.133 68.0121,171.925 C68.2621,171.716 68.4756,171.539 68.6527,171.393 C68.9861,171.112 69.2777,170.732 69.5277,170.253 C69.7569,169.784 69.8715,169.279 69.8715,168.737 C69.8715,168.07 69.7621,167.498 69.5433,167.018 C69.3142,166.55 68.9548,166.315 68.4652,166.315 C68.1736,166.315 67.934,166.378 67.7465,166.503 C67.5486,166.638 67.4496,166.815 67.4496,167.034 C67.4496,167.222 67.5668,167.451 67.8012,167.722 C68.0355,167.992 68.1527,168.222 68.1527,168.409 C68.1527,168.794 68.0173,169.123 67.7465,169.393 C67.4861,169.654 67.1683,169.784 66.7933,169.784 C66.3975,169.784 66.0642,169.649 65.7933,169.378 C65.5329,169.097 65.4027,168.774 65.4027,168.409 C65.4027,167.659 65.7022,167.044 66.3012,166.565 C66.9001,166.086 67.6215,165.847 68.4652,165.847 C69.4756,165.847 70.3506,166.117 71.0902,166.659 C71.8298,167.18 72.1996,167.873 72.1996,168.737 C72.1996,169.32 72.0954,169.82 71.8871,170.237 C71.6892,170.685 71.3975,171.034 71.0121,171.284 C70.5642,171.565 70.1788,171.784 69.8558,171.94 C69.3975,172.149 68.9444,172.347 68.4965,172.534 C67.9444,172.753 67.5173,172.961 67.2152,173.159 C67.3923,173.117 67.5694,173.097 67.7465,173.097 C68.3506,173.097 68.9756,173.289 69.6215,173.675 C70.2881,174.07 70.8038,174.268 71.1683,174.268 C71.3871,174.268 71.5642,174.227 71.6996,174.143 C71.8246,174.07 71.9079,173.987 71.9496,173.893 C72.0017,173.768 72.0486,173.68 72.0902,173.628 C72.1423,173.544 72.2048,173.503 72.2777,173.503 C72.434,173.503 72.5121,173.581 72.5121,173.737 C72.5121,174.102 72.2517,174.544 71.7308,175.065 C71.2204,175.586 70.559,175.847 69.7465,175.847"/>
<path class="TimeSig" d="M69.3246,176.097 C69.71,176.097 70.0407,176.052 70.3168,175.964 C70.5928,175.875 70.7673,175.831 70.8402,175.831 C70.934,175.831 71.0069,175.857 71.059,175.909 C71.1006,175.94 71.1267,175.982 71.1371,176.034 C71.1371,176.065 71.1215,176.107 71.0902,176.159 L65.4183,182.768 L68.7465,182.768 L68.7465,180.143 C68.7465,179.977 68.7933,179.831 68.8871,179.706 C69.0433,179.581 69.1736,179.503 69.2777,179.472 C69.4444,179.399 69.6527,179.216 69.9027,178.925 C70.1111,178.696 70.3611,178.289 70.6527,177.706 C70.684,177.623 70.7413,177.581 70.8246,177.581 C70.9808,177.581 71.0694,177.675 71.0902,177.862 L71.0902,182.768 L72.5277,182.768 C72.7048,182.768 72.809,182.862 72.8402,183.05 C72.8402,183.248 72.7361,183.347 72.5277,183.347 L71.0902,183.347 L71.0902,183.503 C71.0902,184.024 71.2204,184.466 71.4808,184.831 C71.7829,185.196 72.1371,185.378 72.5433,185.378 C72.6996,185.378 72.7777,185.456 72.7777,185.612 C72.7777,185.768 72.6996,185.847 72.5433,185.847 C72.2725,185.847 71.8298,185.81 71.2152,185.737 C70.6527,185.643 70.2152,185.597 69.9027,185.597 C69.5798,185.597 69.1423,185.643 68.5902,185.737 C68.0069,185.81 67.5746,185.847 67.2933,185.847 C67.1371,185.847 67.059,185.768 67.059,185.612 C67.059,185.456 67.1371,185.378 67.2933,185.378 C67.6892,185.378 68.0381,185.196 68.3402,184.831 C68.6111,184.466 68.7465,184.024 68.7465,183.503 L68.7465,183.347 L65.4183,183.347 C65.1892,183.347 65.0329,183.294 64.9496,183.19 C64.835,183.117 64.7777,183.013 64.7777,182.878 C64.7777,182.836 64.8767,182.701 65.0746,182.472 C65.3038,182.211 65.5381,181.893 65.7777,181.518 C66.0694,181.071 66.3454,180.612 66.6058,180.143 C66.8871,179.612 67.1163,178.998 67.2933,178.3 C67.4808,177.602 67.5746,176.888 67.5746,176.159 C67.5746,175.951 67.6683,175.847 67.8558,175.847 C67.8975,175.847 67.9808,175.867 68.1058,175.909 C68.1475,175.919 68.2308,175.938 68.3558,175.964 C68.4808,175.99 68.5798,176.013 68.6527,176.034 C68.8923,176.076 69.1163,176.097 69.3246,176.097"/>
<path class="TimeSig" d="M69.7465,123.347 C69.3506,123.347 68.9965,123.276 68.684,123.136 C68.3715,122.995 68.1527,122.847 68.0277,122.69 C67.8506,122.492 67.6788,122.341 67.5121,122.237 C67.3038,122.091 67.0902,122.018 66.8715,122.018 C66.5277,122.018 66.2465,122.123 66.0277,122.331 C65.7986,122.529 65.6683,122.794 65.6371,123.128 C65.6163,123.274 65.5381,123.347 65.4027,123.347 C65.2465,123.347 65.1683,123.274 65.1683,123.128 C65.1683,122.628 65.2881,122.175 65.5277,121.768 C65.7569,121.352 66.0433,121.008 66.3871,120.737 C66.6683,120.487 67.0433,120.185 67.5121,119.831 C67.5954,119.768 67.7621,119.633 68.0121,119.425 C68.2621,119.216 68.4756,119.039 68.6527,118.893 C68.9861,118.612 69.2777,118.232 69.5277,117.753 C69.7569,117.284 69.8715,116.779 69.8715,116.237 C69.8715,115.57 69.7621,114.998 69.5433,114.518 C69.3142,114.05 68.9548,113.815 68.4652,113.815 C68.1736,113.815 67.934,113.878 67.7465,114.003 C67.5486,114.138 67.4496,114.315 67.4496,114.534 C67.4496,114.722 67.5668,114.951 67.8012,115.222 C68.0355,115.492 68.1527,115.722 68.1527,115.909 C68.1527,116.294 68.0173,116.623 67.7465,116.893 C67.4861,117.154 67.1683,117.284 66.7933,117.284 C66.3975,117.284 66.0642,117.149 65.7933,116.878 C65.5329,116.597 65.4027,116.274 65.4027,115.909 C65.4027,115.159 65.7022,114.544 66.3012,114.065 C66.9001,113.586 67.6215,113.347 68.4652,113.347 C69.4756,113.347 70.3506,113.617 71.0902,114.159 C71.8298,114.68 72.1996,115.373 72.1996,116.237 C72.1996,116.82 72.0954,117.32 71.8871,117.737 C71.6892,118.185 71.3975,118.534 71.0121,118.784 C70.5642,119.065 70.1788,119.284 69.8558,119.44 C69.3975,119.649 68.9444,119.847 68.4965,120.034 C67.9444,120.253 67.5173,120.461 67.2152,120.659 C67.3923,120.617 67.5694,120.597 67.7465,120.597 C68.3506,120.597 68.9756,120.789 69.6215,121.175 C70.2881,121.57 70.8038,121.768 71.1683,121.768 C71.3871,121.768 71.5642,121.727 71.6996,121.643 C71.8246,121.57 71.9079,121.487 71.9496,121.393 C72.0017,121.268 72.0486,121.18 72.0902,121.128 C72.1423,121.044 72.2048,121.003 72.2777,121.003 C72.434,121.003 72.5121,121.081 72.5121,121.237 C72.5121,121.602 72.2517,122.044 71.7308,122.565 C71.2204,123.086 70.559,123.347 69.7465,123.347"/>
<path class="TimeSig" d="M69.3246,123.597 C69.71,123.597 70.0407,123.552 70.3168,123.464 C70.5928,123.375 70.7673,123.331 70.8402,123.331 C70.934,123.331 71.0069,123.357 71.059,123.409 C71.1006,123.44 71.1267,123.482 71.1371,123.534 C71.1371,123.565 71.1215,123.607 71.0902,123.659 L65.4183,130.268 L68.7465,130.268 L68.7465,127.643 C68.7465,127.477 68.7933,127.331 68.8871,127.206 C69.0433,127.081 69.1736,127.003 69.2777,126.972 C69.4444,126.899 69.6527,126.716 69.9027,126.425 C70.1111,126.195 70.3611,125.789 70.6527,125.206 C70.684,125.123 70.7413,125.081 70.8246,125.081 C70.9808,125.081 71.0694,125.175 71.0902,125.362 L71.0902,130.268 L72.5277,130.268 C72.7048,130.268 72.809,130.362 72.8402,130.55 C72.8402,130.748 72.7361,130.847 72.5277,130.847 L71.0902,130.847 L71.0902,131.003 C71.0902,131.524 71.2204,131.966 71.4808,132.331 C71.7829,132.695 72.1371,132.878 72.5433,132.878 C72.6996,132.878 72.7777,132.956 72.7777,133.112 C72.7777,133.268 72.6996,133.347 72.5433,133.347 C72.2725,133.347 71.8298,133.31 71.2152,133.237 C70.6527,133.143 70.2152,133.097 69.9027,133.097 C69.5798,133.097 69.1423,133.143 68.5902,133.237 C68.0069,133.31 67.5746,133.347 67.2933,133.347 C67.1371,133.347 67.059,133.268 67.059,133.112 C67.059,132.956 67.1371,132.878 67.2933,132.878 C67.6892,132.878 68.0381,132.695 68.3402,132.331 C68.6111,131.966 68.7465,131.524 68.7465,131.003 L68.7465,130.847 L65.4183,130.847 C65.1892,130.847 65.0329,130.794 64.9496,130.69 C64.835,130.617 64.7777,130.513 64.7777,130.378 C64.7777,130.336 64.8767,130.201 65.0746,129.972 C65.3038,129.711 65.5381,129.393 65.7777,129.018 C66.0694,128.57 66.3454,128.112 66.6058,127.643 C66.8871,127.112 67.1163,126.498 67.2933,125.8 C67.4808,125.102 67.5746,124.388 67.5746,123.659 C67.5746,123.451 67.6683,123.347 67.8558,123.347 C67.8975,123.347 67.9808,123.367 68.1058,123.409 C68.1475,123.419 68.2308,123.438 68.3558,123.464 C68.4808,123.49 68.5798,123.513 68.6527,123.534 C68.8923,123.576 69.1163,123.597 69.3246,123.597"/>
<path class="Rest" d="M509.904,173.972 L502.795,173.972 C502.66,173.972 502.592,173.909 502.592,173.784 L502.592,171.05 C502.592,170.914 502.66,170.847 502.795,170.847 L509.904,170.847 C510.029,170.847 510.092,170.914 510.092,171.05 L510.092,173.784 C510.092,173.909 510.029,173.972 509.904,173.972"/>
<path class="Rest" d="M509.904,121.472 L502.795,121.472 C502.66,121.472 502.592,121.409 502.592,121.284 L502.592,118.55 C502.592,118.414 502.66,118.347 502.795,118.347 L509.904,118.347 C510.029,118.347 510.092,118.414 510.092,118.55 L510.092,121.284 C510.092,121.409 510.029,121.472 509.904,121.472"/>
<path class="Rest" d="M398.201,173.972 L391.092,173.972 C390.957,173.972 390.889,173.909 390.889,173.784 L390.889,171.05 C390.889,170.914 390.957,170.847 391.092,170.847 L398.201,170.847 C398.326,170.847 398.389,170.914 398.389,171.05 L398.389,173.784 C398.389,173.909 398.326,173.972 398.201,173.972"/>
<path class="Rest" d="M398.201,121.472 L391.092,121.472 C390.957,121.472 390.889,121.409 390.889,121.284 L390.889,118.55 C390.889,118.414 390.957,118.347 391.092,118.347 L398.201,118.347 C398.326,118.347 398.389,118.414 398.389,118.55 L398.389,121.284 C398.389,121.409 398.326,121.472 398.201,121.472"/>
<path class="Rest" d="M282.978,174.284 C282.978,174.044 283.113,173.784 283.384,173.503 C283.572,173.294 283.858,173.044 284.243,172.753 C284.525,172.565 284.801,172.274 285.072,171.878 C285.332,171.503 285.462,171.091 285.462,170.643 C285.462,170.123 285.296,169.664 284.962,169.268 L284.259,168.425 C284.207,168.373 284.181,168.307 284.181,168.229 C284.181,168.151 284.217,168.081 284.29,168.018 C284.384,167.946 284.462,167.909 284.525,167.909 C284.618,167.909 284.691,167.951 284.743,168.034 L287.775,171.628 C287.9,171.794 287.962,171.961 287.962,172.128 C287.962,172.367 287.832,172.628 287.572,172.909 C287.405,173.097 287.129,173.347 286.743,173.659 C286.441,173.836 286.155,174.128 285.884,174.534 C285.624,174.909 285.493,175.321 285.493,175.768 C285.493,176.321 285.65,176.784 285.962,177.159 L287.634,179.128 C287.676,179.169 287.707,179.237 287.728,179.331 C287.728,179.414 287.697,179.492 287.634,179.565 C287.54,179.628 287.462,179.659 287.4,179.659 C287.379,179.659 287.275,179.586 287.087,179.44 C286.889,179.284 286.629,179.133 286.306,178.987 C285.941,178.852 285.582,178.784 285.228,178.784 C284.905,178.784 284.639,178.873 284.431,179.05 C284.254,179.237 284.165,179.591 284.165,180.112 C284.165,180.904 284.353,181.529 284.728,181.987 C284.769,182.039 284.775,182.102 284.743,182.175 C284.723,182.227 284.676,182.253 284.603,182.253 C284.519,182.253 284.322,182.018 284.009,181.55 C283.676,181.06 283.368,180.492 283.087,179.847 C282.785,179.169 282.634,178.612 282.634,178.175 C282.634,177.612 282.9,177.331 283.431,177.331 C284.046,177.331 284.842,177.539 285.822,177.956 L283.181,174.784 C283.046,174.617 282.978,174.451 282.978,174.284"/>
<path class="Rest" d="M282.978,121.784 C282.978,121.544 283.113,121.284 283.384,121.003 C283.572,120.794 283.858,120.544 284.243,120.253 C284.525,120.065 284.801,119.774 285.072,119.378 C285.332,119.003 285.462,118.591 285.462,118.143 C285.462,117.623 285.296,117.164 284.962,116.768 L284.259,115.925 C284.207,115.873 284.181,115.807 284.181,115.729 C284.181,115.651 284.217,115.581 284.29,115.518 C284.384,115.445 284.462,115.409 284.525,115.409 C284.618,115.409 284.691,115.451 284.743,115.534 L287.775,119.128 C287.9,119.294 287.962,119.461 287.962,119.628 C287.962,119.867 287.832,120.128 287.572,120.409 C287.405,120.597 287.129,120.847 286.743,121.159 C286.441,121.336 286.155,121.628 285.884,122.034 C285.624,122.409 285.493,122.82 285.493,123.268 C285.493,123.82 285.65,124.284 285.962,124.659 L287.634,126.628 C287.676,126.669 287.707,126.737 287.728,126.831 C287.728,126.914 287.697,126.992 287.634,127.065 C287.54,127.128 287.462,127.159 287.4,127.159 C287.379,127.159 287.275,127.086 287.087,126.94 C286.889,126.784 286.629,126.633 286.306,126.487 C285.941,126.352 285.582,126.284 285.228,126.284 C284.905,126.284 284.639,126.373 284.431,126.55 C284.254,126.737 284.165,127.091 284.165,127.612 C284.165,128.404 284.353,129.029 284.728,129.487 C284.769,129.539 284.775,129.602 284.743,129.675 C284.723,129.727 284.676,129.753 284.603,129.753 C284.519,129.753 284.322,129.518 284.009,129.05 C283.676,128.56 283.368,127.992 283.087,127.347 C282.785,126.669 282.634,126.112 282.634,125.675 C282.634,125.112 282.9,124.831 283.431,124.831 C284.046,124.831 284.842,125.039 285.822,125.456 L283.181,122.284 C283.046,122.117 282.978,121.951 282.978,121.784"/>
<path class="Rest" d="M83.0809,171.737 C83.4559,171.737 83.7423,171.841 83.9402,172.05 C84.1382,172.289 84.2423,172.513 84.2527,172.722 C84.284,172.919 84.3517,173.138 84.4559,173.378 C84.5704,173.586 84.7163,173.69 84.8934,173.69 C85.0392,173.69 85.2579,173.529 85.5496,173.206 C85.81,172.925 85.9975,172.669 86.1121,172.44 C86.1746,172.315 86.2632,172.253 86.3777,172.253 L86.409,172.253 C86.534,172.263 86.6225,172.326 86.6746,172.44 L84.2215,180.847 C84.0861,180.982 83.9012,181.05 83.6668,181.05 C83.4324,181.05 83.2527,180.982 83.1277,180.847 L85.4715,174.315 C84.6382,174.617 83.935,174.768 83.3621,174.768 C82.8934,174.768 82.4871,174.617 82.1434,174.315 C81.7892,174.034 81.6121,173.659 81.6121,173.19 C81.6121,172.784 81.7579,172.446 82.0496,172.175 C82.3309,171.883 82.6746,171.737 83.0809,171.737"/>
<path class="Rest" d="M83.0809,119.237 C83.4559,119.237 83.7423,119.341 83.9402,119.55 C84.1382,119.789 84.2423,120.013 84.2527,120.222 C84.284,120.419 84.3517,120.638 84.4559,120.878 C84.5704,121.086 84.7163,121.19 84.8934,121.19 C85.0392,121.19 85.2579,121.029 85.5496,120.706 C85.81,120.425 85.9975,120.169 86.1121,119.94 C86.1746,119.815 86.2632,119.753 86.3777,119.753 L86.409,119.753 C86.534,119.763 86.6225,119.826 86.6746,119.94 L84.2215,128.347 C84.0861,128.482 83.9012,128.55 83.6668,128.55 C83.4324,128.55 83.2527,128.482 83.1277,128.347 L85.4715,121.815 C84.6382,122.117 83.935,122.268 83.3621,122.268 C82.8934,122.268 82.4871,122.117 82.1434,121.815 C81.7892,121.534 81.6121,121.159 81.6121,120.69 C81.6121,120.284 81.7579,119.945 82.0496,119.675 C82.3309,119.383 82.6746,119.237 83.0809,119.237"/>
<path class="Beam" fill-rule="evenodd" d="M157.279,169.597 L192.765,169.597 L192.765,172.097 L157.279,172.097 L157.279,169.597 "/>
<path class="Beam" fill-rule="evenodd" d="M151.347,140.847 L186.832,140.847 L186.832,143.347 L151.347,143.347 L151.347,140.847 "/>
<path class="Hook" d="M122.443,173.347 L122.443,168.347 L123.068,168.347 C123.068,169.086 123.214,169.831 123.506,170.581 C123.818,171.383 124.162,172.086 124.537,172.69 C124.808,173.117 125.219,173.774 125.772,174.659 C126.188,175.336 126.54,176.044 126.826,176.784 C127.113,177.524 127.256,178.268 127.256,179.018 C127.256,180.373 126.975,181.753 126.412,183.159 C126.318,183.315 126.193,183.393 126.037,183.393 C125.912,183.393 125.798,183.341 125.693,183.237 C125.61,183.154 125.568,183.055 125.568,182.94 L125.568,182.847 C126.131,181.555 126.412,180.279 126.412,179.018 C126.412,178.362 126.214,177.659 125.818,176.909 C125.433,176.138 125.037,175.524 124.631,175.065 C124.173,174.534 123.652,173.961 123.068,173.347 L122.443,173.347 "/>
<path class="Hook" d="M121.057,131.378 C121.36,131.378 121.682,131.862 122.026,132.831 C122.349,133.8 122.511,134.722 122.511,135.597 C122.511,136.336 122.328,137.07 121.964,137.8 C121.589,138.581 121.141,139.258 120.62,139.831 L119.011,141.628 C118.521,142.201 118.078,142.862 117.682,143.612 C117.318,144.341 117.136,145.086 117.136,145.847 L116.511,145.847 L116.511,140.847 L117.136,140.847 C117.49,140.628 118.011,140.274 118.698,139.784 C119.011,139.555 119.479,139.164 120.104,138.612 C120.615,138.143 121,137.664 121.261,137.175 C121.531,136.654 121.667,136.128 121.667,135.597 C121.667,134.357 121.307,133.123 120.589,131.893 C120.589,131.893 120.589,131.867 120.589,131.815 C120.589,131.701 120.63,131.607 120.714,131.534 C120.818,131.43 120.932,131.378 121.057,131.378"/>
</svg>
