<?xml version="1.0" encoding="UTF-8" standalone="no"?>
<svg width="595.44px" height="841.68px" viewBox="0 0 595.44 841.68"
 xmlns="http://www.w3.org/2000/svg" xmlns:xlink="http://www.w3.org/1999/xlink" version="1.2" baseProfile="tiny">
<title>Motiv</title>
<desc>Generated by MuseScore 2.0.3</desc>
<polyline class="StaffLines" fill="none" stroke="#000000" stroke-width="0.40" stroke-linejoin="bevel" points="38.8465,113.347 567.094,113.347"/>
<polyline class="StaffLines" fill="none" stroke="#000000" stroke-width="0.40" stroke-linejoin="bevel" points="38.8465,118.347 567.094,118.347"/>
<polyline class="StaffLines" fill="none" stroke="#000000" stroke-width="0.40" stroke-linejoin="bevel" points="38.8465,123.347 567.094,123.347"/>
<polyline class="StaffLines" fill="none" stroke="#000000" stroke-width="0.40" stroke-linejoin="bevel" points="38.8465,128.347 567.094,128.347"/>
<polyline class="StaffLines" fill="none" stroke="#000000" stroke-width="0.40" stroke-linejoin="bevel" points="38.8465,133.347 567.094,133.347"/>
<polyline class="StaffLines" fill="none" stroke="#000000" stroke-width="0.40" stroke-linejoin="bevel" points="38.8465,165.847 567.094,165.847"/>
<polyline class="StaffLines" fill="none" stroke="#000000" stroke-width="0.40" stroke-linejoin="bevel" points="38.8465,170.847 567.094,170.847"/>
<polyline class="StaffLines" fill="none" stroke="#000000" stroke-width="0.40" stroke-linejoin="bevel" points="38.8465,175.847 567.094,175.847"/>
<polyline class="StaffLines" fill="none" stroke="#000000" stroke-width="0.40" stroke-linejoin="bevel" points="38.8465,180.847 567.094,180.847"/>
<polyline class="StaffLines" fill="none" stroke="#000000" stroke-width="0.40" stroke-linejoin="bevel" points="38.8465,185.847 567.094,185.847"/>
<polyline class="BarLine" fill="none" stroke="#000000" stroke-width="0.80" stroke-linejoin="bevel" points="39.2465,113.347 39.2465,185.847"/>
<polyline class="BarLine" fill="none" stroke="#000000" stroke-width="0.80" stroke-linejoin="bevel" points="562.194,113.347 562.194,185.847"/>
<polyline class="BarLine" fill="none" stroke="#000000" stroke-width="2.50" stroke-linejoin="bevel" points="565.844,113.347 565.844,185.847"/>
<polyline class="BarLine" fill="none" stroke="#000000" stroke-width="0.80" stroke-linejoin="bevel" points="444.953,113.347 444.953,185.847"/>
<polyline class="BarLine" fill="none" stroke="#000000" stroke-width="0.80" stroke-linejoin="bevel" points="327.712,113.347 327.712,185.847"/>
<polyline class="BarLine" fill="none" stroke="#000000" stroke-width="0.80" stroke-linejoin="bevel" points="210.472,113.347 210.472,185.847"/>
<path class="Accidental" d="M75.0449,122.518 L75.0449,124.065 C75.0449,124.617 75.071,125.055 75.123,125.378 C75.5501,125.013 75.8574,124.742 76.0449,124.565 C76.2533,124.357 76.4616,124.068 76.6699,123.698 C76.8783,123.328 76.9824,122.961 76.9824,122.597 C76.9824,122.232 76.9043,121.919 76.748,121.659 C76.5918,121.399 76.3835,121.268 76.123,121.268 C75.8105,121.268 75.5501,121.388 75.3418,121.628 C75.1439,121.888 75.0449,122.185 75.0449,122.518 M74.2168,126.097 L73.9668,114.206 C74.1543,114.102 74.3392,114.05 74.5215,114.05 C74.7038,114.05 74.8835,114.102 75.0605,114.206 L74.9043,121.097 C75.4355,120.638 76.0501,120.409 76.748,120.409 C77.248,120.409 77.6673,120.617 78.0059,121.034 C78.3444,121.451 78.5137,121.93 78.5137,122.472 C78.5137,122.805 78.4043,123.164 78.1855,123.55 C77.9772,123.893 77.7585,124.164 77.5293,124.362 C77.3939,124.466 77.0605,124.727 76.5293,125.143 C76.373,125.258 76.1881,125.393 75.9746,125.55 C75.7611,125.706 75.6283,125.805 75.5762,125.847 C75.4824,125.899 75.3939,126.003 75.3105,126.159 C75.2272,126.294 75.123,126.404 74.998,126.487 C74.9147,126.57 74.8079,126.612 74.6777,126.612 C74.5475,126.612 74.4408,126.565 74.3574,126.472 C74.2637,126.378 74.2168,126.253 74.2168,126.097"/>
<polyline class="Stem" fill="none" stroke="#000000" stroke-width="0.65" stroke-linecap="round" stroke-linejoin="bevel" points="135.495,187.407 135.495,152.722"/>
<polyline class="Stem" fill="none" stroke="#000000" stroke-width="0.65" stroke-linecap="round" stroke-linejoin="bevel" points="129.562,114.286 129.562,143.347"/>
<polyline class="Stem" fill="none" stroke="#000000" stroke-width="0.65" stroke-linecap="round" stroke-linejoin="bevel" points="79.9824,169.131 79.9824,193.347"/>
<polyline class="Stem" fill="none" stroke="#000000" stroke-width="0.65" stroke-linecap="round" stroke-linejoin="bevel" points="79.9824,116.631 79.9824,138.972"/>
<path class="Note" d="M133.627,163.097 C134.252,163.097 134.784,163.258 135.221,163.581 C135.617,163.935 135.815,164.378 135.815,164.909 C135.815,165.805 135.357,166.643 134.44,167.425 C133.502,168.206 132.497,168.597 131.424,168.597 C130.799,168.597 130.273,168.435 129.846,168.112 C129.44,167.758 129.237,167.315 129.237,166.784 C129.237,165.888 129.706,165.05 130.643,164.268 C131.56,163.487 132.555,163.097 133.627,163.097"/>
<path class="Note" d="M133.627,185.597 C134.252,185.597 134.784,185.758 135.221,186.081 C135.617,186.435 135.815,186.878 135.815,187.409 C135.815,188.305 135.357,189.143 134.44,189.925 C133.502,190.706 132.497,191.097 131.424,191.097 C130.799,191.097 130.273,190.935 129.846,190.612 C129.44,190.258 129.237,189.815 129.237,189.284 C129.237,188.388 129.706,187.55 130.643,186.768 C131.56,185.987 132.555,185.597 133.627,185.597"/>
<path class="Note" d="M133.627,110.597 C134.252,110.597 134.784,110.758 135.221,111.081 C135.617,111.435 135.815,111.878 135.815,112.409 C135.815,113.305 135.357,114.143 134.44,114.925 C133.502,115.706 132.497,116.097 131.424,116.097 C130.799,116.097 130.273,115.935 129.846,115.612 C129.44,115.258 129.237,114.815 129.237,114.284 C129.237,113.388 129.706,112.55 130.643,111.768 C131.56,110.987 132.555,110.597 133.627,110.597"/>
<path class="Note" d="M133.627,123.097 C134.252,123.097 134.784,123.258 135.221,123.581 C135.617,123.935 135.815,124.378 135.815,124.909 C135.815,125.805 135.357,126.643 134.44,127.425 C133.502,128.206 132.497,128.597 131.424,128.597 C130.799,128.597 130.273,128.435 129.846,128.112 C129.44,127.758 129.237,127.315 129.237,126.784 C129.237,125.888 129.706,125.05 130.643,124.268 C131.56,123.487 132.555,123.097 133.627,123.097"/>
<path class="Note" d="M85.9699,167.034 C85.9699,166.815 85.8866,166.628 85.7199,166.472 C85.5428,166.305 85.3449,166.222 85.1262,166.222 C84.7408,166.222 83.9543,166.612 82.7668,167.393 C81.5376,168.185 80.7876,168.753 80.5168,169.097 C80.371,169.274 80.298,169.461 80.298,169.659 C80.298,169.878 80.3866,170.065 80.5637,170.222 C80.7199,170.388 80.9126,170.472 81.1418,170.472 C81.5168,170.472 82.3137,170.081 83.5324,169.3 C84.7303,168.518 85.4699,167.951 85.7512,167.597 C85.897,167.43 85.9699,167.242 85.9699,167.034 M84.9387,165.597 C86.0533,165.597 86.6105,166.076 86.6105,167.034 C86.6105,167.503 86.4751,168.05 86.2043,168.675 C85.9335,169.289 85.5689,169.758 85.1105,170.081 C84.1105,170.758 82.8553,171.097 81.3449,171.097 C80.2199,171.097 79.6574,170.617 79.6574,169.659 C79.6574,169.232 79.7928,168.69 80.0637,168.034 C80.3241,167.409 80.6887,166.935 81.1574,166.612 C82.1678,165.935 83.4283,165.597 84.9387,165.597"/>
<path class="Note" d="M85.9699,177.034 C85.9699,176.815 85.8866,176.628 85.7199,176.472 C85.5428,176.305 85.3449,176.222 85.1262,176.222 C84.7408,176.222 83.9543,176.612 82.7668,177.393 C81.5376,178.185 80.7876,178.753 80.5168,179.097 C80.371,179.274 80.298,179.461 80.298,179.659 C80.298,179.878 80.3866,180.065 80.5637,180.222 C80.7199,180.388 80.9126,180.472 81.1418,180.472 C81.5168,180.472 82.3137,180.081 83.5324,179.3 C84.7303,178.518 85.4699,177.951 85.7512,177.597 C85.897,177.43 85.9699,177.242 85.9699,177.034 M84.9387,175.597 C86.0533,175.597 86.6105,176.076 86.6105,177.034 C86.6105,177.503 86.4751,178.05 86.2043,178.675 C85.9335,179.289 85.5689,179.758 85.1105,180.081 C84.1105,180.758 82.8553,181.097 81.3449,181.097 C80.2199,181.097 79.6574,180.617 79.6574,179.659 C79.6574,179.232 79.7928,178.69 80.0637,178.034 C80.3241,177.409 80.6887,176.935 81.1574,176.612 C82.1678,175.935 83.4283,175.597 84.9387,175.597"/>
<path class="Note" d="M85.9699,114.534 C85.9699,114.315 85.8866,114.128 85.7199,113.972 C85.5428,113.805 85.3449,113.722 85.1262,113.722 C84.7408,113.722 83.9543,114.112 82.7668,114.893 C81.5376,115.685 80.7876,116.253 80.5168,116.597 C80.371,116.774 80.298,116.961 80.298,117.159 C80.298,117.378 80.3866,117.565 80.5637,117.722 C80.7199,117.888 80.9126,117.972 81.1418,117.972 C81.5168,117.972 82.3137,117.581 83.5324,116.8 C84.7303,116.018 85.4699,115.451 85.7512,115.097 C85.897,114.93 85.9699,114.742 85.9699,114.534 M84.9387,113.097 C86.0533,113.097 86.6105,113.576 86.6105,114.534 C86.6105,115.003 86.4751,115.55 86.2043,116.175 C85.9335,116.789 85.5689,117.258 85.1105,117.581 C84.1105,118.258 82.8553,118.597 81.3449,118.597 C80.2199,118.597 79.6574,118.117 79.6574,117.159 C79.6574,116.732 79.7928,116.19 80.0637,115.534 C80.3241,114.909 80.6887,114.435 81.1574,114.112 C82.1678,113.435 83.4283,113.097 84.9387,113.097"/>
<path class="Note" d="M85.9699,122.034 C85.9699,121.815 85.8866,121.628 85.7199,121.472 C85.5428,121.305 85.3449,121.222 85.1262,121.222 C84.7408,121.222 83.9543,121.612 82.7668,122.393 C81.5376,123.185 80.7876,123.753 80.5168,124.097 C80.371,124.274 80.298,124.461 80.298,124.659 C80.298,124.878 80.3866,125.065 80.5637,125.222 C80.7199,125.388 80.9126,125.472 81.1418,125.472 C81.5168,125.472 82.3137,125.081 83.5324,124.3 C84.7303,123.518 85.4699,122.951 85.7512,122.597 C85.897,122.43 85.9699,122.242 85.9699,122.034 M84.9387,120.597 C86.0533,120.597 86.6105,121.076 86.6105,122.034 C86.6105,122.503 86.4751,123.05 86.2043,123.675 C85.9335,124.289 85.5689,124.758 85.1105,125.081 C84.1105,125.758 82.8553,126.097 81.3449,126.097 C80.2199,126.097 79.6574,125.617 79.6574,124.659 C79.6574,124.232 79.7928,123.69 80.0637,123.034 C80.3241,122.409 80.6887,121.935 81.1574,121.612 C82.1678,120.935 83.4283,120.597 84.9387,120.597"/>
<path class="Clef" d="M54.2761,169.065 C54.0834,168.867 53.9871,168.625 53.9871,168.339 C53.9871,168.052 54.0834,167.813 54.2761,167.62 C54.4689,167.427 54.7084,167.331 54.9949,167.331 C55.2814,167.331 55.5235,167.427 55.7215,167.62 C55.9194,167.813 56.0183,168.052 56.0183,168.339 C56.0183,168.625 55.9194,168.867 55.7215,169.065 C55.5235,169.263 55.2814,169.362 54.9949,169.362 C54.7084,169.362 54.4689,169.263 54.2761,169.065 M54.2761,174.073 C54.0834,173.88 53.9871,173.641 53.9871,173.354 C53.9871,173.068 54.0834,172.826 54.2761,172.628 C54.4689,172.43 54.7084,172.331 54.9949,172.331 C55.2814,172.331 55.5235,172.43 55.7215,172.628 C55.9194,172.826 56.0183,173.068 56.0183,173.354 C56.0183,173.641 55.9194,173.88 55.7215,174.073 C55.5235,174.266 55.2814,174.362 54.9949,174.362 C54.7084,174.362 54.4689,174.266 54.2761,174.073 M47.5027,165.597 C49.2319,165.597 50.6485,166.029 51.7527,166.893 C52.8256,167.81 53.3621,169.05 53.3621,170.612 C53.3621,171.664 53.1538,172.628 52.7371,173.503 C52.3413,174.419 51.8256,175.227 51.1902,175.925 C50.534,176.643 49.7475,177.32 48.8308,177.956 C47.9246,178.581 46.9975,179.143 46.0496,179.643 C44.1225,180.612 43.0548,181.097 42.8465,181.097 C42.6798,181.097 42.5965,181.013 42.5965,180.847 C42.5965,180.784 42.6225,180.727 42.6746,180.675 C43.3413,180.279 44.1538,179.779 45.1121,179.175 C45.7371,178.768 46.4663,178.206 47.2996,177.487 C48.1121,176.81 48.7371,176.175 49.1746,175.581 C49.6329,174.987 50.0496,174.258 50.4246,173.393 C50.7475,172.518 50.909,171.654 50.909,170.8 C50.909,169.539 50.5965,168.44 49.9715,167.503 C49.3465,166.565 48.5235,166.097 47.5027,166.097 C46.7735,166.097 46.1485,166.331 45.6277,166.8 C45.0652,167.279 44.659,167.883 44.409,168.612 C44.659,168.508 44.8881,168.456 45.0965,168.456 C45.6381,168.456 46.1069,168.654 46.5027,169.05 C46.8881,169.466 47.0808,169.94 47.0808,170.472 C47.0808,171.034 46.8933,171.539 46.5183,171.987 C46.1121,172.383 45.6381,172.581 45.0965,172.581 C44.5131,172.581 43.9871,172.383 43.5183,171.987 C43.0704,171.539 42.8465,171.034 42.8465,170.472 C42.8465,169.128 43.3048,167.982 44.2215,167.034 C45.1173,166.076 46.211,165.597 47.5027,165.597"/>
<path class="Clef" d="M50.1902,123.222 C50.1902,123.222 50.2319,123.222 50.3152,123.222 C50.3673,123.211 50.409,123.206 50.4402,123.206 C51.8985,123.206 53.0965,123.722 54.034,124.753 C54.9715,125.763 55.4402,126.945 55.4402,128.3 C55.4402,129.987 54.7475,131.357 53.3621,132.409 C52.9975,132.701 52.5183,132.935 51.9246,133.112 C51.9975,133.956 52.034,134.638 52.034,135.159 C52.034,135.263 52.0183,135.643 51.9871,136.3 C51.935,137.508 51.5183,138.555 50.7371,139.44 C49.9871,140.315 49.0496,140.753 47.9246,140.753 C46.8725,140.753 45.9767,140.383 45.2371,139.643 C44.4871,138.883 44.1121,137.972 44.1121,136.909 C44.1121,136.347 44.3308,135.867 44.7683,135.472 C45.2058,135.086 45.7163,134.893 46.2996,134.893 C46.8204,134.893 47.2579,135.097 47.6121,135.503 C47.9767,135.878 48.159,136.347 48.159,136.909 C48.159,137.409 47.9767,137.841 47.6121,138.206 C47.2475,138.57 46.81,138.753 46.2996,138.753 C46.0913,138.753 45.8933,138.716 45.7058,138.643 C46.2788,139.487 47.0392,139.909 47.9871,139.909 C48.8829,139.909 49.6173,139.544 50.1902,138.815 C50.7944,138.065 51.1225,137.185 51.1746,136.175 C51.1954,135.55 51.2058,135.195 51.2058,135.112 C51.2058,134.383 51.1798,133.784 51.1277,133.315 C50.4819,133.419 49.9038,133.472 49.3933,133.472 C47.5808,133.472 46.0392,132.753 44.7683,131.315 C43.5183,129.867 42.8933,128.149 42.8933,126.159 C42.8933,125.742 42.9298,125.32 43.0027,124.893 C43.086,124.539 43.185,124.154 43.2996,123.737 C43.3621,123.498 43.5392,123.117 43.8308,122.597 C43.935,122.44 44.0522,122.245 44.1824,122.011 C44.3126,121.776 44.4038,121.623 44.4558,121.55 C44.5808,121.289 44.8308,120.935 45.2058,120.487 C45.31,120.373 45.4194,120.245 45.534,120.104 C45.6485,119.964 45.7449,119.847 45.823,119.753 C45.9011,119.659 45.9584,119.586 45.9949,119.534 C46.0314,119.482 46.3256,119.138 46.8777,118.503 C47.0027,118.367 47.1277,118.227 47.2527,118.081 C47.3777,117.935 47.4793,117.818 47.5574,117.729 C47.6355,117.641 47.6954,117.581 47.7371,117.55 C47.2683,115.998 46.9715,114.758 46.8465,113.831 C46.7631,113.091 46.7215,112.076 46.7215,110.784 C46.7215,109.649 46.9819,108.586 47.5027,107.597 C48.0027,106.576 48.711,105.737 49.6277,105.081 C49.6902,105.039 49.7527,105.018 49.8152,105.018 C49.909,105.018 49.9767,105.039 50.0183,105.081 C50.7163,105.925 51.3204,107.024 51.8308,108.378 C52.3517,109.732 52.6121,110.966 52.6121,112.081 C52.6121,113.331 52.3152,114.503 51.7215,115.597 C51.0444,116.753 50.1694,117.951 49.0965,119.19 C49.3673,120.044 49.7319,121.388 50.1902,123.222 M51.8465,132.315 C52.5235,132.065 53.0548,131.643 53.4402,131.05 C53.8569,130.477 54.0652,129.831 54.0652,129.112 C54.0652,128.185 53.7527,127.362 53.1277,126.643 C52.4819,125.904 51.6642,125.487 50.6746,125.393 C51.2371,128.143 51.6277,130.451 51.8465,132.315 M44.2996,127.8 C44.2996,129.091 44.8204,130.227 45.8621,131.206 C46.9246,132.154 48.1225,132.628 49.4558,132.628 C49.9975,132.628 50.5288,132.586 51.0496,132.503 C50.8413,130.524 50.4298,128.154 49.8152,125.393 C49.0756,125.477 48.4871,125.737 48.0496,126.175 C47.6121,126.633 47.3933,127.149 47.3933,127.722 C47.3933,128.711 47.9246,129.513 48.9871,130.128 C49.0704,130.222 49.1121,130.32 49.1121,130.425 C49.1121,130.529 49.0704,130.623 48.9871,130.706 C48.9038,130.8 48.8048,130.847 48.6902,130.847 C48.6798,130.847 48.6225,130.836 48.5183,130.815 C47.7683,130.409 47.1954,129.888 46.7996,129.253 C46.4142,128.565 46.2215,127.878 46.2215,127.19 C46.2215,126.294 46.5027,125.482 47.0652,124.753 C47.6485,124.024 48.409,123.555 49.3465,123.347 C48.9819,121.888 48.685,120.748 48.4558,119.925 C48.2475,120.164 47.9975,120.448 47.7058,120.776 C47.4142,121.104 47.2423,121.305 47.1902,121.378 C46.7215,121.982 46.3621,122.456 46.1121,122.8 C45.6642,123.414 45.336,123.94 45.1277,124.378 C44.909,124.878 44.7163,125.419 44.5496,126.003 C44.3829,126.565 44.2996,127.164 44.2996,127.8 M50.8152,107.94 C49.836,108.419 49.0704,109.107 48.5183,110.003 C47.9454,110.93 47.659,111.925 47.659,112.987 C47.659,113.925 47.8933,115.19 48.3621,116.784 C49.2996,115.649 50.0027,114.602 50.4715,113.643 C50.961,112.623 51.2058,111.56 51.2058,110.456 C51.2058,109.623 51.0756,108.784 50.8152,107.94"/>
<path class="TimeSig" d="M65.273,166.097 C65.6585,166.097 65.9892,166.052 66.2652,165.964 C66.5413,165.875 66.7157,165.831 66.7887,165.831 C66.8824,165.831 66.9553,165.857 67.0074,165.909 C67.0491,165.94 67.0751,165.982 67.0855,166.034 C67.0855,166.065 67.0699,166.107 67.0387,166.159 L61.3668,172.768 L64.6949,172.768 L64.6949,170.143 C64.6949,169.977 64.7418,169.831 64.8355,169.706 C64.9918,169.581 65.122,169.503 65.2262,169.472 C65.3928,169.399 65.6012,169.216 65.8512,168.925 C66.0595,168.695 66.3095,168.289 66.6012,167.706 C66.6324,167.623 66.6897,167.581 66.773,167.581 C66.9293,167.581 67.0178,167.675 67.0387,167.862 L67.0387,172.768 L68.4762,172.768 C68.6532,172.768 68.7574,172.862 68.7887,173.05 C68.7887,173.248 68.6845,173.347 68.4762,173.347 L67.0387,173.347 L67.0387,173.503 C67.0387,174.024 67.1689,174.466 67.4293,174.831 C67.7314,175.195 68.0855,175.378 68.4918,175.378 C68.648,175.378 68.7262,175.456 68.7262,175.612 C68.7262,175.768 68.648,175.847 68.4918,175.847 C68.221,175.847 67.7782,175.81 67.1637,175.737 C66.6012,175.643 66.1637,175.597 65.8512,175.597 C65.5282,175.597 65.0907,175.643 64.5387,175.737 C63.9553,175.81 63.523,175.847 63.2418,175.847 C63.0855,175.847 63.0074,175.768 63.0074,175.612 C63.0074,175.456 63.0855,175.378 63.2418,175.378 C63.6376,175.378 63.9866,175.19 64.2887,174.815 C64.5595,174.43 64.6949,173.966 64.6949,173.425 L61.3668,173.425 C61.1376,173.425 60.9814,173.362 60.898,173.237 C60.7835,173.154 60.7262,173.034 60.7262,172.878 C60.7262,172.836 60.8251,172.701 61.023,172.472 C61.2522,172.211 61.4866,171.893 61.7262,171.518 C62.0178,171.07 62.2939,170.612 62.5543,170.143 C62.8355,169.612 63.0647,168.998 63.2418,168.3 C63.4293,167.602 63.523,166.888 63.523,166.159 C63.523,165.951 63.6168,165.847 63.8043,165.847 C63.846,165.847 63.9293,165.867 64.0543,165.909 C64.096,165.919 64.1793,165.938 64.3043,165.964 C64.4293,165.99 64.5282,166.013 64.6012,166.034 C64.8407,166.076 65.0647,166.097 65.273,166.097"/>
<path class="TimeSig" d="M65.273,176.097 C65.6585,176.097 65.9892,176.052 66.2652,175.964 C66.5413,175.875 66.7157,175.831 66.7887,175.831 C66.8824,175.831 66.9553,175.857 67.0074,175.909 C67.0491,175.94 67.0751,175.982 67.0855,176.034 C67.0855,176.065 67.0699,176.107 67.0387,176.159 L61.3668,182.768 L64.6949,182.768 L64.6949,180.143 C64.6949,179.977 64.7418,179.831 64.8355,179.706 C64.9918,179.581 65.122,179.503 65.2262,179.472 C65.3928,179.399 65.6012,179.216 65.8512,178.925 C66.0595,178.696 66.3095,178.289 66.6012,177.706 C66.6324,177.623 66.6897,177.581 66.773,177.581 C66.9293,177.581 67.0178,177.675 67.0387,177.862 L67.0387,182.768 L68.4762,182.768 C68.6532,182.768 68.7574,182.862 68.7887,183.05 C68.7887,183.248 68.6845,183.347 68.4762,183.347 L67.0387,183.347 L67.0387,183.503 C67.0387,184.024 67.1689,184.466 67.4293,184.831 C67.7314,185.196 68.0855,185.378 68.4918,185.378 C68.648,185.378 68.7262,185.456 68.7262,185.612 C68.7262,185.768 68.648,185.847 68.4918,185.847 C68.221,185.847 67.7782,185.81 67.1637,185.737 C66.6012,185.643 66.1637,185.597 65.8512,185.597 C65.5282,185.597 65.0907,185.643 64.5387,185.737 C63.9553,185.81 63.523,185.847 63.2418,185.847 C63.0855,185.847 63.0074,185.768 63.0074,185.612 C63.0074,185.456 63.0855,185.378 63.2418,185.378 C63.6376,185.378 63.9866,185.19 64.2887,184.815 C64.5595,184.43 64.6949,183.966 64.6949,183.425 L61.3668,183.425 C61.1376,183.425 60.9814,183.362 60.898,183.237 C60.7835,183.154 60.7262,183.034 60.7262,182.878 C60.7262,182.836 60.8251,182.701 61.023,182.472 C61.2522,182.211 61.4866,181.893 61.7262,181.518 C62.0178,181.071 62.2939,180.612 62.5543,180.143 C62.8355,179.612 63.0647,178.998 63.2418,178.3 C63.4293,177.602 63.523,176.888 63.523,176.159 C63.523,175.951 63.6168,175.847 63.8043,175.847 C63.846,175.847 63.9293,175.867 64.0543,175.909 C64.096,175.919 64.1793,175.938 64.3043,175.964 C64.4293,175.99 64.5282,176.013 64.6012,176.034 C64.8407,176.076 65.0647,176.097 65.273,176.097"/>
<path class="TimeSig" d="M65.273,113.597 C65.6585,113.597 65.9892,113.552 66.2652,113.464 C66.5413,113.375 66.7157,113.331 66.7887,113.331 C66.8824,113.331 66.9553,113.357 67.0074,113.409 C67.0491,113.44 67.0751,113.482 67.0855,113.534 C67.0855,113.565 67.0699,113.607 67.0387,113.659 L61.3668,120.268 L64.6949,120.268 L64.6949,117.643 C64.6949,117.477 64.7418,117.331 64.8355,117.206 C64.9918,117.081 65.122,117.003 65.2262,116.972 C65.3928,116.899 65.6012,116.716 65.8512,116.425 C66.0595,116.195 66.3095,115.789 66.6012,115.206 C66.6324,115.123 66.6897,115.081 66.773,115.081 C66.9293,115.081 67.0178,115.175 67.0387,115.362 L67.0387,120.268 L68.4762,120.268 C68.6532,120.268 68.7574,120.362 68.7887,120.55 C68.7887,120.748 68.6845,120.847 68.4762,120.847 L67.0387,120.847 L67.0387,121.003 C67.0387,121.524 67.1689,121.966 67.4293,122.331 C67.7314,122.695 68.0855,122.878 68.4918,122.878 C68.648,122.878 68.7262,122.956 68.7262,123.112 C68.7262,123.268 68.648,123.347 68.4918,123.347 C68.221,123.347 67.7782,123.31 67.1637,123.237 C66.6012,123.143 66.1637,123.097 65.8512,123.097 C65.5282,123.097 65.0907,123.143 64.5387,123.237 C63.9553,123.31 63.523,123.347 63.2418,123.347 C63.0855,123.347 63.0074,123.268 63.0074,123.112 C63.0074,122.956 63.0855,122.878 63.2418,122.878 C63.6376,122.878 63.9866,122.69 64.2887,122.315 C64.5595,121.93 64.6949,121.466 64.6949,120.925 L61.3668,120.925 C61.1376,120.925 60.9814,120.862 60.898,120.737 C60.7835,120.654 60.7262,120.534 60.7262,120.378 C60.7262,120.336 60.8251,120.201 61.023,119.972 C61.2522,119.711 61.4866,119.393 61.7262,119.018 C62.0178,118.57 62.2939,118.112 62.5543,117.643 C62.8355,117.112 63.0647,116.498 63.2418,115.8 C63.4293,115.102 63.523,114.388 63.523,113.659 C63.523,113.451 63.6168,113.347 63.8043,113.347 C63.846,113.347 63.9293,113.367 64.0543,113.409 C64.096,113.419 64.1793,113.438 64.3043,113.464 C64.4293,113.49 64.5282,113.513 64.6012,113.534 C64.8407,113.576 65.0647,113.597 65.273,113.597"/>
<path class="TimeSig" d="M65.273,123.597 C65.6585,123.597 65.9892,123.552 66.2652,123.464 C66.5413,123.375 66.7157,123.331 66.7887,123.331 C66.8824,123.331 66.9553,123.357 67.0074,123.409 C67.0491,123.44 67.0751,123.482 67.0855,123.534 C67.0855,123.565 67.0699,123.607 67.0387,123.659 L61.3668,130.268 L64.6949,130.268 L64.6949,127.643 C64.6949,127.477 64.7418,127.331 64.8355,127.206 C64.9918,127.081 65.122,127.003 65.2262,126.972 C65.3928,126.899 65.6012,126.716 65.8512,126.425 C66.0595,126.195 66.3095,125.789 66.6012,125.206 C66.6324,125.123 66.6897,125.081 66.773,125.081 C66.9293,125.081 67.0178,125.175 67.0387,125.362 L67.0387,130.268 L68.4762,130.268 C68.6532,130.268 68.7574,130.362 68.7887,130.55 C68.7887,130.748 68.6845,130.847 68.4762,130.847 L67.0387,130.847 L67.0387,131.003 C67.0387,131.524 67.1689,131.966 67.4293,132.331 C67.7314,132.695 68.0855,132.878 68.4918,132.878 C68.648,132.878 68.7262,132.956 68.7262,133.112 C68.7262,133.268 68.648,133.347 68.4918,133.347 C68.221,133.347 67.7782,133.31 67.1637,133.237 C66.6012,133.143 66.1637,133.097 65.8512,133.097 C65.5282,133.097 65.0907,133.143 64.5387,133.237 C63.9553,133.31 63.523,133.347 63.2418,133.347 C63.0855,133.347 63.0074,133.268 63.0074,133.112 C63.0074,132.956 63.0855,132.878 63.2418,132.878 C63.6376,132.878 63.9866,132.69 64.2887,132.315 C64.5595,131.93 64.6949,131.466 64.6949,130.925 L61.3668,130.925 C61.1376,130.925 60.9814,130.862 60.898,130.737 C60.7835,130.654 60.7262,130.534 60.7262,130.378 C60.7262,130.336 60.8251,130.201 61.023,129.972 C61.2522,129.711 61.4866,129.393 61.7262,129.018 C62.0178,128.57 62.2939,128.112 62.5543,127.643 C62.8355,127.112 63.0647,126.498 63.2418,125.8 C63.4293,125.102 63.523,124.388 63.523,123.659 C63.523,123.451 63.6168,123.347 63.8043,123.347 C63.846,123.347 63.9293,123.367 64.0543,123.409 C64.096,123.419 64.1793,123.438 64.3043,123.464 C64.4293,123.49 64.5282,123.513 64.6012,123.534 C64.8407,123.576 65.0647,123.597 65.273,123.597"/>
<path class="Rest" d="M507.136,173.972 L500.026,173.972 C499.891,173.972 499.823,173.909 499.823,173.784 L499.823,171.05 C499.823,170.914 499.891,170.847 500.026,170.847 L507.136,170.847 C507.261,170.847 507.323,170.914 507.323,171.05 L507.323,173.784 C507.323,173.909 507.261,173.972 507.136,173.972"/>
<path class="Rest" d="M507.136,121.472 L500.026,121.472 C499.891,121.472 499.823,121.409 499.823,121.284 L499.823,118.55 C499.823,118.414 499.891,118.347 500.026,118.347 L507.136,118.347 C507.261,118.347 507.323,118.414 507.323,118.55 L507.323,121.284 C507.323,121.409 507.261,121.472 507.136,121.472"/>
<path class="Rest" d="M389.895,173.972 L382.786,173.972 C382.65,173.972 382.583,173.909 382.583,173.784 L382.583,171.05 C382.583,170.914 382.65,170.847 382.786,170.847 L389.895,170.847 C390.02,170.847 390.083,170.914 390.083,171.05 L390.083,173.784 C390.083,173.909 390.02,173.972 389.895,173.972"/>
<path class="Rest" d="M389.895,121.472 L382.786,121.472 C382.65,121.472 382.583,121.409 382.583,121.284 L382.583,118.55 C382.583,118.414 382.65,118.347 382.786,118.347 L389.895,118.347 C390.02,118.347 390.083,118.414 390.083,118.55 L390.083,121.284 C390.083,121.409 390.02,121.472 389.895,121.472"/>
<path class="Rest" d="M272.654,173.972 L265.545,173.972 C265.41,173.972 265.342,173.909 265.342,173.784 L265.342,171.05 C265.342,170.914 265.41,170.847 265.545,170.847 L272.654,170.847 C272.779,170.847 272.842,170.914 272.842,171.05 L272.842,173.784 C272.842,173.909 272.779,173.972 272.654,173.972"/>
<path class="Rest" d="M272.654,121.472 L265.545,121.472 C265.41,121.472 265.342,121.409 265.342,121.284 L265.342,118.55 C265.342,118.414 265.41,118.347 265.545,118.347 L272.654,118.347 C272.779,118.347 272.842,118.414 272.842,118.55 L272.842,121.284 C272.842,121.409 272.779,121.472 272.654,121.472"/>
<path class="Rest" d="M174.02,174.284 C174.02,174.044 174.155,173.784 174.426,173.503 C174.614,173.294 174.9,173.044 175.286,172.753 C175.567,172.565 175.843,172.274 176.114,171.878 C176.374,171.503 176.504,171.091 176.504,170.643 C176.504,170.123 176.338,169.664 176.004,169.268 L175.301,168.425 C175.249,168.373 175.223,168.307 175.223,168.229 C175.223,168.151 175.26,168.081 175.333,168.018 C175.426,167.946 175.504,167.909 175.567,167.909 C175.661,167.909 175.734,167.951 175.786,168.034 L178.817,171.628 C178.942,171.794 179.004,171.961 179.004,172.128 C179.004,172.367 178.874,172.628 178.614,172.909 C178.447,173.097 178.171,173.347 177.786,173.659 C177.484,173.836 177.197,174.128 176.926,174.534 C176.666,174.909 176.536,175.321 176.536,175.768 C176.536,176.321 176.692,176.784 177.004,177.159 L178.676,179.128 C178.718,179.169 178.749,179.237 178.77,179.331 C178.77,179.414 178.739,179.492 178.676,179.565 C178.583,179.628 178.504,179.659 178.442,179.659 C178.421,179.659 178.317,179.586 178.129,179.44 C177.931,179.284 177.671,179.133 177.348,178.987 C176.984,178.852 176.624,178.784 176.27,178.784 C175.947,178.784 175.681,178.873 175.473,179.05 C175.296,179.237 175.208,179.591 175.208,180.112 C175.208,180.904 175.395,181.529 175.77,181.987 C175.812,182.039 175.817,182.102 175.786,182.175 C175.765,182.227 175.718,182.253 175.645,182.253 C175.562,182.253 175.364,182.018 175.051,181.55 C174.718,181.06 174.411,180.492 174.129,179.847 C173.827,179.169 173.676,178.612 173.676,178.175 C173.676,177.612 173.942,177.331 174.473,177.331 C175.088,177.331 175.885,177.539 176.864,177.956 L174.223,174.784 C174.088,174.617 174.02,174.451 174.02,174.284"/>
<path class="Rest" d="M174.02,121.784 C174.02,121.544 174.155,121.284 174.426,121.003 C174.614,120.794 174.9,120.544 175.286,120.253 C175.567,120.065 175.843,119.774 176.114,119.378 C176.374,119.003 176.504,118.591 176.504,118.143 C176.504,117.623 176.338,117.164 176.004,116.768 L175.301,115.925 C175.249,115.873 175.223,115.807 175.223,115.729 C175.223,115.651 175.26,115.581 175.333,115.518 C175.426,115.445 175.504,115.409 175.567,115.409 C175.661,115.409 175.734,115.451 175.786,115.534 L178.817,119.128 C178.942,119.294 179.004,119.461 179.004,119.628 C179.004,119.867 178.874,120.128 178.614,120.409 C178.447,120.597 178.171,120.847 177.786,121.159 C177.484,121.336 177.197,121.628 176.926,122.034 C176.666,122.409 176.536,122.82 176.536,123.268 C176.536,123.82 176.692,124.284 177.004,124.659 L178.676,126.628 C178.718,126.669 178.749,126.737 178.77,126.831 C178.77,126.914 178.739,126.992 178.676,127.065 C178.583,127.128 178.504,127.159 178.442,127.159 C178.421,127.159 178.317,127.086 178.129,126.94 C177.931,126.784 177.671,126.633 177.348,126.487 C176.984,126.352 176.624,126.284 176.27,126.284 C175.947,126.284 175.681,126.373 175.473,126.55 C175.296,126.737 175.208,127.091 175.208,127.612 C175.208,128.404 175.395,129.029 175.77,129.487 C175.812,129.539 175.817,129.602 175.786,129.675 C175.765,129.727 175.718,129.753 175.645,129.753 C175.562,129.753 175.364,129.518 175.051,129.05 C174.718,128.56 174.411,127.992 174.129,127.347 C173.827,126.669 173.676,126.112 173.676,125.675 C173.676,125.112 173.942,124.831 174.473,124.831 C175.088,124.831 175.885,125.039 176.864,125.456 L174.223,122.284 C174.088,122.117 174.02,121.951 174.02,121.784"/>
<path class="Rest" d="M153.097,171.737 C153.472,171.737 153.759,171.841 153.957,172.05 C154.154,172.289 154.259,172.513 154.269,172.722 C154.3,172.919 154.368,173.138 154.472,173.378 C154.587,173.586 154.733,173.69 154.91,173.69 C155.056,173.69 155.274,173.529 155.566,173.206 C155.826,172.925 156.014,172.669 156.128,172.44 C156.191,172.315 156.279,172.253 156.394,172.253 L156.425,172.253 C156.55,172.263 156.639,172.326 156.691,172.44 L154.238,180.847 C154.102,180.982 153.917,181.05 153.683,181.05 C153.449,181.05 153.269,180.982 153.144,180.847 L155.488,174.315 C154.654,174.617 153.951,174.768 153.378,174.768 C152.91,174.768 152.503,174.617 152.16,174.315 C151.806,174.034 151.628,173.659 151.628,173.19 C151.628,172.784 151.774,172.446 152.066,172.175 C152.347,171.883 152.691,171.737 153.097,171.737"/>
<path class="Rest" d="M153.097,119.237 C153.472,119.237 153.759,119.341 153.957,119.55 C154.154,119.789 154.259,120.013 154.269,120.222 C154.3,120.419 154.368,120.638 154.472,120.878 C154.587,121.086 154.733,121.19 154.91,121.19 C155.056,121.19 155.274,121.029 155.566,120.706 C155.826,120.425 156.014,120.169 156.128,119.94 C156.191,119.815 156.279,119.753 156.394,119.753 L156.425,119.753 C156.55,119.763 156.639,119.826 156.691,119.94 L154.238,128.347 C154.102,128.482 153.917,128.55 153.683,128.55 C153.449,128.55 153.269,128.482 153.144,128.347 L155.488,121.815 C154.654,122.117 153.951,122.268 153.378,122.268 C152.91,122.268 152.503,122.117 152.16,121.815 C151.806,121.534 151.628,121.159 151.628,120.69 C151.628,120.284 151.774,119.945 152.066,119.675 C152.347,119.383 152.691,119.237 153.097,119.237"/>
<path class="Dynamic" d="M80.7551,148.065 L79.802,151.158 C79.4686,152.273 78.9113,153.351 78.1301,154.393 C77.3384,155.434 76.5311,155.955 75.7082,155.955 C75.2811,155.955 74.9035,155.843 74.5754,155.619 C74.2473,155.395 74.0832,155.106 74.0832,154.752 C74.0832,154.346 74.1665,154.002 74.3332,153.721 C74.5103,153.45 74.7551,153.304 75.0676,153.283 C75.2968,153.283 75.4895,153.367 75.6457,153.533 C75.802,153.7 75.8801,153.893 75.8801,154.111 C75.8801,154.309 75.7655,154.492 75.5363,154.658 C75.2968,154.804 75.1718,154.971 75.1613,155.158 C75.1613,155.283 75.302,155.346 75.5832,155.346 L75.7082,155.346 C75.7707,155.346 75.8645,155.33 75.9895,155.299 C76.0624,155.289 76.1509,155.247 76.2551,155.174 C76.2551,155.174 76.3176,155.122 76.4426,155.018 C76.5259,154.903 76.578,154.82 76.5988,154.768 C76.6405,154.664 76.677,154.58 76.7082,154.518 C76.7499,154.476 76.7863,154.372 76.8176,154.205 C76.8384,154.164 76.854,154.117 76.8645,154.065 C76.8749,154.013 76.8853,153.976 76.8957,153.955 C76.9061,153.934 76.9113,153.919 76.9113,153.908 C76.9634,153.7 76.9999,153.575 77.0207,153.533 C77.0624,153.325 77.0832,153.221 77.0832,153.221 L78.3645,148.065 L77.3801,148.065 C77.2863,148.065 77.2186,148.033 77.177,147.971 C77.1249,147.888 77.0988,147.815 77.0988,147.752 C77.0988,147.669 77.1249,147.596 77.177,147.533 C77.2603,147.471 77.328,147.44 77.3801,147.44 L78.552,147.44 C78.8749,146.46 79.4113,145.617 80.1613,144.908 C80.9009,144.179 81.6978,143.815 82.552,143.815 C83.0103,143.815 83.3905,143.929 83.6926,144.158 C84.0155,144.377 84.1822,144.664 84.1926,145.018 C84.1926,145.403 84.1093,145.747 83.9426,146.049 C83.7447,146.32 83.4999,146.46 83.2082,146.471 C82.979,146.471 82.7863,146.39 82.6301,146.229 C82.4738,146.067 82.3957,145.877 82.3957,145.658 C82.3957,145.471 82.5155,145.299 82.7551,145.143 C82.9947,144.986 83.1093,144.809 83.0988,144.611 C83.0988,144.466 82.9634,144.398 82.6926,144.408 L82.6457,144.408 C82.6145,144.429 82.5832,144.434 82.552,144.424 C82.3228,144.424 82.1301,144.481 81.9738,144.596 C81.8176,144.7 81.6718,144.888 81.5363,145.158 C81.4947,145.231 81.4608,145.304 81.4348,145.377 C81.4087,145.45 81.3801,145.531 81.3488,145.619 C81.3176,145.708 81.2915,145.768 81.2707,145.799 C81.2603,145.861 81.2395,145.992 81.2082,146.19 C81.1665,146.377 81.1301,146.539 81.0988,146.674 C81.0155,147.07 80.9582,147.325 80.927,147.44 L82.0051,147.44 C82.0884,147.44 82.1639,147.468 82.2316,147.526 C82.2994,147.583 82.3332,147.656 82.3332,147.744 C82.3332,147.833 82.2994,147.908 82.2316,147.971 C82.1639,148.033 82.0884,148.065 82.0051,148.065 L80.7551,148.065 "/>
<path class="Dynamic" d="M86.5339,148.815 C86.1798,148.815 85.8621,149.003 85.5808,149.378 C85.2787,149.774 85.0496,150.211 84.8933,150.69 C84.7371,151.149 84.6642,151.55 84.6746,151.893 C84.6746,152.383 84.8569,152.628 85.2214,152.628 C85.5444,152.628 85.8204,152.503 86.0496,152.253 C86.31,151.982 86.5287,151.513 86.7058,150.847 C86.8933,150.159 86.9871,149.68 86.9871,149.409 C86.9767,149.013 86.8256,148.815 86.5339,148.815 M83.6121,147.893 C83.935,147.893 84.2188,147.979 84.4636,148.151 C84.7084,148.323 84.8621,148.555 84.9246,148.847 C85.185,148.565 85.4923,148.336 85.8464,148.159 C86.2006,147.982 86.5287,147.893 86.8308,147.893 C87.4558,147.893 87.9402,148.086 88.2839,148.472 C88.6173,148.878 88.7839,149.388 88.7839,150.003 C88.7839,151.024 88.4246,151.857 87.7058,152.503 C87.0496,153.055 86.4558,153.331 85.9246,153.331 C85.6017,153.331 85.3412,153.3 85.1433,153.237 C84.8933,153.175 84.7267,153.117 84.6433,153.065 C84.5287,152.992 84.435,152.956 84.3621,152.956 C84.1954,152.956 84.086,153.024 84.0339,153.159 L83.3308,155.284 L83.3308,155.378 C83.3308,155.503 83.4246,155.576 83.6121,155.597 C83.6746,155.607 83.7709,155.617 83.9011,155.628 C84.0313,155.638 84.1329,155.643 84.2058,155.643 C84.3933,155.675 84.4871,155.727 84.4871,155.8 C84.4871,155.904 84.4402,155.956 84.3464,155.956 C83.211,155.883 82.4767,155.847 82.1433,155.847 C81.7787,155.847 81.0287,155.883 79.8933,155.956 C79.7892,155.956 79.7475,155.904 79.7683,155.8 C79.7683,155.727 79.8517,155.675 80.0183,155.643 C80.0912,155.623 80.4246,155.612 81.0183,155.612 C81.2892,155.612 81.4506,155.529 81.5027,155.362 L83.5496,149.44 C83.5808,149.326 83.6017,149.227 83.6121,149.143 C83.6121,148.914 83.5079,148.805 83.2996,148.815 C83.0079,148.815 82.7006,149.003 82.3777,149.378 C82.0652,149.732 81.8152,150.133 81.6277,150.581 C81.5756,150.685 81.4923,150.742 81.3777,150.753 C81.2839,150.753 81.2371,150.716 81.2371,150.643 C81.2371,150.539 81.2683,150.44 81.3308,150.347 C81.5912,149.794 81.8621,149.294 82.1433,148.847 C82.31,148.597 82.5287,148.378 82.7996,148.19 C83.0496,147.992 83.3204,147.893 83.6121,147.893"/>
<path class="Hook" d="M135.17,157.722 L135.17,152.722 L135.795,152.722 C135.795,153.461 135.941,154.206 136.232,154.956 C136.545,155.758 136.888,156.461 137.263,157.065 C137.534,157.492 137.946,158.149 138.498,159.034 C138.914,159.711 139.266,160.419 139.552,161.159 C139.839,161.899 139.982,162.643 139.982,163.393 C139.982,164.748 139.701,166.128 139.138,167.534 C139.045,167.69 138.92,167.768 138.763,167.768 C138.638,167.768 138.524,167.716 138.42,167.612 C138.336,167.529 138.295,167.43 138.295,167.315 L138.295,167.222 C138.857,165.93 139.138,164.654 139.138,163.393 C139.138,162.737 138.941,162.034 138.545,161.284 C138.159,160.513 137.763,159.899 137.357,159.44 C136.899,158.909 136.378,158.336 135.795,157.722 L135.17,157.722 "/>
<path class="Hook" d="M133.784,128.878 C134.086,128.878 134.409,129.362 134.752,130.331 C135.075,131.3 135.237,132.222 135.237,133.097 C135.237,133.836 135.055,134.57 134.69,135.3 C134.315,136.081 133.867,136.758 133.346,137.331 L131.737,139.128 C131.247,139.701 130.805,140.362 130.409,141.112 C130.044,141.841 129.862,142.586 129.862,143.347 L129.237,143.347 L129.237,138.347 L129.862,138.347 C130.216,138.128 130.737,137.774 131.424,137.284 C131.737,137.055 132.206,136.664 132.831,136.112 C133.341,135.643 133.726,135.164 133.987,134.675 C134.258,134.154 134.393,133.628 134.393,133.097 C134.393,131.857 134.034,130.623 133.315,129.393 C133.315,129.393 133.315,129.367 133.315,129.315 C133.315,129.201 133.357,129.107 133.44,129.034 C133.544,128.93 133.659,128.878 133.784,128.878"/>
<path class="Bracket" fill-rule="evenodd" d="M36.755,139.14 C36.755,133.299 32.7322,127.622 32.7322,122.026 C32.7322,119.208 33.8293,116.471 37.2122,114.02 C37.2579,113.99 37.2807,113.939 37.2807,113.908 C37.2807,113.816 37.0293,113.735 36.8465,113.735 C36.755,113.735 36.595,113.745 36.4807,113.816 C32.0922,116.961 30.6293,120.597 30.6293,124.273 C30.6293,130.195 34.9265,135.913 34.9265,141.591 C34.9265,144.409 33.8293,147.064 30.4465,149.515 L30.4465,149.597 L30.4465,149.678 C33.8293,152.129 34.9265,154.784 34.9265,157.602 C34.9265,163.28 30.6293,168.998 30.6293,174.92 C30.6293,178.597 32.0922,182.232 36.4807,185.377 C36.595,185.448 36.755,185.459 36.8465,185.459 C37.0293,185.459 37.2807,185.377 37.2807,185.285 C37.2807,185.254 37.2579,185.203 37.2122,185.173 C33.8293,182.722 32.7322,179.985 32.7322,177.167 C32.7322,171.571 36.755,165.894 36.755,160.053 C36.755,156.336 35.2922,152.782 30.995,149.597 C35.2922,146.411 36.755,142.857 36.755,139.14"/>
</svg>
