<?xml version="1.0" encoding="UTF-8" standalone="no"?>
<svg width="595.44px" height="841.68px" viewBox="0 0 595.44 841.68"
 xmlns="http://www.w3.org/2000/svg" xmlns:xlink="http://www.w3.org/1999/xlink" version="1.2" baseProfile="tiny">
<title>Motiv</title>
<desc>Generated by MuseScore 2.0.3</desc>
<polyline class="StaffLines" fill="none" stroke="#000000" stroke-width="0.40" stroke-linejoin="bevel" points="28.3465,113.347 567.094,113.347"/>
<polyline class="StaffLines" fill="none" stroke="#000000" stroke-width="0.40" stroke-linejoin="bevel" points="28.3465,118.347 567.094,118.347"/>
<polyline class="StaffLines" fill="none" stroke="#000000" stroke-width="0.40" stroke-linejoin="bevel" points="28.3465,123.347 567.094,123.347"/>
<polyline class="StaffLines" fill="none" stroke="#000000" stroke-width="0.40" stroke-linejoin="bevel" points="28.3465,128.347 567.094,128.347"/>
<polyline class="StaffLines" fill="none" stroke="#000000" stroke-width="0.40" stroke-linejoin="bevel" points="28.3465,133.347 567.094,133.347"/>
<polyline class="BarLine" fill="none" stroke="#000000" stroke-width="0.80" stroke-linejoin="bevel" points="562.194,113.347 562.194,133.347"/>
<polyline class="BarLine" fill="none" stroke="#000000" stroke-width="2.50" stroke-linejoin="bevel" points="565.844,113.347 565.844,133.347"/>
<polyline class="BarLine" fill="none" stroke="#000000" stroke-width="0.80" stroke-linejoin="bevel" points="445.729,113.347 445.729,133.347"/>
<polyline class="BarLine" fill="none" stroke="#000000" stroke-width="0.80" stroke-linejoin="bevel" points="329.265,113.347 329.265,133.347"/>
<polyline class="BarLine" fill="none" stroke="#000000" stroke-width="0.80" stroke-linejoin="bevel" points="202.939,113.347 202.939,133.347"/>
<polyline class="Stem" fill="none" stroke="#000000" stroke-width="0.65" stroke-linecap="round" stroke-linejoin="bevel" points="215.958,137.579 215.958,120.847"/>
<polyline class="Stem" fill="none" stroke="#000000" stroke-width="0.65" stroke-linecap="round" stroke-linejoin="bevel" points="186.439,139.907 186.439,123.347"/>
<polyline class="Stem" fill="none" stroke="#000000" stroke-width="0.65" stroke-linecap="round" stroke-linejoin="bevel" points="142.82,144.907 142.82,124.597"/>
<polyline class="Stem" fill="none" stroke="#000000" stroke-width="0.65" stroke-linecap="round" stroke-linejoin="bevel" points="72.5527,137.579 72.5527,120.847"/>
<polyline class="LedgerLine" fill="none" stroke="#000000" stroke-width="0.80" stroke-linecap="square" stroke-linejoin="bevel" points="207.839,138.347 217.783,138.347"/>
<polyline class="LedgerLine" fill="none" stroke="#000000" stroke-width="0.80" stroke-linecap="square" stroke-linejoin="bevel" points="178.681,138.347 188.264,138.347"/>
<polyline class="LedgerLine" fill="none" stroke="#000000" stroke-width="0.80" stroke-linecap="square" stroke-linejoin="bevel" points="135.062,138.347 144.645,138.347"/>
<polyline class="LedgerLine" fill="none" stroke="#000000" stroke-width="0.80" stroke-linecap="square" stroke-linejoin="bevel" points="135.062,143.347 144.645,143.347"/>
<polyline class="LedgerLine" fill="none" stroke="#000000" stroke-width="0.80" stroke-linecap="square" stroke-linejoin="bevel" points="64.434,138.347 74.3777,138.347"/>
<path class="Note" d="M215.651,137.034 C215.651,136.815 215.568,136.628 215.401,136.472 C215.224,136.305 215.026,136.222 214.808,136.222 C214.422,136.222 213.636,136.612 212.448,137.393 C211.219,138.185 210.469,138.753 210.198,139.097 C210.052,139.274 209.98,139.461 209.98,139.659 C209.98,139.878 210.068,140.065 210.245,140.222 C210.401,140.388 210.594,140.472 210.823,140.472 C211.198,140.472 211.995,140.081 213.214,139.3 C214.412,138.518 215.151,137.951 215.433,137.597 C215.579,137.43 215.651,137.242 215.651,137.034 M214.62,135.597 C215.735,135.597 216.292,136.076 216.292,137.034 C216.292,137.503 216.157,138.05 215.886,138.675 C215.615,139.289 215.25,139.758 214.792,140.081 C213.792,140.758 212.537,141.097 211.026,141.097 C209.901,141.097 209.339,140.617 209.339,139.659 C209.339,139.232 209.474,138.69 209.745,138.034 C210.006,137.409 210.37,136.935 210.839,136.612 C211.849,135.935 213.11,135.597 214.62,135.597"/>
<path class="Note" d="M184.572,138.097 C185.197,138.097 185.728,138.258 186.166,138.581 C186.562,138.935 186.76,139.378 186.76,139.909 C186.76,140.805 186.301,141.643 185.385,142.425 C184.447,143.206 183.442,143.597 182.369,143.597 C181.744,143.597 181.218,143.435 180.791,143.112 C180.385,142.758 180.181,142.315 180.181,141.784 C180.181,140.888 180.65,140.05 181.588,139.268 C182.504,138.487 183.499,138.097 184.572,138.097"/>
<path class="Note" d="M140.953,143.097 C141.578,143.097 142.109,143.258 142.547,143.581 C142.943,143.935 143.141,144.378 143.141,144.909 C143.141,145.805 142.682,146.643 141.766,147.425 C140.828,148.206 139.823,148.597 138.75,148.597 C138.125,148.597 137.599,148.435 137.172,148.112 C136.766,147.758 136.562,147.315 136.562,146.784 C136.562,145.888 137.031,145.05 137.969,144.268 C138.885,143.487 139.88,143.097 140.953,143.097"/>
<path class="Note" d="M72.2465,137.034 C72.2465,136.815 72.1631,136.628 71.9965,136.472 C71.8194,136.305 71.6215,136.222 71.4027,136.222 C71.0173,136.222 70.2308,136.612 69.0433,137.393 C67.8142,138.185 67.0642,138.753 66.7933,139.097 C66.6475,139.274 66.5746,139.461 66.5746,139.659 C66.5746,139.878 66.6631,140.065 66.8402,140.222 C66.9965,140.388 67.1892,140.472 67.4183,140.472 C67.7933,140.472 68.5902,140.081 69.809,139.3 C71.0069,138.518 71.7465,137.951 72.0277,137.597 C72.1736,137.43 72.2465,137.242 72.2465,137.034 M71.2152,135.597 C72.3298,135.597 72.8871,136.076 72.8871,137.034 C72.8871,137.503 72.7517,138.05 72.4808,138.675 C72.21,139.289 71.8454,139.758 71.3871,140.081 C70.3871,140.758 69.1319,141.097 67.6215,141.097 C66.4965,141.097 65.934,140.617 65.934,139.659 C65.934,139.232 66.0694,138.69 66.3402,138.034 C66.6006,137.409 66.9652,136.935 67.434,136.612 C68.4444,135.935 69.7048,135.597 71.2152,135.597"/>
<path class="Clef" d="M38.8902,123.222 C38.8902,123.222 38.9319,123.222 39.0152,123.222 C39.0673,123.211 39.109,123.206 39.1402,123.206 C40.5985,123.206 41.7965,123.722 42.734,124.753 C43.6715,125.763 44.1402,126.945 44.1402,128.3 C44.1402,129.987 43.4475,131.357 42.0621,132.409 C41.6975,132.701 41.2183,132.935 40.6246,133.112 C40.6975,133.956 40.734,134.638 40.734,135.159 C40.734,135.263 40.7183,135.643 40.6871,136.3 C40.635,137.508 40.2183,138.555 39.4371,139.44 C38.6871,140.315 37.7496,140.753 36.6246,140.753 C35.5725,140.753 34.6767,140.383 33.9371,139.643 C33.1871,138.883 32.8121,137.972 32.8121,136.909 C32.8121,136.347 33.0308,135.867 33.4683,135.472 C33.9058,135.086 34.4162,134.893 34.9996,134.893 C35.5204,134.893 35.9579,135.097 36.3121,135.503 C36.6767,135.878 36.859,136.347 36.859,136.909 C36.859,137.409 36.6767,137.841 36.3121,138.206 C35.9475,138.57 35.51,138.753 34.9996,138.753 C34.7912,138.753 34.5933,138.716 34.4058,138.643 C34.9787,139.487 35.7392,139.909 36.6871,139.909 C37.5829,139.909 38.3173,139.544 38.8902,138.815 C39.4944,138.065 39.8225,137.185 39.8746,136.175 C39.8954,135.55 39.9058,135.195 39.9058,135.112 C39.9058,134.383 39.8798,133.784 39.8277,133.315 C39.1819,133.419 38.6037,133.472 38.0933,133.472 C36.2808,133.472 34.7392,132.753 33.4683,131.315 C32.2183,129.867 31.5933,128.149 31.5933,126.159 C31.5933,125.742 31.6298,125.32 31.7027,124.893 C31.786,124.539 31.885,124.154 31.9996,123.737 C32.0621,123.498 32.2392,123.117 32.5308,122.597 C32.635,122.44 32.7522,122.245 32.8824,122.011 C33.0126,121.776 33.1037,121.623 33.1558,121.55 C33.2808,121.289 33.5308,120.935 33.9058,120.487 C34.01,120.373 34.1194,120.245 34.234,120.104 C34.3485,119.964 34.4449,119.847 34.523,119.753 C34.6011,119.659 34.6584,119.586 34.6949,119.534 C34.7313,119.482 35.0256,119.138 35.5777,118.503 C35.7027,118.367 35.8277,118.227 35.9527,118.081 C36.0777,117.935 36.1793,117.818 36.2574,117.729 C36.3355,117.641 36.3954,117.581 36.4371,117.55 C35.9683,115.998 35.6715,114.758 35.5465,113.831 C35.4631,113.091 35.4215,112.076 35.4215,110.784 C35.4215,109.649 35.6819,108.586 36.2027,107.597 C36.7027,106.576 37.411,105.737 38.3277,105.081 C38.3902,105.039 38.4527,105.018 38.5152,105.018 C38.609,105.018 38.6767,105.039 38.7183,105.081 C39.4162,105.925 40.0204,107.024 40.5308,108.378 C41.0517,109.732 41.3121,110.966 41.3121,112.081 C41.3121,113.331 41.0152,114.503 40.4215,115.597 C39.7444,116.753 38.8694,117.951 37.7965,119.19 C38.0673,120.044 38.4319,121.388 38.8902,123.222 M40.5465,132.315 C41.2235,132.065 41.7548,131.643 42.1402,131.05 C42.5569,130.477 42.7652,129.831 42.7652,129.112 C42.7652,128.185 42.4527,127.362 41.8277,126.643 C41.1819,125.904 40.3642,125.487 39.3746,125.393 C39.9371,128.143 40.3277,130.451 40.5465,132.315 M32.9996,127.8 C32.9996,129.091 33.5204,130.227 34.5621,131.206 C35.6246,132.154 36.8225,132.628 38.1558,132.628 C38.6975,132.628 39.2287,132.586 39.7496,132.503 C39.5412,130.524 39.1298,128.154 38.5152,125.393 C37.7756,125.477 37.1871,125.737 36.7496,126.175 C36.3121,126.633 36.0933,127.149 36.0933,127.722 C36.0933,128.711 36.6246,129.513 37.6871,130.128 C37.7704,130.222 37.8121,130.32 37.8121,130.425 C37.8121,130.529 37.7704,130.623 37.6871,130.706 C37.6037,130.8 37.5048,130.847 37.3902,130.847 C37.3798,130.847 37.3225,130.836 37.2183,130.815 C36.4683,130.409 35.8954,129.888 35.4996,129.253 C35.1142,128.565 34.9215,127.878 34.9215,127.19 C34.9215,126.294 35.2027,125.482 35.7652,124.753 C36.3485,124.024 37.109,123.555 38.0465,123.347 C37.6819,121.888 37.385,120.748 37.1558,119.925 C36.9475,120.164 36.6975,120.448 36.4058,120.776 C36.1142,121.104 35.9423,121.305 35.8902,121.378 C35.4215,121.982 35.0621,122.456 34.8121,122.8 C34.3642,123.414 34.036,123.94 33.8277,124.378 C33.609,124.878 33.4162,125.419 33.2496,126.003 C33.0829,126.565 32.9996,127.164 32.9996,127.8 M39.5152,107.94 C38.536,108.419 37.7704,109.107 37.2183,110.003 C36.6454,110.93 36.359,111.925 36.359,112.987 C36.359,113.925 36.5933,115.19 37.0621,116.784 C37.9996,115.649 38.7027,114.602 39.1715,113.643 C39.661,112.623 39.9058,111.56 39.9058,110.456 C39.9058,109.623 39.7756,108.784 39.5152,107.94"/>
<path class="TimeSig" d="M53.684,113.597 C54.0694,113.597 54.4001,113.552 54.6762,113.464 C54.9522,113.375 55.1267,113.331 55.1996,113.331 C55.2933,113.331 55.3663,113.357 55.4183,113.409 C55.46,113.44 55.486,113.482 55.4965,113.534 C55.4965,113.565 55.4808,113.607 55.4496,113.659 L49.7777,120.268 L53.1058,120.268 L53.1058,117.643 C53.1058,117.477 53.1527,117.331 53.2465,117.206 C53.4027,117.081 53.5329,117.003 53.6371,116.972 C53.8038,116.899 54.0121,116.716 54.2621,116.425 C54.4704,116.195 54.7204,115.789 55.0121,115.206 C55.0433,115.123 55.1006,115.081 55.184,115.081 C55.3402,115.081 55.4288,115.175 55.4496,115.362 L55.4496,120.268 L56.8871,120.268 C57.0642,120.268 57.1683,120.362 57.1996,120.55 C57.1996,120.748 57.0954,120.847 56.8871,120.847 L55.4496,120.847 L55.4496,121.003 C55.4496,121.524 55.5798,121.966 55.8402,122.331 C56.1423,122.695 56.4965,122.878 56.9027,122.878 C57.059,122.878 57.1371,122.956 57.1371,123.112 C57.1371,123.268 57.059,123.347 56.9027,123.347 C56.6319,123.347 56.1892,123.31 55.5746,123.237 C55.0121,123.143 54.5746,123.097 54.2621,123.097 C53.9392,123.097 53.5017,123.143 52.9496,123.237 C52.3663,123.31 51.934,123.347 51.6527,123.347 C51.4965,123.347 51.4183,123.268 51.4183,123.112 C51.4183,122.956 51.4965,122.878 51.6527,122.878 C52.0485,122.878 52.3975,122.69 52.6996,122.315 C52.9704,121.93 53.1058,121.466 53.1058,120.925 L49.7777,120.925 C49.5485,120.925 49.3923,120.862 49.309,120.737 C49.1944,120.654 49.1371,120.534 49.1371,120.378 C49.1371,120.336 49.236,120.201 49.434,119.972 C49.6631,119.711 49.8975,119.393 50.1371,119.018 C50.4288,118.57 50.7048,118.112 50.9652,117.643 C51.2465,117.112 51.4756,116.498 51.6527,115.8 C51.8402,115.102 51.934,114.388 51.934,113.659 C51.934,113.451 52.0277,113.347 52.2152,113.347 C52.2569,113.347 52.3402,113.367 52.4652,113.409 C52.5069,113.419 52.5902,113.438 52.7152,113.464 C52.8402,113.49 52.9392,113.513 53.0121,113.534 C53.2517,113.576 53.4756,113.597 53.684,113.597"/>
<path class="TimeSig" d="M53.684,123.597 C54.0694,123.597 54.4001,123.552 54.6762,123.464 C54.9522,123.375 55.1267,123.331 55.1996,123.331 C55.2933,123.331 55.3663,123.357 55.4183,123.409 C55.46,123.44 55.486,123.482 55.4965,123.534 C55.4965,123.565 55.4808,123.607 55.4496,123.659 L49.7777,130.268 L53.1058,130.268 L53.1058,127.643 C53.1058,127.477 53.1527,127.331 53.2465,127.206 C53.4027,127.081 53.5329,127.003 53.6371,126.972 C53.8038,126.899 54.0121,126.716 54.2621,126.425 C54.4704,126.195 54.7204,125.789 55.0121,125.206 C55.0433,125.123 55.1006,125.081 55.184,125.081 C55.3402,125.081 55.4288,125.175 55.4496,125.362 L55.4496,130.268 L56.8871,130.268 C57.0642,130.268 57.1683,130.362 57.1996,130.55 C57.1996,130.748 57.0954,130.847 56.8871,130.847 L55.4496,130.847 L55.4496,131.003 C55.4496,131.524 55.5798,131.966 55.8402,132.331 C56.1423,132.695 56.4965,132.878 56.9027,132.878 C57.059,132.878 57.1371,132.956 57.1371,133.112 C57.1371,133.268 57.059,133.347 56.9027,133.347 C56.6319,133.347 56.1892,133.31 55.5746,133.237 C55.0121,133.143 54.5746,133.097 54.2621,133.097 C53.9392,133.097 53.5017,133.143 52.9496,133.237 C52.3663,133.31 51.934,133.347 51.6527,133.347 C51.4965,133.347 51.4183,133.268 51.4183,133.112 C51.4183,132.956 51.4965,132.878 51.6527,132.878 C52.0485,132.878 52.3975,132.69 52.6996,132.315 C52.9704,131.93 53.1058,131.466 53.1058,130.925 L49.7777,130.925 C49.5485,130.925 49.3923,130.862 49.309,130.737 C49.1944,130.654 49.1371,130.534 49.1371,130.378 C49.1371,130.336 49.236,130.201 49.434,129.972 C49.6631,129.711 49.8975,129.393 50.1371,129.018 C50.4288,128.57 50.7048,128.112 50.9652,127.643 C51.2465,127.112 51.4756,126.498 51.6527,125.8 C51.8402,125.102 51.934,124.388 51.934,123.659 C51.934,123.451 52.0277,123.347 52.2152,123.347 C52.2569,123.347 52.3402,123.367 52.4652,123.409 C52.5069,123.419 52.5902,123.438 52.7152,123.464 C52.8402,123.49 52.9392,123.513 53.0121,123.534 C53.2517,123.576 53.4756,123.597 53.684,123.597"/>
<path class="Rest" d="M507.524,121.472 L500.415,121.472 C500.279,121.472 500.211,121.409 500.211,121.284 L500.211,118.55 C500.211,118.414 500.279,118.347 500.415,118.347 L507.524,118.347 C507.649,118.347 507.711,118.414 507.711,118.55 L507.711,121.284 C507.711,121.409 507.649,121.472 507.524,121.472"/>
<path class="Rest" d="M391.06,121.472 L383.95,121.472 C383.815,121.472 383.747,121.409 383.747,121.284 L383.747,118.55 C383.747,118.414 383.815,118.347 383.95,118.347 L391.06,118.347 C391.185,118.347 391.247,118.414 391.247,118.55 L391.247,121.284 C391.247,121.409 391.185,121.472 391.06,121.472"/>
<path class="Rest" d="M288.297,121.784 C288.297,121.544 288.433,121.284 288.703,121.003 C288.891,120.794 289.177,120.544 289.563,120.253 C289.844,120.065 290.12,119.774 290.391,119.378 C290.651,119.003 290.782,118.591 290.782,118.143 C290.782,117.623 290.615,117.164 290.282,116.768 L289.578,115.925 C289.526,115.873 289.5,115.807 289.5,115.729 C289.5,115.651 289.537,115.581 289.61,115.518 C289.703,115.445 289.782,115.409 289.844,115.409 C289.938,115.409 290.011,115.451 290.063,115.534 L293.094,119.128 C293.219,119.294 293.282,119.461 293.282,119.628 C293.282,119.867 293.151,120.128 292.891,120.409 C292.724,120.597 292.448,120.847 292.063,121.159 C291.761,121.336 291.474,121.628 291.203,122.034 C290.943,122.409 290.813,122.82 290.813,123.268 C290.813,123.82 290.969,124.284 291.282,124.659 L292.953,126.628 C292.995,126.669 293.026,126.737 293.047,126.831 C293.047,126.914 293.016,126.992 292.953,127.065 C292.86,127.128 292.782,127.159 292.719,127.159 C292.698,127.159 292.594,127.086 292.407,126.94 C292.209,126.784 291.948,126.633 291.625,126.487 C291.261,126.352 290.901,126.284 290.547,126.284 C290.224,126.284 289.959,126.373 289.75,126.55 C289.573,126.737 289.485,127.091 289.485,127.612 C289.485,128.404 289.672,129.029 290.047,129.487 C290.089,129.539 290.094,129.602 290.063,129.675 C290.042,129.727 289.995,129.753 289.922,129.753 C289.839,129.753 289.641,129.518 289.328,129.05 C288.995,128.56 288.688,127.992 288.407,127.347 C288.105,126.669 287.953,126.112 287.953,125.675 C287.953,125.112 288.219,124.831 288.75,124.831 C289.365,124.831 290.162,125.039 291.141,125.456 L288.5,122.284 C288.365,122.117 288.297,121.951 288.297,121.784"/>
<path class="Beam" fill-rule="evenodd" d="M142.495,123.365 L186.764,122.097 L186.764,124.597 L142.495,125.865 L142.495,123.365 "/>
<path class="Beam" fill-rule="evenodd" d="M186.764,125.847 L180.164,126.036 L180.164,128.536 L186.764,128.347 L186.764,125.847 "/>
<path class="NoteDot" d="M218.369,136.651 C218.145,136.427 218.033,136.159 218.033,135.847 C218.033,135.534 218.145,135.266 218.369,135.042 C218.593,134.818 218.861,134.706 219.173,134.706 C219.486,134.706 219.751,134.818 219.97,135.042 C220.189,135.266 220.298,135.534 220.298,135.847 C220.298,136.159 220.189,136.427 219.97,136.651 C219.751,136.875 219.486,136.987 219.173,136.987 C218.861,136.987 218.593,136.875 218.369,136.651"/>
<path class="NoteDot" d="M145.231,146.651 C145.007,146.427 144.895,146.159 144.895,145.847 C144.895,145.534 145.007,145.266 145.231,145.042 C145.455,144.818 145.723,144.706 146.036,144.706 C146.348,144.706 146.614,144.818 146.833,145.042 C147.051,145.266 147.161,145.534 147.161,145.847 C147.161,146.159 147.051,146.427 146.833,146.651 C146.614,146.875 146.348,146.987 146.036,146.987 C145.723,146.987 145.455,146.875 145.231,146.651"/>
<path class="NoteDot" d="M74.9637,136.651 C74.7397,136.427 74.6277,136.159 74.6277,135.847 C74.6277,135.534 74.7397,135.266 74.9637,135.042 C75.1876,134.818 75.4559,134.706 75.7684,134.706 C76.0809,134.706 76.3465,134.818 76.5652,135.042 C76.784,135.266 76.8934,135.534 76.8934,135.847 C76.8934,136.159 76.784,136.427 76.5652,136.651 C76.3465,136.875 76.0809,136.987 75.7684,136.987 C75.4559,136.987 75.1876,136.875 74.9637,136.651"/>
</svg>
