<?xml version="1.0" encoding="UTF-8" standalone="no"?>
<svg width="595.44px" height="841.68px" viewBox="0 0 595.44 841.68"
 xmlns="http://www.w3.org/2000/svg" xmlns:xlink="http://www.w3.org/1999/xlink" version="1.2" baseProfile="tiny">
<title>Motiv</title>
<desc>Generated by MuseScore 2.0.3</desc>
<polyline class="StaffLines" fill="none" stroke="#000000" stroke-width="0.40" stroke-linejoin="bevel" points="28.3465,113.347 567.094,113.347"/>
<polyline class="StaffLines" fill="none" stroke="#000000" stroke-width="0.40" stroke-linejoin="bevel" points="28.3465,118.347 567.094,118.347"/>
<polyline class="StaffLines" fill="none" stroke="#000000" stroke-width="0.40" stroke-linejoin="bevel" points="28.3465,123.347 567.094,123.347"/>
<polyline class="StaffLines" fill="none" stroke="#000000" stroke-width="0.40" stroke-linejoin="bevel" points="28.3465,128.347 567.094,128.347"/>
<polyline class="StaffLines" fill="none" stroke="#000000" stroke-width="0.40" stroke-linejoin="bevel" points="28.3465,133.347 567.094,133.347"/>
<polyline class="BarLine" fill="none" stroke="#000000" stroke-width="0.80" stroke-linejoin="bevel" points="562.194,113.347 562.194,133.347"/>
<polyline class="BarLine" fill="none" stroke="#000000" stroke-width="2.50" stroke-linejoin="bevel" points="565.844,113.347 565.844,133.347"/>
<polyline class="BarLine" fill="none" stroke="#000000" stroke-width="0.80" stroke-linejoin="bevel" points="448.957,113.347 448.957,133.347"/>
<polyline class="BarLine" fill="none" stroke="#000000" stroke-width="0.80" stroke-linejoin="bevel" points="335.72,113.347 335.72,133.347"/>
<polyline class="BarLine" fill="none" stroke="#000000" stroke-width="0.80" stroke-linejoin="bevel" points="222.483,113.347 222.483,133.347"/>
<polyline class="Stem" fill="none" stroke="#000000" stroke-width="0.65" stroke-linecap="round" stroke-linejoin="bevel" points="202.89,126.786 202.89,139.597"/>
<polyline class="Stem" fill="none" stroke="#000000" stroke-width="0.65" stroke-linecap="round" stroke-linejoin="bevel" points="183.371,124.286 183.371,137.93"/>
<polyline class="Stem" fill="none" stroke="#000000" stroke-width="0.65" stroke-linecap="round" stroke-linejoin="bevel" points="163.852,121.786 163.852,136.263"/>
<polyline class="Stem" fill="none" stroke="#000000" stroke-width="0.65" stroke-linecap="round" stroke-linejoin="bevel" points="144.334,119.286 144.334,134.597"/>
<polyline class="Stem" fill="none" stroke="#000000" stroke-width="0.65" stroke-linecap="round" stroke-linejoin="bevel" points="130.748,119.907 130.748,104.596"/>
<polyline class="Stem" fill="none" stroke="#000000" stroke-width="0.65" stroke-linecap="round" stroke-linejoin="bevel" points="111.229,122.407 111.229,106.263"/>
<polyline class="Stem" fill="none" stroke="#000000" stroke-width="0.65" stroke-linecap="round" stroke-linejoin="bevel" points="91.7105,124.907 91.7105,107.93"/>
<polyline class="Stem" fill="none" stroke="#000000" stroke-width="0.65" stroke-linecap="round" stroke-linejoin="bevel" points="72.1918,127.407 72.1918,109.597"/>
<path class="Note" d="M206.955,123.097 C207.58,123.097 208.111,123.258 208.549,123.581 C208.945,123.935 209.143,124.378 209.143,124.909 C209.143,125.805 208.684,126.643 207.768,127.425 C206.83,128.206 205.825,128.597 204.752,128.597 C204.127,128.597 203.601,128.435 203.174,128.112 C202.768,127.758 202.565,127.315 202.565,126.784 C202.565,125.888 203.033,125.05 203.971,124.268 C204.888,123.487 205.882,123.097 206.955,123.097"/>
<path class="Note" d="M187.437,120.597 C188.062,120.597 188.593,120.758 189.03,121.081 C189.426,121.435 189.624,121.878 189.624,122.409 C189.624,123.305 189.166,124.143 188.249,124.925 C187.312,125.706 186.306,126.097 185.233,126.097 C184.608,126.097 184.082,125.935 183.655,125.612 C183.249,125.258 183.046,124.815 183.046,124.284 C183.046,123.388 183.515,122.55 184.452,121.768 C185.369,120.987 186.364,120.597 187.437,120.597"/>
<path class="Note" d="M167.918,118.097 C168.543,118.097 169.074,118.258 169.512,118.581 C169.907,118.935 170.105,119.378 170.105,119.909 C170.105,120.805 169.647,121.643 168.73,122.425 C167.793,123.206 166.788,123.597 165.715,123.597 C165.09,123.597 164.564,123.435 164.137,123.112 C163.73,122.758 163.527,122.315 163.527,121.784 C163.527,120.888 163.996,120.05 164.934,119.268 C165.85,118.487 166.845,118.097 167.918,118.097"/>
<path class="Note" d="M148.399,115.597 C149.024,115.597 149.555,115.758 149.993,116.081 C150.389,116.435 150.587,116.878 150.587,117.409 C150.587,118.305 150.128,119.143 149.212,119.925 C148.274,120.706 147.269,121.097 146.196,121.097 C145.571,121.097 145.045,120.935 144.618,120.612 C144.212,120.258 144.009,119.815 144.009,119.284 C144.009,118.388 144.477,117.55 145.415,116.768 C146.332,115.987 147.326,115.597 148.399,115.597"/>
<path class="Note" d="M128.881,118.097 C129.506,118.097 130.037,118.258 130.474,118.581 C130.87,118.935 131.068,119.378 131.068,119.909 C131.068,120.805 130.61,121.643 129.693,122.425 C128.756,123.206 127.75,123.597 126.677,123.597 C126.052,123.597 125.526,123.435 125.099,123.112 C124.693,122.758 124.49,122.315 124.49,121.784 C124.49,120.888 124.959,120.05 125.896,119.268 C126.813,118.487 127.808,118.097 128.881,118.097"/>
<path class="Note" d="M109.362,120.597 C109.987,120.597 110.518,120.758 110.956,121.081 C111.352,121.435 111.549,121.878 111.549,122.409 C111.549,123.305 111.091,124.143 110.174,124.925 C109.237,125.706 108.232,126.097 107.159,126.097 C106.534,126.097 106.008,125.935 105.581,125.612 C105.174,125.258 104.971,124.815 104.971,124.284 C104.971,123.388 105.44,122.55 106.378,121.768 C107.294,120.987 108.289,120.597 109.362,120.597"/>
<path class="Note" d="M89.8433,123.097 C90.4683,123.097 90.9995,123.258 91.437,123.581 C91.8328,123.935 92.0308,124.378 92.0308,124.909 C92.0308,125.805 91.5724,126.643 90.6558,127.425 C89.7183,128.206 88.7131,128.597 87.6401,128.597 C87.0151,128.597 86.4891,128.435 86.062,128.112 C85.6558,127.758 85.4526,127.315 85.4526,126.784 C85.4526,125.888 85.9214,125.05 86.8589,124.268 C87.7756,123.487 88.7703,123.097 89.8433,123.097"/>
<path class="Note" d="M70.3246,125.597 C70.9496,125.597 71.4808,125.758 71.9183,126.081 C72.3142,126.435 72.5121,126.878 72.5121,127.409 C72.5121,128.305 72.0538,129.143 71.1371,129.925 C70.1996,130.706 69.1944,131.097 68.1215,131.097 C67.4965,131.097 66.9704,130.935 66.5433,130.612 C66.1371,130.258 65.934,129.815 65.934,129.284 C65.934,128.388 66.4027,127.55 67.3402,126.768 C68.2569,125.987 69.2517,125.597 70.3246,125.597"/>
<path class="Clef" d="M38.8902,123.222 C38.8902,123.222 38.9319,123.222 39.0152,123.222 C39.0673,123.211 39.109,123.206 39.1402,123.206 C40.5985,123.206 41.7965,123.722 42.734,124.753 C43.6715,125.763 44.1402,126.945 44.1402,128.3 C44.1402,129.987 43.4475,131.357 42.0621,132.409 C41.6975,132.701 41.2183,132.935 40.6246,133.112 C40.6975,133.956 40.734,134.638 40.734,135.159 C40.734,135.263 40.7183,135.643 40.6871,136.3 C40.635,137.508 40.2183,138.555 39.4371,139.44 C38.6871,140.315 37.7496,140.753 36.6246,140.753 C35.5725,140.753 34.6767,140.383 33.9371,139.643 C33.1871,138.883 32.8121,137.972 32.8121,136.909 C32.8121,136.347 33.0308,135.867 33.4683,135.472 C33.9058,135.086 34.4162,134.893 34.9996,134.893 C35.5204,134.893 35.9579,135.097 36.3121,135.503 C36.6767,135.878 36.859,136.347 36.859,136.909 C36.859,137.409 36.6767,137.841 36.3121,138.206 C35.9475,138.57 35.51,138.753 34.9996,138.753 C34.7912,138.753 34.5933,138.716 34.4058,138.643 C34.9787,139.487 35.7392,139.909 36.6871,139.909 C37.5829,139.909 38.3173,139.544 38.8902,138.815 C39.4944,138.065 39.8225,137.185 39.8746,136.175 C39.8954,135.55 39.9058,135.195 39.9058,135.112 C39.9058,134.383 39.8798,133.784 39.8277,133.315 C39.1819,133.419 38.6037,133.472 38.0933,133.472 C36.2808,133.472 34.7392,132.753 33.4683,131.315 C32.2183,129.867 31.5933,128.149 31.5933,126.159 C31.5933,125.742 31.6298,125.32 31.7027,124.893 C31.786,124.539 31.885,124.154 31.9996,123.737 C32.0621,123.498 32.2392,123.117 32.5308,122.597 C32.635,122.44 32.7522,122.245 32.8824,122.011 C33.0126,121.776 33.1037,121.623 33.1558,121.55 C33.2808,121.289 33.5308,120.935 33.9058,120.487 C34.01,120.373 34.1194,120.245 34.234,120.104 C34.3485,119.964 34.4449,119.847 34.523,119.753 C34.6011,119.659 34.6584,119.586 34.6949,119.534 C34.7313,119.482 35.0256,119.138 35.5777,118.503 C35.7027,118.367 35.8277,118.227 35.9527,118.081 C36.0777,117.935 36.1793,117.818 36.2574,117.729 C36.3355,117.641 36.3954,117.581 36.4371,117.55 C35.9683,115.998 35.6715,114.758 35.5465,113.831 C35.4631,113.091 35.4215,112.076 35.4215,110.784 C35.4215,109.649 35.6819,108.586 36.2027,107.597 C36.7027,106.576 37.411,105.737 38.3277,105.081 C38.3902,105.039 38.4527,105.018 38.5152,105.018 C38.609,105.018 38.6767,105.039 38.7183,105.081 C39.4162,105.925 40.0204,107.024 40.5308,108.378 C41.0517,109.732 41.3121,110.966 41.3121,112.081 C41.3121,113.331 41.0152,114.503 40.4215,115.597 C39.7444,116.753 38.8694,117.951 37.7965,119.19 C38.0673,120.044 38.4319,121.388 38.8902,123.222 M40.5465,132.315 C41.2235,132.065 41.7548,131.643 42.1402,131.05 C42.5569,130.477 42.7652,129.831 42.7652,129.112 C42.7652,128.185 42.4527,127.362 41.8277,126.643 C41.1819,125.904 40.3642,125.487 39.3746,125.393 C39.9371,128.143 40.3277,130.451 40.5465,132.315 M32.9996,127.8 C32.9996,129.091 33.5204,130.227 34.5621,131.206 C35.6246,132.154 36.8225,132.628 38.1558,132.628 C38.6975,132.628 39.2287,132.586 39.7496,132.503 C39.5412,130.524 39.1298,128.154 38.5152,125.393 C37.7756,125.477 37.1871,125.737 36.7496,126.175 C36.3121,126.633 36.0933,127.149 36.0933,127.722 C36.0933,128.711 36.6246,129.513 37.6871,130.128 C37.7704,130.222 37.8121,130.32 37.8121,130.425 C37.8121,130.529 37.7704,130.623 37.6871,130.706 C37.6037,130.8 37.5048,130.847 37.3902,130.847 C37.3798,130.847 37.3225,130.836 37.2183,130.815 C36.4683,130.409 35.8954,129.888 35.4996,129.253 C35.1142,128.565 34.9215,127.878 34.9215,127.19 C34.9215,126.294 35.2027,125.482 35.7652,124.753 C36.3485,124.024 37.109,123.555 38.0465,123.347 C37.6819,121.888 37.385,120.748 37.1558,119.925 C36.9475,120.164 36.6975,120.448 36.4058,120.776 C36.1142,121.104 35.9423,121.305 35.8902,121.378 C35.4215,121.982 35.0621,122.456 34.8121,122.8 C34.3642,123.414 34.036,123.94 33.8277,124.378 C33.609,124.878 33.4162,125.419 33.2496,126.003 C33.0829,126.565 32.9996,127.164 32.9996,127.8 M39.5152,107.94 C38.536,108.419 37.7704,109.107 37.2183,110.003 C36.6454,110.93 36.359,111.925 36.359,112.987 C36.359,113.925 36.5933,115.19 37.0621,116.784 C37.9996,115.649 38.7027,114.602 39.1715,113.643 C39.661,112.623 39.9058,111.56 39.9058,110.456 C39.9058,109.623 39.7756,108.784 39.5152,107.94"/>
<path class="TimeSig" d="M53.684,113.597 C54.0694,113.597 54.4001,113.552 54.6762,113.464 C54.9522,113.375 55.1267,113.331 55.1996,113.331 C55.2933,113.331 55.3663,113.357 55.4183,113.409 C55.46,113.44 55.486,113.482 55.4965,113.534 C55.4965,113.565 55.4808,113.607 55.4496,113.659 L49.7777,120.268 L53.1058,120.268 L53.1058,117.643 C53.1058,117.477 53.1527,117.331 53.2465,117.206 C53.4027,117.081 53.5329,117.003 53.6371,116.972 C53.8038,116.899 54.0121,116.716 54.2621,116.425 C54.4704,116.195 54.7204,115.789 55.0121,115.206 C55.0433,115.123 55.1006,115.081 55.184,115.081 C55.3402,115.081 55.4288,115.175 55.4496,115.362 L55.4496,120.268 L56.8871,120.268 C57.0642,120.268 57.1683,120.362 57.1996,120.55 C57.1996,120.748 57.0954,120.847 56.8871,120.847 L55.4496,120.847 L55.4496,121.003 C55.4496,121.524 55.5798,121.966 55.8402,122.331 C56.1423,122.695 56.4965,122.878 56.9027,122.878 C57.059,122.878 57.1371,122.956 57.1371,123.112 C57.1371,123.268 57.059,123.347 56.9027,123.347 C56.6319,123.347 56.1892,123.31 55.5746,123.237 C55.0121,123.143 54.5746,123.097 54.2621,123.097 C53.9392,123.097 53.5017,123.143 52.9496,123.237 C52.3663,123.31 51.934,123.347 51.6527,123.347 C51.4965,123.347 51.4183,123.268 51.4183,123.112 C51.4183,122.956 51.4965,122.878 51.6527,122.878 C52.0485,122.878 52.3975,122.69 52.6996,122.315 C52.9704,121.93 53.1058,121.466 53.1058,120.925 L49.7777,120.925 C49.5485,120.925 49.3923,120.862 49.309,120.737 C49.1944,120.654 49.1371,120.534 49.1371,120.378 C49.1371,120.336 49.236,120.201 49.434,119.972 C49.6631,119.711 49.8975,119.393 50.1371,119.018 C50.4288,118.57 50.7048,118.112 50.9652,117.643 C51.2465,117.112 51.4756,116.498 51.6527,115.8 C51.8402,115.102 51.934,114.388 51.934,113.659 C51.934,113.451 52.0277,113.347 52.2152,113.347 C52.2569,113.347 52.3402,113.367 52.4652,113.409 C52.5069,113.419 52.5902,113.438 52.7152,113.464 C52.8402,113.49 52.9392,113.513 53.0121,113.534 C53.2517,113.576 53.4756,113.597 53.684,113.597"/>
<path class="TimeSig" d="M53.684,123.597 C54.0694,123.597 54.4001,123.552 54.6762,123.464 C54.9522,123.375 55.1267,123.331 55.1996,123.331 C55.2933,123.331 55.3663,123.357 55.4183,123.409 C55.46,123.44 55.486,123.482 55.4965,123.534 C55.4965,123.565 55.4808,123.607 55.4496,123.659 L49.7777,130.268 L53.1058,130.268 L53.1058,127.643 C53.1058,127.477 53.1527,127.331 53.2465,127.206 C53.4027,127.081 53.5329,127.003 53.6371,126.972 C53.8038,126.899 54.0121,126.716 54.2621,126.425 C54.4704,126.195 54.7204,125.789 55.0121,125.206 C55.0433,125.123 55.1006,125.081 55.184,125.081 C55.3402,125.081 55.4288,125.175 55.4496,125.362 L55.4496,130.268 L56.8871,130.268 C57.0642,130.268 57.1683,130.362 57.1996,130.55 C57.1996,130.748 57.0954,130.847 56.8871,130.847 L55.4496,130.847 L55.4496,131.003 C55.4496,131.524 55.5798,131.966 55.8402,132.331 C56.1423,132.695 56.4965,132.878 56.9027,132.878 C57.059,132.878 57.1371,132.956 57.1371,133.112 C57.1371,133.268 57.059,133.347 56.9027,133.347 C56.6319,133.347 56.1892,133.31 55.5746,133.237 C55.0121,133.143 54.5746,133.097 54.2621,133.097 C53.9392,133.097 53.5017,133.143 52.9496,133.237 C52.3663,133.31 51.934,133.347 51.6527,133.347 C51.4965,133.347 51.4183,133.268 51.4183,133.112 C51.4183,132.956 51.4965,132.878 51.6527,132.878 C52.0485,132.878 52.3975,132.69 52.6996,132.315 C52.9704,131.93 53.1058,131.466 53.1058,130.925 L49.7777,130.925 C49.5485,130.925 49.3923,130.862 49.309,130.737 C49.1944,130.654 49.1371,130.534 49.1371,130.378 C49.1371,130.336 49.236,130.201 49.434,129.972 C49.6631,129.711 49.8975,129.393 50.1371,129.018 C50.4288,128.57 50.7048,128.112 50.9652,127.643 C51.2465,127.112 51.4756,126.498 51.6527,125.8 C51.8402,125.102 51.934,124.388 51.934,123.659 C51.934,123.451 52.0277,123.347 52.2152,123.347 C52.2569,123.347 52.3402,123.367 52.4652,123.409 C52.5069,123.419 52.5902,123.438 52.7152,123.464 C52.8402,123.49 52.9392,123.513 53.0121,123.534 C53.2517,123.576 53.4756,123.597 53.684,123.597"/>
<path class="Rest" d="M509.138,121.472 L502.028,121.472 C501.893,121.472 501.825,121.409 501.825,121.284 L501.825,118.55 C501.825,118.414 501.893,118.347 502.028,118.347 L509.138,118.347 C509.263,118.347 509.325,118.414 509.325,118.55 L509.325,121.284 C509.325,121.409 509.263,121.472 509.138,121.472"/>
<path class="Rest" d="M395.901,121.472 L388.792,121.472 C388.656,121.472 388.588,121.409 388.588,121.284 L388.588,118.55 C388.588,118.414 388.656,118.347 388.792,118.347 L395.901,118.347 C396.026,118.347 396.088,118.414 396.088,118.55 L396.088,121.284 C396.088,121.409 396.026,121.472 395.901,121.472"/>
<path class="Rest" d="M282.664,121.472 L275.555,121.472 C275.419,121.472 275.352,121.409 275.352,121.284 L275.352,118.55 C275.352,118.414 275.419,118.347 275.555,118.347 L282.664,118.347 C282.789,118.347 282.852,118.414 282.852,118.55 L282.852,121.284 C282.852,121.409 282.789,121.472 282.664,121.472"/>
<path class="Articulation" d="M205.819,121.546 C205.621,121.348 205.522,121.113 205.522,120.843 C205.522,120.572 205.621,120.337 205.819,120.139 C206.016,119.942 206.251,119.843 206.522,119.843 C206.792,119.843 207.027,119.942 207.225,120.139 C207.423,120.337 207.522,120.572 207.522,120.843 C207.522,121.113 207.423,121.348 207.225,121.546 C207.027,121.744 206.792,121.843 206.522,121.843 C206.251,121.843 206.016,121.744 205.819,121.546"/>
<path class="Articulation" d="M186.3,116.546 C186.102,116.348 186.003,116.113 186.003,115.843 C186.003,115.572 186.102,115.337 186.3,115.139 C186.498,114.942 186.732,114.843 187.003,114.843 C187.274,114.843 187.508,114.942 187.706,115.139 C187.904,115.337 188.003,115.572 188.003,115.843 C188.003,116.113 187.904,116.348 187.706,116.546 C187.508,116.744 187.274,116.843 187.003,116.843 C186.732,116.843 186.498,116.744 186.3,116.546"/>
<path class="Articulation" d="M166.781,116.546 C166.583,116.348 166.484,116.113 166.484,115.843 C166.484,115.572 166.583,115.337 166.781,115.139 C166.979,114.942 167.213,114.843 167.484,114.843 C167.755,114.843 167.99,114.942 168.187,115.139 C168.385,115.337 168.484,115.572 168.484,115.843 C168.484,116.113 168.385,116.348 168.187,116.546 C167.99,116.744 167.755,116.843 167.484,116.843 C167.213,116.843 166.979,116.744 166.781,116.546"/>
<path class="Articulation" d="M147.263,111.546 C147.065,111.348 146.966,111.113 146.966,110.843 C146.966,110.572 147.065,110.337 147.263,110.139 C147.46,109.942 147.695,109.843 147.966,109.843 C148.236,109.843 148.471,109.942 148.669,110.139 C148.867,110.337 148.966,110.572 148.966,110.843 C148.966,111.113 148.867,111.348 148.669,111.546 C148.471,111.744 148.236,111.843 147.966,111.843 C147.695,111.843 147.46,111.744 147.263,111.546"/>
<path class="Articulation" d="M127.094,126.554 C126.896,126.356 126.797,126.121 126.797,125.85 C126.797,125.58 126.896,125.345 127.094,125.147 C127.292,124.949 127.526,124.85 127.797,124.85 C128.068,124.85 128.302,124.949 128.5,125.147 C128.698,125.345 128.797,125.58 128.797,125.85 C128.797,126.121 128.698,126.356 128.5,126.554 C128.302,126.751 128.068,126.85 127.797,126.85 C127.526,126.85 127.292,126.751 127.094,126.554"/>
<path class="Articulation" d="M107.575,131.554 C107.377,131.356 107.278,131.121 107.278,130.85 C107.278,130.58 107.377,130.345 107.575,130.147 C107.773,129.949 108.007,129.85 108.278,129.85 C108.549,129.85 108.784,129.949 108.981,130.147 C109.179,130.345 109.278,130.58 109.278,130.85 C109.278,131.121 109.179,131.356 108.981,131.554 C108.784,131.751 108.549,131.85 108.278,131.85 C108.007,131.85 107.773,131.751 107.575,131.554"/>
<path class="Articulation" d="M88.0565,131.554 C87.8586,131.356 87.7597,131.121 87.7597,130.85 C87.7597,130.58 87.8586,130.345 88.0565,130.147 C88.2545,129.949 88.4888,129.85 88.7597,129.85 C89.0305,129.85 89.2649,129.949 89.4628,130.147 C89.6607,130.345 89.7597,130.58 89.7597,130.85 C89.7597,131.121 89.6607,131.356 89.4628,131.554 C89.2649,131.751 89.0305,131.85 88.7597,131.85 C88.4888,131.85 88.2545,131.751 88.0565,131.554"/>
<path class="Articulation" d="M68.5379,136.554 C68.34,136.356 68.241,136.121 68.241,135.85 C68.241,135.58 68.34,135.345 68.5379,135.147 C68.7358,134.949 68.9702,134.85 69.241,134.85 C69.5118,134.85 69.7462,134.949 69.9441,135.147 C70.142,135.345 70.241,135.58 70.241,135.85 C70.241,136.121 70.142,136.356 69.9441,136.554 C69.7462,136.751 69.5118,136.85 69.241,136.85 C68.9702,136.85 68.7358,136.751 68.5379,136.554"/>
<path class="Dynamic" d="M141.811,149.331 C141.811,149.518 141.899,149.685 142.076,149.831 C142.274,149.998 142.482,150.149 142.701,150.284 C142.92,150.419 143.128,150.602 143.326,150.831 C143.514,151.07 143.602,151.326 143.592,151.597 C143.592,152.128 143.378,152.55 142.951,152.862 C142.524,153.185 142.019,153.347 141.436,153.347 C141.029,153.347 140.675,153.253 140.373,153.065 C140.071,152.878 139.92,152.617 139.92,152.284 C139.92,152.076 139.972,151.899 140.076,151.753 C140.191,151.607 140.329,151.534 140.49,151.534 C140.652,151.534 140.79,151.591 140.904,151.706 C141.019,151.82 141.076,151.961 141.076,152.128 C141.076,152.211 141.008,152.3 140.873,152.393 C140.738,152.498 140.67,152.581 140.67,152.643 C140.67,152.789 140.748,152.896 140.904,152.964 C141.061,153.031 141.227,153.065 141.404,153.065 C141.675,153.065 141.93,152.977 142.17,152.8 C142.41,152.612 142.524,152.388 142.514,152.128 C142.514,151.888 142.415,151.659 142.217,151.44 C142.05,151.263 141.844,151.102 141.6,150.956 C141.355,150.81 141.154,150.654 140.998,150.487 C140.811,150.289 140.717,150.081 140.717,149.862 C140.717,149.352 140.91,148.919 141.295,148.565 C141.649,148.222 142.107,148.05 142.67,148.05 C143.128,148.05 143.456,148.154 143.654,148.362 C143.883,148.602 143.998,148.862 143.998,149.143 C143.998,149.352 143.946,149.524 143.842,149.659 C143.727,149.815 143.587,149.883 143.42,149.862 C143.253,149.862 143.113,149.826 142.998,149.753 C142.883,149.68 142.826,149.591 142.826,149.487 C142.826,149.466 142.868,149.367 142.951,149.19 C143.035,149.044 143.076,148.896 143.076,148.745 C143.076,148.594 143.05,148.487 142.998,148.425 C142.915,148.331 142.826,148.279 142.732,148.268 C142.462,148.268 142.24,148.378 142.068,148.597 C141.897,148.815 141.811,149.06 141.811,149.331 M147.982,148.268 L147.029,151.362 C146.696,152.477 146.139,153.555 145.357,154.597 C144.566,155.638 143.758,156.159 142.936,156.159 C142.508,156.159 142.131,156.047 141.803,155.823 C141.475,155.599 141.311,155.31 141.311,154.956 C141.311,154.55 141.394,154.206 141.561,153.925 C141.738,153.654 141.982,153.508 142.295,153.487 C142.524,153.487 142.717,153.57 142.873,153.737 C143.029,153.904 143.107,154.097 143.107,154.315 C143.107,154.513 142.993,154.695 142.764,154.862 C142.524,155.008 142.399,155.175 142.389,155.362 C142.389,155.487 142.529,155.55 142.811,155.55 L142.936,155.55 C142.998,155.55 143.092,155.534 143.217,155.503 C143.29,155.492 143.378,155.451 143.482,155.378 C143.482,155.378 143.545,155.326 143.67,155.222 C143.753,155.107 143.805,155.024 143.826,154.972 C143.868,154.867 143.904,154.784 143.936,154.722 C143.977,154.68 144.014,154.576 144.045,154.409 C144.066,154.367 144.081,154.32 144.092,154.268 C144.102,154.216 144.113,154.18 144.123,154.159 C144.133,154.138 144.139,154.123 144.139,154.112 C144.191,153.904 144.227,153.779 144.248,153.737 C144.29,153.529 144.311,153.425 144.311,153.425 L145.592,148.268 L144.607,148.268 C144.514,148.268 144.446,148.237 144.404,148.175 C144.352,148.091 144.326,148.018 144.326,147.956 C144.326,147.873 144.352,147.8 144.404,147.737 C144.488,147.675 144.555,147.643 144.607,147.643 L145.779,147.643 C146.102,146.664 146.639,145.82 147.389,145.112 C148.128,144.383 148.925,144.018 149.779,144.018 C150.238,144.018 150.618,144.133 150.92,144.362 C151.243,144.581 151.41,144.867 151.42,145.222 C151.42,145.607 151.337,145.951 151.17,146.253 C150.972,146.524 150.727,146.664 150.436,146.675 C150.206,146.675 150.014,146.594 149.857,146.432 C149.701,146.271 149.623,146.081 149.623,145.862 C149.623,145.675 149.743,145.503 149.982,145.347 C150.222,145.19 150.337,145.013 150.326,144.815 C150.326,144.669 150.191,144.602 149.92,144.612 L149.873,144.612 C149.842,144.633 149.811,144.638 149.779,144.628 C149.55,144.628 149.357,144.685 149.201,144.8 C149.045,144.904 148.899,145.091 148.764,145.362 C148.722,145.435 148.688,145.508 148.662,145.581 C148.636,145.654 148.607,145.735 148.576,145.823 C148.545,145.912 148.519,145.972 148.498,146.003 C148.488,146.065 148.467,146.195 148.436,146.393 C148.394,146.581 148.357,146.742 148.326,146.878 C148.243,147.274 148.186,147.529 148.154,147.643 L149.232,147.643 C149.316,147.643 149.391,147.672 149.459,147.729 C149.527,147.787 149.561,147.86 149.561,147.948 C149.561,148.037 149.527,148.112 149.459,148.175 C149.391,148.237 149.316,148.268 149.232,148.268 L147.982,148.268 "/>
<path class="Beam" fill-rule="evenodd" d="M144.009,133.347 L203.215,138.402 L203.215,140.902 L144.009,135.847 L144.009,133.347 "/>
<path class="Beam" fill-rule="evenodd" d="M71.8668,108.402 L131.073,103.346 L131.073,105.846 L71.8668,110.902 L71.8668,108.402 "/>
</svg>
