<?xml version="1.0" encoding="UTF-8" standalone="no"?>
<svg width="595.44px" height="841.68px" viewBox="0 0 595.44 841.68"
 xmlns="http://www.w3.org/2000/svg" xmlns:xlink="http://www.w3.org/1999/xlink" version="1.2" baseProfile="tiny">
<title>Motiv</title>
<desc>Generated by MuseScore 2.0.3</desc>
<polyline class="StaffLines" fill="none" stroke="#000000" stroke-width="0.40" stroke-linejoin="bevel" points="28.3465,113.347 567.094,113.347"/>
<polyline class="StaffLines" fill="none" stroke="#000000" stroke-width="0.40" stroke-linejoin="bevel" points="28.3465,118.347 567.094,118.347"/>
<polyline class="StaffLines" fill="none" stroke="#000000" stroke-width="0.40" stroke-linejoin="bevel" points="28.3465,123.347 567.094,123.347"/>
<polyline class="StaffLines" fill="none" stroke="#000000" stroke-width="0.40" stroke-linejoin="bevel" points="28.3465,128.347 567.094,128.347"/>
<polyline class="StaffLines" fill="none" stroke="#000000" stroke-width="0.40" stroke-linejoin="bevel" points="28.3465,133.347 567.094,133.347"/>
<polyline class="BarLine" fill="none" stroke="#000000" stroke-width="0.80" stroke-linejoin="bevel" points="562.194,113.347 562.194,133.347"/>
<polyline class="BarLine" fill="none" stroke="#000000" stroke-width="2.50" stroke-linejoin="bevel" points="565.844,113.347 565.844,133.347"/>
<polyline class="BarLine" fill="none" stroke="#000000" stroke-width="0.80" stroke-linejoin="bevel" points="454.032,113.347 454.032,133.347"/>
<polyline class="BarLine" fill="none" stroke="#000000" stroke-width="0.80" stroke-linejoin="bevel" points="345.871,113.347 345.871,133.347"/>
<polyline class="BarLine" fill="none" stroke="#000000" stroke-width="0.80" stroke-linejoin="bevel" points="191.755,113.347 191.755,133.347"/>
<path class="Accidental" d="M322.715,119.581 C322.715,119.831 322.593,119.956 322.348,119.956 C322.103,119.956 321.981,119.831 321.981,119.581 L321.981,116.69 L320.324,117.315 L320.324,120.472 C320.324,120.722 320.199,120.847 319.949,120.847 C319.699,120.847 319.574,120.722 319.574,120.472 L319.574,117.565 L318.949,117.8 C318.939,117.81 318.887,117.815 318.793,117.815 C318.689,117.815 318.598,117.776 318.52,117.698 C318.441,117.62 318.402,117.529 318.402,117.425 L318.402,116.222 C318.402,116.024 318.486,115.899 318.652,115.847 L319.574,115.534 L319.574,112.331 L318.949,112.55 C318.939,112.56 318.887,112.565 318.793,112.565 C318.689,112.565 318.598,112.526 318.52,112.448 C318.441,112.37 318.402,112.279 318.402,112.175 L318.402,110.956 C318.402,110.779 318.486,110.664 318.652,110.612 L319.574,110.253 L319.574,107.112 C319.574,106.862 319.699,106.737 319.949,106.737 C320.199,106.737 320.324,106.862 320.324,107.112 L320.324,110.003 L321.981,109.378 L321.981,106.222 C321.981,105.972 322.103,105.847 322.348,105.847 C322.593,105.847 322.715,105.972 322.715,106.222 L322.715,109.128 L323.371,108.893 C323.382,108.883 323.423,108.878 323.496,108.878 C323.59,108.878 323.689,108.914 323.793,108.987 C323.876,109.07 323.918,109.164 323.918,109.268 L323.918,110.472 C323.918,110.659 323.824,110.784 323.637,110.847 L322.715,111.159 L322.715,114.362 L323.371,114.143 C323.382,114.133 323.423,114.128 323.496,114.128 C323.59,114.128 323.689,114.169 323.793,114.253 C323.876,114.326 323.918,114.414 323.918,114.518 L323.918,115.737 C323.918,115.904 323.824,116.018 323.637,116.081 L322.715,116.44 L322.715,119.581 M321.981,111.456 L320.324,112.034 L320.324,115.237 L321.981,114.659 L321.981,111.456 "/>
<path class="Accidental" d="M123.91,105.847 C124.077,105.753 124.246,105.706 124.418,105.706 C124.59,105.706 124.759,105.753 124.926,105.847 L124.863,109.503 L127.004,109.112 L127.082,109.112 C127.311,109.112 127.426,109.222 127.426,109.44 L127.566,120.847 C127.4,120.94 127.23,120.987 127.058,120.987 C126.887,120.987 126.717,120.94 126.551,120.847 L126.613,117.19 L124.504,117.581 L124.426,117.581 C124.186,117.581 124.066,117.472 124.066,117.253 L123.91,105.847 M126.629,115.237 L126.691,111.097 L124.847,111.456 L124.785,115.597 L126.629,115.237 "/>
<polyline class="Stem" fill="none" stroke="#000000" stroke-width="0.65" stroke-linecap="round" stroke-linejoin="bevel" points="325.335,114.286 325.335,128.347"/>
<polyline class="Stem" fill="none" stroke="#000000" stroke-width="0.65" stroke-linecap="round" stroke-linejoin="bevel" points="304.875,114.286 304.875,130.013"/>
<polyline class="Stem" fill="none" stroke="#000000" stroke-width="0.65" stroke-linecap="round" stroke-linejoin="bevel" points="284.414,116.786 284.414,131.68"/>
<polyline class="Stem" fill="none" stroke="#000000" stroke-width="0.65" stroke-linecap="round" stroke-linejoin="bevel" points="263.954,119.286 263.954,133.347"/>
<polyline class="Stem" fill="none" stroke="#000000" stroke-width="0.65" stroke-linecap="round" stroke-linejoin="bevel" points="231.217,116.786 231.217,133.347"/>
<polyline class="Stem" fill="none" stroke="#000000" stroke-width="0.65" stroke-linecap="round" stroke-linejoin="bevel" points="198.48,116.786 198.48,133.347"/>
<polyline class="Stem" fill="none" stroke="#000000" stroke-width="0.65" stroke-linecap="round" stroke-linejoin="bevel" points="160.325,114.286 160.325,130.847"/>
<polyline class="Stem" fill="none" stroke="#000000" stroke-width="0.65" stroke-linecap="round" stroke-linejoin="bevel" points="128.969,114.286 128.969,130.847"/>
<polyline class="Stem" fill="none" stroke="#000000" stroke-width="0.65" stroke-linecap="round" stroke-linejoin="bevel" points="97.6142,111.786 97.6142,128.347"/>
<polyline class="Stem" fill="none" stroke="#000000" stroke-width="0.65" stroke-linecap="round" stroke-linejoin="bevel" points="66.259,111.786 66.259,128.347"/>
<path class="Note" d="M329.401,110.597 C330.026,110.597 330.557,110.758 330.995,111.081 C331.39,111.435 331.588,111.878 331.588,112.409 C331.588,113.305 331.13,114.143 330.213,114.925 C329.276,115.706 328.271,116.097 327.198,116.097 C326.573,116.097 326.047,115.935 325.62,115.612 C325.213,115.258 325.01,114.815 325.01,114.284 C325.01,113.388 325.479,112.55 326.416,111.768 C327.333,110.987 328.328,110.597 329.401,110.597"/>
<path class="Note" d="M308.94,110.597 C309.565,110.597 310.097,110.758 310.534,111.081 C310.93,111.435 311.128,111.878 311.128,112.409 C311.128,113.305 310.669,114.143 309.753,114.925 C308.815,115.706 307.81,116.097 306.737,116.097 C306.112,116.097 305.586,115.935 305.159,115.612 C304.753,115.258 304.55,114.815 304.55,114.284 C304.55,113.388 305.018,112.55 305.956,111.768 C306.873,110.987 307.867,110.597 308.94,110.597"/>
<path class="Note" d="M288.48,113.097 C289.105,113.097 289.636,113.258 290.073,113.581 C290.469,113.935 290.667,114.378 290.667,114.909 C290.667,115.805 290.209,116.643 289.292,117.425 C288.355,118.206 287.35,118.597 286.277,118.597 C285.652,118.597 285.126,118.435 284.698,118.112 C284.292,117.758 284.089,117.315 284.089,116.784 C284.089,115.888 284.558,115.05 285.495,114.268 C286.412,113.487 287.407,113.097 288.48,113.097"/>
<path class="Note" d="M268.019,115.597 C268.644,115.597 269.175,115.758 269.613,116.081 C270.009,116.435 270.207,116.878 270.207,117.409 C270.207,118.305 269.748,119.143 268.832,119.925 C267.894,120.706 266.889,121.097 265.816,121.097 C265.191,121.097 264.665,120.935 264.238,120.612 C263.832,120.258 263.629,119.815 263.629,119.284 C263.629,118.388 264.097,117.55 265.035,116.768 C265.951,115.987 266.946,115.597 268.019,115.597"/>
<path class="Note" d="M235.282,113.097 C235.907,113.097 236.439,113.258 236.876,113.581 C237.272,113.935 237.47,114.378 237.47,114.909 C237.47,115.805 237.011,116.643 236.095,117.425 C235.157,118.206 234.152,118.597 233.079,118.597 C232.454,118.597 231.928,118.435 231.501,118.112 C231.095,117.758 230.892,117.315 230.892,116.784 C230.892,115.888 231.36,115.05 232.298,114.268 C233.215,113.487 234.209,113.097 235.282,113.097"/>
<path class="Note" d="M202.545,113.097 C203.17,113.097 203.702,113.258 204.139,113.581 C204.535,113.935 204.733,114.378 204.733,114.909 C204.733,115.805 204.275,116.643 203.358,117.425 C202.42,118.206 201.415,118.597 200.342,118.597 C199.717,118.597 199.191,118.435 198.764,118.112 C198.358,117.758 198.155,117.315 198.155,116.784 C198.155,115.888 198.623,115.05 199.561,114.268 C200.478,113.487 201.472,113.097 202.545,113.097"/>
<path class="Note" d="M164.39,110.597 C165.015,110.597 165.546,110.758 165.984,111.081 C166.38,111.435 166.578,111.878 166.578,112.409 C166.578,113.305 166.119,114.143 165.203,114.925 C164.265,115.706 163.26,116.097 162.187,116.097 C161.562,116.097 161.036,115.935 160.609,115.612 C160.203,115.258 160,114.815 160,114.284 C160,113.388 160.468,112.55 161.406,111.768 C162.322,110.987 163.317,110.597 164.39,110.597"/>
<path class="Note" d="M133.035,110.597 C133.66,110.597 134.191,110.758 134.629,111.081 C135.025,111.435 135.222,111.878 135.222,112.409 C135.222,113.305 134.764,114.143 133.847,114.925 C132.91,115.706 131.905,116.097 130.832,116.097 C130.207,116.097 129.681,115.935 129.254,115.612 C128.847,115.258 128.644,114.815 128.644,114.284 C128.644,113.388 129.113,112.55 130.051,111.768 C130.967,110.987 131.962,110.597 133.035,110.597"/>
<path class="Note" d="M101.68,108.097 C102.305,108.097 102.836,108.258 103.274,108.581 C103.669,108.935 103.867,109.378 103.867,109.909 C103.867,110.805 103.409,111.643 102.492,112.425 C101.555,113.206 100.55,113.597 99.4767,113.597 C98.8517,113.597 98.3256,113.435 97.8985,113.112 C97.4923,112.758 97.2892,112.315 97.2892,111.784 C97.2892,110.888 97.7579,110.05 98.6954,109.268 C99.6121,108.487 100.607,108.097 101.68,108.097"/>
<path class="Note" d="M70.3246,108.097 C70.9496,108.097 71.4808,108.258 71.9183,108.581 C72.3142,108.935 72.5121,109.378 72.5121,109.909 C72.5121,110.805 72.0538,111.643 71.1371,112.425 C70.1996,113.206 69.1944,113.597 68.1215,113.597 C67.4965,113.597 66.9704,113.435 66.5433,113.112 C66.1371,112.758 65.934,112.315 65.934,111.784 C65.934,110.888 66.4027,110.05 67.3402,109.268 C68.2569,108.487 69.2517,108.097 70.3246,108.097"/>
<path class="Clef" d="M38.8902,123.222 C38.8902,123.222 38.9319,123.222 39.0152,123.222 C39.0673,123.211 39.109,123.206 39.1402,123.206 C40.5985,123.206 41.7965,123.722 42.734,124.753 C43.6715,125.763 44.1402,126.945 44.1402,128.3 C44.1402,129.987 43.4475,131.357 42.0621,132.409 C41.6975,132.701 41.2183,132.935 40.6246,133.112 C40.6975,133.956 40.734,134.638 40.734,135.159 C40.734,135.263 40.7183,135.643 40.6871,136.3 C40.635,137.508 40.2183,138.555 39.4371,139.44 C38.6871,140.315 37.7496,140.753 36.6246,140.753 C35.5725,140.753 34.6767,140.383 33.9371,139.643 C33.1871,138.883 32.8121,137.972 32.8121,136.909 C32.8121,136.347 33.0308,135.867 33.4683,135.472 C33.9058,135.086 34.4162,134.893 34.9996,134.893 C35.5204,134.893 35.9579,135.097 36.3121,135.503 C36.6767,135.878 36.859,136.347 36.859,136.909 C36.859,137.409 36.6767,137.841 36.3121,138.206 C35.9475,138.57 35.51,138.753 34.9996,138.753 C34.7912,138.753 34.5933,138.716 34.4058,138.643 C34.9787,139.487 35.7392,139.909 36.6871,139.909 C37.5829,139.909 38.3173,139.544 38.8902,138.815 C39.4944,138.065 39.8225,137.185 39.8746,136.175 C39.8954,135.55 39.9058,135.195 39.9058,135.112 C39.9058,134.383 39.8798,133.784 39.8277,133.315 C39.1819,133.419 38.6037,133.472 38.0933,133.472 C36.2808,133.472 34.7392,132.753 33.4683,131.315 C32.2183,129.867 31.5933,128.149 31.5933,126.159 C31.5933,125.742 31.6298,125.32 31.7027,124.893 C31.786,124.539 31.885,124.154 31.9996,123.737 C32.0621,123.498 32.2392,123.117 32.5308,122.597 C32.635,122.44 32.7522,122.245 32.8824,122.011 C33.0126,121.776 33.1037,121.623 33.1558,121.55 C33.2808,121.289 33.5308,120.935 33.9058,120.487 C34.01,120.373 34.1194,120.245 34.234,120.104 C34.3485,119.964 34.4449,119.847 34.523,119.753 C34.6011,119.659 34.6584,119.586 34.6949,119.534 C34.7313,119.482 35.0256,119.138 35.5777,118.503 C35.7027,118.367 35.8277,118.227 35.9527,118.081 C36.0777,117.935 36.1793,117.818 36.2574,117.729 C36.3355,117.641 36.3954,117.581 36.4371,117.55 C35.9683,115.998 35.6715,114.758 35.5465,113.831 C35.4631,113.091 35.4215,112.076 35.4215,110.784 C35.4215,109.649 35.6819,108.586 36.2027,107.597 C36.7027,106.576 37.411,105.737 38.3277,105.081 C38.3902,105.039 38.4527,105.018 38.5152,105.018 C38.609,105.018 38.6767,105.039 38.7183,105.081 C39.4162,105.925 40.0204,107.024 40.5308,108.378 C41.0517,109.732 41.3121,110.966 41.3121,112.081 C41.3121,113.331 41.0152,114.503 40.4215,115.597 C39.7444,116.753 38.8694,117.951 37.7965,119.19 C38.0673,120.044 38.4319,121.388 38.8902,123.222 M40.5465,132.315 C41.2235,132.065 41.7548,131.643 42.1402,131.05 C42.5569,130.477 42.7652,129.831 42.7652,129.112 C42.7652,128.185 42.4527,127.362 41.8277,126.643 C41.1819,125.904 40.3642,125.487 39.3746,125.393 C39.9371,128.143 40.3277,130.451 40.5465,132.315 M32.9996,127.8 C32.9996,129.091 33.5204,130.227 34.5621,131.206 C35.6246,132.154 36.8225,132.628 38.1558,132.628 C38.6975,132.628 39.2287,132.586 39.7496,132.503 C39.5412,130.524 39.1298,128.154 38.5152,125.393 C37.7756,125.477 37.1871,125.737 36.7496,126.175 C36.3121,126.633 36.0933,127.149 36.0933,127.722 C36.0933,128.711 36.6246,129.513 37.6871,130.128 C37.7704,130.222 37.8121,130.32 37.8121,130.425 C37.8121,130.529 37.7704,130.623 37.6871,130.706 C37.6037,130.8 37.5048,130.847 37.3902,130.847 C37.3798,130.847 37.3225,130.836 37.2183,130.815 C36.4683,130.409 35.8954,129.888 35.4996,129.253 C35.1142,128.565 34.9215,127.878 34.9215,127.19 C34.9215,126.294 35.2027,125.482 35.7652,124.753 C36.3485,124.024 37.109,123.555 38.0465,123.347 C37.6819,121.888 37.385,120.748 37.1558,119.925 C36.9475,120.164 36.6975,120.448 36.4058,120.776 C36.1142,121.104 35.9423,121.305 35.8902,121.378 C35.4215,121.982 35.0621,122.456 34.8121,122.8 C34.3642,123.414 34.036,123.94 33.8277,124.378 C33.609,124.878 33.4162,125.419 33.2496,126.003 C33.0829,126.565 32.9996,127.164 32.9996,127.8 M39.5152,107.94 C38.536,108.419 37.7704,109.107 37.2183,110.003 C36.6454,110.93 36.359,111.925 36.359,112.987 C36.359,113.925 36.5933,115.19 37.0621,116.784 C37.9996,115.649 38.7027,114.602 39.1715,113.643 C39.661,112.623 39.9058,111.56 39.9058,110.456 C39.9058,109.623 39.7756,108.784 39.5152,107.94"/>
<path class="TimeSig" d="M53.684,113.597 C54.0694,113.597 54.4001,113.552 54.6762,113.464 C54.9522,113.375 55.1267,113.331 55.1996,113.331 C55.2933,113.331 55.3663,113.357 55.4183,113.409 C55.46,113.44 55.486,113.482 55.4965,113.534 C55.4965,113.565 55.4808,113.607 55.4496,113.659 L49.7777,120.268 L53.1058,120.268 L53.1058,117.643 C53.1058,117.477 53.1527,117.331 53.2465,117.206 C53.4027,117.081 53.5329,117.003 53.6371,116.972 C53.8038,116.899 54.0121,116.716 54.2621,116.425 C54.4704,116.195 54.7204,115.789 55.0121,115.206 C55.0433,115.123 55.1006,115.081 55.184,115.081 C55.3402,115.081 55.4288,115.175 55.4496,115.362 L55.4496,120.268 L56.8871,120.268 C57.0642,120.268 57.1683,120.362 57.1996,120.55 C57.1996,120.748 57.0954,120.847 56.8871,120.847 L55.4496,120.847 L55.4496,121.003 C55.4496,121.524 55.5798,121.966 55.8402,122.331 C56.1423,122.695 56.4965,122.878 56.9027,122.878 C57.059,122.878 57.1371,122.956 57.1371,123.112 C57.1371,123.268 57.059,123.347 56.9027,123.347 C56.6319,123.347 56.1892,123.31 55.5746,123.237 C55.0121,123.143 54.5746,123.097 54.2621,123.097 C53.9392,123.097 53.5017,123.143 52.9496,123.237 C52.3663,123.31 51.934,123.347 51.6527,123.347 C51.4965,123.347 51.4183,123.268 51.4183,123.112 C51.4183,122.956 51.4965,122.878 51.6527,122.878 C52.0485,122.878 52.3975,122.69 52.6996,122.315 C52.9704,121.93 53.1058,121.466 53.1058,120.925 L49.7777,120.925 C49.5485,120.925 49.3923,120.862 49.309,120.737 C49.1944,120.654 49.1371,120.534 49.1371,120.378 C49.1371,120.336 49.236,120.201 49.434,119.972 C49.6631,119.711 49.8975,119.393 50.1371,119.018 C50.4288,118.57 50.7048,118.112 50.9652,117.643 C51.2465,117.112 51.4756,116.498 51.6527,115.8 C51.8402,115.102 51.934,114.388 51.934,113.659 C51.934,113.451 52.0277,113.347 52.2152,113.347 C52.2569,113.347 52.3402,113.367 52.4652,113.409 C52.5069,113.419 52.5902,113.438 52.7152,113.464 C52.8402,113.49 52.9392,113.513 53.0121,113.534 C53.2517,113.576 53.4756,113.597 53.684,113.597"/>
<path class="TimeSig" d="M53.684,123.597 C54.0694,123.597 54.4001,123.552 54.6762,123.464 C54.9522,123.375 55.1267,123.331 55.1996,123.331 C55.2933,123.331 55.3663,123.357 55.4183,123.409 C55.46,123.44 55.486,123.482 55.4965,123.534 C55.4965,123.565 55.4808,123.607 55.4496,123.659 L49.7777,130.268 L53.1058,130.268 L53.1058,127.643 C53.1058,127.477 53.1527,127.331 53.2465,127.206 C53.4027,127.081 53.5329,127.003 53.6371,126.972 C53.8038,126.899 54.0121,126.716 54.2621,126.425 C54.4704,126.195 54.7204,125.789 55.0121,125.206 C55.0433,125.123 55.1006,125.081 55.184,125.081 C55.3402,125.081 55.4288,125.175 55.4496,125.362 L55.4496,130.268 L56.8871,130.268 C57.0642,130.268 57.1683,130.362 57.1996,130.55 C57.1996,130.748 57.0954,130.847 56.8871,130.847 L55.4496,130.847 L55.4496,131.003 C55.4496,131.524 55.5798,131.966 55.8402,132.331 C56.1423,132.695 56.4965,132.878 56.9027,132.878 C57.059,132.878 57.1371,132.956 57.1371,133.112 C57.1371,133.268 57.059,133.347 56.9027,133.347 C56.6319,133.347 56.1892,133.31 55.5746,133.237 C55.0121,133.143 54.5746,133.097 54.2621,133.097 C53.9392,133.097 53.5017,133.143 52.9496,133.237 C52.3663,133.31 51.934,133.347 51.6527,133.347 C51.4965,133.347 51.4183,133.268 51.4183,133.112 C51.4183,132.956 51.4965,132.878 51.6527,132.878 C52.0485,132.878 52.3975,132.69 52.6996,132.315 C52.9704,131.93 53.1058,131.466 53.1058,130.925 L49.7777,130.925 C49.5485,130.925 49.3923,130.862 49.309,130.737 C49.1944,130.654 49.1371,130.534 49.1371,130.378 C49.1371,130.336 49.236,130.201 49.434,129.972 C49.6631,129.711 49.8975,129.393 50.1371,129.018 C50.4288,128.57 50.7048,128.112 50.9652,127.643 C51.2465,127.112 51.4756,126.498 51.6527,125.8 C51.8402,125.102 51.934,124.388 51.934,123.659 C51.934,123.451 52.0277,123.347 52.2152,123.347 C52.2569,123.347 52.3402,123.367 52.4652,123.409 C52.5069,123.419 52.5902,123.438 52.7152,123.464 C52.8402,123.49 52.9392,123.513 53.0121,123.534 C53.2517,123.576 53.4756,123.597 53.684,123.597"/>
<path class="Rest" d="M511.675,121.472 L504.566,121.472 C504.431,121.472 504.363,121.409 504.363,121.284 L504.363,118.55 C504.363,118.414 504.431,118.347 504.566,118.347 L511.675,118.347 C511.8,118.347 511.863,118.414 511.863,118.55 L511.863,121.284 C511.863,121.409 511.8,121.472 511.675,121.472"/>
<path class="Rest" d="M403.514,121.472 L396.405,121.472 C396.269,121.472 396.201,121.409 396.201,121.284 L396.201,118.55 C396.201,118.414 396.269,118.347 396.405,118.347 L403.514,118.347 C403.639,118.347 403.701,118.414 403.701,118.55 L403.701,121.284 C403.701,121.409 403.639,121.472 403.514,121.472"/>
<path class="Articulation" d="M328.264,109.046 C328.066,108.848 327.967,108.613 327.967,108.343 C327.967,108.072 328.066,107.837 328.264,107.639 C328.462,107.442 328.696,107.343 328.967,107.343 C329.238,107.343 329.472,107.442 329.67,107.639 C329.868,107.837 329.967,108.072 329.967,108.343 C329.967,108.613 329.868,108.848 329.67,109.046 C329.472,109.244 329.238,109.343 328.967,109.343 C328.696,109.343 328.462,109.244 328.264,109.046"/>
<path class="Articulation" d="M307.804,109.046 C307.606,108.848 307.507,108.613 307.507,108.343 C307.507,108.072 307.606,107.837 307.804,107.639 C308.002,107.442 308.236,107.343 308.507,107.343 C308.778,107.343 309.012,107.442 309.21,107.639 C309.408,107.837 309.507,108.072 309.507,108.343 C309.507,108.613 309.408,108.848 309.21,109.046 C309.012,109.244 308.778,109.343 308.507,109.343 C308.236,109.343 308.002,109.244 307.804,109.046"/>
<path class="Articulation" d="M287.343,111.546 C287.145,111.348 287.046,111.113 287.046,110.843 C287.046,110.572 287.145,110.337 287.343,110.139 C287.541,109.942 287.775,109.843 288.046,109.843 C288.317,109.843 288.551,109.942 288.749,110.139 C288.947,110.337 289.046,110.572 289.046,110.843 C289.046,111.113 288.947,111.348 288.749,111.546 C288.551,111.744 288.317,111.843 288.046,111.843 C287.775,111.843 287.541,111.744 287.343,111.546"/>
<path class="Articulation" d="M266.882,111.546 C266.685,111.348 266.586,111.113 266.586,110.843 C266.586,110.572 266.685,110.337 266.882,110.139 C267.08,109.942 267.315,109.843 267.586,109.843 C267.856,109.843 268.091,109.942 268.289,110.139 C268.487,110.337 268.586,110.572 268.586,110.843 C268.586,111.113 268.487,111.348 268.289,111.546 C268.091,111.744 267.856,111.843 267.586,111.843 C267.315,111.843 267.08,111.744 266.882,111.546"/>
<path class="Articulation" d="M234.146,111.546 C233.948,111.348 233.849,111.113 233.849,110.843 C233.849,110.572 233.948,110.337 234.146,110.139 C234.343,109.942 234.578,109.843 234.849,109.843 C235.12,109.843 235.354,109.942 235.552,110.139 C235.75,110.337 235.849,110.572 235.849,110.843 C235.849,111.113 235.75,111.348 235.552,111.546 C235.354,111.744 235.12,111.843 234.849,111.843 C234.578,111.843 234.343,111.744 234.146,111.546"/>
<path class="Articulation" d="M163.253,109.046 C163.056,108.848 162.957,108.613 162.957,108.343 C162.957,108.072 163.056,107.837 163.253,107.639 C163.451,107.442 163.686,107.343 163.957,107.343 C164.227,107.343 164.462,107.442 164.66,107.639 C164.858,107.837 164.957,108.072 164.957,108.343 C164.957,108.613 164.858,108.848 164.66,109.046 C164.462,109.244 164.227,109.343 163.957,109.343 C163.686,109.343 163.451,109.244 163.253,109.046"/>
<path class="Articulation" d="M100.543,106.546 C100.345,106.348 100.246,106.113 100.246,105.843 C100.246,105.572 100.345,105.337 100.543,105.139 C100.741,104.942 100.975,104.843 101.246,104.843 C101.517,104.843 101.751,104.942 101.949,105.139 C102.147,105.337 102.246,105.572 102.246,105.843 C102.246,106.113 102.147,106.348 101.949,106.546 C101.751,106.744 101.517,106.843 101.246,106.843 C100.975,106.843 100.741,106.744 100.543,106.546"/>
<path class="Dynamic" d="M199.925,148.268 L198.972,151.362 C198.639,152.477 198.082,153.555 197.3,154.597 C196.509,155.638 195.701,156.159 194.879,156.159 C194.451,156.159 194.074,156.047 193.746,155.823 C193.418,155.599 193.254,155.31 193.254,154.956 C193.254,154.55 193.337,154.206 193.504,153.925 C193.681,153.654 193.925,153.508 194.238,153.487 C194.467,153.487 194.66,153.57 194.816,153.737 C194.972,153.904 195.05,154.097 195.05,154.315 C195.05,154.513 194.936,154.695 194.707,154.862 C194.467,155.008 194.342,155.175 194.332,155.362 C194.332,155.487 194.472,155.55 194.754,155.55 L194.879,155.55 C194.941,155.55 195.035,155.534 195.16,155.503 C195.233,155.492 195.321,155.451 195.425,155.378 C195.425,155.378 195.488,155.326 195.613,155.222 C195.696,155.107 195.748,155.024 195.769,154.972 C195.811,154.867 195.847,154.784 195.879,154.722 C195.92,154.68 195.957,154.576 195.988,154.409 C196.009,154.367 196.024,154.32 196.035,154.268 C196.045,154.216 196.056,154.18 196.066,154.159 C196.076,154.138 196.082,154.123 196.082,154.112 C196.134,153.904 196.17,153.779 196.191,153.737 C196.233,153.529 196.254,153.425 196.254,153.425 L197.535,148.268 L196.55,148.268 C196.457,148.268 196.389,148.237 196.347,148.175 C196.295,148.091 196.269,148.018 196.269,147.956 C196.269,147.873 196.295,147.8 196.347,147.737 C196.431,147.675 196.498,147.643 196.55,147.643 L197.722,147.643 C198.045,146.664 198.582,145.82 199.332,145.112 C200.071,144.383 200.868,144.018 201.722,144.018 C202.181,144.018 202.561,144.133 202.863,144.362 C203.186,144.581 203.353,144.867 203.363,145.222 C203.363,145.607 203.28,145.951 203.113,146.253 C202.915,146.524 202.67,146.664 202.379,146.675 C202.149,146.675 201.957,146.594 201.8,146.432 C201.644,146.271 201.566,146.081 201.566,145.862 C201.566,145.675 201.686,145.503 201.925,145.347 C202.165,145.19 202.28,145.013 202.269,144.815 C202.269,144.669 202.134,144.602 201.863,144.612 L201.816,144.612 C201.785,144.633 201.754,144.638 201.722,144.628 C201.493,144.628 201.3,144.685 201.144,144.8 C200.988,144.904 200.842,145.091 200.707,145.362 C200.665,145.435 200.631,145.508 200.605,145.581 C200.579,145.654 200.55,145.735 200.519,145.823 C200.488,145.912 200.462,145.972 200.441,146.003 C200.431,146.065 200.41,146.195 200.379,146.393 C200.337,146.581 200.3,146.742 200.269,146.878 C200.186,147.274 200.129,147.529 200.097,147.643 L201.175,147.643 C201.259,147.643 201.334,147.672 201.402,147.729 C201.47,147.787 201.504,147.86 201.504,147.948 C201.504,148.037 201.47,148.112 201.402,148.175 C201.334,148.237 201.259,148.268 201.175,148.268 L199.925,148.268 "/>
<path class="Dynamic" d="M130.415,148.268 L129.462,151.362 C129.129,152.477 128.571,153.555 127.79,154.597 C126.998,155.638 126.191,156.159 125.368,156.159 C124.941,156.159 124.563,156.047 124.235,155.823 C123.907,155.599 123.743,155.31 123.743,154.956 C123.743,154.55 123.827,154.206 123.993,153.925 C124.17,153.654 124.415,153.508 124.728,153.487 C124.957,153.487 125.149,153.57 125.306,153.737 C125.462,153.904 125.54,154.097 125.54,154.315 C125.54,154.513 125.425,154.695 125.196,154.862 C124.957,155.008 124.832,155.175 124.821,155.362 C124.821,155.487 124.962,155.55 125.243,155.55 L125.368,155.55 C125.431,155.55 125.524,155.534 125.649,155.503 C125.722,155.492 125.811,155.451 125.915,155.378 C125.915,155.378 125.978,155.326 126.103,155.222 C126.186,155.107 126.238,155.024 126.259,154.972 C126.3,154.867 126.337,154.784 126.368,154.722 C126.41,154.68 126.446,154.576 126.478,154.409 C126.498,154.367 126.514,154.32 126.524,154.268 C126.535,154.216 126.545,154.18 126.556,154.159 C126.566,154.138 126.571,154.123 126.571,154.112 C126.623,153.904 126.66,153.779 126.681,153.737 C126.722,153.529 126.743,153.425 126.743,153.425 L128.024,148.268 L127.04,148.268 C126.946,148.268 126.879,148.237 126.837,148.175 C126.785,148.091 126.759,148.018 126.759,147.956 C126.759,147.873 126.785,147.8 126.837,147.737 C126.92,147.675 126.988,147.643 127.04,147.643 L128.212,147.643 C128.535,146.664 129.071,145.82 129.821,145.112 C130.561,144.383 131.358,144.018 132.212,144.018 C132.67,144.018 133.05,144.133 133.353,144.362 C133.675,144.581 133.842,144.867 133.853,145.222 C133.853,145.607 133.769,145.951 133.603,146.253 C133.405,146.524 133.16,146.664 132.868,146.675 C132.639,146.675 132.446,146.594 132.29,146.432 C132.134,146.271 132.056,146.081 132.056,145.862 C132.056,145.675 132.175,145.503 132.415,145.347 C132.655,145.19 132.769,145.013 132.759,144.815 C132.759,144.669 132.623,144.602 132.353,144.612 L132.306,144.612 C132.274,144.633 132.243,144.638 132.212,144.628 C131.983,144.628 131.79,144.685 131.634,144.8 C131.478,144.904 131.332,145.091 131.196,145.362 C131.155,145.435 131.121,145.508 131.095,145.581 C131.069,145.654 131.04,145.735 131.009,145.823 C130.978,145.912 130.952,145.972 130.931,146.003 C130.92,146.065 130.899,146.195 130.868,146.393 C130.827,146.581 130.79,146.742 130.759,146.878 C130.675,147.274 130.618,147.529 130.587,147.643 L131.665,147.643 C131.748,147.643 131.824,147.672 131.892,147.729 C131.959,147.787 131.993,147.86 131.993,147.948 C131.993,148.037 131.959,148.112 131.892,148.175 C131.824,148.237 131.748,148.268 131.665,148.268 L130.415,148.268 "/>
<path class="Dynamic" d="M67.7047,148.268 L66.7516,151.362 C66.4182,152.477 65.8609,153.555 65.0797,154.597 C64.288,155.638 63.4807,156.159 62.6578,156.159 C62.2307,156.159 61.8531,156.047 61.525,155.823 C61.1969,155.599 61.0328,155.31 61.0328,154.956 C61.0328,154.55 61.1161,154.206 61.2828,153.925 C61.4599,153.654 61.7047,153.508 62.0172,153.487 C62.2463,153.487 62.4391,153.57 62.5953,153.737 C62.7516,153.904 62.8297,154.097 62.8297,154.315 C62.8297,154.513 62.7151,154.695 62.4859,154.862 C62.2463,155.008 62.1213,155.175 62.1109,155.362 C62.1109,155.487 62.2516,155.55 62.5328,155.55 L62.6578,155.55 C62.7203,155.55 62.8141,155.534 62.9391,155.503 C63.012,155.492 63.1005,155.451 63.2047,155.378 C63.2047,155.378 63.2672,155.326 63.3922,155.222 C63.4755,155.107 63.5276,155.024 63.5484,154.972 C63.5901,154.867 63.6266,154.784 63.6578,154.722 C63.6995,154.68 63.7359,154.576 63.7672,154.409 C63.788,154.367 63.8036,154.32 63.8141,154.268 C63.8245,154.216 63.8349,154.18 63.8453,154.159 C63.8557,154.138 63.8609,154.123 63.8609,154.112 C63.913,153.904 63.9495,153.779 63.9703,153.737 C64.012,153.529 64.0328,153.425 64.0328,153.425 L65.3141,148.268 L64.3297,148.268 C64.2359,148.268 64.1682,148.237 64.1266,148.175 C64.0745,148.091 64.0484,148.018 64.0484,147.956 C64.0484,147.873 64.0745,147.8 64.1266,147.737 C64.2099,147.675 64.2776,147.643 64.3297,147.643 L65.5016,147.643 C65.8245,146.664 66.3609,145.82 67.1109,145.112 C67.8505,144.383 68.6474,144.018 69.5016,144.018 C69.9599,144.018 70.3401,144.133 70.6422,144.362 C70.9651,144.581 71.1318,144.867 71.1422,145.222 C71.1422,145.607 71.0588,145.951 70.8922,146.253 C70.6943,146.524 70.4495,146.664 70.1578,146.675 C69.9286,146.675 69.7359,146.594 69.5797,146.432 C69.4234,146.271 69.3453,146.081 69.3453,145.862 C69.3453,145.675 69.4651,145.503 69.7047,145.347 C69.9443,145.19 70.0588,145.013 70.0484,144.815 C70.0484,144.669 69.913,144.602 69.6422,144.612 L69.5953,144.612 C69.5641,144.633 69.5328,144.638 69.5016,144.628 C69.2724,144.628 69.0797,144.685 68.9234,144.8 C68.7672,144.904 68.6213,145.091 68.4859,145.362 C68.4443,145.435 68.4104,145.508 68.3844,145.581 C68.3583,145.654 68.3297,145.735 68.2984,145.823 C68.2672,145.912 68.2411,145.972 68.2203,146.003 C68.2099,146.065 68.1891,146.195 68.1578,146.393 C68.1161,146.581 68.0797,146.742 68.0484,146.878 C67.9651,147.274 67.9078,147.529 67.8766,147.643 L68.9547,147.643 C69.038,147.643 69.1135,147.672 69.1812,147.729 C69.2489,147.787 69.2828,147.86 69.2828,147.948 C69.2828,148.037 69.2489,148.112 69.1812,148.175 C69.1135,148.237 69.038,148.268 68.9547,148.268 L67.7047,148.268 "/>
<path class="Beam" fill-rule="evenodd" d="M263.629,132.097 L325.66,127.044 L325.66,129.544 L263.629,134.597 L263.629,132.097 "/>
<path class="Tremolo" fill-rule="evenodd" d="M195.48,125.597 L201.48,123.097 L201.48,125.597 L195.48,128.097 L195.48,125.597 M195.48,129.597 L201.48,127.097 L201.48,129.597 L195.48,132.097 L195.48,129.597 "/>
<path class="Tremolo" fill-rule="evenodd" d="M125.969,125.597 L131.969,123.097 L131.969,125.597 L125.969,128.097 L125.969,125.597 M125.969,129.597 L131.969,127.097 L131.969,129.597 L125.969,132.097 L125.969,129.597 "/>
<path class="Tremolo" fill-rule="evenodd" d="M63.259,120.597 L69.259,118.097 L69.259,120.597 L63.259,123.097 L63.259,120.597 M63.259,124.597 L69.259,122.097 L69.259,124.597 L63.259,127.097 L63.259,124.597 "/>
</svg>
