<?xml version="1.0" encoding="UTF-8" standalone="no"?>
<svg width="595.44px" height="841.68px" viewBox="0 0 595.44 841.68"
 xmlns="http://www.w3.org/2000/svg" xmlns:xlink="http://www.w3.org/1999/xlink" version="1.2" baseProfile="tiny">
<title>Motiv</title>
<desc>Generated by MuseScore 2.0.3</desc>
<polyline class="StaffLines" fill="none" stroke="#000000" stroke-width="0.40" stroke-linejoin="bevel" points="28.3465,113.346 567.094,113.346"/>
<polyline class="StaffLines" fill="none" stroke="#000000" stroke-width="0.40" stroke-linejoin="bevel" points="28.3465,118.346 567.094,118.346"/>
<polyline class="StaffLines" fill="none" stroke="#000000" stroke-width="0.40" stroke-linejoin="bevel" points="28.3465,123.346 567.094,123.346"/>
<polyline class="StaffLines" fill="none" stroke="#000000" stroke-width="0.40" stroke-linejoin="bevel" points="28.3465,128.346 567.094,128.346"/>
<polyline class="StaffLines" fill="none" stroke="#000000" stroke-width="0.40" stroke-linejoin="bevel" points="28.3465,133.346 567.094,133.346"/>
<polyline class="BarLine" fill="none" stroke="#000000" stroke-width="0.80" stroke-linejoin="bevel" points="562.194,113.346 562.194,133.346"/>
<polyline class="BarLine" fill="none" stroke="#000000" stroke-width="2.50" stroke-linejoin="bevel" points="565.844,113.346 565.844,133.346"/>
<polyline class="BarLine" fill="none" stroke="#000000" stroke-width="0.80" stroke-linejoin="bevel" points="444.677,113.346 444.677,133.346"/>
<polyline class="BarLine" fill="none" stroke="#000000" stroke-width="0.80" stroke-linejoin="bevel" points="327.161,113.346 327.161,133.346"/>
<polyline class="BarLine" fill="none" stroke="#000000" stroke-width="0.80" stroke-linejoin="bevel" points="191.614,113.346 191.614,133.346"/>
<polyline class="Stem" fill="none" stroke="#000000" stroke-width="0.65" stroke-linecap="round" stroke-linejoin="bevel" points="261.493,127.407 261.493,105.846"/>
<polyline class="Stem" fill="none" stroke="#000000" stroke-width="0.65" stroke-linecap="round" stroke-linejoin="bevel" points="198.339,119.286 198.339,138.971"/>
<polyline class="Stem" fill="none" stroke="#000000" stroke-width="0.65" stroke-linecap="round" stroke-linejoin="bevel" points="173.151,127.407 173.151,104.596"/>
<polyline class="Stem" fill="none" stroke="#000000" stroke-width="0.65" stroke-linecap="round" stroke-linejoin="bevel" points="125.7,127.407 125.7,104.596"/>
<polyline class="Stem" fill="none" stroke="#000000" stroke-width="0.65" stroke-linecap="round" stroke-linejoin="bevel" points="72.1918,127.407 72.1918,105.846"/>
<path class="Note" d="M259.626,118.096 C260.251,118.096 260.782,118.258 261.219,118.581 C261.615,118.935 261.813,119.378 261.813,119.909 C261.813,120.805 261.355,121.643 260.438,122.425 C259.501,123.206 258.495,123.596 257.422,123.596 C256.797,123.596 256.271,123.435 255.844,123.112 C255.438,122.758 255.235,122.315 255.235,121.784 C255.235,120.888 255.704,120.05 256.641,119.268 C257.558,118.487 258.553,118.096 259.626,118.096"/>
<path class="Note" d="M259.626,125.596 C260.251,125.596 260.782,125.758 261.219,126.081 C261.615,126.435 261.813,126.878 261.813,127.409 C261.813,128.305 261.355,129.143 260.438,129.925 C259.501,130.706 258.495,131.096 257.422,131.096 C256.797,131.096 256.271,130.935 255.844,130.612 C255.438,130.258 255.235,129.815 255.235,129.284 C255.235,128.388 255.704,127.55 256.641,126.768 C257.558,125.987 258.553,125.596 259.626,125.596"/>
<path class="Note" d="M202.405,115.596 C203.03,115.596 203.561,115.758 203.999,116.081 C204.395,116.435 204.593,116.878 204.593,117.409 C204.593,118.305 204.134,119.143 203.218,119.925 C202.28,120.706 201.275,121.096 200.202,121.096 C199.577,121.096 199.051,120.935 198.624,120.612 C198.218,120.258 198.014,119.815 198.014,119.284 C198.014,118.388 198.483,117.55 199.421,116.768 C200.337,115.987 201.332,115.596 202.405,115.596"/>
<path class="Note" d="M202.405,120.596 C203.03,120.596 203.561,120.758 203.999,121.081 C204.395,121.435 204.593,121.878 204.593,122.409 C204.593,123.305 204.134,124.143 203.218,124.925 C202.28,125.706 201.275,126.096 200.202,126.096 C199.577,126.096 199.051,125.935 198.624,125.612 C198.218,125.258 198.014,124.815 198.014,124.284 C198.014,123.388 198.483,122.55 199.421,121.768 C200.337,120.987 201.332,120.596 202.405,120.596"/>
<path class="Note" d="M171.283,118.096 C171.908,118.096 172.44,118.258 172.877,118.581 C173.273,118.935 173.471,119.378 173.471,119.909 C173.471,120.805 173.013,121.643 172.096,122.425 C171.158,123.206 170.153,123.596 169.08,123.596 C168.455,123.596 167.929,123.435 167.502,123.112 C167.096,122.758 166.893,122.315 166.893,121.784 C166.893,120.888 167.362,120.05 168.299,119.268 C169.216,118.487 170.21,118.096 171.283,118.096"/>
<path class="Note" d="M171.283,125.596 C171.908,125.596 172.44,125.758 172.877,126.081 C173.273,126.435 173.471,126.878 173.471,127.409 C173.471,128.305 173.013,129.143 172.096,129.925 C171.158,130.706 170.153,131.096 169.08,131.096 C168.455,131.096 167.929,130.935 167.502,130.612 C167.096,130.258 166.893,129.815 166.893,129.284 C166.893,128.388 167.362,127.55 168.299,126.768 C169.216,125.987 170.21,125.596 171.283,125.596"/>
<path class="Note" d="M123.832,118.096 C124.457,118.096 124.989,118.258 125.426,118.581 C125.822,118.935 126.02,119.378 126.02,119.909 C126.02,120.805 125.561,121.643 124.645,122.425 C123.707,123.206 122.702,123.596 121.629,123.596 C121.004,123.596 120.478,123.435 120.051,123.112 C119.645,122.758 119.442,122.315 119.442,121.784 C119.442,120.888 119.91,120.05 120.848,119.268 C121.765,118.487 122.759,118.096 123.832,118.096"/>
<path class="Note" d="M123.832,125.596 C124.457,125.596 124.989,125.758 125.426,126.081 C125.822,126.435 126.02,126.878 126.02,127.409 C126.02,128.305 125.561,129.143 124.645,129.925 C123.707,130.706 122.702,131.096 121.629,131.096 C121.004,131.096 120.478,130.935 120.051,130.612 C119.645,130.258 119.442,129.815 119.442,129.284 C119.442,128.388 119.91,127.55 120.848,126.768 C121.765,125.987 122.759,125.596 123.832,125.596"/>
<path class="Note" d="M70.3246,118.096 C70.9496,118.096 71.4808,118.258 71.9183,118.581 C72.3142,118.935 72.5121,119.378 72.5121,119.909 C72.5121,120.805 72.0537,121.643 71.1371,122.425 C70.1996,123.206 69.1944,123.596 68.1215,123.596 C67.4965,123.596 66.9704,123.435 66.5433,123.112 C66.1371,122.758 65.934,122.315 65.934,121.784 C65.934,120.888 66.4027,120.05 67.3402,119.268 C68.2569,118.487 69.2517,118.096 70.3246,118.096"/>
<path class="Note" d="M70.3246,125.596 C70.9496,125.596 71.4808,125.758 71.9183,126.081 C72.3142,126.435 72.5121,126.878 72.5121,127.409 C72.5121,128.305 72.0537,129.143 71.1371,129.925 C70.1996,130.706 69.1944,131.096 68.1215,131.096 C67.4965,131.096 66.9704,130.935 66.5433,130.612 C66.1371,130.258 65.934,129.815 65.934,129.284 C65.934,128.388 66.4027,127.55 67.3402,126.768 C68.2569,125.987 69.2517,125.596 70.3246,125.596"/>
<path class="Clef" d="M38.8902,123.221 C38.8902,123.221 38.9319,123.221 39.0152,123.221 C39.0673,123.211 39.109,123.206 39.1402,123.206 C40.5985,123.206 41.7965,123.721 42.734,124.753 C43.6715,125.763 44.1402,126.945 44.1402,128.3 C44.1402,129.987 43.4475,131.357 42.0621,132.409 C41.6975,132.701 41.2183,132.935 40.6246,133.112 C40.6975,133.956 40.734,134.638 40.734,135.159 C40.734,135.263 40.7183,135.643 40.6871,136.3 C40.635,137.508 40.2183,138.555 39.4371,139.44 C38.6871,140.315 37.7496,140.753 36.6246,140.753 C35.5725,140.753 34.6767,140.383 33.9371,139.643 C33.1871,138.883 32.8121,137.971 32.8121,136.909 C32.8121,136.346 33.0308,135.867 33.4683,135.471 C33.9058,135.086 34.4162,134.893 34.9996,134.893 C35.5204,134.893 35.9579,135.096 36.3121,135.503 C36.6767,135.878 36.859,136.346 36.859,136.909 C36.859,137.409 36.6767,137.841 36.3121,138.206 C35.9475,138.57 35.51,138.753 34.9996,138.753 C34.7912,138.753 34.5933,138.716 34.4058,138.643 C34.9787,139.487 35.7392,139.909 36.6871,139.909 C37.5829,139.909 38.3173,139.544 38.8902,138.815 C39.4944,138.065 39.8225,137.185 39.8746,136.175 C39.8954,135.55 39.9058,135.195 39.9058,135.112 C39.9058,134.383 39.8798,133.784 39.8277,133.315 C39.1819,133.419 38.6037,133.471 38.0933,133.471 C36.2808,133.471 34.7392,132.753 33.4683,131.315 C32.2183,129.867 31.5933,128.149 31.5933,126.159 C31.5933,125.742 31.6298,125.32 31.7027,124.893 C31.786,124.539 31.885,124.154 31.9996,123.737 C32.0621,123.497 32.2392,123.117 32.5308,122.596 C32.635,122.44 32.7522,122.245 32.8824,122.011 C33.0126,121.776 33.1037,121.622 33.1558,121.55 C33.2808,121.289 33.5308,120.935 33.9058,120.487 C34.01,120.372 34.1194,120.245 34.234,120.104 C34.3485,119.964 34.4449,119.846 34.523,119.753 C34.6011,119.659 34.6584,119.586 34.6949,119.534 C34.7314,119.482 35.0256,119.138 35.5777,118.503 C35.7027,118.367 35.8277,118.227 35.9527,118.081 C36.0777,117.935 36.1793,117.818 36.2574,117.729 C36.3355,117.641 36.3954,117.581 36.4371,117.55 C35.9683,115.997 35.6715,114.758 35.5465,113.831 C35.4631,113.091 35.4215,112.076 35.4215,110.784 C35.4215,109.649 35.6819,108.586 36.2027,107.596 C36.7027,106.576 37.411,105.737 38.3277,105.081 C38.3902,105.039 38.4527,105.018 38.5152,105.018 C38.609,105.018 38.6767,105.039 38.7183,105.081 C39.4162,105.925 40.0204,107.024 40.5308,108.378 C41.0517,109.732 41.3121,110.966 41.3121,112.081 C41.3121,113.331 41.0152,114.503 40.4215,115.596 C39.7444,116.753 38.8694,117.951 37.7965,119.19 C38.0673,120.044 38.4319,121.388 38.8902,123.221 M40.5465,132.315 C41.2235,132.065 41.7548,131.643 42.1402,131.05 C42.5569,130.477 42.7652,129.831 42.7652,129.112 C42.7652,128.185 42.4527,127.362 41.8277,126.643 C41.1819,125.904 40.3642,125.487 39.3746,125.393 C39.9371,128.143 40.3277,130.451 40.5465,132.315 M32.9996,127.8 C32.9996,129.091 33.5204,130.227 34.5621,131.206 C35.6246,132.154 36.8225,132.628 38.1558,132.628 C38.6975,132.628 39.2287,132.586 39.7496,132.503 C39.5412,130.524 39.1298,128.154 38.5152,125.393 C37.7756,125.477 37.1871,125.737 36.7496,126.175 C36.3121,126.633 36.0933,127.149 36.0933,127.721 C36.0933,128.711 36.6246,129.513 37.6871,130.128 C37.7704,130.221 37.8121,130.32 37.8121,130.425 C37.8121,130.529 37.7704,130.622 37.6871,130.706 C37.6037,130.8 37.5048,130.846 37.3902,130.846 C37.3798,130.846 37.3225,130.836 37.2183,130.815 C36.4683,130.409 35.8954,129.888 35.4996,129.253 C35.1142,128.565 34.9215,127.878 34.9215,127.19 C34.9215,126.294 35.2027,125.482 35.7652,124.753 C36.3485,124.024 37.109,123.555 38.0465,123.346 C37.6819,121.888 37.385,120.747 37.1558,119.925 C36.9475,120.164 36.6975,120.448 36.4058,120.776 C36.1142,121.104 35.9423,121.305 35.8902,121.378 C35.4215,121.982 35.0621,122.456 34.8121,122.8 C34.3642,123.414 34.036,123.94 33.8277,124.378 C33.609,124.878 33.4162,125.419 33.2496,126.003 C33.0829,126.565 32.9996,127.164 32.9996,127.8 M39.5152,107.94 C38.536,108.419 37.7704,109.107 37.2183,110.003 C36.6454,110.93 36.359,111.925 36.359,112.987 C36.359,113.925 36.5933,115.19 37.0621,116.784 C37.9996,115.649 38.7027,114.602 39.1715,113.643 C39.661,112.622 39.9058,111.56 39.9058,110.456 C39.9058,109.622 39.7756,108.784 39.5152,107.94"/>
<path class="TimeSig" d="M54.1058,123.346 C53.71,123.346 53.3558,123.276 53.0433,123.136 C52.7308,122.995 52.5121,122.846 52.3871,122.69 C52.21,122.492 52.0381,122.341 51.8715,122.237 C51.6631,122.091 51.4496,122.018 51.2308,122.018 C50.8871,122.018 50.6058,122.122 50.3871,122.331 C50.1579,122.529 50.0277,122.794 49.9965,123.128 C49.9756,123.274 49.8975,123.346 49.7621,123.346 C49.6058,123.346 49.5277,123.274 49.5277,123.128 C49.5277,122.628 49.6475,122.175 49.8871,121.768 C50.1162,121.352 50.4027,121.008 50.7465,120.737 C51.0277,120.487 51.4027,120.185 51.8715,119.831 C51.9548,119.768 52.1215,119.633 52.3715,119.425 C52.6215,119.216 52.835,119.039 53.0121,118.893 C53.3454,118.612 53.6371,118.232 53.8871,117.753 C54.1162,117.284 54.2308,116.779 54.2308,116.237 C54.2308,115.57 54.1215,114.997 53.9027,114.518 C53.6735,114.05 53.3142,113.815 52.8246,113.815 C52.5329,113.815 52.2933,113.878 52.1058,114.003 C51.9079,114.138 51.809,114.315 51.809,114.534 C51.809,114.721 51.9261,114.951 52.1605,115.221 C52.3949,115.492 52.5121,115.721 52.5121,115.909 C52.5121,116.294 52.3767,116.622 52.1058,116.893 C51.8454,117.154 51.5277,117.284 51.1527,117.284 C50.7569,117.284 50.4235,117.149 50.1527,116.878 C49.8923,116.596 49.7621,116.274 49.7621,115.909 C49.7621,115.159 50.0616,114.544 50.6605,114.065 C51.2595,113.586 51.9808,113.346 52.8246,113.346 C53.835,113.346 54.71,113.617 55.4496,114.159 C56.1892,114.68 56.559,115.372 56.559,116.237 C56.559,116.82 56.4548,117.32 56.2465,117.737 C56.0485,118.185 55.7569,118.534 55.3715,118.784 C54.9235,119.065 54.5381,119.284 54.2152,119.44 C53.7569,119.649 53.3037,119.846 52.8558,120.034 C52.3037,120.253 51.8767,120.461 51.5746,120.659 C51.7517,120.617 51.9287,120.596 52.1058,120.596 C52.71,120.596 53.335,120.789 53.9808,121.175 C54.6475,121.57 55.1631,121.768 55.5277,121.768 C55.7465,121.768 55.9235,121.727 56.059,121.643 C56.184,121.57 56.2673,121.487 56.309,121.393 C56.361,121.268 56.4079,121.18 56.4496,121.128 C56.5017,121.044 56.5642,121.003 56.6371,121.003 C56.7933,121.003 56.8715,121.081 56.8715,121.237 C56.8715,121.602 56.611,122.044 56.0902,122.565 C55.5798,123.086 54.9183,123.346 54.1058,123.346"/>
<path class="TimeSig" d="M53.684,123.596 C54.0694,123.596 54.4001,123.552 54.6761,123.464 C54.9522,123.375 55.1267,123.331 55.1996,123.331 C55.2933,123.331 55.3662,123.357 55.4183,123.409 C55.46,123.44 55.486,123.482 55.4965,123.534 C55.4965,123.565 55.4808,123.607 55.4496,123.659 L49.7777,130.268 L53.1058,130.268 L53.1058,127.643 C53.1058,127.477 53.1527,127.331 53.2465,127.206 C53.4027,127.081 53.5329,127.003 53.6371,126.971 C53.8037,126.899 54.0121,126.716 54.2621,126.425 C54.4704,126.195 54.7204,125.789 55.0121,125.206 C55.0433,125.122 55.1006,125.081 55.184,125.081 C55.3402,125.081 55.4287,125.175 55.4496,125.362 L55.4496,130.268 L56.8871,130.268 C57.0642,130.268 57.1683,130.362 57.1996,130.55 C57.1996,130.747 57.0954,130.846 56.8871,130.846 L55.4496,130.846 L55.4496,131.003 C55.4496,131.524 55.5798,131.966 55.8402,132.331 C56.1423,132.695 56.4965,132.878 56.9027,132.878 C57.059,132.878 57.1371,132.956 57.1371,133.112 C57.1371,133.268 57.059,133.346 56.9027,133.346 C56.6319,133.346 56.1892,133.31 55.5746,133.237 C55.0121,133.143 54.5746,133.096 54.2621,133.096 C53.9392,133.096 53.5017,133.143 52.9496,133.237 C52.3662,133.31 51.934,133.346 51.6527,133.346 C51.4965,133.346 51.4183,133.268 51.4183,133.112 C51.4183,132.956 51.4965,132.878 51.6527,132.878 C52.0485,132.878 52.3975,132.69 52.6996,132.315 C52.9704,131.93 53.1058,131.466 53.1058,130.925 L49.7777,130.925 C49.5485,130.925 49.3923,130.862 49.309,130.737 C49.1944,130.654 49.1371,130.534 49.1371,130.378 C49.1371,130.336 49.236,130.201 49.434,129.971 C49.6631,129.711 49.8975,129.393 50.1371,129.018 C50.4287,128.57 50.7048,128.112 50.9652,127.643 C51.2465,127.112 51.4756,126.497 51.6527,125.8 C51.8402,125.102 51.934,124.388 51.934,123.659 C51.934,123.451 52.0277,123.346 52.2152,123.346 C52.2569,123.346 52.3402,123.367 52.4652,123.409 C52.5069,123.419 52.5902,123.438 52.7152,123.464 C52.8402,123.49 52.9392,123.513 53.0121,123.534 C53.2517,123.576 53.4756,123.596 53.684,123.596"/>
<path class="Rest" d="M506.998,121.471 L499.888,121.471 C499.753,121.471 499.685,121.409 499.685,121.284 L499.685,118.55 C499.685,118.414 499.753,118.346 499.888,118.346 L506.998,118.346 C507.123,118.346 507.185,118.414 507.185,118.55 L507.185,121.284 C507.185,121.409 507.123,121.471 506.998,121.471"/>
<path class="Rest" d="M389.481,121.471 L382.372,121.471 C382.237,121.471 382.169,121.409 382.169,121.284 L382.169,118.55 C382.169,118.414 382.237,118.346 382.372,118.346 L389.481,118.346 C389.606,118.346 389.669,118.414 389.669,118.55 L389.669,121.284 C389.669,121.409 389.606,121.471 389.481,121.471"/>
<path class="Rest" d="M292.404,119.237 C292.779,119.237 293.066,119.341 293.263,119.55 C293.461,119.789 293.566,120.013 293.576,120.221 C293.607,120.419 293.675,120.638 293.779,120.878 C293.894,121.086 294.039,121.19 294.217,121.19 C294.362,121.19 294.581,121.029 294.873,120.706 C295.133,120.425 295.321,120.169 295.435,119.94 C295.498,119.815 295.586,119.753 295.701,119.753 L295.732,119.753 C295.857,119.763 295.946,119.826 295.998,119.94 L293.545,128.346 C293.409,128.482 293.224,128.55 292.99,128.55 C292.756,128.55 292.576,128.482 292.451,128.346 L294.795,121.815 C293.961,122.117 293.258,122.268 292.685,122.268 C292.217,122.268 291.81,122.117 291.467,121.815 C291.112,121.534 290.935,121.159 290.935,120.69 C290.935,120.284 291.081,119.945 291.373,119.675 C291.654,119.383 291.998,119.237 292.404,119.237"/>
<path class="Dynamic" d="M195.816,149.331 C195.816,149.518 195.905,149.685 196.082,149.831 C196.28,149.997 196.488,150.149 196.707,150.284 C196.926,150.419 197.134,150.602 197.332,150.831 C197.52,151.07 197.608,151.326 197.598,151.596 C197.598,152.128 197.384,152.55 196.957,152.862 C196.53,153.185 196.025,153.346 195.441,153.346 C195.035,153.346 194.681,153.253 194.379,153.065 C194.077,152.878 193.926,152.617 193.926,152.284 C193.926,152.076 193.978,151.899 194.082,151.753 C194.197,151.607 194.335,151.534 194.496,151.534 C194.658,151.534 194.796,151.591 194.91,151.706 C195.025,151.82 195.082,151.961 195.082,152.128 C195.082,152.211 195.014,152.3 194.879,152.393 C194.744,152.497 194.676,152.581 194.676,152.643 C194.676,152.789 194.754,152.896 194.91,152.964 C195.066,153.031 195.233,153.065 195.41,153.065 C195.681,153.065 195.936,152.977 196.176,152.8 C196.415,152.612 196.53,152.388 196.52,152.128 C196.52,151.888 196.421,151.659 196.223,151.44 C196.056,151.263 195.85,151.102 195.605,150.956 C195.361,150.81 195.16,150.654 195.004,150.487 C194.816,150.289 194.723,150.081 194.723,149.862 C194.723,149.352 194.915,148.919 195.301,148.565 C195.655,148.221 196.113,148.05 196.676,148.05 C197.134,148.05 197.462,148.154 197.66,148.362 C197.889,148.602 198.004,148.862 198.004,149.143 C198.004,149.352 197.952,149.524 197.848,149.659 C197.733,149.815 197.592,149.883 197.426,149.862 C197.259,149.862 197.119,149.826 197.004,149.753 C196.889,149.68 196.832,149.591 196.832,149.487 C196.832,149.466 196.874,149.367 196.957,149.19 C197.04,149.044 197.082,148.896 197.082,148.745 C197.082,148.594 197.056,148.487 197.004,148.425 C196.921,148.331 196.832,148.279 196.738,148.268 C196.467,148.268 196.246,148.378 196.074,148.596 C195.902,148.815 195.816,149.06 195.816,149.331 M201.988,148.268 L201.035,151.362 C200.702,152.477 200.145,153.555 199.363,154.596 C198.572,155.638 197.764,156.159 196.941,156.159 C196.514,156.159 196.137,156.047 195.809,155.823 C195.48,155.599 195.316,155.31 195.316,154.956 C195.316,154.55 195.4,154.206 195.566,153.925 C195.744,153.654 195.988,153.508 196.301,153.487 C196.53,153.487 196.723,153.57 196.879,153.737 C197.035,153.904 197.113,154.096 197.113,154.315 C197.113,154.513 196.999,154.695 196.77,154.862 C196.53,155.008 196.405,155.175 196.395,155.362 C196.395,155.487 196.535,155.55 196.816,155.55 L196.941,155.55 C197.004,155.55 197.098,155.534 197.223,155.503 C197.296,155.492 197.384,155.451 197.488,155.378 C197.488,155.378 197.551,155.326 197.676,155.221 C197.759,155.107 197.811,155.024 197.832,154.971 C197.874,154.867 197.91,154.784 197.941,154.721 C197.983,154.68 198.02,154.576 198.051,154.409 C198.072,154.367 198.087,154.32 198.098,154.268 C198.108,154.216 198.119,154.18 198.129,154.159 C198.139,154.138 198.145,154.122 198.145,154.112 C198.197,153.904 198.233,153.779 198.254,153.737 C198.296,153.529 198.316,153.425 198.316,153.425 L199.598,148.268 L198.613,148.268 C198.52,148.268 198.452,148.237 198.41,148.175 C198.358,148.091 198.332,148.018 198.332,147.956 C198.332,147.872 198.358,147.8 198.41,147.737 C198.494,147.675 198.561,147.643 198.613,147.643 L199.785,147.643 C200.108,146.664 200.645,145.82 201.395,145.112 C202.134,144.383 202.931,144.018 203.785,144.018 C204.244,144.018 204.624,144.133 204.926,144.362 C205.249,144.581 205.415,144.867 205.426,145.221 C205.426,145.607 205.342,145.951 205.176,146.253 C204.978,146.524 204.733,146.664 204.441,146.675 C204.212,146.675 204.02,146.594 203.863,146.432 C203.707,146.271 203.629,146.081 203.629,145.862 C203.629,145.675 203.749,145.503 203.988,145.346 C204.228,145.19 204.342,145.013 204.332,144.815 C204.332,144.669 204.197,144.602 203.926,144.612 L203.879,144.612 C203.848,144.633 203.816,144.638 203.785,144.628 C203.556,144.628 203.363,144.685 203.207,144.8 C203.051,144.904 202.905,145.091 202.77,145.362 C202.728,145.435 202.694,145.508 202.668,145.581 C202.642,145.654 202.613,145.734 202.582,145.823 C202.551,145.912 202.525,145.971 202.504,146.003 C202.494,146.065 202.473,146.195 202.441,146.393 C202.4,146.581 202.363,146.742 202.332,146.878 C202.249,147.274 202.191,147.529 202.16,147.643 L203.238,147.643 C203.322,147.643 203.397,147.672 203.465,147.729 C203.533,147.787 203.566,147.859 203.566,147.948 C203.566,148.037 203.533,148.112 203.465,148.175 C203.397,148.237 203.322,148.268 203.238,148.268 L201.988,148.268 "/>
<path class="Dynamic" d="M70.7566,148.815 C70.4024,148.815 70.0847,149.003 69.8035,149.378 C69.5014,149.774 69.2722,150.211 69.116,150.69 C68.9597,151.149 68.8868,151.55 68.8972,151.893 C68.8972,152.383 69.0795,152.628 69.4441,152.628 C69.767,152.628 70.0431,152.503 70.2722,152.253 C70.5327,151.982 70.7514,151.513 70.9285,150.846 C71.116,150.159 71.2097,149.68 71.2097,149.409 C71.1993,149.013 71.0483,148.815 70.7566,148.815 M67.8347,147.893 C68.1577,147.893 68.4415,147.979 68.6863,148.151 C68.9311,148.323 69.0847,148.555 69.1472,148.846 C69.4077,148.565 69.7149,148.336 70.0691,148.159 C70.4233,147.982 70.7514,147.893 71.0535,147.893 C71.6785,147.893 72.1629,148.086 72.5066,148.471 C72.8399,148.878 73.0066,149.388 73.0066,150.003 C73.0066,151.024 72.6472,151.857 71.9285,152.503 C71.2722,153.055 70.6785,153.331 70.1472,153.331 C69.8243,153.331 69.5639,153.3 69.366,153.237 C69.116,153.175 68.9493,153.117 68.866,153.065 C68.7514,152.992 68.6577,152.956 68.5847,152.956 C68.4181,152.956 68.3087,153.024 68.2566,153.159 L67.5535,155.284 L67.5535,155.378 C67.5535,155.503 67.6472,155.576 67.8347,155.596 C67.8972,155.607 67.9936,155.617 68.1238,155.628 C68.254,155.638 68.3556,155.643 68.4285,155.643 C68.616,155.675 68.7097,155.727 68.7097,155.8 C68.7097,155.904 68.6629,155.956 68.5691,155.956 C67.4337,155.883 66.6993,155.846 66.366,155.846 C66.0014,155.846 65.2514,155.883 64.116,155.956 C64.0118,155.956 63.9702,155.904 63.991,155.8 C63.991,155.727 64.0743,155.675 64.241,155.643 C64.3139,155.622 64.6472,155.612 65.241,155.612 C65.5118,155.612 65.6733,155.529 65.7254,155.362 L67.7722,149.44 C67.8035,149.326 67.8243,149.227 67.8347,149.143 C67.8347,148.914 67.7306,148.805 67.5222,148.815 C67.2306,148.815 66.9233,149.003 66.6004,149.378 C66.2879,149.732 66.0379,150.133 65.8504,150.581 C65.7983,150.685 65.7149,150.742 65.6004,150.753 C65.5066,150.753 65.4597,150.716 65.4597,150.643 C65.4597,150.539 65.491,150.44 65.5535,150.346 C65.8139,149.794 66.0847,149.294 66.366,148.846 C66.5327,148.596 66.7514,148.378 67.0222,148.19 C67.2722,147.992 67.5431,147.893 67.8347,147.893"/>
<path class="Beam" fill-rule="evenodd" d="M125.375,103.346 L173.476,103.346 L173.476,105.846 L125.375,105.846 L125.375,103.346 "/>
<path class="Beam" fill-rule="evenodd" d="M173.476,107.096 L166.876,107.096 L166.876,109.596 L173.476,109.596 L173.476,107.096 "/>
<path class="Hook" d="M261.168,110.846 L261.168,105.846 L261.793,105.846 C261.793,106.586 261.939,107.331 262.23,108.081 C262.543,108.883 262.887,109.586 263.262,110.19 C263.532,110.617 263.944,111.274 264.496,112.159 C264.913,112.836 265.264,113.544 265.551,114.284 C265.837,115.024 265.98,115.768 265.98,116.518 C265.98,117.872 265.699,119.253 265.137,120.659 C265.043,120.815 264.918,120.893 264.762,120.893 C264.637,120.893 264.522,120.841 264.418,120.737 C264.334,120.654 264.293,120.555 264.293,120.44 L264.293,120.346 C264.855,119.055 265.137,117.779 265.137,116.518 C265.137,115.862 264.939,115.159 264.543,114.409 C264.157,113.638 263.762,113.024 263.355,112.565 C262.897,112.034 262.376,111.461 261.793,110.846 L261.168,110.846 "/>
<path class="NoteDot" d="M128.11,121.651 C127.886,121.427 127.775,121.159 127.775,120.846 C127.775,120.534 127.886,120.266 128.11,120.042 C128.334,119.818 128.603,119.706 128.915,119.706 C129.228,119.706 129.493,119.818 129.712,120.042 C129.931,120.266 130.04,120.534 130.04,120.846 C130.04,121.159 129.931,121.427 129.712,121.651 C129.493,121.875 129.228,121.987 128.915,121.987 C128.603,121.987 128.334,121.875 128.11,121.651"/>
<path class="NoteDot" d="M128.11,126.651 C127.886,126.427 127.775,126.159 127.775,125.846 C127.775,125.534 127.886,125.266 128.11,125.042 C128.334,124.818 128.603,124.706 128.915,124.706 C129.228,124.706 129.493,124.818 129.712,125.042 C129.931,125.266 130.04,125.534 130.04,125.846 C130.04,126.159 129.931,126.427 129.712,126.651 C129.493,126.875 129.228,126.987 128.915,126.987 C128.603,126.987 128.334,126.875 128.11,126.651"/>
</svg>
