<?xml version="1.0" encoding="UTF-8" standalone="no"?>
<svg width="595.44px" height="841.68px" viewBox="0 0 595.44 841.68"
 xmlns="http://www.w3.org/2000/svg" xmlns:xlink="http://www.w3.org/1999/xlink" version="1.2" baseProfile="tiny">
<title>Motiv_06</title>
<desc>Generated by MuseScore 2.0.3</desc>
<polyline class="StaffLines" fill="none" stroke="#000000" stroke-width="0.40" stroke-linejoin="bevel" points="28.3465,63.3465 567.094,63.3465"/>
<polyline class="StaffLines" fill="none" stroke="#000000" stroke-width="0.40" stroke-linejoin="bevel" points="28.3465,68.3465 567.094,68.3465"/>
<polyline class="StaffLines" fill="none" stroke="#000000" stroke-width="0.40" stroke-linejoin="bevel" points="28.3465,73.3465 567.094,73.3465"/>
<polyline class="StaffLines" fill="none" stroke="#000000" stroke-width="0.40" stroke-linejoin="bevel" points="28.3465,78.3465 567.094,78.3465"/>
<polyline class="StaffLines" fill="none" stroke="#000000" stroke-width="0.40" stroke-linejoin="bevel" points="28.3465,83.3465 567.094,83.3465"/>
<path class="SlurSegment" stroke="#000000" stroke-width="0.35" stroke-linecap="round" stroke-linejoin="round" fill-rule="evenodd" d="M198.956,85.3465 C210.462,93.4224 232.699,92.4204 243.431,83.3426 C232.735,93.2196 210.498,94.2216 198.956,85.3465"/>
<path class="SlurSegment" stroke="#000000" stroke-width="0.35" stroke-linecap="round" stroke-linejoin="round" fill-rule="evenodd" d="M73.227,92.8465 C84.1167,101.049 114.344,98.3469 123.607,88.3426 C114.416,99.1437 84.188,101.846 73.227,92.8465"/>
<polyline class="BarLine" stroke="#000000" stroke-width="0.80" stroke-linejoin="bevel" points="562.194,63.3465 562.194,83.3465"/>
<polyline class="BarLine" stroke="#000000" stroke-width="2.50" stroke-linejoin="bevel" points="565.844,63.3465 565.844,83.3465"/>
<polyline class="BarLine" stroke="#000000" stroke-width="0.80" stroke-linejoin="bevel" points="457.117,63.3465 457.117,83.3465"/>
<polyline class="BarLine" stroke="#000000" stroke-width="0.80" stroke-linejoin="bevel" points="352.041,63.3465 352.041,83.3465"/>
<polyline class="BarLine" stroke="#000000" stroke-width="0.80" stroke-linejoin="bevel" points="233.74,63.3465 233.74,83.3465"/>
<polyline class="BarLine" stroke="#000000" stroke-width="0.80" stroke-linejoin="bevel" points="113.915,63.3465 113.915,83.3465"/>
<polyline class="Stem" stroke="#000000" stroke-width="0.65" stroke-linecap="round" stroke-linejoin="bevel" points="283.565,74.9074 283.565,62.0965"/>
<polyline class="Stem" stroke="#000000" stroke-width="0.65" stroke-linecap="round" stroke-linejoin="bevel" points="246.398,74.9074 246.398,62.0965"/>
<polyline class="Stem" stroke="#000000" stroke-width="0.65" stroke-linecap="round" stroke-linejoin="bevel" points="201.923,79.9074 201.923,67.0965"/>
<polyline class="Stem" stroke="#000000" stroke-width="0.65" stroke-linecap="round" stroke-linejoin="bevel" points="164.248,79.9074 164.248,67.0965"/>
<polyline class="Stem" stroke="#000000" stroke-width="0.65" stroke-linecap="round" stroke-linejoin="bevel" points="126.573,79.9074 126.573,67.0965"/>
<polyline class="Stem" stroke="#000000" stroke-width="0.65" stroke-linecap="round" stroke-linejoin="bevel" points="76.1934,87.4074 76.1934,70.8465"/>
<polyline class="LedgerLine" stroke="#000000" stroke-width="0.80" stroke-linecap="square" stroke-linejoin="bevel" points="68.4355,88.3465 78.0184,88.3465"/>
<path class="Note" d="M281.698,73.0965 C282.323,73.0965 282.854,73.2579 283.291,73.5809 C283.687,73.935 283.885,74.3777 283.885,74.909 C283.885,75.8048 283.427,76.6434 282.51,77.4246 C281.573,78.2059 280.567,78.5965 279.494,78.5965 C278.869,78.5965 278.343,78.435 277.916,78.1121 C277.51,77.7579 277.307,77.3152 277.307,76.784 C277.307,75.8882 277.776,75.0496 278.713,74.2684 C279.63,73.4871 280.625,73.0965 281.698,73.0965"/>
<path class="Note" d="M244.53,73.0965 C245.155,73.0965 245.687,73.2579 246.124,73.5809 C246.52,73.935 246.718,74.3777 246.718,74.909 C246.718,75.8048 246.26,76.6434 245.343,77.4246 C244.405,78.2059 243.4,78.5965 242.327,78.5965 C241.702,78.5965 241.176,78.435 240.749,78.1121 C240.343,77.7579 240.14,77.3152 240.14,76.784 C240.14,75.8882 240.609,75.0496 241.546,74.2684 C242.463,73.4871 243.458,73.0965 244.53,73.0965"/>
<path class="Note" d="M200.056,78.0965 C200.681,78.0965 201.212,78.2579 201.649,78.5809 C202.045,78.935 202.243,79.3777 202.243,79.909 C202.243,80.8048 201.785,81.6434 200.868,82.4246 C199.931,83.2059 198.925,83.5965 197.852,83.5965 C197.227,83.5965 196.701,83.435 196.274,83.1121 C195.868,82.7579 195.665,82.3152 195.665,81.784 C195.665,80.8882 196.134,80.0496 197.071,79.2684 C197.988,78.4871 198.983,78.0965 200.056,78.0965"/>
<path class="Note" d="M162.381,78.0965 C163.006,78.0965 163.537,78.2579 163.974,78.5809 C164.37,78.935 164.568,79.3777 164.568,79.909 C164.568,80.8048 164.11,81.6434 163.193,82.4246 C162.256,83.2059 161.25,83.5965 160.178,83.5965 C159.553,83.5965 159.026,83.435 158.599,83.1121 C158.193,82.7579 157.99,82.3152 157.99,81.784 C157.99,80.8882 158.459,80.0496 159.396,79.2684 C160.313,78.4871 161.308,78.0965 162.381,78.0965"/>
<path class="Note" d="M124.706,78.0965 C125.331,78.0965 125.862,78.2579 126.3,78.5809 C126.695,78.935 126.893,79.3777 126.893,79.909 C126.893,80.8048 126.435,81.6434 125.518,82.4246 C124.581,83.2059 123.576,83.5965 122.503,83.5965 C121.878,83.5965 121.352,83.435 120.925,83.1121 C120.518,82.7579 120.315,82.3152 120.315,81.784 C120.315,80.8882 120.784,80.0496 121.721,79.2684 C122.638,78.4871 123.633,78.0965 124.706,78.0965"/>
<path class="Note" d="M74.3262,85.5965 C74.9512,85.5965 75.4824,85.758 75.9199,86.0809 C76.3158,86.435 76.5137,86.8777 76.5137,87.409 C76.5137,88.3048 76.0553,89.1434 75.1387,89.9246 C74.2012,90.7059 73.196,91.0965 72.123,91.0965 C71.498,91.0965 70.972,90.935 70.5449,90.6121 C70.1387,90.258 69.9355,89.8152 69.9355,89.284 C69.9355,88.3882 70.4043,87.5496 71.3418,86.7684 C72.2585,85.9871 73.2533,85.5965 74.3262,85.5965"/>
<path class="Clef" d="M38.8902,73.2215 C38.8902,73.2215 38.9319,73.2215 39.0152,73.2215 C39.0673,73.2111 39.109,73.2059 39.1402,73.2059 C40.5985,73.2059 41.7965,73.7215 42.734,74.7527 C43.6715,75.7632 44.1402,76.9454 44.1402,78.2996 C44.1402,79.9871 43.4475,81.3569 42.0621,82.409 C41.6975,82.7007 41.2183,82.935 40.6246,83.1121 C40.6975,83.9559 40.734,84.6382 40.734,85.159 C40.734,85.2632 40.7183,85.6434 40.6871,86.2996 C40.635,87.5079 40.2183,88.5548 39.4371,89.4402 C38.6871,90.3152 37.7496,90.7527 36.6246,90.7527 C35.5725,90.7527 34.6767,90.3829 33.9371,89.6434 C33.1871,88.8829 32.8121,87.9715 32.8121,86.909 C32.8121,86.3465 33.0308,85.8673 33.4683,85.4715 C33.9058,85.0861 34.4163,84.8934 34.9996,84.8934 C35.5204,84.8934 35.9579,85.0965 36.3121,85.5027 C36.6767,85.8777 36.859,86.3465 36.859,86.909 C36.859,87.409 36.6767,87.8413 36.3121,88.2059 C35.9475,88.5704 35.51,88.7527 34.9996,88.7527 C34.7913,88.7527 34.5933,88.7163 34.4058,88.6434 C34.9788,89.4871 35.7392,89.909 36.6871,89.909 C37.5829,89.909 38.3173,89.5444 38.8902,88.8152 C39.4944,88.0652 39.8225,87.185 39.8746,86.1746 C39.8954,85.5496 39.9058,85.1954 39.9058,85.1121 C39.9058,84.3829 39.8798,83.784 39.8277,83.3152 C39.1819,83.4194 38.6038,83.4715 38.0933,83.4715 C36.2808,83.4715 34.7392,82.7527 33.4683,81.3152 C32.2183,79.8673 31.5933,78.1486 31.5933,76.159 C31.5933,75.7423 31.6298,75.3204 31.7027,74.8934 C31.786,74.5392 31.885,74.1538 31.9996,73.7371 C32.0621,73.4975 32.2392,73.1173 32.5308,72.5965 C32.635,72.4402 32.7522,72.2449 32.8824,72.0106 C33.0126,71.7762 33.1038,71.6225 33.1558,71.5496 C33.2808,71.2892 33.5308,70.935 33.9058,70.4871 C34.01,70.3725 34.1194,70.2449 34.234,70.1043 C34.3485,69.9637 34.4449,69.8465 34.523,69.7527 C34.6011,69.659 34.6584,69.5861 34.6949,69.534 C34.7314,69.4819 35.0256,69.1382 35.5777,68.5027 C35.7027,68.3673 35.8277,68.2267 35.9527,68.0809 C36.0777,67.935 36.1793,67.8178 36.2574,67.7293 C36.3355,67.6408 36.3954,67.5809 36.4371,67.5496 C35.9683,65.9975 35.6715,64.7579 35.5465,63.8309 C35.4631,63.0913 35.4215,62.0757 35.4215,60.784 C35.4215,59.6486 35.6819,58.5861 36.2027,57.5965 C36.7027,56.5757 37.411,55.7371 38.3277,55.0809 C38.3902,55.0392 38.4527,55.0184 38.5152,55.0184 C38.609,55.0184 38.6767,55.0392 38.7183,55.0809 C39.4163,55.9246 40.0204,57.0236 40.5308,58.3777 C41.0517,59.7319 41.3121,60.9663 41.3121,62.0809 C41.3121,63.3309 41.0152,64.5027 40.4215,65.5965 C39.7444,66.7527 38.8694,67.9507 37.7965,69.1902 C38.0673,70.0444 38.4319,71.3882 38.8902,73.2215 M40.5465,82.3152 C41.2235,82.0652 41.7548,81.6434 42.1402,81.0496 C42.5569,80.4767 42.7652,79.8309 42.7652,79.1121 C42.7652,78.185 42.4527,77.3621 41.8277,76.6434 C41.1819,75.9038 40.3642,75.4871 39.3746,75.3934 C39.9371,78.1434 40.3277,80.4507 40.5465,82.3152 M32.9996,77.7996 C32.9996,79.0913 33.5204,80.2267 34.5621,81.2059 C35.6246,82.1538 36.8225,82.6277 38.1558,82.6277 C38.6975,82.6277 39.2288,82.5861 39.7496,82.5027 C39.5413,80.5236 39.1298,78.1538 38.5152,75.3934 C37.7756,75.4767 37.1871,75.7371 36.7496,76.1746 C36.3121,76.6329 36.0933,77.1486 36.0933,77.7215 C36.0933,78.7111 36.6246,79.5132 37.6871,80.1277 C37.7704,80.2215 37.8121,80.3204 37.8121,80.4246 C37.8121,80.5288 37.7704,80.6225 37.6871,80.7059 C37.6038,80.7996 37.5048,80.8465 37.3902,80.8465 C37.3798,80.8465 37.3225,80.8361 37.2183,80.8152 C36.4683,80.409 35.8954,79.8882 35.4996,79.2527 C35.1142,78.5652 34.9215,77.8777 34.9215,77.1902 C34.9215,76.2944 35.2027,75.4819 35.7652,74.7527 C36.3485,74.0236 37.109,73.5548 38.0465,73.3465 C37.6819,71.8882 37.385,70.7475 37.1558,69.9246 C36.9475,70.1642 36.6975,70.4481 36.4058,70.7762 C36.1142,71.1043 35.9423,71.3048 35.8902,71.3777 C35.4215,71.9819 35.0621,72.4559 34.8121,72.7996 C34.3642,73.4142 34.036,73.9402 33.8277,74.3777 C33.609,74.8777 33.4163,75.4194 33.2496,76.0027 C33.0829,76.5652 32.9996,77.1642 32.9996,77.7996 M39.5152,57.9402 C38.536,58.4194 37.7704,59.1069 37.2183,60.0027 C36.6454,60.9298 36.359,61.9246 36.359,62.9871 C36.359,63.9246 36.5933,65.1902 37.0621,66.784 C37.9996,65.6486 38.7027,64.6017 39.1715,63.6434 C39.661,62.6225 39.9058,61.56 39.9058,60.4559 C39.9058,59.6225 39.7756,58.784 39.5152,57.9402"/>
<path class="KeySig" d="M47.673,72.5184 L47.673,74.0652 C47.673,74.6173 47.6991,75.0548 47.7512,75.3777 C48.1782,75.0132 48.4855,74.7423 48.673,74.5652 C48.8814,74.3569 49.0897,74.0678 49.298,73.698 C49.5064,73.3283 49.6105,72.9611 49.6105,72.5965 C49.6105,72.2319 49.5324,71.9194 49.3762,71.659 C49.2199,71.3986 49.0116,71.2684 48.7512,71.2684 C48.4387,71.2684 48.1782,71.3882 47.9699,71.6277 C47.772,71.8882 47.673,72.185 47.673,72.5184 M46.8449,76.0965 L46.5949,64.2059 C46.7824,64.1017 46.9673,64.0496 47.1496,64.0496 C47.3319,64.0496 47.5116,64.1017 47.6887,64.2059 L47.5324,71.0965 C48.0637,70.6382 48.6782,70.409 49.3762,70.409 C49.8762,70.409 50.2954,70.6173 50.634,71.034 C50.9725,71.4507 51.1418,71.9298 51.1418,72.4715 C51.1418,72.8048 51.0324,73.1642 50.8137,73.5496 C50.6053,73.8934 50.3866,74.1642 50.1574,74.3621 C50.022,74.4663 49.6887,74.7267 49.1574,75.1434 C49.0012,75.2579 48.8163,75.3934 48.6027,75.5496 C48.3892,75.7059 48.2564,75.8048 48.2043,75.8465 C48.1105,75.8986 48.022,76.0027 47.9387,76.159 C47.8553,76.2944 47.7512,76.4038 47.6262,76.4871 C47.5428,76.5704 47.4361,76.6121 47.3058,76.6121 C47.1756,76.6121 47.0689,76.5652 46.9855,76.4715 C46.8918,76.3777 46.8449,76.2527 46.8449,76.0965"/>
<path class="TimeSig" d="M59.373,68.0496 C59.373,68.185 59.446,68.31 59.5918,68.4246 C59.8001,68.5809 59.9616,68.7006 60.0762,68.784 C60.2324,68.8673 60.3991,69.0756 60.5762,69.409 C60.7116,69.7215 60.7793,70.1017 60.7793,70.5496 C60.7793,71.4559 60.4512,72.1486 59.7949,72.6277 C59.1178,73.1069 58.2585,73.3465 57.2168,73.3465 C56.3626,73.3465 55.6439,73.1381 55.0605,72.7215 C54.4355,72.3361 54.123,71.7892 54.123,71.0809 C54.123,70.7475 54.2532,70.435 54.5137,70.1434 C54.7845,69.8934 55.097,69.7684 55.4512,69.7684 C55.8157,69.7684 56.1178,69.8986 56.3574,70.159 C56.6178,70.409 56.748,70.7163 56.748,71.0809 C56.748,71.2475 56.6178,71.4298 56.3574,71.6277 C56.0762,71.8152 55.9355,71.9923 55.9355,72.159 C55.9355,72.409 56.0605,72.5913 56.3105,72.7059 C56.571,72.8204 56.873,72.8777 57.2168,72.8777 C57.6647,72.8777 57.9876,72.659 58.1855,72.2215 C58.373,71.7319 58.4668,71.1746 58.4668,70.5496 L58.4668,70.2215 C58.4668,69.8465 58.4512,69.5131 58.4199,69.2215 C58.3991,69.0027 58.3105,68.8048 58.1543,68.6277 C58.0085,68.4402 57.7793,68.3465 57.4668,68.3465 L55.8574,68.3465 C55.6803,68.3465 55.5918,68.2475 55.5918,68.0496 C55.5918,67.8829 55.6803,67.784 55.8574,67.7527 L57.4668,67.7527 C57.8314,67.7527 58.0918,67.6381 58.248,67.409 C58.373,67.2215 58.4355,66.8934 58.4355,66.4246 L58.4355,65.784 L58.4355,65.6277 C58.4355,64.4194 57.9928,63.8152 57.1074,63.8152 C56.3262,63.8152 55.9355,64.0288 55.9355,64.4559 C55.9355,64.6017 56.0605,64.7579 56.3105,64.9246 C56.5501,65.0913 56.6699,65.2475 56.6699,65.3934 C56.6699,65.7163 56.5501,65.9975 56.3105,66.2371 C56.0918,66.4559 55.821,66.5652 55.498,66.5652 C55.1855,66.5652 54.9147,66.4559 54.6855,66.2371 C54.4668,65.9871 54.3574,65.7059 54.3574,65.3934 C54.3574,64.7788 54.6335,64.2788 55.1855,63.8934 C55.7585,63.5288 56.4095,63.3465 57.1387,63.3465 C58.1074,63.3465 58.9147,63.534 59.5605,63.909 C60.196,64.2736 60.5137,64.8465 60.5137,65.6277 C60.5137,66.1902 60.4564,66.6121 60.3418,66.8934 C60.2168,67.1954 60.0866,67.3777 59.9512,67.4402 C59.7949,67.5131 59.6647,67.5913 59.5605,67.6746 C59.4355,67.7788 59.373,67.9038 59.373,68.0496"/>
<path class="TimeSig" d="M58.8574,77.5809 C59.5137,76.8621 59.8418,76.185 59.8418,75.5496 C59.8418,75.0184 59.6126,74.5965 59.1543,74.284 C58.7168,73.9715 58.1699,73.8152 57.5137,73.8152 C57.0553,73.8152 56.6907,73.9585 56.4199,74.2449 C56.1491,74.5314 56.0137,74.8569 56.0137,75.2215 C56.0137,75.6798 56.2168,76.0288 56.623,76.2684 L58.8574,77.5809 M59.4824,77.909 C60.5762,78.5548 61.123,79.409 61.123,80.4715 C61.123,81.2736 60.7949,81.9454 60.1387,82.4871 C59.472,83.06 58.5397,83.3465 57.3418,83.3465 C56.321,83.3465 55.4668,83.0861 54.7793,82.5652 C54.0501,82.0444 53.6855,81.3725 53.6855,80.5496 C53.6855,80.2579 53.7793,79.9402 53.9668,79.5965 C54.1335,79.2944 54.3001,79.06 54.4668,78.8934 C54.5501,78.7892 54.8001,78.5392 55.2168,78.1434 C54.3939,77.5704 53.9824,76.8621 53.9824,76.0184 C53.9824,75.2996 54.3001,74.6694 54.9355,74.1277 C55.571,73.6069 56.4251,73.3465 57.498,73.3465 C58.3626,73.3465 59.1178,73.5392 59.7637,73.9246 C60.3887,74.3204 60.7012,74.8621 60.7012,75.5496 C60.7012,76.2579 60.2949,77.0444 59.4824,77.909 M55.7949,78.5027 C54.9928,79.2215 54.5918,79.9038 54.5918,80.5496 C54.5918,81.2163 54.8678,81.7736 55.4199,82.2215 C55.9512,82.659 56.5918,82.8777 57.3418,82.8777 C57.873,82.8777 58.2897,82.7111 58.5918,82.3777 C58.9043,82.0652 59.0605,81.6798 59.0605,81.2215 C59.0605,80.659 58.8314,80.2475 58.373,79.9871 L55.7949,78.5027 "/>
<path class="Rest" d="M513.218,71.4715 L506.109,71.4715 C505.973,71.4715 505.905,71.409 505.905,71.284 L505.905,68.5496 C505.905,68.4142 505.973,68.3465 506.109,68.3465 L513.218,68.3465 C513.343,68.3465 513.405,68.4142 513.405,68.5496 L513.405,71.284 C513.405,71.409 513.343,71.4715 513.218,71.4715"/>
<path class="Rest" d="M408.142,71.4715 L401.032,71.4715 C400.897,71.4715 400.829,71.409 400.829,71.284 L400.829,68.5496 C400.829,68.4142 400.897,68.3465 401.032,68.3465 L408.142,68.3465 C408.267,68.3465 408.329,68.4142 408.329,68.5496 L408.329,71.284 C408.329,71.409 408.267,71.4715 408.142,71.4715"/>
<path class="Rest" d="M315.88,69.2371 C316.255,69.2371 316.542,69.3413 316.74,69.5496 C316.938,69.7892 317.042,70.0132 317.052,70.2215 C317.083,70.4194 317.151,70.6382 317.255,70.8777 C317.37,71.0861 317.516,71.1902 317.693,71.1902 C317.839,71.1902 318.057,71.0288 318.349,70.7059 C318.609,70.4246 318.797,70.1694 318.911,69.9402 C318.974,69.8152 319.063,69.7527 319.177,69.7527 L319.208,69.7527 C319.333,69.7632 319.422,69.8257 319.474,69.9402 L317.021,78.3465 C316.885,78.4819 316.701,78.5496 316.466,78.5496 C316.232,78.5496 316.052,78.4819 315.927,78.3465 L318.271,71.8152 C317.438,72.1173 316.734,72.2684 316.161,72.2684 C315.693,72.2684 315.286,72.1173 314.943,71.8152 C314.589,71.534 314.411,71.159 314.411,70.6902 C314.411,70.284 314.557,69.9454 314.849,69.6746 C315.13,69.3829 315.474,69.2371 315.88,69.2371"/>
<path class="Articulation" d="M279.911,81.5535 C279.713,81.3556 279.614,81.1212 279.614,80.8504 C279.614,80.5796 279.713,80.3452 279.911,80.1473 C280.109,79.9494 280.343,79.8504 280.614,79.8504 C280.885,79.8504 281.119,79.9494 281.317,80.1473 C281.515,80.3452 281.614,80.5796 281.614,80.8504 C281.614,81.1212 281.515,81.3556 281.317,81.5535 C281.119,81.7514 280.885,81.8504 280.614,81.8504 C280.343,81.8504 280.109,81.7514 279.911,81.5535"/>
<path class="Articulation" d="M242.744,81.5535 C242.546,81.3556 242.447,81.1212 242.447,80.8504 C242.447,80.5796 242.546,80.3452 242.744,80.1473 C242.942,79.9494 243.176,79.8504 243.447,79.8504 C243.718,79.8504 243.952,79.9494 244.15,80.1473 C244.348,80.3452 244.447,80.5796 244.447,80.8504 C244.447,81.1212 244.348,81.3556 244.15,81.5535 C243.952,81.7514 243.718,81.8504 243.447,81.8504 C243.176,81.8504 242.942,81.7514 242.744,81.5535"/>
<path class="Articulation" d="M160.594,86.5535 C160.396,86.3556 160.297,86.1212 160.297,85.8504 C160.297,85.5796 160.396,85.3452 160.594,85.1473 C160.792,84.9494 161.026,84.8504 161.297,84.8504 C161.568,84.8504 161.802,84.9494 162,85.1473 C162.198,85.3452 162.297,85.5796 162.297,85.8504 C162.297,86.1212 162.198,86.3556 162,86.5535 C161.802,86.7514 161.568,86.8504 161.297,86.8504 C161.026,86.8504 160.792,86.7514 160.594,86.5535"/>
<path class="Articulation" d="M122.919,86.5535 C122.721,86.3556 122.622,86.1212 122.622,85.8504 C122.622,85.5796 122.721,85.3452 122.919,85.1473 C123.117,84.9494 123.351,84.8504 123.622,84.8504 C123.893,84.8504 124.127,84.9494 124.325,85.1473 C124.523,85.3452 124.622,85.5796 124.622,85.8504 C124.622,86.1212 124.523,86.3556 124.325,86.5535 C124.127,86.7514 123.893,86.8504 123.622,86.8504 C123.351,86.8504 123.117,86.7514 122.919,86.5535"/>
<path class="Dynamic" d="M71.227,101.815 C70.8728,101.815 70.5551,102.003 70.2738,102.378 C69.9717,102.774 69.7426,103.211 69.5863,103.69 C69.4301,104.149 69.3572,104.55 69.3676,104.893 C69.3676,105.383 69.5499,105.628 69.9145,105.628 C70.2374,105.628 70.5134,105.503 70.7426,105.253 C71.003,104.982 71.2217,104.513 71.3988,103.847 C71.5863,103.159 71.6801,102.68 71.6801,102.409 C71.6697,102.013 71.5186,101.815 71.227,101.815 M68.3051,100.893 C68.628,100.893 68.9118,100.979 69.1566,101.151 C69.4014,101.323 69.5551,101.555 69.6176,101.847 C69.878,101.565 70.1853,101.336 70.5395,101.159 C70.8936,100.982 71.2217,100.893 71.5238,100.893 C72.1488,100.893 72.6332,101.086 72.977,101.472 C73.3103,101.878 73.477,102.388 73.477,103.003 C73.477,104.024 73.1176,104.857 72.3988,105.503 C71.7426,106.055 71.1488,106.331 70.6176,106.331 C70.2947,106.331 70.0342,106.3 69.8363,106.237 C69.5863,106.175 69.4197,106.117 69.3363,106.065 C69.2217,105.992 69.128,105.956 69.0551,105.956 C68.8884,105.956 68.779,106.024 68.727,106.159 L68.0238,108.284 L68.0238,108.378 C68.0238,108.503 68.1176,108.576 68.3051,108.597 C68.3676,108.607 68.4639,108.617 68.5941,108.628 C68.7243,108.638 68.8259,108.643 68.8988,108.643 C69.0863,108.675 69.1801,108.727 69.1801,108.8 C69.1801,108.904 69.1332,108.956 69.0395,108.956 C67.904,108.883 67.1697,108.847 66.8363,108.847 C66.4717,108.847 65.7217,108.883 64.5863,108.956 C64.4822,108.956 64.4405,108.904 64.4613,108.8 C64.4613,108.727 64.5447,108.675 64.7113,108.643 C64.7842,108.623 65.1176,108.612 65.7113,108.612 C65.9822,108.612 66.1436,108.529 66.1957,108.362 L68.2426,102.44 C68.2738,102.326 68.2947,102.227 68.3051,102.143 C68.3051,101.914 68.2009,101.805 67.9926,101.815 C67.7009,101.815 67.3936,102.003 67.0707,102.378 C66.7582,102.732 66.5082,103.133 66.3207,103.581 C66.2686,103.685 66.1853,103.742 66.0707,103.753 C65.977,103.753 65.9301,103.716 65.9301,103.643 C65.9301,103.539 65.9613,103.44 66.0238,103.347 C66.2842,102.794 66.5551,102.294 66.8363,101.847 C67.003,101.597 67.2217,101.378 67.4926,101.19 C67.7426,100.992 68.0134,100.893 68.3051,100.893 M78.2895,101.815 C77.9353,101.815 77.6176,102.003 77.3363,102.378 C77.0342,102.774 76.8051,103.211 76.6488,103.69 C76.4926,104.149 76.4197,104.55 76.4301,104.893 C76.4301,105.383 76.6124,105.628 76.977,105.628 C77.2999,105.628 77.5759,105.503 77.8051,105.253 C78.0655,104.982 78.2842,104.513 78.4613,103.847 C78.6488,103.159 78.7426,102.68 78.7426,102.409 C78.7322,102.013 78.5811,101.815 78.2895,101.815 M75.3676,100.893 C75.6905,100.893 75.9743,100.979 76.2191,101.151 C76.4639,101.323 76.6176,101.555 76.6801,101.847 C76.9405,101.565 77.2478,101.336 77.602,101.159 C77.9561,100.982 78.2842,100.893 78.5863,100.893 C79.2113,100.893 79.6957,101.086 80.0395,101.472 C80.3728,101.878 80.5395,102.388 80.5395,103.003 C80.5395,104.024 80.1801,104.857 79.4613,105.503 C78.8051,106.055 78.2113,106.331 77.6801,106.331 C77.3572,106.331 77.0967,106.3 76.8988,106.237 C76.6488,106.175 76.4822,106.117 76.3988,106.065 C76.2842,105.992 76.1905,105.956 76.1176,105.956 C75.9509,105.956 75.8415,106.024 75.7895,106.159 L75.0863,108.284 L75.0863,108.378 C75.0863,108.503 75.1801,108.576 75.3676,108.597 C75.4301,108.607 75.5264,108.617 75.6566,108.628 C75.7868,108.638 75.8884,108.643 75.9613,108.643 C76.1488,108.675 76.2426,108.727 76.2426,108.8 C76.2426,108.904 76.1957,108.956 76.102,108.956 C74.9665,108.883 74.2322,108.847 73.8988,108.847 C73.5342,108.847 72.7842,108.883 71.6488,108.956 C71.5447,108.956 71.503,108.904 71.5238,108.8 C71.5238,108.727 71.6072,108.675 71.7738,108.643 C71.8467,108.623 72.1801,108.612 72.7738,108.612 C73.0447,108.612 73.2061,108.529 73.2582,108.362 L75.3051,102.44 C75.3363,102.326 75.3572,102.227 75.3676,102.143 C75.3676,101.914 75.2634,101.805 75.0551,101.815 C74.7634,101.815 74.4561,102.003 74.1332,102.378 C73.8207,102.732 73.5707,103.133 73.3832,103.581 C73.3311,103.685 73.2478,103.742 73.1332,103.753 C73.0395,103.753 72.9926,103.716 72.9926,103.643 C72.9926,103.539 73.0238,103.44 73.0863,103.347 C73.3467,102.794 73.6176,102.294 73.8988,101.847 C74.0655,101.597 74.2842,101.378 74.5551,101.19 C74.8051,100.992 75.0759,100.893 75.3676,100.893"/>
<path class="Beam" fill-rule="evenodd" d="M246.073,60.8465 L283.89,60.8465 L283.89,63.3465 L246.073,63.3465 L246.073,60.8465 "/>
<path class="Beam" fill-rule="evenodd" d="M126.248,65.8465 L202.248,65.8465 L202.248,68.3465 L126.248,68.3465 L126.248,65.8465 "/>
<path class="Hook" d="M75.8684,75.8465 L75.8684,70.8465 L76.4934,70.8465 C76.4934,71.5861 76.6392,72.3309 76.9309,73.0809 C77.2434,73.8829 77.5871,74.5861 77.9621,75.1902 C78.2329,75.6173 78.6444,76.2736 79.1965,77.159 C79.6132,77.8361 79.9647,78.5444 80.2512,79.284 C80.5376,80.0236 80.6809,80.7684 80.6809,81.5184 C80.6809,82.8725 80.3996,84.2527 79.8371,85.659 C79.7434,85.8152 79.6184,85.8934 79.4621,85.8934 C79.3371,85.8934 79.2225,85.8413 79.1184,85.7371 C79.035,85.6538 78.9934,85.5548 78.9934,85.4402 L78.9934,85.3465 C79.5559,84.0548 79.8371,82.7788 79.8371,81.5184 C79.8371,80.8621 79.6392,80.159 79.2434,79.409 C78.8579,78.6382 78.4621,78.0236 78.0559,77.5652 C77.5975,77.034 77.0767,76.4611 76.4934,75.8465 L75.8684,75.8465 "/>
</svg>
