<?xml version="1.0" encoding="UTF-8" standalone="no"?>
<svg width="595.44px" height="841.68px" viewBox="0 0 595.44 841.68"
 xmlns="http://www.w3.org/2000/svg" xmlns:xlink="http://www.w3.org/1999/xlink" version="1.2" baseProfile="tiny">
<title>01</title>
<desc>Generated by MuseScore 2.3.2</desc>
<polyline class="StaffLines" fill="none" stroke="#000000" stroke-width="0.40" stroke-linejoin="bevel" points="38.8465,63.3465 567.094,63.3465"/>
<polyline class="StaffLines" fill="none" stroke="#000000" stroke-width="0.40" stroke-linejoin="bevel" points="38.8465,68.3465 567.094,68.3465"/>
<polyline class="StaffLines" fill="none" stroke="#000000" stroke-width="0.40" stroke-linejoin="bevel" points="38.8465,73.3465 567.094,73.3465"/>
<polyline class="StaffLines" fill="none" stroke="#000000" stroke-width="0.40" stroke-linejoin="bevel" points="38.8465,78.3465 567.094,78.3465"/>
<polyline class="StaffLines" fill="none" stroke="#000000" stroke-width="0.40" stroke-linejoin="bevel" points="38.8465,83.3465 567.094,83.3465"/>
<polyline class="StaffLines" fill="none" stroke="#000000" stroke-width="0.40" stroke-linejoin="bevel" points="38.8465,115.847 567.094,115.847"/>
<polyline class="StaffLines" fill="none" stroke="#000000" stroke-width="0.40" stroke-linejoin="bevel" points="38.8465,120.847 567.094,120.847"/>
<polyline class="StaffLines" fill="none" stroke="#000000" stroke-width="0.40" stroke-linejoin="bevel" points="38.8465,125.847 567.094,125.847"/>
<polyline class="StaffLines" fill="none" stroke="#000000" stroke-width="0.40" stroke-linejoin="bevel" points="38.8465,130.847 567.094,130.847"/>
<polyline class="StaffLines" fill="none" stroke="#000000" stroke-width="0.40" stroke-linejoin="bevel" points="38.8465,135.847 567.094,135.847"/>
<path class="SlurSegment" stroke="#000000" stroke-width="0.35" stroke-linecap="round" stroke-linejoin="round" fill-rule="evenodd" d="M200.218,116.347 C207.339,107.919 222.838,106.669 231.217,113.847 C222.903,107.467 207.403,108.717 200.218,116.347"/>
<path class="SlurSegment" stroke="#000000" stroke-width="0.35" stroke-linecap="round" stroke-linejoin="round" fill-rule="evenodd" d="M200.218,97.8465 C208.533,104.226 224.032,102.976 231.217,95.3465 C224.097,103.774 208.597,105.024 200.218,97.8465"/>
<path class="SlurSegment" stroke="#000000" stroke-width="0.35" stroke-linecap="round" stroke-linejoin="round" fill-rule="evenodd" d="M205.977,80.5699 C211.953,73.6822 222.653,67.9531 229.938,80.6294 C222.651,68.7531 211.951,74.4822 205.977,80.5699"/>
<path class="SlurSegment" stroke="#000000" stroke-width="0.35" stroke-linecap="round" stroke-linejoin="round" fill-rule="evenodd" d="M100.05,128.347 C104.618,124.475 118.319,124.475 122.887,128.347 C118.319,125.275 104.618,125.275 100.05,128.347"/>
<path class="SlurSegment" stroke="#000000" stroke-width="0.35" stroke-linecap="round" stroke-linejoin="round" fill-rule="evenodd" d="M100.05,137.821 C104.618,140.892 118.319,140.892 122.887,137.821 C118.319,141.692 104.618,141.692 100.05,137.821"/>
<path class="SlurSegment" stroke="#000000" stroke-width="0.35" stroke-linecap="round" stroke-linejoin="round" fill-rule="evenodd" d="M100.05,142.821 C104.618,145.892 118.319,145.892 122.887,142.821 C118.319,146.692 104.618,146.692 100.05,142.821"/>
<path class="SlurSegment" stroke="#000000" stroke-width="0.35" stroke-linecap="round" stroke-linejoin="round" fill-rule="evenodd" d="M100.05,86.3716 C104.618,82.5005 118.319,82.5005 122.887,86.3716 C118.319,83.3005 104.618,83.3005 100.05,86.3716"/>
<path class="SlurSegment" stroke="#000000" stroke-width="0.35" stroke-linecap="round" stroke-linejoin="round" fill-rule="evenodd" d="M100.05,97.8213 C104.618,100.892 118.319,100.892 122.887,97.8213 C118.319,101.692 104.618,101.692 100.05,97.8213"/>
<path class="SlurSegment" stroke="#000000" stroke-width="0.35" stroke-linecap="round" stroke-linejoin="round" fill-rule="evenodd" d="M100.05,102.821 C104.618,105.892 118.319,105.892 122.887,102.821 C118.319,106.692 104.618,106.692 100.05,102.821"/>
<polyline class="BarLine" stroke="#000000" stroke-width="0.80" stroke-linejoin="bevel" points="39.2465,63.3465 39.2465,135.847"/>
<polyline class="BarLine" stroke="#000000" stroke-width="0.80" stroke-linejoin="bevel" points="562.194,63.3465 562.194,135.847"/>
<polyline class="BarLine" stroke="#000000" stroke-width="2.50" stroke-linejoin="bevel" points="565.844,63.3465 565.844,135.847"/>
<polyline class="BarLine" stroke="#000000" stroke-width="0.80" stroke-linejoin="bevel" points="470.045,63.3465 470.045,135.847"/>
<polyline class="BarLine" stroke="#000000" stroke-width="0.80" stroke-linejoin="bevel" points="377.896,63.3465 377.896,135.847"/>
<polyline class="BarLine" stroke="#000000" stroke-width="0.80" stroke-linejoin="bevel" points="285.747,63.3465 285.747,135.847"/>
<path class="Accidental" d="M194.632,127.081 C194.632,127.331 194.509,127.456 194.264,127.456 C194.02,127.456 193.897,127.331 193.897,127.081 L193.897,124.19 L192.241,124.815 L192.241,127.972 C192.241,128.222 192.116,128.347 191.866,128.347 C191.616,128.347 191.491,128.222 191.491,127.972 L191.491,125.065 L190.866,125.3 C190.856,125.31 190.803,125.315 190.71,125.315 C190.606,125.315 190.514,125.276 190.436,125.198 C190.358,125.12 190.319,125.029 190.319,124.925 L190.319,123.722 C190.319,123.524 190.402,123.399 190.569,123.347 L191.491,123.034 L191.491,119.831 L190.866,120.05 C190.856,120.06 190.803,120.065 190.71,120.065 C190.606,120.065 190.514,120.026 190.436,119.948 C190.358,119.87 190.319,119.779 190.319,119.675 L190.319,118.456 C190.319,118.279 190.402,118.164 190.569,118.112 L191.491,117.753 L191.491,114.612 C191.491,114.362 191.616,114.237 191.866,114.237 C192.116,114.237 192.241,114.362 192.241,114.612 L192.241,117.503 L193.897,116.878 L193.897,113.722 C193.897,113.472 194.02,113.347 194.264,113.347 C194.509,113.347 194.632,113.472 194.632,113.722 L194.632,116.628 L195.288,116.393 C195.298,116.383 195.34,116.378 195.413,116.378 C195.507,116.378 195.606,116.414 195.71,116.487 C195.793,116.57 195.835,116.664 195.835,116.768 L195.835,117.972 C195.835,118.159 195.741,118.284 195.553,118.347 L194.632,118.659 L194.632,121.862 L195.288,121.643 C195.298,121.633 195.34,121.628 195.413,121.628 C195.507,121.628 195.606,121.669 195.71,121.753 C195.793,121.826 195.835,121.914 195.835,122.018 L195.835,123.237 C195.835,123.404 195.741,123.518 195.553,123.581 L194.632,123.94 L194.632,127.081 M193.897,118.956 L192.241,119.534 L192.241,122.737 L193.897,122.159 L193.897,118.956 "/>
<path class="Accidental" d="M191.193,85.8465 C191.359,85.7527 191.528,85.7059 191.7,85.7059 C191.872,85.7059 192.042,85.7527 192.208,85.8465 L192.146,89.5027 L194.286,89.1121 L194.364,89.1121 C194.594,89.1121 194.708,89.2215 194.708,89.4402 L194.849,100.846 C194.682,100.94 194.513,100.987 194.341,100.987 C194.169,100.987 194,100.94 193.833,100.846 L193.896,97.1902 L191.786,97.5809 L191.708,97.5809 C191.469,97.5809 191.349,97.4715 191.349,97.2527 L191.193,85.8465 M193.911,95.2371 L193.974,91.0965 L192.13,91.4559 L192.068,95.5965 L193.911,95.2371 "/>
<path class="Accidental" d="M154.053,83.3465 C154.219,83.2527 154.389,83.2059 154.56,83.2059 C154.732,83.2059 154.902,83.2527 155.068,83.3465 L155.006,87.0027 L157.146,86.6121 L157.224,86.6121 C157.454,86.6121 157.568,86.7215 157.568,86.9402 L157.709,98.3465 C157.542,98.4402 157.373,98.4871 157.201,98.4871 C157.029,98.4871 156.86,98.4402 156.693,98.3465 L156.756,94.6902 L154.646,95.0809 L154.568,95.0809 C154.329,95.0809 154.209,94.9715 154.209,94.7527 L154.053,83.3465 M156.771,92.7371 L156.834,88.5965 L154.99,88.9559 L154.928,93.0965 L156.771,92.7371 "/>
<polyline class="LedgerLine" stroke="#000000" stroke-width="0.80" stroke-linecap="square" stroke-linejoin="bevel" points="226.426,88.3465 236.009,88.3465"/>
<polyline class="LedgerLine" stroke="#000000" stroke-width="0.80" stroke-linecap="square" stroke-linejoin="bevel" points="195.427,88.3465 205.01,88.3465"/>
<polyline class="LedgerLine" stroke="#000000" stroke-width="0.80" stroke-linecap="square" stroke-linejoin="bevel" points="195.427,93.3465 205.01,93.3465"/>
<polyline class="LedgerLine" stroke="#000000" stroke-width="0.80" stroke-linecap="square" stroke-linejoin="bevel" points="179.886,88.3465 189.469,88.3465"/>
<polyline class="LedgerLine" stroke="#000000" stroke-width="0.80" stroke-linecap="square" stroke-linejoin="bevel" points="179.886,93.3465 189.469,93.3465"/>
<polyline class="LedgerLine" stroke="#000000" stroke-width="0.80" stroke-linecap="square" stroke-linejoin="bevel" points="158.287,88.3465 167.87,88.3465"/>
<polyline class="LedgerLine" stroke="#000000" stroke-width="0.80" stroke-linecap="square" stroke-linejoin="bevel" points="158.287,93.3465 167.87,93.3465"/>
<polyline class="LedgerLine" stroke="#000000" stroke-width="0.80" stroke-linecap="square" stroke-linejoin="bevel" points="143.776,88.3465 153.359,88.3465"/>
<polyline class="LedgerLine" stroke="#000000" stroke-width="0.80" stroke-linecap="square" stroke-linejoin="bevel" points="143.776,93.3465 153.359,93.3465"/>
<polyline class="LedgerLine" stroke="#000000" stroke-width="0.80" stroke-linecap="square" stroke-linejoin="bevel" points="122.177,140.847 131.759,140.847"/>
<polyline class="LedgerLine" stroke="#000000" stroke-width="0.80" stroke-linecap="square" stroke-linejoin="bevel" points="122.177,145.847 131.759,145.847"/>
<polyline class="LedgerLine" stroke="#000000" stroke-width="0.80" stroke-linecap="square" stroke-linejoin="bevel" points="122.177,88.3465 131.759,88.3465"/>
<polyline class="LedgerLine" stroke="#000000" stroke-width="0.80" stroke-linecap="square" stroke-linejoin="bevel" points="122.177,93.3465 131.759,93.3465"/>
<polyline class="LedgerLine" stroke="#000000" stroke-width="0.80" stroke-linecap="square" stroke-linejoin="bevel" points="122.177,98.3465 131.759,98.3465"/>
<polyline class="LedgerLine" stroke="#000000" stroke-width="0.80" stroke-linecap="square" stroke-linejoin="bevel" points="91.1777,140.847 100.761,140.847"/>
<polyline class="LedgerLine" stroke="#000000" stroke-width="0.80" stroke-linecap="square" stroke-linejoin="bevel" points="91.1777,145.847 100.761,145.847"/>
<polyline class="LedgerLine" stroke="#000000" stroke-width="0.80" stroke-linecap="square" stroke-linejoin="bevel" points="91.1777,88.3465 100.761,88.3465"/>
<polyline class="LedgerLine" stroke="#000000" stroke-width="0.80" stroke-linecap="square" stroke-linejoin="bevel" points="91.1777,93.3465 100.761,93.3465"/>
<polyline class="LedgerLine" stroke="#000000" stroke-width="0.80" stroke-linecap="square" stroke-linejoin="bevel" points="91.1777,98.3465 100.761,98.3465"/>
<polyline class="Stem" stroke="#000000" stroke-width="0.65" stroke-linecap="round" stroke-linejoin="bevel" points="228.251,119.286 228.251,135.847"/>
<polyline class="Stem" stroke="#000000" stroke-width="0.65" stroke-linecap="round" stroke-linejoin="bevel" points="234.184,89.9074 234.184,68.3465"/>
<polyline class="Stem" stroke="#000000" stroke-width="0.65" stroke-linecap="round" stroke-linejoin="bevel" points="197.252,121.786 197.252,137.722"/>
<polyline class="Stem" stroke="#000000" stroke-width="0.65" stroke-linecap="round" stroke-linejoin="bevel" points="203.185,92.4074 203.185,65.8465"/>
<polyline class="Stem" stroke="#000000" stroke-width="0.65" stroke-linecap="round" stroke-linejoin="bevel" points="187.644,127.407 187.644,104.596"/>
<polyline class="Stem" stroke="#000000" stroke-width="0.65" stroke-linecap="round" stroke-linejoin="bevel" points="187.644,94.9074 187.644,64.5965"/>
<polyline class="Stem" stroke="#000000" stroke-width="0.65" stroke-linecap="round" stroke-linejoin="bevel" points="166.045,124.907 166.045,104.596"/>
<polyline class="Stem" stroke="#000000" stroke-width="0.65" stroke-linecap="round" stroke-linejoin="bevel" points="166.045,94.9074 166.045,66.4679"/>
<polyline class="Stem" stroke="#000000" stroke-width="0.65" stroke-linecap="round" stroke-linejoin="bevel" points="151.534,122.407 151.534,104.596"/>
<polyline class="Stem" stroke="#000000" stroke-width="0.65" stroke-linecap="round" stroke-linejoin="bevel" points="151.534,94.9074 151.534,67.7251"/>
<polyline class="Stem" stroke="#000000" stroke-width="0.65" stroke-linecap="round" stroke-linejoin="bevel" points="129.934,144.907 129.934,104.596"/>
<polyline class="Stem" stroke="#000000" stroke-width="0.65" stroke-linecap="round" stroke-linejoin="bevel" points="129.934,99.9074 129.934,69.5965"/>
<polyline class="Stem" stroke="#000000" stroke-width="0.65" stroke-linecap="round" stroke-linejoin="bevel" points="98.9356,144.907 98.9356,112.097"/>
<polyline class="Stem" stroke="#000000" stroke-width="0.65" stroke-linecap="round" stroke-linejoin="bevel" points="98.9356,99.9074 98.9356,70.8465"/>
<path class="Note" d="M232.316,115.597 C232.941,115.597 233.473,115.758 233.91,116.081 C234.306,116.435 234.504,116.878 234.504,117.409 C234.504,118.305 234.046,119.143 233.129,119.925 C232.191,120.706 231.186,121.097 230.113,121.097 C229.488,121.097 228.962,120.935 228.535,120.612 C228.129,120.258 227.926,119.815 227.926,119.284 C227.926,118.388 228.395,117.55 229.332,116.768 C230.249,115.987 231.244,115.597 232.316,115.597"/>
<path class="Note" d="M232.316,83.0965 C232.941,83.0965 233.473,83.2579 233.91,83.5809 C234.306,83.935 234.504,84.3777 234.504,84.909 C234.504,85.8048 234.046,86.6434 233.129,87.4246 C232.191,88.2059 231.186,88.5965 230.113,88.5965 C229.488,88.5965 228.962,88.435 228.535,88.1121 C228.129,87.7579 227.926,87.3152 227.926,86.784 C227.926,85.8882 228.395,85.0496 229.332,84.2684 C230.249,83.4871 231.244,83.0965 232.316,83.0965"/>
<path class="Note" d="M232.316,88.0965 C232.941,88.0965 233.473,88.2579 233.91,88.5809 C234.306,88.935 234.504,89.3777 234.504,89.909 C234.504,90.8048 234.046,91.6434 233.129,92.4246 C232.191,93.2059 231.186,93.5965 230.113,93.5965 C229.488,93.5965 228.962,93.435 228.535,93.1121 C228.129,92.7579 227.926,92.3152 227.926,91.784 C227.926,90.8882 228.395,90.0496 229.332,89.2684 C230.249,88.4871 231.244,88.0965 232.316,88.0965"/>
<path class="Note" d="M201.318,118.097 C201.943,118.097 202.474,118.258 202.911,118.581 C203.307,118.935 203.505,119.378 203.505,119.909 C203.505,120.805 203.047,121.643 202.13,122.425 C201.193,123.206 200.187,123.597 199.114,123.597 C198.489,123.597 197.963,123.435 197.536,123.112 C197.13,122.758 196.927,122.315 196.927,121.784 C196.927,120.888 197.396,120.05 198.333,119.268 C199.25,118.487 200.245,118.097 201.318,118.097"/>
<path class="Note" d="M201.318,80.5965 C201.943,80.5965 202.474,80.7579 202.911,81.0809 C203.307,81.435 203.505,81.8777 203.505,82.409 C203.505,83.3048 203.047,84.1434 202.13,84.9246 C201.193,85.7059 200.187,86.0965 199.114,86.0965 C198.489,86.0965 197.963,85.935 197.536,85.6121 C197.13,85.2579 196.927,84.8152 196.927,84.284 C196.927,83.3882 197.396,82.5496 198.333,81.7684 C199.25,80.9871 200.245,80.5965 201.318,80.5965"/>
<path class="Note" d="M201.318,85.5965 C201.943,85.5965 202.474,85.7579 202.911,86.0809 C203.307,86.435 203.505,86.8777 203.505,87.409 C203.505,88.3048 203.047,89.1434 202.13,89.9246 C201.193,90.7059 200.187,91.0965 199.114,91.0965 C198.489,91.0965 197.963,90.935 197.536,90.6121 C197.13,90.2579 196.927,89.8152 196.927,89.284 C196.927,88.3882 197.396,87.5496 198.333,86.7684 C199.25,85.9871 200.245,85.5965 201.318,85.5965"/>
<path class="Note" d="M201.318,90.5965 C201.943,90.5965 202.474,90.7579 202.911,91.0809 C203.307,91.435 203.505,91.8777 203.505,92.409 C203.505,93.3048 203.047,94.1434 202.13,94.9246 C201.193,95.7059 200.187,96.0965 199.114,96.0965 C198.489,96.0965 197.963,95.935 197.536,95.6121 C197.13,95.2579 196.927,94.8152 196.927,94.284 C196.927,93.3882 197.396,92.5496 198.333,91.7684 C199.25,90.9871 200.245,90.5965 201.318,90.5965"/>
<path class="Note" d="M185.777,125.597 C186.402,125.597 186.933,125.758 187.371,126.081 C187.767,126.435 187.964,126.878 187.964,127.409 C187.964,128.305 187.506,129.143 186.589,129.925 C185.652,130.706 184.647,131.097 183.574,131.097 C182.949,131.097 182.423,130.935 181.996,130.612 C181.589,130.258 181.386,129.815 181.386,129.284 C181.386,128.388 181.855,127.55 182.793,126.768 C183.709,125.987 184.704,125.597 185.777,125.597"/>
<path class="Note" d="M185.777,80.5965 C186.402,80.5965 186.933,80.7579 187.371,81.0809 C187.767,81.435 187.964,81.8777 187.964,82.409 C187.964,83.3048 187.506,84.1434 186.589,84.9246 C185.652,85.7059 184.647,86.0965 183.574,86.0965 C182.949,86.0965 182.423,85.935 181.996,85.6121 C181.589,85.2579 181.386,84.8152 181.386,84.284 C181.386,83.3882 181.855,82.5496 182.793,81.7684 C183.709,80.9871 184.704,80.5965 185.777,80.5965"/>
<path class="Note" d="M185.777,85.5965 C186.402,85.5965 186.933,85.7579 187.371,86.0809 C187.767,86.435 187.964,86.8777 187.964,87.409 C187.964,88.3048 187.506,89.1434 186.589,89.9246 C185.652,90.7059 184.647,91.0965 183.574,91.0965 C182.949,91.0965 182.423,90.935 181.996,90.6121 C181.589,90.2579 181.386,89.8152 181.386,89.284 C181.386,88.3882 181.855,87.5496 182.793,86.7684 C183.709,85.9871 184.704,85.5965 185.777,85.5965"/>
<path class="Note" d="M185.777,93.0965 C186.402,93.0965 186.933,93.258 187.371,93.5809 C187.767,93.935 187.964,94.3777 187.964,94.909 C187.964,95.8048 187.506,96.6434 186.589,97.4246 C185.652,98.2059 184.647,98.5965 183.574,98.5965 C182.949,98.5965 182.423,98.435 181.996,98.1121 C181.589,97.758 181.386,97.3152 181.386,96.784 C181.386,95.8882 181.855,95.0496 182.793,94.2684 C183.709,93.4871 184.704,93.0965 185.777,93.0965"/>
<path class="Note" d="M164.178,123.097 C164.803,123.097 165.334,123.258 165.771,123.581 C166.167,123.935 166.365,124.378 166.365,124.909 C166.365,125.805 165.907,126.643 164.99,127.425 C164.053,128.206 163.047,128.597 161.974,128.597 C161.349,128.597 160.823,128.435 160.396,128.112 C159.99,127.758 159.787,127.315 159.787,126.784 C159.787,125.888 160.256,125.05 161.193,124.268 C162.11,123.487 163.105,123.097 164.178,123.097"/>
<path class="Note" d="M164.178,83.0965 C164.803,83.0965 165.334,83.2579 165.771,83.5809 C166.167,83.935 166.365,84.3777 166.365,84.909 C166.365,85.8048 165.907,86.6434 164.99,87.4246 C164.053,88.2059 163.047,88.5965 161.974,88.5965 C161.349,88.5965 160.823,88.435 160.396,88.1121 C159.99,87.7579 159.787,87.3152 159.787,86.784 C159.787,85.8882 160.256,85.0496 161.193,84.2684 C162.11,83.4871 163.105,83.0965 164.178,83.0965"/>
<path class="Note" d="M164.178,88.0965 C164.803,88.0965 165.334,88.2579 165.771,88.5809 C166.167,88.935 166.365,89.3777 166.365,89.909 C166.365,90.8048 165.907,91.6434 164.99,92.4246 C164.053,93.2059 163.047,93.5965 161.974,93.5965 C161.349,93.5965 160.823,93.435 160.396,93.1121 C159.99,92.7579 159.787,92.3152 159.787,91.784 C159.787,90.8882 160.256,90.0496 161.193,89.2684 C162.11,88.4871 163.105,88.0965 164.178,88.0965"/>
<path class="Note" d="M164.178,93.0965 C164.803,93.0965 165.334,93.258 165.771,93.5809 C166.167,93.935 166.365,94.3777 166.365,94.909 C166.365,95.8048 165.907,96.6434 164.99,97.4246 C164.053,98.2059 163.047,98.5965 161.974,98.5965 C161.349,98.5965 160.823,98.435 160.396,98.1121 C159.99,97.758 159.787,97.3152 159.787,96.784 C159.787,95.8882 160.256,95.0496 161.193,94.2684 C162.11,93.4871 163.105,93.0965 164.178,93.0965"/>
<path class="Note" d="M149.667,120.597 C150.292,120.597 150.823,120.758 151.26,121.081 C151.656,121.435 151.854,121.878 151.854,122.409 C151.854,123.305 151.396,124.143 150.479,124.925 C149.542,125.706 148.536,126.097 147.464,126.097 C146.839,126.097 146.312,125.935 145.885,125.612 C145.479,125.258 145.276,124.815 145.276,124.284 C145.276,123.388 145.745,122.55 146.682,121.768 C147.599,120.987 148.594,120.597 149.667,120.597"/>
<path class="Note" d="M149.667,85.5965 C150.292,85.5965 150.823,85.7579 151.26,86.0809 C151.656,86.435 151.854,86.8777 151.854,87.409 C151.854,88.3048 151.396,89.1434 150.479,89.9246 C149.542,90.7059 148.536,91.0965 147.464,91.0965 C146.839,91.0965 146.312,90.935 145.885,90.6121 C145.479,90.2579 145.276,89.8152 145.276,89.284 C145.276,88.3882 145.745,87.5496 146.682,86.7684 C147.599,85.9871 148.594,85.5965 149.667,85.5965"/>
<path class="Note" d="M149.667,93.0965 C150.292,93.0965 150.823,93.258 151.26,93.5809 C151.656,93.935 151.854,94.3777 151.854,94.909 C151.854,95.8048 151.396,96.6434 150.479,97.4246 C149.542,98.2059 148.536,98.5965 147.464,98.5965 C146.839,98.5965 146.312,98.435 145.885,98.1121 C145.479,97.758 145.276,97.3152 145.276,96.784 C145.276,95.8882 145.745,95.0496 146.682,94.2684 C147.599,93.4871 148.594,93.0965 149.667,93.0965"/>
<path class="Note" d="M128.067,125.597 C128.692,125.597 129.224,125.758 129.661,126.081 C130.057,126.435 130.255,126.878 130.255,127.409 C130.255,128.305 129.796,129.143 128.88,129.925 C127.942,130.706 126.937,131.097 125.864,131.097 C125.239,131.097 124.713,130.935 124.286,130.612 C123.88,130.258 123.677,129.815 123.677,129.284 C123.677,128.388 124.145,127.55 125.083,126.768 C126,125.987 126.994,125.597 128.067,125.597"/>
<path class="Note" d="M128.067,133.097 C128.692,133.097 129.224,133.258 129.661,133.581 C130.057,133.935 130.255,134.378 130.255,134.909 C130.255,135.805 129.796,136.643 128.88,137.425 C127.942,138.206 126.937,138.597 125.864,138.597 C125.239,138.597 124.713,138.435 124.286,138.112 C123.88,137.758 123.677,137.315 123.677,136.784 C123.677,135.888 124.145,135.05 125.083,134.268 C126,133.487 126.994,133.097 128.067,133.097"/>
<path class="Note" d="M128.067,138.097 C128.692,138.097 129.224,138.258 129.661,138.581 C130.057,138.935 130.255,139.378 130.255,139.909 C130.255,140.805 129.796,141.643 128.88,142.425 C127.942,143.206 126.937,143.597 125.864,143.597 C125.239,143.597 124.713,143.435 124.286,143.112 C123.88,142.758 123.677,142.315 123.677,141.784 C123.677,140.888 124.145,140.05 125.083,139.268 C126,138.487 126.994,138.097 128.067,138.097"/>
<path class="Note" d="M128.067,143.097 C128.692,143.097 129.224,143.258 129.661,143.581 C130.057,143.935 130.255,144.378 130.255,144.909 C130.255,145.805 129.796,146.643 128.88,147.425 C127.942,148.206 126.937,148.597 125.864,148.597 C125.239,148.597 124.713,148.435 124.286,148.112 C123.88,147.758 123.677,147.315 123.677,146.784 C123.677,145.888 124.145,145.05 125.083,144.268 C126,143.487 126.994,143.097 128.067,143.097"/>
<path class="Note" d="M128.067,85.5965 C128.692,85.5965 129.224,85.7579 129.661,86.0809 C130.057,86.435 130.255,86.8777 130.255,87.409 C130.255,88.3048 129.796,89.1434 128.88,89.9246 C127.942,90.7059 126.937,91.0965 125.864,91.0965 C125.239,91.0965 124.713,90.935 124.286,90.6121 C123.88,90.2579 123.677,89.8152 123.677,89.284 C123.677,88.3882 124.145,87.5496 125.083,86.7684 C126,85.9871 126.994,85.5965 128.067,85.5965"/>
<path class="Note" d="M128.067,93.0965 C128.692,93.0965 129.224,93.258 129.661,93.5809 C130.057,93.935 130.255,94.3777 130.255,94.909 C130.255,95.8048 129.796,96.6434 128.88,97.4246 C127.942,98.2059 126.937,98.5965 125.864,98.5965 C125.239,98.5965 124.713,98.435 124.286,98.1121 C123.88,97.758 123.677,97.3152 123.677,96.784 C123.677,95.8882 124.145,95.0496 125.083,94.2684 C126,93.4871 126.994,93.0965 128.067,93.0965"/>
<path class="Note" d="M128.067,98.0965 C128.692,98.0965 129.224,98.258 129.661,98.5809 C130.057,98.935 130.255,99.3777 130.255,99.909 C130.255,100.805 129.796,101.643 128.88,102.425 C127.942,103.206 126.937,103.596 125.864,103.596 C125.239,103.596 124.713,103.435 124.286,103.112 C123.88,102.758 123.677,102.315 123.677,101.784 C123.677,100.888 124.145,100.05 125.083,99.2684 C126,98.4871 126.994,98.0965 128.067,98.0965"/>
<path class="Note" d="M97.0684,125.597 C97.6934,125.597 98.2246,125.758 98.6621,126.081 C99.0579,126.435 99.2559,126.878 99.2559,127.409 C99.2559,128.305 98.7975,129.143 97.8809,129.925 C96.9434,130.706 95.9382,131.097 94.8652,131.097 C94.2402,131.097 93.7142,130.935 93.2871,130.612 C92.8809,130.258 92.6777,129.815 92.6777,129.284 C92.6777,128.388 93.1465,127.55 94.084,126.768 C95.0007,125.987 95.9954,125.597 97.0684,125.597"/>
<path class="Note" d="M97.0684,133.097 C97.6934,133.097 98.2246,133.258 98.6621,133.581 C99.0579,133.935 99.2559,134.378 99.2559,134.909 C99.2559,135.805 98.7975,136.643 97.8809,137.425 C96.9434,138.206 95.9382,138.597 94.8652,138.597 C94.2402,138.597 93.7142,138.435 93.2871,138.112 C92.8809,137.758 92.6777,137.315 92.6777,136.784 C92.6777,135.888 93.1465,135.05 94.084,134.268 C95.0007,133.487 95.9954,133.097 97.0684,133.097"/>
<path class="Note" d="M97.0684,138.097 C97.6934,138.097 98.2246,138.258 98.6621,138.581 C99.0579,138.935 99.2559,139.378 99.2559,139.909 C99.2559,140.805 98.7975,141.643 97.8809,142.425 C96.9434,143.206 95.9382,143.597 94.8652,143.597 C94.2402,143.597 93.7142,143.435 93.2871,143.112 C92.8809,142.758 92.6777,142.315 92.6777,141.784 C92.6777,140.888 93.1465,140.05 94.084,139.268 C95.0007,138.487 95.9954,138.097 97.0684,138.097"/>
<path class="Note" d="M97.0684,143.097 C97.6934,143.097 98.2246,143.258 98.6621,143.581 C99.0579,143.935 99.2559,144.378 99.2559,144.909 C99.2559,145.805 98.7975,146.643 97.8809,147.425 C96.9434,148.206 95.9382,148.597 94.8652,148.597 C94.2402,148.597 93.7142,148.435 93.2871,148.112 C92.8809,147.758 92.6777,147.315 92.6777,146.784 C92.6777,145.888 93.1465,145.05 94.084,144.268 C95.0007,143.487 95.9954,143.097 97.0684,143.097"/>
<path class="Note" d="M97.0684,85.5965 C97.6934,85.5965 98.2246,85.7579 98.6621,86.0809 C99.0579,86.435 99.2559,86.8777 99.2559,87.409 C99.2559,88.3048 98.7975,89.1434 97.8809,89.9246 C96.9434,90.7059 95.9382,91.0965 94.8652,91.0965 C94.2402,91.0965 93.7142,90.935 93.2871,90.6121 C92.8809,90.2579 92.6777,89.8152 92.6777,89.284 C92.6777,88.3882 93.1465,87.5496 94.084,86.7684 C95.0007,85.9871 95.9954,85.5965 97.0684,85.5965"/>
<path class="Note" d="M97.0684,93.0965 C97.6934,93.0965 98.2246,93.258 98.6621,93.5809 C99.0579,93.935 99.2559,94.3777 99.2559,94.909 C99.2559,95.8048 98.7975,96.6434 97.8809,97.4246 C96.9434,98.2059 95.9382,98.5965 94.8652,98.5965 C94.2402,98.5965 93.7142,98.435 93.2871,98.1121 C92.8809,97.758 92.6777,97.3152 92.6777,96.784 C92.6777,95.8882 93.1465,95.0496 94.084,94.2684 C95.0007,93.4871 95.9954,93.0965 97.0684,93.0965"/>
<path class="Note" d="M97.0684,98.0965 C97.6934,98.0965 98.2246,98.258 98.6621,98.5809 C99.0579,98.935 99.2559,99.3777 99.2559,99.909 C99.2559,100.805 98.7975,101.643 97.8809,102.425 C96.9434,103.206 95.9382,103.596 94.8652,103.596 C94.2402,103.596 93.7142,103.435 93.2871,103.112 C92.8809,102.758 92.6777,102.315 92.6777,101.784 C92.6777,100.888 93.1465,100.05 94.084,99.2684 C95.0007,98.4871 95.9954,98.0965 97.0684,98.0965"/>
<path class="Clef" d="M54.2761,119.065 C54.0834,118.867 53.9871,118.625 53.9871,118.339 C53.9871,118.052 54.0834,117.813 54.2761,117.62 C54.4689,117.427 54.7084,117.331 54.9949,117.331 C55.2814,117.331 55.5235,117.427 55.7215,117.62 C55.9194,117.813 56.0183,118.052 56.0183,118.339 C56.0183,118.625 55.9194,118.867 55.7215,119.065 C55.5235,119.263 55.2814,119.362 54.9949,119.362 C54.7084,119.362 54.4689,119.263 54.2761,119.065 M54.2761,124.073 C54.0834,123.88 53.9871,123.641 53.9871,123.354 C53.9871,123.068 54.0834,122.826 54.2761,122.628 C54.4689,122.43 54.7084,122.331 54.9949,122.331 C55.2814,122.331 55.5235,122.43 55.7215,122.628 C55.9194,122.826 56.0183,123.068 56.0183,123.354 C56.0183,123.641 55.9194,123.88 55.7215,124.073 C55.5235,124.266 55.2814,124.362 54.9949,124.362 C54.7084,124.362 54.4689,124.266 54.2761,124.073 M47.5027,115.597 C49.2319,115.597 50.6485,116.029 51.7527,116.893 C52.8256,117.81 53.3621,119.05 53.3621,120.612 C53.3621,121.664 53.1538,122.628 52.7371,123.503 C52.3413,124.419 51.8256,125.227 51.1902,125.925 C50.534,126.643 49.7475,127.32 48.8308,127.956 C47.9246,128.581 46.9975,129.143 46.0496,129.643 C44.1225,130.612 43.0548,131.097 42.8465,131.097 C42.6798,131.097 42.5965,131.013 42.5965,130.847 C42.5965,130.784 42.6225,130.727 42.6746,130.675 C43.3413,130.279 44.1538,129.779 45.1121,129.175 C45.7371,128.768 46.4663,128.206 47.2996,127.487 C48.1121,126.81 48.7371,126.175 49.1746,125.581 C49.6329,124.987 50.0496,124.258 50.4246,123.393 C50.7475,122.518 50.909,121.654 50.909,120.8 C50.909,119.539 50.5965,118.44 49.9715,117.503 C49.3465,116.565 48.5235,116.097 47.5027,116.097 C46.7735,116.097 46.1485,116.331 45.6277,116.8 C45.0652,117.279 44.659,117.883 44.409,118.612 C44.659,118.508 44.8881,118.456 45.0965,118.456 C45.6381,118.456 46.1069,118.654 46.5027,119.05 C46.8881,119.466 47.0808,119.94 47.0808,120.472 C47.0808,121.034 46.8933,121.539 46.5183,121.987 C46.1121,122.383 45.6381,122.581 45.0965,122.581 C44.5131,122.581 43.9871,122.383 43.5183,121.987 C43.0704,121.539 42.8465,121.034 42.8465,120.472 C42.8465,119.128 43.3048,117.982 44.2215,117.034 C45.1173,116.076 46.211,115.597 47.5027,115.597"/>
<path class="Clef" d="M50.1902,73.2215 C50.1902,73.2215 50.2319,73.2215 50.3152,73.2215 C50.3673,73.2111 50.409,73.2059 50.4402,73.2059 C51.8985,73.2059 53.0965,73.7215 54.034,74.7527 C54.9715,75.7631 55.4402,76.9454 55.4402,78.2996 C55.4402,79.9871 54.7475,81.3569 53.3621,82.409 C52.9975,82.7006 52.5183,82.935 51.9246,83.1121 C51.9975,83.9559 52.034,84.6381 52.034,85.159 C52.034,85.2631 52.0183,85.6434 51.9871,86.2996 C51.935,87.5079 51.5183,88.5548 50.7371,89.4402 C49.9871,90.3152 49.0496,90.7527 47.9246,90.7527 C46.8725,90.7527 45.9767,90.3829 45.2371,89.6434 C44.4871,88.8829 44.1121,87.9715 44.1121,86.909 C44.1121,86.3465 44.3308,85.8673 44.7683,85.4715 C45.2058,85.0861 45.7163,84.8934 46.2996,84.8934 C46.8204,84.8934 47.2579,85.0965 47.6121,85.5027 C47.9767,85.8777 48.159,86.3465 48.159,86.909 C48.159,87.409 47.9767,87.8413 47.6121,88.2059 C47.2475,88.5704 46.81,88.7527 46.2996,88.7527 C46.0913,88.7527 45.8933,88.7163 45.7058,88.6434 C46.2788,89.4871 47.0392,89.909 47.9871,89.909 C48.8829,89.909 49.6173,89.5444 50.1902,88.8152 C50.7944,88.0652 51.1225,87.185 51.1746,86.1746 C51.1954,85.5496 51.2058,85.1954 51.2058,85.1121 C51.2058,84.3829 51.1798,83.784 51.1277,83.3152 C50.4819,83.4194 49.9038,83.4715 49.3933,83.4715 C47.5808,83.4715 46.0392,82.7527 44.7683,81.3152 C43.5183,79.8673 42.8933,78.1486 42.8933,76.159 C42.8933,75.7423 42.9298,75.3204 43.0027,74.8934 C43.086,74.5392 43.185,74.1538 43.2996,73.7371 C43.3621,73.4975 43.5392,73.1173 43.8308,72.5965 C43.935,72.4402 44.0522,72.2449 44.1824,72.0105 C44.3126,71.7762 44.4038,71.6225 44.4558,71.5496 C44.5808,71.2892 44.8308,70.935 45.2058,70.4871 C45.31,70.3725 45.4194,70.2449 45.534,70.1043 C45.6485,69.9637 45.7449,69.8465 45.823,69.7527 C45.9011,69.659 45.9584,69.5861 45.9949,69.534 C46.0314,69.4819 46.3256,69.1381 46.8777,68.5027 C47.0027,68.3673 47.1277,68.2267 47.2527,68.0809 C47.3777,67.935 47.4793,67.8178 47.5574,67.7293 C47.6355,67.6408 47.6954,67.5809 47.7371,67.5496 C47.2683,65.9975 46.9715,64.7579 46.8465,63.8309 C46.7631,63.0913 46.7215,62.0756 46.7215,60.784 C46.7215,59.6486 46.9819,58.5861 47.5027,57.5965 C48.0027,56.5756 48.711,55.7371 49.6277,55.0809 C49.6902,55.0392 49.7527,55.0184 49.8152,55.0184 C49.909,55.0184 49.9767,55.0392 50.0183,55.0809 C50.7163,55.9246 51.3204,57.0236 51.8308,58.3777 C52.3517,59.7319 52.6121,60.9663 52.6121,62.0809 C52.6121,63.3309 52.3152,64.5027 51.7215,65.5965 C51.0444,66.7527 50.1694,67.9506 49.0965,69.1902 C49.3673,70.0444 49.7319,71.3881 50.1902,73.2215 M51.8465,82.3152 C52.5235,82.0652 53.0548,81.6434 53.4402,81.0496 C53.8569,80.4767 54.0652,79.8309 54.0652,79.1121 C54.0652,78.185 53.7527,77.3621 53.1277,76.6434 C52.4819,75.9038 51.6642,75.4871 50.6746,75.3934 C51.2371,78.1434 51.6277,80.4506 51.8465,82.3152 M44.2996,77.7996 C44.2996,79.0913 44.8204,80.2267 45.8621,81.2059 C46.9246,82.1538 48.1225,82.6277 49.4558,82.6277 C49.9975,82.6277 50.5288,82.5861 51.0496,82.5027 C50.8413,80.5236 50.4298,78.1538 49.8152,75.3934 C49.0756,75.4767 48.4871,75.7371 48.0496,76.1746 C47.6121,76.6329 47.3933,77.1486 47.3933,77.7215 C47.3933,78.7111 47.9246,79.5131 48.9871,80.1277 C49.0704,80.2215 49.1121,80.3204 49.1121,80.4246 C49.1121,80.5288 49.0704,80.6225 48.9871,80.7059 C48.9038,80.7996 48.8048,80.8465 48.6902,80.8465 C48.6798,80.8465 48.6225,80.8361 48.5183,80.8152 C47.7683,80.409 47.1954,79.8881 46.7996,79.2527 C46.4142,78.5652 46.2215,77.8777 46.2215,77.1902 C46.2215,76.2944 46.5027,75.4819 47.0652,74.7527 C47.6485,74.0236 48.409,73.5548 49.3465,73.3465 C48.9819,71.8881 48.685,70.7475 48.4558,69.9246 C48.2475,70.1642 47.9975,70.448 47.7058,70.7762 C47.4142,71.1043 47.2423,71.3048 47.1902,71.3777 C46.7215,71.9819 46.3621,72.4559 46.1121,72.7996 C45.6642,73.4142 45.336,73.9402 45.1277,74.3777 C44.909,74.8777 44.7163,75.4194 44.5496,76.0027 C44.3829,76.5652 44.2996,77.1642 44.2996,77.7996 M50.8152,57.9402 C49.836,58.4194 49.0704,59.1069 48.5183,60.0027 C47.9454,60.9298 47.659,61.9246 47.659,62.9871 C47.659,63.9246 47.8933,65.1902 48.3621,66.784 C49.2996,65.6486 50.0027,64.6017 50.4715,63.6434 C50.961,62.6225 51.2058,61.56 51.2058,60.4559 C51.2058,59.6225 51.0756,58.784 50.8152,57.9402"/>
<path class="KeySig" d="M69.2621,132.518 L69.2621,134.065 C69.2621,134.617 69.2881,135.055 69.3402,135.378 C69.7673,135.013 70.0746,134.742 70.2621,134.565 C70.4704,134.357 70.6788,134.068 70.8871,133.698 C71.0954,133.328 71.1996,132.961 71.1996,132.597 C71.1996,132.232 71.1215,131.919 70.9652,131.659 C70.809,131.399 70.6006,131.268 70.3402,131.268 C70.0277,131.268 69.7673,131.388 69.559,131.628 C69.3611,131.888 69.2621,132.185 69.2621,132.518 M68.434,136.097 L68.184,124.206 C68.3715,124.102 68.5564,124.05 68.7387,124.05 C68.921,124.05 69.1006,124.102 69.2777,124.206 L69.1215,131.097 C69.6527,130.638 70.2673,130.409 70.9652,130.409 C71.4652,130.409 71.8845,130.617 72.223,131.034 C72.5616,131.451 72.7309,131.93 72.7309,132.472 C72.7309,132.805 72.6215,133.164 72.4027,133.55 C72.1944,133.893 71.9756,134.164 71.7465,134.362 C71.6111,134.466 71.2777,134.727 70.7465,135.143 C70.5902,135.258 70.4053,135.393 70.1918,135.55 C69.9782,135.706 69.8454,135.805 69.7934,135.847 C69.6996,135.899 69.6111,136.003 69.5277,136.159 C69.4444,136.294 69.3402,136.404 69.2152,136.487 C69.1319,136.57 69.0251,136.612 68.8949,136.612 C68.7647,136.612 68.6579,136.565 68.5746,136.472 C68.4809,136.378 68.434,136.253 68.434,136.097"/>
<path class="KeySig" d="M64.2621,122.518 L64.2621,124.065 C64.2621,124.617 64.2881,125.055 64.3402,125.378 C64.7673,125.013 65.0746,124.742 65.2621,124.565 C65.4704,124.357 65.6788,124.068 65.8871,123.698 C66.0954,123.328 66.1996,122.961 66.1996,122.597 C66.1996,122.232 66.1215,121.919 65.9652,121.659 C65.809,121.399 65.6006,121.268 65.3402,121.268 C65.0277,121.268 64.7673,121.388 64.559,121.628 C64.3611,121.888 64.2621,122.185 64.2621,122.518 M63.434,126.097 L63.184,114.206 C63.3715,114.102 63.5564,114.05 63.7387,114.05 C63.921,114.05 64.1006,114.102 64.2777,114.206 L64.1215,121.097 C64.6527,120.638 65.2673,120.409 65.9652,120.409 C66.4652,120.409 66.8845,120.617 67.223,121.034 C67.5616,121.451 67.7308,121.93 67.7308,122.472 C67.7308,122.805 67.6215,123.164 67.4027,123.55 C67.1944,123.893 66.9756,124.164 66.7465,124.362 C66.6111,124.466 66.2777,124.727 65.7465,125.143 C65.5902,125.258 65.4053,125.393 65.1918,125.55 C64.9782,125.706 64.8454,125.805 64.7933,125.847 C64.6996,125.899 64.6111,126.003 64.5277,126.159 C64.4444,126.294 64.3402,126.404 64.2152,126.487 C64.1319,126.57 64.0251,126.612 63.8949,126.612 C63.7647,126.612 63.6579,126.565 63.5746,126.472 C63.4808,126.378 63.434,126.253 63.434,126.097"/>
<path class="KeySig" d="M59.2621,130.018 L59.2621,131.565 C59.2621,132.117 59.2881,132.555 59.3402,132.878 C59.7673,132.513 60.0746,132.242 60.2621,132.065 C60.4704,131.857 60.6788,131.568 60.8871,131.198 C61.0954,130.828 61.1996,130.461 61.1996,130.097 C61.1996,129.732 61.1215,129.419 60.9652,129.159 C60.809,128.899 60.6006,128.768 60.3402,128.768 C60.0277,128.768 59.7673,128.888 59.559,129.128 C59.3611,129.388 59.2621,129.685 59.2621,130.018 M58.434,133.597 L58.184,121.706 C58.3715,121.602 58.5564,121.55 58.7387,121.55 C58.9209,121.55 59.1006,121.602 59.2777,121.706 L59.1215,128.597 C59.6527,128.138 60.2673,127.909 60.9652,127.909 C61.4652,127.909 61.8845,128.117 62.223,128.534 C62.5616,128.951 62.7308,129.43 62.7308,129.972 C62.7308,130.305 62.6215,130.664 62.4027,131.05 C62.1944,131.393 61.9756,131.664 61.7465,131.862 C61.6111,131.966 61.2777,132.227 60.7465,132.643 C60.5902,132.758 60.4053,132.893 60.1918,133.05 C59.9782,133.206 59.8454,133.305 59.7933,133.347 C59.6996,133.399 59.6111,133.503 59.5277,133.659 C59.4444,133.794 59.3402,133.904 59.2152,133.987 C59.1319,134.07 59.0251,134.112 58.8949,134.112 C58.7647,134.112 58.6579,134.065 58.5746,133.972 C58.4808,133.878 58.434,133.753 58.434,133.597"/>
<path class="KeySig" d="M69.2621,75.0184 L69.2621,76.5652 C69.2621,77.1173 69.2881,77.5548 69.3402,77.8777 C69.7673,77.5131 70.0746,77.2423 70.2621,77.0652 C70.4704,76.8569 70.6788,76.5678 70.8871,76.198 C71.0954,75.8283 71.1996,75.4611 71.1996,75.0965 C71.1996,74.7319 71.1215,74.4194 70.9652,74.159 C70.809,73.8986 70.6006,73.7684 70.3402,73.7684 C70.0277,73.7684 69.7673,73.8881 69.559,74.1277 C69.3611,74.3881 69.2621,74.685 69.2621,75.0184 M68.434,78.5965 L68.184,66.7059 C68.3715,66.6017 68.5564,66.5496 68.7387,66.5496 C68.921,66.5496 69.1006,66.6017 69.2777,66.7059 L69.1215,73.5965 C69.6527,73.1381 70.2673,72.909 70.9652,72.909 C71.4652,72.909 71.8845,73.1173 72.223,73.534 C72.5616,73.9506 72.7309,74.4298 72.7309,74.9715 C72.7309,75.3048 72.6215,75.6642 72.4027,76.0496 C72.1944,76.3934 71.9756,76.6642 71.7465,76.8621 C71.6111,76.9663 71.2777,77.2267 70.7465,77.6434 C70.5902,77.7579 70.4053,77.8934 70.1918,78.0496 C69.9782,78.2059 69.8454,78.3048 69.7934,78.3465 C69.6996,78.3986 69.6111,78.5027 69.5277,78.659 C69.4444,78.7944 69.3402,78.9038 69.2152,78.9871 C69.1319,79.0704 69.0251,79.1121 68.8949,79.1121 C68.7647,79.1121 68.6579,79.0652 68.5746,78.9715 C68.4809,78.8777 68.434,78.7527 68.434,78.5965"/>
<path class="KeySig" d="M64.2621,65.0183 L64.2621,66.5652 C64.2621,67.1173 64.2881,67.5548 64.3402,67.8777 C64.7673,67.5131 65.0746,67.2423 65.2621,67.0652 C65.4704,66.8569 65.6788,66.5678 65.8871,66.198 C66.0954,65.8282 66.1996,65.4611 66.1996,65.0965 C66.1996,64.7319 66.1215,64.4194 65.9652,64.159 C65.809,63.8986 65.6006,63.7683 65.3402,63.7683 C65.0277,63.7683 64.7673,63.8881 64.559,64.1277 C64.3611,64.3881 64.2621,64.685 64.2621,65.0183 M63.434,68.5965 L63.184,56.7058 C63.3715,56.6017 63.5564,56.5496 63.7387,56.5496 C63.921,56.5496 64.1006,56.6017 64.2777,56.7058 L64.1215,63.5965 C64.6527,63.1381 65.2673,62.909 65.9652,62.909 C66.4652,62.909 66.8845,63.1173 67.223,63.534 C67.5616,63.9506 67.7308,64.4298 67.7308,64.9715 C67.7308,65.3048 67.6215,65.6642 67.4027,66.0496 C67.1944,66.3933 66.9756,66.6642 66.7465,66.8621 C66.6111,66.9663 66.2777,67.2267 65.7465,67.6433 C65.5902,67.7579 65.4053,67.8933 65.1918,68.0496 C64.9782,68.2058 64.8454,68.3048 64.7933,68.3465 C64.6996,68.3986 64.6111,68.5027 64.5277,68.659 C64.4444,68.7944 64.3402,68.9038 64.2152,68.9871 C64.1319,69.0704 64.0251,69.1121 63.8949,69.1121 C63.7647,69.1121 63.6579,69.0652 63.5746,68.9715 C63.4808,68.8777 63.434,68.7527 63.434,68.5965"/>
<path class="KeySig" d="M59.2621,72.5184 L59.2621,74.0652 C59.2621,74.6173 59.2881,75.0548 59.3402,75.3777 C59.7673,75.0131 60.0746,74.7423 60.2621,74.5652 C60.4704,74.3569 60.6788,74.0678 60.8871,73.698 C61.0954,73.3282 61.1996,72.9611 61.1996,72.5965 C61.1996,72.2319 61.1215,71.9194 60.9652,71.659 C60.809,71.3986 60.6006,71.2684 60.3402,71.2684 C60.0277,71.2684 59.7673,71.3881 59.559,71.6277 C59.3611,71.8881 59.2621,72.185 59.2621,72.5184 M58.434,76.0965 L58.184,64.2059 C58.3715,64.1017 58.5564,64.0496 58.7387,64.0496 C58.9209,64.0496 59.1006,64.1017 59.2777,64.2059 L59.1215,71.0965 C59.6527,70.6381 60.2673,70.409 60.9652,70.409 C61.4652,70.409 61.8845,70.6173 62.223,71.034 C62.5616,71.4506 62.7308,71.9298 62.7308,72.4715 C62.7308,72.8048 62.6215,73.1642 62.4027,73.5496 C62.1944,73.8934 61.9756,74.1642 61.7465,74.3621 C61.6111,74.4663 61.2777,74.7267 60.7465,75.1434 C60.5902,75.2579 60.4053,75.3934 60.1918,75.5496 C59.9782,75.7059 59.8454,75.8048 59.7933,75.8465 C59.6996,75.8986 59.6111,76.0027 59.5277,76.159 C59.4444,76.2944 59.3402,76.4038 59.2152,76.4871 C59.1319,76.5704 59.0251,76.6121 58.8949,76.6121 C58.7647,76.6121 58.6579,76.5652 58.5746,76.4715 C58.4808,76.3777 58.434,76.2527 58.434,76.0965"/>
<path class="TimeSig" d="M82.4621,125.3 C82.1288,125.3 81.7902,125.169 81.4465,124.909 C81.1236,124.659 80.9621,124.294 80.9621,123.815 C80.9621,123.409 81.0975,123.05 81.3684,122.737 C81.6288,122.425 81.9725,122.268 82.3996,122.268 C82.5454,122.268 82.6392,122.274 82.6809,122.284 C82.0767,121.524 81.2746,121.128 80.2746,121.097 C79.5246,121.097 78.9517,121.31 78.5559,121.737 C78.4309,121.914 78.3163,122.19 78.2121,122.565 C78.1079,122.94 78.0559,123.279 78.0559,123.581 C78.0246,123.789 78.009,124.206 78.009,124.831 L78.009,126.862 C78.009,127.487 78.0246,127.909 78.0559,128.128 C78.1079,128.982 78.2746,129.591 78.5559,129.956 C78.9621,130.393 79.535,130.612 80.2746,130.612 C81.0559,130.612 81.7225,130.326 82.2746,129.753 C82.8267,129.19 83.2173,128.466 83.4465,127.581 C83.4777,127.456 83.5559,127.393 83.6809,127.393 C83.8475,127.393 83.9309,127.472 83.9309,127.628 C83.9309,127.722 83.8892,127.899 83.8059,128.159 C83.6288,128.742 83.2746,129.357 82.7434,130.003 C82.0975,130.732 81.2746,131.097 80.2746,131.097 C79.6913,131.097 79.0923,131.013 78.4777,130.847 C77.884,130.638 77.3579,130.352 76.8996,129.987 C76.3892,129.581 75.9934,129.034 75.7121,128.347 C75.4204,127.597 75.2746,126.763 75.2746,125.847 C75.2746,124.253 75.7069,122.987 76.5715,122.05 C77.4048,121.091 78.6392,120.612 80.2746,120.612 C81.3475,120.612 82.1965,120.977 82.8215,121.706 C83.4673,122.435 83.7902,123.159 83.7902,123.878 C83.7902,124.294 83.66,124.633 83.3996,124.893 C83.1704,125.164 82.8579,125.3 82.4621,125.3"/>
<path class="TimeSig" d="M82.4621,72.7996 C82.1288,72.7996 81.7902,72.6694 81.4465,72.409 C81.1236,72.159 80.9621,71.7944 80.9621,71.3152 C80.9621,70.909 81.0975,70.5496 81.3684,70.2371 C81.6288,69.9246 81.9725,69.7684 82.3996,69.7684 C82.5454,69.7684 82.6392,69.7736 82.6809,69.784 C82.0767,69.0236 81.2746,68.6277 80.2746,68.5965 C79.5246,68.5965 78.9517,68.81 78.5559,69.2371 C78.4309,69.4142 78.3163,69.6902 78.2121,70.0652 C78.1079,70.4402 78.0559,70.7788 78.0559,71.0809 C78.0246,71.2892 78.009,71.7059 78.009,72.3309 L78.009,74.3621 C78.009,74.9871 78.0246,75.409 78.0559,75.6277 C78.1079,76.4819 78.2746,77.0913 78.5559,77.4559 C78.9621,77.8934 79.535,78.1121 80.2746,78.1121 C81.0559,78.1121 81.7225,77.8256 82.2746,77.2527 C82.8267,76.6902 83.2173,75.9663 83.4465,75.0809 C83.4777,74.9559 83.5559,74.8934 83.6809,74.8934 C83.8475,74.8934 83.9309,74.9715 83.9309,75.1277 C83.9309,75.2215 83.8892,75.3986 83.8059,75.659 C83.6288,76.2423 83.2746,76.8569 82.7434,77.5027 C82.0975,78.2319 81.2746,78.5965 80.2746,78.5965 C79.6913,78.5965 79.0923,78.5131 78.4777,78.3465 C77.884,78.1381 77.3579,77.8517 76.8996,77.4871 C76.3892,77.0809 75.9934,76.534 75.7121,75.8465 C75.4204,75.0965 75.2746,74.2631 75.2746,73.3465 C75.2746,71.7527 75.7069,70.4871 76.5715,69.5496 C77.4048,68.5913 78.6392,68.1121 80.2746,68.1121 C81.3475,68.1121 82.1965,68.4767 82.8215,69.2059 C83.4673,69.935 83.7902,70.659 83.7902,71.3777 C83.7902,71.7944 83.66,72.1329 83.3996,72.3934 C83.1704,72.6642 82.8579,72.7996 82.4621,72.7996"/>
<path class="Rest" d="M519.682,123.972 L512.572,123.972 C512.437,123.972 512.369,123.909 512.369,123.784 L512.369,121.05 C512.369,120.914 512.437,120.847 512.572,120.847 L519.682,120.847 C519.807,120.847 519.869,120.914 519.869,121.05 L519.869,123.784 C519.869,123.909 519.807,123.972 519.682,123.972"/>
<path class="Rest" d="M519.682,71.4715 L512.572,71.4715 C512.437,71.4715 512.369,71.409 512.369,71.284 L512.369,68.5496 C512.369,68.4142 512.437,68.3465 512.572,68.3465 L519.682,68.3465 C519.807,68.3465 519.869,68.4142 519.869,68.5496 L519.869,71.284 C519.869,71.409 519.807,71.4715 519.682,71.4715"/>
<path class="Rest" d="M427.533,123.972 L420.423,123.972 C420.288,123.972 420.22,123.909 420.22,123.784 L420.22,121.05 C420.22,120.914 420.288,120.847 420.423,120.847 L427.533,120.847 C427.658,120.847 427.72,120.914 427.72,121.05 L427.72,123.784 C427.72,123.909 427.658,123.972 427.533,123.972"/>
<path class="Rest" d="M427.533,71.4715 L420.423,71.4715 C420.288,71.4715 420.22,71.409 420.22,71.284 L420.22,68.5496 C420.22,68.4142 420.288,68.3465 420.423,68.3465 L427.533,68.3465 C427.658,68.3465 427.72,68.4142 427.72,68.5496 L427.72,71.284 C427.72,71.409 427.658,71.4715 427.533,71.4715"/>
<path class="Rest" d="M335.384,123.972 L328.275,123.972 C328.139,123.972 328.072,123.909 328.072,123.784 L328.072,121.05 C328.072,120.914 328.139,120.847 328.275,120.847 L335.384,120.847 C335.509,120.847 335.572,120.914 335.572,121.05 L335.572,123.784 C335.572,123.909 335.509,123.972 335.384,123.972"/>
<path class="Rest" d="M335.384,71.4715 L328.275,71.4715 C328.139,71.4715 328.072,71.409 328.072,71.284 L328.072,68.5496 C328.072,68.4142 328.139,68.3465 328.275,68.3465 L335.384,68.3465 C335.509,68.3465 335.572,68.4142 335.572,68.5496 L335.572,71.284 C335.572,71.409 335.509,71.4715 335.384,71.4715"/>
<path class="Rest" d="M276.975,116.737 C277.35,116.737 277.637,116.841 277.835,117.05 C278.022,117.289 278.126,117.513 278.147,117.722 C278.168,117.919 278.23,118.138 278.335,118.378 C278.449,118.586 278.6,118.69 278.788,118.69 C278.902,118.69 279.09,118.534 279.35,118.222 C279.59,117.888 279.746,117.628 279.819,117.44 C279.881,117.315 279.975,117.253 280.1,117.253 L280.116,117.253 C280.241,117.263 280.329,117.326 280.381,117.44 L276.069,135.847 C275.944,135.982 275.756,136.05 275.506,136.05 C275.288,136.05 275.105,135.982 274.96,135.847 L276.678,129.3 C275.855,129.612 275.137,129.768 274.522,129.768 C274.064,129.768 273.652,129.623 273.288,129.331 C272.954,129.029 272.788,128.649 272.788,128.19 C272.788,127.784 272.928,127.445 273.21,127.175 C273.491,126.893 273.824,126.753 274.21,126.753 C274.595,126.753 274.881,126.857 275.069,127.065 C275.277,127.284 275.392,127.503 275.413,127.722 C275.444,127.982 275.506,128.206 275.6,128.393 C275.694,128.602 275.845,128.706 276.053,128.706 C276.199,128.706 276.418,128.524 276.71,128.159 C276.991,127.794 277.163,127.508 277.225,127.3 L278.006,124.3 C277.131,124.612 276.423,124.768 275.881,124.768 C275.413,124.768 275.006,124.617 274.663,124.315 C274.309,124.034 274.131,123.659 274.131,123.19 C274.131,122.784 274.277,122.445 274.569,122.175 C274.85,121.883 275.194,121.737 275.6,121.737 C275.996,121.737 276.277,121.841 276.444,122.05 C276.621,122.279 276.73,122.503 276.772,122.722 C276.814,122.982 276.881,123.201 276.975,123.378 C277.059,123.586 277.199,123.69 277.397,123.69 C277.543,123.69 277.751,123.508 278.022,123.143 C278.293,122.82 278.465,122.555 278.538,122.347 L279.335,119.315 C278.512,119.617 277.819,119.768 277.256,119.768 C276.809,119.768 276.402,119.617 276.038,119.315 C275.694,119.024 275.522,118.649 275.522,118.19 C275.522,117.784 275.668,117.445 275.96,117.175 C276.23,116.883 276.569,116.737 276.975,116.737"/>
<path class="Rest" d="M254.782,121.737 C255.178,121.737 255.459,121.841 255.626,122.05 C255.803,122.279 255.912,122.503 255.954,122.722 C255.964,122.94 256.032,123.159 256.157,123.378 C256.23,123.586 256.371,123.69 256.579,123.69 C256.714,123.69 256.912,123.534 257.173,123.222 C257.464,122.857 257.652,122.597 257.735,122.44 C257.798,122.315 257.886,122.253 258.001,122.253 C258.001,122.253 258.011,122.253 258.032,122.253 C258.147,122.263 258.23,122.326 258.282,122.44 L254.704,135.847 C254.579,135.982 254.399,136.05 254.165,136.05 C253.931,136.05 253.746,135.982 253.61,135.847 L255.626,129.3 C254.751,129.612 254.043,129.768 253.501,129.768 C253.032,129.768 252.626,129.623 252.282,129.331 C251.928,129.039 251.751,128.659 251.751,128.19 C251.751,127.784 251.886,127.445 252.157,127.175 C252.449,126.893 252.798,126.753 253.204,126.753 C253.589,126.753 253.871,126.857 254.048,127.065 C254.235,127.284 254.35,127.503 254.392,127.722 C254.433,127.982 254.501,128.206 254.595,128.393 C254.678,128.602 254.819,128.706 255.017,128.706 C255.173,128.706 255.397,128.524 255.688,128.159 C255.98,127.815 256.162,127.544 256.235,127.347 L257.142,124.315 C256.308,124.617 255.615,124.768 255.063,124.768 C254.595,124.768 254.188,124.617 253.845,124.315 C253.49,124.034 253.313,123.659 253.313,123.19 C253.313,122.784 253.459,122.445 253.751,122.175 C254.032,121.883 254.376,121.737 254.782,121.737"/>
<path class="Rest" d="M260.884,124.151 C260.66,123.927 260.548,123.659 260.548,123.347 C260.548,123.034 260.66,122.766 260.884,122.542 C261.108,122.318 261.376,122.206 261.688,122.206 C262.001,122.206 262.267,122.318 262.485,122.542 C262.704,122.766 262.813,123.034 262.813,123.347 C262.813,123.659 262.704,123.927 262.485,124.151 C262.267,124.375 262.001,124.487 261.688,124.487 C261.376,124.487 261.108,124.375 260.884,124.151"/>
<path class="Rest" d="M253.688,69.2371 C254.063,69.2371 254.35,69.3413 254.548,69.5496 C254.746,69.7892 254.85,70.0131 254.86,70.2215 C254.892,70.4194 254.959,70.6381 255.063,70.8777 C255.178,71.0861 255.324,71.1902 255.501,71.1902 C255.647,71.1902 255.865,71.0288 256.157,70.7059 C256.418,70.4246 256.605,70.1694 256.72,69.9402 C256.782,69.8152 256.871,69.7527 256.985,69.7527 L257.017,69.7527 C257.142,69.7631 257.23,69.8256 257.282,69.9402 L254.829,78.3465 C254.694,78.4819 254.509,78.5496 254.274,78.5496 C254.04,78.5496 253.86,78.4819 253.735,78.3465 L256.079,71.8152 C255.246,72.1173 254.543,72.2684 253.97,72.2684 C253.501,72.2684 253.095,72.1173 252.751,71.8152 C252.397,71.534 252.22,71.159 252.22,70.6902 C252.22,70.284 252.365,69.9454 252.657,69.6746 C252.938,69.3829 253.282,69.2371 253.688,69.2371"/>
<path class="Beam" fill-rule="evenodd" d="M129.609,103.346 L187.969,103.346 L187.969,105.846 L129.609,105.846 L129.609,103.346 "/>
<path class="Beam" fill-rule="evenodd" d="M129.609,107.096 L187.969,107.096 L187.969,109.597 L129.609,109.597 L129.609,107.096 "/>
<path class="Beam" fill-rule="evenodd" d="M151.859,110.847 L145.259,110.847 L145.259,113.347 L151.859,113.347 L151.859,110.847 "/>
<path class="Beam" fill-rule="evenodd" d="M187.969,110.847 L181.369,110.847 L181.369,113.347 L187.969,113.347 L187.969,110.847 "/>
<path class="Beam" fill-rule="evenodd" d="M129.609,68.4028 L187.969,63.3465 L187.969,65.8465 L129.609,70.9028 L129.609,68.4028 "/>
<path class="Beam" fill-rule="evenodd" d="M129.609,72.1528 L187.969,67.0965 L187.969,69.5965 L129.609,74.6528 L129.609,72.1528 "/>
<path class="Beam" fill-rule="evenodd" d="M151.859,73.9751 L145.259,74.5469 L145.259,77.0469 L151.859,76.4751 L151.859,73.9751 "/>
<path class="Beam" fill-rule="evenodd" d="M187.969,70.8465 L181.369,71.4183 L181.369,73.9183 L187.969,73.3465 L187.969,70.8465 "/>
<path class="Hook" d="M232.473,121.378 C232.775,121.378 233.098,121.862 233.441,122.831 C233.764,123.8 233.926,124.722 233.926,125.597 C233.926,126.336 233.744,127.07 233.379,127.8 C233.004,128.581 232.556,129.258 232.035,129.831 L230.426,131.628 C229.936,132.201 229.494,132.862 229.098,133.612 C228.733,134.341 228.551,135.086 228.551,135.847 L227.926,135.847 L227.926,130.847 L228.551,130.847 C228.905,130.628 229.426,130.274 230.113,129.784 C230.426,129.555 230.895,129.164 231.52,128.612 C232.03,128.143 232.415,127.664 232.676,127.175 C232.947,126.654 233.082,126.128 233.082,125.597 C233.082,124.357 232.723,123.123 232.004,121.893 C232.004,121.893 232.004,121.867 232.004,121.815 C232.004,121.701 232.046,121.607 232.129,121.534 C232.233,121.43 232.348,121.378 232.473,121.378"/>
<path class="Hook" d="M233.859,73.3465 L233.859,68.3465 L234.484,68.3465 C234.484,69.0861 234.629,69.8309 234.921,70.5809 C235.234,71.3829 235.577,72.0861 235.952,72.6902 C236.223,73.1173 236.635,73.7736 237.187,74.659 C237.603,75.3361 237.955,76.0444 238.241,76.784 C238.528,77.5236 238.671,78.2684 238.671,79.0184 C238.671,80.3725 238.39,81.7527 237.827,83.159 C237.734,83.3152 237.609,83.3934 237.452,83.3934 C237.327,83.3934 237.213,83.3413 237.109,83.2371 C237.025,83.1538 236.984,83.0548 236.984,82.9402 L236.984,82.8465 C237.546,81.5548 237.827,80.2788 237.827,79.0184 C237.827,78.3621 237.629,77.659 237.234,76.909 C236.848,76.1381 236.452,75.5236 236.046,75.0652 C235.588,74.534 235.067,73.9611 234.484,73.3465 L233.859,73.3465 "/>
<path class="NoteDot" d="M168.456,124.151 C168.232,123.927 168.12,123.659 168.12,123.347 C168.12,123.034 168.232,122.766 168.456,122.542 C168.68,122.318 168.948,122.206 169.26,122.206 C169.573,122.206 169.839,122.318 170.057,122.542 C170.276,122.766 170.385,123.034 170.385,123.347 C170.385,123.659 170.276,123.927 170.057,124.151 C169.839,124.375 169.573,124.487 169.26,124.487 C168.948,124.487 168.68,124.375 168.456,124.151"/>
<path class="NoteDot" d="M168.456,86.6512 C168.232,86.4272 168.12,86.159 168.12,85.8465 C168.12,85.534 168.232,85.2658 168.456,85.0418 C168.68,84.8178 168.948,84.7059 169.26,84.7059 C169.573,84.7059 169.839,84.8178 170.057,85.0418 C170.276,85.2658 170.385,85.534 170.385,85.8465 C170.385,86.159 170.276,86.4272 170.057,86.6512 C169.839,86.8751 169.573,86.9871 169.26,86.9871 C168.948,86.9871 168.68,86.8751 168.456,86.6512"/>
<path class="NoteDot" d="M168.456,91.6512 C168.232,91.4272 168.12,91.159 168.12,90.8465 C168.12,90.534 168.232,90.2658 168.456,90.0418 C168.68,89.8178 168.948,89.7059 169.26,89.7059 C169.573,89.7059 169.839,89.8178 170.057,90.0418 C170.276,90.2658 170.385,90.534 170.385,90.8465 C170.385,91.159 170.276,91.4272 170.057,91.6512 C169.839,91.8751 169.573,91.9871 169.26,91.9871 C168.948,91.9871 168.68,91.8751 168.456,91.6512"/>
<path class="NoteDot" d="M168.456,96.6512 C168.232,96.4272 168.12,96.159 168.12,95.8465 C168.12,95.534 168.232,95.2658 168.456,95.0418 C168.68,94.8178 168.948,94.7059 169.26,94.7059 C169.573,94.7059 169.839,94.8178 170.057,95.0418 C170.276,95.2658 170.385,95.534 170.385,95.8465 C170.385,96.159 170.276,96.4272 170.057,96.6512 C169.839,96.8751 169.573,96.9871 169.26,96.9871 C168.948,96.9871 168.68,96.8751 168.456,96.6512"/>
<path class="NoteDot" d="M132.345,129.151 C132.121,128.927 132.009,128.659 132.009,128.347 C132.009,128.034 132.121,127.766 132.345,127.542 C132.569,127.318 132.838,127.206 133.15,127.206 C133.463,127.206 133.728,127.318 133.947,127.542 C134.166,127.766 134.275,128.034 134.275,128.347 C134.275,128.659 134.166,128.927 133.947,129.151 C133.728,129.375 133.463,129.487 133.15,129.487 C132.838,129.487 132.569,129.375 132.345,129.151"/>
<path class="NoteDot" d="M132.345,134.151 C132.121,133.927 132.009,133.659 132.009,133.347 C132.009,133.034 132.121,132.766 132.345,132.542 C132.569,132.318 132.838,132.206 133.15,132.206 C133.463,132.206 133.728,132.318 133.947,132.542 C134.166,132.766 134.275,133.034 134.275,133.347 C134.275,133.659 134.166,133.927 133.947,134.151 C133.728,134.375 133.463,134.487 133.15,134.487 C132.838,134.487 132.569,134.375 132.345,134.151"/>
<path class="NoteDot" d="M132.345,139.151 C132.121,138.927 132.009,138.659 132.009,138.347 C132.009,138.034 132.121,137.766 132.345,137.542 C132.569,137.318 132.838,137.206 133.15,137.206 C133.463,137.206 133.728,137.318 133.947,137.542 C134.166,137.766 134.275,138.034 134.275,138.347 C134.275,138.659 134.166,138.927 133.947,139.151 C133.728,139.375 133.463,139.487 133.15,139.487 C132.838,139.487 132.569,139.375 132.345,139.151"/>
<path class="NoteDot" d="M132.345,144.151 C132.121,143.927 132.009,143.659 132.009,143.347 C132.009,143.034 132.121,142.766 132.345,142.542 C132.569,142.318 132.838,142.206 133.15,142.206 C133.463,142.206 133.728,142.318 133.947,142.542 C134.166,142.766 134.275,143.034 134.275,143.347 C134.275,143.659 134.166,143.927 133.947,144.151 C133.728,144.375 133.463,144.487 133.15,144.487 C132.838,144.487 132.569,144.375 132.345,144.151"/>
<path class="NoteDot" d="M132.345,86.6512 C132.121,86.4272 132.009,86.159 132.009,85.8465 C132.009,85.534 132.121,85.2658 132.345,85.0418 C132.569,84.8178 132.838,84.7059 133.15,84.7059 C133.463,84.7059 133.728,84.8178 133.947,85.0418 C134.166,85.2658 134.275,85.534 134.275,85.8465 C134.275,86.159 134.166,86.4272 133.947,86.6512 C133.728,86.8751 133.463,86.9871 133.15,86.9871 C132.838,86.9871 132.569,86.8751 132.345,86.6512"/>
<path class="NoteDot" d="M132.345,96.6512 C132.121,96.4272 132.009,96.159 132.009,95.8465 C132.009,95.534 132.121,95.2658 132.345,95.0418 C132.569,94.8178 132.838,94.7059 133.15,94.7059 C133.463,94.7059 133.728,94.8178 133.947,95.0418 C134.166,95.2658 134.275,95.534 134.275,95.8465 C134.275,96.159 134.166,96.4272 133.947,96.6512 C133.728,96.8751 133.463,96.9871 133.15,96.9871 C132.838,96.9871 132.569,96.8751 132.345,96.6512"/>
<path class="NoteDot" d="M132.345,101.651 C132.121,101.427 132.009,101.159 132.009,100.846 C132.009,100.534 132.121,100.266 132.345,100.042 C132.569,99.8178 132.838,99.7059 133.15,99.7059 C133.463,99.7059 133.728,99.8178 133.947,100.042 C134.166,100.266 134.275,100.534 134.275,100.846 C134.275,101.159 134.166,101.427 133.947,101.651 C133.728,101.875 133.463,101.987 133.15,101.987 C132.838,101.987 132.569,101.875 132.345,101.651"/>
<path class="Bracket" fill-rule="evenodd" d="M36.755,89.1402 C36.755,83.2993 32.7322,77.6218 32.7322,72.0261 C32.7322,69.2077 33.8293,66.4711 37.2122,64.0204 C37.2579,63.9898 37.2807,63.9387 37.2807,63.9081 C37.2807,63.8162 37.0293,63.7345 36.8465,63.7345 C36.755,63.7345 36.595,63.7447 36.4807,63.8162 C32.0922,66.9613 30.6293,70.5965 30.6293,74.2725 C30.6293,80.1951 34.9265,85.9134 34.9265,91.5909 C34.9265,94.4092 33.8293,97.0641 30.4465,99.5148 L30.4465,99.5965 L30.4465,99.6782 C33.8293,102.129 34.9265,104.784 34.9265,107.602 C34.9265,113.28 30.6293,118.998 30.6293,124.92 C30.6293,128.597 32.0922,132.232 36.4807,135.377 C36.595,135.448 36.755,135.458 36.8465,135.458 C37.0293,135.458 37.2807,135.377 37.2807,135.285 C37.2807,135.254 37.2579,135.203 37.2122,135.173 C33.8293,132.722 32.7322,129.985 32.7322,127.167 C32.7322,121.571 36.755,115.894 36.755,110.053 C36.755,106.336 35.2922,102.782 30.995,99.5965 C35.2922,96.4106 36.755,92.8571 36.755,89.1402"/>
</svg>
