<?xml version="1.0" encoding="UTF-8" standalone="no"?>
<svg width="595.44px" height="841.68px" viewBox="0 0 595.44 841.68"
 xmlns="http://www.w3.org/2000/svg" xmlns:xlink="http://www.w3.org/1999/xlink" version="1.2" baseProfile="tiny">
<title>02</title>
<desc>Generated by MuseScore 2.3.2</desc>
<polyline class="StaffLines" fill="none" stroke="#000000" stroke-width="0.40" stroke-linejoin="bevel" points="38.8465,63.3465 567.094,63.3465"/>
<polyline class="StaffLines" fill="none" stroke="#000000" stroke-width="0.40" stroke-linejoin="bevel" points="38.8465,68.3465 567.094,68.3465"/>
<polyline class="StaffLines" fill="none" stroke="#000000" stroke-width="0.40" stroke-linejoin="bevel" points="38.8465,73.3465 567.094,73.3465"/>
<polyline class="StaffLines" fill="none" stroke="#000000" stroke-width="0.40" stroke-linejoin="bevel" points="38.8465,78.3465 567.094,78.3465"/>
<polyline class="StaffLines" fill="none" stroke="#000000" stroke-width="0.40" stroke-linejoin="bevel" points="38.8465,83.3465 567.094,83.3465"/>
<polyline class="StaffLines" fill="none" stroke="#000000" stroke-width="0.40" stroke-linejoin="bevel" points="38.8465,115.847 567.094,115.847"/>
<polyline class="StaffLines" fill="none" stroke="#000000" stroke-width="0.40" stroke-linejoin="bevel" points="38.8465,120.847 567.094,120.847"/>
<polyline class="StaffLines" fill="none" stroke="#000000" stroke-width="0.40" stroke-linejoin="bevel" points="38.8465,125.847 567.094,125.847"/>
<polyline class="StaffLines" fill="none" stroke="#000000" stroke-width="0.40" stroke-linejoin="bevel" points="38.8465,130.847 567.094,130.847"/>
<polyline class="StaffLines" fill="none" stroke="#000000" stroke-width="0.40" stroke-linejoin="bevel" points="38.8465,135.847 567.094,135.847"/>
<path class="SlurSegment" stroke="#000000" stroke-width="0.35" stroke-linecap="round" stroke-linejoin="round" fill-rule="evenodd" d="M202.42,48.3504 C214.067,38.7676 237.361,38.7676 249.008,48.3504 C237.361,39.5676 214.067,39.5676 202.42,48.3504"/>
<path class="SlurSegment" stroke="#000000" stroke-width="0.35" stroke-linecap="round" stroke-linejoin="round" fill-rule="evenodd" d="M128.745,43.8465 C141.473,34.2482 176.972,37.2482 187.909,48.8465 C176.904,38.0454 141.406,35.0454 128.745,43.8465"/>
<path class="SlurSegment" stroke="#000000" stroke-width="0.35" stroke-linecap="round" stroke-linejoin="round" fill-rule="evenodd" d="M101.229,43.8716 C103.549,41.4716 110.51,41.4716 112.831,43.8716 C110.51,42.2716 103.549,42.2716 101.229,43.8716"/>
<path class="SlurSegment" stroke="#000000" stroke-width="0.35" stroke-linecap="round" stroke-linejoin="round" fill-rule="evenodd" d="M101.229,65.3213 C103.549,66.9213 110.51,66.9213 112.831,65.3213 C110.51,67.7213 103.549,67.7213 101.229,65.3213"/>
<polyline class="BarLine" stroke="#000000" stroke-width="0.80" stroke-linejoin="bevel" points="39.2465,63.3465 39.2465,135.847"/>
<polyline class="BarLine" stroke="#000000" stroke-width="0.80" stroke-linejoin="bevel" points="562.194,63.3465 562.194,135.847"/>
<polyline class="BarLine" stroke="#000000" stroke-width="2.50" stroke-linejoin="bevel" points="565.844,63.3465 565.844,135.847"/>
<polyline class="BarLine" stroke="#000000" stroke-width="0.80" stroke-linejoin="bevel" points="483.188,63.3465 483.188,135.847"/>
<polyline class="BarLine" stroke="#000000" stroke-width="0.80" stroke-linejoin="bevel" points="404.182,63.3465 404.182,135.847"/>
<polyline class="BarLine" stroke="#000000" stroke-width="0.80" stroke-linejoin="bevel" points="325.176,63.3465 325.176,135.847"/>
<path class="Accidental" d="M193.394,48.3465 C193.561,48.2527 193.73,48.2058 193.902,48.2058 C194.074,48.2058 194.243,48.2527 194.41,48.3465 L194.347,52.0027 L196.488,51.6121 L196.566,51.6121 C196.795,51.6121 196.91,51.7215 196.91,51.9402 L197.05,63.3465 C196.884,63.4402 196.714,63.4871 196.543,63.4871 C196.371,63.4871 196.201,63.4402 196.035,63.3465 L196.097,59.6902 L193.988,60.0808 L193.91,60.0808 C193.67,60.0808 193.55,59.9715 193.55,59.7527 L193.394,48.3465 M196.113,57.7371 L196.175,53.5965 L194.332,53.9558 L194.269,58.0965 L196.113,57.7371 "/>
<path class="Accidental" d="M89.1215,123.347 C89.2882,123.253 89.4574,123.206 89.6293,123.206 C89.8012,123.206 89.9704,123.253 90.1371,123.347 L90.0746,127.003 L92.2152,126.612 L92.2934,126.612 C92.5225,126.612 92.6371,126.722 92.6371,126.94 L92.7777,138.347 C92.6111,138.44 92.4418,138.487 92.2699,138.487 C92.0981,138.487 91.9288,138.44 91.7621,138.347 L91.8246,134.69 L89.7152,135.081 L89.6371,135.081 C89.3975,135.081 89.2777,134.972 89.2777,134.753 L89.1215,123.347 M91.8402,132.737 L91.9027,128.597 L90.059,128.956 L89.9965,133.097 L91.8402,132.737 "/>
<polyline class="LedgerLine" stroke="#000000" stroke-width="0.80" stroke-linecap="square" stroke-linejoin="bevel" points="259.746,53.3465 269.329,53.3465"/>
<polyline class="LedgerLine" stroke="#000000" stroke-width="0.80" stroke-linecap="square" stroke-linejoin="bevel" points="259.746,58.3465 269.329,58.3465"/>
<polyline class="LedgerLine" stroke="#000000" stroke-width="0.80" stroke-linecap="square" stroke-linejoin="bevel" points="244.217,58.3465 253.8,58.3465"/>
<polyline class="LedgerLine" stroke="#000000" stroke-width="0.80" stroke-linecap="square" stroke-linejoin="bevel" points="228.687,58.3465 238.27,58.3465"/>
<polyline class="LedgerLine" stroke="#000000" stroke-width="0.80" stroke-linecap="square" stroke-linejoin="bevel" points="213.158,58.3465 222.741,58.3465"/>
<polyline class="LedgerLine" stroke="#000000" stroke-width="0.80" stroke-linecap="square" stroke-linejoin="bevel" points="197.628,58.3465 207.211,58.3465"/>
<polyline class="LedgerLine" stroke="#000000" stroke-width="0.80" stroke-linecap="square" stroke-linejoin="bevel" points="183.118,53.3465 192.7,53.3465"/>
<polyline class="LedgerLine" stroke="#000000" stroke-width="0.80" stroke-linecap="square" stroke-linejoin="bevel" points="183.118,58.3465 192.7,58.3465"/>
<polyline class="LedgerLine" stroke="#000000" stroke-width="0.80" stroke-linecap="square" stroke-linejoin="bevel" points="171.285,53.3465 180.868,53.3465"/>
<polyline class="LedgerLine" stroke="#000000" stroke-width="0.80" stroke-linecap="square" stroke-linejoin="bevel" points="171.285,58.3465 180.868,58.3465"/>
<polyline class="LedgerLine" stroke="#000000" stroke-width="0.80" stroke-linecap="square" stroke-linejoin="bevel" points="159.452,48.3465 169.035,48.3465"/>
<polyline class="LedgerLine" stroke="#000000" stroke-width="0.80" stroke-linecap="square" stroke-linejoin="bevel" points="159.452,53.3465 169.035,53.3465"/>
<polyline class="LedgerLine" stroke="#000000" stroke-width="0.80" stroke-linecap="square" stroke-linejoin="bevel" points="159.452,58.3465 169.035,58.3465"/>
<polyline class="LedgerLine" stroke="#000000" stroke-width="0.80" stroke-linecap="square" stroke-linejoin="bevel" points="147.619,48.3465 157.202,48.3465"/>
<polyline class="LedgerLine" stroke="#000000" stroke-width="0.80" stroke-linecap="square" stroke-linejoin="bevel" points="147.619,53.3465 157.202,53.3465"/>
<polyline class="LedgerLine" stroke="#000000" stroke-width="0.80" stroke-linecap="square" stroke-linejoin="bevel" points="147.619,58.3465 157.202,58.3465"/>
<polyline class="LedgerLine" stroke="#000000" stroke-width="0.80" stroke-linecap="square" stroke-linejoin="bevel" points="135.786,53.3465 145.369,53.3465"/>
<polyline class="LedgerLine" stroke="#000000" stroke-width="0.80" stroke-linecap="square" stroke-linejoin="bevel" points="135.786,58.3465 145.369,58.3465"/>
<polyline class="LedgerLine" stroke="#000000" stroke-width="0.80" stroke-linecap="square" stroke-linejoin="bevel" points="123.953,48.3465 133.536,48.3465"/>
<polyline class="LedgerLine" stroke="#000000" stroke-width="0.80" stroke-linecap="square" stroke-linejoin="bevel" points="123.953,53.3465 133.536,53.3465"/>
<polyline class="LedgerLine" stroke="#000000" stroke-width="0.80" stroke-linecap="square" stroke-linejoin="bevel" points="123.953,58.3465 133.536,58.3465"/>
<polyline class="LedgerLine" stroke="#000000" stroke-width="0.80" stroke-linecap="square" stroke-linejoin="bevel" points="112.121,48.3465 121.703,48.3465"/>
<polyline class="LedgerLine" stroke="#000000" stroke-width="0.80" stroke-linecap="square" stroke-linejoin="bevel" points="112.121,53.3465 121.703,53.3465"/>
<polyline class="LedgerLine" stroke="#000000" stroke-width="0.80" stroke-linecap="square" stroke-linejoin="bevel" points="112.121,58.3465 121.703,58.3465"/>
<polyline class="LedgerLine" stroke="#000000" stroke-width="0.80" stroke-linecap="square" stroke-linejoin="bevel" points="92.3559,48.3465 101.939,48.3465"/>
<polyline class="LedgerLine" stroke="#000000" stroke-width="0.80" stroke-linecap="square" stroke-linejoin="bevel" points="92.3559,53.3465 101.939,53.3465"/>
<polyline class="LedgerLine" stroke="#000000" stroke-width="0.80" stroke-linecap="square" stroke-linejoin="bevel" points="92.3559,58.3465 101.939,58.3465"/>
<polyline class="Stem" stroke="#000000" stroke-width="0.65" stroke-linecap="round" stroke-linejoin="bevel" points="261.571,124.286 261.571,145.847"/>
<polyline class="Stem" stroke="#000000" stroke-width="0.65" stroke-linecap="round" stroke-linejoin="bevel" points="261.571,54.2855 261.571,83.3465"/>
<polyline class="Stem" stroke="#000000" stroke-width="0.65" stroke-linecap="round" stroke-linejoin="bevel" points="246.042,121.786 246.042,145.847"/>
<polyline class="Stem" stroke="#000000" stroke-width="0.65" stroke-linecap="round" stroke-linejoin="bevel" points="246.042,56.7855 246.042,82.0965"/>
<polyline class="Stem" stroke="#000000" stroke-width="0.65" stroke-linecap="round" stroke-linejoin="bevel" points="230.512,121.786 230.512,145.847"/>
<polyline class="Stem" stroke="#000000" stroke-width="0.65" stroke-linecap="round" stroke-linejoin="bevel" points="230.512,56.7855 230.512,80.4298"/>
<polyline class="Stem" stroke="#000000" stroke-width="0.65" stroke-linecap="round" stroke-linejoin="bevel" points="214.983,56.7855 214.983,78.7631"/>
<polyline class="Stem" stroke="#000000" stroke-width="0.65" stroke-linecap="round" stroke-linejoin="bevel" points="199.453,56.7855 199.453,77.0965"/>
<polyline class="Stem" stroke="#000000" stroke-width="0.65" stroke-linecap="round" stroke-linejoin="bevel" points="184.943,54.2855 184.943,82.0965"/>
<polyline class="Stem" stroke="#000000" stroke-width="0.65" stroke-linecap="round" stroke-linejoin="bevel" points="173.11,51.7855 173.11,82.7483"/>
<polyline class="Stem" stroke="#000000" stroke-width="0.65" stroke-linecap="round" stroke-linejoin="bevel" points="161.277,49.2855 161.277,83.4002"/>
<polyline class="Stem" stroke="#000000" stroke-width="0.65" stroke-linecap="round" stroke-linejoin="bevel" points="149.444,46.7855 149.444,84.0521"/>
<polyline class="Stem" stroke="#000000" stroke-width="0.65" stroke-linecap="round" stroke-linejoin="bevel" points="137.611,51.7855 137.611,84.7039"/>
<polyline class="Stem" stroke="#000000" stroke-width="0.65" stroke-linecap="round" stroke-linejoin="bevel" points="125.778,49.2855 125.778,85.3558"/>
<polyline class="Stem" stroke="#000000" stroke-width="0.65" stroke-linecap="round" stroke-linejoin="bevel" points="113.946,46.7855 113.946,86.0077"/>
<polyline class="Stem" stroke="#000000" stroke-width="0.65" stroke-linecap="round" stroke-linejoin="bevel" points="100.114,134.907 100.114,106.471"/>
<polyline class="Stem" stroke="#000000" stroke-width="0.65" stroke-linecap="round" stroke-linejoin="bevel" points="94.1809,46.7855 94.1809,87.0965"/>
<path class="Note" d="M265.637,120.597 C266.262,120.597 266.793,120.758 267.231,121.081 C267.626,121.435 267.824,121.878 267.824,122.409 C267.824,123.305 267.366,124.143 266.449,124.925 C265.512,125.706 264.507,126.097 263.434,126.097 C262.809,126.097 262.283,125.935 261.856,125.612 C261.449,125.258 261.246,124.815 261.246,124.284 C261.246,123.388 261.715,122.55 262.653,121.768 C263.569,120.987 264.564,120.597 265.637,120.597"/>
<path class="Note" d="M265.637,125.597 C266.262,125.597 266.793,125.758 267.231,126.081 C267.626,126.435 267.824,126.878 267.824,127.409 C267.824,128.305 267.366,129.143 266.449,129.925 C265.512,130.706 264.507,131.097 263.434,131.097 C262.809,131.097 262.283,130.935 261.856,130.612 C261.449,130.258 261.246,129.815 261.246,129.284 C261.246,128.388 261.715,127.55 262.653,126.768 C263.569,125.987 264.564,125.597 265.637,125.597"/>
<path class="Note" d="M265.637,50.5965 C266.262,50.5965 266.793,50.7579 267.231,51.0808 C267.626,51.435 267.824,51.8777 267.824,52.409 C267.824,53.3048 267.366,54.1433 266.449,54.9246 C265.512,55.7058 264.507,56.0965 263.434,56.0965 C262.809,56.0965 262.283,55.935 261.856,55.6121 C261.449,55.2579 261.246,54.8152 261.246,54.284 C261.246,53.3881 261.715,52.5496 262.653,51.7683 C263.569,50.9871 264.564,50.5965 265.637,50.5965"/>
<path class="Note" d="M265.637,63.0965 C266.262,63.0965 266.793,63.2579 267.231,63.5808 C267.626,63.935 267.824,64.3777 267.824,64.909 C267.824,65.8048 267.366,66.6433 266.449,67.4246 C265.512,68.2058 264.507,68.5965 263.434,68.5965 C262.809,68.5965 262.283,68.435 261.856,68.1121 C261.449,67.7579 261.246,67.3152 261.246,66.784 C261.246,65.8881 261.715,65.0496 262.653,64.2683 C263.569,63.4871 264.564,63.0965 265.637,63.0965"/>
<path class="Note" d="M250.107,118.097 C250.732,118.097 251.264,118.258 251.701,118.581 C252.097,118.935 252.295,119.378 252.295,119.909 C252.295,120.805 251.837,121.643 250.92,122.425 C249.982,123.206 248.977,123.597 247.904,123.597 C247.279,123.597 246.753,123.435 246.326,123.112 C245.92,122.758 245.717,122.315 245.717,121.784 C245.717,120.888 246.186,120.05 247.123,119.268 C248.04,118.487 249.035,118.097 250.107,118.097"/>
<path class="Note" d="M250.107,128.097 C250.732,128.097 251.264,128.258 251.701,128.581 C252.097,128.935 252.295,129.378 252.295,129.909 C252.295,130.805 251.837,131.643 250.92,132.425 C249.982,133.206 248.977,133.597 247.904,133.597 C247.279,133.597 246.753,133.435 246.326,133.112 C245.92,132.758 245.717,132.315 245.717,131.784 C245.717,130.888 246.186,130.05 247.123,129.268 C248.04,128.487 249.035,128.097 250.107,128.097"/>
<path class="Note" d="M250.107,53.0965 C250.732,53.0965 251.264,53.2579 251.701,53.5808 C252.097,53.935 252.295,54.3777 252.295,54.909 C252.295,55.8048 251.837,56.6433 250.92,57.4246 C249.982,58.2058 248.977,58.5965 247.904,58.5965 C247.279,58.5965 246.753,58.435 246.326,58.1121 C245.92,57.7579 245.717,57.3152 245.717,56.784 C245.717,55.8881 246.186,55.0496 247.123,54.2683 C248.04,53.4871 249.035,53.0965 250.107,53.0965"/>
<path class="Note" d="M250.107,60.5965 C250.732,60.5965 251.264,60.7579 251.701,61.0808 C252.097,61.435 252.295,61.8777 252.295,62.409 C252.295,63.3048 251.837,64.1433 250.92,64.9246 C249.982,65.7058 248.977,66.0965 247.904,66.0965 C247.279,66.0965 246.753,65.935 246.326,65.6121 C245.92,65.2579 245.717,64.8152 245.717,64.284 C245.717,63.3881 246.186,62.5496 247.123,61.7683 C248.04,60.9871 249.035,60.5965 250.107,60.5965"/>
<path class="Note" d="M234.578,118.097 C235.203,118.097 235.734,118.258 236.172,118.581 C236.568,118.935 236.765,119.378 236.765,119.909 C236.765,120.805 236.307,121.643 235.39,122.425 C234.453,123.206 233.448,123.597 232.375,123.597 C231.75,123.597 231.224,123.435 230.797,123.112 C230.39,122.758 230.187,122.315 230.187,121.784 C230.187,120.888 230.656,120.05 231.594,119.268 C232.51,118.487 233.505,118.097 234.578,118.097"/>
<path class="Note" d="M234.578,128.097 C235.203,128.097 235.734,128.258 236.172,128.581 C236.568,128.935 236.765,129.378 236.765,129.909 C236.765,130.805 236.307,131.643 235.39,132.425 C234.453,133.206 233.448,133.597 232.375,133.597 C231.75,133.597 231.224,133.435 230.797,133.112 C230.39,132.758 230.187,132.315 230.187,131.784 C230.187,130.888 230.656,130.05 231.594,129.268 C232.51,128.487 233.505,128.097 234.578,128.097"/>
<path class="Note" d="M234.578,53.0965 C235.203,53.0965 235.734,53.2579 236.172,53.5808 C236.568,53.935 236.765,54.3777 236.765,54.909 C236.765,55.8048 236.307,56.6433 235.39,57.4246 C234.453,58.2058 233.448,58.5965 232.375,58.5965 C231.75,58.5965 231.224,58.435 230.797,58.1121 C230.39,57.7579 230.187,57.3152 230.187,56.784 C230.187,55.8881 230.656,55.0496 231.594,54.2683 C232.51,53.4871 233.505,53.0965 234.578,53.0965"/>
<path class="Note" d="M234.578,60.5965 C235.203,60.5965 235.734,60.7579 236.172,61.0808 C236.568,61.435 236.765,61.8777 236.765,62.409 C236.765,63.3048 236.307,64.1433 235.39,64.9246 C234.453,65.7058 233.448,66.0965 232.375,66.0965 C231.75,66.0965 231.224,65.935 230.797,65.6121 C230.39,65.2579 230.187,64.8152 230.187,64.284 C230.187,63.3881 230.656,62.5496 231.594,61.7683 C232.51,60.9871 233.505,60.5965 234.578,60.5965"/>
<path class="Note" d="M219.049,53.0965 C219.674,53.0965 220.205,53.2579 220.642,53.5808 C221.038,53.935 221.236,54.3777 221.236,54.909 C221.236,55.8048 220.778,56.6433 219.861,57.4246 C218.924,58.2058 217.918,58.5965 216.845,58.5965 C216.22,58.5965 215.694,58.435 215.267,58.1121 C214.861,57.7579 214.658,57.3152 214.658,56.784 C214.658,55.8881 215.127,55.0496 216.064,54.2683 C216.981,53.4871 217.976,53.0965 219.049,53.0965"/>
<path class="Note" d="M203.519,53.0965 C204.144,53.0965 204.675,53.2579 205.113,53.5808 C205.509,53.935 205.707,54.3777 205.707,54.909 C205.707,55.8048 205.248,56.6433 204.332,57.4246 C203.394,58.2058 202.389,58.5965 201.316,58.5965 C200.691,58.5965 200.165,58.435 199.738,58.1121 C199.332,57.7579 199.128,57.3152 199.128,56.784 C199.128,55.8881 199.597,55.0496 200.535,54.2683 C201.451,53.4871 202.446,53.0965 203.519,53.0965"/>
<path class="Note" d="M189.008,50.5965 C189.633,50.5965 190.164,50.7579 190.602,51.0808 C190.998,51.435 191.196,51.8777 191.196,52.409 C191.196,53.3048 190.737,54.1433 189.821,54.9246 C188.883,55.7058 187.878,56.0965 186.805,56.0965 C186.18,56.0965 185.654,55.935 185.227,55.6121 C184.821,55.2579 184.618,54.8152 184.618,54.284 C184.618,53.3881 185.086,52.5496 186.024,51.7683 C186.94,50.9871 187.935,50.5965 189.008,50.5965"/>
<path class="Note" d="M177.175,48.0965 C177.8,48.0965 178.332,48.2579 178.769,48.5808 C179.165,48.935 179.363,49.3777 179.363,49.909 C179.363,50.8048 178.905,51.6433 177.988,52.4246 C177.05,53.2058 176.045,53.5965 174.972,53.5965 C174.347,53.5965 173.821,53.435 173.394,53.1121 C172.988,52.7579 172.785,52.3152 172.785,51.784 C172.785,50.8881 173.253,50.0496 174.191,49.2683 C175.108,48.4871 176.102,48.0965 177.175,48.0965"/>
<path class="Note" d="M165.343,45.5965 C165.968,45.5965 166.499,45.7579 166.936,46.0808 C167.332,46.435 167.53,46.8777 167.53,47.409 C167.53,48.3048 167.072,49.1433 166.155,49.9246 C165.218,50.7058 164.212,51.0965 163.139,51.0965 C162.514,51.0965 161.988,50.935 161.561,50.6121 C161.155,50.2579 160.952,49.8152 160.952,49.284 C160.952,48.3881 161.421,47.5496 162.358,46.7683 C163.275,45.9871 164.27,45.5965 165.343,45.5965"/>
<path class="Note" d="M153.51,43.0965 C154.135,43.0965 154.666,43.2579 155.103,43.5808 C155.499,43.935 155.697,44.3777 155.697,44.909 C155.697,45.8048 155.239,46.6433 154.322,47.4246 C153.385,48.2058 152.379,48.5965 151.307,48.5965 C150.682,48.5965 150.156,48.435 149.728,48.1121 C149.322,47.7579 149.119,47.3152 149.119,46.784 C149.119,45.8881 149.588,45.0496 150.525,44.2683 C151.442,43.4871 152.437,43.0965 153.51,43.0965"/>
<path class="Note" d="M141.677,48.0965 C142.302,48.0965 142.833,48.2579 143.271,48.5808 C143.666,48.935 143.864,49.3777 143.864,49.909 C143.864,50.8048 143.406,51.6433 142.489,52.4246 C141.552,53.2058 140.547,53.5965 139.474,53.5965 C138.849,53.5965 138.323,53.435 137.896,53.1121 C137.489,52.7579 137.286,52.3152 137.286,51.784 C137.286,50.8881 137.755,50.0496 138.693,49.2683 C139.609,48.4871 140.604,48.0965 141.677,48.0965"/>
<path class="Note" d="M129.844,45.5965 C130.469,45.5965 131,45.7579 131.438,46.0808 C131.834,46.435 132.032,46.8777 132.032,47.409 C132.032,48.3048 131.573,49.1433 130.657,49.9246 C129.719,50.7058 128.714,51.0965 127.641,51.0965 C127.016,51.0965 126.49,50.935 126.063,50.6121 C125.657,50.2579 125.453,49.8152 125.453,49.284 C125.453,48.3881 125.922,47.5496 126.86,46.7683 C127.776,45.9871 128.771,45.5965 129.844,45.5965"/>
<path class="Note" d="M118.011,43.0965 C118.636,43.0965 119.167,43.2579 119.605,43.5808 C120.001,43.935 120.199,44.3777 120.199,44.909 C120.199,45.8048 119.74,46.6433 118.824,47.4246 C117.886,48.2058 116.881,48.5965 115.808,48.5965 C115.183,48.5965 114.657,48.435 114.23,48.1121 C113.824,47.7579 113.621,47.3152 113.621,46.784 C113.621,45.8881 114.089,45.0496 115.027,44.2683 C115.944,43.4871 116.938,43.0965 118.011,43.0965"/>
<path class="Note" d="M118.011,60.5965 C118.636,60.5965 119.167,60.7579 119.605,61.0808 C120.001,61.435 120.199,61.8777 120.199,62.409 C120.199,63.3048 119.74,64.1433 118.824,64.9246 C117.886,65.7058 116.881,66.0965 115.808,66.0965 C115.183,66.0965 114.657,65.935 114.23,65.6121 C113.824,65.2579 113.621,64.8152 113.621,64.284 C113.621,63.3881 114.089,62.5496 115.027,61.7683 C115.944,60.9871 116.938,60.5965 118.011,60.5965"/>
<path class="Note" d="M98.2465,118.097 C98.8715,118.097 99.4027,118.258 99.8402,118.581 C100.236,118.935 100.434,119.378 100.434,119.909 C100.434,120.805 99.9757,121.643 99.059,122.425 C98.1215,123.206 97.1163,123.597 96.0434,123.597 C95.4184,123.597 94.8923,123.435 94.4652,123.112 C94.059,122.758 93.8559,122.315 93.8559,121.784 C93.8559,120.888 94.3246,120.05 95.2621,119.268 C96.1788,118.487 97.1736,118.097 98.2465,118.097"/>
<path class="Note" d="M98.2465,128.097 C98.8715,128.097 99.4027,128.258 99.8402,128.581 C100.236,128.935 100.434,129.378 100.434,129.909 C100.434,130.805 99.9757,131.643 99.059,132.425 C98.1215,133.206 97.1163,133.597 96.0434,133.597 C95.4184,133.597 94.8923,133.435 94.4652,133.112 C94.059,132.758 93.8559,132.315 93.8559,131.784 C93.8559,130.888 94.3246,130.05 95.2621,129.268 C96.1788,128.487 97.1736,128.097 98.2465,128.097"/>
<path class="Note" d="M98.2465,133.097 C98.8715,133.097 99.4027,133.258 99.8402,133.581 C100.236,133.935 100.434,134.378 100.434,134.909 C100.434,135.805 99.9757,136.643 99.059,137.425 C98.1215,138.206 97.1163,138.597 96.0434,138.597 C95.4184,138.597 94.8923,138.435 94.4652,138.112 C94.059,137.758 93.8559,137.315 93.8559,136.784 C93.8559,135.888 94.3246,135.05 95.2621,134.268 C96.1788,133.487 97.1736,133.097 98.2465,133.097"/>
<path class="Note" d="M98.2465,43.0965 C98.8715,43.0965 99.4027,43.2579 99.8402,43.5808 C100.236,43.935 100.434,44.3777 100.434,44.909 C100.434,45.8048 99.9757,46.6433 99.059,47.4246 C98.1215,48.2058 97.1163,48.5965 96.0434,48.5965 C95.4184,48.5965 94.8923,48.435 94.4652,48.1121 C94.059,47.7579 93.8559,47.3152 93.8559,46.784 C93.8559,45.8881 94.3246,45.0496 95.2621,44.2683 C96.1788,43.4871 97.1736,43.0965 98.2465,43.0965"/>
<path class="Note" d="M98.2465,60.5965 C98.8715,60.5965 99.4027,60.7579 99.8402,61.0808 C100.236,61.435 100.434,61.8777 100.434,62.409 C100.434,63.3048 99.9757,64.1433 99.059,64.9246 C98.1215,65.7058 97.1163,66.0965 96.0434,66.0965 C95.4184,66.0965 94.8923,65.935 94.4652,65.6121 C94.059,65.2579 93.8559,64.8152 93.8559,64.284 C93.8559,63.3881 94.3246,62.5496 95.2621,61.7683 C96.1788,60.9871 97.1736,60.5965 98.2465,60.5965"/>
<path class="Clef" transform="matrix(0.800001,0,0,0.800001,217.617,130.847)" d="M7.34375,-5.125 C7.34375,-5.125 7.38542,-5.125 7.46875,-5.125 C7.52083,-5.13542 7.5625,-5.14063 7.59375,-5.14063 C9.05208,-5.14063 10.25,-4.625 11.1875,-3.59375 C12.125,-2.58333 12.5938,-1.40104 12.5938,-0.046875 C12.5938,1.64063 11.901,3.01042 10.5156,4.0625 C10.151,4.35417 9.67188,4.58854 9.07813,4.76563 C9.15104,5.60938 9.1875,6.29167 9.1875,6.8125 C9.1875,6.91667 9.17188,7.29688 9.14063,7.95313 C9.08854,9.16146 8.67188,10.2083 7.89063,11.0938 C7.14063,11.9688 6.20313,12.4063 5.07813,12.4063 C4.02604,12.4063 3.13021,12.0365 2.39063,11.2969 C1.64063,10.5365 1.26563,9.625 1.26563,8.5625 C1.26563,8 1.48438,7.52083 1.92188,7.125 C2.35938,6.73958 2.86979,6.54688 3.45313,6.54688 C3.97396,6.54688 4.41146,6.75 4.76563,7.15625 C5.13021,7.53125 5.3125,8 5.3125,8.5625 C5.3125,9.0625 5.13021,9.49479 4.76563,9.85938 C4.40104,10.224 3.96354,10.4063 3.45313,10.4063 C3.24479,10.4063 3.04688,10.3698 2.85938,10.2969 C3.43229,11.1406 4.19271,11.5625 5.14063,11.5625 C6.03646,11.5625 6.77083,11.1979 7.34375,10.4688 C7.94792,9.71875 8.27604,8.83854 8.32813,7.82813 C8.34896,7.20313 8.35938,6.84896 8.35938,6.76563 C8.35938,6.03646 8.33333,5.4375 8.28125,4.96875 C7.63542,5.07292 7.05729,5.125 6.54688,5.125 C4.73438,5.125 3.19271,4.40625 1.92188,2.96875 C0.671875,1.52083 0.046875,-0.197917 0.046875,-2.1875 C0.046875,-2.60417 0.0833333,-3.02604 0.15625,-3.45313 C0.239583,-3.80729 0.338542,-4.19271 0.453125,-4.60938 C0.515625,-4.84896 0.692708,-5.22917 0.984375,-5.75 C1.08854,-5.90625 1.20573,-6.10156 1.33594,-6.33594 C1.46615,-6.57031 1.55729,-6.72396 1.60938,-6.79688 C1.73438,-7.05729 1.98438,-7.41146 2.35938,-7.85938 C2.46354,-7.97396 2.57292,-8.10156 2.6875,-8.24219 C2.80208,-8.38281 2.89844,-8.5 2.97656,-8.59375 C3.05469,-8.6875 3.11198,-8.76042 3.14844,-8.8125 C3.1849,-8.86458 3.47917,-9.20833 4.03125,-9.84375 C4.15625,-9.97917 4.28125,-10.1198 4.40625,-10.2656 C4.53125,-10.4115 4.63281,-10.5286 4.71094,-10.6172 C4.78906,-10.7057 4.84896,-10.7656 4.89063,-10.7969 C4.42188,-12.349 4.125,-13.5885 4,-14.5156 C3.91667,-15.2552 3.875,-16.2708 3.875,-17.5625 C3.875,-18.6979 4.13542,-19.7604 4.65625,-20.75 C5.15625,-21.7708 5.86458,-22.6094 6.78125,-23.2656 C6.84375,-23.3073 6.90625,-23.3281 6.96875,-23.3281 C7.0625,-23.3281 7.13021,-23.3073 7.17188,-23.2656 C7.86979,-22.4219 8.47396,-21.3229 8.98438,-19.9688 C9.50521,-18.6146 9.76563,-17.3802 9.76563,-16.2656 C9.76563,-15.0156 9.46875,-13.8438 8.875,-12.75 C8.19792,-11.5938 7.32292,-10.3958 6.25,-9.15625 C6.52083,-8.30208 6.88542,-6.95833 7.34375,-5.125 M9,3.96875 C9.67708,3.71875 10.2083,3.29688 10.5938,2.70313 C11.0104,2.13021 11.2188,1.48438 11.2188,0.765625 C11.2188,-0.161458 10.9063,-0.984375 10.2813,-1.70313 C9.63542,-2.44271 8.81771,-2.85938 7.82813,-2.95313 C8.39063,-0.203125 8.78125,2.10417 9,3.96875 M1.45313,-0.546875 C1.45313,0.744792 1.97396,1.88021 3.01563,2.85938 C4.07813,3.80729 5.27604,4.28125 6.60938,4.28125 C7.15104,4.28125 7.68229,4.23958 8.20313,4.15625 C7.99479,2.17708 7.58333,-0.192708 6.96875,-2.95313 C6.22917,-2.86979 5.64063,-2.60938 5.20313,-2.17188 C4.76563,-1.71354 4.54688,-1.19792 4.54688,-0.625 C4.54688,0.364583 5.07813,1.16667 6.14063,1.78125 C6.22396,1.875 6.26563,1.97396 6.26563,2.07813 C6.26563,2.18229 6.22396,2.27604 6.14063,2.35938 C6.05729,2.45313 5.95833,2.5 5.84375,2.5 C5.83333,2.5 5.77604,2.48958 5.67188,2.46875 C4.92188,2.0625 4.34896,1.54167 3.95313,0.90625 C3.56771,0.21875 3.375,-0.46875 3.375,-1.15625 C3.375,-2.05208 3.65625,-2.86458 4.21875,-3.59375 C4.80208,-4.32292 5.5625,-4.79167 6.5,-5 C6.13542,-6.45833 5.83854,-7.59896 5.60938,-8.42188 C5.40104,-8.18229 5.15104,-7.89844 4.85938,-7.57031 C4.56771,-7.24219 4.39583,-7.04167 4.34375,-6.96875 C3.875,-6.36458 3.51563,-5.89063 3.26563,-5.54688 C2.81771,-4.93229 2.48958,-4.40625 2.28125,-3.96875 C2.0625,-3.46875 1.86979,-2.92708 1.70313,-2.34375 C1.53646,-1.78125 1.45313,-1.18229 1.45313,-0.546875 M7.96875,-20.4063 C6.98958,-19.9271 6.22396,-19.2396 5.67188,-18.3438 C5.09896,-17.4167 4.8125,-16.4219 4.8125,-15.3594 C4.8125,-14.4219 5.04688,-13.1563 5.51563,-11.5625 C6.45313,-12.6979 7.15625,-13.7448 7.625,-14.7031 C8.11458,-15.724 8.35938,-16.7865 8.35938,-17.8906 C8.35938,-18.724 8.22917,-19.5625 7.96875,-20.4063"/>
<path class="Clef" d="M54.2761,119.065 C54.0834,118.867 53.9871,118.625 53.9871,118.339 C53.9871,118.052 54.0834,117.813 54.2761,117.62 C54.4689,117.427 54.7084,117.331 54.9949,117.331 C55.2814,117.331 55.5235,117.427 55.7215,117.62 C55.9194,117.813 56.0183,118.052 56.0183,118.339 C56.0183,118.625 55.9194,118.867 55.7215,119.065 C55.5235,119.263 55.2814,119.362 54.9949,119.362 C54.7084,119.362 54.4689,119.263 54.2761,119.065 M54.2761,124.073 C54.0834,123.88 53.9871,123.641 53.9871,123.354 C53.9871,123.068 54.0834,122.826 54.2761,122.628 C54.4689,122.43 54.7084,122.331 54.9949,122.331 C55.2814,122.331 55.5235,122.43 55.7215,122.628 C55.9194,122.826 56.0183,123.068 56.0183,123.354 C56.0183,123.641 55.9194,123.88 55.7215,124.073 C55.5235,124.266 55.2814,124.362 54.9949,124.362 C54.7084,124.362 54.4689,124.266 54.2761,124.073 M47.5027,115.597 C49.2319,115.597 50.6485,116.029 51.7527,116.893 C52.8256,117.81 53.3621,119.05 53.3621,120.612 C53.3621,121.664 53.1538,122.628 52.7371,123.503 C52.3413,124.419 51.8256,125.227 51.1902,125.925 C50.534,126.643 49.7475,127.32 48.8308,127.956 C47.9246,128.581 46.9975,129.143 46.0496,129.643 C44.1225,130.612 43.0548,131.097 42.8465,131.097 C42.6798,131.097 42.5965,131.013 42.5965,130.847 C42.5965,130.784 42.6225,130.727 42.6746,130.675 C43.3413,130.279 44.1538,129.779 45.1121,129.175 C45.7371,128.768 46.4663,128.206 47.2996,127.487 C48.1121,126.81 48.7371,126.175 49.1746,125.581 C49.6329,124.987 50.0496,124.258 50.4246,123.393 C50.7475,122.518 50.909,121.654 50.909,120.8 C50.909,119.539 50.5965,118.44 49.9715,117.503 C49.3465,116.565 48.5235,116.097 47.5027,116.097 C46.7735,116.097 46.1485,116.331 45.6277,116.8 C45.0652,117.279 44.659,117.883 44.409,118.612 C44.659,118.508 44.8881,118.456 45.0965,118.456 C45.6381,118.456 46.1069,118.654 46.5027,119.05 C46.8881,119.466 47.0808,119.94 47.0808,120.472 C47.0808,121.034 46.8933,121.539 46.5183,121.987 C46.1121,122.383 45.6381,122.581 45.0965,122.581 C44.5131,122.581 43.9871,122.383 43.5183,121.987 C43.0704,121.539 42.8465,121.034 42.8465,120.472 C42.8465,119.128 43.3048,117.982 44.2215,117.034 C45.1173,116.076 46.211,115.597 47.5027,115.597"/>
<path class="Clef" d="M50.1902,73.2215 C50.1902,73.2215 50.2319,73.2215 50.3152,73.2215 C50.3673,73.2111 50.409,73.2059 50.4402,73.2059 C51.8985,73.2059 53.0965,73.7215 54.034,74.7527 C54.9715,75.7631 55.4402,76.9454 55.4402,78.2996 C55.4402,79.9871 54.7475,81.3569 53.3621,82.409 C52.9975,82.7006 52.5183,82.935 51.9246,83.1121 C51.9975,83.9559 52.034,84.6381 52.034,85.159 C52.034,85.2631 52.0183,85.6434 51.9871,86.2996 C51.935,87.5079 51.5183,88.5548 50.7371,89.4402 C49.9871,90.3152 49.0496,90.7527 47.9246,90.7527 C46.8725,90.7527 45.9767,90.3829 45.2371,89.6434 C44.4871,88.8829 44.1121,87.9715 44.1121,86.909 C44.1121,86.3465 44.3308,85.8673 44.7683,85.4715 C45.2058,85.0861 45.7163,84.8934 46.2996,84.8934 C46.8204,84.8934 47.2579,85.0965 47.6121,85.5027 C47.9767,85.8777 48.159,86.3465 48.159,86.909 C48.159,87.409 47.9767,87.8413 47.6121,88.2059 C47.2475,88.5704 46.81,88.7527 46.2996,88.7527 C46.0913,88.7527 45.8933,88.7163 45.7058,88.6434 C46.2788,89.4871 47.0392,89.909 47.9871,89.909 C48.8829,89.909 49.6173,89.5444 50.1902,88.8152 C50.7944,88.0652 51.1225,87.185 51.1746,86.1746 C51.1954,85.5496 51.2058,85.1954 51.2058,85.1121 C51.2058,84.3829 51.1798,83.784 51.1277,83.3152 C50.4819,83.4194 49.9038,83.4715 49.3933,83.4715 C47.5808,83.4715 46.0392,82.7527 44.7683,81.3152 C43.5183,79.8673 42.8933,78.1486 42.8933,76.159 C42.8933,75.7423 42.9298,75.3204 43.0027,74.8934 C43.086,74.5392 43.185,74.1538 43.2996,73.7371 C43.3621,73.4975 43.5392,73.1173 43.8308,72.5965 C43.935,72.4402 44.0522,72.2449 44.1824,72.0105 C44.3126,71.7762 44.4038,71.6225 44.4558,71.5496 C44.5808,71.2892 44.8308,70.935 45.2058,70.4871 C45.31,70.3725 45.4194,70.2449 45.534,70.1043 C45.6485,69.9637 45.7449,69.8465 45.823,69.7527 C45.9011,69.659 45.9584,69.5861 45.9949,69.534 C46.0314,69.4819 46.3256,69.1381 46.8777,68.5027 C47.0027,68.3673 47.1277,68.2267 47.2527,68.0809 C47.3777,67.935 47.4793,67.8178 47.5574,67.7293 C47.6355,67.6408 47.6954,67.5809 47.7371,67.5496 C47.2683,65.9975 46.9715,64.7579 46.8465,63.8309 C46.7631,63.0913 46.7215,62.0756 46.7215,60.784 C46.7215,59.6486 46.9819,58.5861 47.5027,57.5965 C48.0027,56.5756 48.711,55.7371 49.6277,55.0809 C49.6902,55.0392 49.7527,55.0184 49.8152,55.0184 C49.909,55.0184 49.9767,55.0392 50.0183,55.0809 C50.7163,55.9246 51.3204,57.0236 51.8308,58.3777 C52.3517,59.7319 52.6121,60.9663 52.6121,62.0809 C52.6121,63.3309 52.3152,64.5027 51.7215,65.5965 C51.0444,66.7527 50.1694,67.9506 49.0965,69.1902 C49.3673,70.0444 49.7319,71.3881 50.1902,73.2215 M51.8465,82.3152 C52.5235,82.0652 53.0548,81.6434 53.4402,81.0496 C53.8569,80.4767 54.0652,79.8309 54.0652,79.1121 C54.0652,78.185 53.7527,77.3621 53.1277,76.6434 C52.4819,75.9038 51.6642,75.4871 50.6746,75.3934 C51.2371,78.1434 51.6277,80.4506 51.8465,82.3152 M44.2996,77.7996 C44.2996,79.0913 44.8204,80.2267 45.8621,81.2059 C46.9246,82.1538 48.1225,82.6277 49.4558,82.6277 C49.9975,82.6277 50.5288,82.5861 51.0496,82.5027 C50.8413,80.5236 50.4298,78.1538 49.8152,75.3934 C49.0756,75.4767 48.4871,75.7371 48.0496,76.1746 C47.6121,76.6329 47.3933,77.1486 47.3933,77.7215 C47.3933,78.7111 47.9246,79.5131 48.9871,80.1277 C49.0704,80.2215 49.1121,80.3204 49.1121,80.4246 C49.1121,80.5288 49.0704,80.6225 48.9871,80.7059 C48.9038,80.7996 48.8048,80.8465 48.6902,80.8465 C48.6798,80.8465 48.6225,80.8361 48.5183,80.8152 C47.7683,80.409 47.1954,79.8881 46.7996,79.2527 C46.4142,78.5652 46.2215,77.8777 46.2215,77.1902 C46.2215,76.2944 46.5027,75.4819 47.0652,74.7527 C47.6485,74.0236 48.409,73.5548 49.3465,73.3465 C48.9819,71.8881 48.685,70.7475 48.4558,69.9246 C48.2475,70.1642 47.9975,70.448 47.7058,70.7762 C47.4142,71.1043 47.2423,71.3048 47.1902,71.3777 C46.7215,71.9819 46.3621,72.4559 46.1121,72.7996 C45.6642,73.4142 45.336,73.9402 45.1277,74.3777 C44.909,74.8777 44.7163,75.4194 44.5496,76.0027 C44.3829,76.5652 44.2996,77.1642 44.2996,77.7996 M50.8152,57.9402 C49.836,58.4194 49.0704,59.1069 48.5183,60.0027 C47.9454,60.9298 47.659,61.9246 47.659,62.9871 C47.659,63.9246 47.8933,65.1902 48.3621,66.784 C49.2996,65.6486 50.0027,64.6017 50.4715,63.6434 C50.961,62.6225 51.2058,61.56 51.2058,60.4559 C51.2058,59.6225 51.0756,58.784 50.8152,57.9402"/>
<path class="KeySig" d="M69.2621,132.518 L69.2621,134.065 C69.2621,134.617 69.2881,135.055 69.3402,135.378 C69.7673,135.013 70.0746,134.742 70.2621,134.565 C70.4704,134.357 70.6788,134.068 70.8871,133.698 C71.0954,133.328 71.1996,132.961 71.1996,132.597 C71.1996,132.232 71.1215,131.919 70.9652,131.659 C70.809,131.399 70.6006,131.268 70.3402,131.268 C70.0277,131.268 69.7673,131.388 69.559,131.628 C69.3611,131.888 69.2621,132.185 69.2621,132.518 M68.434,136.097 L68.184,124.206 C68.3715,124.102 68.5564,124.05 68.7387,124.05 C68.921,124.05 69.1006,124.102 69.2777,124.206 L69.1215,131.097 C69.6527,130.638 70.2673,130.409 70.9652,130.409 C71.4652,130.409 71.8845,130.617 72.223,131.034 C72.5616,131.451 72.7309,131.93 72.7309,132.472 C72.7309,132.805 72.6215,133.164 72.4027,133.55 C72.1944,133.893 71.9756,134.164 71.7465,134.362 C71.6111,134.466 71.2777,134.727 70.7465,135.143 C70.5902,135.258 70.4053,135.393 70.1918,135.55 C69.9782,135.706 69.8454,135.805 69.7934,135.847 C69.6996,135.899 69.6111,136.003 69.5277,136.159 C69.4444,136.294 69.3402,136.404 69.2152,136.487 C69.1319,136.57 69.0251,136.612 68.8949,136.612 C68.7647,136.612 68.6579,136.565 68.5746,136.472 C68.4809,136.378 68.434,136.253 68.434,136.097"/>
<path class="KeySig" d="M64.2621,122.518 L64.2621,124.065 C64.2621,124.617 64.2881,125.055 64.3402,125.378 C64.7673,125.013 65.0746,124.742 65.2621,124.565 C65.4704,124.357 65.6788,124.068 65.8871,123.698 C66.0954,123.328 66.1996,122.961 66.1996,122.597 C66.1996,122.232 66.1215,121.919 65.9652,121.659 C65.809,121.399 65.6006,121.268 65.3402,121.268 C65.0277,121.268 64.7673,121.388 64.559,121.628 C64.3611,121.888 64.2621,122.185 64.2621,122.518 M63.434,126.097 L63.184,114.206 C63.3715,114.102 63.5564,114.05 63.7387,114.05 C63.921,114.05 64.1006,114.102 64.2777,114.206 L64.1215,121.097 C64.6527,120.638 65.2673,120.409 65.9652,120.409 C66.4652,120.409 66.8845,120.617 67.223,121.034 C67.5616,121.451 67.7308,121.93 67.7308,122.472 C67.7308,122.805 67.6215,123.164 67.4027,123.55 C67.1944,123.893 66.9756,124.164 66.7465,124.362 C66.6111,124.466 66.2777,124.727 65.7465,125.143 C65.5902,125.258 65.4053,125.393 65.1918,125.55 C64.9782,125.706 64.8454,125.805 64.7933,125.847 C64.6996,125.899 64.6111,126.003 64.5277,126.159 C64.4444,126.294 64.3402,126.404 64.2152,126.487 C64.1319,126.57 64.0251,126.612 63.8949,126.612 C63.7647,126.612 63.6579,126.565 63.5746,126.472 C63.4808,126.378 63.434,126.253 63.434,126.097"/>
<path class="KeySig" d="M59.2621,130.018 L59.2621,131.565 C59.2621,132.117 59.2881,132.555 59.3402,132.878 C59.7673,132.513 60.0746,132.242 60.2621,132.065 C60.4704,131.857 60.6788,131.568 60.8871,131.198 C61.0954,130.828 61.1996,130.461 61.1996,130.097 C61.1996,129.732 61.1215,129.419 60.9652,129.159 C60.809,128.899 60.6006,128.768 60.3402,128.768 C60.0277,128.768 59.7673,128.888 59.559,129.128 C59.3611,129.388 59.2621,129.685 59.2621,130.018 M58.434,133.597 L58.184,121.706 C58.3715,121.602 58.5564,121.55 58.7387,121.55 C58.9209,121.55 59.1006,121.602 59.2777,121.706 L59.1215,128.597 C59.6527,128.138 60.2673,127.909 60.9652,127.909 C61.4652,127.909 61.8845,128.117 62.223,128.534 C62.5616,128.951 62.7308,129.43 62.7308,129.972 C62.7308,130.305 62.6215,130.664 62.4027,131.05 C62.1944,131.393 61.9756,131.664 61.7465,131.862 C61.6111,131.966 61.2777,132.227 60.7465,132.643 C60.5902,132.758 60.4053,132.893 60.1918,133.05 C59.9782,133.206 59.8454,133.305 59.7933,133.347 C59.6996,133.399 59.6111,133.503 59.5277,133.659 C59.4444,133.794 59.3402,133.904 59.2152,133.987 C59.1319,134.07 59.0251,134.112 58.8949,134.112 C58.7647,134.112 58.6579,134.065 58.5746,133.972 C58.4808,133.878 58.434,133.753 58.434,133.597"/>
<path class="KeySig" d="M69.2621,75.0184 L69.2621,76.5652 C69.2621,77.1173 69.2881,77.5548 69.3402,77.8777 C69.7673,77.5131 70.0746,77.2423 70.2621,77.0652 C70.4704,76.8569 70.6788,76.5678 70.8871,76.198 C71.0954,75.8283 71.1996,75.4611 71.1996,75.0965 C71.1996,74.7319 71.1215,74.4194 70.9652,74.159 C70.809,73.8986 70.6006,73.7684 70.3402,73.7684 C70.0277,73.7684 69.7673,73.8881 69.559,74.1277 C69.3611,74.3881 69.2621,74.685 69.2621,75.0184 M68.434,78.5965 L68.184,66.7059 C68.3715,66.6017 68.5564,66.5496 68.7387,66.5496 C68.921,66.5496 69.1006,66.6017 69.2777,66.7059 L69.1215,73.5965 C69.6527,73.1381 70.2673,72.909 70.9652,72.909 C71.4652,72.909 71.8845,73.1173 72.223,73.534 C72.5616,73.9506 72.7309,74.4298 72.7309,74.9715 C72.7309,75.3048 72.6215,75.6642 72.4027,76.0496 C72.1944,76.3934 71.9756,76.6642 71.7465,76.8621 C71.6111,76.9663 71.2777,77.2267 70.7465,77.6434 C70.5902,77.7579 70.4053,77.8934 70.1918,78.0496 C69.9782,78.2059 69.8454,78.3048 69.7934,78.3465 C69.6996,78.3986 69.6111,78.5027 69.5277,78.659 C69.4444,78.7944 69.3402,78.9038 69.2152,78.9871 C69.1319,79.0704 69.0251,79.1121 68.8949,79.1121 C68.7647,79.1121 68.6579,79.0652 68.5746,78.9715 C68.4809,78.8777 68.434,78.7527 68.434,78.5965"/>
<path class="KeySig" d="M64.2621,65.0183 L64.2621,66.5652 C64.2621,67.1173 64.2881,67.5548 64.3402,67.8777 C64.7673,67.5131 65.0746,67.2423 65.2621,67.0652 C65.4704,66.8569 65.6788,66.5678 65.8871,66.198 C66.0954,65.8282 66.1996,65.4611 66.1996,65.0965 C66.1996,64.7319 66.1215,64.4194 65.9652,64.159 C65.809,63.8986 65.6006,63.7683 65.3402,63.7683 C65.0277,63.7683 64.7673,63.8881 64.559,64.1277 C64.3611,64.3881 64.2621,64.685 64.2621,65.0183 M63.434,68.5965 L63.184,56.7058 C63.3715,56.6017 63.5564,56.5496 63.7387,56.5496 C63.921,56.5496 64.1006,56.6017 64.2777,56.7058 L64.1215,63.5965 C64.6527,63.1381 65.2673,62.909 65.9652,62.909 C66.4652,62.909 66.8845,63.1173 67.223,63.534 C67.5616,63.9506 67.7308,64.4298 67.7308,64.9715 C67.7308,65.3048 67.6215,65.6642 67.4027,66.0496 C67.1944,66.3933 66.9756,66.6642 66.7465,66.8621 C66.6111,66.9663 66.2777,67.2267 65.7465,67.6433 C65.5902,67.7579 65.4053,67.8933 65.1918,68.0496 C64.9782,68.2058 64.8454,68.3048 64.7933,68.3465 C64.6996,68.3986 64.6111,68.5027 64.5277,68.659 C64.4444,68.7944 64.3402,68.9038 64.2152,68.9871 C64.1319,69.0704 64.0251,69.1121 63.8949,69.1121 C63.7647,69.1121 63.6579,69.0652 63.5746,68.9715 C63.4808,68.8777 63.434,68.7527 63.434,68.5965"/>
<path class="KeySig" d="M59.2621,72.5184 L59.2621,74.0652 C59.2621,74.6173 59.2881,75.0548 59.3402,75.3777 C59.7673,75.0131 60.0746,74.7423 60.2621,74.5652 C60.4704,74.3569 60.6788,74.0678 60.8871,73.698 C61.0954,73.3282 61.1996,72.9611 61.1996,72.5965 C61.1996,72.2319 61.1215,71.9194 60.9652,71.659 C60.809,71.3986 60.6006,71.2684 60.3402,71.2684 C60.0277,71.2684 59.7673,71.3881 59.559,71.6277 C59.3611,71.8881 59.2621,72.185 59.2621,72.5184 M58.434,76.0965 L58.184,64.2059 C58.3715,64.1017 58.5564,64.0496 58.7387,64.0496 C58.9209,64.0496 59.1006,64.1017 59.2777,64.2059 L59.1215,71.0965 C59.6527,70.6381 60.2673,70.409 60.9652,70.409 C61.4652,70.409 61.8845,70.6173 62.223,71.034 C62.5616,71.4506 62.7308,71.9298 62.7308,72.4715 C62.7308,72.8048 62.6215,73.1642 62.4027,73.5496 C62.1944,73.8934 61.9756,74.1642 61.7465,74.3621 C61.6111,74.4663 61.2777,74.7267 60.7465,75.1434 C60.5902,75.2579 60.4053,75.3934 60.1918,75.5496 C59.9782,75.7059 59.8454,75.8048 59.7933,75.8465 C59.6996,75.8986 59.6111,76.0027 59.5277,76.159 C59.4444,76.2944 59.3402,76.4038 59.2152,76.4871 C59.1319,76.5704 59.0251,76.6121 58.8949,76.6121 C58.7647,76.6121 58.6579,76.5652 58.5746,76.4715 C58.4808,76.3777 58.434,76.2527 58.434,76.0965"/>
<path class="TimeSig" d="M82.4621,125.3 C82.1288,125.3 81.7902,125.169 81.4465,124.909 C81.1236,124.659 80.9621,124.294 80.9621,123.815 C80.9621,123.409 81.0975,123.05 81.3684,122.737 C81.6288,122.425 81.9725,122.268 82.3996,122.268 C82.5454,122.268 82.6392,122.274 82.6809,122.284 C82.0767,121.524 81.2746,121.128 80.2746,121.097 C79.5246,121.097 78.9517,121.31 78.5559,121.737 C78.4309,121.914 78.3163,122.19 78.2121,122.565 C78.1079,122.94 78.0559,123.279 78.0559,123.581 C78.0246,123.789 78.009,124.206 78.009,124.831 L78.009,126.862 C78.009,127.487 78.0246,127.909 78.0559,128.128 C78.1079,128.982 78.2746,129.591 78.5559,129.956 C78.9621,130.393 79.535,130.612 80.2746,130.612 C81.0559,130.612 81.7225,130.326 82.2746,129.753 C82.8267,129.19 83.2173,128.466 83.4465,127.581 C83.4777,127.456 83.5559,127.393 83.6809,127.393 C83.8475,127.393 83.9309,127.472 83.9309,127.628 C83.9309,127.722 83.8892,127.899 83.8059,128.159 C83.6288,128.742 83.2746,129.357 82.7434,130.003 C82.0975,130.732 81.2746,131.097 80.2746,131.097 C79.6913,131.097 79.0923,131.013 78.4777,130.847 C77.884,130.638 77.3579,130.352 76.8996,129.987 C76.3892,129.581 75.9934,129.034 75.7121,128.347 C75.4204,127.597 75.2746,126.763 75.2746,125.847 C75.2746,124.253 75.7069,122.987 76.5715,122.05 C77.4048,121.091 78.6392,120.612 80.2746,120.612 C81.3475,120.612 82.1965,120.977 82.8215,121.706 C83.4673,122.435 83.7902,123.159 83.7902,123.878 C83.7902,124.294 83.66,124.633 83.3996,124.893 C83.1704,125.164 82.8579,125.3 82.4621,125.3"/>
<path class="TimeSig" d="M82.4621,72.7996 C82.1288,72.7996 81.7902,72.6694 81.4465,72.409 C81.1236,72.159 80.9621,71.7944 80.9621,71.3152 C80.9621,70.909 81.0975,70.5496 81.3684,70.2371 C81.6288,69.9246 81.9725,69.7684 82.3996,69.7684 C82.5454,69.7684 82.6392,69.7736 82.6809,69.784 C82.0767,69.0236 81.2746,68.6277 80.2746,68.5965 C79.5246,68.5965 78.9517,68.81 78.5559,69.2371 C78.4309,69.4142 78.3163,69.6902 78.2121,70.0652 C78.1079,70.4402 78.0559,70.7788 78.0559,71.0809 C78.0246,71.2892 78.009,71.7059 78.009,72.3309 L78.009,74.3621 C78.009,74.9871 78.0246,75.409 78.0559,75.6277 C78.1079,76.4819 78.2746,77.0913 78.5559,77.4559 C78.9621,77.8934 79.535,78.1121 80.2746,78.1121 C81.0559,78.1121 81.7225,77.8256 82.2746,77.2527 C82.8267,76.6902 83.2173,75.9663 83.4465,75.0809 C83.4777,74.9559 83.5559,74.8934 83.6809,74.8934 C83.8475,74.8934 83.9309,74.9715 83.9309,75.1277 C83.9309,75.2215 83.8892,75.3986 83.8059,75.659 C83.6288,76.2423 83.2746,76.8569 82.7434,77.5027 C82.0975,78.2319 81.2746,78.5965 80.2746,78.5965 C79.6913,78.5965 79.0923,78.5131 78.4777,78.3465 C77.884,78.1381 77.3579,77.8517 76.8996,77.4871 C76.3892,77.0809 75.9934,76.534 75.7121,75.8465 C75.4204,75.0965 75.2746,74.2631 75.2746,73.3465 C75.2746,71.7527 75.7069,70.4871 76.5715,69.5496 C77.4048,68.5913 78.6392,68.1121 80.2746,68.1121 C81.3475,68.1121 82.1965,68.4767 82.8215,69.2059 C83.4673,69.935 83.7902,70.659 83.7902,71.3777 C83.7902,71.7944 83.66,72.1329 83.3996,72.3934 C83.1704,72.6642 82.8579,72.7996 82.4621,72.7996"/>
<path class="Rest" d="M526.253,123.972 L519.144,123.972 C519.008,123.972 518.941,123.909 518.941,123.784 L518.941,121.05 C518.941,120.914 519.008,120.847 519.144,120.847 L526.253,120.847 C526.378,120.847 526.441,120.914 526.441,121.05 L526.441,123.784 C526.441,123.909 526.378,123.972 526.253,123.972"/>
<path class="Rest" d="M526.253,71.4715 L519.144,71.4715 C519.008,71.4715 518.941,71.409 518.941,71.284 L518.941,68.5496 C518.941,68.4142 519.008,68.3465 519.144,68.3465 L526.253,68.3465 C526.378,68.3465 526.441,68.4142 526.441,68.5496 L526.441,71.284 C526.441,71.409 526.378,71.4715 526.253,71.4715"/>
<path class="Rest" d="M447.247,123.972 L440.138,123.972 C440.002,123.972 439.935,123.909 439.935,123.784 L439.935,121.05 C439.935,120.914 440.002,120.847 440.138,120.847 L447.247,120.847 C447.372,120.847 447.435,120.914 447.435,121.05 L447.435,123.784 C447.435,123.909 447.372,123.972 447.247,123.972"/>
<path class="Rest" d="M447.247,71.4715 L440.138,71.4715 C440.002,71.4715 439.935,71.409 439.935,71.284 L439.935,68.5496 C439.935,68.4142 440.002,68.3465 440.138,68.3465 L447.247,68.3465 C447.372,68.3465 447.435,68.4142 447.435,68.5496 L447.435,71.284 C447.435,71.409 447.372,71.4715 447.247,71.4715"/>
<path class="Rest" d="M368.241,123.972 L361.132,123.972 C360.996,123.972 360.929,123.909 360.929,123.784 L360.929,121.05 C360.929,120.914 360.996,120.847 361.132,120.847 L368.241,120.847 C368.366,120.847 368.429,120.914 368.429,121.05 L368.429,123.784 C368.429,123.909 368.366,123.972 368.241,123.972"/>
<path class="Rest" d="M368.241,71.4715 L361.132,71.4715 C360.996,71.4715 360.929,71.409 360.929,71.284 L360.929,68.5496 C360.929,68.4142 360.996,68.3465 361.132,68.3465 L368.241,68.3465 C368.366,68.3465 368.429,68.4142 368.429,68.5496 L368.429,71.284 C368.429,71.409 368.366,71.4715 368.241,71.4715"/>
<path class="Rest" d="M300.651,124.284 C300.651,124.044 300.786,123.784 301.057,123.503 C301.245,123.294 301.531,123.044 301.916,122.753 C302.198,122.565 302.474,122.274 302.745,121.878 C303.005,121.503 303.135,121.091 303.135,120.643 C303.135,120.123 302.968,119.664 302.635,119.268 L301.932,118.425 C301.88,118.373 301.854,118.307 301.854,118.229 C301.854,118.151 301.89,118.081 301.963,118.018 C302.057,117.945 302.135,117.909 302.198,117.909 C302.291,117.909 302.364,117.951 302.416,118.034 L305.448,121.628 C305.573,121.794 305.635,121.961 305.635,122.128 C305.635,122.367 305.505,122.628 305.245,122.909 C305.078,123.097 304.802,123.347 304.416,123.659 C304.114,123.836 303.828,124.128 303.557,124.534 C303.297,124.909 303.166,125.32 303.166,125.768 C303.166,126.32 303.323,126.784 303.635,127.159 L305.307,129.128 C305.349,129.169 305.38,129.237 305.401,129.331 C305.401,129.414 305.37,129.492 305.307,129.565 C305.213,129.628 305.135,129.659 305.073,129.659 C305.052,129.659 304.948,129.586 304.76,129.44 C304.562,129.284 304.302,129.133 303.979,128.987 C303.614,128.852 303.255,128.784 302.901,128.784 C302.578,128.784 302.312,128.873 302.104,129.05 C301.927,129.237 301.838,129.591 301.838,130.112 C301.838,130.904 302.026,131.529 302.401,131.987 C302.442,132.039 302.448,132.102 302.416,132.175 C302.396,132.227 302.349,132.253 302.276,132.253 C302.192,132.253 301.995,132.018 301.682,131.55 C301.349,131.06 301.041,130.492 300.76,129.847 C300.458,129.169 300.307,128.612 300.307,128.175 C300.307,127.612 300.573,127.331 301.104,127.331 C301.718,127.331 302.515,127.539 303.495,127.956 L300.854,124.784 C300.718,124.617 300.651,124.451 300.651,124.284"/>
<path class="Rest" d="M300.651,71.784 C300.651,71.5444 300.786,71.284 301.057,71.0027 C301.245,70.7944 301.531,70.5444 301.916,70.2527 C302.198,70.0652 302.474,69.7736 302.745,69.3777 C303.005,69.0027 303.135,68.5913 303.135,68.1434 C303.135,67.6225 302.968,67.1642 302.635,66.7684 L301.932,65.9246 C301.88,65.8725 301.854,65.8074 301.854,65.7293 C301.854,65.6512 301.89,65.5809 301.963,65.5184 C302.057,65.4454 302.135,65.409 302.198,65.409 C302.291,65.409 302.364,65.4506 302.416,65.534 L305.448,69.1277 C305.573,69.2944 305.635,69.4611 305.635,69.6277 C305.635,69.8673 305.505,70.1277 305.245,70.409 C305.078,70.5965 304.802,70.8465 304.416,71.159 C304.114,71.3361 303.828,71.6277 303.557,72.034 C303.297,72.409 303.166,72.8204 303.166,73.2684 C303.166,73.8204 303.323,74.284 303.635,74.659 L305.307,76.6277 C305.349,76.6694 305.38,76.7371 305.401,76.8309 C305.401,76.9142 305.37,76.9923 305.307,77.0652 C305.213,77.1277 305.135,77.159 305.073,77.159 C305.052,77.159 304.948,77.0861 304.76,76.9402 C304.562,76.784 304.302,76.6329 303.979,76.4871 C303.614,76.3517 303.255,76.284 302.901,76.284 C302.578,76.284 302.312,76.3725 302.104,76.5496 C301.927,76.7371 301.838,77.0913 301.838,77.6121 C301.838,78.4038 302.026,79.0288 302.401,79.4871 C302.442,79.5392 302.448,79.6017 302.416,79.6746 C302.396,79.7267 302.349,79.7527 302.276,79.7527 C302.192,79.7527 301.995,79.5184 301.682,79.0496 C301.349,78.56 301.041,77.9923 300.76,77.3465 C300.458,76.6694 300.307,76.1121 300.307,75.6746 C300.307,75.1121 300.573,74.8309 301.104,74.8309 C301.718,74.8309 302.515,75.0392 303.495,75.4559 L300.854,72.284 C300.718,72.1173 300.651,71.9506 300.651,71.784"/>
<path class="Rest" d="M282.417,121.737 C282.792,121.737 283.079,121.841 283.277,122.05 C283.475,122.289 283.579,122.513 283.589,122.722 C283.62,122.919 283.688,123.138 283.792,123.378 C283.907,123.586 284.053,123.69 284.23,123.69 C284.376,123.69 284.594,123.529 284.886,123.206 C285.146,122.925 285.334,122.669 285.449,122.44 C285.511,122.315 285.6,122.253 285.714,122.253 L285.745,122.253 C285.87,122.263 285.959,122.326 286.011,122.44 L283.558,130.847 C283.422,130.982 283.238,131.05 283.003,131.05 C282.769,131.05 282.589,130.982 282.464,130.847 L284.808,124.315 C283.975,124.617 283.271,124.768 282.699,124.768 C282.23,124.768 281.824,124.617 281.48,124.315 C281.126,124.034 280.949,123.659 280.949,123.19 C280.949,122.784 281.094,122.445 281.386,122.175 C281.667,121.883 282.011,121.737 282.417,121.737"/>
<path class="Rest" d="M282.417,69.2371 C282.792,69.2371 283.079,69.3413 283.277,69.5496 C283.475,69.7892 283.579,70.0131 283.589,70.2215 C283.62,70.4194 283.688,70.6381 283.792,70.8777 C283.907,71.0861 284.053,71.1902 284.23,71.1902 C284.376,71.1902 284.594,71.0288 284.886,70.7059 C285.146,70.4246 285.334,70.1694 285.449,69.9402 C285.511,69.8152 285.6,69.7527 285.714,69.7527 L285.745,69.7527 C285.87,69.7631 285.959,69.8256 286.011,69.9402 L283.558,78.3465 C283.422,78.4819 283.238,78.5496 283.003,78.5496 C282.769,78.5496 282.589,78.4819 282.464,78.3465 L284.808,71.8152 C283.975,72.1173 283.271,72.2684 282.699,72.2684 C282.23,72.2684 281.824,72.1173 281.48,71.8152 C281.126,71.534 280.949,71.159 280.949,70.6902 C280.949,70.284 281.094,69.9454 281.386,69.6746 C281.667,69.3829 282.011,69.2371 282.417,69.2371"/>
<path class="Rest" d="M200.535,121.737 C200.91,121.737 201.196,121.841 201.394,122.05 C201.592,122.289 201.696,122.513 201.707,122.722 C201.738,122.919 201.806,123.138 201.91,123.378 C202.024,123.586 202.17,123.69 202.347,123.69 C202.493,123.69 202.712,123.529 203.003,123.206 C203.264,122.925 203.451,122.669 203.566,122.44 C203.628,122.315 203.717,122.253 203.832,122.253 L203.863,122.253 C203.988,122.263 204.076,122.326 204.128,122.44 L201.675,130.847 C201.54,130.982 201.355,131.05 201.121,131.05 C200.886,131.05 200.707,130.982 200.582,130.847 L202.925,124.315 C202.092,124.617 201.389,124.768 200.816,124.768 C200.347,124.768 199.941,124.617 199.597,124.315 C199.243,124.034 199.066,123.659 199.066,123.19 C199.066,122.784 199.212,122.445 199.503,122.175 C199.785,121.883 200.128,121.737 200.535,121.737"/>
<path class="Rest" d="M115.027,121.737 C115.402,121.737 115.688,121.841 115.886,122.05 C116.084,122.289 116.188,122.513 116.199,122.722 C116.23,122.919 116.298,123.138 116.402,123.378 C116.516,123.586 116.662,123.69 116.839,123.69 C116.985,123.69 117.204,123.529 117.496,123.206 C117.756,122.925 117.944,122.669 118.058,122.44 C118.121,122.315 118.209,122.253 118.324,122.253 L118.355,122.253 C118.48,122.263 118.569,122.326 118.621,122.44 L116.167,130.847 C116.032,130.982 115.847,131.05 115.613,131.05 C115.378,131.05 115.199,130.982 115.074,130.847 L117.417,124.315 C116.584,124.617 115.881,124.768 115.308,124.768 C114.839,124.768 114.433,124.617 114.089,124.315 C113.735,124.034 113.558,123.659 113.558,123.19 C113.558,122.784 113.704,122.445 113.996,122.175 C114.277,121.883 114.621,121.737 115.027,121.737"/>
<path class="Articulation" d="M248.971,51.5457 C248.773,51.3478 248.674,51.1134 248.674,50.8426 C248.674,50.5717 248.773,50.3374 248.971,50.1394 C249.169,49.9415 249.403,49.8426 249.674,49.8426 C249.945,49.8426 250.179,49.9415 250.377,50.1394 C250.575,50.3374 250.674,50.5717 250.674,50.8426 C250.674,51.1134 250.575,51.3478 250.377,51.5457 C250.179,51.7436 249.945,51.8426 249.674,51.8426 C249.403,51.8426 249.169,51.7436 248.971,51.5457"/>
<path class="Articulation" d="M233.441,51.5457 C233.243,51.3478 233.144,51.1134 233.144,50.8426 C233.144,50.5717 233.243,50.3374 233.441,50.1394 C233.639,49.9415 233.874,49.8426 234.144,49.8426 C234.415,49.8426 234.65,49.9415 234.848,50.1394 C235.045,50.3374 235.144,50.5717 235.144,50.8426 C235.144,51.1134 235.045,51.3478 234.848,51.5457 C234.65,51.7436 234.415,51.8426 234.144,51.8426 C233.874,51.8426 233.639,51.7436 233.441,51.5457"/>
<path class="Articulation" d="M217.912,51.5457 C217.714,51.3478 217.615,51.1134 217.615,50.8426 C217.615,50.5717 217.714,50.3374 217.912,50.1394 C218.11,49.9415 218.344,49.8426 218.615,49.8426 C218.886,49.8426 219.12,49.9415 219.318,50.1394 C219.516,50.3374 219.615,50.5717 219.615,50.8426 C219.615,51.1134 219.516,51.3478 219.318,51.5457 C219.12,51.7436 218.886,51.8426 218.615,51.8426 C218.344,51.8426 218.11,51.7436 217.912,51.5457"/>
<path class="Articulation" d="M202.382,51.5457 C202.184,51.3478 202.086,51.1134 202.086,50.8426 C202.086,50.5717 202.184,50.3374 202.382,50.1394 C202.58,49.9415 202.815,49.8426 203.086,49.8426 C203.356,49.8426 203.591,49.9415 203.789,50.1394 C203.987,50.3374 204.086,50.5717 204.086,50.8426 C204.086,51.1134 203.987,51.3478 203.789,51.5457 C203.591,51.7436 203.356,51.8426 203.086,51.8426 C202.815,51.8426 202.58,51.7436 202.382,51.5457"/>
<path class="Beam" fill-rule="evenodd" d="M230.187,144.597 L246.367,144.597 L246.367,147.097 L230.187,147.097 L230.187,144.597 "/>
<path class="Beam" fill-rule="evenodd" d="M230.187,140.847 L246.367,140.847 L246.367,143.347 L230.187,143.347 L230.187,140.847 "/>
<path class="Beam" fill-rule="evenodd" d="M199.128,75.8465 L246.367,80.9162 L246.367,83.4162 L199.128,78.3465 L199.128,75.8465 "/>
<path class="Beam" fill-rule="evenodd" d="M199.128,72.0965 L246.367,77.1662 L246.367,79.6662 L199.128,74.5965 L199.128,72.0965 "/>
<path class="Beam" fill-rule="evenodd" d="M93.8559,85.8465 L185.268,80.8107 L185.268,83.3107 L93.8559,88.3465 L93.8559,85.8465 "/>
<path class="Beam" fill-rule="evenodd" d="M113.621,80.591 L185.268,76.644 L185.268,79.144 L113.621,83.091 L113.621,80.591 "/>
<path class="Beam" fill-rule="evenodd" d="M113.621,76.4243 L185.268,72.4773 L185.268,74.9773 L113.621,78.9243 L113.621,76.4243 "/>
<path class="Beam" fill-rule="evenodd" d="M125.453,71.6058 L185.268,68.3107 L185.268,70.8107 L125.453,74.1058 L125.453,71.6058 "/>
<path class="Hook" d="M265.793,131.378 C266.095,131.378 266.418,131.862 266.762,132.831 C267.085,133.8 267.246,134.722 267.246,135.597 C267.246,136.336 267.064,137.07 266.699,137.8 C266.324,138.581 265.876,139.258 265.356,139.831 L263.746,141.628 C263.257,142.201 262.814,142.862 262.418,143.612 C262.054,144.341 261.871,145.086 261.871,145.847 L261.246,145.847 L261.246,140.847 L261.871,140.847 C262.225,140.628 262.746,140.274 263.434,139.784 C263.746,139.555 264.215,139.164 264.84,138.612 C265.35,138.143 265.736,137.664 265.996,137.175 C266.267,136.654 266.403,136.128 266.403,135.597 C266.403,134.357 266.043,133.123 265.324,131.893 C265.324,131.893 265.324,131.867 265.324,131.815 C265.324,131.701 265.366,131.607 265.449,131.534 C265.554,131.43 265.668,131.378 265.793,131.378"/>
<path class="Hook" d="M265.793,68.8777 C266.095,68.8777 266.418,69.3621 266.762,70.3309 C267.085,71.2996 267.246,72.2215 267.246,73.0965 C267.246,73.8361 267.064,74.5704 266.699,75.2996 C266.324,76.0809 265.876,76.7579 265.356,77.3309 L263.746,79.1277 C263.257,79.7007 262.814,80.3621 262.418,81.1121 C262.054,81.8413 261.871,82.5861 261.871,83.3465 L261.246,83.3465 L261.246,78.3465 L261.871,78.3465 C262.225,78.1277 262.746,77.7736 263.434,77.284 C263.746,77.0548 264.215,76.6642 264.84,76.1121 C265.35,75.6434 265.736,75.1642 265.996,74.6746 C266.267,74.1538 266.403,73.6277 266.403,73.0965 C266.403,71.8569 266.043,70.6225 265.324,69.3934 C265.324,69.3934 265.324,69.3673 265.324,69.3152 C265.324,69.2007 265.366,69.1069 265.449,69.034 C265.554,68.9298 265.668,68.8777 265.793,68.8777"/>
<path class="Hook" d="M99.7887,111.471 L99.7887,106.471 L100.414,106.471 C100.414,107.211 100.56,107.956 100.851,108.706 C101.164,109.508 101.507,110.211 101.882,110.815 C102.153,111.242 102.565,111.899 103.117,112.784 C103.533,113.461 103.885,114.169 104.171,114.909 C104.458,115.649 104.601,116.393 104.601,117.143 C104.601,118.498 104.32,119.878 103.757,121.284 C103.664,121.44 103.539,121.518 103.382,121.518 C103.257,121.518 103.143,121.466 103.039,121.362 C102.955,121.279 102.914,121.18 102.914,121.065 L102.914,120.971 C103.476,119.68 103.757,118.404 103.757,117.143 C103.757,116.487 103.56,115.784 103.164,115.034 C102.778,114.263 102.382,113.649 101.976,113.19 C101.518,112.659 100.997,112.086 100.414,111.471 L99.7887,111.471 "/>
<path class="Bracket" fill-rule="evenodd" d="M36.755,89.1402 C36.755,83.2993 32.7322,77.6218 32.7322,72.0261 C32.7322,69.2077 33.8293,66.4711 37.2122,64.0204 C37.2579,63.9898 37.2807,63.9387 37.2807,63.9081 C37.2807,63.8162 37.0293,63.7345 36.8465,63.7345 C36.755,63.7345 36.595,63.7447 36.4807,63.8162 C32.0922,66.9613 30.6293,70.5965 30.6293,74.2725 C30.6293,80.1951 34.9265,85.9134 34.9265,91.5909 C34.9265,94.4092 33.8293,97.0641 30.4465,99.5148 L30.4465,99.5965 L30.4465,99.6782 C33.8293,102.129 34.9265,104.784 34.9265,107.602 C34.9265,113.28 30.6293,118.998 30.6293,124.92 C30.6293,128.597 32.0922,132.232 36.4807,135.377 C36.595,135.448 36.755,135.458 36.8465,135.458 C37.0293,135.458 37.2807,135.377 37.2807,135.285 C37.2807,135.254 37.2579,135.203 37.2122,135.173 C33.8293,132.722 32.7322,129.985 32.7322,127.167 C32.7322,121.571 36.755,115.894 36.755,110.053 C36.755,106.336 35.2922,102.782 30.995,99.5965 C35.2922,96.4106 36.755,92.8571 36.755,89.1402"/>
</svg>
