<?xml version="1.0" encoding="UTF-8" standalone="no"?>
<svg width="595.44px" height="841.68px" viewBox="0 0 595.44 841.68"
 xmlns="http://www.w3.org/2000/svg" xmlns:xlink="http://www.w3.org/1999/xlink" version="1.2" baseProfile="tiny">
<title>03</title>
<desc>Generated by MuseScore 2.3.2</desc>
<polyline class="StaffLines" fill="none" stroke="#000000" stroke-width="0.40" stroke-linejoin="bevel" points="38.8465,63.3465 567.094,63.3465"/>
<polyline class="StaffLines" fill="none" stroke="#000000" stroke-width="0.40" stroke-linejoin="bevel" points="38.8465,68.3465 567.094,68.3465"/>
<polyline class="StaffLines" fill="none" stroke="#000000" stroke-width="0.40" stroke-linejoin="bevel" points="38.8465,73.3465 567.094,73.3465"/>
<polyline class="StaffLines" fill="none" stroke="#000000" stroke-width="0.40" stroke-linejoin="bevel" points="38.8465,78.3465 567.094,78.3465"/>
<polyline class="StaffLines" fill="none" stroke="#000000" stroke-width="0.40" stroke-linejoin="bevel" points="38.8465,83.3465 567.094,83.3465"/>
<polyline class="StaffLines" fill="none" stroke="#000000" stroke-width="0.40" stroke-linejoin="bevel" points="38.8465,115.847 567.094,115.847"/>
<polyline class="StaffLines" fill="none" stroke="#000000" stroke-width="0.40" stroke-linejoin="bevel" points="38.8465,120.847 567.094,120.847"/>
<polyline class="StaffLines" fill="none" stroke="#000000" stroke-width="0.40" stroke-linejoin="bevel" points="38.8465,125.847 567.094,125.847"/>
<polyline class="StaffLines" fill="none" stroke="#000000" stroke-width="0.40" stroke-linejoin="bevel" points="38.8465,130.847 567.094,130.847"/>
<polyline class="StaffLines" fill="none" stroke="#000000" stroke-width="0.40" stroke-linejoin="bevel" points="38.8465,135.847 567.094,135.847"/>
<polyline class="BarLine" fill="none" stroke="#000000" stroke-width="0.80" stroke-linejoin="bevel" points="39.2465,63.3465 39.2465,135.847"/>
<polyline class="BarLine" fill="none" stroke="#000000" stroke-width="0.80" stroke-linejoin="bevel" points="562.194,63.3465 562.194,135.847"/>
<polyline class="BarLine" fill="none" stroke="#000000" stroke-width="2.50" stroke-linejoin="bevel" points="565.844,63.3465 565.844,135.847"/>
<polyline class="BarLine" fill="none" stroke="#000000" stroke-width="0.80" stroke-linejoin="bevel" points="514.254,63.3465 514.254,135.847"/>
<polyline class="BarLine" fill="none" stroke="#000000" stroke-width="0.80" stroke-linejoin="bevel" points="466.315,63.3465 466.315,135.847"/>
<polyline class="BarLine" fill="none" stroke="#000000" stroke-width="0.80" stroke-linejoin="bevel" points="418.375,63.3465 418.375,135.847"/>
<polyline class="BarLine" fill="none" stroke="#000000" stroke-width="0.80" stroke-linejoin="bevel" points="370.436,63.3465 370.436,135.847"/>
<polyline class="BarLine" fill="none" stroke="#000000" stroke-width="0.80" stroke-linejoin="bevel" points="322.496,63.3465 322.496,135.847"/>
<polyline class="BarLine" fill="none" stroke="#000000" stroke-width="0.80" stroke-linejoin="bevel" points="235.661,63.3465 235.661,135.847"/>
<polyline class="BarLine" fill="none" stroke="#000000" stroke-width="0.80" stroke-linejoin="bevel" points="153.242,63.3465 153.242,135.847"/>
<path class="Accidental" d="M239.582,82.5184 L239.582,84.0652 C239.582,84.6173 239.609,85.0548 239.661,85.3777 C240.088,85.0132 240.395,84.7423 240.582,84.5652 C240.791,84.3569 240.999,84.0678 241.207,83.698 C241.416,83.3283 241.52,82.9611 241.52,82.5965 C241.52,82.2319 241.442,81.9194 241.286,81.659 C241.129,81.3986 240.921,81.2684 240.661,81.2684 C240.348,81.2684 240.088,81.3882 239.879,81.6277 C239.681,81.8882 239.582,82.185 239.582,82.5184 M238.754,86.0965 L238.504,74.2059 C238.692,74.1017 238.877,74.0496 239.059,74.0496 C239.241,74.0496 239.421,74.1017 239.598,74.2059 L239.442,81.0965 C239.973,80.6382 240.588,80.409 241.286,80.409 C241.786,80.409 242.205,80.6173 242.543,81.034 C242.882,81.4507 243.051,81.9298 243.051,82.4715 C243.051,82.8048 242.942,83.1642 242.723,83.5496 C242.515,83.8934 242.296,84.1642 242.067,84.3621 C241.931,84.4663 241.598,84.7267 241.067,85.1434 C240.911,85.2579 240.726,85.3934 240.512,85.5496 C240.299,85.7059 240.166,85.8048 240.114,85.8465 C240.02,85.8986 239.931,86.0027 239.848,86.159 C239.765,86.2944 239.661,86.4038 239.536,86.4871 C239.452,86.5704 239.346,86.6121 239.215,86.6121 C239.085,86.6121 238.978,86.5652 238.895,86.4715 C238.801,86.3777 238.754,86.2527 238.754,86.0965"/>
<path class="Accidental" d="M211.667,65.8465 C211.833,65.7527 212.003,65.7059 212.175,65.7059 C212.346,65.7059 212.516,65.7527 212.682,65.8465 L212.62,69.5027 L214.761,69.1121 L214.839,69.1121 C215.068,69.1121 215.182,69.2215 215.182,69.4402 L215.323,80.8465 C215.156,80.9402 214.987,80.9871 214.815,80.9871 C214.643,80.9871 214.474,80.9402 214.307,80.8465 L214.37,77.1902 L212.261,77.5809 L212.182,77.5809 C211.943,77.5809 211.823,77.4715 211.823,77.2527 L211.667,65.8465 M214.386,75.2371 L214.448,71.0965 L212.604,71.4559 L212.542,75.5965 L214.386,75.2371 "/>
<path class="Accidental" d="M173.948,75.8465 C174.114,75.7527 174.284,75.7059 174.456,75.7059 C174.627,75.7059 174.797,75.7527 174.963,75.8465 L174.901,79.5027 L177.042,79.1121 L177.12,79.1121 C177.349,79.1121 177.463,79.2215 177.463,79.4402 L177.604,90.8465 C177.437,90.9402 177.268,90.9871 177.096,90.9871 C176.924,90.9871 176.755,90.9402 176.588,90.8465 L176.651,87.1902 L174.542,87.5809 L174.463,87.5809 C174.224,87.5809 174.104,87.4715 174.104,87.2527 L173.948,75.8465 M176.667,85.2371 L176.729,81.0965 L174.885,81.4559 L174.823,85.5965 L176.667,85.2371 "/>
<path class="Accidental" d="M133.112,75.8465 C133.279,75.7527 133.448,75.7059 133.62,75.7059 C133.792,75.7059 133.961,75.7527 134.127,75.8465 L134.065,79.5027 L136.206,79.1121 L136.284,79.1121 C136.513,79.1121 136.627,79.2215 136.627,79.4402 L136.768,90.8465 C136.601,90.9402 136.432,90.9871 136.26,90.9871 C136.088,90.9871 135.919,90.9402 135.752,90.8465 L135.815,87.1902 L133.706,87.5809 L133.627,87.5809 C133.388,87.5809 133.268,87.4715 133.268,87.2527 L133.112,75.8465 M135.831,85.2371 L135.893,81.0965 L134.049,81.4559 L133.987,85.5965 L135.831,85.2371 "/>
<polyline class="LedgerLine" fill="none" stroke="#000000" stroke-width="0.80" stroke-linecap="square" stroke-linejoin="bevel" points="298.317,140.847 307.9,140.847"/>
<polyline class="LedgerLine" fill="none" stroke="#000000" stroke-width="0.80" stroke-linecap="square" stroke-linejoin="bevel" points="298.317,145.847 307.9,145.847"/>
<polyline class="LedgerLine" fill="none" stroke="#000000" stroke-width="0.80" stroke-linecap="square" stroke-linejoin="bevel" points="276.924,140.847 286.507,140.847"/>
<polyline class="LedgerLine" fill="none" stroke="#000000" stroke-width="0.80" stroke-linecap="square" stroke-linejoin="bevel" points="276.924,145.847 286.507,145.847"/>
<polyline class="LedgerLine" fill="none" stroke="#000000" stroke-width="0.80" stroke-linecap="square" stroke-linejoin="bevel" points="242.515,140.847 252.458,140.847"/>
<polyline class="LedgerLine" fill="none" stroke="#000000" stroke-width="0.80" stroke-linecap="square" stroke-linejoin="bevel" points="242.515,145.847 252.458,145.847"/>
<polyline class="LedgerLine" fill="none" stroke="#000000" stroke-width="0.80" stroke-linecap="square" stroke-linejoin="bevel" points="195.861,140.847 205.805,140.847"/>
<polyline class="LedgerLine" fill="none" stroke="#000000" stroke-width="0.80" stroke-linecap="square" stroke-linejoin="bevel" points="195.861,145.847 205.805,145.847"/>
<polyline class="LedgerLine" fill="none" stroke="#000000" stroke-width="0.80" stroke-linecap="square" stroke-linejoin="bevel" points="158.142,140.847 168.086,140.847"/>
<polyline class="LedgerLine" fill="none" stroke="#000000" stroke-width="0.80" stroke-linecap="square" stroke-linejoin="bevel" points="158.142,145.847 168.086,145.847"/>
<polyline class="LedgerLine" fill="none" stroke="#000000" stroke-width="0.80" stroke-linecap="square" stroke-linejoin="bevel" points="158.323,88.3465 167.906,88.3465"/>
<polyline class="LedgerLine" fill="none" stroke="#000000" stroke-width="0.80" stroke-linecap="square" stroke-linejoin="bevel" points="158.323,93.3465 167.906,93.3465"/>
<polyline class="LedgerLine" fill="none" stroke="#000000" stroke-width="0.80" stroke-linecap="square" stroke-linejoin="bevel" points="136.346,88.3465 145.929,88.3465"/>
<polyline class="LedgerLine" fill="none" stroke="#000000" stroke-width="0.80" stroke-linecap="square" stroke-linejoin="bevel" points="121.17,140.847 131.113,140.847"/>
<polyline class="LedgerLine" fill="none" stroke="#000000" stroke-width="0.80" stroke-linecap="square" stroke-linejoin="bevel" points="121.17,145.847 131.113,145.847"/>
<polyline class="LedgerLine" fill="none" stroke="#000000" stroke-width="0.80" stroke-linecap="square" stroke-linejoin="bevel" points="91.1777,140.847 101.121,140.847"/>
<polyline class="LedgerLine" fill="none" stroke="#000000" stroke-width="0.80" stroke-linecap="square" stroke-linejoin="bevel" points="91.1777,145.847 101.121,145.847"/>
<polyline class="LedgerLine" fill="none" stroke="#000000" stroke-width="0.80" stroke-linecap="square" stroke-linejoin="bevel" points="91.1777,88.3465 101.121,88.3465"/>
<polyline class="Stem" fill="none" stroke="#000000" stroke-width="0.65" stroke-linecap="round" stroke-linejoin="bevel" points="316.771,127.407 316.771,115.847"/>
<polyline class="Stem" fill="none" stroke="#000000" stroke-width="0.65" stroke-linecap="round" stroke-linejoin="bevel" points="306.075,144.907 306.075,115.847"/>
<polyline class="Stem" fill="none" stroke="#000000" stroke-width="0.65" stroke-linecap="round" stroke-linejoin="bevel" points="295.378,127.407 295.378,115.847"/>
<polyline class="Stem" fill="none" stroke="#000000" stroke-width="0.65" stroke-linecap="round" stroke-linejoin="bevel" points="284.682,144.907 284.682,115.847"/>
<polyline class="Stem" fill="none" stroke="#000000" stroke-width="0.65" stroke-linecap="round" stroke-linejoin="bevel" points="267.748,127.579 267.748,110.847"/>
<polyline class="Stem" fill="none" stroke="#000000" stroke-width="0.65" stroke-linecap="round" stroke-linejoin="bevel" points="250.633,145.079 250.633,125.847"/>
<polyline class="Stem" fill="none" stroke="#000000" stroke-width="0.65" stroke-linecap="round" stroke-linejoin="bevel" points="250.453,82.4074 250.453,55.8465"/>
<polyline class="Stem" fill="none" stroke="#000000" stroke-width="0.65" stroke-linecap="round" stroke-linejoin="bevel" points="222.839,127.579 222.839,110.847"/>
<polyline class="Stem" fill="none" stroke="#000000" stroke-width="0.65" stroke-linecap="round" stroke-linejoin="bevel" points="222.659,84.9074 222.659,57.7215"/>
<polyline class="Stem" fill="none" stroke="#000000" stroke-width="0.65" stroke-linecap="round" stroke-linejoin="bevel" points="203.98,145.079 203.98,125.847"/>
<polyline class="Stem" fill="none" stroke="#000000" stroke-width="0.65" stroke-linecap="round" stroke-linejoin="bevel" points="203.799,79.9074 203.799,59.5965"/>
<polyline class="Stem" fill="none" stroke="#000000" stroke-width="0.65" stroke-linecap="round" stroke-linejoin="bevel" points="185.12,127.579 185.12,110.847"/>
<polyline class="Stem" fill="none" stroke="#000000" stroke-width="0.65" stroke-linecap="round" stroke-linejoin="bevel" points="184.94,82.4074 184.94,61.4715"/>
<polyline class="Stem" fill="none" stroke="#000000" stroke-width="0.65" stroke-linecap="round" stroke-linejoin="bevel" points="166.261,145.079 166.261,125.847"/>
<polyline class="Stem" fill="none" stroke="#000000" stroke-width="0.65" stroke-linecap="round" stroke-linejoin="bevel" points="166.081,92.4074 166.081,63.3465"/>
<polyline class="Stem" fill="none" stroke="#000000" stroke-width="0.65" stroke-linecap="round" stroke-linejoin="bevel" points="144.285,127.579 144.285,110.847"/>
<polyline class="Stem" fill="none" stroke="#000000" stroke-width="0.65" stroke-linecap="round" stroke-linejoin="bevel" points="144.104,89.9074 144.104,65.8465"/>
<polyline class="Stem" fill="none" stroke="#000000" stroke-width="0.65" stroke-linecap="round" stroke-linejoin="bevel" points="129.288,145.079 129.288,125.847"/>
<polyline class="Stem" fill="none" stroke="#000000" stroke-width="0.65" stroke-linecap="round" stroke-linejoin="bevel" points="114.292,127.579 114.292,110.847"/>
<polyline class="Stem" fill="none" stroke="#000000" stroke-width="0.65" stroke-linecap="round" stroke-linejoin="bevel" points="99.2965,145.079 99.2965,125.847"/>
<polyline class="Stem" fill="none" stroke="#000000" stroke-width="0.65" stroke-linecap="round" stroke-linejoin="bevel" points="99.2965,87.5785 99.2965,70.8465"/>
<path class="Note" d="M314.904,125.597 C315.529,125.597 316.06,125.758 316.498,126.081 C316.894,126.435 317.092,126.878 317.092,127.409 C317.092,128.305 316.633,129.143 315.717,129.925 C314.779,130.706 313.774,131.097 312.701,131.097 C312.076,131.097 311.55,130.935 311.123,130.612 C310.717,130.258 310.513,129.815 310.513,129.284 C310.513,128.388 310.982,127.55 311.92,126.768 C312.836,125.987 313.831,125.597 314.904,125.597"/>
<path class="Note" d="M304.207,143.097 C304.832,143.097 305.364,143.258 305.801,143.581 C306.197,143.935 306.395,144.378 306.395,144.909 C306.395,145.805 305.937,146.643 305.02,147.425 C304.082,148.206 303.077,148.597 302.004,148.597 C301.379,148.597 300.853,148.435 300.426,148.112 C300.02,147.758 299.817,147.315 299.817,146.784 C299.817,145.888 300.286,145.05 301.223,144.268 C302.14,143.487 303.135,143.097 304.207,143.097"/>
<path class="Note" d="M293.511,125.597 C294.136,125.597 294.667,125.758 295.105,126.081 C295.501,126.435 295.698,126.878 295.698,127.409 C295.698,128.305 295.24,129.143 294.323,129.925 C293.386,130.706 292.381,131.097 291.308,131.097 C290.683,131.097 290.157,130.935 289.73,130.612 C289.323,130.258 289.12,129.815 289.12,129.284 C289.12,128.388 289.589,127.55 290.527,126.768 C291.443,125.987 292.438,125.597 293.511,125.597"/>
<path class="Note" d="M282.814,143.097 C283.439,143.097 283.971,143.258 284.408,143.581 C284.804,143.935 285.002,144.378 285.002,144.909 C285.002,145.805 284.544,146.643 283.627,147.425 C282.689,148.206 281.684,148.597 280.611,148.597 C279.986,148.597 279.46,148.435 279.033,148.112 C278.627,147.758 278.424,147.315 278.424,146.784 C278.424,145.888 278.893,145.05 279.83,144.268 C280.747,143.487 281.742,143.097 282.814,143.097"/>
<path class="Note" d="M267.441,127.034 C267.441,126.815 267.358,126.628 267.191,126.472 C267.014,126.305 266.816,126.222 266.598,126.222 C266.212,126.222 265.426,126.612 264.238,127.393 C263.009,128.185 262.259,128.753 261.988,129.097 C261.842,129.274 261.77,129.461 261.77,129.659 C261.77,129.878 261.858,130.065 262.035,130.222 C262.191,130.388 262.384,130.472 262.613,130.472 C262.988,130.472 263.785,130.081 265.004,129.3 C266.202,128.518 266.941,127.951 267.223,127.597 C267.369,127.43 267.441,127.242 267.441,127.034 M266.41,125.597 C267.525,125.597 268.082,126.076 268.082,127.034 C268.082,127.503 267.947,128.05 267.676,128.675 C267.405,129.289 267.04,129.758 266.582,130.081 C265.582,130.758 264.327,131.097 262.816,131.097 C261.691,131.097 261.129,130.617 261.129,129.659 C261.129,129.232 261.264,128.69 261.535,128.034 C261.796,127.409 262.16,126.935 262.629,126.612 C263.639,125.935 264.9,125.597 266.41,125.597"/>
<path class="Note" d="M250.327,144.534 C250.327,144.315 250.244,144.128 250.077,143.972 C249.9,143.805 249.702,143.722 249.483,143.722 C249.098,143.722 248.311,144.112 247.124,144.893 C245.895,145.685 245.145,146.253 244.874,146.597 C244.728,146.774 244.655,146.961 244.655,147.159 C244.655,147.378 244.744,147.565 244.921,147.722 C245.077,147.888 245.27,147.972 245.499,147.972 C245.874,147.972 246.671,147.581 247.89,146.8 C249.087,146.018 249.827,145.451 250.108,145.097 C250.254,144.93 250.327,144.742 250.327,144.534 M249.296,143.097 C250.41,143.097 250.968,143.576 250.968,144.534 C250.968,145.003 250.832,145.55 250.561,146.175 C250.291,146.789 249.926,147.258 249.468,147.581 C248.468,148.258 247.212,148.597 245.702,148.597 C244.577,148.597 244.015,148.117 244.015,147.159 C244.015,146.732 244.15,146.19 244.421,145.534 C244.681,144.909 245.046,144.435 245.515,144.112 C246.525,143.435 247.785,143.097 249.296,143.097"/>
<path class="Note" d="M248.586,68.0965 C249.211,68.0965 249.742,68.2579 250.179,68.5809 C250.575,68.935 250.773,69.3777 250.773,69.909 C250.773,70.8048 250.315,71.6434 249.398,72.4246 C248.461,73.2059 247.455,73.5965 246.382,73.5965 C245.757,73.5965 245.231,73.435 244.804,73.1121 C244.398,72.7579 244.195,72.3152 244.195,71.784 C244.195,70.8881 244.664,70.0496 245.601,69.2684 C246.518,68.4871 247.513,68.0965 248.586,68.0965"/>
<path class="Note" d="M248.586,80.5965 C249.211,80.5965 249.742,80.7579 250.179,81.0809 C250.575,81.435 250.773,81.8777 250.773,82.409 C250.773,83.3048 250.315,84.1434 249.398,84.9246 C248.461,85.7059 247.455,86.0965 246.382,86.0965 C245.757,86.0965 245.231,85.935 244.804,85.6121 C244.398,85.2579 244.195,84.8152 244.195,84.284 C244.195,83.3882 244.664,82.5496 245.601,81.7684 C246.518,80.9871 247.513,80.5965 248.586,80.5965"/>
<path class="Note" d="M222.533,127.034 C222.533,126.815 222.45,126.628 222.283,126.472 C222.106,126.305 221.908,126.222 221.689,126.222 C221.304,126.222 220.518,126.612 219.33,127.393 C218.101,128.185 217.351,128.753 217.08,129.097 C216.934,129.274 216.861,129.461 216.861,129.659 C216.861,129.878 216.95,130.065 217.127,130.222 C217.283,130.388 217.476,130.472 217.705,130.472 C218.08,130.472 218.877,130.081 220.096,129.3 C221.294,128.518 222.033,127.951 222.314,127.597 C222.46,127.43 222.533,127.242 222.533,127.034 M221.502,125.597 C222.616,125.597 223.174,126.076 223.174,127.034 C223.174,127.503 223.038,128.05 222.768,128.675 C222.497,129.289 222.132,129.758 221.674,130.081 C220.674,130.758 219.419,131.097 217.908,131.097 C216.783,131.097 216.221,130.617 216.221,129.659 C216.221,129.232 216.356,128.69 216.627,128.034 C216.887,127.409 217.252,126.935 217.721,126.612 C218.731,125.935 219.991,125.597 221.502,125.597"/>
<path class="Note" d="M220.792,70.5965 C221.417,70.5965 221.948,70.7579 222.386,71.0809 C222.781,71.435 222.979,71.8777 222.979,72.409 C222.979,73.3048 222.521,74.1434 221.604,74.9246 C220.667,75.7059 219.662,76.0965 218.589,76.0965 C217.964,76.0965 217.438,75.935 217.011,75.6121 C216.604,75.2579 216.401,74.8152 216.401,74.284 C216.401,73.3881 216.87,72.5496 217.807,71.7684 C218.724,70.9871 219.719,70.5965 220.792,70.5965"/>
<path class="Note" d="M220.792,83.0965 C221.417,83.0965 221.948,83.2579 222.386,83.5809 C222.781,83.935 222.979,84.3777 222.979,84.909 C222.979,85.8048 222.521,86.6434 221.604,87.4246 C220.667,88.2059 219.662,88.5965 218.589,88.5965 C217.964,88.5965 217.438,88.435 217.011,88.1121 C216.604,87.7579 216.401,87.3152 216.401,86.784 C216.401,85.8882 216.87,85.0496 217.807,84.2684 C218.724,83.4871 219.719,83.0965 220.792,83.0965"/>
<path class="Note" d="M203.674,144.534 C203.674,144.315 203.59,144.128 203.424,143.972 C203.247,143.805 203.049,143.722 202.83,143.722 C202.445,143.722 201.658,144.112 200.471,144.893 C199.241,145.685 198.491,146.253 198.221,146.597 C198.075,146.774 198.002,146.961 198.002,147.159 C198.002,147.378 198.09,147.565 198.267,147.722 C198.424,147.888 198.616,147.972 198.846,147.972 C199.221,147.972 200.017,147.581 201.236,146.8 C202.434,146.018 203.174,145.451 203.455,145.097 C203.601,144.93 203.674,144.742 203.674,144.534 M202.642,143.097 C203.757,143.097 204.314,143.576 204.314,144.534 C204.314,145.003 204.179,145.55 203.908,146.175 C203.637,146.789 203.273,147.258 202.814,147.581 C201.814,148.258 200.559,148.597 199.049,148.597 C197.924,148.597 197.361,148.117 197.361,147.159 C197.361,146.732 197.497,146.19 197.767,145.534 C198.028,144.909 198.392,144.435 198.861,144.112 C199.872,143.435 201.132,143.097 202.642,143.097"/>
<path class="Note" d="M201.932,73.0965 C202.557,73.0965 203.089,73.2579 203.526,73.5809 C203.922,73.935 204.12,74.3777 204.12,74.909 C204.12,75.8048 203.661,76.6434 202.745,77.4246 C201.807,78.2059 200.802,78.5965 199.729,78.5965 C199.104,78.5965 198.578,78.435 198.151,78.1121 C197.745,77.7579 197.542,77.3152 197.542,76.784 C197.542,75.8881 198.01,75.0496 198.948,74.2684 C199.865,73.4871 200.859,73.0965 201.932,73.0965"/>
<path class="Note" d="M201.932,78.0965 C202.557,78.0965 203.089,78.2579 203.526,78.5809 C203.922,78.935 204.12,79.3777 204.12,79.909 C204.12,80.8048 203.661,81.6434 202.745,82.4246 C201.807,83.2059 200.802,83.5965 199.729,83.5965 C199.104,83.5965 198.578,83.435 198.151,83.1121 C197.745,82.7579 197.542,82.3152 197.542,81.784 C197.542,80.8881 198.01,80.0496 198.948,79.2684 C199.865,78.4871 200.859,78.0965 201.932,78.0965"/>
<path class="Note" d="M184.814,127.034 C184.814,126.815 184.731,126.628 184.564,126.472 C184.387,126.305 184.189,126.222 183.97,126.222 C183.585,126.222 182.799,126.612 181.611,127.393 C180.382,128.185 179.632,128.753 179.361,129.097 C179.215,129.274 179.142,129.461 179.142,129.659 C179.142,129.878 179.231,130.065 179.408,130.222 C179.564,130.388 179.757,130.472 179.986,130.472 C180.361,130.472 181.158,130.081 182.377,129.3 C183.575,128.518 184.314,127.951 184.595,127.597 C184.741,127.43 184.814,127.242 184.814,127.034 M183.783,125.597 C184.898,125.597 185.455,126.076 185.455,127.034 C185.455,127.503 185.319,128.05 185.049,128.675 C184.778,129.289 184.413,129.758 183.955,130.081 C182.955,130.758 181.7,131.097 180.189,131.097 C179.064,131.097 178.502,130.617 178.502,129.659 C178.502,129.232 178.637,128.69 178.908,128.034 C179.168,127.409 179.533,126.935 180.002,126.612 C181.012,125.935 182.273,125.597 183.783,125.597"/>
<path class="Note" d="M183.073,75.5965 C183.698,75.5965 184.229,75.7579 184.667,76.0809 C185.062,76.435 185.26,76.8777 185.26,77.409 C185.26,78.3048 184.802,79.1434 183.885,79.9246 C182.948,80.7059 181.943,81.0965 180.87,81.0965 C180.245,81.0965 179.719,80.935 179.292,80.6121 C178.885,80.2579 178.682,79.8152 178.682,79.284 C178.682,78.3881 179.151,77.5496 180.088,76.7684 C181.005,75.9871 182,75.5965 183.073,75.5965"/>
<path class="Note" d="M183.073,80.5965 C183.698,80.5965 184.229,80.7579 184.667,81.0809 C185.062,81.435 185.26,81.8777 185.26,82.409 C185.26,83.3048 184.802,84.1434 183.885,84.9246 C182.948,85.7059 181.943,86.0965 180.87,86.0965 C180.245,86.0965 179.719,85.935 179.292,85.6121 C178.885,85.2579 178.682,84.8152 178.682,84.284 C178.682,83.3882 179.151,82.5496 180.088,81.7684 C181.005,80.9871 182,80.5965 183.073,80.5965"/>
<path class="Note" d="M165.955,144.534 C165.955,144.315 165.871,144.128 165.705,143.972 C165.528,143.805 165.33,143.722 165.111,143.722 C164.726,143.722 163.939,144.112 162.752,144.893 C161.522,145.685 160.772,146.253 160.502,146.597 C160.356,146.774 160.283,146.961 160.283,147.159 C160.283,147.378 160.371,147.565 160.548,147.722 C160.705,147.888 160.897,147.972 161.127,147.972 C161.502,147.972 162.298,147.581 163.517,146.8 C164.715,146.018 165.455,145.451 165.736,145.097 C165.882,144.93 165.955,144.742 165.955,144.534 M164.923,143.097 C166.038,143.097 166.595,143.576 166.595,144.534 C166.595,145.003 166.46,145.55 166.189,146.175 C165.918,146.789 165.554,147.258 165.095,147.581 C164.095,148.258 162.84,148.597 161.33,148.597 C160.205,148.597 159.642,148.117 159.642,147.159 C159.642,146.732 159.778,146.19 160.048,145.534 C160.309,144.909 160.673,144.435 161.142,144.112 C162.153,143.435 163.413,143.097 164.923,143.097"/>
<path class="Note" d="M164.213,78.0965 C164.838,78.0965 165.37,78.2579 165.807,78.5809 C166.203,78.935 166.401,79.3777 166.401,79.909 C166.401,80.8048 165.942,81.6434 165.026,82.4246 C164.088,83.2059 163.083,83.5965 162.01,83.5965 C161.385,83.5965 160.859,83.435 160.432,83.1121 C160.026,82.7579 159.823,82.3152 159.823,81.784 C159.823,80.8881 160.291,80.0496 161.229,79.2684 C162.146,78.4871 163.14,78.0965 164.213,78.0965"/>
<path class="Note" d="M164.213,90.5965 C164.838,90.5965 165.37,90.7579 165.807,91.0809 C166.203,91.435 166.401,91.8777 166.401,92.409 C166.401,93.3048 165.942,94.1434 165.026,94.9246 C164.088,95.7059 163.083,96.0965 162.01,96.0965 C161.385,96.0965 160.859,95.935 160.432,95.6121 C160.026,95.2579 159.823,94.8152 159.823,94.284 C159.823,93.3882 160.291,92.5496 161.229,91.7684 C162.146,90.9871 163.14,90.5965 164.213,90.5965"/>
<path class="Note" d="M143.978,127.034 C143.978,126.815 143.895,126.628 143.728,126.472 C143.551,126.305 143.353,126.222 143.134,126.222 C142.749,126.222 141.963,126.612 140.775,127.393 C139.546,128.185 138.796,128.753 138.525,129.097 C138.379,129.274 138.306,129.461 138.306,129.659 C138.306,129.878 138.395,130.065 138.572,130.222 C138.728,130.388 138.921,130.472 139.15,130.472 C139.525,130.472 140.322,130.081 141.541,129.3 C142.739,128.518 143.478,127.951 143.759,127.597 C143.905,127.43 143.978,127.242 143.978,127.034 M142.947,125.597 C144.062,125.597 144.619,126.076 144.619,127.034 C144.619,127.503 144.483,128.05 144.213,128.675 C143.942,129.289 143.577,129.758 143.119,130.081 C142.119,130.758 140.864,131.097 139.353,131.097 C138.228,131.097 137.666,130.617 137.666,129.659 C137.666,129.232 137.801,128.69 138.072,128.034 C138.332,127.409 138.697,126.935 139.166,126.612 C140.176,125.935 141.437,125.597 142.947,125.597"/>
<path class="Note" d="M142.237,80.5965 C142.862,80.5965 143.393,80.7579 143.831,81.0809 C144.226,81.435 144.424,81.8777 144.424,82.409 C144.424,83.3048 143.966,84.1434 143.049,84.9246 C142.112,85.7059 141.107,86.0965 140.034,86.0965 C139.409,86.0965 138.883,85.935 138.456,85.6121 C138.049,85.2579 137.846,84.8152 137.846,84.284 C137.846,83.3882 138.315,82.5496 139.252,81.7684 C140.169,80.9871 141.164,80.5965 142.237,80.5965"/>
<path class="Note" d="M142.237,88.0965 C142.862,88.0965 143.393,88.2579 143.831,88.5809 C144.226,88.935 144.424,89.3777 144.424,89.909 C144.424,90.8048 143.966,91.6434 143.049,92.4246 C142.112,93.2059 141.107,93.5965 140.034,93.5965 C139.409,93.5965 138.883,93.435 138.456,93.1121 C138.049,92.7579 137.846,92.3152 137.846,91.784 C137.846,90.8882 138.315,90.0496 139.252,89.2684 C140.169,88.4871 141.164,88.0965 142.237,88.0965"/>
<path class="Note" d="M128.982,144.534 C128.982,144.315 128.899,144.128 128.732,143.972 C128.555,143.805 128.357,143.722 128.138,143.722 C127.753,143.722 126.967,144.112 125.779,144.893 C124.55,145.685 123.8,146.253 123.529,146.597 C123.383,146.774 123.31,146.961 123.31,147.159 C123.31,147.378 123.399,147.565 123.576,147.722 C123.732,147.888 123.925,147.972 124.154,147.972 C124.529,147.972 125.326,147.581 126.545,146.8 C127.743,146.018 128.482,145.451 128.763,145.097 C128.909,144.93 128.982,144.742 128.982,144.534 M127.951,143.097 C129.066,143.097 129.623,143.576 129.623,144.534 C129.623,145.003 129.487,145.55 129.217,146.175 C128.946,146.789 128.581,147.258 128.123,147.581 C127.123,148.258 125.868,148.597 124.357,148.597 C123.232,148.597 122.67,148.117 122.67,147.159 C122.67,146.732 122.805,146.19 123.076,145.534 C123.336,144.909 123.701,144.435 124.17,144.112 C125.18,143.435 126.441,143.097 127.951,143.097"/>
<path class="Note" d="M113.986,127.034 C113.986,126.815 113.903,126.628 113.736,126.472 C113.559,126.305 113.361,126.222 113.142,126.222 C112.757,126.222 111.971,126.612 110.783,127.393 C109.554,128.185 108.804,128.753 108.533,129.097 C108.387,129.274 108.314,129.461 108.314,129.659 C108.314,129.878 108.403,130.065 108.58,130.222 C108.736,130.388 108.929,130.472 109.158,130.472 C109.533,130.472 110.33,130.081 111.549,129.3 C112.747,128.518 113.486,127.951 113.767,127.597 C113.913,127.43 113.986,127.242 113.986,127.034 M112.955,125.597 C114.07,125.597 114.627,126.076 114.627,127.034 C114.627,127.503 114.491,128.05 114.221,128.675 C113.95,129.289 113.585,129.758 113.127,130.081 C112.127,130.758 110.872,131.097 109.361,131.097 C108.236,131.097 107.674,130.617 107.674,129.659 C107.674,129.232 107.809,128.69 108.08,128.034 C108.34,127.409 108.705,126.935 109.174,126.612 C110.184,125.935 111.445,125.597 112.955,125.597"/>
<path class="Note" d="M98.9902,144.534 C98.9902,144.315 98.9069,144.128 98.7402,143.972 C98.5632,143.805 98.3652,143.722 98.1465,143.722 C97.7611,143.722 96.9746,144.112 95.7871,144.893 C94.5579,145.685 93.8079,146.253 93.5371,146.597 C93.3913,146.774 93.3184,146.961 93.3184,147.159 C93.3184,147.378 93.4069,147.565 93.584,147.722 C93.7402,147.888 93.9329,147.972 94.1621,147.972 C94.5371,147.972 95.334,147.581 96.5527,146.8 C97.7507,146.018 98.4902,145.451 98.7715,145.097 C98.9173,144.93 98.9902,144.742 98.9902,144.534 M97.959,143.097 C99.0736,143.097 99.6309,143.576 99.6309,144.534 C99.6309,145.003 99.4954,145.55 99.2246,146.175 C98.9538,146.789 98.5892,147.258 98.1309,147.581 C97.1309,148.258 95.8757,148.597 94.3652,148.597 C93.2402,148.597 92.6777,148.117 92.6777,147.159 C92.6777,146.732 92.8132,146.19 93.084,145.534 C93.3444,144.909 93.709,144.435 94.1777,144.112 C95.1882,143.435 96.4486,143.097 97.959,143.097"/>
<path class="Note" d="M98.9902,87.034 C98.9902,86.8152 98.9069,86.6277 98.7402,86.4715 C98.5632,86.3048 98.3652,86.2215 98.1465,86.2215 C97.7611,86.2215 96.9746,86.6121 95.7871,87.3934 C94.5579,88.185 93.8079,88.7527 93.5371,89.0965 C93.3913,89.2736 93.3184,89.4611 93.3184,89.659 C93.3184,89.8777 93.4069,90.0652 93.584,90.2215 C93.7402,90.3882 93.9329,90.4715 94.1621,90.4715 C94.5371,90.4715 95.334,90.0809 96.5527,89.2996 C97.7507,88.5184 98.4902,87.9507 98.7715,87.5965 C98.9173,87.4298 98.9902,87.2423 98.9902,87.034 M97.959,85.5965 C99.0736,85.5965 99.6309,86.0757 99.6309,87.034 C99.6309,87.5027 99.4954,88.0496 99.2246,88.6746 C98.9538,89.2892 98.5892,89.7579 98.1309,90.0809 C97.1309,90.7579 95.8757,91.0965 94.3652,91.0965 C93.2402,91.0965 92.6777,90.6173 92.6777,89.659 C92.6777,89.2319 92.8132,88.6902 93.084,88.034 C93.3444,87.409 93.709,86.935 94.1777,86.6121 C95.1882,85.935 96.4486,85.5965 97.959,85.5965"/>
<path class="Clef" d="M54.2761,119.065 C54.0834,118.867 53.9871,118.625 53.9871,118.339 C53.9871,118.052 54.0834,117.813 54.2761,117.62 C54.4689,117.427 54.7084,117.331 54.9949,117.331 C55.2814,117.331 55.5235,117.427 55.7215,117.62 C55.9194,117.813 56.0183,118.052 56.0183,118.339 C56.0183,118.625 55.9194,118.867 55.7215,119.065 C55.5235,119.263 55.2814,119.362 54.9949,119.362 C54.7084,119.362 54.4689,119.263 54.2761,119.065 M54.2761,124.073 C54.0834,123.88 53.9871,123.641 53.9871,123.354 C53.9871,123.068 54.0834,122.826 54.2761,122.628 C54.4689,122.43 54.7084,122.331 54.9949,122.331 C55.2814,122.331 55.5235,122.43 55.7215,122.628 C55.9194,122.826 56.0183,123.068 56.0183,123.354 C56.0183,123.641 55.9194,123.88 55.7215,124.073 C55.5235,124.266 55.2814,124.362 54.9949,124.362 C54.7084,124.362 54.4689,124.266 54.2761,124.073 M47.5027,115.597 C49.2319,115.597 50.6485,116.029 51.7527,116.893 C52.8256,117.81 53.3621,119.05 53.3621,120.612 C53.3621,121.664 53.1538,122.628 52.7371,123.503 C52.3413,124.419 51.8256,125.227 51.1902,125.925 C50.534,126.643 49.7475,127.32 48.8308,127.956 C47.9246,128.581 46.9975,129.143 46.0496,129.643 C44.1225,130.612 43.0548,131.097 42.8465,131.097 C42.6798,131.097 42.5965,131.013 42.5965,130.847 C42.5965,130.784 42.6225,130.727 42.6746,130.675 C43.3413,130.279 44.1538,129.779 45.1121,129.175 C45.7371,128.768 46.4663,128.206 47.2996,127.487 C48.1121,126.81 48.7371,126.175 49.1746,125.581 C49.6329,124.987 50.0496,124.258 50.4246,123.393 C50.7475,122.518 50.909,121.654 50.909,120.8 C50.909,119.539 50.5965,118.44 49.9715,117.503 C49.3465,116.565 48.5235,116.097 47.5027,116.097 C46.7735,116.097 46.1485,116.331 45.6277,116.8 C45.0652,117.279 44.659,117.883 44.409,118.612 C44.659,118.508 44.8881,118.456 45.0965,118.456 C45.6381,118.456 46.1069,118.654 46.5027,119.05 C46.8881,119.466 47.0808,119.94 47.0808,120.472 C47.0808,121.034 46.8933,121.539 46.5183,121.987 C46.1121,122.383 45.6381,122.581 45.0965,122.581 C44.5131,122.581 43.9871,122.383 43.5183,121.987 C43.0704,121.539 42.8465,121.034 42.8465,120.472 C42.8465,119.128 43.3048,117.982 44.2215,117.034 C45.1173,116.076 46.211,115.597 47.5027,115.597"/>
<path class="Clef" d="M50.1902,73.2215 C50.1902,73.2215 50.2319,73.2215 50.3152,73.2215 C50.3673,73.2111 50.409,73.2059 50.4402,73.2059 C51.8985,73.2059 53.0965,73.7215 54.034,74.7527 C54.9715,75.7631 55.4402,76.9454 55.4402,78.2996 C55.4402,79.9871 54.7475,81.3569 53.3621,82.409 C52.9975,82.7006 52.5183,82.935 51.9246,83.1121 C51.9975,83.9559 52.034,84.6381 52.034,85.159 C52.034,85.2631 52.0183,85.6434 51.9871,86.2996 C51.935,87.5079 51.5183,88.5548 50.7371,89.4402 C49.9871,90.3152 49.0496,90.7527 47.9246,90.7527 C46.8725,90.7527 45.9767,90.3829 45.2371,89.6434 C44.4871,88.8829 44.1121,87.9715 44.1121,86.909 C44.1121,86.3465 44.3308,85.8673 44.7683,85.4715 C45.2058,85.0861 45.7163,84.8934 46.2996,84.8934 C46.8204,84.8934 47.2579,85.0965 47.6121,85.5027 C47.9767,85.8777 48.159,86.3465 48.159,86.909 C48.159,87.409 47.9767,87.8413 47.6121,88.2059 C47.2475,88.5704 46.81,88.7527 46.2996,88.7527 C46.0913,88.7527 45.8933,88.7163 45.7058,88.6434 C46.2788,89.4871 47.0392,89.909 47.9871,89.909 C48.8829,89.909 49.6173,89.5444 50.1902,88.8152 C50.7944,88.0652 51.1225,87.185 51.1746,86.1746 C51.1954,85.5496 51.2058,85.1954 51.2058,85.1121 C51.2058,84.3829 51.1798,83.784 51.1277,83.3152 C50.4819,83.4194 49.9038,83.4715 49.3933,83.4715 C47.5808,83.4715 46.0392,82.7527 44.7683,81.3152 C43.5183,79.8673 42.8933,78.1486 42.8933,76.159 C42.8933,75.7423 42.9298,75.3204 43.0027,74.8934 C43.086,74.5392 43.185,74.1538 43.2996,73.7371 C43.3621,73.4975 43.5392,73.1173 43.8308,72.5965 C43.935,72.4402 44.0522,72.2449 44.1824,72.0105 C44.3126,71.7762 44.4038,71.6225 44.4558,71.5496 C44.5808,71.2892 44.8308,70.935 45.2058,70.4871 C45.31,70.3725 45.4194,70.2449 45.534,70.1043 C45.6485,69.9637 45.7449,69.8465 45.823,69.7527 C45.9011,69.659 45.9584,69.5861 45.9949,69.534 C46.0314,69.4819 46.3256,69.1381 46.8777,68.5027 C47.0027,68.3673 47.1277,68.2267 47.2527,68.0809 C47.3777,67.935 47.4793,67.8178 47.5574,67.7293 C47.6355,67.6408 47.6954,67.5809 47.7371,67.5496 C47.2683,65.9975 46.9715,64.7579 46.8465,63.8309 C46.7631,63.0913 46.7215,62.0756 46.7215,60.784 C46.7215,59.6486 46.9819,58.5861 47.5027,57.5965 C48.0027,56.5756 48.711,55.7371 49.6277,55.0809 C49.6902,55.0392 49.7527,55.0184 49.8152,55.0184 C49.909,55.0184 49.9767,55.0392 50.0183,55.0809 C50.7163,55.9246 51.3204,57.0236 51.8308,58.3777 C52.3517,59.7319 52.6121,60.9663 52.6121,62.0809 C52.6121,63.3309 52.3152,64.5027 51.7215,65.5965 C51.0444,66.7527 50.1694,67.9506 49.0965,69.1902 C49.3673,70.0444 49.7319,71.3881 50.1902,73.2215 M51.8465,82.3152 C52.5235,82.0652 53.0548,81.6434 53.4402,81.0496 C53.8569,80.4767 54.0652,79.8309 54.0652,79.1121 C54.0652,78.185 53.7527,77.3621 53.1277,76.6434 C52.4819,75.9038 51.6642,75.4871 50.6746,75.3934 C51.2371,78.1434 51.6277,80.4506 51.8465,82.3152 M44.2996,77.7996 C44.2996,79.0913 44.8204,80.2267 45.8621,81.2059 C46.9246,82.1538 48.1225,82.6277 49.4558,82.6277 C49.9975,82.6277 50.5288,82.5861 51.0496,82.5027 C50.8413,80.5236 50.4298,78.1538 49.8152,75.3934 C49.0756,75.4767 48.4871,75.7371 48.0496,76.1746 C47.6121,76.6329 47.3933,77.1486 47.3933,77.7215 C47.3933,78.7111 47.9246,79.5131 48.9871,80.1277 C49.0704,80.2215 49.1121,80.3204 49.1121,80.4246 C49.1121,80.5288 49.0704,80.6225 48.9871,80.7059 C48.9038,80.7996 48.8048,80.8465 48.6902,80.8465 C48.6798,80.8465 48.6225,80.8361 48.5183,80.8152 C47.7683,80.409 47.1954,79.8881 46.7996,79.2527 C46.4142,78.5652 46.2215,77.8777 46.2215,77.1902 C46.2215,76.2944 46.5027,75.4819 47.0652,74.7527 C47.6485,74.0236 48.409,73.5548 49.3465,73.3465 C48.9819,71.8881 48.685,70.7475 48.4558,69.9246 C48.2475,70.1642 47.9975,70.448 47.7058,70.7762 C47.4142,71.1043 47.2423,71.3048 47.1902,71.3777 C46.7215,71.9819 46.3621,72.4559 46.1121,72.7996 C45.6642,73.4142 45.336,73.9402 45.1277,74.3777 C44.909,74.8777 44.7163,75.4194 44.5496,76.0027 C44.3829,76.5652 44.2996,77.1642 44.2996,77.7996 M50.8152,57.9402 C49.836,58.4194 49.0704,59.1069 48.5183,60.0027 C47.9454,60.9298 47.659,61.9246 47.659,62.9871 C47.659,63.9246 47.8933,65.1902 48.3621,66.784 C49.2996,65.6486 50.0027,64.6017 50.4715,63.6434 C50.961,62.6225 51.2058,61.56 51.2058,60.4559 C51.2058,59.6225 51.0756,58.784 50.8152,57.9402"/>
<path class="KeySig" d="M69.2621,132.518 L69.2621,134.065 C69.2621,134.617 69.2881,135.055 69.3402,135.378 C69.7673,135.013 70.0746,134.742 70.2621,134.565 C70.4704,134.357 70.6788,134.068 70.8871,133.698 C71.0954,133.328 71.1996,132.961 71.1996,132.597 C71.1996,132.232 71.1215,131.919 70.9652,131.659 C70.809,131.399 70.6006,131.268 70.3402,131.268 C70.0277,131.268 69.7673,131.388 69.559,131.628 C69.3611,131.888 69.2621,132.185 69.2621,132.518 M68.434,136.097 L68.184,124.206 C68.3715,124.102 68.5564,124.05 68.7387,124.05 C68.921,124.05 69.1006,124.102 69.2777,124.206 L69.1215,131.097 C69.6527,130.638 70.2673,130.409 70.9652,130.409 C71.4652,130.409 71.8845,130.617 72.223,131.034 C72.5616,131.451 72.7309,131.93 72.7309,132.472 C72.7309,132.805 72.6215,133.164 72.4027,133.55 C72.1944,133.893 71.9756,134.164 71.7465,134.362 C71.6111,134.466 71.2777,134.727 70.7465,135.143 C70.5902,135.258 70.4053,135.393 70.1918,135.55 C69.9782,135.706 69.8454,135.805 69.7934,135.847 C69.6996,135.899 69.6111,136.003 69.5277,136.159 C69.4444,136.294 69.3402,136.404 69.2152,136.487 C69.1319,136.57 69.0251,136.612 68.8949,136.612 C68.7647,136.612 68.6579,136.565 68.5746,136.472 C68.4809,136.378 68.434,136.253 68.434,136.097"/>
<path class="KeySig" d="M64.2621,122.518 L64.2621,124.065 C64.2621,124.617 64.2881,125.055 64.3402,125.378 C64.7673,125.013 65.0746,124.742 65.2621,124.565 C65.4704,124.357 65.6788,124.068 65.8871,123.698 C66.0954,123.328 66.1996,122.961 66.1996,122.597 C66.1996,122.232 66.1215,121.919 65.9652,121.659 C65.809,121.399 65.6006,121.268 65.3402,121.268 C65.0277,121.268 64.7673,121.388 64.559,121.628 C64.3611,121.888 64.2621,122.185 64.2621,122.518 M63.434,126.097 L63.184,114.206 C63.3715,114.102 63.5564,114.05 63.7387,114.05 C63.921,114.05 64.1006,114.102 64.2777,114.206 L64.1215,121.097 C64.6527,120.638 65.2673,120.409 65.9652,120.409 C66.4652,120.409 66.8845,120.617 67.223,121.034 C67.5616,121.451 67.7308,121.93 67.7308,122.472 C67.7308,122.805 67.6215,123.164 67.4027,123.55 C67.1944,123.893 66.9756,124.164 66.7465,124.362 C66.6111,124.466 66.2777,124.727 65.7465,125.143 C65.5902,125.258 65.4053,125.393 65.1918,125.55 C64.9782,125.706 64.8454,125.805 64.7933,125.847 C64.6996,125.899 64.6111,126.003 64.5277,126.159 C64.4444,126.294 64.3402,126.404 64.2152,126.487 C64.1319,126.57 64.0251,126.612 63.8949,126.612 C63.7647,126.612 63.6579,126.565 63.5746,126.472 C63.4808,126.378 63.434,126.253 63.434,126.097"/>
<path class="KeySig" d="M59.2621,130.018 L59.2621,131.565 C59.2621,132.117 59.2881,132.555 59.3402,132.878 C59.7673,132.513 60.0746,132.242 60.2621,132.065 C60.4704,131.857 60.6788,131.568 60.8871,131.198 C61.0954,130.828 61.1996,130.461 61.1996,130.097 C61.1996,129.732 61.1215,129.419 60.9652,129.159 C60.809,128.899 60.6006,128.768 60.3402,128.768 C60.0277,128.768 59.7673,128.888 59.559,129.128 C59.3611,129.388 59.2621,129.685 59.2621,130.018 M58.434,133.597 L58.184,121.706 C58.3715,121.602 58.5564,121.55 58.7387,121.55 C58.9209,121.55 59.1006,121.602 59.2777,121.706 L59.1215,128.597 C59.6527,128.138 60.2673,127.909 60.9652,127.909 C61.4652,127.909 61.8845,128.117 62.223,128.534 C62.5616,128.951 62.7308,129.43 62.7308,129.972 C62.7308,130.305 62.6215,130.664 62.4027,131.05 C62.1944,131.393 61.9756,131.664 61.7465,131.862 C61.6111,131.966 61.2777,132.227 60.7465,132.643 C60.5902,132.758 60.4053,132.893 60.1918,133.05 C59.9782,133.206 59.8454,133.305 59.7933,133.347 C59.6996,133.399 59.6111,133.503 59.5277,133.659 C59.4444,133.794 59.3402,133.904 59.2152,133.987 C59.1319,134.07 59.0251,134.112 58.8949,134.112 C58.7647,134.112 58.6579,134.065 58.5746,133.972 C58.4808,133.878 58.434,133.753 58.434,133.597"/>
<path class="KeySig" d="M69.2621,75.0184 L69.2621,76.5652 C69.2621,77.1173 69.2881,77.5548 69.3402,77.8777 C69.7673,77.5131 70.0746,77.2423 70.2621,77.0652 C70.4704,76.8569 70.6788,76.5678 70.8871,76.198 C71.0954,75.8283 71.1996,75.4611 71.1996,75.0965 C71.1996,74.7319 71.1215,74.4194 70.9652,74.159 C70.809,73.8986 70.6006,73.7684 70.3402,73.7684 C70.0277,73.7684 69.7673,73.8881 69.559,74.1277 C69.3611,74.3881 69.2621,74.685 69.2621,75.0184 M68.434,78.5965 L68.184,66.7059 C68.3715,66.6017 68.5564,66.5496 68.7387,66.5496 C68.921,66.5496 69.1006,66.6017 69.2777,66.7059 L69.1215,73.5965 C69.6527,73.1381 70.2673,72.909 70.9652,72.909 C71.4652,72.909 71.8845,73.1173 72.223,73.534 C72.5616,73.9506 72.7309,74.4298 72.7309,74.9715 C72.7309,75.3048 72.6215,75.6642 72.4027,76.0496 C72.1944,76.3934 71.9756,76.6642 71.7465,76.8621 C71.6111,76.9663 71.2777,77.2267 70.7465,77.6434 C70.5902,77.7579 70.4053,77.8934 70.1918,78.0496 C69.9782,78.2059 69.8454,78.3048 69.7934,78.3465 C69.6996,78.3986 69.6111,78.5027 69.5277,78.659 C69.4444,78.7944 69.3402,78.9038 69.2152,78.9871 C69.1319,79.0704 69.0251,79.1121 68.8949,79.1121 C68.7647,79.1121 68.6579,79.0652 68.5746,78.9715 C68.4809,78.8777 68.434,78.7527 68.434,78.5965"/>
<path class="KeySig" d="M64.2621,65.0183 L64.2621,66.5652 C64.2621,67.1173 64.2881,67.5548 64.3402,67.8777 C64.7673,67.5131 65.0746,67.2423 65.2621,67.0652 C65.4704,66.8569 65.6788,66.5678 65.8871,66.198 C66.0954,65.8282 66.1996,65.4611 66.1996,65.0965 C66.1996,64.7319 66.1215,64.4194 65.9652,64.159 C65.809,63.8986 65.6006,63.7683 65.3402,63.7683 C65.0277,63.7683 64.7673,63.8881 64.559,64.1277 C64.3611,64.3881 64.2621,64.685 64.2621,65.0183 M63.434,68.5965 L63.184,56.7058 C63.3715,56.6017 63.5564,56.5496 63.7387,56.5496 C63.921,56.5496 64.1006,56.6017 64.2777,56.7058 L64.1215,63.5965 C64.6527,63.1381 65.2673,62.909 65.9652,62.909 C66.4652,62.909 66.8845,63.1173 67.223,63.534 C67.5616,63.9506 67.7308,64.4298 67.7308,64.9715 C67.7308,65.3048 67.6215,65.6642 67.4027,66.0496 C67.1944,66.3933 66.9756,66.6642 66.7465,66.8621 C66.6111,66.9663 66.2777,67.2267 65.7465,67.6433 C65.5902,67.7579 65.4053,67.8933 65.1918,68.0496 C64.9782,68.2058 64.8454,68.3048 64.7933,68.3465 C64.6996,68.3986 64.6111,68.5027 64.5277,68.659 C64.4444,68.7944 64.3402,68.9038 64.2152,68.9871 C64.1319,69.0704 64.0251,69.1121 63.8949,69.1121 C63.7647,69.1121 63.6579,69.0652 63.5746,68.9715 C63.4808,68.8777 63.434,68.7527 63.434,68.5965"/>
<path class="KeySig" d="M59.2621,72.5184 L59.2621,74.0652 C59.2621,74.6173 59.2881,75.0548 59.3402,75.3777 C59.7673,75.0131 60.0746,74.7423 60.2621,74.5652 C60.4704,74.3569 60.6788,74.0678 60.8871,73.698 C61.0954,73.3282 61.1996,72.9611 61.1996,72.5965 C61.1996,72.2319 61.1215,71.9194 60.9652,71.659 C60.809,71.3986 60.6006,71.2684 60.3402,71.2684 C60.0277,71.2684 59.7673,71.3881 59.559,71.6277 C59.3611,71.8881 59.2621,72.185 59.2621,72.5184 M58.434,76.0965 L58.184,64.2059 C58.3715,64.1017 58.5564,64.0496 58.7387,64.0496 C58.9209,64.0496 59.1006,64.1017 59.2777,64.2059 L59.1215,71.0965 C59.6527,70.6381 60.2673,70.409 60.9652,70.409 C61.4652,70.409 61.8845,70.6173 62.223,71.034 C62.5616,71.4506 62.7308,71.9298 62.7308,72.4715 C62.7308,72.8048 62.6215,73.1642 62.4027,73.5496 C62.1944,73.8934 61.9756,74.1642 61.7465,74.3621 C61.6111,74.4663 61.2777,74.7267 60.7465,75.1434 C60.5902,75.2579 60.4053,75.3934 60.1918,75.5496 C59.9782,75.7059 59.8454,75.8048 59.7933,75.8465 C59.6996,75.8986 59.6111,76.0027 59.5277,76.159 C59.4444,76.2944 59.3402,76.4038 59.2152,76.4871 C59.1319,76.5704 59.0251,76.6121 58.8949,76.6121 C58.7647,76.6121 58.6579,76.5652 58.5746,76.4715 C58.4808,76.3777 58.434,76.2527 58.434,76.0965"/>
<path class="TimeSig" d="M82.4621,125.3 C82.1288,125.3 81.7902,125.169 81.4465,124.909 C81.1236,124.659 80.9621,124.294 80.9621,123.815 C80.9621,123.409 81.0975,123.05 81.3684,122.737 C81.6288,122.425 81.9725,122.268 82.3996,122.268 C82.5454,122.268 82.6392,122.274 82.6809,122.284 C82.0767,121.524 81.2746,121.128 80.2746,121.097 L80.0246,121.097 L80.0246,130.597 C80.0663,130.597 80.1131,130.602 80.1652,130.612 C80.1652,130.612 80.2017,130.612 80.2746,130.612 C81.0559,130.612 81.7225,130.326 82.2746,129.753 C82.8267,129.19 83.2173,128.466 83.4465,127.581 C83.4777,127.456 83.5559,127.393 83.6809,127.393 C83.8475,127.393 83.9309,127.472 83.9309,127.628 C83.9309,127.722 83.8892,127.899 83.8059,128.159 C83.7329,128.399 83.5975,128.685 83.3996,129.018 C83.2434,129.331 83.0246,129.659 82.7434,130.003 C82.4829,130.305 82.1288,130.565 81.6809,130.784 C81.2642,130.992 80.7954,131.097 80.2746,131.097 C80.2225,131.097 80.1861,131.091 80.1652,131.081 C80.1652,131.081 80.1184,131.081 80.0246,131.081 L80.0246,132.643 C80.0246,132.779 79.9517,132.847 79.8059,132.847 L79.4777,132.847 C79.3423,132.847 79.2746,132.779 79.2746,132.643 L79.2746,131.018 C77.91,130.8 76.9048,130.222 76.259,129.284 C75.6027,128.326 75.2746,127.18 75.2746,125.847 C75.2746,124.482 75.6027,123.336 76.259,122.409 C76.8631,121.472 77.8684,120.893 79.2746,120.675 L79.2746,119.05 C79.2746,118.914 79.3423,118.847 79.4777,118.847 L79.8059,118.847 C79.9413,118.847 80.0142,118.914 80.0246,119.05 L80.0246,120.612 L80.2746,120.612 C81.3475,120.612 82.1965,120.977 82.8215,121.706 C83.4673,122.435 83.7902,123.159 83.7902,123.878 C83.7902,124.294 83.66,124.633 83.3996,124.893 C83.1704,125.164 82.8579,125.3 82.4621,125.3 M79.2746,130.456 L79.2746,121.237 C78.7434,121.435 78.3996,121.81 78.2434,122.362 C78.0871,122.935 78.009,123.758 78.009,124.831 L78.009,125.847 L78.009,126.862 C78.009,127.935 78.0871,128.758 78.2434,129.331 C78.3996,129.883 78.7434,130.258 79.2746,130.456"/>
<path class="TimeSig" d="M82.4621,72.7996 C82.1288,72.7996 81.7902,72.6694 81.4465,72.409 C81.1236,72.159 80.9621,71.7944 80.9621,71.3152 C80.9621,70.909 81.0975,70.5496 81.3684,70.2371 C81.6288,69.9246 81.9725,69.7684 82.3996,69.7684 C82.5454,69.7684 82.6392,69.7736 82.6809,69.784 C82.0767,69.0236 81.2746,68.6277 80.2746,68.5965 L80.0246,68.5965 L80.0246,78.0965 C80.0663,78.0965 80.1131,78.1017 80.1652,78.1121 C80.1652,78.1121 80.2017,78.1121 80.2746,78.1121 C81.0559,78.1121 81.7225,77.8256 82.2746,77.2527 C82.8267,76.6902 83.2173,75.9663 83.4465,75.0809 C83.4777,74.9559 83.5559,74.8934 83.6809,74.8934 C83.8475,74.8934 83.9309,74.9715 83.9309,75.1277 C83.9309,75.2215 83.8892,75.3986 83.8059,75.659 C83.7329,75.8986 83.5975,76.185 83.3996,76.5184 C83.2434,76.8309 83.0246,77.159 82.7434,77.5027 C82.4829,77.8048 82.1288,78.0652 81.6809,78.284 C81.2642,78.4923 80.7954,78.5965 80.2746,78.5965 C80.2225,78.5965 80.1861,78.5913 80.1652,78.5809 C80.1652,78.5809 80.1184,78.5809 80.0246,78.5809 L80.0246,80.1434 C80.0246,80.2788 79.9517,80.3465 79.8059,80.3465 L79.4777,80.3465 C79.3423,80.3465 79.2746,80.2788 79.2746,80.1434 L79.2746,78.5184 C77.91,78.2996 76.9048,77.7215 76.259,76.784 C75.6027,75.8256 75.2746,74.6798 75.2746,73.3465 C75.2746,71.9819 75.6027,70.8361 76.259,69.909 C76.8631,68.9715 77.8684,68.3934 79.2746,68.1746 L79.2746,66.5496 C79.2746,66.4142 79.3423,66.3465 79.4777,66.3465 L79.8059,66.3465 C79.9413,66.3465 80.0142,66.4142 80.0246,66.5496 L80.0246,68.1121 L80.2746,68.1121 C81.3475,68.1121 82.1965,68.4767 82.8215,69.2059 C83.4673,69.935 83.7902,70.659 83.7902,71.3777 C83.7902,71.7944 83.66,72.1329 83.3996,72.3934 C83.1704,72.6642 82.8579,72.7996 82.4621,72.7996 M79.2746,77.9559 L79.2746,68.7371 C78.7434,68.935 78.3996,69.31 78.2434,69.8621 C78.0871,70.435 78.009,71.2579 78.009,72.3309 L78.009,73.3465 L78.009,74.3621 C78.009,75.435 78.0871,76.2579 78.2434,76.8309 C78.3996,77.3829 78.7434,77.7579 79.2746,77.9559"/>
<path class="Rest" d="M541.786,123.972 L534.677,123.972 C534.542,123.972 534.474,123.909 534.474,123.784 L534.474,121.05 C534.474,120.914 534.542,120.847 534.677,120.847 L541.786,120.847 C541.911,120.847 541.974,120.914 541.974,121.05 L541.974,123.784 C541.974,123.909 541.911,123.972 541.786,123.972"/>
<path class="Rest" d="M541.786,71.4715 L534.677,71.4715 C534.542,71.4715 534.474,71.409 534.474,71.284 L534.474,68.5496 C534.474,68.4142 534.542,68.3465 534.677,68.3465 L541.786,68.3465 C541.911,68.3465 541.974,68.4142 541.974,68.5496 L541.974,71.284 C541.974,71.409 541.911,71.4715 541.786,71.4715"/>
<path class="Rest" d="M493.847,123.972 L486.737,123.972 C486.602,123.972 486.534,123.909 486.534,123.784 L486.534,121.05 C486.534,120.914 486.602,120.847 486.737,120.847 L493.847,120.847 C493.972,120.847 494.034,120.914 494.034,121.05 L494.034,123.784 C494.034,123.909 493.972,123.972 493.847,123.972"/>
<path class="Rest" d="M493.847,71.4715 L486.737,71.4715 C486.602,71.4715 486.534,71.409 486.534,71.284 L486.534,68.5496 C486.534,68.4142 486.602,68.3465 486.737,68.3465 L493.847,68.3465 C493.972,68.3465 494.034,68.4142 494.034,68.5496 L494.034,71.284 C494.034,71.409 493.972,71.4715 493.847,71.4715"/>
<path class="Rest" d="M445.907,123.972 L438.798,123.972 C438.663,123.972 438.595,123.909 438.595,123.784 L438.595,121.05 C438.595,120.914 438.663,120.847 438.798,120.847 L445.907,120.847 C446.032,120.847 446.095,120.914 446.095,121.05 L446.095,123.784 C446.095,123.909 446.032,123.972 445.907,123.972"/>
<path class="Rest" d="M445.907,71.4715 L438.798,71.4715 C438.663,71.4715 438.595,71.409 438.595,71.284 L438.595,68.5496 C438.595,68.4142 438.663,68.3465 438.798,68.3465 L445.907,68.3465 C446.032,68.3465 446.095,68.4142 446.095,68.5496 L446.095,71.284 C446.095,71.409 446.032,71.4715 445.907,71.4715"/>
<path class="Rest" d="M397.968,123.972 L390.859,123.972 C390.723,123.972 390.655,123.909 390.655,123.784 L390.655,121.05 C390.655,120.914 390.723,120.847 390.859,120.847 L397.968,120.847 C398.093,120.847 398.155,120.914 398.155,121.05 L398.155,123.784 C398.155,123.909 398.093,123.972 397.968,123.972"/>
<path class="Rest" d="M397.968,71.4715 L390.859,71.4715 C390.723,71.4715 390.655,71.409 390.655,71.284 L390.655,68.5496 C390.655,68.4142 390.723,68.3465 390.859,68.3465 L397.968,68.3465 C398.093,68.3465 398.155,68.4142 398.155,68.5496 L398.155,71.284 C398.155,71.409 398.093,71.4715 397.968,71.4715"/>
<path class="Rest" d="M350.028,123.972 L342.919,123.972 C342.784,123.972 342.716,123.909 342.716,123.784 L342.716,121.05 C342.716,120.914 342.784,120.847 342.919,120.847 L350.028,120.847 C350.153,120.847 350.216,120.914 350.216,121.05 L350.216,123.784 C350.216,123.909 350.153,123.972 350.028,123.972"/>
<path class="Rest" d="M350.028,71.4715 L342.919,71.4715 C342.784,71.4715 342.716,71.409 342.716,71.284 L342.716,68.5496 C342.716,68.4142 342.784,68.3465 342.919,68.3465 L350.028,68.3465 C350.153,68.3465 350.216,68.4142 350.216,68.5496 L350.216,71.284 C350.216,71.409 350.153,71.4715 350.028,71.4715"/>
<path class="Rest" d="M285.736,73.3465 L278.627,73.3465 C278.492,73.3465 278.424,73.2788 278.424,73.1434 L278.424,70.409 C278.424,70.284 278.492,70.2215 278.627,70.2215 L285.736,70.2215 C285.861,70.2215 285.924,70.284 285.924,70.409 L285.924,73.1434 C285.924,73.2788 285.861,73.3465 285.736,73.3465"/>
<path class="Rest" d="M261.184,71.784 C261.184,71.5444 261.32,71.284 261.591,71.0027 C261.778,70.7944 262.065,70.5444 262.45,70.2527 C262.731,70.0652 263.007,69.7736 263.278,69.3777 C263.539,69.0027 263.669,68.5913 263.669,68.1434 C263.669,67.6225 263.502,67.1642 263.169,66.7684 L262.466,65.9246 C262.414,65.8725 262.388,65.8074 262.388,65.7293 C262.388,65.6512 262.424,65.5809 262.497,65.5184 C262.591,65.4454 262.669,65.409 262.731,65.409 C262.825,65.409 262.898,65.4506 262.95,65.534 L265.981,69.1277 C266.106,69.2944 266.169,69.4611 266.169,69.6277 C266.169,69.8673 266.039,70.1277 265.778,70.409 C265.612,70.5965 265.335,70.8465 264.95,71.159 C264.648,71.3361 264.362,71.6277 264.091,72.034 C263.83,72.409 263.7,72.8204 263.7,73.2684 C263.7,73.8204 263.856,74.284 264.169,74.659 L265.841,76.6277 C265.882,76.6694 265.914,76.7371 265.934,76.8309 C265.934,76.9142 265.903,76.9923 265.841,77.0652 C265.747,77.1277 265.669,77.159 265.606,77.159 C265.585,77.159 265.481,77.0861 265.294,76.9402 C265.096,76.784 264.835,76.6329 264.513,76.4871 C264.148,76.3517 263.789,76.284 263.434,76.284 C263.112,76.284 262.846,76.3725 262.638,76.5496 C262.46,76.7371 262.372,77.0913 262.372,77.6121 C262.372,78.4038 262.559,79.0288 262.934,79.4871 C262.976,79.5392 262.981,79.6017 262.95,79.6746 C262.929,79.7267 262.882,79.7527 262.809,79.7527 C262.726,79.7527 262.528,79.5184 262.216,79.0496 C261.882,78.56 261.575,77.9923 261.294,77.3465 C260.992,76.6694 260.841,76.1121 260.841,75.6746 C260.841,75.1121 261.106,74.8309 261.638,74.8309 C262.252,74.8309 263.049,75.0392 264.028,75.4559 L261.388,72.284 C261.252,72.1173 261.184,71.9506 261.184,71.784"/>
<path class="Articulation" d="M246.799,89.0535 C246.601,88.8556 246.502,88.6212 246.502,88.3504 C246.502,88.0796 246.601,87.8452 246.799,87.6473 C246.997,87.4494 247.231,87.3504 247.502,87.3504 C247.773,87.3504 248.007,87.4494 248.205,87.6473 C248.403,87.8452 248.502,88.0796 248.502,88.3504 C248.502,88.6212 248.403,88.8556 248.205,89.0535 C248.007,89.2514 247.773,89.3504 247.502,89.3504 C247.231,89.3504 246.997,89.2514 246.799,89.0535"/>
<path class="Articulation" d="M219.005,91.5535 C218.807,91.3556 218.708,91.1212 218.708,90.8504 C218.708,90.5796 218.807,90.3452 219.005,90.1473 C219.203,89.9494 219.437,89.8504 219.708,89.8504 C219.979,89.8504 220.213,89.9494 220.411,90.1473 C220.609,90.3452 220.708,90.5796 220.708,90.8504 C220.708,91.1212 220.609,91.3556 220.411,91.5535 C220.213,91.7514 219.979,91.8504 219.708,91.8504 C219.437,91.8504 219.203,91.7514 219.005,91.5535"/>
<path class="Articulation" d="M200.146,86.5535 C199.948,86.3556 199.849,86.1212 199.849,85.8504 C199.849,85.5796 199.948,85.3452 200.146,85.1473 C200.343,84.9494 200.578,84.8504 200.849,84.8504 C201.12,84.8504 201.354,84.9494 201.552,85.1473 C201.75,85.3452 201.849,85.5796 201.849,85.8504 C201.849,86.1212 201.75,86.3556 201.552,86.5535 C201.354,86.7514 201.12,86.8504 200.849,86.8504 C200.578,86.8504 200.343,86.7514 200.146,86.5535"/>
<path class="Articulation" d="M181.286,89.0535 C181.088,88.8556 180.989,88.6212 180.989,88.3504 C180.989,88.0796 181.088,87.8452 181.286,87.6473 C181.484,87.4494 181.718,87.3504 181.989,87.3504 C182.26,87.3504 182.494,87.4494 182.692,87.6473 C182.89,87.8452 182.989,88.0796 182.989,88.3504 C182.989,88.6212 182.89,88.8556 182.692,89.0535 C182.494,89.2514 182.26,89.3504 181.989,89.3504 C181.718,89.3504 181.484,89.2514 181.286,89.0535"/>
<path class="Articulation" d="M162.427,99.0535 C162.229,98.8556 162.13,98.6212 162.13,98.3504 C162.13,98.0796 162.229,97.8452 162.427,97.6473 C162.625,97.4494 162.859,97.3504 163.13,97.3504 C163.401,97.3504 163.635,97.4494 163.833,97.6473 C164.031,97.8452 164.13,98.0796 164.13,98.3504 C164.13,98.6212 164.031,98.8556 163.833,99.0535 C163.635,99.2514 163.401,99.3504 163.13,99.3504 C162.859,99.3504 162.625,99.2514 162.427,99.0535"/>
<path class="Articulation" d="M140.45,96.5535 C140.252,96.3556 140.153,96.1212 140.153,95.8504 C140.153,95.5796 140.252,95.3452 140.45,95.1473 C140.648,94.9494 140.882,94.8504 141.153,94.8504 C141.424,94.8504 141.658,94.9494 141.856,95.1473 C142.054,95.3452 142.153,95.5796 142.153,95.8504 C142.153,96.1212 142.054,96.3556 141.856,96.5535 C141.658,96.7514 141.424,96.8504 141.153,96.8504 C140.882,96.8504 140.648,96.7514 140.45,96.5535"/>
<path class="Dynamic" d="M97.6809,98.8152 C97.3267,98.8152 97.009,99.0027 96.7277,99.3777 C96.4257,99.7736 96.1965,100.211 96.0402,100.69 C95.884,101.149 95.8111,101.55 95.8215,101.893 C95.8215,102.383 96.0038,102.628 96.3684,102.628 C96.6913,102.628 96.9673,102.503 97.1965,102.253 C97.4569,101.982 97.6757,101.513 97.8527,100.846 C98.0402,100.159 98.134,99.6798 98.134,99.409 C98.1236,99.0132 97.9725,98.8152 97.6809,98.8152 M94.759,97.8934 C95.0819,97.8934 95.3658,97.9793 95.6106,98.1512 C95.8553,98.3231 96.009,98.5548 96.0715,98.8465 C96.3319,98.5652 96.6392,98.3361 96.9934,98.159 C97.3475,97.9819 97.6757,97.8934 97.9777,97.8934 C98.6027,97.8934 99.0871,98.0861 99.4309,98.4715 C99.7642,98.8777 99.9309,99.3882 99.9309,100.003 C99.9309,101.024 99.5715,101.857 98.8527,102.503 C98.1965,103.055 97.6027,103.331 97.0715,103.331 C96.7486,103.331 96.4882,103.3 96.2902,103.237 C96.0402,103.175 95.8736,103.117 95.7902,103.065 C95.6757,102.992 95.5819,102.956 95.509,102.956 C95.3423,102.956 95.233,103.024 95.1809,103.159 L94.4777,105.284 L94.4777,105.378 C94.4777,105.503 94.5715,105.576 94.759,105.596 C94.8215,105.607 94.9178,105.617 95.0481,105.628 C95.1783,105.638 95.2798,105.643 95.3527,105.643 C95.5402,105.675 95.634,105.727 95.634,105.8 C95.634,105.904 95.5871,105.956 95.4934,105.956 C94.358,105.883 93.6236,105.846 93.2902,105.846 C92.9257,105.846 92.1757,105.883 91.0402,105.956 C90.9361,105.956 90.8944,105.904 90.9152,105.8 C90.9152,105.727 90.9986,105.675 91.1652,105.643 C91.2382,105.623 91.5715,105.612 92.1652,105.612 C92.4361,105.612 92.5975,105.529 92.6496,105.362 L94.6965,99.4402 C94.7277,99.3257 94.7486,99.2267 94.759,99.1434 C94.759,98.9142 94.6548,98.8048 94.4465,98.8152 C94.1548,98.8152 93.8475,99.0027 93.5246,99.3777 C93.2121,99.7319 92.9621,100.133 92.7746,100.581 C92.7225,100.685 92.6392,100.742 92.5246,100.753 C92.4309,100.753 92.384,100.716 92.384,100.643 C92.384,100.539 92.4152,100.44 92.4777,100.346 C92.7382,99.7944 93.009,99.2944 93.2902,98.8465 C93.4569,98.5965 93.6757,98.3777 93.9465,98.1902 C94.1965,97.9923 94.4673,97.8934 94.759,97.8934"/>
<path class="Beam" fill-rule="evenodd" d="M284.357,114.597 L317.096,114.597 L317.096,117.097 L284.357,117.097 L284.357,114.597 "/>
<path class="NoteDot" d="M101.707,86.6512 C101.483,86.4272 101.371,86.159 101.371,85.8465 C101.371,85.534 101.483,85.2658 101.707,85.0418 C101.931,84.8178 102.2,84.7059 102.512,84.7059 C102.825,84.7059 103.09,84.8178 103.309,85.0418 C103.528,85.2658 103.637,85.534 103.637,85.8465 C103.637,86.159 103.528,86.4272 103.309,86.6512 C103.09,86.8751 102.825,86.9871 102.512,86.9871 C102.2,86.9871 101.931,86.8751 101.707,86.6512"/>
<path class="Tremolo" fill-rule="evenodd" d="M254.087,122.997 L264.294,113.697 L264.294,116.197 L254.087,125.497 L254.087,122.997 "/>
<path class="Tremolo" fill-rule="evenodd" d="M207.765,122.997 L219.055,113.697 L219.055,116.197 L207.765,125.497 L207.765,122.997 "/>
<path class="Tremolo" fill-rule="evenodd" d="M170.046,122.997 L181.336,113.697 L181.336,116.197 L170.046,125.497 L170.046,122.997 "/>
<path class="Tremolo" fill-rule="evenodd" d="M132.339,122.997 L141.234,113.697 L141.234,116.197 L132.339,125.497 L132.339,122.997 "/>
<path class="Tremolo" fill-rule="evenodd" d="M102.347,122.997 L111.242,113.697 L111.242,116.197 L102.347,125.497 L102.347,122.997 "/>
<path class="Bracket" fill-rule="evenodd" d="M36.755,89.1402 C36.755,83.2993 32.7322,77.6218 32.7322,72.0261 C32.7322,69.2077 33.8293,66.4711 37.2122,64.0204 C37.2579,63.9898 37.2807,63.9387 37.2807,63.9081 C37.2807,63.8162 37.0293,63.7345 36.8465,63.7345 C36.755,63.7345 36.595,63.7447 36.4807,63.8162 C32.0922,66.9613 30.6293,70.5965 30.6293,74.2725 C30.6293,80.1951 34.9265,85.9134 34.9265,91.5909 C34.9265,94.4092 33.8293,97.0641 30.4465,99.5148 L30.4465,99.5965 L30.4465,99.6782 C33.8293,102.129 34.9265,104.784 34.9265,107.602 C34.9265,113.28 30.6293,118.998 30.6293,124.92 C30.6293,128.597 32.0922,132.232 36.4807,135.377 C36.595,135.448 36.755,135.458 36.8465,135.458 C37.0293,135.458 37.2807,135.377 37.2807,135.285 C37.2807,135.254 37.2579,135.203 37.2122,135.173 C33.8293,132.722 32.7322,129.985 32.7322,127.167 C32.7322,121.571 36.755,115.894 36.755,110.053 C36.755,106.336 35.2922,102.782 30.995,99.5965 C35.2922,96.4106 36.755,92.8571 36.755,89.1402"/>
</svg>
