<?xml version="1.0" encoding="UTF-8" standalone="no"?>
<svg width="595.44px" height="841.68px" viewBox="0 0 595.44 841.68"
 xmlns="http://www.w3.org/2000/svg" xmlns:xlink="http://www.w3.org/1999/xlink" version="1.2" baseProfile="tiny">
<title>04</title>
<desc>Generated by MuseScore 2.3.2</desc>
<polyline class="StaffLines" fill="none" stroke="#000000" stroke-width="0.40" stroke-linejoin="bevel" points="38.8465,63.3465 567.094,63.3465"/>
<polyline class="StaffLines" fill="none" stroke="#000000" stroke-width="0.40" stroke-linejoin="bevel" points="38.8465,68.3465 567.094,68.3465"/>
<polyline class="StaffLines" fill="none" stroke="#000000" stroke-width="0.40" stroke-linejoin="bevel" points="38.8465,73.3465 567.094,73.3465"/>
<polyline class="StaffLines" fill="none" stroke="#000000" stroke-width="0.40" stroke-linejoin="bevel" points="38.8465,78.3465 567.094,78.3465"/>
<polyline class="StaffLines" fill="none" stroke="#000000" stroke-width="0.40" stroke-linejoin="bevel" points="38.8465,83.3465 567.094,83.3465"/>
<polyline class="StaffLines" fill="none" stroke="#000000" stroke-width="0.40" stroke-linejoin="bevel" points="38.8465,115.847 567.094,115.847"/>
<polyline class="StaffLines" fill="none" stroke="#000000" stroke-width="0.40" stroke-linejoin="bevel" points="38.8465,120.847 567.094,120.847"/>
<polyline class="StaffLines" fill="none" stroke="#000000" stroke-width="0.40" stroke-linejoin="bevel" points="38.8465,125.847 567.094,125.847"/>
<polyline class="StaffLines" fill="none" stroke="#000000" stroke-width="0.40" stroke-linejoin="bevel" points="38.8465,130.847 567.094,130.847"/>
<polyline class="StaffLines" fill="none" stroke="#000000" stroke-width="0.40" stroke-linejoin="bevel" points="38.8465,135.847 567.094,135.847"/>
<path class="SlurSegment" stroke="#000000" stroke-width="0.35" stroke-linecap="round" stroke-linejoin="round" fill-rule="evenodd" d="M100.366,137.847 C131.782,153.556 279.237,155.306 311.016,140.347 C279.227,156.106 131.772,154.356 100.366,137.847"/>
<path class="SlurSegment" stroke="#000000" stroke-width="0.35" stroke-linecap="round" stroke-linejoin="round" fill-rule="evenodd" d="M105.407,47.7215 C141.793,30.6769 312.193,29.3644 348.836,45.8465 C312.199,30.1643 141.799,31.4768 105.407,47.7215"/>
<polyline class="BarLine" stroke="#000000" stroke-width="0.80" stroke-linejoin="bevel" points="39.2465,63.3465 39.2465,135.847"/>
<polyline class="BarLine" stroke="#000000" stroke-width="0.80" stroke-linejoin="bevel" points="562.194,63.3465 562.194,135.847"/>
<polyline class="BarLine" stroke="#000000" stroke-width="2.50" stroke-linejoin="bevel" points="565.844,63.3465 565.844,135.847"/>
<polyline class="BarLine" stroke="#000000" stroke-width="0.80" stroke-linejoin="bevel" points="473.013,63.3465 473.013,135.847"/>
<polyline class="BarLine" stroke="#000000" stroke-width="0.80" stroke-linejoin="bevel" points="380.682,63.3465 380.682,135.847"/>
<polyline class="BarLine" stroke="#000000" stroke-width="0.80" stroke-linejoin="bevel" points="228.768,63.3465 228.768,135.847"/>
<polyline class="LedgerLine" stroke="#000000" stroke-width="0.80" stroke-linecap="square" stroke-linejoin="bevel" points="233.668,53.3465 243.251,53.3465"/>
<polyline class="LedgerLine" stroke="#000000" stroke-width="0.80" stroke-linecap="square" stroke-linejoin="bevel" points="233.668,58.3465 243.251,58.3465"/>
<polyline class="LedgerLine" stroke="#000000" stroke-width="0.80" stroke-linecap="square" stroke-linejoin="bevel" points="95.5746,58.3465 105.157,58.3465"/>
<polyline class="Stem" stroke="#000000" stroke-width="0.65" stroke-linecap="round" stroke-linejoin="bevel" points="362.468,71.7855 362.468,87.0965"/>
<polyline class="Stem" stroke="#000000" stroke-width="0.65" stroke-linecap="round" stroke-linejoin="bevel" points="344.328,61.7855 344.328,87.0965"/>
<polyline class="Stem" stroke="#000000" stroke-width="0.65" stroke-linecap="round" stroke-linejoin="bevel" points="350.261,54.9074 350.261,44.5965"/>
<polyline class="Stem" stroke="#000000" stroke-width="0.65" stroke-linecap="round" stroke-linejoin="bevel" points="326.189,71.7855 326.189,87.0965"/>
<polyline class="Stem" stroke="#000000" stroke-width="0.65" stroke-linecap="round" stroke-linejoin="bevel" points="313.983,134.907 313.983,118.347"/>
<polyline class="Stem" stroke="#000000" stroke-width="0.65" stroke-linecap="round" stroke-linejoin="bevel" points="308.05,61.7855 308.05,87.0965"/>
<polyline class="Stem" stroke="#000000" stroke-width="0.65" stroke-linecap="round" stroke-linejoin="bevel" points="289.911,71.7855 289.911,87.0965"/>
<polyline class="Stem" stroke="#000000" stroke-width="0.65" stroke-linecap="round" stroke-linejoin="bevel" points="271.771,64.2855 271.771,87.0965"/>
<polyline class="Stem" stroke="#000000" stroke-width="0.65" stroke-linecap="round" stroke-linejoin="bevel" points="253.632,71.7855 253.632,87.0965"/>
<polyline class="Stem" stroke="#000000" stroke-width="0.65" stroke-linecap="round" stroke-linejoin="bevel" points="241.426,127.407 241.426,112.097"/>
<polyline class="Stem" stroke="#000000" stroke-width="0.65" stroke-linecap="round" stroke-linejoin="bevel" points="235.493,64.2855 235.493,87.0965"/>
<polyline class="Stem" stroke="#000000" stroke-width="0.65" stroke-linecap="round" stroke-linejoin="bevel" points="241.426,52.4074 241.426,42.0965"/>
<polyline class="Stem" stroke="#000000" stroke-width="0.65" stroke-linecap="round" stroke-linejoin="bevel" points="212.281,71.7855 212.281,87.0965"/>
<polyline class="Stem" stroke="#000000" stroke-width="0.65" stroke-linecap="round" stroke-linejoin="bevel" points="195.87,66.7855 195.87,87.0965"/>
<polyline class="Stem" stroke="#000000" stroke-width="0.65" stroke-linecap="round" stroke-linejoin="bevel" points="179.458,71.7855 179.458,87.0965"/>
<polyline class="Stem" stroke="#000000" stroke-width="0.65" stroke-linecap="round" stroke-linejoin="bevel" points="163.046,126.786 163.046,141.472"/>
<polyline class="Stem" stroke="#000000" stroke-width="0.65" stroke-linecap="round" stroke-linejoin="bevel" points="163.046,66.7855 163.046,87.0965"/>
<polyline class="Stem" stroke="#000000" stroke-width="0.65" stroke-linecap="round" stroke-linejoin="bevel" points="168.979,59.9074 168.979,48.3465"/>
<polyline class="Stem" stroke="#000000" stroke-width="0.65" stroke-linecap="round" stroke-linejoin="bevel" points="146.635,71.7855 146.635,87.0965"/>
<polyline class="Stem" stroke="#000000" stroke-width="0.65" stroke-linecap="round" stroke-linejoin="bevel" points="130.223,64.2855 130.223,87.0965"/>
<polyline class="Stem" stroke="#000000" stroke-width="0.65" stroke-linecap="round" stroke-linejoin="bevel" points="113.811,71.7855 113.811,87.0965"/>
<polyline class="Stem" stroke="#000000" stroke-width="0.65" stroke-linecap="round" stroke-linejoin="bevel" points="103.332,132.407 103.332,115.847"/>
<polyline class="Stem" stroke="#000000" stroke-width="0.65" stroke-linecap="round" stroke-linejoin="bevel" points="97.3996,64.2855 97.3996,87.0965"/>
<polyline class="Stem" stroke="#000000" stroke-width="0.65" stroke-linecap="round" stroke-linejoin="bevel" points="103.332,57.4074 103.332,46.4715"/>
<path class="Note" d="M293.976,68.0965 C294.601,68.0965 295.133,68.2579 295.57,68.5809 C295.966,68.935 296.164,69.3777 296.164,69.909 C296.164,70.8048 295.705,71.6434 294.789,72.4246 C293.851,73.2059 292.846,73.5965 291.773,73.5965 C291.148,73.5965 290.622,73.435 290.195,73.1121 C289.789,72.7579 289.586,72.3152 289.586,71.784 C289.586,70.8881 290.054,70.0496 290.992,69.2684 C291.909,68.4871 292.903,68.0965 293.976,68.0965"/>
<path class="Note" d="M275.837,60.5965 C276.462,60.5965 276.993,60.7579 277.431,61.0808 C277.827,61.435 278.025,61.8777 278.025,62.409 C278.025,63.3048 277.566,64.1433 276.65,64.9246 C275.712,65.7058 274.707,66.0965 273.634,66.0965 C273.009,66.0965 272.483,65.935 272.056,65.6121 C271.65,65.2579 271.446,64.8152 271.446,64.284 C271.446,63.3881 271.915,62.5496 272.853,61.7683 C273.769,60.9871 274.764,60.5965 275.837,60.5965"/>
<path class="Note" d="M257.698,68.0965 C258.323,68.0965 258.854,68.2579 259.292,68.5809 C259.687,68.935 259.885,69.3777 259.885,69.909 C259.885,70.8048 259.427,71.6434 258.51,72.4246 C257.573,73.2059 256.568,73.5965 255.495,73.5965 C254.87,73.5965 254.344,73.435 253.917,73.1121 C253.51,72.7579 253.307,72.3152 253.307,71.784 C253.307,70.8881 253.776,70.0496 254.714,69.2684 C255.63,68.4871 256.625,68.0965 257.698,68.0965"/>
<path class="Note" d="M239.559,125.597 C240.184,125.597 240.715,125.758 241.152,126.081 C241.548,126.435 241.746,126.878 241.746,127.409 C241.746,128.305 241.288,129.143 240.371,129.925 C239.434,130.706 238.428,131.097 237.356,131.097 C236.731,131.097 236.204,130.935 235.777,130.612 C235.371,130.258 235.168,129.815 235.168,129.284 C235.168,128.388 235.637,127.55 236.574,126.768 C237.491,125.987 238.486,125.597 239.559,125.597"/>
<path class="Note" d="M239.559,60.5965 C240.184,60.5965 240.715,60.7579 241.152,61.0808 C241.548,61.435 241.746,61.8777 241.746,62.409 C241.746,63.3048 241.288,64.1433 240.371,64.9246 C239.434,65.7058 238.428,66.0965 237.356,66.0965 C236.731,66.0965 236.204,65.935 235.777,65.6121 C235.371,65.2579 235.168,64.8152 235.168,64.284 C235.168,63.3881 235.637,62.5496 236.574,61.7683 C237.491,60.9871 238.486,60.5965 239.559,60.5965"/>
<path class="Note" d="M239.559,50.5965 C240.184,50.5965 240.715,50.7579 241.152,51.0808 C241.548,51.435 241.746,51.8777 241.746,52.409 C241.746,53.3048 241.288,54.1433 240.371,54.9246 C239.434,55.7058 238.428,56.0965 237.356,56.0965 C236.731,56.0965 236.204,55.935 235.777,55.6121 C235.371,55.2579 235.168,54.8152 235.168,54.284 C235.168,53.3881 235.637,52.5496 236.574,51.7683 C237.491,50.9871 238.486,50.5965 239.559,50.5965"/>
<path class="Note" d="M216.347,68.0965 C216.972,68.0965 217.503,68.2579 217.941,68.5809 C218.337,68.935 218.534,69.3777 218.534,69.909 C218.534,70.8048 218.076,71.6434 217.159,72.4246 C216.222,73.2059 215.217,73.5965 214.144,73.5965 C213.519,73.5965 212.993,73.435 212.566,73.1121 C212.159,72.7579 211.956,72.3152 211.956,71.784 C211.956,70.8881 212.425,70.0496 213.363,69.2684 C214.279,68.4871 215.274,68.0965 216.347,68.0965"/>
<path class="Note" d="M199.935,63.0965 C200.56,63.0965 201.092,63.2579 201.529,63.5808 C201.925,63.935 202.123,64.3777 202.123,64.909 C202.123,65.8048 201.664,66.6433 200.748,67.4246 C199.81,68.2058 198.805,68.5965 197.732,68.5965 C197.107,68.5965 196.581,68.435 196.154,68.1121 C195.748,67.7579 195.545,67.3152 195.545,66.784 C195.545,65.8881 196.013,65.0496 196.951,64.2683 C197.868,63.4871 198.862,63.0965 199.935,63.0965"/>
<path class="Note" d="M183.524,68.0965 C184.149,68.0965 184.68,68.2579 185.117,68.5809 C185.513,68.935 185.711,69.3777 185.711,69.909 C185.711,70.8048 185.253,71.6434 184.336,72.4246 C183.399,73.2059 182.393,73.5965 181.321,73.5965 C180.696,73.5965 180.169,73.435 179.742,73.1121 C179.336,72.7579 179.133,72.3152 179.133,71.784 C179.133,70.8881 179.602,70.0496 180.539,69.2684 C181.456,68.4871 182.451,68.0965 183.524,68.0965"/>
<path class="Note" d="M167.112,123.097 C167.737,123.097 168.268,123.258 168.706,123.581 C169.102,123.935 169.299,124.378 169.299,124.909 C169.299,125.805 168.841,126.643 167.924,127.425 C166.987,128.206 165.982,128.597 164.909,128.597 C164.284,128.597 163.758,128.435 163.331,128.112 C162.924,127.758 162.721,127.315 162.721,126.784 C162.721,125.888 163.19,125.05 164.128,124.268 C165.044,123.487 166.039,123.097 167.112,123.097"/>
<path class="Note" d="M167.112,63.0965 C167.737,63.0965 168.268,63.2579 168.706,63.5808 C169.102,63.935 169.299,64.3777 169.299,64.909 C169.299,65.8048 168.841,66.6433 167.924,67.4246 C166.987,68.2058 165.982,68.5965 164.909,68.5965 C164.284,68.5965 163.758,68.435 163.331,68.1121 C162.924,67.7579 162.721,67.3152 162.721,66.784 C162.721,65.8881 163.19,65.0496 164.128,64.2683 C165.044,63.4871 166.039,63.0965 167.112,63.0965"/>
<path class="Note" d="M167.112,58.0965 C167.737,58.0965 168.268,58.2579 168.706,58.5808 C169.102,58.935 169.299,59.3777 169.299,59.909 C169.299,60.8048 168.841,61.6433 167.924,62.4246 C166.987,63.2058 165.982,63.5965 164.909,63.5965 C164.284,63.5965 163.758,63.435 163.331,63.1121 C162.924,62.7579 162.721,62.3152 162.721,61.784 C162.721,60.8881 163.19,60.0496 164.128,59.2683 C165.044,58.4871 166.039,58.0965 167.112,58.0965"/>
<path class="Note" d="M150.7,68.0965 C151.325,68.0965 151.857,68.2579 152.294,68.5809 C152.69,68.935 152.888,69.3777 152.888,69.909 C152.888,70.8048 152.429,71.6434 151.513,72.4246 C150.575,73.2059 149.57,73.5965 148.497,73.5965 C147.872,73.5965 147.346,73.435 146.919,73.1121 C146.513,72.7579 146.31,72.3152 146.31,71.784 C146.31,70.8881 146.778,70.0496 147.716,69.2684 C148.633,68.4871 149.627,68.0965 150.7,68.0965"/>
<path class="Note" d="M134.289,60.5965 C134.914,60.5965 135.445,60.7579 135.882,61.0808 C136.278,61.435 136.476,61.8777 136.476,62.409 C136.476,63.3048 136.018,64.1433 135.101,64.9246 C134.164,65.7058 133.158,66.0965 132.085,66.0965 C131.46,66.0965 130.934,65.935 130.507,65.6121 C130.101,65.2579 129.898,64.8152 129.898,64.284 C129.898,63.3881 130.367,62.5496 131.304,61.7683 C132.221,60.9871 133.216,60.5965 134.289,60.5965"/>
<path class="Note" d="M117.877,68.0965 C118.502,68.0965 119.033,68.2579 119.471,68.5809 C119.867,68.935 120.064,69.3777 120.064,69.909 C120.064,70.8048 119.606,71.6434 118.689,72.4246 C117.752,73.2059 116.747,73.5965 115.674,73.5965 C115.049,73.5965 114.523,73.435 114.096,73.1121 C113.689,72.7579 113.486,72.3152 113.486,71.784 C113.486,70.8881 113.955,70.0496 114.893,69.2684 C115.809,68.4871 116.804,68.0965 117.877,68.0965"/>
<path class="Note" d="M101.465,130.597 C102.09,130.597 102.621,130.758 103.059,131.081 C103.455,131.435 103.653,131.878 103.653,132.409 C103.653,133.305 103.194,134.143 102.278,134.925 C101.34,135.706 100.335,136.097 99.2621,136.097 C98.6371,136.097 98.1111,135.935 97.684,135.612 C97.2777,135.258 97.0746,134.815 97.0746,134.284 C97.0746,133.388 97.5434,132.55 98.4809,131.768 C99.3975,130.987 100.392,130.597 101.465,130.597"/>
<path class="Note" d="M101.465,60.5965 C102.09,60.5965 102.621,60.7579 103.059,61.0808 C103.455,61.435 103.653,61.8777 103.653,62.409 C103.653,63.3048 103.194,64.1433 102.278,64.9246 C101.34,65.7058 100.335,66.0965 99.2621,66.0965 C98.6371,66.0965 98.1111,65.935 97.684,65.6121 C97.2777,65.2579 97.0746,64.8152 97.0746,64.284 C97.0746,63.3881 97.5434,62.5496 98.4809,61.7683 C99.3975,60.9871 100.392,60.5965 101.465,60.5965"/>
<path class="Note" d="M101.465,55.5965 C102.09,55.5965 102.621,55.7579 103.059,56.0808 C103.455,56.435 103.653,56.8777 103.653,57.409 C103.653,58.3048 103.194,59.1433 102.278,59.9246 C101.34,60.7058 100.335,61.0965 99.2621,61.0965 C98.6371,61.0965 98.1111,60.935 97.684,60.6121 C97.2777,60.2579 97.0746,59.8152 97.0746,59.284 C97.0746,58.3881 97.5434,57.5496 98.4809,56.7683 C99.3975,55.9871 100.392,55.5965 101.465,55.5965"/>
<path class="Clef" d="M54.2761,119.065 C54.0834,118.867 53.9871,118.625 53.9871,118.339 C53.9871,118.052 54.0834,117.813 54.2761,117.62 C54.4689,117.427 54.7084,117.331 54.9949,117.331 C55.2814,117.331 55.5235,117.427 55.7215,117.62 C55.9194,117.813 56.0183,118.052 56.0183,118.339 C56.0183,118.625 55.9194,118.867 55.7215,119.065 C55.5235,119.263 55.2814,119.362 54.9949,119.362 C54.7084,119.362 54.4689,119.263 54.2761,119.065 M54.2761,124.073 C54.0834,123.88 53.9871,123.641 53.9871,123.354 C53.9871,123.068 54.0834,122.826 54.2761,122.628 C54.4689,122.43 54.7084,122.331 54.9949,122.331 C55.2814,122.331 55.5235,122.43 55.7215,122.628 C55.9194,122.826 56.0183,123.068 56.0183,123.354 C56.0183,123.641 55.9194,123.88 55.7215,124.073 C55.5235,124.266 55.2814,124.362 54.9949,124.362 C54.7084,124.362 54.4689,124.266 54.2761,124.073 M47.5027,115.597 C49.2319,115.597 50.6485,116.029 51.7527,116.893 C52.8256,117.81 53.3621,119.05 53.3621,120.612 C53.3621,121.664 53.1538,122.628 52.7371,123.503 C52.3413,124.419 51.8256,125.227 51.1902,125.925 C50.534,126.643 49.7475,127.32 48.8308,127.956 C47.9246,128.581 46.9975,129.143 46.0496,129.643 C44.1225,130.612 43.0548,131.097 42.8465,131.097 C42.6798,131.097 42.5965,131.013 42.5965,130.847 C42.5965,130.784 42.6225,130.727 42.6746,130.675 C43.3413,130.279 44.1538,129.779 45.1121,129.175 C45.7371,128.768 46.4663,128.206 47.2996,127.487 C48.1121,126.81 48.7371,126.175 49.1746,125.581 C49.6329,124.987 50.0496,124.258 50.4246,123.393 C50.7475,122.518 50.909,121.654 50.909,120.8 C50.909,119.539 50.5965,118.44 49.9715,117.503 C49.3465,116.565 48.5235,116.097 47.5027,116.097 C46.7735,116.097 46.1485,116.331 45.6277,116.8 C45.0652,117.279 44.659,117.883 44.409,118.612 C44.659,118.508 44.8881,118.456 45.0965,118.456 C45.6381,118.456 46.1069,118.654 46.5027,119.05 C46.8881,119.466 47.0808,119.94 47.0808,120.472 C47.0808,121.034 46.8933,121.539 46.5183,121.987 C46.1121,122.383 45.6381,122.581 45.0965,122.581 C44.5131,122.581 43.9871,122.383 43.5183,121.987 C43.0704,121.539 42.8465,121.034 42.8465,120.472 C42.8465,119.128 43.3048,117.982 44.2215,117.034 C45.1173,116.076 46.211,115.597 47.5027,115.597"/>
<path class="Clef" d="M54.2761,66.5652 C54.0834,66.3673 53.9871,66.1251 53.9871,65.8387 C53.9871,65.5522 54.0834,65.3126 54.2761,65.1199 C54.4689,64.9272 54.7084,64.8309 54.9949,64.8309 C55.2814,64.8309 55.5235,64.9272 55.7215,65.1199 C55.9194,65.3126 56.0183,65.5522 56.0183,65.8387 C56.0183,66.1251 55.9194,66.3673 55.7215,66.5652 C55.5235,66.7631 55.2814,66.8621 54.9949,66.8621 C54.7084,66.8621 54.4689,66.7631 54.2761,66.5652 M54.2761,71.573 C54.0834,71.3803 53.9871,71.1407 53.9871,70.8543 C53.9871,70.5678 54.0834,70.3256 54.2761,70.1277 C54.4689,69.9298 54.7084,69.8309 54.9949,69.8309 C55.2814,69.8309 55.5235,69.9298 55.7215,70.1277 C55.9194,70.3256 56.0183,70.5678 56.0183,70.8543 C56.0183,71.1407 55.9194,71.3803 55.7215,71.573 C55.5235,71.7657 55.2814,71.8621 54.9949,71.8621 C54.7084,71.8621 54.4689,71.7657 54.2761,71.573 M47.5027,63.0965 C49.2319,63.0965 50.6485,63.5288 51.7527,64.3934 C52.8256,65.31 53.3621,66.5496 53.3621,68.1121 C53.3621,69.1642 53.1538,70.1277 52.7371,71.0027 C52.3413,71.9194 51.8256,72.7267 51.1902,73.4246 C50.534,74.1434 49.7475,74.8204 48.8308,75.4559 C47.9246,76.0809 46.9975,76.6434 46.0496,77.1434 C44.1225,78.1121 43.0548,78.5965 42.8465,78.5965 C42.6798,78.5965 42.5965,78.5131 42.5965,78.3465 C42.5965,78.284 42.6225,78.2267 42.6746,78.1746 C43.3413,77.7788 44.1538,77.2788 45.1121,76.6746 C45.7371,76.2684 46.4663,75.7059 47.2996,74.9871 C48.1121,74.31 48.7371,73.6746 49.1746,73.0809 C49.6329,72.4871 50.0496,71.7579 50.4246,70.8934 C50.7475,70.0184 50.909,69.1538 50.909,68.2996 C50.909,67.0392 50.5965,65.9402 49.9715,65.0027 C49.3465,64.0652 48.5235,63.5965 47.5027,63.5965 C46.7735,63.5965 46.1485,63.8309 45.6277,64.2996 C45.0652,64.7788 44.659,65.3829 44.409,66.1121 C44.659,66.0079 44.8881,65.9559 45.0965,65.9559 C45.6381,65.9559 46.1069,66.1538 46.5027,66.5496 C46.8881,66.9663 47.0808,67.4402 47.0808,67.9715 C47.0808,68.534 46.8933,69.0392 46.5183,69.4871 C46.1121,69.8829 45.6381,70.0809 45.0965,70.0809 C44.5131,70.0809 43.9871,69.8829 43.5183,69.4871 C43.0704,69.0392 42.8465,68.534 42.8465,67.9715 C42.8465,66.6277 43.3048,65.4819 44.2215,64.534 C45.1173,63.5756 46.211,63.0965 47.5027,63.0965"/>
<path class="KeySig" d="M74.2621,125.018 L74.2621,126.565 C74.2621,127.117 74.2881,127.555 74.3402,127.878 C74.7673,127.513 75.0746,127.242 75.2621,127.065 C75.4704,126.857 75.6788,126.568 75.8871,126.198 C76.0954,125.828 76.1996,125.461 76.1996,125.097 C76.1996,124.732 76.1215,124.419 75.9652,124.159 C75.809,123.899 75.6006,123.768 75.3402,123.768 C75.0277,123.768 74.7673,123.888 74.559,124.128 C74.3611,124.388 74.2621,124.685 74.2621,125.018 M73.434,128.597 L73.184,116.706 C73.3715,116.602 73.5564,116.55 73.7387,116.55 C73.921,116.55 74.1006,116.602 74.2777,116.706 L74.1215,123.597 C74.6527,123.138 75.2673,122.909 75.9652,122.909 C76.4652,122.909 76.8845,123.117 77.223,123.534 C77.5616,123.951 77.7309,124.43 77.7309,124.972 C77.7309,125.305 77.6215,125.664 77.4027,126.05 C77.1944,126.393 76.9756,126.664 76.7465,126.862 C76.6111,126.966 76.2777,127.227 75.7465,127.643 C75.5902,127.758 75.4053,127.893 75.1918,128.05 C74.9782,128.206 74.8454,128.305 74.7934,128.347 C74.6996,128.399 74.6111,128.503 74.5277,128.659 C74.4444,128.794 74.3402,128.904 74.2152,128.987 C74.1319,129.07 74.0251,129.112 73.8949,129.112 C73.7647,129.112 73.6579,129.065 73.5746,128.972 C73.4809,128.878 73.434,128.753 73.434,128.597"/>
<path class="KeySig" d="M69.2621,132.518 L69.2621,134.065 C69.2621,134.617 69.2881,135.055 69.3402,135.378 C69.7673,135.013 70.0746,134.742 70.2621,134.565 C70.4704,134.357 70.6788,134.068 70.8871,133.698 C71.0954,133.328 71.1996,132.961 71.1996,132.597 C71.1996,132.232 71.1215,131.919 70.9652,131.659 C70.809,131.399 70.6006,131.268 70.3402,131.268 C70.0277,131.268 69.7673,131.388 69.559,131.628 C69.3611,131.888 69.2621,132.185 69.2621,132.518 M68.434,136.097 L68.184,124.206 C68.3715,124.102 68.5564,124.05 68.7387,124.05 C68.921,124.05 69.1006,124.102 69.2777,124.206 L69.1215,131.097 C69.6527,130.638 70.2673,130.409 70.9652,130.409 C71.4652,130.409 71.8845,130.617 72.223,131.034 C72.5616,131.451 72.7309,131.93 72.7309,132.472 C72.7309,132.805 72.6215,133.164 72.4027,133.55 C72.1944,133.893 71.9756,134.164 71.7465,134.362 C71.6111,134.466 71.2777,134.727 70.7465,135.143 C70.5902,135.258 70.4053,135.393 70.1918,135.55 C69.9782,135.706 69.8454,135.805 69.7934,135.847 C69.6996,135.899 69.6111,136.003 69.5277,136.159 C69.4444,136.294 69.3402,136.404 69.2152,136.487 C69.1319,136.57 69.0251,136.612 68.8949,136.612 C68.7647,136.612 68.6579,136.565 68.5746,136.472 C68.4809,136.378 68.434,136.253 68.434,136.097"/>
<path class="KeySig" d="M64.2621,122.518 L64.2621,124.065 C64.2621,124.617 64.2881,125.055 64.3402,125.378 C64.7673,125.013 65.0746,124.742 65.2621,124.565 C65.4704,124.357 65.6788,124.068 65.8871,123.698 C66.0954,123.328 66.1996,122.961 66.1996,122.597 C66.1996,122.232 66.1215,121.919 65.9652,121.659 C65.809,121.399 65.6006,121.268 65.3402,121.268 C65.0277,121.268 64.7673,121.388 64.559,121.628 C64.3611,121.888 64.2621,122.185 64.2621,122.518 M63.434,126.097 L63.184,114.206 C63.3715,114.102 63.5564,114.05 63.7387,114.05 C63.921,114.05 64.1006,114.102 64.2777,114.206 L64.1215,121.097 C64.6527,120.638 65.2673,120.409 65.9652,120.409 C66.4652,120.409 66.8845,120.617 67.223,121.034 C67.5616,121.451 67.7308,121.93 67.7308,122.472 C67.7308,122.805 67.6215,123.164 67.4027,123.55 C67.1944,123.893 66.9756,124.164 66.7465,124.362 C66.6111,124.466 66.2777,124.727 65.7465,125.143 C65.5902,125.258 65.4053,125.393 65.1918,125.55 C64.9782,125.706 64.8454,125.805 64.7933,125.847 C64.6996,125.899 64.6111,126.003 64.5277,126.159 C64.4444,126.294 64.3402,126.404 64.2152,126.487 C64.1319,126.57 64.0251,126.612 63.8949,126.612 C63.7647,126.612 63.6579,126.565 63.5746,126.472 C63.4808,126.378 63.434,126.253 63.434,126.097"/>
<path class="KeySig" d="M59.2621,130.018 L59.2621,131.565 C59.2621,132.117 59.2881,132.555 59.3402,132.878 C59.7673,132.513 60.0746,132.242 60.2621,132.065 C60.4704,131.857 60.6788,131.568 60.8871,131.198 C61.0954,130.828 61.1996,130.461 61.1996,130.097 C61.1996,129.732 61.1215,129.419 60.9652,129.159 C60.809,128.899 60.6006,128.768 60.3402,128.768 C60.0277,128.768 59.7673,128.888 59.559,129.128 C59.3611,129.388 59.2621,129.685 59.2621,130.018 M58.434,133.597 L58.184,121.706 C58.3715,121.602 58.5564,121.55 58.7387,121.55 C58.9209,121.55 59.1006,121.602 59.2777,121.706 L59.1215,128.597 C59.6527,128.138 60.2673,127.909 60.9652,127.909 C61.4652,127.909 61.8845,128.117 62.223,128.534 C62.5616,128.951 62.7308,129.43 62.7308,129.972 C62.7308,130.305 62.6215,130.664 62.4027,131.05 C62.1944,131.393 61.9756,131.664 61.7465,131.862 C61.6111,131.966 61.2777,132.227 60.7465,132.643 C60.5902,132.758 60.4053,132.893 60.1918,133.05 C59.9782,133.206 59.8454,133.305 59.7933,133.347 C59.6996,133.399 59.6111,133.503 59.5277,133.659 C59.4444,133.794 59.3402,133.904 59.2152,133.987 C59.1319,134.07 59.0251,134.112 58.8949,134.112 C58.7647,134.112 58.6579,134.065 58.5746,133.972 C58.4808,133.878 58.434,133.753 58.434,133.597"/>
<path class="KeySig" d="M74.2621,72.5184 L74.2621,74.0652 C74.2621,74.6173 74.2881,75.0548 74.3402,75.3777 C74.7673,75.0131 75.0746,74.7423 75.2621,74.5652 C75.4704,74.3569 75.6788,74.0678 75.8871,73.698 C76.0954,73.3282 76.1996,72.9611 76.1996,72.5965 C76.1996,72.2319 76.1215,71.9194 75.9652,71.659 C75.809,71.3986 75.6006,71.2684 75.3402,71.2684 C75.0277,71.2684 74.7673,71.3881 74.559,71.6277 C74.3611,71.8881 74.2621,72.185 74.2621,72.5184 M73.434,76.0965 L73.184,64.2059 C73.3715,64.1017 73.5564,64.0496 73.7387,64.0496 C73.921,64.0496 74.1006,64.1017 74.2777,64.2059 L74.1215,71.0965 C74.6527,70.6381 75.2673,70.409 75.9652,70.409 C76.4652,70.409 76.8845,70.6173 77.223,71.034 C77.5616,71.4506 77.7309,71.9298 77.7309,72.4715 C77.7309,72.8048 77.6215,73.1642 77.4027,73.5496 C77.1944,73.8934 76.9756,74.1642 76.7465,74.3621 C76.6111,74.4663 76.2777,74.7267 75.7465,75.1434 C75.5902,75.2579 75.4053,75.3934 75.1918,75.5496 C74.9782,75.7059 74.8454,75.8048 74.7934,75.8465 C74.6996,75.8986 74.6111,76.0027 74.5277,76.159 C74.4444,76.2944 74.3402,76.4038 74.2152,76.4871 C74.1319,76.5704 74.0251,76.6121 73.8949,76.6121 C73.7647,76.6121 73.6579,76.5652 73.5746,76.4715 C73.4809,76.3777 73.434,76.2527 73.434,76.0965"/>
<path class="KeySig" d="M69.2621,80.0184 L69.2621,81.5652 C69.2621,82.1173 69.2881,82.5548 69.3402,82.8777 C69.7673,82.5131 70.0746,82.2423 70.2621,82.0652 C70.4704,81.8569 70.6788,81.5678 70.8871,81.198 C71.0954,80.8283 71.1996,80.4611 71.1996,80.0965 C71.1996,79.7319 71.1215,79.4194 70.9652,79.159 C70.809,78.8986 70.6006,78.7684 70.3402,78.7684 C70.0277,78.7684 69.7673,78.8881 69.559,79.1277 C69.3611,79.3881 69.2621,79.685 69.2621,80.0184 M68.434,83.5965 L68.184,71.7059 C68.3715,71.6017 68.5564,71.5496 68.7387,71.5496 C68.921,71.5496 69.1006,71.6017 69.2777,71.7059 L69.1215,78.5965 C69.6527,78.1381 70.2673,77.909 70.9652,77.909 C71.4652,77.909 71.8845,78.1173 72.223,78.534 C72.5616,78.9506 72.7309,79.4298 72.7309,79.9715 C72.7309,80.3048 72.6215,80.6642 72.4027,81.0496 C72.1944,81.3934 71.9756,81.6642 71.7465,81.8621 C71.6111,81.9663 71.2777,82.2267 70.7465,82.6434 C70.5902,82.7579 70.4053,82.8934 70.1918,83.0496 C69.9782,83.2059 69.8454,83.3048 69.7934,83.3465 C69.6996,83.3986 69.6111,83.5027 69.5277,83.659 C69.4444,83.7944 69.3402,83.9038 69.2152,83.9871 C69.1319,84.0704 69.0251,84.1121 68.8949,84.1121 C68.7647,84.1121 68.6579,84.0652 68.5746,83.9715 C68.4809,83.8777 68.434,83.7527 68.434,83.5965"/>
<path class="KeySig" d="M64.2621,70.0184 L64.2621,71.5652 C64.2621,72.1173 64.2881,72.5548 64.3402,72.8777 C64.7673,72.5131 65.0746,72.2423 65.2621,72.0652 C65.4704,71.8569 65.6788,71.5678 65.8871,71.198 C66.0954,70.8282 66.1996,70.4611 66.1996,70.0965 C66.1996,69.7319 66.1215,69.4194 65.9652,69.159 C65.809,68.8986 65.6006,68.7684 65.3402,68.7684 C65.0277,68.7684 64.7673,68.8881 64.559,69.1277 C64.3611,69.3881 64.2621,69.685 64.2621,70.0184 M63.434,73.5965 L63.184,61.7059 C63.3715,61.6017 63.5564,61.5496 63.7387,61.5496 C63.921,61.5496 64.1006,61.6017 64.2777,61.7059 L64.1215,68.5965 C64.6527,68.1381 65.2673,67.909 65.9652,67.909 C66.4652,67.909 66.8845,68.1173 67.223,68.534 C67.5616,68.9506 67.7308,69.4298 67.7308,69.9715 C67.7308,70.3048 67.6215,70.6642 67.4027,71.0496 C67.1944,71.3934 66.9756,71.6642 66.7465,71.8621 C66.6111,71.9663 66.2777,72.2267 65.7465,72.6434 C65.5902,72.7579 65.4053,72.8934 65.1918,73.0496 C64.9782,73.2059 64.8454,73.3048 64.7933,73.3465 C64.6996,73.3986 64.6111,73.5027 64.5277,73.659 C64.4444,73.7944 64.3402,73.9038 64.2152,73.9871 C64.1319,74.0704 64.0251,74.1121 63.8949,74.1121 C63.7647,74.1121 63.6579,74.0652 63.5746,73.9715 C63.4808,73.8777 63.434,73.7527 63.434,73.5965"/>
<path class="KeySig" d="M59.2621,77.5184 L59.2621,79.0652 C59.2621,79.6173 59.2881,80.0548 59.3402,80.3777 C59.7673,80.0131 60.0746,79.7423 60.2621,79.5652 C60.4704,79.3569 60.6788,79.0678 60.8871,78.698 C61.0954,78.3283 61.1996,77.9611 61.1996,77.5965 C61.1996,77.2319 61.1215,76.9194 60.9652,76.659 C60.809,76.3986 60.6006,76.2684 60.3402,76.2684 C60.0277,76.2684 59.7673,76.3881 59.559,76.6277 C59.3611,76.8881 59.2621,77.185 59.2621,77.5184 M58.434,81.0965 L58.184,69.2059 C58.3715,69.1017 58.5564,69.0496 58.7387,69.0496 C58.9209,69.0496 59.1006,69.1017 59.2777,69.2059 L59.1215,76.0965 C59.6527,75.6381 60.2673,75.409 60.9652,75.409 C61.4652,75.409 61.8845,75.6173 62.223,76.034 C62.5616,76.4506 62.7308,76.9298 62.7308,77.4715 C62.7308,77.8048 62.6215,78.1642 62.4027,78.5496 C62.1944,78.8934 61.9756,79.1642 61.7465,79.3621 C61.6111,79.4663 61.2777,79.7267 60.7465,80.1434 C60.5902,80.2579 60.4053,80.3934 60.1918,80.5496 C59.9782,80.7059 59.8454,80.8048 59.7933,80.8465 C59.6996,80.8986 59.6111,81.0027 59.5277,81.159 C59.4444,81.2944 59.3402,81.4038 59.2152,81.4871 C59.1319,81.5704 59.0251,81.6121 58.8949,81.6121 C58.7647,81.6121 58.6579,81.5652 58.5746,81.4715 C58.4808,81.3777 58.434,81.2527 58.434,81.0965"/>
<path class="TimeSig" d="M85.2465,125.847 C84.8506,125.847 84.4965,125.776 84.184,125.636 C83.8715,125.495 83.6527,125.347 83.5277,125.19 C83.3506,124.992 83.1788,124.841 83.0121,124.737 C82.8038,124.591 82.5902,124.518 82.3715,124.518 C82.0277,124.518 81.7465,124.623 81.5277,124.831 C81.2986,125.029 81.1684,125.294 81.1371,125.628 C81.1163,125.774 81.0381,125.847 80.9027,125.847 C80.7465,125.847 80.6684,125.774 80.6684,125.628 C80.6684,125.128 80.7881,124.675 81.0277,124.268 C81.2569,123.852 81.5434,123.508 81.8871,123.237 C82.1684,122.987 82.5434,122.685 83.0121,122.331 C83.0954,122.268 83.2621,122.133 83.5121,121.925 C83.7621,121.716 83.9756,121.539 84.1527,121.393 C84.4861,121.112 84.7777,120.732 85.0277,120.253 C85.2569,119.784 85.3715,119.279 85.3715,118.737 C85.3715,118.07 85.2621,117.498 85.0434,117.018 C84.8142,116.55 84.4548,116.315 83.9652,116.315 C83.6736,116.315 83.434,116.378 83.2465,116.503 C83.0486,116.638 82.9496,116.815 82.9496,117.034 C82.9496,117.222 83.0668,117.451 83.3012,117.722 C83.5355,117.992 83.6527,118.222 83.6527,118.409 C83.6527,118.794 83.5173,119.123 83.2465,119.393 C82.9861,119.654 82.6684,119.784 82.2934,119.784 C81.8975,119.784 81.5642,119.649 81.2934,119.378 C81.0329,119.097 80.9027,118.774 80.9027,118.409 C80.9027,117.659 81.2022,117.044 81.8012,116.565 C82.4001,116.086 83.1215,115.847 83.9652,115.847 C84.9756,115.847 85.8506,116.117 86.5902,116.659 C87.3298,117.18 87.6996,117.873 87.6996,118.737 C87.6996,119.32 87.5954,119.82 87.3871,120.237 C87.1892,120.685 86.8975,121.034 86.5121,121.284 C86.0642,121.565 85.6788,121.784 85.3559,121.94 C84.8975,122.149 84.4444,122.347 83.9965,122.534 C83.4444,122.753 83.0173,122.961 82.7152,123.159 C82.8923,123.117 83.0694,123.097 83.2465,123.097 C83.8506,123.097 84.4756,123.289 85.1215,123.675 C85.7881,124.07 86.3038,124.268 86.6684,124.268 C86.8871,124.268 87.0642,124.227 87.1996,124.143 C87.3246,124.07 87.4079,123.987 87.4496,123.893 C87.5017,123.768 87.5486,123.68 87.5902,123.628 C87.6423,123.544 87.7048,123.503 87.7777,123.503 C87.934,123.503 88.0121,123.581 88.0121,123.737 C88.0121,124.102 87.7517,124.544 87.2309,125.065 C86.7204,125.586 86.059,125.847 85.2465,125.847"/>
<path class="TimeSig" d="M84.8246,126.097 C85.21,126.097 85.5408,126.052 85.8168,125.964 C86.0928,125.875 86.2673,125.831 86.3402,125.831 C86.434,125.831 86.5069,125.857 86.559,125.909 C86.6006,125.94 86.6267,125.982 86.6371,126.034 C86.6371,126.065 86.6215,126.107 86.5902,126.159 L80.9184,132.768 L84.2465,132.768 L84.2465,130.143 C84.2465,129.977 84.2934,129.831 84.3871,129.706 C84.5434,129.581 84.6736,129.503 84.7777,129.472 C84.9444,129.399 85.1527,129.216 85.4027,128.925 C85.6111,128.695 85.8611,128.289 86.1527,127.706 C86.184,127.623 86.2413,127.581 86.3246,127.581 C86.4809,127.581 86.5694,127.675 86.5902,127.862 L86.5902,132.768 L88.0277,132.768 C88.2048,132.768 88.309,132.862 88.3402,133.05 C88.3402,133.248 88.2361,133.347 88.0277,133.347 L86.5902,133.347 L86.5902,133.503 C86.5902,134.024 86.7204,134.466 86.9809,134.831 C87.2829,135.195 87.6371,135.378 88.0434,135.378 C88.1996,135.378 88.2777,135.456 88.2777,135.612 C88.2777,135.768 88.1996,135.847 88.0434,135.847 C87.7725,135.847 87.3298,135.81 86.7152,135.737 C86.1527,135.643 85.7152,135.597 85.4027,135.597 C85.0798,135.597 84.6423,135.643 84.0902,135.737 C83.5069,135.81 83.0746,135.847 82.7934,135.847 C82.6371,135.847 82.559,135.768 82.559,135.612 C82.559,135.456 82.6371,135.378 82.7934,135.378 C83.1892,135.378 83.5381,135.195 83.8402,134.831 C84.1111,134.466 84.2465,134.024 84.2465,133.503 L84.2465,133.347 L80.9184,133.347 C80.6892,133.347 80.5329,133.294 80.4496,133.19 C80.335,133.117 80.2777,133.013 80.2777,132.878 C80.2777,132.836 80.3767,132.701 80.5746,132.472 C80.8038,132.211 81.0381,131.893 81.2777,131.518 C81.5694,131.07 81.8454,130.612 82.1059,130.143 C82.3871,129.612 82.6163,128.998 82.7934,128.3 C82.9809,127.602 83.0746,126.888 83.0746,126.159 C83.0746,125.951 83.1684,125.847 83.3559,125.847 C83.3975,125.847 83.4809,125.867 83.6059,125.909 C83.6475,125.919 83.7309,125.938 83.8559,125.964 C83.9809,125.99 84.0798,126.013 84.1527,126.034 C84.3923,126.076 84.6163,126.097 84.8246,126.097"/>
<path class="TimeSig" d="M85.2465,73.3465 C84.8506,73.3465 84.4965,73.2762 84.184,73.1355 C83.8715,72.9949 83.6527,72.8465 83.5277,72.6902 C83.3506,72.4923 83.1788,72.3413 83.0121,72.2371 C82.8038,72.0913 82.5902,72.0184 82.3715,72.0184 C82.0277,72.0184 81.7465,72.1225 81.5277,72.3309 C81.2986,72.5288 81.1684,72.7944 81.1371,73.1277 C81.1163,73.2736 81.0381,73.3465 80.9027,73.3465 C80.7465,73.3465 80.6684,73.2736 80.6684,73.1277 C80.6684,72.6277 80.7881,72.1746 81.0277,71.7684 C81.2569,71.3517 81.5434,71.0079 81.8871,70.7371 C82.1684,70.4871 82.5434,70.185 83.0121,69.8309 C83.0954,69.7684 83.2621,69.6329 83.5121,69.4246 C83.7621,69.2163 83.9756,69.0392 84.1527,68.8934 C84.4861,68.6121 84.7777,68.2319 85.0277,67.7527 C85.2569,67.284 85.3715,66.7788 85.3715,66.2371 C85.3715,65.5704 85.2621,64.9975 85.0434,64.5184 C84.8142,64.0496 84.4548,63.8152 83.9652,63.8152 C83.6736,63.8152 83.434,63.8777 83.2465,64.0027 C83.0486,64.1381 82.9496,64.3152 82.9496,64.534 C82.9496,64.7215 83.0668,64.9506 83.3012,65.2215 C83.5355,65.4923 83.6527,65.7215 83.6527,65.909 C83.6527,66.2944 83.5173,66.6225 83.2465,66.8934 C82.9861,67.1538 82.6684,67.284 82.2934,67.284 C81.8975,67.284 81.5642,67.1486 81.2934,66.8777 C81.0329,66.5965 80.9027,66.2736 80.9027,65.909 C80.9027,65.159 81.2022,64.5444 81.8012,64.0652 C82.4001,63.5861 83.1215,63.3465 83.9652,63.3465 C84.9756,63.3465 85.8506,63.6173 86.5902,64.159 C87.3298,64.6798 87.6996,65.3725 87.6996,66.2371 C87.6996,66.8204 87.5954,67.3204 87.3871,67.7371 C87.1892,68.185 86.8975,68.534 86.5121,68.784 C86.0642,69.0652 85.6788,69.284 85.3559,69.4402 C84.8975,69.6486 84.4444,69.8465 83.9965,70.034 C83.4444,70.2527 83.0173,70.4611 82.7152,70.659 C82.8923,70.6173 83.0694,70.5965 83.2465,70.5965 C83.8506,70.5965 84.4756,70.7892 85.1215,71.1746 C85.7881,71.5704 86.3038,71.7684 86.6684,71.7684 C86.8871,71.7684 87.0642,71.7267 87.1996,71.6434 C87.3246,71.5704 87.4079,71.4871 87.4496,71.3934 C87.5017,71.2684 87.5486,71.1798 87.5902,71.1277 C87.6423,71.0444 87.7048,71.0027 87.7777,71.0027 C87.934,71.0027 88.0121,71.0809 88.0121,71.2371 C88.0121,71.6017 87.7517,72.0444 87.2309,72.5652 C86.7204,73.0861 86.059,73.3465 85.2465,73.3465"/>
<path class="TimeSig" d="M84.8246,73.5965 C85.21,73.5965 85.5408,73.5522 85.8168,73.4637 C86.0928,73.3751 86.2673,73.3309 86.3402,73.3309 C86.434,73.3309 86.5069,73.3569 86.559,73.409 C86.6006,73.4402 86.6267,73.4819 86.6371,73.534 C86.6371,73.5652 86.6215,73.6069 86.5902,73.659 L80.9184,80.2684 L84.2465,80.2684 L84.2465,77.6434 C84.2465,77.4767 84.2934,77.3309 84.3871,77.2059 C84.5434,77.0809 84.6736,77.0027 84.7777,76.9715 C84.9444,76.8986 85.1527,76.7163 85.4027,76.4246 C85.6111,76.1954 85.8611,75.7892 86.1527,75.2059 C86.184,75.1225 86.2413,75.0809 86.3246,75.0809 C86.4809,75.0809 86.5694,75.1746 86.5902,75.3621 L86.5902,80.2684 L88.0277,80.2684 C88.2048,80.2684 88.309,80.3621 88.3402,80.5496 C88.3402,80.7475 88.2361,80.8465 88.0277,80.8465 L86.5902,80.8465 L86.5902,81.0027 C86.5902,81.5236 86.7204,81.9663 86.9809,82.3309 C87.2829,82.6954 87.6371,82.8777 88.0434,82.8777 C88.1996,82.8777 88.2777,82.9559 88.2777,83.1121 C88.2777,83.2684 88.1996,83.3465 88.0434,83.3465 C87.7725,83.3465 87.3298,83.31 86.7152,83.2371 C86.1527,83.1434 85.7152,83.0965 85.4027,83.0965 C85.0798,83.0965 84.6423,83.1434 84.0902,83.2371 C83.5069,83.31 83.0746,83.3465 82.7934,83.3465 C82.6371,83.3465 82.559,83.2684 82.559,83.1121 C82.559,82.9559 82.6371,82.8777 82.7934,82.8777 C83.1892,82.8777 83.5381,82.6954 83.8402,82.3309 C84.1111,81.9663 84.2465,81.5236 84.2465,81.0027 L84.2465,80.8465 L80.9184,80.8465 C80.6892,80.8465 80.5329,80.7944 80.4496,80.6902 C80.335,80.6173 80.2777,80.5131 80.2777,80.3777 C80.2777,80.3361 80.3767,80.2006 80.5746,79.9715 C80.8038,79.7111 81.0381,79.3934 81.2777,79.0184 C81.5694,78.5704 81.8454,78.1121 82.1059,77.6434 C82.3871,77.1121 82.6163,76.4975 82.7934,75.7996 C82.9809,75.1017 83.0746,74.3881 83.0746,73.659 C83.0746,73.4506 83.1684,73.3465 83.3559,73.3465 C83.3975,73.3465 83.4809,73.3673 83.6059,73.409 C83.6475,73.4194 83.7309,73.4376 83.8559,73.4637 C83.9809,73.4897 84.0798,73.5131 84.1527,73.534 C84.3923,73.5756 84.6163,73.5965 84.8246,73.5965"/>
<path class="Rest" d="M521.166,123.972 L514.056,123.972 C513.921,123.972 513.853,123.909 513.853,123.784 L513.853,121.05 C513.853,120.914 513.921,120.847 514.056,120.847 L521.166,120.847 C521.291,120.847 521.353,120.914 521.353,121.05 L521.353,123.784 C521.353,123.909 521.291,123.972 521.166,123.972"/>
<path class="Rest" d="M521.166,71.4715 L514.056,71.4715 C513.921,71.4715 513.853,71.409 513.853,71.284 L513.853,68.5496 C513.853,68.4142 513.921,68.3465 514.056,68.3465 L521.166,68.3465 C521.291,68.3465 521.353,68.4142 521.353,68.5496 L521.353,71.284 C521.353,71.409 521.291,71.4715 521.166,71.4715"/>
<path class="Rest" d="M430.41,123.972 L423.3,123.972 C423.165,123.972 423.097,123.909 423.097,123.784 L423.097,121.05 C423.097,120.914 423.165,120.847 423.3,120.847 L430.41,120.847 C430.535,120.847 430.597,120.914 430.597,121.05 L430.597,123.784 C430.597,123.909 430.535,123.972 430.41,123.972"/>
<path class="Rest" d="M430.41,86.4715 L423.3,86.4715 C423.165,86.4715 423.097,86.409 423.097,86.284 L423.097,83.5496 C423.097,83.4142 423.165,83.3465 423.3,83.3465 L430.41,83.3465 C430.535,83.3465 430.597,83.4142 430.597,83.5496 L430.597,86.284 C430.597,86.409 430.535,86.4715 430.41,86.4715"/>
<path class="Rest" d="M430.385,61.4715 L423.275,61.4715 C423.14,61.4715 423.072,61.409 423.072,61.284 L423.072,58.8621 L420.447,58.8621 C420.322,58.8621 420.208,58.81 420.103,58.7058 C419.999,58.6121 419.947,58.4923 419.947,58.3465 C419.947,58.2006 419.999,58.0808 420.103,57.9871 C420.176,57.8829 420.291,57.8308 420.447,57.8308 L433.197,57.8308 C433.322,57.8308 433.437,57.8829 433.541,57.9871 C433.645,58.0913 433.697,58.2111 433.697,58.3465 C433.697,58.4819 433.645,58.6017 433.541,58.7058 C433.437,58.81 433.322,58.8621 433.197,58.8621 L430.572,58.8621 L430.572,61.284 C430.572,61.409 430.51,61.4715 430.385,61.4715"/>
<path class="Dynamic" d="M101.897,98.8152 C101.543,98.8152 101.225,99.0027 100.944,99.3777 C100.642,99.7736 100.413,100.211 100.257,100.69 C100.1,101.149 100.027,101.55 100.038,101.893 C100.038,102.383 100.22,102.628 100.585,102.628 C100.908,102.628 101.184,102.503 101.413,102.253 C101.673,101.982 101.892,101.513 102.069,100.846 C102.257,100.159 102.35,99.6798 102.35,99.409 C102.34,99.0132 102.189,98.8152 101.897,98.8152 M98.9754,97.8934 C99.2983,97.8934 99.5822,97.9793 99.827,98.1512 C100.072,98.3231 100.225,98.5548 100.288,98.8465 C100.548,98.5652 100.856,98.3361 101.21,98.159 C101.564,97.9819 101.892,97.8934 102.194,97.8934 C102.819,97.8934 103.304,98.0861 103.647,98.4715 C103.981,98.8777 104.147,99.3882 104.147,100.003 C104.147,101.024 103.788,101.857 103.069,102.503 C102.413,103.055 101.819,103.331 101.288,103.331 C100.965,103.331 100.705,103.3 100.507,103.237 C100.257,103.175 100.09,103.117 100.007,103.065 C99.8921,102.992 99.7983,102.956 99.7254,102.956 C99.5587,102.956 99.4494,103.024 99.3973,103.159 L98.6942,105.284 L98.6942,105.378 C98.6942,105.503 98.7879,105.576 98.9754,105.596 C99.0379,105.607 99.1343,105.617 99.2645,105.628 C99.3947,105.638 99.4962,105.643 99.5692,105.643 C99.7567,105.675 99.8504,105.727 99.8504,105.8 C99.8504,105.904 99.8035,105.956 99.7098,105.956 C98.5744,105.883 97.84,105.846 97.5067,105.846 C97.1421,105.846 96.3921,105.883 95.2567,105.956 C95.1525,105.956 95.1108,105.904 95.1317,105.8 C95.1317,105.727 95.215,105.675 95.3817,105.643 C95.4546,105.623 95.7879,105.612 96.3817,105.612 C96.6525,105.612 96.8139,105.529 96.866,105.362 L98.9129,99.4402 C98.9442,99.3257 98.965,99.2267 98.9754,99.1434 C98.9754,98.9142 98.8712,98.8048 98.6629,98.8152 C98.3712,98.8152 98.0639,99.0027 97.741,99.3777 C97.4285,99.7319 97.1785,100.133 96.991,100.581 C96.9389,100.685 96.8556,100.742 96.741,100.753 C96.6473,100.753 96.6004,100.716 96.6004,100.643 C96.6004,100.539 96.6317,100.44 96.6942,100.346 C96.9546,99.7944 97.2254,99.2944 97.5067,98.8465 C97.6733,98.5965 97.8921,98.3777 98.1629,98.1902 C98.4129,97.9923 98.6837,97.8934 98.9754,97.8934"/>
<path class="Beam" fill-rule="evenodd" d="M235.168,85.8465 L290.236,85.8465 L290.236,88.3465 L235.168,88.3465 L235.168,85.8465 "/>
<path class="Beam" fill-rule="evenodd" d="M235.168,82.0965 L290.236,82.0965 L290.236,84.5965 L235.168,84.5965 L235.168,82.0965 "/>
<path class="Beam" fill-rule="evenodd" d="M162.721,85.8465 L212.606,85.8465 L212.606,88.3465 L162.721,88.3465 L162.721,85.8465 "/>
<path class="Beam" fill-rule="evenodd" d="M162.721,82.0965 L212.606,82.0965 L212.606,84.5965 L162.721,84.5965 L162.721,82.0965 "/>
<path class="Beam" fill-rule="evenodd" d="M97.0746,85.8465 L146.96,85.8465 L146.96,88.3465 L97.0746,88.3465 L97.0746,85.8465 "/>
<path class="Beam" fill-rule="evenodd" d="M97.0746,82.0965 L146.96,82.0965 L146.96,84.5965 L97.0746,84.5965 L97.0746,82.0965 "/>
<path class="NoteDot" d="M243.837,51.6512 C243.613,51.4272 243.501,51.159 243.501,50.8465 C243.501,50.534 243.613,50.2657 243.837,50.0418 C244.061,49.8178 244.329,49.7058 244.641,49.7058 C244.954,49.7058 245.22,49.8178 245.438,50.0418 C245.657,50.2657 245.766,50.534 245.766,50.8465 C245.766,51.159 245.657,51.4272 245.438,51.6512 C245.22,51.8751 244.954,51.9871 244.641,51.9871 C244.329,51.9871 244.061,51.8751 243.837,51.6512"/>
<path class="Bracket" fill-rule="evenodd" d="M36.755,89.1402 C36.755,83.2993 32.7322,77.6218 32.7322,72.0261 C32.7322,69.2077 33.8293,66.4711 37.2122,64.0204 C37.2579,63.9898 37.2807,63.9387 37.2807,63.9081 C37.2807,63.8162 37.0293,63.7345 36.8465,63.7345 C36.755,63.7345 36.595,63.7447 36.4807,63.8162 C32.0922,66.9613 30.6293,70.5965 30.6293,74.2725 C30.6293,80.1951 34.9265,85.9134 34.9265,91.5909 C34.9265,94.4092 33.8293,97.0641 30.4465,99.5148 L30.4465,99.5965 L30.4465,99.6782 C33.8293,102.129 34.9265,104.784 34.9265,107.602 C34.9265,113.28 30.6293,118.998 30.6293,124.92 C30.6293,128.597 32.0922,132.232 36.4807,135.377 C36.595,135.448 36.755,135.458 36.8465,135.458 C37.0293,135.458 37.2807,135.377 37.2807,135.285 C37.2807,135.254 37.2579,135.203 37.2122,135.173 C33.8293,132.722 32.7322,129.985 32.7322,127.167 C32.7322,121.571 36.755,115.894 36.755,110.053 C36.755,106.336 35.2922,102.782 30.995,99.5965 C35.2922,96.4106 36.755,92.8571 36.755,89.1402"/>
</svg>
