<?xml version="1.0" encoding="UTF-8" standalone="no"?>
<svg width="595.44px" height="841.68px" viewBox="0 0 595.44 841.68"
 xmlns="http://www.w3.org/2000/svg" xmlns:xlink="http://www.w3.org/1999/xlink" version="1.2" baseProfile="tiny">
<title>05</title>
<desc>Generated by MuseScore 2.3.2</desc>
<polyline class="StaffLines" fill="none" stroke="#000000" stroke-width="0.40" stroke-linejoin="bevel" points="38.8465,63.3465 567.094,63.3465"/>
<polyline class="StaffLines" fill="none" stroke="#000000" stroke-width="0.40" stroke-linejoin="bevel" points="38.8465,68.3465 567.094,68.3465"/>
<polyline class="StaffLines" fill="none" stroke="#000000" stroke-width="0.40" stroke-linejoin="bevel" points="38.8465,73.3465 567.094,73.3465"/>
<polyline class="StaffLines" fill="none" stroke="#000000" stroke-width="0.40" stroke-linejoin="bevel" points="38.8465,78.3465 567.094,78.3465"/>
<polyline class="StaffLines" fill="none" stroke="#000000" stroke-width="0.40" stroke-linejoin="bevel" points="38.8465,83.3465 567.094,83.3465"/>
<polyline class="StaffLines" fill="none" stroke="#000000" stroke-width="0.40" stroke-linejoin="bevel" points="38.8465,115.847 567.094,115.847"/>
<polyline class="StaffLines" fill="none" stroke="#000000" stroke-width="0.40" stroke-linejoin="bevel" points="38.8465,120.847 567.094,120.847"/>
<polyline class="StaffLines" fill="none" stroke="#000000" stroke-width="0.40" stroke-linejoin="bevel" points="38.8465,125.847 567.094,125.847"/>
<polyline class="StaffLines" fill="none" stroke="#000000" stroke-width="0.40" stroke-linejoin="bevel" points="38.8465,130.847 567.094,130.847"/>
<polyline class="StaffLines" fill="none" stroke="#000000" stroke-width="0.40" stroke-linejoin="bevel" points="38.8465,135.847 567.094,135.847"/>
<polyline class="BarLine" fill="none" stroke="#000000" stroke-width="0.80" stroke-linejoin="bevel" points="39.2465,63.3465 39.2465,135.847"/>
<polyline class="BarLine" fill="none" stroke="#000000" stroke-width="0.80" stroke-linejoin="bevel" points="562.194,63.3465 562.194,135.847"/>
<polyline class="BarLine" fill="none" stroke="#000000" stroke-width="2.50" stroke-linejoin="bevel" points="565.844,63.3465 565.844,135.847"/>
<polyline class="BarLine" fill="none" stroke="#000000" stroke-width="0.80" stroke-linejoin="bevel" points="486.347,63.3465 486.347,135.847"/>
<polyline class="BarLine" fill="none" stroke="#000000" stroke-width="0.80" stroke-linejoin="bevel" points="410.5,63.3465 410.5,135.847"/>
<polyline class="BarLine" fill="none" stroke="#000000" stroke-width="0.80" stroke-linejoin="bevel" points="334.653,63.3465 334.653,135.847"/>
<path class="Accidental" d="M219.649,132.518 L219.649,134.065 C219.649,134.617 219.675,135.055 219.728,135.378 C220.155,135.013 220.462,134.742 220.649,134.565 C220.858,134.357 221.066,134.068 221.274,133.698 C221.483,133.328 221.587,132.961 221.587,132.597 C221.587,132.232 221.509,131.919 221.353,131.659 C221.196,131.399 220.988,131.268 220.728,131.268 C220.415,131.268 220.155,131.388 219.946,131.628 C219.748,131.888 219.649,132.185 219.649,132.518 M218.821,136.097 L218.571,124.206 C218.759,124.102 218.944,124.05 219.126,124.05 C219.308,124.05 219.488,124.102 219.665,124.206 L219.509,131.097 C220.04,130.638 220.655,130.409 221.353,130.409 C221.853,130.409 222.272,130.617 222.61,131.034 C222.949,131.451 223.118,131.93 223.118,132.472 C223.118,132.805 223.009,133.164 222.79,133.55 C222.582,133.893 222.363,134.164 222.134,134.362 C221.998,134.466 221.665,134.727 221.134,135.143 C220.978,135.258 220.793,135.393 220.579,135.55 C220.366,135.706 220.233,135.805 220.181,135.847 C220.087,135.899 219.998,136.003 219.915,136.159 C219.832,136.294 219.728,136.404 219.603,136.487 C219.519,136.57 219.412,136.612 219.282,136.612 C219.152,136.612 219.045,136.565 218.962,136.472 C218.868,136.378 218.821,136.253 218.821,136.097"/>
<path class="Accidental" d="M201.196,130.847 C201.362,130.753 201.532,130.706 201.704,130.706 C201.875,130.706 202.045,130.753 202.211,130.847 L202.149,134.503 L204.289,134.112 L204.368,134.112 C204.597,134.112 204.711,134.222 204.711,134.44 L204.852,145.847 C204.685,145.94 204.516,145.987 204.344,145.987 C204.172,145.987 204.003,145.94 203.836,145.847 L203.899,142.19 L201.789,142.581 L201.711,142.581 C201.472,142.581 201.352,142.472 201.352,142.253 L201.196,130.847 M203.914,140.237 L203.977,136.097 L202.133,136.456 L202.071,140.597 L203.914,140.237 "/>
<path class="Accidental" d="M181.864,135.847 C182.031,135.753 182.2,135.706 182.372,135.706 C182.544,135.706 182.713,135.753 182.879,135.847 L182.817,139.503 L184.958,139.112 L185.036,139.112 C185.265,139.112 185.379,139.222 185.379,139.44 L185.52,150.847 C185.353,150.94 185.184,150.987 185.012,150.987 C184.84,150.987 184.671,150.94 184.504,150.847 L184.567,147.19 L182.458,147.581 L182.379,147.581 C182.14,147.581 182.02,147.472 182.02,147.253 L181.864,135.847 M184.583,145.237 L184.645,141.097 L182.801,141.456 L182.739,145.597 L184.583,145.237 "/>
<path class="Accidental" d="M163.654,145.018 L163.654,146.565 C163.654,147.117 163.68,147.555 163.732,147.878 C164.159,147.513 164.466,147.242 164.654,147.065 C164.862,146.857 165.071,146.568 165.279,146.198 C165.487,145.828 165.591,145.461 165.591,145.097 C165.591,144.732 165.513,144.419 165.357,144.159 C165.201,143.899 164.992,143.768 164.732,143.768 C164.42,143.768 164.159,143.888 163.951,144.128 C163.753,144.388 163.654,144.685 163.654,145.018 M162.826,148.597 L162.576,136.706 C162.763,136.602 162.948,136.55 163.13,136.55 C163.313,136.55 163.492,136.602 163.67,136.706 L163.513,143.597 C164.045,143.138 164.659,142.909 165.357,142.909 C165.857,142.909 166.276,143.117 166.615,143.534 C166.953,143.951 167.123,144.43 167.123,144.972 C167.123,145.305 167.013,145.664 166.795,146.05 C166.586,146.393 166.367,146.664 166.138,146.862 C166.003,146.966 165.67,147.227 165.138,147.643 C164.982,147.758 164.797,147.893 164.584,148.05 C164.37,148.206 164.237,148.305 164.185,148.347 C164.091,148.399 164.003,148.503 163.92,148.659 C163.836,148.794 163.732,148.904 163.607,148.987 C163.524,149.07 163.417,149.112 163.287,149.112 C163.157,149.112 163.05,149.065 162.966,148.972 C162.873,148.878 162.826,148.753 162.826,148.597"/>
<path class="Accidental" d="M145.322,150.018 L145.322,151.565 C145.322,152.117 145.348,152.555 145.4,152.878 C145.827,152.513 146.135,152.242 146.322,152.065 C146.53,151.857 146.739,151.568 146.947,151.198 C147.155,150.828 147.26,150.461 147.26,150.097 C147.26,149.732 147.181,149.419 147.025,149.159 C146.869,148.899 146.661,148.768 146.4,148.768 C146.088,148.768 145.827,148.888 145.619,149.128 C145.421,149.388 145.322,149.685 145.322,150.018 M144.494,153.597 L144.244,141.706 C144.431,141.602 144.616,141.55 144.799,141.55 C144.981,141.55 145.161,141.602 145.338,141.706 L145.181,148.597 C145.713,148.138 146.327,147.909 147.025,147.909 C147.525,147.909 147.944,148.117 148.283,148.534 C148.622,148.951 148.791,149.43 148.791,149.972 C148.791,150.305 148.681,150.664 148.463,151.05 C148.254,151.393 148.036,151.664 147.806,151.862 C147.671,151.966 147.338,152.227 146.806,152.643 C146.65,152.758 146.465,152.893 146.252,153.05 C146.038,153.206 145.905,153.305 145.853,153.347 C145.76,153.399 145.671,153.503 145.588,153.659 C145.504,153.794 145.4,153.904 145.275,153.987 C145.192,154.07 145.085,154.112 144.955,154.112 C144.825,154.112 144.718,154.065 144.635,153.972 C144.541,153.878 144.494,153.753 144.494,153.597"/>
<path class="Accidental" d="M126.868,148.347 C127.035,148.253 127.204,148.206 127.376,148.206 C127.548,148.206 127.717,148.253 127.884,148.347 L127.822,152.003 L129.962,151.612 L130.04,151.612 C130.269,151.612 130.384,151.722 130.384,151.94 L130.525,163.347 C130.358,163.44 130.189,163.487 130.017,163.487 C129.845,163.487 129.676,163.44 129.509,163.347 L129.572,159.69 L127.462,160.081 L127.384,160.081 C127.144,160.081 127.025,159.972 127.025,159.753 L126.868,148.347 M129.587,157.737 L129.65,153.597 L127.806,153.956 L127.743,158.097 L129.587,157.737 "/>
<path class="Accidental" d="M100.131,57.5183 L100.131,59.0652 C100.131,59.6173 100.157,60.0548 100.209,60.3777 C100.636,60.0131 100.943,59.7423 101.131,59.5652 C101.339,59.3569 101.548,59.0678 101.756,58.698 C101.964,58.3282 102.068,57.9611 102.068,57.5965 C102.068,57.2319 101.99,56.9194 101.834,56.659 C101.678,56.3986 101.469,56.2683 101.209,56.2683 C100.896,56.2683 100.636,56.3881 100.428,56.6277 C100.23,56.8881 100.131,57.185 100.131,57.5183 M99.3027,61.0965 L99.0527,49.2058 C99.2402,49.1017 99.4251,49.0496 99.6074,49.0496 C99.7897,49.0496 99.9694,49.1017 100.146,49.2058 L99.9902,56.0965 C100.521,55.6381 101.136,55.409 101.834,55.409 C102.334,55.409 102.753,55.6173 103.092,56.034 C103.43,56.4506 103.6,56.9298 103.6,57.4715 C103.6,57.8048 103.49,58.1642 103.271,58.5496 C103.063,58.8933 102.844,59.1642 102.615,59.3621 C102.48,59.4663 102.146,59.7267 101.615,60.1433 C101.459,60.2579 101.274,60.3933 101.061,60.5496 C100.847,60.7058 100.714,60.8048 100.662,60.8465 C100.568,60.8986 100.48,61.0027 100.396,61.159 C100.313,61.2944 100.209,61.4038 100.084,61.4871 C100.001,61.5704 99.8939,61.6121 99.7637,61.6121 C99.6335,61.6121 99.5267,61.5652 99.4434,61.4715 C99.3496,61.3777 99.3027,61.2527 99.3027,61.0965"/>
<path class="Accidental" d="M94.5965,62.5183 L94.5965,64.0652 C94.5965,64.6173 94.6225,65.0548 94.6746,65.3777 C95.1017,65.0131 95.409,64.7423 95.5965,64.5652 C95.8048,64.3569 96.0132,64.0678 96.2215,63.698 C96.4298,63.3282 96.534,62.9611 96.534,62.5965 C96.534,62.2319 96.4559,61.9194 96.2996,61.659 C96.1434,61.3986 95.935,61.2683 95.6746,61.2683 C95.3621,61.2683 95.1017,61.3881 94.8934,61.6277 C94.6954,61.8881 94.5965,62.185 94.5965,62.5183 M93.7684,66.0965 L93.5184,54.2058 C93.7059,54.1017 93.8908,54.0496 94.0731,54.0496 C94.2553,54.0496 94.435,54.1017 94.6121,54.2058 L94.4559,61.0965 C94.9871,60.6381 95.6017,60.409 96.2996,60.409 C96.7996,60.409 97.2189,60.6173 97.5574,61.034 C97.896,61.4506 98.0652,61.9298 98.0652,62.4715 C98.0652,62.8048 97.9559,63.1642 97.7371,63.5496 C97.5288,63.8933 97.31,64.1642 97.0809,64.3621 C96.9454,64.4663 96.6121,64.7267 96.0809,65.1433 C95.9246,65.2579 95.7397,65.3933 95.5262,65.5496 C95.3126,65.7058 95.1798,65.8048 95.1277,65.8465 C95.034,65.8986 94.9454,66.0027 94.8621,66.159 C94.7788,66.2944 94.6746,66.4038 94.5496,66.4871 C94.4663,66.5704 94.3595,66.6121 94.2293,66.6121 C94.0991,66.6121 93.9923,66.5652 93.909,66.4715 C93.8152,66.3777 93.7684,66.2527 93.7684,66.0965"/>
<path class="Accidental" d="M104.587,65.8465 C104.754,65.7527 104.923,65.7059 105.095,65.7059 C105.267,65.7059 105.436,65.7527 105.603,65.8465 L105.54,69.5027 L107.681,69.1121 L107.759,69.1121 C107.988,69.1121 108.103,69.2215 108.103,69.4402 L108.243,80.8465 C108.077,80.9402 107.907,80.9871 107.736,80.9871 C107.564,80.9871 107.394,80.9402 107.228,80.8465 L107.29,77.1902 L105.181,77.5809 L105.103,77.5809 C104.863,77.5809 104.743,77.4715 104.743,77.2527 L104.587,65.8465 M107.306,75.2371 L107.368,71.0965 L105.525,71.4559 L105.462,75.5965 L107.306,75.2371 "/>
<path class="Accidental" d="M104.587,48.3465 C104.754,48.2527 104.923,48.2058 105.095,48.2058 C105.267,48.2058 105.436,48.2527 105.603,48.3465 L105.54,52.0027 L107.681,51.6121 L107.759,51.6121 C107.988,51.6121 108.103,51.7215 108.103,51.9402 L108.243,63.3465 C108.077,63.4402 107.907,63.4871 107.736,63.4871 C107.564,63.4871 107.394,63.4402 107.228,63.3465 L107.29,59.6902 L105.181,60.0808 L105.103,60.0808 C104.863,60.0808 104.743,59.9715 104.743,59.7527 L104.587,48.3465 M107.306,57.7371 L107.368,53.5965 L105.525,53.9558 L105.462,58.0965 L107.306,57.7371 "/>
<polyline class="LedgerLine" fill="none" stroke="#000000" stroke-width="0.80" stroke-linecap="square" stroke-linejoin="bevel" points="314.421,58.3465 324.004,58.3465"/>
<polyline class="LedgerLine" fill="none" stroke="#000000" stroke-width="0.80" stroke-linecap="square" stroke-linejoin="bevel" points="296.089,58.3465 305.672,58.3465"/>
<polyline class="LedgerLine" fill="none" stroke="#000000" stroke-width="0.80" stroke-linecap="square" stroke-linejoin="bevel" points="283.69,58.3465 293.273,58.3465"/>
<polyline class="LedgerLine" fill="none" stroke="#000000" stroke-width="0.80" stroke-linecap="square" stroke-linejoin="bevel" points="277.757,58.3465 287.34,58.3465"/>
<polyline class="LedgerLine" fill="none" stroke="#000000" stroke-width="0.80" stroke-linecap="square" stroke-linejoin="bevel" points="259.426,58.3465 269.008,58.3465"/>
<polyline class="LedgerLine" fill="none" stroke="#000000" stroke-width="0.80" stroke-linecap="square" stroke-linejoin="bevel" points="241.094,58.3465 250.677,58.3465"/>
<polyline class="LedgerLine" fill="none" stroke="#000000" stroke-width="0.80" stroke-linecap="square" stroke-linejoin="bevel" points="222.762,58.3465 232.345,58.3465"/>
<polyline class="LedgerLine" fill="none" stroke="#000000" stroke-width="0.80" stroke-linecap="square" stroke-linejoin="bevel" points="204.43,58.3465 214.013,58.3465"/>
<polyline class="LedgerLine" fill="none" stroke="#000000" stroke-width="0.80" stroke-linecap="square" stroke-linejoin="bevel" points="186.098,140.847 195.681,140.847"/>
<polyline class="LedgerLine" fill="none" stroke="#000000" stroke-width="0.80" stroke-linecap="square" stroke-linejoin="bevel" points="186.098,58.3465 195.681,58.3465"/>
<polyline class="LedgerLine" fill="none" stroke="#000000" stroke-width="0.80" stroke-linecap="square" stroke-linejoin="bevel" points="167.766,140.847 177.349,140.847"/>
<polyline class="LedgerLine" fill="none" stroke="#000000" stroke-width="0.80" stroke-linecap="square" stroke-linejoin="bevel" points="167.766,145.847 177.349,145.847"/>
<polyline class="LedgerLine" fill="none" stroke="#000000" stroke-width="0.80" stroke-linecap="square" stroke-linejoin="bevel" points="167.766,58.3465 177.349,58.3465"/>
<polyline class="LedgerLine" fill="none" stroke="#000000" stroke-width="0.80" stroke-linecap="square" stroke-linejoin="bevel" points="149.435,140.847 159.017,140.847"/>
<polyline class="LedgerLine" fill="none" stroke="#000000" stroke-width="0.80" stroke-linecap="square" stroke-linejoin="bevel" points="149.435,145.847 159.017,145.847"/>
<polyline class="LedgerLine" fill="none" stroke="#000000" stroke-width="0.80" stroke-linecap="square" stroke-linejoin="bevel" points="149.435,150.847 159.017,150.847"/>
<polyline class="LedgerLine" fill="none" stroke="#000000" stroke-width="0.80" stroke-linecap="square" stroke-linejoin="bevel" points="149.435,58.3465 159.017,58.3465"/>
<polyline class="LedgerLine" fill="none" stroke="#000000" stroke-width="0.80" stroke-linecap="square" stroke-linejoin="bevel" points="131.103,140.847 140.686,140.847"/>
<polyline class="LedgerLine" fill="none" stroke="#000000" stroke-width="0.80" stroke-linecap="square" stroke-linejoin="bevel" points="131.103,145.847 140.686,145.847"/>
<polyline class="LedgerLine" fill="none" stroke="#000000" stroke-width="0.80" stroke-linecap="square" stroke-linejoin="bevel" points="131.103,150.847 140.686,150.847"/>
<polyline class="LedgerLine" fill="none" stroke="#000000" stroke-width="0.80" stroke-linecap="square" stroke-linejoin="bevel" points="131.103,155.847 140.686,155.847"/>
<polyline class="LedgerLine" fill="none" stroke="#000000" stroke-width="0.80" stroke-linecap="square" stroke-linejoin="bevel" points="131.103,58.3465 140.686,58.3465"/>
<polyline class="LedgerLine" fill="none" stroke="#000000" stroke-width="0.80" stroke-linecap="square" stroke-linejoin="bevel" points="119.27,58.3465 128.853,58.3465"/>
<polyline class="LedgerLine" fill="none" stroke="#000000" stroke-width="0.80" stroke-linecap="square" stroke-linejoin="bevel" points="108.822,58.3465 118.404,58.3465"/>
<polyline class="Stem" fill="none" stroke="#000000" stroke-width="0.65" stroke-linecap="round" stroke-linejoin="bevel" points="316.246,59.2855 316.246,88.3465"/>
<polyline class="Stem" fill="none" stroke="#000000" stroke-width="0.65" stroke-linecap="round" stroke-linejoin="bevel" points="297.914,59.2855 297.914,88.3465"/>
<polyline class="Stem" fill="none" stroke="#000000" stroke-width="0.65" stroke-linecap="round" stroke-linejoin="bevel" points="285.515,59.2855 285.515,88.3465"/>
<polyline class="Stem" fill="none" stroke="#000000" stroke-width="0.65" stroke-linecap="round" stroke-linejoin="bevel" points="285.515,54.9074 285.515,44.5965"/>
<polyline class="Stem" fill="none" stroke="#000000" stroke-width="0.65" stroke-linecap="round" stroke-linejoin="bevel" points="261.251,59.2855 261.251,88.3465"/>
<polyline class="Stem" fill="none" stroke="#000000" stroke-width="0.65" stroke-linecap="round" stroke-linejoin="bevel" points="242.919,59.2855 242.919,88.3465"/>
<polyline class="Stem" fill="none" stroke="#000000" stroke-width="0.65" stroke-linecap="round" stroke-linejoin="bevel" points="230.52,132.407 230.52,115.847"/>
<polyline class="Stem" fill="none" stroke="#000000" stroke-width="0.65" stroke-linecap="round" stroke-linejoin="bevel" points="224.587,59.2855 224.587,88.3465"/>
<polyline class="Stem" fill="none" stroke="#000000" stroke-width="0.65" stroke-linecap="round" stroke-linejoin="bevel" points="212.188,137.407 212.188,122.097"/>
<polyline class="Stem" fill="none" stroke="#000000" stroke-width="0.65" stroke-linecap="round" stroke-linejoin="bevel" points="206.255,59.2855 206.255,88.3465"/>
<polyline class="Stem" fill="none" stroke="#000000" stroke-width="0.65" stroke-linecap="round" stroke-linejoin="bevel" points="193.856,142.407 193.856,124.284"/>
<polyline class="Stem" fill="none" stroke="#000000" stroke-width="0.65" stroke-linecap="round" stroke-linejoin="bevel" points="187.923,59.2855 187.923,88.3465"/>
<polyline class="Stem" fill="none" stroke="#000000" stroke-width="0.65" stroke-linecap="round" stroke-linejoin="bevel" points="175.524,144.907 175.524,126.472"/>
<polyline class="Stem" fill="none" stroke="#000000" stroke-width="0.65" stroke-linecap="round" stroke-linejoin="bevel" points="169.591,59.2855 169.591,88.3465"/>
<polyline class="Stem" fill="none" stroke="#000000" stroke-width="0.65" stroke-linecap="round" stroke-linejoin="bevel" points="157.192,149.907 157.192,128.659"/>
<polyline class="Stem" fill="none" stroke="#000000" stroke-width="0.65" stroke-linecap="round" stroke-linejoin="bevel" points="151.26,59.2855 151.26,88.3465"/>
<polyline class="Stem" fill="none" stroke="#000000" stroke-width="0.65" stroke-linecap="round" stroke-linejoin="bevel" points="138.861,154.907 138.861,130.847"/>
<polyline class="Stem" fill="none" stroke="#000000" stroke-width="0.65" stroke-linecap="round" stroke-linejoin="bevel" points="132.928,59.2855 132.928,88.3465"/>
<polyline class="Stem" fill="none" stroke="#000000" stroke-width="0.65" stroke-linecap="round" stroke-linejoin="bevel" points="121.095,59.2855 121.095,88.3465"/>
<polyline class="Stem" fill="none" stroke="#000000" stroke-width="0.65" stroke-linecap="round" stroke-linejoin="bevel" points="116.579,54.9074 116.579,44.5965"/>
<path class="Note" d="M320.312,55.5965 C320.937,55.5965 321.468,55.7579 321.905,56.0808 C322.301,56.435 322.499,56.8777 322.499,57.409 C322.499,58.3048 322.041,59.1433 321.124,59.9246 C320.187,60.7058 319.181,61.0965 318.109,61.0965 C317.484,61.0965 316.957,60.935 316.53,60.6121 C316.124,60.2579 315.921,59.8152 315.921,59.284 C315.921,58.3881 316.39,57.5496 317.327,56.7683 C318.244,55.9871 319.239,55.5965 320.312,55.5965"/>
<path class="Note" d="M320.312,60.5965 C320.937,60.5965 321.468,60.7579 321.905,61.0808 C322.301,61.435 322.499,61.8777 322.499,62.409 C322.499,63.3048 322.041,64.1433 321.124,64.9246 C320.187,65.7058 319.181,66.0965 318.109,66.0965 C317.484,66.0965 316.957,65.935 316.53,65.6121 C316.124,65.2579 315.921,64.8152 315.921,64.284 C315.921,63.3881 316.39,62.5496 317.327,61.7683 C318.244,60.9871 319.239,60.5965 320.312,60.5965"/>
<path class="Note" d="M320.312,70.5965 C320.937,70.5965 321.468,70.7579 321.905,71.0809 C322.301,71.435 322.499,71.8777 322.499,72.409 C322.499,73.3048 322.041,74.1434 321.124,74.9246 C320.187,75.7059 319.181,76.0965 318.109,76.0965 C317.484,76.0965 316.957,75.935 316.53,75.6121 C316.124,75.2579 315.921,74.8152 315.921,74.284 C315.921,73.3881 316.39,72.5496 317.327,71.7684 C318.244,70.9871 319.239,70.5965 320.312,70.5965"/>
<path class="Note" d="M301.98,55.5965 C302.605,55.5965 303.136,55.7579 303.574,56.0808 C303.969,56.435 304.167,56.8777 304.167,57.409 C304.167,58.3048 303.709,59.1433 302.792,59.9246 C301.855,60.7058 300.85,61.0965 299.777,61.0965 C299.152,61.0965 298.626,60.935 298.199,60.6121 C297.792,60.2579 297.589,59.8152 297.589,59.284 C297.589,58.3881 298.058,57.5496 298.995,56.7683 C299.912,55.9871 300.907,55.5965 301.98,55.5965"/>
<path class="Note" d="M301.98,60.5965 C302.605,60.5965 303.136,60.7579 303.574,61.0808 C303.969,61.435 304.167,61.8777 304.167,62.409 C304.167,63.3048 303.709,64.1433 302.792,64.9246 C301.855,65.7058 300.85,66.0965 299.777,66.0965 C299.152,66.0965 298.626,65.935 298.199,65.6121 C297.792,65.2579 297.589,64.8152 297.589,64.284 C297.589,63.3881 298.058,62.5496 298.995,61.7683 C299.912,60.9871 300.907,60.5965 301.98,60.5965"/>
<path class="Note" d="M301.98,70.5965 C302.605,70.5965 303.136,70.7579 303.574,71.0809 C303.969,71.435 304.167,71.8777 304.167,72.409 C304.167,73.3048 303.709,74.1434 302.792,74.9246 C301.855,75.7059 300.85,76.0965 299.777,76.0965 C299.152,76.0965 298.626,75.935 298.199,75.6121 C297.792,75.2579 297.589,74.8152 297.589,74.284 C297.589,73.3881 298.058,72.5496 298.995,71.7684 C299.912,70.9871 300.907,70.5965 301.98,70.5965"/>
<path class="Note" d="M289.581,55.5965 C290.206,55.5965 290.737,55.7579 291.175,56.0808 C291.57,56.435 291.768,56.8777 291.768,57.409 C291.768,58.3048 291.31,59.1433 290.393,59.9246 C289.456,60.7058 288.451,61.0965 287.378,61.0965 C286.753,61.0965 286.227,60.935 285.8,60.6121 C285.393,60.2579 285.19,59.8152 285.19,59.284 C285.19,58.3881 285.659,57.5496 286.596,56.7683 C287.513,55.9871 288.508,55.5965 289.581,55.5965"/>
<path class="Note" d="M289.581,60.5965 C290.206,60.5965 290.737,60.7579 291.175,61.0808 C291.57,61.435 291.768,61.8777 291.768,62.409 C291.768,63.3048 291.31,64.1433 290.393,64.9246 C289.456,65.7058 288.451,66.0965 287.378,66.0965 C286.753,66.0965 286.227,65.935 285.8,65.6121 C285.393,65.2579 285.19,64.8152 285.19,64.284 C285.19,63.3881 285.659,62.5496 286.596,61.7683 C287.513,60.9871 288.508,60.5965 289.581,60.5965"/>
<path class="Note" d="M289.581,70.5965 C290.206,70.5965 290.737,70.7579 291.175,71.0809 C291.57,71.435 291.768,71.8777 291.768,72.409 C291.768,73.3048 291.31,74.1434 290.393,74.9246 C289.456,75.7059 288.451,76.0965 287.378,76.0965 C286.753,76.0965 286.227,75.935 285.8,75.6121 C285.393,75.2579 285.19,74.8152 285.19,74.284 C285.19,73.3881 285.659,72.5496 286.596,71.7684 C287.513,70.9871 288.508,70.5965 289.581,70.5965"/>
<path class="Note" d="M283.648,53.0965 C284.273,53.0965 284.804,53.2579 285.242,53.5808 C285.638,53.935 285.836,54.3777 285.836,54.909 C285.836,55.8048 285.377,56.6433 284.461,57.4246 C283.523,58.2058 282.518,58.5965 281.445,58.5965 C280.82,58.5965 280.294,58.435 279.867,58.1121 C279.461,57.7579 279.257,57.3152 279.257,56.784 C279.257,55.8881 279.726,55.0496 280.664,54.2683 C281.58,53.4871 282.575,53.0965 283.648,53.0965"/>
<path class="Note" d="M265.316,55.5965 C265.941,55.5965 266.472,55.7579 266.91,56.0808 C267.306,56.435 267.504,56.8777 267.504,57.409 C267.504,58.3048 267.045,59.1433 266.129,59.9246 C265.191,60.7058 264.186,61.0965 263.113,61.0965 C262.488,61.0965 261.962,60.935 261.535,60.6121 C261.129,60.2579 260.926,59.8152 260.926,59.284 C260.926,58.3881 261.394,57.5496 262.332,56.7683 C263.248,55.9871 264.243,55.5965 265.316,55.5965"/>
<path class="Note" d="M265.316,60.5965 C265.941,60.5965 266.472,60.7579 266.91,61.0808 C267.306,61.435 267.504,61.8777 267.504,62.409 C267.504,63.3048 267.045,64.1433 266.129,64.9246 C265.191,65.7058 264.186,66.0965 263.113,66.0965 C262.488,66.0965 261.962,65.935 261.535,65.6121 C261.129,65.2579 260.926,64.8152 260.926,64.284 C260.926,63.3881 261.394,62.5496 262.332,61.7683 C263.248,60.9871 264.243,60.5965 265.316,60.5965"/>
<path class="Note" d="M265.316,70.5965 C265.941,70.5965 266.472,70.7579 266.91,71.0809 C267.306,71.435 267.504,71.8777 267.504,72.409 C267.504,73.3048 267.045,74.1434 266.129,74.9246 C265.191,75.7059 264.186,76.0965 263.113,76.0965 C262.488,76.0965 261.962,75.935 261.535,75.6121 C261.129,75.2579 260.926,74.8152 260.926,74.284 C260.926,73.3881 261.394,72.5496 262.332,71.7684 C263.248,70.9871 264.243,70.5965 265.316,70.5965"/>
<path class="Note" d="M246.984,55.5965 C247.609,55.5965 248.141,55.7579 248.578,56.0808 C248.974,56.435 249.172,56.8777 249.172,57.409 C249.172,58.3048 248.714,59.1433 247.797,59.9246 C246.859,60.7058 245.854,61.0965 244.781,61.0965 C244.156,61.0965 243.63,60.935 243.203,60.6121 C242.797,60.2579 242.594,59.8152 242.594,59.284 C242.594,58.3881 243.062,57.5496 244,56.7683 C244.917,55.9871 245.911,55.5965 246.984,55.5965"/>
<path class="Note" d="M246.984,60.5965 C247.609,60.5965 248.141,60.7579 248.578,61.0808 C248.974,61.435 249.172,61.8777 249.172,62.409 C249.172,63.3048 248.714,64.1433 247.797,64.9246 C246.859,65.7058 245.854,66.0965 244.781,66.0965 C244.156,66.0965 243.63,65.935 243.203,65.6121 C242.797,65.2579 242.594,64.8152 242.594,64.284 C242.594,63.3881 243.062,62.5496 244,61.7683 C244.917,60.9871 245.911,60.5965 246.984,60.5965"/>
<path class="Note" d="M246.984,70.5965 C247.609,70.5965 248.141,70.7579 248.578,71.0809 C248.974,71.435 249.172,71.8777 249.172,72.409 C249.172,73.3048 248.714,74.1434 247.797,74.9246 C246.859,75.7059 245.854,76.0965 244.781,76.0965 C244.156,76.0965 243.63,75.935 243.203,75.6121 C242.797,75.2579 242.594,74.8152 242.594,74.284 C242.594,73.3881 243.062,72.5496 244,71.7684 C244.917,70.9871 245.911,70.5965 246.984,70.5965"/>
<path class="Note" d="M228.653,130.597 C229.278,130.597 229.809,130.758 230.246,131.081 C230.642,131.435 230.84,131.878 230.84,132.409 C230.84,133.305 230.382,134.143 229.465,134.925 C228.528,135.706 227.522,136.097 226.449,136.097 C225.824,136.097 225.298,135.935 224.871,135.612 C224.465,135.258 224.262,134.815 224.262,134.284 C224.262,133.388 224.731,132.55 225.668,131.768 C226.585,130.987 227.58,130.597 228.653,130.597"/>
<path class="Note" d="M228.653,55.5965 C229.278,55.5965 229.809,55.7579 230.246,56.0808 C230.642,56.435 230.84,56.8777 230.84,57.409 C230.84,58.3048 230.382,59.1433 229.465,59.9246 C228.528,60.7058 227.522,61.0965 226.449,61.0965 C225.824,61.0965 225.298,60.935 224.871,60.6121 C224.465,60.2579 224.262,59.8152 224.262,59.284 C224.262,58.3881 224.731,57.5496 225.668,56.7683 C226.585,55.9871 227.58,55.5965 228.653,55.5965"/>
<path class="Note" d="M228.653,60.5965 C229.278,60.5965 229.809,60.7579 230.246,61.0808 C230.642,61.435 230.84,61.8777 230.84,62.409 C230.84,63.3048 230.382,64.1433 229.465,64.9246 C228.528,65.7058 227.522,66.0965 226.449,66.0965 C225.824,66.0965 225.298,65.935 224.871,65.6121 C224.465,65.2579 224.262,64.8152 224.262,64.284 C224.262,63.3881 224.731,62.5496 225.668,61.7683 C226.585,60.9871 227.58,60.5965 228.653,60.5965"/>
<path class="Note" d="M228.653,70.5965 C229.278,70.5965 229.809,70.7579 230.246,71.0809 C230.642,71.435 230.84,71.8777 230.84,72.409 C230.84,73.3048 230.382,74.1434 229.465,74.9246 C228.528,75.7059 227.522,76.0965 226.449,76.0965 C225.824,76.0965 225.298,75.935 224.871,75.6121 C224.465,75.2579 224.262,74.8152 224.262,74.284 C224.262,73.3881 224.731,72.5496 225.668,71.7684 C226.585,70.9871 227.58,70.5965 228.653,70.5965"/>
<path class="Note" d="M210.321,135.597 C210.946,135.597 211.477,135.758 211.914,136.081 C212.31,136.435 212.508,136.878 212.508,137.409 C212.508,138.305 212.05,139.143 211.133,139.925 C210.196,140.706 209.19,141.097 208.118,141.097 C207.493,141.097 206.967,140.935 206.539,140.612 C206.133,140.258 205.93,139.815 205.93,139.284 C205.93,138.388 206.399,137.55 207.336,136.768 C208.253,135.987 209.248,135.597 210.321,135.597"/>
<path class="Note" d="M210.321,55.5965 C210.946,55.5965 211.477,55.7579 211.914,56.0808 C212.31,56.435 212.508,56.8777 212.508,57.409 C212.508,58.3048 212.05,59.1433 211.133,59.9246 C210.196,60.7058 209.19,61.0965 208.118,61.0965 C207.493,61.0965 206.967,60.935 206.539,60.6121 C206.133,60.2579 205.93,59.8152 205.93,59.284 C205.93,58.3881 206.399,57.5496 207.336,56.7683 C208.253,55.9871 209.248,55.5965 210.321,55.5965"/>
<path class="Note" d="M210.321,60.5965 C210.946,60.5965 211.477,60.7579 211.914,61.0808 C212.31,61.435 212.508,61.8777 212.508,62.409 C212.508,63.3048 212.05,64.1433 211.133,64.9246 C210.196,65.7058 209.19,66.0965 208.118,66.0965 C207.493,66.0965 206.967,65.935 206.539,65.6121 C206.133,65.2579 205.93,64.8152 205.93,64.284 C205.93,63.3881 206.399,62.5496 207.336,61.7683 C208.253,60.9871 209.248,60.5965 210.321,60.5965"/>
<path class="Note" d="M210.321,70.5965 C210.946,70.5965 211.477,70.7579 211.914,71.0809 C212.31,71.435 212.508,71.8777 212.508,72.409 C212.508,73.3048 212.05,74.1434 211.133,74.9246 C210.196,75.7059 209.19,76.0965 208.118,76.0965 C207.493,76.0965 206.967,75.935 206.539,75.6121 C206.133,75.2579 205.93,74.8152 205.93,74.284 C205.93,73.3881 206.399,72.5496 207.336,71.7684 C208.253,70.9871 209.248,70.5965 210.321,70.5965"/>
<path class="Note" d="M191.989,140.597 C192.614,140.597 193.145,140.758 193.583,141.081 C193.978,141.435 194.176,141.878 194.176,142.409 C194.176,143.305 193.718,144.143 192.801,144.925 C191.864,145.706 190.859,146.097 189.786,146.097 C189.161,146.097 188.635,145.935 188.208,145.612 C187.801,145.258 187.598,144.815 187.598,144.284 C187.598,143.388 188.067,142.55 189.004,141.768 C189.921,140.987 190.916,140.597 191.989,140.597"/>
<path class="Note" d="M191.989,55.5965 C192.614,55.5965 193.145,55.7579 193.583,56.0808 C193.978,56.435 194.176,56.8777 194.176,57.409 C194.176,58.3048 193.718,59.1433 192.801,59.9246 C191.864,60.7058 190.859,61.0965 189.786,61.0965 C189.161,61.0965 188.635,60.935 188.208,60.6121 C187.801,60.2579 187.598,59.8152 187.598,59.284 C187.598,58.3881 188.067,57.5496 189.004,56.7683 C189.921,55.9871 190.916,55.5965 191.989,55.5965"/>
<path class="Note" d="M191.989,60.5965 C192.614,60.5965 193.145,60.7579 193.583,61.0808 C193.978,61.435 194.176,61.8777 194.176,62.409 C194.176,63.3048 193.718,64.1433 192.801,64.9246 C191.864,65.7058 190.859,66.0965 189.786,66.0965 C189.161,66.0965 188.635,65.935 188.208,65.6121 C187.801,65.2579 187.598,64.8152 187.598,64.284 C187.598,63.3881 188.067,62.5496 189.004,61.7683 C189.921,60.9871 190.916,60.5965 191.989,60.5965"/>
<path class="Note" d="M191.989,70.5965 C192.614,70.5965 193.145,70.7579 193.583,71.0809 C193.978,71.435 194.176,71.8777 194.176,72.409 C194.176,73.3048 193.718,74.1434 192.801,74.9246 C191.864,75.7059 190.859,76.0965 189.786,76.0965 C189.161,76.0965 188.635,75.935 188.208,75.6121 C187.801,75.2579 187.598,74.8152 187.598,74.284 C187.598,73.3881 188.067,72.5496 189.004,71.7684 C189.921,70.9871 190.916,70.5965 191.989,70.5965"/>
<path class="Note" d="M173.657,143.097 C174.282,143.097 174.813,143.258 175.251,143.581 C175.647,143.935 175.845,144.378 175.845,144.909 C175.845,145.805 175.386,146.643 174.47,147.425 C173.532,148.206 172.527,148.597 171.454,148.597 C170.829,148.597 170.303,148.435 169.876,148.112 C169.47,147.758 169.266,147.315 169.266,146.784 C169.266,145.888 169.735,145.05 170.673,144.268 C171.589,143.487 172.584,143.097 173.657,143.097"/>
<path class="Note" d="M173.657,55.5965 C174.282,55.5965 174.813,55.7579 175.251,56.0808 C175.647,56.435 175.845,56.8777 175.845,57.409 C175.845,58.3048 175.386,59.1433 174.47,59.9246 C173.532,60.7058 172.527,61.0965 171.454,61.0965 C170.829,61.0965 170.303,60.935 169.876,60.6121 C169.47,60.2579 169.266,59.8152 169.266,59.284 C169.266,58.3881 169.735,57.5496 170.673,56.7683 C171.589,55.9871 172.584,55.5965 173.657,55.5965"/>
<path class="Note" d="M173.657,60.5965 C174.282,60.5965 174.813,60.7579 175.251,61.0808 C175.647,61.435 175.845,61.8777 175.845,62.409 C175.845,63.3048 175.386,64.1433 174.47,64.9246 C173.532,65.7058 172.527,66.0965 171.454,66.0965 C170.829,66.0965 170.303,65.935 169.876,65.6121 C169.47,65.2579 169.266,64.8152 169.266,64.284 C169.266,63.3881 169.735,62.5496 170.673,61.7683 C171.589,60.9871 172.584,60.5965 173.657,60.5965"/>
<path class="Note" d="M173.657,70.5965 C174.282,70.5965 174.813,70.7579 175.251,71.0809 C175.647,71.435 175.845,71.8777 175.845,72.409 C175.845,73.3048 175.386,74.1434 174.47,74.9246 C173.532,75.7059 172.527,76.0965 171.454,76.0965 C170.829,76.0965 170.303,75.935 169.876,75.6121 C169.47,75.2579 169.266,74.8152 169.266,74.284 C169.266,73.3881 169.735,72.5496 170.673,71.7684 C171.589,70.9871 172.584,70.5965 173.657,70.5965"/>
<path class="Note" d="M155.325,148.097 C155.95,148.097 156.481,148.258 156.919,148.581 C157.315,148.935 157.513,149.378 157.513,149.909 C157.513,150.805 157.054,151.643 156.138,152.425 C155.2,153.206 154.195,153.597 153.122,153.597 C152.497,153.597 151.971,153.435 151.544,153.112 C151.138,152.758 150.935,152.315 150.935,151.784 C150.935,150.888 151.403,150.05 152.341,149.268 C153.258,148.487 154.252,148.097 155.325,148.097"/>
<path class="Note" d="M155.325,55.5965 C155.95,55.5965 156.481,55.7579 156.919,56.0808 C157.315,56.435 157.513,56.8777 157.513,57.409 C157.513,58.3048 157.054,59.1433 156.138,59.9246 C155.2,60.7058 154.195,61.0965 153.122,61.0965 C152.497,61.0965 151.971,60.935 151.544,60.6121 C151.138,60.2579 150.935,59.8152 150.935,59.284 C150.935,58.3881 151.403,57.5496 152.341,56.7683 C153.258,55.9871 154.252,55.5965 155.325,55.5965"/>
<path class="Note" d="M155.325,60.5965 C155.95,60.5965 156.481,60.7579 156.919,61.0808 C157.315,61.435 157.513,61.8777 157.513,62.409 C157.513,63.3048 157.054,64.1433 156.138,64.9246 C155.2,65.7058 154.195,66.0965 153.122,66.0965 C152.497,66.0965 151.971,65.935 151.544,65.6121 C151.138,65.2579 150.935,64.8152 150.935,64.284 C150.935,63.3881 151.403,62.5496 152.341,61.7683 C153.258,60.9871 154.252,60.5965 155.325,60.5965"/>
<path class="Note" d="M155.325,70.5965 C155.95,70.5965 156.481,70.7579 156.919,71.0809 C157.315,71.435 157.513,71.8777 157.513,72.409 C157.513,73.3048 157.054,74.1434 156.138,74.9246 C155.2,75.7059 154.195,76.0965 153.122,76.0965 C152.497,76.0965 151.971,75.935 151.544,75.6121 C151.138,75.2579 150.935,74.8152 150.935,74.284 C150.935,73.3881 151.403,72.5496 152.341,71.7684 C153.258,70.9871 154.252,70.5965 155.325,70.5965"/>
<path class="Note" d="M136.993,153.097 C137.618,153.097 138.15,153.258 138.587,153.581 C138.983,153.935 139.181,154.378 139.181,154.909 C139.181,155.805 138.723,156.643 137.806,157.425 C136.868,158.206 135.863,158.597 134.79,158.597 C134.165,158.597 133.639,158.435 133.212,158.112 C132.806,157.758 132.603,157.315 132.603,156.784 C132.603,155.888 133.072,155.05 134.009,154.268 C134.926,153.487 135.92,153.097 136.993,153.097"/>
<path class="Note" d="M136.993,55.5965 C137.618,55.5965 138.15,55.7579 138.587,56.0808 C138.983,56.435 139.181,56.8777 139.181,57.409 C139.181,58.3048 138.723,59.1433 137.806,59.9246 C136.868,60.7058 135.863,61.0965 134.79,61.0965 C134.165,61.0965 133.639,60.935 133.212,60.6121 C132.806,60.2579 132.603,59.8152 132.603,59.284 C132.603,58.3881 133.072,57.5496 134.009,56.7683 C134.926,55.9871 135.92,55.5965 136.993,55.5965"/>
<path class="Note" d="M136.993,60.5965 C137.618,60.5965 138.15,60.7579 138.587,61.0808 C138.983,61.435 139.181,61.8777 139.181,62.409 C139.181,63.3048 138.723,64.1433 137.806,64.9246 C136.868,65.7058 135.863,66.0965 134.79,66.0965 C134.165,66.0965 133.639,65.935 133.212,65.6121 C132.806,65.2579 132.603,64.8152 132.603,64.284 C132.603,63.3881 133.072,62.5496 134.009,61.7683 C134.926,60.9871 135.92,60.5965 136.993,60.5965"/>
<path class="Note" d="M136.993,70.5965 C137.618,70.5965 138.15,70.7579 138.587,71.0809 C138.983,71.435 139.181,71.8777 139.181,72.409 C139.181,73.3048 138.723,74.1434 137.806,74.9246 C136.868,75.7059 135.863,76.0965 134.79,76.0965 C134.165,76.0965 133.639,75.935 133.212,75.6121 C132.806,75.2579 132.603,74.8152 132.603,74.284 C132.603,73.3881 133.072,72.5496 134.009,71.7684 C134.926,70.9871 135.92,70.5965 136.993,70.5965"/>
<path class="Note" d="M125.161,55.5965 C125.786,55.5965 126.317,55.7579 126.754,56.0808 C127.15,56.435 127.348,56.8777 127.348,57.409 C127.348,58.3048 126.89,59.1433 125.973,59.9246 C125.036,60.7058 124.03,61.0965 122.957,61.0965 C122.332,61.0965 121.806,60.935 121.379,60.6121 C120.973,60.2579 120.77,59.8152 120.77,59.284 C120.77,58.3881 121.239,57.5496 122.176,56.7683 C123.093,55.9871 124.088,55.5965 125.161,55.5965"/>
<path class="Note" d="M125.161,60.5965 C125.786,60.5965 126.317,60.7579 126.754,61.0808 C127.15,61.435 127.348,61.8777 127.348,62.409 C127.348,63.3048 126.89,64.1433 125.973,64.9246 C125.036,65.7058 124.03,66.0965 122.957,66.0965 C122.332,66.0965 121.806,65.935 121.379,65.6121 C120.973,65.2579 120.77,64.8152 120.77,64.284 C120.77,63.3881 121.239,62.5496 122.176,61.7683 C123.093,60.9871 124.088,60.5965 125.161,60.5965"/>
<path class="Note" d="M125.161,70.5965 C125.786,70.5965 126.317,70.7579 126.754,71.0809 C127.15,71.435 127.348,71.8777 127.348,72.409 C127.348,73.3048 126.89,74.1434 125.973,74.9246 C125.036,75.7059 124.03,76.0965 122.957,76.0965 C122.332,76.0965 121.806,75.935 121.379,75.6121 C120.973,75.2579 120.77,74.8152 120.77,74.284 C120.77,73.3881 121.239,72.5496 122.176,71.7684 C123.093,70.9871 124.088,70.5965 125.161,70.5965"/>
<path class="Note" d="M114.712,53.0965 C115.337,53.0965 115.868,53.2579 116.306,53.5808 C116.702,53.935 116.9,54.3777 116.9,54.909 C116.9,55.8048 116.441,56.6433 115.525,57.4246 C114.587,58.2058 113.582,58.5965 112.509,58.5965 C111.884,58.5965 111.358,58.435 110.931,58.1121 C110.525,57.7579 110.322,57.3152 110.322,56.784 C110.322,55.8881 110.79,55.0496 111.728,54.2683 C112.644,53.4871 113.639,53.0965 114.712,53.0965"/>
<path class="Clef" d="M54.2761,119.065 C54.0834,118.867 53.9871,118.625 53.9871,118.339 C53.9871,118.052 54.0834,117.813 54.2761,117.62 C54.4689,117.427 54.7084,117.331 54.9949,117.331 C55.2814,117.331 55.5235,117.427 55.7215,117.62 C55.9194,117.813 56.0183,118.052 56.0183,118.339 C56.0183,118.625 55.9194,118.867 55.7215,119.065 C55.5235,119.263 55.2814,119.362 54.9949,119.362 C54.7084,119.362 54.4689,119.263 54.2761,119.065 M54.2761,124.073 C54.0834,123.88 53.9871,123.641 53.9871,123.354 C53.9871,123.068 54.0834,122.826 54.2761,122.628 C54.4689,122.43 54.7084,122.331 54.9949,122.331 C55.2814,122.331 55.5235,122.43 55.7215,122.628 C55.9194,122.826 56.0183,123.068 56.0183,123.354 C56.0183,123.641 55.9194,123.88 55.7215,124.073 C55.5235,124.266 55.2814,124.362 54.9949,124.362 C54.7084,124.362 54.4689,124.266 54.2761,124.073 M47.5027,115.597 C49.2319,115.597 50.6485,116.029 51.7527,116.893 C52.8256,117.81 53.3621,119.05 53.3621,120.612 C53.3621,121.664 53.1538,122.628 52.7371,123.503 C52.3413,124.419 51.8256,125.227 51.1902,125.925 C50.534,126.643 49.7475,127.32 48.8308,127.956 C47.9246,128.581 46.9975,129.143 46.0496,129.643 C44.1225,130.612 43.0548,131.097 42.8465,131.097 C42.6798,131.097 42.5965,131.013 42.5965,130.847 C42.5965,130.784 42.6225,130.727 42.6746,130.675 C43.3413,130.279 44.1538,129.779 45.1121,129.175 C45.7371,128.768 46.4663,128.206 47.2996,127.487 C48.1121,126.81 48.7371,126.175 49.1746,125.581 C49.6329,124.987 50.0496,124.258 50.4246,123.393 C50.7475,122.518 50.909,121.654 50.909,120.8 C50.909,119.539 50.5965,118.44 49.9715,117.503 C49.3465,116.565 48.5235,116.097 47.5027,116.097 C46.7735,116.097 46.1485,116.331 45.6277,116.8 C45.0652,117.279 44.659,117.883 44.409,118.612 C44.659,118.508 44.8881,118.456 45.0965,118.456 C45.6381,118.456 46.1069,118.654 46.5027,119.05 C46.8881,119.466 47.0808,119.94 47.0808,120.472 C47.0808,121.034 46.8933,121.539 46.5183,121.987 C46.1121,122.383 45.6381,122.581 45.0965,122.581 C44.5131,122.581 43.9871,122.383 43.5183,121.987 C43.0704,121.539 42.8465,121.034 42.8465,120.472 C42.8465,119.128 43.3048,117.982 44.2215,117.034 C45.1173,116.076 46.211,115.597 47.5027,115.597"/>
<path class="Clef" d="M54.2761,66.5652 C54.0834,66.3673 53.9871,66.1251 53.9871,65.8387 C53.9871,65.5522 54.0834,65.3126 54.2761,65.1199 C54.4689,64.9272 54.7084,64.8309 54.9949,64.8309 C55.2814,64.8309 55.5235,64.9272 55.7215,65.1199 C55.9194,65.3126 56.0183,65.5522 56.0183,65.8387 C56.0183,66.1251 55.9194,66.3673 55.7215,66.5652 C55.5235,66.7631 55.2814,66.8621 54.9949,66.8621 C54.7084,66.8621 54.4689,66.7631 54.2761,66.5652 M54.2761,71.573 C54.0834,71.3803 53.9871,71.1407 53.9871,70.8543 C53.9871,70.5678 54.0834,70.3256 54.2761,70.1277 C54.4689,69.9298 54.7084,69.8309 54.9949,69.8309 C55.2814,69.8309 55.5235,69.9298 55.7215,70.1277 C55.9194,70.3256 56.0183,70.5678 56.0183,70.8543 C56.0183,71.1407 55.9194,71.3803 55.7215,71.573 C55.5235,71.7657 55.2814,71.8621 54.9949,71.8621 C54.7084,71.8621 54.4689,71.7657 54.2761,71.573 M47.5027,63.0965 C49.2319,63.0965 50.6485,63.5288 51.7527,64.3934 C52.8256,65.31 53.3621,66.5496 53.3621,68.1121 C53.3621,69.1642 53.1538,70.1277 52.7371,71.0027 C52.3413,71.9194 51.8256,72.7267 51.1902,73.4246 C50.534,74.1434 49.7475,74.8204 48.8308,75.4559 C47.9246,76.0809 46.9975,76.6434 46.0496,77.1434 C44.1225,78.1121 43.0548,78.5965 42.8465,78.5965 C42.6798,78.5965 42.5965,78.5131 42.5965,78.3465 C42.5965,78.284 42.6225,78.2267 42.6746,78.1746 C43.3413,77.7788 44.1538,77.2788 45.1121,76.6746 C45.7371,76.2684 46.4663,75.7059 47.2996,74.9871 C48.1121,74.31 48.7371,73.6746 49.1746,73.0809 C49.6329,72.4871 50.0496,71.7579 50.4246,70.8934 C50.7475,70.0184 50.909,69.1538 50.909,68.2996 C50.909,67.0392 50.5965,65.9402 49.9715,65.0027 C49.3465,64.0652 48.5235,63.5965 47.5027,63.5965 C46.7735,63.5965 46.1485,63.8309 45.6277,64.2996 C45.0652,64.7788 44.659,65.3829 44.409,66.1121 C44.659,66.0079 44.8881,65.9559 45.0965,65.9559 C45.6381,65.9559 46.1069,66.1538 46.5027,66.5496 C46.8881,66.9663 47.0808,67.4402 47.0808,67.9715 C47.0808,68.534 46.8933,69.0392 46.5183,69.4871 C46.1121,69.8829 45.6381,70.0809 45.0965,70.0809 C44.5131,70.0809 43.9871,69.8829 43.5183,69.4871 C43.0704,69.0392 42.8465,68.534 42.8465,67.9715 C42.8465,66.6277 43.3048,65.4819 44.2215,64.534 C45.1173,63.5756 46.211,63.0965 47.5027,63.0965"/>
<path class="KeySig" d="M74.2621,125.018 L74.2621,126.565 C74.2621,127.117 74.2881,127.555 74.3402,127.878 C74.7673,127.513 75.0746,127.242 75.2621,127.065 C75.4704,126.857 75.6788,126.568 75.8871,126.198 C76.0954,125.828 76.1996,125.461 76.1996,125.097 C76.1996,124.732 76.1215,124.419 75.9652,124.159 C75.809,123.899 75.6006,123.768 75.3402,123.768 C75.0277,123.768 74.7673,123.888 74.559,124.128 C74.3611,124.388 74.2621,124.685 74.2621,125.018 M73.434,128.597 L73.184,116.706 C73.3715,116.602 73.5564,116.55 73.7387,116.55 C73.921,116.55 74.1006,116.602 74.2777,116.706 L74.1215,123.597 C74.6527,123.138 75.2673,122.909 75.9652,122.909 C76.4652,122.909 76.8845,123.117 77.223,123.534 C77.5616,123.951 77.7309,124.43 77.7309,124.972 C77.7309,125.305 77.6215,125.664 77.4027,126.05 C77.1944,126.393 76.9756,126.664 76.7465,126.862 C76.6111,126.966 76.2777,127.227 75.7465,127.643 C75.5902,127.758 75.4053,127.893 75.1918,128.05 C74.9782,128.206 74.8454,128.305 74.7934,128.347 C74.6996,128.399 74.6111,128.503 74.5277,128.659 C74.4444,128.794 74.3402,128.904 74.2152,128.987 C74.1319,129.07 74.0251,129.112 73.8949,129.112 C73.7647,129.112 73.6579,129.065 73.5746,128.972 C73.4809,128.878 73.434,128.753 73.434,128.597"/>
<path class="KeySig" d="M69.2621,132.518 L69.2621,134.065 C69.2621,134.617 69.2881,135.055 69.3402,135.378 C69.7673,135.013 70.0746,134.742 70.2621,134.565 C70.4704,134.357 70.6788,134.068 70.8871,133.698 C71.0954,133.328 71.1996,132.961 71.1996,132.597 C71.1996,132.232 71.1215,131.919 70.9652,131.659 C70.809,131.399 70.6006,131.268 70.3402,131.268 C70.0277,131.268 69.7673,131.388 69.559,131.628 C69.3611,131.888 69.2621,132.185 69.2621,132.518 M68.434,136.097 L68.184,124.206 C68.3715,124.102 68.5564,124.05 68.7387,124.05 C68.921,124.05 69.1006,124.102 69.2777,124.206 L69.1215,131.097 C69.6527,130.638 70.2673,130.409 70.9652,130.409 C71.4652,130.409 71.8845,130.617 72.223,131.034 C72.5616,131.451 72.7309,131.93 72.7309,132.472 C72.7309,132.805 72.6215,133.164 72.4027,133.55 C72.1944,133.893 71.9756,134.164 71.7465,134.362 C71.6111,134.466 71.2777,134.727 70.7465,135.143 C70.5902,135.258 70.4053,135.393 70.1918,135.55 C69.9782,135.706 69.8454,135.805 69.7934,135.847 C69.6996,135.899 69.6111,136.003 69.5277,136.159 C69.4444,136.294 69.3402,136.404 69.2152,136.487 C69.1319,136.57 69.0251,136.612 68.8949,136.612 C68.7647,136.612 68.6579,136.565 68.5746,136.472 C68.4809,136.378 68.434,136.253 68.434,136.097"/>
<path class="KeySig" d="M64.2621,122.518 L64.2621,124.065 C64.2621,124.617 64.2881,125.055 64.3402,125.378 C64.7673,125.013 65.0746,124.742 65.2621,124.565 C65.4704,124.357 65.6788,124.068 65.8871,123.698 C66.0954,123.328 66.1996,122.961 66.1996,122.597 C66.1996,122.232 66.1215,121.919 65.9652,121.659 C65.809,121.399 65.6006,121.268 65.3402,121.268 C65.0277,121.268 64.7673,121.388 64.559,121.628 C64.3611,121.888 64.2621,122.185 64.2621,122.518 M63.434,126.097 L63.184,114.206 C63.3715,114.102 63.5564,114.05 63.7387,114.05 C63.921,114.05 64.1006,114.102 64.2777,114.206 L64.1215,121.097 C64.6527,120.638 65.2673,120.409 65.9652,120.409 C66.4652,120.409 66.8845,120.617 67.223,121.034 C67.5616,121.451 67.7308,121.93 67.7308,122.472 C67.7308,122.805 67.6215,123.164 67.4027,123.55 C67.1944,123.893 66.9756,124.164 66.7465,124.362 C66.6111,124.466 66.2777,124.727 65.7465,125.143 C65.5902,125.258 65.4053,125.393 65.1918,125.55 C64.9782,125.706 64.8454,125.805 64.7933,125.847 C64.6996,125.899 64.6111,126.003 64.5277,126.159 C64.4444,126.294 64.3402,126.404 64.2152,126.487 C64.1319,126.57 64.0251,126.612 63.8949,126.612 C63.7647,126.612 63.6579,126.565 63.5746,126.472 C63.4808,126.378 63.434,126.253 63.434,126.097"/>
<path class="KeySig" d="M59.2621,130.018 L59.2621,131.565 C59.2621,132.117 59.2881,132.555 59.3402,132.878 C59.7673,132.513 60.0746,132.242 60.2621,132.065 C60.4704,131.857 60.6788,131.568 60.8871,131.198 C61.0954,130.828 61.1996,130.461 61.1996,130.097 C61.1996,129.732 61.1215,129.419 60.9652,129.159 C60.809,128.899 60.6006,128.768 60.3402,128.768 C60.0277,128.768 59.7673,128.888 59.559,129.128 C59.3611,129.388 59.2621,129.685 59.2621,130.018 M58.434,133.597 L58.184,121.706 C58.3715,121.602 58.5564,121.55 58.7387,121.55 C58.9209,121.55 59.1006,121.602 59.2777,121.706 L59.1215,128.597 C59.6527,128.138 60.2673,127.909 60.9652,127.909 C61.4652,127.909 61.8845,128.117 62.223,128.534 C62.5616,128.951 62.7308,129.43 62.7308,129.972 C62.7308,130.305 62.6215,130.664 62.4027,131.05 C62.1944,131.393 61.9756,131.664 61.7465,131.862 C61.6111,131.966 61.2777,132.227 60.7465,132.643 C60.5902,132.758 60.4053,132.893 60.1918,133.05 C59.9782,133.206 59.8454,133.305 59.7933,133.347 C59.6996,133.399 59.6111,133.503 59.5277,133.659 C59.4444,133.794 59.3402,133.904 59.2152,133.987 C59.1319,134.07 59.0251,134.112 58.8949,134.112 C58.7647,134.112 58.6579,134.065 58.5746,133.972 C58.4808,133.878 58.434,133.753 58.434,133.597"/>
<path class="KeySig" d="M74.2621,72.5184 L74.2621,74.0652 C74.2621,74.6173 74.2881,75.0548 74.3402,75.3777 C74.7673,75.0131 75.0746,74.7423 75.2621,74.5652 C75.4704,74.3569 75.6788,74.0678 75.8871,73.698 C76.0954,73.3282 76.1996,72.9611 76.1996,72.5965 C76.1996,72.2319 76.1215,71.9194 75.9652,71.659 C75.809,71.3986 75.6006,71.2684 75.3402,71.2684 C75.0277,71.2684 74.7673,71.3881 74.559,71.6277 C74.3611,71.8881 74.2621,72.185 74.2621,72.5184 M73.434,76.0965 L73.184,64.2059 C73.3715,64.1017 73.5564,64.0496 73.7387,64.0496 C73.921,64.0496 74.1006,64.1017 74.2777,64.2059 L74.1215,71.0965 C74.6527,70.6381 75.2673,70.409 75.9652,70.409 C76.4652,70.409 76.8845,70.6173 77.223,71.034 C77.5616,71.4506 77.7309,71.9298 77.7309,72.4715 C77.7309,72.8048 77.6215,73.1642 77.4027,73.5496 C77.1944,73.8934 76.9756,74.1642 76.7465,74.3621 C76.6111,74.4663 76.2777,74.7267 75.7465,75.1434 C75.5902,75.2579 75.4053,75.3934 75.1918,75.5496 C74.9782,75.7059 74.8454,75.8048 74.7934,75.8465 C74.6996,75.8986 74.6111,76.0027 74.5277,76.159 C74.4444,76.2944 74.3402,76.4038 74.2152,76.4871 C74.1319,76.5704 74.0251,76.6121 73.8949,76.6121 C73.7647,76.6121 73.6579,76.5652 73.5746,76.4715 C73.4809,76.3777 73.434,76.2527 73.434,76.0965"/>
<path class="KeySig" d="M69.2621,80.0184 L69.2621,81.5652 C69.2621,82.1173 69.2881,82.5548 69.3402,82.8777 C69.7673,82.5131 70.0746,82.2423 70.2621,82.0652 C70.4704,81.8569 70.6788,81.5678 70.8871,81.198 C71.0954,80.8283 71.1996,80.4611 71.1996,80.0965 C71.1996,79.7319 71.1215,79.4194 70.9652,79.159 C70.809,78.8986 70.6006,78.7684 70.3402,78.7684 C70.0277,78.7684 69.7673,78.8881 69.559,79.1277 C69.3611,79.3881 69.2621,79.685 69.2621,80.0184 M68.434,83.5965 L68.184,71.7059 C68.3715,71.6017 68.5564,71.5496 68.7387,71.5496 C68.921,71.5496 69.1006,71.6017 69.2777,71.7059 L69.1215,78.5965 C69.6527,78.1381 70.2673,77.909 70.9652,77.909 C71.4652,77.909 71.8845,78.1173 72.223,78.534 C72.5616,78.9506 72.7309,79.4298 72.7309,79.9715 C72.7309,80.3048 72.6215,80.6642 72.4027,81.0496 C72.1944,81.3934 71.9756,81.6642 71.7465,81.8621 C71.6111,81.9663 71.2777,82.2267 70.7465,82.6434 C70.5902,82.7579 70.4053,82.8934 70.1918,83.0496 C69.9782,83.2059 69.8454,83.3048 69.7934,83.3465 C69.6996,83.3986 69.6111,83.5027 69.5277,83.659 C69.4444,83.7944 69.3402,83.9038 69.2152,83.9871 C69.1319,84.0704 69.0251,84.1121 68.8949,84.1121 C68.7647,84.1121 68.6579,84.0652 68.5746,83.9715 C68.4809,83.8777 68.434,83.7527 68.434,83.5965"/>
<path class="KeySig" d="M64.2621,70.0184 L64.2621,71.5652 C64.2621,72.1173 64.2881,72.5548 64.3402,72.8777 C64.7673,72.5131 65.0746,72.2423 65.2621,72.0652 C65.4704,71.8569 65.6788,71.5678 65.8871,71.198 C66.0954,70.8282 66.1996,70.4611 66.1996,70.0965 C66.1996,69.7319 66.1215,69.4194 65.9652,69.159 C65.809,68.8986 65.6006,68.7684 65.3402,68.7684 C65.0277,68.7684 64.7673,68.8881 64.559,69.1277 C64.3611,69.3881 64.2621,69.685 64.2621,70.0184 M63.434,73.5965 L63.184,61.7059 C63.3715,61.6017 63.5564,61.5496 63.7387,61.5496 C63.921,61.5496 64.1006,61.6017 64.2777,61.7059 L64.1215,68.5965 C64.6527,68.1381 65.2673,67.909 65.9652,67.909 C66.4652,67.909 66.8845,68.1173 67.223,68.534 C67.5616,68.9506 67.7308,69.4298 67.7308,69.9715 C67.7308,70.3048 67.6215,70.6642 67.4027,71.0496 C67.1944,71.3934 66.9756,71.6642 66.7465,71.8621 C66.6111,71.9663 66.2777,72.2267 65.7465,72.6434 C65.5902,72.7579 65.4053,72.8934 65.1918,73.0496 C64.9782,73.2059 64.8454,73.3048 64.7933,73.3465 C64.6996,73.3986 64.6111,73.5027 64.5277,73.659 C64.4444,73.7944 64.3402,73.9038 64.2152,73.9871 C64.1319,74.0704 64.0251,74.1121 63.8949,74.1121 C63.7647,74.1121 63.6579,74.0652 63.5746,73.9715 C63.4808,73.8777 63.434,73.7527 63.434,73.5965"/>
<path class="KeySig" d="M59.2621,77.5184 L59.2621,79.0652 C59.2621,79.6173 59.2881,80.0548 59.3402,80.3777 C59.7673,80.0131 60.0746,79.7423 60.2621,79.5652 C60.4704,79.3569 60.6788,79.0678 60.8871,78.698 C61.0954,78.3283 61.1996,77.9611 61.1996,77.5965 C61.1996,77.2319 61.1215,76.9194 60.9652,76.659 C60.809,76.3986 60.6006,76.2684 60.3402,76.2684 C60.0277,76.2684 59.7673,76.3881 59.559,76.6277 C59.3611,76.8881 59.2621,77.185 59.2621,77.5184 M58.434,81.0965 L58.184,69.2059 C58.3715,69.1017 58.5564,69.0496 58.7387,69.0496 C58.9209,69.0496 59.1006,69.1017 59.2777,69.2059 L59.1215,76.0965 C59.6527,75.6381 60.2673,75.409 60.9652,75.409 C61.4652,75.409 61.8845,75.6173 62.223,76.034 C62.5616,76.4506 62.7308,76.9298 62.7308,77.4715 C62.7308,77.8048 62.6215,78.1642 62.4027,78.5496 C62.1944,78.8934 61.9756,79.1642 61.7465,79.3621 C61.6111,79.4663 61.2777,79.7267 60.7465,80.1434 C60.5902,80.2579 60.4053,80.3934 60.1918,80.5496 C59.9782,80.7059 59.8454,80.8048 59.7933,80.8465 C59.6996,80.8986 59.6111,81.0027 59.5277,81.159 C59.4444,81.2944 59.3402,81.4038 59.2152,81.4871 C59.1319,81.5704 59.0251,81.6121 58.8949,81.6121 C58.7647,81.6121 58.6579,81.5652 58.5746,81.4715 C58.4808,81.3777 58.434,81.2527 58.434,81.0965"/>
<path class="TimeSig" d="M85.2465,125.847 C84.8506,125.847 84.4965,125.776 84.184,125.636 C83.8715,125.495 83.6527,125.347 83.5277,125.19 C83.3506,124.992 83.1788,124.841 83.0121,124.737 C82.8038,124.591 82.5902,124.518 82.3715,124.518 C82.0277,124.518 81.7465,124.623 81.5277,124.831 C81.2986,125.029 81.1684,125.294 81.1371,125.628 C81.1163,125.774 81.0381,125.847 80.9027,125.847 C80.7465,125.847 80.6684,125.774 80.6684,125.628 C80.6684,125.128 80.7881,124.675 81.0277,124.268 C81.2569,123.852 81.5434,123.508 81.8871,123.237 C82.1684,122.987 82.5434,122.685 83.0121,122.331 C83.0954,122.268 83.2621,122.133 83.5121,121.925 C83.7621,121.716 83.9756,121.539 84.1527,121.393 C84.4861,121.112 84.7777,120.732 85.0277,120.253 C85.2569,119.784 85.3715,119.279 85.3715,118.737 C85.3715,118.07 85.2621,117.498 85.0434,117.018 C84.8142,116.55 84.4548,116.315 83.9652,116.315 C83.6736,116.315 83.434,116.378 83.2465,116.503 C83.0486,116.638 82.9496,116.815 82.9496,117.034 C82.9496,117.222 83.0668,117.451 83.3012,117.722 C83.5355,117.992 83.6527,118.222 83.6527,118.409 C83.6527,118.794 83.5173,119.123 83.2465,119.393 C82.9861,119.654 82.6684,119.784 82.2934,119.784 C81.8975,119.784 81.5642,119.649 81.2934,119.378 C81.0329,119.097 80.9027,118.774 80.9027,118.409 C80.9027,117.659 81.2022,117.044 81.8012,116.565 C82.4001,116.086 83.1215,115.847 83.9652,115.847 C84.9756,115.847 85.8506,116.117 86.5902,116.659 C87.3298,117.18 87.6996,117.873 87.6996,118.737 C87.6996,119.32 87.5954,119.82 87.3871,120.237 C87.1892,120.685 86.8975,121.034 86.5121,121.284 C86.0642,121.565 85.6788,121.784 85.3559,121.94 C84.8975,122.149 84.4444,122.347 83.9965,122.534 C83.4444,122.753 83.0173,122.961 82.7152,123.159 C82.8923,123.117 83.0694,123.097 83.2465,123.097 C83.8506,123.097 84.4756,123.289 85.1215,123.675 C85.7881,124.07 86.3038,124.268 86.6684,124.268 C86.8871,124.268 87.0642,124.227 87.1996,124.143 C87.3246,124.07 87.4079,123.987 87.4496,123.893 C87.5017,123.768 87.5486,123.68 87.5902,123.628 C87.6423,123.544 87.7048,123.503 87.7777,123.503 C87.934,123.503 88.0121,123.581 88.0121,123.737 C88.0121,124.102 87.7517,124.544 87.2309,125.065 C86.7204,125.586 86.059,125.847 85.2465,125.847"/>
<path class="TimeSig" d="M84.8246,126.097 C85.21,126.097 85.5408,126.052 85.8168,125.964 C86.0928,125.875 86.2673,125.831 86.3402,125.831 C86.434,125.831 86.5069,125.857 86.559,125.909 C86.6006,125.94 86.6267,125.982 86.6371,126.034 C86.6371,126.065 86.6215,126.107 86.5902,126.159 L80.9184,132.768 L84.2465,132.768 L84.2465,130.143 C84.2465,129.977 84.2934,129.831 84.3871,129.706 C84.5434,129.581 84.6736,129.503 84.7777,129.472 C84.9444,129.399 85.1527,129.216 85.4027,128.925 C85.6111,128.695 85.8611,128.289 86.1527,127.706 C86.184,127.623 86.2413,127.581 86.3246,127.581 C86.4809,127.581 86.5694,127.675 86.5902,127.862 L86.5902,132.768 L88.0277,132.768 C88.2048,132.768 88.309,132.862 88.3402,133.05 C88.3402,133.248 88.2361,133.347 88.0277,133.347 L86.5902,133.347 L86.5902,133.503 C86.5902,134.024 86.7204,134.466 86.9809,134.831 C87.2829,135.195 87.6371,135.378 88.0434,135.378 C88.1996,135.378 88.2777,135.456 88.2777,135.612 C88.2777,135.768 88.1996,135.847 88.0434,135.847 C87.7725,135.847 87.3298,135.81 86.7152,135.737 C86.1527,135.643 85.7152,135.597 85.4027,135.597 C85.0798,135.597 84.6423,135.643 84.0902,135.737 C83.5069,135.81 83.0746,135.847 82.7934,135.847 C82.6371,135.847 82.559,135.768 82.559,135.612 C82.559,135.456 82.6371,135.378 82.7934,135.378 C83.1892,135.378 83.5381,135.195 83.8402,134.831 C84.1111,134.466 84.2465,134.024 84.2465,133.503 L84.2465,133.347 L80.9184,133.347 C80.6892,133.347 80.5329,133.294 80.4496,133.19 C80.335,133.117 80.2777,133.013 80.2777,132.878 C80.2777,132.836 80.3767,132.701 80.5746,132.472 C80.8038,132.211 81.0381,131.893 81.2777,131.518 C81.5694,131.07 81.8454,130.612 82.1059,130.143 C82.3871,129.612 82.6163,128.998 82.7934,128.3 C82.9809,127.602 83.0746,126.888 83.0746,126.159 C83.0746,125.951 83.1684,125.847 83.3559,125.847 C83.3975,125.847 83.4809,125.867 83.6059,125.909 C83.6475,125.919 83.7309,125.938 83.8559,125.964 C83.9809,125.99 84.0798,126.013 84.1527,126.034 C84.3923,126.076 84.6163,126.097 84.8246,126.097"/>
<path class="TimeSig" d="M85.2465,73.3465 C84.8506,73.3465 84.4965,73.2762 84.184,73.1355 C83.8715,72.9949 83.6527,72.8465 83.5277,72.6902 C83.3506,72.4923 83.1788,72.3413 83.0121,72.2371 C82.8038,72.0913 82.5902,72.0184 82.3715,72.0184 C82.0277,72.0184 81.7465,72.1225 81.5277,72.3309 C81.2986,72.5288 81.1684,72.7944 81.1371,73.1277 C81.1163,73.2736 81.0381,73.3465 80.9027,73.3465 C80.7465,73.3465 80.6684,73.2736 80.6684,73.1277 C80.6684,72.6277 80.7881,72.1746 81.0277,71.7684 C81.2569,71.3517 81.5434,71.0079 81.8871,70.7371 C82.1684,70.4871 82.5434,70.185 83.0121,69.8309 C83.0954,69.7684 83.2621,69.6329 83.5121,69.4246 C83.7621,69.2163 83.9756,69.0392 84.1527,68.8934 C84.4861,68.6121 84.7777,68.2319 85.0277,67.7527 C85.2569,67.284 85.3715,66.7788 85.3715,66.2371 C85.3715,65.5704 85.2621,64.9975 85.0434,64.5184 C84.8142,64.0496 84.4548,63.8152 83.9652,63.8152 C83.6736,63.8152 83.434,63.8777 83.2465,64.0027 C83.0486,64.1381 82.9496,64.3152 82.9496,64.534 C82.9496,64.7215 83.0668,64.9506 83.3012,65.2215 C83.5355,65.4923 83.6527,65.7215 83.6527,65.909 C83.6527,66.2944 83.5173,66.6225 83.2465,66.8934 C82.9861,67.1538 82.6684,67.284 82.2934,67.284 C81.8975,67.284 81.5642,67.1486 81.2934,66.8777 C81.0329,66.5965 80.9027,66.2736 80.9027,65.909 C80.9027,65.159 81.2022,64.5444 81.8012,64.0652 C82.4001,63.5861 83.1215,63.3465 83.9652,63.3465 C84.9756,63.3465 85.8506,63.6173 86.5902,64.159 C87.3298,64.6798 87.6996,65.3725 87.6996,66.2371 C87.6996,66.8204 87.5954,67.3204 87.3871,67.7371 C87.1892,68.185 86.8975,68.534 86.5121,68.784 C86.0642,69.0652 85.6788,69.284 85.3559,69.4402 C84.8975,69.6486 84.4444,69.8465 83.9965,70.034 C83.4444,70.2527 83.0173,70.4611 82.7152,70.659 C82.8923,70.6173 83.0694,70.5965 83.2465,70.5965 C83.8506,70.5965 84.4756,70.7892 85.1215,71.1746 C85.7881,71.5704 86.3038,71.7684 86.6684,71.7684 C86.8871,71.7684 87.0642,71.7267 87.1996,71.6434 C87.3246,71.5704 87.4079,71.4871 87.4496,71.3934 C87.5017,71.2684 87.5486,71.1798 87.5902,71.1277 C87.6423,71.0444 87.7048,71.0027 87.7777,71.0027 C87.934,71.0027 88.0121,71.0809 88.0121,71.2371 C88.0121,71.6017 87.7517,72.0444 87.2309,72.5652 C86.7204,73.0861 86.059,73.3465 85.2465,73.3465"/>
<path class="TimeSig" d="M84.8246,73.5965 C85.21,73.5965 85.5408,73.5522 85.8168,73.4637 C86.0928,73.3751 86.2673,73.3309 86.3402,73.3309 C86.434,73.3309 86.5069,73.3569 86.559,73.409 C86.6006,73.4402 86.6267,73.4819 86.6371,73.534 C86.6371,73.5652 86.6215,73.6069 86.5902,73.659 L80.9184,80.2684 L84.2465,80.2684 L84.2465,77.6434 C84.2465,77.4767 84.2934,77.3309 84.3871,77.2059 C84.5434,77.0809 84.6736,77.0027 84.7777,76.9715 C84.9444,76.8986 85.1527,76.7163 85.4027,76.4246 C85.6111,76.1954 85.8611,75.7892 86.1527,75.2059 C86.184,75.1225 86.2413,75.0809 86.3246,75.0809 C86.4809,75.0809 86.5694,75.1746 86.5902,75.3621 L86.5902,80.2684 L88.0277,80.2684 C88.2048,80.2684 88.309,80.3621 88.3402,80.5496 C88.3402,80.7475 88.2361,80.8465 88.0277,80.8465 L86.5902,80.8465 L86.5902,81.0027 C86.5902,81.5236 86.7204,81.9663 86.9809,82.3309 C87.2829,82.6954 87.6371,82.8777 88.0434,82.8777 C88.1996,82.8777 88.2777,82.9559 88.2777,83.1121 C88.2777,83.2684 88.1996,83.3465 88.0434,83.3465 C87.7725,83.3465 87.3298,83.31 86.7152,83.2371 C86.1527,83.1434 85.7152,83.0965 85.4027,83.0965 C85.0798,83.0965 84.6423,83.1434 84.0902,83.2371 C83.5069,83.31 83.0746,83.3465 82.7934,83.3465 C82.6371,83.3465 82.559,83.2684 82.559,83.1121 C82.559,82.9559 82.6371,82.8777 82.7934,82.8777 C83.1892,82.8777 83.5381,82.6954 83.8402,82.3309 C84.1111,81.9663 84.2465,81.5236 84.2465,81.0027 L84.2465,80.8465 L80.9184,80.8465 C80.6892,80.8465 80.5329,80.7944 80.4496,80.6902 C80.335,80.6173 80.2777,80.5131 80.2777,80.3777 C80.2777,80.3361 80.3767,80.2006 80.5746,79.9715 C80.8038,79.7111 81.0381,79.3934 81.2777,79.0184 C81.5694,78.5704 81.8454,78.1121 82.1059,77.6434 C82.3871,77.1121 82.6163,76.4975 82.7934,75.7996 C82.9809,75.1017 83.0746,74.3881 83.0746,73.659 C83.0746,73.4506 83.1684,73.3465 83.3559,73.3465 C83.3975,73.3465 83.4809,73.3673 83.6059,73.409 C83.6475,73.4194 83.7309,73.4376 83.8559,73.4637 C83.9809,73.4897 84.0798,73.5131 84.1527,73.534 C84.3923,73.5756 84.6163,73.5965 84.8246,73.5965"/>
<path class="Rest" d="M527.833,123.972 L520.723,123.972 C520.588,123.972 520.52,123.909 520.52,123.784 L520.52,121.05 C520.52,120.914 520.588,120.847 520.723,120.847 L527.833,120.847 C527.958,120.847 528.02,120.914 528.02,121.05 L528.02,123.784 C528.02,123.909 527.958,123.972 527.833,123.972"/>
<path class="Rest" d="M527.833,71.4715 L520.723,71.4715 C520.588,71.4715 520.52,71.409 520.52,71.284 L520.52,68.5496 C520.52,68.4142 520.588,68.3465 520.723,68.3465 L527.833,68.3465 C527.958,68.3465 528.02,68.4142 528.02,68.5496 L528.02,71.284 C528.02,71.409 527.958,71.4715 527.833,71.4715"/>
<path class="Rest" d="M451.986,123.972 L444.876,123.972 C444.741,123.972 444.673,123.909 444.673,123.784 L444.673,121.05 C444.673,120.914 444.741,120.847 444.876,120.847 L451.986,120.847 C452.111,120.847 452.173,120.914 452.173,121.05 L452.173,123.784 C452.173,123.909 452.111,123.972 451.986,123.972"/>
<path class="Rest" d="M451.986,71.4715 L444.876,71.4715 C444.741,71.4715 444.673,71.409 444.673,71.284 L444.673,68.5496 C444.673,68.4142 444.741,68.3465 444.876,68.3465 L451.986,68.3465 C452.111,68.3465 452.173,68.4142 452.173,68.5496 L452.173,71.284 C452.173,71.409 452.111,71.4715 451.986,71.4715"/>
<path class="Rest" d="M376.139,123.972 L369.029,123.972 C368.894,123.972 368.826,123.909 368.826,123.784 L368.826,121.05 C368.826,120.914 368.894,120.847 369.029,120.847 L376.139,120.847 C376.264,120.847 376.326,120.914 376.326,121.05 L376.326,123.784 C376.326,123.909 376.264,123.972 376.139,123.972"/>
<path class="Rest" d="M376.139,71.4715 L369.029,71.4715 C368.894,71.4715 368.826,71.409 368.826,71.284 L368.826,68.5496 C368.826,68.4142 368.894,68.3465 369.029,68.3465 L376.139,68.3465 C376.264,68.3465 376.326,68.4142 376.326,68.5496 L376.326,71.284 C376.326,71.409 376.264,71.4715 376.139,71.4715"/>
<path class="Rest" d="M280.664,121.737 C281.039,121.737 281.325,121.841 281.523,122.05 C281.721,122.289 281.825,122.513 281.836,122.722 C281.867,122.919 281.934,123.138 282.039,123.378 C282.153,123.586 282.299,123.69 282.476,123.69 C282.622,123.69 282.841,123.529 283.132,123.206 C283.393,122.925 283.58,122.669 283.695,122.44 C283.757,122.315 283.846,122.253 283.961,122.253 L283.992,122.253 C284.117,122.263 284.205,122.326 284.257,122.44 L281.804,130.847 C281.669,130.982 281.484,131.05 281.25,131.05 C281.015,131.05 280.836,130.982 280.711,130.847 L283.054,124.315 C282.221,124.617 281.518,124.768 280.945,124.768 C280.476,124.768 280.07,124.617 279.726,124.315 C279.372,124.034 279.195,123.659 279.195,123.19 C279.195,122.784 279.341,122.445 279.632,122.175 C279.914,121.883 280.257,121.737 280.664,121.737"/>
<path class="Rest" d="M112.822,121.737 C113.217,121.737 113.499,121.841 113.665,122.05 C113.842,122.279 113.952,122.503 113.993,122.722 C114.004,122.94 114.072,123.159 114.197,123.378 C114.269,123.586 114.41,123.69 114.618,123.69 C114.754,123.69 114.952,123.534 115.212,123.222 C115.504,122.857 115.691,122.597 115.775,122.44 C115.837,122.315 115.926,122.253 116.04,122.253 C116.04,122.253 116.051,122.253 116.072,122.253 C116.186,122.263 116.269,122.326 116.322,122.44 L112.743,135.847 C112.618,135.982 112.439,136.05 112.204,136.05 C111.97,136.05 111.785,135.982 111.65,135.847 L113.665,129.3 C112.79,129.612 112.082,129.768 111.54,129.768 C111.072,129.768 110.665,129.623 110.322,129.331 C109.967,129.039 109.79,128.659 109.79,128.19 C109.79,127.784 109.926,127.445 110.197,127.175 C110.488,126.893 110.837,126.753 111.243,126.753 C111.629,126.753 111.91,126.857 112.087,127.065 C112.275,127.284 112.389,127.503 112.431,127.722 C112.473,127.982 112.54,128.206 112.634,128.393 C112.717,128.602 112.858,128.706 113.056,128.706 C113.212,128.706 113.436,128.524 113.728,128.159 C114.019,127.815 114.202,127.544 114.275,127.347 L115.181,124.315 C114.348,124.617 113.655,124.768 113.103,124.768 C112.634,124.768 112.228,124.617 111.884,124.315 C111.53,124.034 111.353,123.659 111.353,123.19 C111.353,122.784 111.499,122.445 111.79,122.175 C112.072,121.883 112.415,121.737 112.822,121.737"/>
<path class="Articulation" d="M208.534,144.054 C208.336,143.856 208.237,143.621 208.237,143.35 C208.237,143.08 208.336,142.845 208.534,142.647 C208.732,142.449 208.966,142.35 209.237,142.35 C209.508,142.35 209.742,142.449 209.94,142.647 C210.138,142.845 210.237,143.08 210.237,143.35 C210.237,143.621 210.138,143.856 209.94,144.054 C209.742,144.251 209.508,144.35 209.237,144.35 C208.966,144.35 208.732,144.251 208.534,144.054"/>
<path class="Articulation" d="M190.202,149.054 C190.004,148.856 189.905,148.621 189.905,148.35 C189.905,148.08 190.004,147.845 190.202,147.647 C190.4,147.449 190.634,147.35 190.905,147.35 C191.176,147.35 191.41,147.449 191.608,147.647 C191.806,147.845 191.905,148.08 191.905,148.35 C191.905,148.621 191.806,148.856 191.608,149.054 C191.41,149.251 191.176,149.35 190.905,149.35 C190.634,149.35 190.4,149.251 190.202,149.054"/>
<path class="Articulation" d="M171.87,151.554 C171.672,151.356 171.573,151.121 171.573,150.85 C171.573,150.58 171.672,150.345 171.87,150.147 C172.068,149.949 172.303,149.85 172.573,149.85 C172.844,149.85 173.079,149.949 173.277,150.147 C173.474,150.345 173.573,150.58 173.573,150.85 C173.573,151.121 173.474,151.356 173.277,151.554 C173.079,151.751 172.844,151.85 172.573,151.85 C172.303,151.85 172.068,151.751 171.87,151.554"/>
<path class="Articulation" d="M153.539,156.554 C153.341,156.356 153.242,156.121 153.242,155.85 C153.242,155.58 153.341,155.345 153.539,155.147 C153.736,154.949 153.971,154.85 154.242,154.85 C154.512,154.85 154.747,154.949 154.945,155.147 C155.143,155.345 155.242,155.58 155.242,155.85 C155.242,156.121 155.143,156.356 154.945,156.554 C154.747,156.751 154.512,156.85 154.242,156.85 C153.971,156.85 153.736,156.751 153.539,156.554"/>
<path class="Articulation" d="M135.207,161.554 C135.009,161.356 134.91,161.121 134.91,160.85 C134.91,160.58 135.009,160.345 135.207,160.147 C135.405,159.949 135.639,159.85 135.91,159.85 C136.181,159.85 136.415,159.949 136.613,160.147 C136.811,160.345 136.91,160.58 136.91,160.85 C136.91,161.121 136.811,161.356 136.613,161.554 C136.415,161.751 136.181,161.85 135.91,161.85 C135.639,161.85 135.405,161.751 135.207,161.554"/>
<path class="Dynamic" d="M112.05,99.5027 C111.863,99.5027 111.727,99.4611 111.644,99.3777 C111.561,99.2736 111.509,99.1798 111.488,99.0965 C111.457,98.9819 111.415,98.8934 111.363,98.8309 C111.311,98.7371 111.222,98.685 111.097,98.6746 C110.91,98.6746 110.686,98.7684 110.425,98.9559 C110.207,99.1225 110.071,99.3048 110.019,99.5027 L109.082,103.159 C109.04,103.284 108.962,103.346 108.847,103.346 L107.832,103.346 C107.727,103.346 107.686,103.284 107.707,103.159 L108.754,99.1121 C108.774,99.0496 108.78,98.9715 108.769,98.8777 C108.769,98.6382 108.681,98.5184 108.504,98.5184 C108.358,98.5184 108.186,98.6069 107.988,98.784 C107.842,98.9194 107.727,99.0965 107.644,99.3152 C107.602,99.3986 107.545,99.4402 107.472,99.4402 C107.399,99.4402 107.352,99.3934 107.332,99.2996 C107.332,99.06 107.519,98.7475 107.894,98.3621 C108.186,98.06 108.556,97.909 109.004,97.909 C109.254,97.909 109.472,97.9715 109.66,98.0965 C109.847,98.2215 109.988,98.3725 110.082,98.5496 C110.592,98.1225 111.144,97.909 111.738,97.909 C112.05,97.909 112.316,97.9767 112.535,98.1121 C112.743,98.2371 112.842,98.4142 112.832,98.6434 C112.832,98.8725 112.754,99.0652 112.597,99.2215 C112.441,99.409 112.259,99.5027 112.05,99.5027 M116.472,98.2684 L115.519,101.362 C115.186,102.477 114.629,103.555 113.847,104.596 C113.056,105.638 112.248,106.159 111.425,106.159 C110.998,106.159 110.621,106.047 110.293,105.823 C109.964,105.599 109.8,105.31 109.8,104.956 C109.8,104.55 109.884,104.206 110.05,103.925 C110.227,103.654 110.472,103.508 110.785,103.487 C111.014,103.487 111.207,103.57 111.363,103.737 C111.519,103.904 111.597,104.096 111.597,104.315 C111.597,104.513 111.483,104.695 111.254,104.862 C111.014,105.008 110.889,105.175 110.879,105.362 C110.879,105.487 111.019,105.55 111.3,105.55 L111.425,105.55 C111.488,105.55 111.582,105.534 111.707,105.503 C111.78,105.492 111.868,105.451 111.972,105.378 C111.972,105.378 112.035,105.326 112.16,105.221 C112.243,105.107 112.295,105.024 112.316,104.971 C112.358,104.867 112.394,104.784 112.425,104.721 C112.467,104.68 112.504,104.576 112.535,104.409 C112.556,104.367 112.571,104.32 112.582,104.268 C112.592,104.216 112.602,104.18 112.613,104.159 C112.623,104.138 112.629,104.123 112.629,104.112 C112.681,103.904 112.717,103.779 112.738,103.737 C112.78,103.529 112.8,103.425 112.8,103.425 L114.082,98.2684 L113.097,98.2684 C113.004,98.2684 112.936,98.2371 112.894,98.1746 C112.842,98.0913 112.816,98.0184 112.816,97.9559 C112.816,97.8725 112.842,97.7996 112.894,97.7371 C112.977,97.6746 113.045,97.6434 113.097,97.6434 L114.269,97.6434 C114.592,96.6642 115.129,95.8205 115.879,95.1121 C116.618,94.383 117.415,94.0184 118.269,94.0184 C118.727,94.0184 119.108,94.133 119.41,94.3621 C119.733,94.5809 119.899,94.8673 119.91,95.2215 C119.91,95.6069 119.826,95.9507 119.66,96.2527 C119.462,96.5236 119.217,96.6642 118.925,96.6746 C118.696,96.6746 118.504,96.5939 118.347,96.4324 C118.191,96.271 118.113,96.0809 118.113,95.8621 C118.113,95.6746 118.233,95.5027 118.472,95.3465 C118.712,95.1902 118.826,95.0132 118.816,94.8152 C118.816,94.6694 118.681,94.6017 118.41,94.6121 L118.363,94.6121 C118.332,94.633 118.3,94.6382 118.269,94.6277 C118.04,94.6277 117.847,94.685 117.691,94.7996 C117.535,94.9038 117.389,95.0913 117.254,95.3621 C117.212,95.435 117.178,95.508 117.152,95.5809 C117.126,95.6538 117.097,95.7345 117.066,95.8231 C117.035,95.9116 117.009,95.9715 116.988,96.0027 C116.977,96.0652 116.957,96.1955 116.925,96.3934 C116.884,96.5809 116.847,96.7423 116.816,96.8777 C116.733,97.2736 116.675,97.5288 116.644,97.6434 L117.722,97.6434 C117.806,97.6434 117.881,97.672 117.949,97.7293 C118.017,97.7866 118.05,97.8595 118.05,97.9481 C118.05,98.0366 118.017,98.1121 117.949,98.1746 C117.881,98.2371 117.806,98.2684 117.722,98.2684 L116.472,98.2684 "/>
<path class="Beam" fill-rule="evenodd" d="M224.262,87.0965 L316.571,87.0965 L316.571,89.5965 L224.262,89.5965 L224.262,87.0965 "/>
<path class="Beam" fill-rule="evenodd" d="M224.262,83.3465 L261.576,83.3465 L261.576,85.8465 L224.262,85.8465 L224.262,83.3465 "/>
<path class="Beam" fill-rule="evenodd" d="M285.19,83.3465 L316.571,83.3465 L316.571,85.8465 L285.19,85.8465 L285.19,83.3465 "/>
<path class="Beam" fill-rule="evenodd" d="M138.536,129.674 L212.513,120.847 L212.513,123.347 L138.536,132.174 L138.536,129.674 "/>
<path class="Beam" fill-rule="evenodd" d="M138.536,133.424 L157.517,131.159 L157.517,133.659 L138.536,135.924 L138.536,133.424 "/>
<path class="Beam" fill-rule="evenodd" d="M175.199,129.049 L212.513,124.597 L212.513,127.097 L175.199,131.549 L175.199,129.049 "/>
<path class="Beam" fill-rule="evenodd" d="M120.77,87.0965 L206.58,87.0965 L206.58,89.5965 L120.77,89.5965 L120.77,87.0965 "/>
<path class="Beam" fill-rule="evenodd" d="M120.77,83.3465 L151.585,83.3465 L151.585,85.8465 L120.77,85.8465 L120.77,83.3465 "/>
<path class="Beam" fill-rule="evenodd" d="M169.266,83.3465 L206.58,83.3465 L206.58,85.8465 L169.266,85.8465 L169.266,83.3465 "/>
<path class="Hook" d="M285.19,49.5965 L285.19,44.5965 L285.815,44.5965 C285.815,45.336 285.961,46.0808 286.253,46.8308 C286.565,47.6329 286.909,48.336 287.284,48.9402 C287.555,49.3673 287.966,50.0235 288.518,50.909 C288.935,51.586 289.287,52.2944 289.573,53.034 C289.859,53.7735 290.003,54.5183 290.003,55.2683 C290.003,56.6225 289.721,58.0027 289.159,59.409 C289.065,59.5652 288.94,59.6433 288.784,59.6433 C288.659,59.6433 288.544,59.5913 288.44,59.4871 C288.357,59.4038 288.315,59.3048 288.315,59.1902 L288.315,59.0965 C288.878,57.8048 289.159,56.5288 289.159,55.2683 C289.159,54.6121 288.961,53.909 288.565,53.159 C288.18,52.3881 287.784,51.7735 287.378,51.3152 C286.919,50.784 286.399,50.211 285.815,49.5965 L285.19,49.5965 "/>
<path class="Hook" d="M230.195,120.847 L230.195,115.847 L230.82,115.847 C230.82,116.586 230.966,117.331 231.257,118.081 C231.57,118.883 231.913,119.586 232.288,120.19 C232.559,120.617 232.971,121.274 233.523,122.159 C233.94,122.836 234.291,123.544 234.578,124.284 C234.864,125.024 235.007,125.768 235.007,126.518 C235.007,127.873 234.726,129.253 234.163,130.659 C234.07,130.815 233.945,130.893 233.788,130.893 C233.663,130.893 233.549,130.841 233.445,130.737 C233.361,130.654 233.32,130.555 233.32,130.44 L233.32,130.347 C233.882,129.055 234.163,127.779 234.163,126.518 C234.163,125.862 233.966,125.159 233.57,124.409 C233.184,123.638 232.788,123.024 232.382,122.565 C231.924,122.034 231.403,121.461 230.82,120.847 L230.195,120.847 "/>
<path class="Tuplet" d="M299.462,95.7434 C301.045,95.483 301.837,94.9309 301.837,94.0871 C301.837,93.8059 301.756,93.5819 301.595,93.4152 C301.433,93.2486 301.217,93.1652 300.946,93.1652 C300.54,93.1652 300.17,93.3892 299.837,93.8371 L299.681,93.7902 C299.847,93.4673 300.074,93.2095 300.36,93.0168 C300.647,92.8241 300.967,92.7277 301.321,92.7277 C301.717,92.7277 302.048,92.8501 302.313,93.0949 C302.579,93.3397 302.712,93.6496 302.712,94.0246 C302.712,94.358 302.602,94.6288 302.384,94.8371 C302.165,95.0455 301.754,95.2694 301.149,95.509 L301.149,95.5246 C301.795,95.8267 302.118,96.3267 302.118,97.0246 C302.118,97.7121 301.86,98.3085 301.345,98.8137 C300.829,99.3189 300.155,99.5715 299.321,99.5715 C298.582,99.5715 298.212,99.3788 298.212,98.9934 C298.212,98.733 298.358,98.6027 298.649,98.6027 C298.816,98.6027 299.037,98.7017 299.313,98.8996 C299.589,99.0975 299.821,99.1965 300.009,99.1965 C300.363,99.1965 300.67,99.0455 300.931,98.7434 C301.191,98.4413 301.321,98.0455 301.321,97.5559 C301.321,96.9309 301.162,96.4986 300.845,96.259 C300.527,96.0194 300.066,95.8996 299.462,95.8996 L299.462,95.7434 "/>
<path class="Tuplet" d="M241.5,95.7434 C243.083,95.483 243.875,94.9309 243.875,94.0871 C243.875,93.8059 243.794,93.5819 243.633,93.4152 C243.471,93.2486 243.255,93.1652 242.984,93.1652 C242.578,93.1652 242.208,93.3892 241.875,93.8371 L241.719,93.7902 C241.885,93.4673 242.112,93.2095 242.398,93.0168 C242.685,92.8241 243.005,92.7277 243.359,92.7277 C243.755,92.7277 244.086,92.8501 244.352,93.0949 C244.617,93.3397 244.75,93.6496 244.75,94.0246 C244.75,94.358 244.641,94.6288 244.422,94.8371 C244.203,95.0455 243.792,95.2694 243.187,95.509 L243.187,95.5246 C243.833,95.8267 244.156,96.3267 244.156,97.0246 C244.156,97.7121 243.898,98.3085 243.383,98.8137 C242.867,99.3189 242.193,99.5715 241.359,99.5715 C240.62,99.5715 240.25,99.3788 240.25,98.9934 C240.25,98.733 240.396,98.6027 240.687,98.6027 C240.854,98.6027 241.075,98.7017 241.352,98.8996 C241.628,99.0975 241.859,99.1965 242.047,99.1965 C242.401,99.1965 242.708,99.0455 242.969,98.7434 C243.229,98.4413 243.359,98.0455 243.359,97.5559 C243.359,96.9309 243.2,96.4986 242.883,96.259 C242.565,96.0194 242.104,95.8996 241.5,95.8996 L241.5,95.7434 "/>
<path class="Tuplet" d="M192.437,109.331 C194.021,109.07 194.812,108.518 194.812,107.675 C194.812,107.393 194.732,107.169 194.57,107.003 C194.409,106.836 194.193,106.753 193.922,106.753 C193.515,106.753 193.146,106.977 192.812,107.425 L192.656,107.378 C192.823,107.055 193.049,106.797 193.336,106.604 C193.622,106.412 193.943,106.315 194.297,106.315 C194.693,106.315 195.023,106.438 195.289,106.682 C195.555,106.927 195.687,107.237 195.687,107.612 C195.687,107.945 195.578,108.216 195.359,108.425 C195.14,108.633 194.729,108.857 194.125,109.097 L194.125,109.112 C194.771,109.414 195.094,109.914 195.094,110.612 C195.094,111.3 194.836,111.896 194.32,112.401 C193.805,112.906 193.13,113.159 192.297,113.159 C191.557,113.159 191.187,112.966 191.187,112.581 C191.187,112.32 191.333,112.19 191.625,112.19 C191.791,112.19 192.013,112.289 192.289,112.487 C192.565,112.685 192.797,112.784 192.984,112.784 C193.338,112.784 193.646,112.633 193.906,112.331 C194.166,112.029 194.297,111.633 194.297,111.143 C194.297,110.518 194.138,110.086 193.82,109.847 C193.502,109.607 193.041,109.487 192.437,109.487 L192.437,109.331 "/>
<path class="Tuplet" d="M186.504,95.7434 C188.088,95.483 188.879,94.9309 188.879,94.0871 C188.879,93.8059 188.799,93.5819 188.637,93.4152 C188.476,93.2486 188.26,93.1652 187.989,93.1652 C187.583,93.1652 187.213,93.3892 186.879,93.8371 L186.723,93.7902 C186.89,93.4673 187.116,93.2095 187.403,93.0168 C187.689,92.8241 188.01,92.7277 188.364,92.7277 C188.76,92.7277 189.09,92.8501 189.356,93.0949 C189.622,93.3397 189.754,93.6496 189.754,94.0246 C189.754,94.358 189.645,94.6288 189.426,94.8371 C189.208,95.0455 188.796,95.2694 188.192,95.509 L188.192,95.5246 C188.838,95.8267 189.161,96.3267 189.161,97.0246 C189.161,97.7121 188.903,98.3085 188.387,98.8137 C187.872,99.3189 187.197,99.5715 186.364,99.5715 C185.624,99.5715 185.254,99.3788 185.254,98.9934 C185.254,98.733 185.4,98.6027 185.692,98.6027 C185.859,98.6027 186.08,98.7017 186.356,98.8996 C186.632,99.0975 186.864,99.1965 187.051,99.1965 C187.406,99.1965 187.713,99.0455 187.973,98.7434 C188.234,98.4413 188.364,98.0455 188.364,97.5559 C188.364,96.9309 188.205,96.4986 187.887,96.259 C187.57,96.0194 187.109,95.8996 186.504,95.8996 L186.504,95.7434 "/>
<path class="Tuplet" d="M134.076,109.331 C135.659,109.07 136.451,108.518 136.451,107.675 C136.451,107.393 136.37,107.169 136.209,107.003 C136.047,106.836 135.831,106.753 135.56,106.753 C135.154,106.753 134.784,106.977 134.451,107.425 L134.294,107.378 C134.461,107.055 134.688,106.797 134.974,106.604 C135.261,106.412 135.581,106.315 135.935,106.315 C136.331,106.315 136.662,106.438 136.927,106.682 C137.193,106.927 137.326,107.237 137.326,107.612 C137.326,107.945 137.216,108.216 136.998,108.425 C136.779,108.633 136.367,108.857 135.763,109.097 L135.763,109.112 C136.409,109.414 136.732,109.914 136.732,110.612 C136.732,111.3 136.474,111.896 135.959,112.401 C135.443,112.906 134.768,113.159 133.935,113.159 C133.195,113.159 132.826,112.966 132.826,112.581 C132.826,112.32 132.972,112.19 133.263,112.19 C133.43,112.19 133.651,112.289 133.927,112.487 C134.203,112.685 134.435,112.784 134.623,112.784 C134.977,112.784 135.284,112.633 135.544,112.331 C135.805,112.029 135.935,111.633 135.935,111.143 C135.935,110.518 135.776,110.086 135.459,109.847 C135.141,109.607 134.68,109.487 134.076,109.487 L134.076,109.331 "/>
<polyline class="Tuplet" fill="none" stroke="#000000" stroke-width="0.50" stroke-linecap="square" stroke-linejoin="bevel" points="110.322,114.597 110.322,109.597 130.169,109.597"/>
<polyline class="Tuplet" fill="none" stroke="#000000" stroke-width="0.50" stroke-linecap="square" stroke-linejoin="bevel" points="140.169,109.597 160.017,109.597 160.017,114.597"/>
<path class="Tuplet" d="M134.759,95.7434 C136.342,95.483 137.134,94.9309 137.134,94.0871 C137.134,93.8059 137.053,93.5819 136.891,93.4152 C136.73,93.2486 136.514,93.1652 136.243,93.1652 C135.837,93.1652 135.467,93.3892 135.134,93.8371 L134.977,93.7902 C135.144,93.4673 135.37,93.2095 135.657,93.0168 C135.943,92.8241 136.264,92.7277 136.618,92.7277 C137.014,92.7277 137.344,92.8501 137.61,93.0949 C137.876,93.3397 138.009,93.6496 138.009,94.0246 C138.009,94.358 137.899,94.6288 137.68,94.8371 C137.462,95.0455 137.05,95.2694 136.446,95.509 L136.446,95.5246 C137.092,95.8267 137.415,96.3267 137.415,97.0246 C137.415,97.7121 137.157,98.3085 136.641,98.8137 C136.126,99.3189 135.451,99.5715 134.618,99.5715 C133.878,99.5715 133.509,99.3788 133.509,98.9934 C133.509,98.733 133.654,98.6027 133.946,98.6027 C134.113,98.6027 134.334,98.7017 134.61,98.8996 C134.886,99.0975 135.118,99.1965 135.305,99.1965 C135.66,99.1965 135.967,99.0455 136.227,98.7434 C136.488,98.4413 136.618,98.0455 136.618,97.5559 C136.618,96.9309 136.459,96.4986 136.141,96.259 C135.824,96.0194 135.363,95.8996 134.759,95.8996 L134.759,95.7434 "/>
<path class="NoteDot" d="M118.99,56.6512 C118.766,56.4272 118.654,56.159 118.654,55.8465 C118.654,55.534 118.766,55.2657 118.99,55.0418 C119.214,54.8178 119.482,54.7058 119.795,54.7058 C120.107,54.7058 120.373,54.8178 120.592,55.0418 C120.811,55.2657 120.92,55.534 120.92,55.8465 C120.92,56.159 120.811,56.4272 120.592,56.6512 C120.373,56.8751 120.107,56.9871 119.795,56.9871 C119.482,56.9871 119.214,56.8751 118.99,56.6512"/>
<path class="Bracket" fill-rule="evenodd" d="M36.755,89.1402 C36.755,83.2993 32.7322,77.6218 32.7322,72.0261 C32.7322,69.2077 33.8293,66.4711 37.2122,64.0204 C37.2579,63.9898 37.2807,63.9387 37.2807,63.9081 C37.2807,63.8162 37.0293,63.7345 36.8465,63.7345 C36.755,63.7345 36.595,63.7447 36.4807,63.8162 C32.0922,66.9613 30.6293,70.5965 30.6293,74.2725 C30.6293,80.1951 34.9265,85.9134 34.9265,91.5909 C34.9265,94.4092 33.8293,97.0641 30.4465,99.5148 L30.4465,99.5965 L30.4465,99.6782 C33.8293,102.129 34.9265,104.784 34.9265,107.602 C34.9265,113.28 30.6293,118.998 30.6293,124.92 C30.6293,128.597 32.0922,132.232 36.4807,135.377 C36.595,135.448 36.755,135.458 36.8465,135.458 C37.0293,135.458 37.2807,135.377 37.2807,135.285 C37.2807,135.254 37.2579,135.203 37.2122,135.173 C33.8293,132.722 32.7322,129.985 32.7322,127.167 C32.7322,121.571 36.755,115.894 36.755,110.053 C36.755,106.336 35.2922,102.782 30.995,99.5965 C35.2922,96.4106 36.755,92.8571 36.755,89.1402"/>
</svg>
