<?xml version="1.0" encoding="UTF-8" standalone="no"?>
<svg width="595.44px" height="841.68px" viewBox="0 0 595.44 841.68"
 xmlns="http://www.w3.org/2000/svg" xmlns:xlink="http://www.w3.org/1999/xlink" version="1.2" baseProfile="tiny">
<title>06</title>
<desc>Generated by MuseScore 2.3.2</desc>
<polyline class="StaffLines" fill="none" stroke="#000000" stroke-width="0.40" stroke-linejoin="bevel" points="38.8465,63.3465 567.094,63.3465"/>
<polyline class="StaffLines" fill="none" stroke="#000000" stroke-width="0.40" stroke-linejoin="bevel" points="38.8465,68.3465 567.094,68.3465"/>
<polyline class="StaffLines" fill="none" stroke="#000000" stroke-width="0.40" stroke-linejoin="bevel" points="38.8465,73.3465 567.094,73.3465"/>
<polyline class="StaffLines" fill="none" stroke="#000000" stroke-width="0.40" stroke-linejoin="bevel" points="38.8465,78.3465 567.094,78.3465"/>
<polyline class="StaffLines" fill="none" stroke="#000000" stroke-width="0.40" stroke-linejoin="bevel" points="38.8465,83.3465 567.094,83.3465"/>
<polyline class="StaffLines" fill="none" stroke="#000000" stroke-width="0.40" stroke-linejoin="bevel" points="38.8465,115.847 567.094,115.847"/>
<polyline class="StaffLines" fill="none" stroke="#000000" stroke-width="0.40" stroke-linejoin="bevel" points="38.8465,120.847 567.094,120.847"/>
<polyline class="StaffLines" fill="none" stroke="#000000" stroke-width="0.40" stroke-linejoin="bevel" points="38.8465,125.847 567.094,125.847"/>
<polyline class="StaffLines" fill="none" stroke="#000000" stroke-width="0.40" stroke-linejoin="bevel" points="38.8465,130.847 567.094,130.847"/>
<polyline class="StaffLines" fill="none" stroke="#000000" stroke-width="0.40" stroke-linejoin="bevel" points="38.8465,135.847 567.094,135.847"/>
<path class="SlurSegment" stroke="#000000" stroke-width="0.35" stroke-linecap="round" stroke-linejoin="round" fill-rule="evenodd" d="M196.988,63.8465 C206.841,56.841 224.163,59.341 231.632,68.8465 C224.048,60.1328 206.726,57.6328 196.988,63.8465"/>
<path class="SlurSegment" stroke="#000000" stroke-width="0.35" stroke-linecap="round" stroke-linejoin="round" fill-rule="evenodd" d="M143.481,140.847 C160.288,152.299 235.35,147.924 250.712,134.597 C235.396,148.722 160.335,153.097 143.481,140.847"/>
<path class="SlurSegment" stroke="#000000" stroke-width="0.35" stroke-linecap="round" stroke-linejoin="round" fill-rule="evenodd" d="M152.061,110.885 C166.636,101.419 234.294,101.826 248.715,111.465 C234.289,102.626 166.631,102.219 152.061,110.885"/>
<path class="SlurSegment" stroke="#000000" stroke-width="0.35" stroke-linecap="round" stroke-linejoin="round" fill-rule="evenodd" d="M145.023,68.8465 C153.683,60.5502 171.005,60.5502 179.666,68.8465 C171.005,61.3502 153.683,61.3502 145.023,68.8465"/>
<path class="SlurSegment" stroke="#000000" stroke-width="0.35" stroke-linecap="round" stroke-linejoin="round" fill-rule="evenodd" d="M134.814,75.3465 C135.356,77.0192 138.606,78.5192 140.231,77.8465 C138.439,78.8824 135.189,77.3824 134.814,75.3465"/>
<polyline class="BarLine" stroke="#000000" stroke-width="0.80" stroke-linejoin="bevel" points="39.2465,63.3465 39.2465,135.847"/>
<polyline class="BarLine" stroke="#000000" stroke-width="0.80" stroke-linejoin="bevel" points="562.194,63.3465 562.194,135.847"/>
<polyline class="BarLine" stroke="#000000" stroke-width="2.50" stroke-linejoin="bevel" points="565.844,63.3465 565.844,135.847"/>
<polyline class="BarLine" stroke="#000000" stroke-width="0.80" stroke-linejoin="bevel" points="462.41,63.3465 462.41,135.847"/>
<polyline class="BarLine" stroke="#000000" stroke-width="0.80" stroke-linejoin="bevel" points="362.626,63.3465 362.626,135.847"/>
<polyline class="BarLine" stroke="#000000" stroke-width="0.80" stroke-linejoin="bevel" points="246.062,63.3465 246.062,135.847"/>
<polyline class="StemSlash" stroke="#000000" stroke-width="0.65" stroke-linejoin="bevel" points="140.843,62.5965 134.392,66.5965"/>
<path class="Accidental" d="M154.319,68.3465 C154.485,68.2527 154.655,68.2059 154.826,68.2059 C154.998,68.2059 155.168,68.2527 155.334,68.3465 L155.272,72.0027 L157.412,71.6121 L157.491,71.6121 C157.72,71.6121 157.834,71.7215 157.834,71.9402 L157.975,83.3465 C157.808,83.4402 157.639,83.4871 157.467,83.4871 C157.295,83.4871 157.126,83.4402 156.959,83.3465 L157.022,79.6902 L154.912,80.0809 L154.834,80.0809 C154.595,80.0809 154.475,79.9715 154.475,79.7527 L154.319,68.3465 M157.037,77.7371 L157.1,73.5965 L155.256,73.9559 L155.194,78.0965 L157.037,77.7371 "/>
<polyline class="LedgerLine" stroke="#000000" stroke-width="0.80" stroke-linecap="square" stroke-linejoin="bevel" points="250.962,110.847 260.545,110.847"/>
<polyline class="LedgerLine" stroke="#000000" stroke-width="0.80" stroke-linecap="square" stroke-linejoin="bevel" points="140.231,110.847 149.814,110.847"/>
<polyline class="Stem" stroke="#000000" stroke-width="0.65" stroke-linecap="round" stroke-linejoin="bevel" points="252.788,111.786 252.788,133.347"/>
<polyline class="Stem" stroke="#000000" stroke-width="0.65" stroke-linecap="round" stroke-linejoin="bevel" points="258.72,74.9074 258.72,59.5965"/>
<polyline class="Stem" stroke="#000000" stroke-width="0.65" stroke-linecap="round" stroke-linejoin="bevel" points="228.666,74.2855 228.666,92.0965"/>
<polyline class="Stem" stroke="#000000" stroke-width="0.65" stroke-linecap="round" stroke-linejoin="bevel" points="211.344,71.7855 211.344,92.0965"/>
<polyline class="Stem" stroke="#000000" stroke-width="0.65" stroke-linecap="round" stroke-linejoin="bevel" points="194.022,69.2855 194.022,92.0965"/>
<polyline class="Stem" stroke="#000000" stroke-width="0.65" stroke-linecap="round" stroke-linejoin="bevel" points="176.7,74.2855 176.7,92.0965"/>
<polyline class="Stem" stroke="#000000" stroke-width="0.65" stroke-linecap="round" stroke-linejoin="bevel" points="159.378,76.7856 159.378,92.0965"/>
<polyline class="Stem" stroke="#000000" stroke-width="0.65" stroke-linecap="round" stroke-linejoin="bevel" points="142.056,109.286 142.056,139.597"/>
<polyline class="Stem" stroke="#000000" stroke-width="0.65" stroke-linecap="round" stroke-linejoin="bevel" points="136.793,70.1891 136.793,58.5965"/>
<polyline class="Stem" stroke="#000000" stroke-width="0.65" stroke-linecap="round" stroke-linejoin="bevel" points="142.056,74.2855 142.056,92.0965"/>
<path class="Note" d="M256.853,108.097 C257.478,108.097 258.009,108.258 258.447,108.581 C258.843,108.935 259.041,109.378 259.041,109.909 C259.041,110.805 258.582,111.643 257.666,112.425 C256.728,113.206 255.723,113.597 254.65,113.597 C254.025,113.597 253.499,113.435 253.072,113.112 C252.666,112.758 252.463,112.315 252.463,111.784 C252.463,110.888 252.931,110.05 253.869,109.268 C254.785,108.487 255.78,108.097 256.853,108.097"/>
<path class="Note" d="M256.853,113.097 C257.478,113.097 258.009,113.258 258.447,113.581 C258.843,113.935 259.041,114.378 259.041,114.909 C259.041,115.805 258.582,116.643 257.666,117.425 C256.728,118.206 255.723,118.597 254.65,118.597 C254.025,118.597 253.499,118.435 253.072,118.112 C252.666,117.758 252.463,117.315 252.463,116.784 C252.463,115.888 252.931,115.05 253.869,114.268 C254.785,113.487 255.78,113.097 256.853,113.097"/>
<path class="Note" d="M256.853,73.0965 C257.478,73.0965 258.009,73.2579 258.447,73.5809 C258.843,73.935 259.041,74.3777 259.041,74.909 C259.041,75.8048 258.582,76.6434 257.666,77.4246 C256.728,78.2059 255.723,78.5965 254.65,78.5965 C254.025,78.5965 253.499,78.435 253.072,78.1121 C252.666,77.7579 252.463,77.3152 252.463,76.784 C252.463,75.8881 252.931,75.0496 253.869,74.2684 C254.785,73.4871 255.78,73.0965 256.853,73.0965"/>
<path class="Note" d="M232.731,70.5965 C233.356,70.5965 233.887,70.7579 234.325,71.0809 C234.721,71.435 234.919,71.8777 234.919,72.409 C234.919,73.3048 234.46,74.1434 233.544,74.9246 C232.606,75.7059 231.601,76.0965 230.528,76.0965 C229.903,76.0965 229.377,75.935 228.95,75.6121 C228.544,75.2579 228.341,74.8152 228.341,74.284 C228.341,73.3881 228.809,72.5496 229.747,71.7684 C230.664,70.9871 231.658,70.5965 232.731,70.5965"/>
<path class="Note" d="M215.409,68.0965 C216.034,68.0965 216.566,68.2579 217.003,68.5809 C217.399,68.935 217.597,69.3777 217.597,69.909 C217.597,70.8048 217.138,71.6434 216.222,72.4246 C215.284,73.2059 214.279,73.5965 213.206,73.5965 C212.581,73.5965 212.055,73.435 211.628,73.1121 C211.222,72.7579 211.019,72.3152 211.019,71.784 C211.019,70.8881 211.487,70.0496 212.425,69.2684 C213.342,68.4871 214.336,68.0965 215.409,68.0965"/>
<path class="Note" d="M198.087,65.5965 C198.712,65.5965 199.244,65.7579 199.681,66.0809 C200.077,66.435 200.275,66.8777 200.275,67.409 C200.275,68.3048 199.817,69.1434 198.9,69.9246 C197.962,70.7059 196.957,71.0965 195.884,71.0965 C195.259,71.0965 194.733,70.935 194.306,70.6121 C193.9,70.2579 193.697,69.8152 193.697,69.284 C193.697,68.3881 194.166,67.5496 195.103,66.7684 C196.02,65.9871 197.015,65.5965 198.087,65.5965"/>
<path class="Note" d="M180.766,70.5965 C181.391,70.5965 181.922,70.7579 182.359,71.0809 C182.755,71.435 182.953,71.8777 182.953,72.409 C182.953,73.3048 182.495,74.1434 181.578,74.9246 C180.641,75.7059 179.635,76.0965 178.562,76.0965 C177.937,76.0965 177.411,75.935 176.984,75.6121 C176.578,75.2579 176.375,74.8152 176.375,74.284 C176.375,73.3881 176.844,72.5496 177.781,71.7684 C178.698,70.9871 179.693,70.5965 180.766,70.5965"/>
<path class="Note" d="M163.444,73.0965 C164.069,73.0965 164.6,73.2579 165.037,73.5809 C165.433,73.935 165.631,74.3777 165.631,74.909 C165.631,75.8048 165.173,76.6434 164.256,77.4246 C163.319,78.2059 162.313,78.5965 161.241,78.5965 C160.616,78.5965 160.089,78.435 159.662,78.1121 C159.256,77.7579 159.053,77.3152 159.053,76.784 C159.053,75.8881 159.522,75.0496 160.459,74.2684 C161.376,73.4871 162.371,73.0965 163.444,73.0965"/>
<path class="Note" d="M146.122,105.597 C146.747,105.597 147.278,105.758 147.716,106.081 C148.111,106.435 148.309,106.878 148.309,107.409 C148.309,108.305 147.851,109.143 146.934,109.925 C145.997,110.706 144.992,111.097 143.919,111.097 C143.294,111.097 142.768,110.935 142.341,110.612 C141.934,110.258 141.731,109.815 141.731,109.284 C141.731,108.388 142.2,107.55 143.137,106.768 C144.054,105.987 145.049,105.597 146.122,105.597"/>
<path class="Note" d="M146.122,120.597 C146.747,120.597 147.278,120.758 147.716,121.081 C148.111,121.435 148.309,121.878 148.309,122.409 C148.309,123.305 147.851,124.143 146.934,124.925 C145.997,125.706 144.992,126.097 143.919,126.097 C143.294,126.097 142.768,125.935 142.341,125.612 C141.934,125.258 141.731,124.815 141.731,124.284 C141.731,123.388 142.2,122.55 143.137,121.768 C144.054,120.987 145.049,120.597 146.122,120.597"/>
<path class="Note" transform="matrix(0.7,0,0,0.7,132.51,70.8465)" d="M4.39063,-2.75 C5.01563,-2.75 5.54688,-2.58854 5.98438,-2.26563 C6.38021,-1.91146 6.57813,-1.46875 6.57813,-0.9375 C6.57813,-0.0416667 6.11979,0.796875 5.20313,1.57813 C4.26563,2.35938 3.26042,2.75 2.1875,2.75 C1.5625,2.75 1.03646,2.58854 0.609375,2.26563 C0.203125,1.91146 0,1.46875 0,0.9375 C0,0.0416667 0.46875,-0.796875 1.40625,-1.57813 C2.32292,-2.35938 3.31771,-2.75 4.39063,-2.75"/>
<path class="Note" d="M146.122,70.5965 C146.747,70.5965 147.278,70.7579 147.716,71.0809 C148.111,71.435 148.309,71.8777 148.309,72.409 C148.309,73.3048 147.851,74.1434 146.934,74.9246 C145.997,75.7059 144.992,76.0965 143.919,76.0965 C143.294,76.0965 142.768,75.935 142.341,75.6121 C141.934,75.2579 141.731,74.8152 141.731,74.284 C141.731,73.3881 142.2,72.5496 143.137,71.7684 C144.054,70.9871 145.049,70.5965 146.122,70.5965"/>
<path class="Clef" d="M54.2761,119.065 C54.0834,118.867 53.9871,118.625 53.9871,118.339 C53.9871,118.052 54.0834,117.813 54.2761,117.62 C54.4689,117.427 54.7084,117.331 54.9949,117.331 C55.2814,117.331 55.5235,117.427 55.7215,117.62 C55.9194,117.813 56.0183,118.052 56.0183,118.339 C56.0183,118.625 55.9194,118.867 55.7215,119.065 C55.5235,119.263 55.2814,119.362 54.9949,119.362 C54.7084,119.362 54.4689,119.263 54.2761,119.065 M54.2761,124.073 C54.0834,123.88 53.9871,123.641 53.9871,123.354 C53.9871,123.068 54.0834,122.826 54.2761,122.628 C54.4689,122.43 54.7084,122.331 54.9949,122.331 C55.2814,122.331 55.5235,122.43 55.7215,122.628 C55.9194,122.826 56.0183,123.068 56.0183,123.354 C56.0183,123.641 55.9194,123.88 55.7215,124.073 C55.5235,124.266 55.2814,124.362 54.9949,124.362 C54.7084,124.362 54.4689,124.266 54.2761,124.073 M47.5027,115.597 C49.2319,115.597 50.6485,116.029 51.7527,116.893 C52.8256,117.81 53.3621,119.05 53.3621,120.612 C53.3621,121.664 53.1538,122.628 52.7371,123.503 C52.3413,124.419 51.8256,125.227 51.1902,125.925 C50.534,126.643 49.7475,127.32 48.8308,127.956 C47.9246,128.581 46.9975,129.143 46.0496,129.643 C44.1225,130.612 43.0548,131.097 42.8465,131.097 C42.6798,131.097 42.5965,131.013 42.5965,130.847 C42.5965,130.784 42.6225,130.727 42.6746,130.675 C43.3413,130.279 44.1538,129.779 45.1121,129.175 C45.7371,128.768 46.4663,128.206 47.2996,127.487 C48.1121,126.81 48.7371,126.175 49.1746,125.581 C49.6329,124.987 50.0496,124.258 50.4246,123.393 C50.7475,122.518 50.909,121.654 50.909,120.8 C50.909,119.539 50.5965,118.44 49.9715,117.503 C49.3465,116.565 48.5235,116.097 47.5027,116.097 C46.7735,116.097 46.1485,116.331 45.6277,116.8 C45.0652,117.279 44.659,117.883 44.409,118.612 C44.659,118.508 44.8881,118.456 45.0965,118.456 C45.6381,118.456 46.1069,118.654 46.5027,119.05 C46.8881,119.466 47.0808,119.94 47.0808,120.472 C47.0808,121.034 46.8933,121.539 46.5183,121.987 C46.1121,122.383 45.6381,122.581 45.0965,122.581 C44.5131,122.581 43.9871,122.383 43.5183,121.987 C43.0704,121.539 42.8465,121.034 42.8465,120.472 C42.8465,119.128 43.3048,117.982 44.2215,117.034 C45.1173,116.076 46.211,115.597 47.5027,115.597"/>
<path class="Clef" d="M50.1902,73.2215 C50.1902,73.2215 50.2319,73.2215 50.3152,73.2215 C50.3673,73.2111 50.409,73.2059 50.4402,73.2059 C51.8985,73.2059 53.0965,73.7215 54.034,74.7527 C54.9715,75.7631 55.4402,76.9454 55.4402,78.2996 C55.4402,79.9871 54.7475,81.3569 53.3621,82.409 C52.9975,82.7006 52.5183,82.935 51.9246,83.1121 C51.9975,83.9559 52.034,84.6381 52.034,85.159 C52.034,85.2631 52.0183,85.6434 51.9871,86.2996 C51.935,87.5079 51.5183,88.5548 50.7371,89.4402 C49.9871,90.3152 49.0496,90.7527 47.9246,90.7527 C46.8725,90.7527 45.9767,90.3829 45.2371,89.6434 C44.4871,88.8829 44.1121,87.9715 44.1121,86.909 C44.1121,86.3465 44.3308,85.8673 44.7683,85.4715 C45.2058,85.0861 45.7163,84.8934 46.2996,84.8934 C46.8204,84.8934 47.2579,85.0965 47.6121,85.5027 C47.9767,85.8777 48.159,86.3465 48.159,86.909 C48.159,87.409 47.9767,87.8413 47.6121,88.2059 C47.2475,88.5704 46.81,88.7527 46.2996,88.7527 C46.0913,88.7527 45.8933,88.7163 45.7058,88.6434 C46.2788,89.4871 47.0392,89.909 47.9871,89.909 C48.8829,89.909 49.6173,89.5444 50.1902,88.8152 C50.7944,88.0652 51.1225,87.185 51.1746,86.1746 C51.1954,85.5496 51.2058,85.1954 51.2058,85.1121 C51.2058,84.3829 51.1798,83.784 51.1277,83.3152 C50.4819,83.4194 49.9038,83.4715 49.3933,83.4715 C47.5808,83.4715 46.0392,82.7527 44.7683,81.3152 C43.5183,79.8673 42.8933,78.1486 42.8933,76.159 C42.8933,75.7423 42.9298,75.3204 43.0027,74.8934 C43.086,74.5392 43.185,74.1538 43.2996,73.7371 C43.3621,73.4975 43.5392,73.1173 43.8308,72.5965 C43.935,72.4402 44.0522,72.2449 44.1824,72.0105 C44.3126,71.7762 44.4038,71.6225 44.4558,71.5496 C44.5808,71.2892 44.8308,70.935 45.2058,70.4871 C45.31,70.3725 45.4194,70.2449 45.534,70.1043 C45.6485,69.9637 45.7449,69.8465 45.823,69.7527 C45.9011,69.659 45.9584,69.5861 45.9949,69.534 C46.0314,69.4819 46.3256,69.1381 46.8777,68.5027 C47.0027,68.3673 47.1277,68.2267 47.2527,68.0809 C47.3777,67.935 47.4793,67.8178 47.5574,67.7293 C47.6355,67.6408 47.6954,67.5809 47.7371,67.5496 C47.2683,65.9975 46.9715,64.7579 46.8465,63.8309 C46.7631,63.0913 46.7215,62.0756 46.7215,60.784 C46.7215,59.6486 46.9819,58.5861 47.5027,57.5965 C48.0027,56.5756 48.711,55.7371 49.6277,55.0809 C49.6902,55.0392 49.7527,55.0184 49.8152,55.0184 C49.909,55.0184 49.9767,55.0392 50.0183,55.0809 C50.7163,55.9246 51.3204,57.0236 51.8308,58.3777 C52.3517,59.7319 52.6121,60.9663 52.6121,62.0809 C52.6121,63.3309 52.3152,64.5027 51.7215,65.5965 C51.0444,66.7527 50.1694,67.9506 49.0965,69.1902 C49.3673,70.0444 49.7319,71.3881 50.1902,73.2215 M51.8465,82.3152 C52.5235,82.0652 53.0548,81.6434 53.4402,81.0496 C53.8569,80.4767 54.0652,79.8309 54.0652,79.1121 C54.0652,78.185 53.7527,77.3621 53.1277,76.6434 C52.4819,75.9038 51.6642,75.4871 50.6746,75.3934 C51.2371,78.1434 51.6277,80.4506 51.8465,82.3152 M44.2996,77.7996 C44.2996,79.0913 44.8204,80.2267 45.8621,81.2059 C46.9246,82.1538 48.1225,82.6277 49.4558,82.6277 C49.9975,82.6277 50.5288,82.5861 51.0496,82.5027 C50.8413,80.5236 50.4298,78.1538 49.8152,75.3934 C49.0756,75.4767 48.4871,75.7371 48.0496,76.1746 C47.6121,76.6329 47.3933,77.1486 47.3933,77.7215 C47.3933,78.7111 47.9246,79.5131 48.9871,80.1277 C49.0704,80.2215 49.1121,80.3204 49.1121,80.4246 C49.1121,80.5288 49.0704,80.6225 48.9871,80.7059 C48.9038,80.7996 48.8048,80.8465 48.6902,80.8465 C48.6798,80.8465 48.6225,80.8361 48.5183,80.8152 C47.7683,80.409 47.1954,79.8881 46.7996,79.2527 C46.4142,78.5652 46.2215,77.8777 46.2215,77.1902 C46.2215,76.2944 46.5027,75.4819 47.0652,74.7527 C47.6485,74.0236 48.409,73.5548 49.3465,73.3465 C48.9819,71.8881 48.685,70.7475 48.4558,69.9246 C48.2475,70.1642 47.9975,70.448 47.7058,70.7762 C47.4142,71.1043 47.2423,71.3048 47.1902,71.3777 C46.7215,71.9819 46.3621,72.4559 46.1121,72.7996 C45.6642,73.4142 45.336,73.9402 45.1277,74.3777 C44.909,74.8777 44.7163,75.4194 44.5496,76.0027 C44.3829,76.5652 44.2996,77.1642 44.2996,77.7996 M50.8152,57.9402 C49.836,58.4194 49.0704,59.1069 48.5183,60.0027 C47.9454,60.9298 47.659,61.9246 47.659,62.9871 C47.659,63.9246 47.8933,65.1902 48.3621,66.784 C49.2996,65.6486 50.0027,64.6017 50.4715,63.6434 C50.961,62.6225 51.2058,61.56 51.2058,60.4559 C51.2058,59.6225 51.0756,58.784 50.8152,57.9402"/>
<path class="KeySig" d="M74.2621,125.018 L74.2621,126.565 C74.2621,127.117 74.2881,127.555 74.3402,127.878 C74.7673,127.513 75.0746,127.242 75.2621,127.065 C75.4704,126.857 75.6788,126.568 75.8871,126.198 C76.0954,125.828 76.1996,125.461 76.1996,125.097 C76.1996,124.732 76.1215,124.419 75.9652,124.159 C75.809,123.899 75.6006,123.768 75.3402,123.768 C75.0277,123.768 74.7673,123.888 74.559,124.128 C74.3611,124.388 74.2621,124.685 74.2621,125.018 M73.434,128.597 L73.184,116.706 C73.3715,116.602 73.5564,116.55 73.7387,116.55 C73.921,116.55 74.1006,116.602 74.2777,116.706 L74.1215,123.597 C74.6527,123.138 75.2673,122.909 75.9652,122.909 C76.4652,122.909 76.8845,123.117 77.223,123.534 C77.5616,123.951 77.7309,124.43 77.7309,124.972 C77.7309,125.305 77.6215,125.664 77.4027,126.05 C77.1944,126.393 76.9756,126.664 76.7465,126.862 C76.6111,126.966 76.2777,127.227 75.7465,127.643 C75.5902,127.758 75.4053,127.893 75.1918,128.05 C74.9782,128.206 74.8454,128.305 74.7934,128.347 C74.6996,128.399 74.6111,128.503 74.5277,128.659 C74.4444,128.794 74.3402,128.904 74.2152,128.987 C74.1319,129.07 74.0251,129.112 73.8949,129.112 C73.7647,129.112 73.6579,129.065 73.5746,128.972 C73.4809,128.878 73.434,128.753 73.434,128.597"/>
<path class="KeySig" d="M69.2621,132.518 L69.2621,134.065 C69.2621,134.617 69.2881,135.055 69.3402,135.378 C69.7673,135.013 70.0746,134.742 70.2621,134.565 C70.4704,134.357 70.6788,134.068 70.8871,133.698 C71.0954,133.328 71.1996,132.961 71.1996,132.597 C71.1996,132.232 71.1215,131.919 70.9652,131.659 C70.809,131.399 70.6006,131.268 70.3402,131.268 C70.0277,131.268 69.7673,131.388 69.559,131.628 C69.3611,131.888 69.2621,132.185 69.2621,132.518 M68.434,136.097 L68.184,124.206 C68.3715,124.102 68.5564,124.05 68.7387,124.05 C68.921,124.05 69.1006,124.102 69.2777,124.206 L69.1215,131.097 C69.6527,130.638 70.2673,130.409 70.9652,130.409 C71.4652,130.409 71.8845,130.617 72.223,131.034 C72.5616,131.451 72.7309,131.93 72.7309,132.472 C72.7309,132.805 72.6215,133.164 72.4027,133.55 C72.1944,133.893 71.9756,134.164 71.7465,134.362 C71.6111,134.466 71.2777,134.727 70.7465,135.143 C70.5902,135.258 70.4053,135.393 70.1918,135.55 C69.9782,135.706 69.8454,135.805 69.7934,135.847 C69.6996,135.899 69.6111,136.003 69.5277,136.159 C69.4444,136.294 69.3402,136.404 69.2152,136.487 C69.1319,136.57 69.0251,136.612 68.8949,136.612 C68.7647,136.612 68.6579,136.565 68.5746,136.472 C68.4809,136.378 68.434,136.253 68.434,136.097"/>
<path class="KeySig" d="M64.2621,122.518 L64.2621,124.065 C64.2621,124.617 64.2881,125.055 64.3402,125.378 C64.7673,125.013 65.0746,124.742 65.2621,124.565 C65.4704,124.357 65.6788,124.068 65.8871,123.698 C66.0954,123.328 66.1996,122.961 66.1996,122.597 C66.1996,122.232 66.1215,121.919 65.9652,121.659 C65.809,121.399 65.6006,121.268 65.3402,121.268 C65.0277,121.268 64.7673,121.388 64.559,121.628 C64.3611,121.888 64.2621,122.185 64.2621,122.518 M63.434,126.097 L63.184,114.206 C63.3715,114.102 63.5564,114.05 63.7387,114.05 C63.921,114.05 64.1006,114.102 64.2777,114.206 L64.1215,121.097 C64.6527,120.638 65.2673,120.409 65.9652,120.409 C66.4652,120.409 66.8845,120.617 67.223,121.034 C67.5616,121.451 67.7308,121.93 67.7308,122.472 C67.7308,122.805 67.6215,123.164 67.4027,123.55 C67.1944,123.893 66.9756,124.164 66.7465,124.362 C66.6111,124.466 66.2777,124.727 65.7465,125.143 C65.5902,125.258 65.4053,125.393 65.1918,125.55 C64.9782,125.706 64.8454,125.805 64.7933,125.847 C64.6996,125.899 64.6111,126.003 64.5277,126.159 C64.4444,126.294 64.3402,126.404 64.2152,126.487 C64.1319,126.57 64.0251,126.612 63.8949,126.612 C63.7647,126.612 63.6579,126.565 63.5746,126.472 C63.4808,126.378 63.434,126.253 63.434,126.097"/>
<path class="KeySig" d="M59.2621,130.018 L59.2621,131.565 C59.2621,132.117 59.2881,132.555 59.3402,132.878 C59.7673,132.513 60.0746,132.242 60.2621,132.065 C60.4704,131.857 60.6788,131.568 60.8871,131.198 C61.0954,130.828 61.1996,130.461 61.1996,130.097 C61.1996,129.732 61.1215,129.419 60.9652,129.159 C60.809,128.899 60.6006,128.768 60.3402,128.768 C60.0277,128.768 59.7673,128.888 59.559,129.128 C59.3611,129.388 59.2621,129.685 59.2621,130.018 M58.434,133.597 L58.184,121.706 C58.3715,121.602 58.5564,121.55 58.7387,121.55 C58.9209,121.55 59.1006,121.602 59.2777,121.706 L59.1215,128.597 C59.6527,128.138 60.2673,127.909 60.9652,127.909 C61.4652,127.909 61.8845,128.117 62.223,128.534 C62.5616,128.951 62.7308,129.43 62.7308,129.972 C62.7308,130.305 62.6215,130.664 62.4027,131.05 C62.1944,131.393 61.9756,131.664 61.7465,131.862 C61.6111,131.966 61.2777,132.227 60.7465,132.643 C60.5902,132.758 60.4053,132.893 60.1918,133.05 C59.9782,133.206 59.8454,133.305 59.7933,133.347 C59.6996,133.399 59.6111,133.503 59.5277,133.659 C59.4444,133.794 59.3402,133.904 59.2152,133.987 C59.1319,134.07 59.0251,134.112 58.8949,134.112 C58.7647,134.112 58.6579,134.065 58.5746,133.972 C58.4808,133.878 58.434,133.753 58.434,133.597"/>
<path class="KeySig" d="M74.2621,67.5184 L74.2621,69.0652 C74.2621,69.6173 74.2881,70.0548 74.3402,70.3777 C74.7673,70.0131 75.0746,69.7423 75.2621,69.5652 C75.4704,69.3569 75.6788,69.0678 75.8871,68.698 C76.0954,68.3282 76.1996,67.9611 76.1996,67.5965 C76.1996,67.2319 76.1215,66.9194 75.9652,66.659 C75.809,66.3986 75.6006,66.2684 75.3402,66.2684 C75.0277,66.2684 74.7673,66.3881 74.559,66.6277 C74.3611,66.8881 74.2621,67.185 74.2621,67.5184 M73.434,71.0965 L73.184,59.2059 C73.3715,59.1017 73.5564,59.0496 73.7387,59.0496 C73.921,59.0496 74.1006,59.1017 74.2777,59.2059 L74.1215,66.0965 C74.6527,65.6381 75.2673,65.409 75.9652,65.409 C76.4652,65.409 76.8845,65.6173 77.223,66.034 C77.5616,66.4506 77.7309,66.9298 77.7309,67.4715 C77.7309,67.8048 77.6215,68.1642 77.4027,68.5496 C77.1944,68.8934 76.9756,69.1642 76.7465,69.3621 C76.6111,69.4663 76.2777,69.7267 75.7465,70.1434 C75.5902,70.2579 75.4053,70.3934 75.1918,70.5496 C74.9782,70.7059 74.8454,70.8048 74.7934,70.8465 C74.6996,70.8986 74.6111,71.0027 74.5277,71.159 C74.4444,71.2944 74.3402,71.4038 74.2152,71.4871 C74.1319,71.5704 74.0251,71.6121 73.8949,71.6121 C73.7647,71.6121 73.6579,71.5652 73.5746,71.4715 C73.4809,71.3777 73.434,71.2527 73.434,71.0965"/>
<path class="KeySig" d="M69.2621,75.0184 L69.2621,76.5652 C69.2621,77.1173 69.2881,77.5548 69.3402,77.8777 C69.7673,77.5131 70.0746,77.2423 70.2621,77.0652 C70.4704,76.8569 70.6788,76.5678 70.8871,76.198 C71.0954,75.8283 71.1996,75.4611 71.1996,75.0965 C71.1996,74.7319 71.1215,74.4194 70.9652,74.159 C70.809,73.8986 70.6006,73.7684 70.3402,73.7684 C70.0277,73.7684 69.7673,73.8881 69.559,74.1277 C69.3611,74.3881 69.2621,74.685 69.2621,75.0184 M68.434,78.5965 L68.184,66.7059 C68.3715,66.6017 68.5564,66.5496 68.7387,66.5496 C68.921,66.5496 69.1006,66.6017 69.2777,66.7059 L69.1215,73.5965 C69.6527,73.1381 70.2673,72.909 70.9652,72.909 C71.4652,72.909 71.8845,73.1173 72.223,73.534 C72.5616,73.9506 72.7309,74.4298 72.7309,74.9715 C72.7309,75.3048 72.6215,75.6642 72.4027,76.0496 C72.1944,76.3934 71.9756,76.6642 71.7465,76.8621 C71.6111,76.9663 71.2777,77.2267 70.7465,77.6434 C70.5902,77.7579 70.4053,77.8934 70.1918,78.0496 C69.9782,78.2059 69.8454,78.3048 69.7934,78.3465 C69.6996,78.3986 69.6111,78.5027 69.5277,78.659 C69.4444,78.7944 69.3402,78.9038 69.2152,78.9871 C69.1319,79.0704 69.0251,79.1121 68.8949,79.1121 C68.7647,79.1121 68.6579,79.0652 68.5746,78.9715 C68.4809,78.8777 68.434,78.7527 68.434,78.5965"/>
<path class="KeySig" d="M64.2621,65.0183 L64.2621,66.5652 C64.2621,67.1173 64.2881,67.5548 64.3402,67.8777 C64.7673,67.5131 65.0746,67.2423 65.2621,67.0652 C65.4704,66.8569 65.6788,66.5678 65.8871,66.198 C66.0954,65.8282 66.1996,65.4611 66.1996,65.0965 C66.1996,64.7319 66.1215,64.4194 65.9652,64.159 C65.809,63.8986 65.6006,63.7683 65.3402,63.7683 C65.0277,63.7683 64.7673,63.8881 64.559,64.1277 C64.3611,64.3881 64.2621,64.685 64.2621,65.0183 M63.434,68.5965 L63.184,56.7058 C63.3715,56.6017 63.5564,56.5496 63.7387,56.5496 C63.921,56.5496 64.1006,56.6017 64.2777,56.7058 L64.1215,63.5965 C64.6527,63.1381 65.2673,62.909 65.9652,62.909 C66.4652,62.909 66.8845,63.1173 67.223,63.534 C67.5616,63.9506 67.7308,64.4298 67.7308,64.9715 C67.7308,65.3048 67.6215,65.6642 67.4027,66.0496 C67.1944,66.3933 66.9756,66.6642 66.7465,66.8621 C66.6111,66.9663 66.2777,67.2267 65.7465,67.6433 C65.5902,67.7579 65.4053,67.8933 65.1918,68.0496 C64.9782,68.2058 64.8454,68.3048 64.7933,68.3465 C64.6996,68.3986 64.6111,68.5027 64.5277,68.659 C64.4444,68.7944 64.3402,68.9038 64.2152,68.9871 C64.1319,69.0704 64.0251,69.1121 63.8949,69.1121 C63.7647,69.1121 63.6579,69.0652 63.5746,68.9715 C63.4808,68.8777 63.434,68.7527 63.434,68.5965"/>
<path class="KeySig" d="M59.2621,72.5184 L59.2621,74.0652 C59.2621,74.6173 59.2881,75.0548 59.3402,75.3777 C59.7673,75.0131 60.0746,74.7423 60.2621,74.5652 C60.4704,74.3569 60.6788,74.0678 60.8871,73.698 C61.0954,73.3282 61.1996,72.9611 61.1996,72.5965 C61.1996,72.2319 61.1215,71.9194 60.9652,71.659 C60.809,71.3986 60.6006,71.2684 60.3402,71.2684 C60.0277,71.2684 59.7673,71.3881 59.559,71.6277 C59.3611,71.8881 59.2621,72.185 59.2621,72.5184 M58.434,76.0965 L58.184,64.2059 C58.3715,64.1017 58.5564,64.0496 58.7387,64.0496 C58.9209,64.0496 59.1006,64.1017 59.2777,64.2059 L59.1215,71.0965 C59.6527,70.6381 60.2673,70.409 60.9652,70.409 C61.4652,70.409 61.8845,70.6173 62.223,71.034 C62.5616,71.4506 62.7308,71.9298 62.7308,72.4715 C62.7308,72.8048 62.6215,73.1642 62.4027,73.5496 C62.1944,73.8934 61.9756,74.1642 61.7465,74.3621 C61.6111,74.4663 61.2777,74.7267 60.7465,75.1434 C60.5902,75.2579 60.4053,75.3934 60.1918,75.5496 C59.9782,75.7059 59.8454,75.8048 59.7933,75.8465 C59.6996,75.8986 59.6111,76.0027 59.5277,76.159 C59.4444,76.2944 59.3402,76.4038 59.2152,76.4871 C59.1319,76.5704 59.0251,76.6121 58.8949,76.6121 C58.7647,76.6121 58.6579,76.5652 58.5746,76.4715 C58.4808,76.3777 58.434,76.2527 58.434,76.0965"/>
<path class="TimeSig" d="M85.2465,125.847 C84.8506,125.847 84.4965,125.776 84.184,125.636 C83.8715,125.495 83.6527,125.347 83.5277,125.19 C83.3506,124.992 83.1788,124.841 83.0121,124.737 C82.8038,124.591 82.5902,124.518 82.3715,124.518 C82.0277,124.518 81.7465,124.623 81.5277,124.831 C81.2986,125.029 81.1684,125.294 81.1371,125.628 C81.1163,125.774 81.0381,125.847 80.9027,125.847 C80.7465,125.847 80.6684,125.774 80.6684,125.628 C80.6684,125.128 80.7881,124.675 81.0277,124.268 C81.2569,123.852 81.5434,123.508 81.8871,123.237 C82.1684,122.987 82.5434,122.685 83.0121,122.331 C83.0954,122.268 83.2621,122.133 83.5121,121.925 C83.7621,121.716 83.9756,121.539 84.1527,121.393 C84.4861,121.112 84.7777,120.732 85.0277,120.253 C85.2569,119.784 85.3715,119.279 85.3715,118.737 C85.3715,118.07 85.2621,117.498 85.0434,117.018 C84.8142,116.55 84.4548,116.315 83.9652,116.315 C83.6736,116.315 83.434,116.378 83.2465,116.503 C83.0486,116.638 82.9496,116.815 82.9496,117.034 C82.9496,117.222 83.0668,117.451 83.3012,117.722 C83.5355,117.992 83.6527,118.222 83.6527,118.409 C83.6527,118.794 83.5173,119.123 83.2465,119.393 C82.9861,119.654 82.6684,119.784 82.2934,119.784 C81.8975,119.784 81.5642,119.649 81.2934,119.378 C81.0329,119.097 80.9027,118.774 80.9027,118.409 C80.9027,117.659 81.2022,117.044 81.8012,116.565 C82.4001,116.086 83.1215,115.847 83.9652,115.847 C84.9756,115.847 85.8506,116.117 86.5902,116.659 C87.3298,117.18 87.6996,117.873 87.6996,118.737 C87.6996,119.32 87.5954,119.82 87.3871,120.237 C87.1892,120.685 86.8975,121.034 86.5121,121.284 C86.0642,121.565 85.6788,121.784 85.3559,121.94 C84.8975,122.149 84.4444,122.347 83.9965,122.534 C83.4444,122.753 83.0173,122.961 82.7152,123.159 C82.8923,123.117 83.0694,123.097 83.2465,123.097 C83.8506,123.097 84.4756,123.289 85.1215,123.675 C85.7881,124.07 86.3038,124.268 86.6684,124.268 C86.8871,124.268 87.0642,124.227 87.1996,124.143 C87.3246,124.07 87.4079,123.987 87.4496,123.893 C87.5017,123.768 87.5486,123.68 87.5902,123.628 C87.6423,123.544 87.7048,123.503 87.7777,123.503 C87.934,123.503 88.0121,123.581 88.0121,123.737 C88.0121,124.102 87.7517,124.544 87.2309,125.065 C86.7204,125.586 86.059,125.847 85.2465,125.847"/>
<path class="TimeSig" d="M84.8246,126.097 C85.21,126.097 85.5408,126.052 85.8168,125.964 C86.0928,125.875 86.2673,125.831 86.3402,125.831 C86.434,125.831 86.5069,125.857 86.559,125.909 C86.6006,125.94 86.6267,125.982 86.6371,126.034 C86.6371,126.065 86.6215,126.107 86.5902,126.159 L80.9184,132.768 L84.2465,132.768 L84.2465,130.143 C84.2465,129.977 84.2934,129.831 84.3871,129.706 C84.5434,129.581 84.6736,129.503 84.7777,129.472 C84.9444,129.399 85.1527,129.216 85.4027,128.925 C85.6111,128.695 85.8611,128.289 86.1527,127.706 C86.184,127.623 86.2413,127.581 86.3246,127.581 C86.4809,127.581 86.5694,127.675 86.5902,127.862 L86.5902,132.768 L88.0277,132.768 C88.2048,132.768 88.309,132.862 88.3402,133.05 C88.3402,133.248 88.2361,133.347 88.0277,133.347 L86.5902,133.347 L86.5902,133.503 C86.5902,134.024 86.7204,134.466 86.9809,134.831 C87.2829,135.195 87.6371,135.378 88.0434,135.378 C88.1996,135.378 88.2777,135.456 88.2777,135.612 C88.2777,135.768 88.1996,135.847 88.0434,135.847 C87.7725,135.847 87.3298,135.81 86.7152,135.737 C86.1527,135.643 85.7152,135.597 85.4027,135.597 C85.0798,135.597 84.6423,135.643 84.0902,135.737 C83.5069,135.81 83.0746,135.847 82.7934,135.847 C82.6371,135.847 82.559,135.768 82.559,135.612 C82.559,135.456 82.6371,135.378 82.7934,135.378 C83.1892,135.378 83.5381,135.195 83.8402,134.831 C84.1111,134.466 84.2465,134.024 84.2465,133.503 L84.2465,133.347 L80.9184,133.347 C80.6892,133.347 80.5329,133.294 80.4496,133.19 C80.335,133.117 80.2777,133.013 80.2777,132.878 C80.2777,132.836 80.3767,132.701 80.5746,132.472 C80.8038,132.211 81.0381,131.893 81.2777,131.518 C81.5694,131.07 81.8454,130.612 82.1059,130.143 C82.3871,129.612 82.6163,128.998 82.7934,128.3 C82.9809,127.602 83.0746,126.888 83.0746,126.159 C83.0746,125.951 83.1684,125.847 83.3559,125.847 C83.3975,125.847 83.4809,125.867 83.6059,125.909 C83.6475,125.919 83.7309,125.938 83.8559,125.964 C83.9809,125.99 84.0798,126.013 84.1527,126.034 C84.3923,126.076 84.6163,126.097 84.8246,126.097"/>
<path class="TimeSig" d="M85.2465,73.3465 C84.8506,73.3465 84.4965,73.2762 84.184,73.1355 C83.8715,72.9949 83.6527,72.8465 83.5277,72.6902 C83.3506,72.4923 83.1788,72.3413 83.0121,72.2371 C82.8038,72.0913 82.5902,72.0184 82.3715,72.0184 C82.0277,72.0184 81.7465,72.1225 81.5277,72.3309 C81.2986,72.5288 81.1684,72.7944 81.1371,73.1277 C81.1163,73.2736 81.0381,73.3465 80.9027,73.3465 C80.7465,73.3465 80.6684,73.2736 80.6684,73.1277 C80.6684,72.6277 80.7881,72.1746 81.0277,71.7684 C81.2569,71.3517 81.5434,71.0079 81.8871,70.7371 C82.1684,70.4871 82.5434,70.185 83.0121,69.8309 C83.0954,69.7684 83.2621,69.6329 83.5121,69.4246 C83.7621,69.2163 83.9756,69.0392 84.1527,68.8934 C84.4861,68.6121 84.7777,68.2319 85.0277,67.7527 C85.2569,67.284 85.3715,66.7788 85.3715,66.2371 C85.3715,65.5704 85.2621,64.9975 85.0434,64.5184 C84.8142,64.0496 84.4548,63.8152 83.9652,63.8152 C83.6736,63.8152 83.434,63.8777 83.2465,64.0027 C83.0486,64.1381 82.9496,64.3152 82.9496,64.534 C82.9496,64.7215 83.0668,64.9506 83.3012,65.2215 C83.5355,65.4923 83.6527,65.7215 83.6527,65.909 C83.6527,66.2944 83.5173,66.6225 83.2465,66.8934 C82.9861,67.1538 82.6684,67.284 82.2934,67.284 C81.8975,67.284 81.5642,67.1486 81.2934,66.8777 C81.0329,66.5965 80.9027,66.2736 80.9027,65.909 C80.9027,65.159 81.2022,64.5444 81.8012,64.0652 C82.4001,63.5861 83.1215,63.3465 83.9652,63.3465 C84.9756,63.3465 85.8506,63.6173 86.5902,64.159 C87.3298,64.6798 87.6996,65.3725 87.6996,66.2371 C87.6996,66.8204 87.5954,67.3204 87.3871,67.7371 C87.1892,68.185 86.8975,68.534 86.5121,68.784 C86.0642,69.0652 85.6788,69.284 85.3559,69.4402 C84.8975,69.6486 84.4444,69.8465 83.9965,70.034 C83.4444,70.2527 83.0173,70.4611 82.7152,70.659 C82.8923,70.6173 83.0694,70.5965 83.2465,70.5965 C83.8506,70.5965 84.4756,70.7892 85.1215,71.1746 C85.7881,71.5704 86.3038,71.7684 86.6684,71.7684 C86.8871,71.7684 87.0642,71.7267 87.1996,71.6434 C87.3246,71.5704 87.4079,71.4871 87.4496,71.3934 C87.5017,71.2684 87.5486,71.1798 87.5902,71.1277 C87.6423,71.0444 87.7048,71.0027 87.7777,71.0027 C87.934,71.0027 88.0121,71.0809 88.0121,71.2371 C88.0121,71.6017 87.7517,72.0444 87.2309,72.5652 C86.7204,73.0861 86.059,73.3465 85.2465,73.3465"/>
<path class="TimeSig" d="M84.8246,73.5965 C85.21,73.5965 85.5408,73.5522 85.8168,73.4637 C86.0928,73.3751 86.2673,73.3309 86.3402,73.3309 C86.434,73.3309 86.5069,73.3569 86.559,73.409 C86.6006,73.4402 86.6267,73.4819 86.6371,73.534 C86.6371,73.5652 86.6215,73.6069 86.5902,73.659 L80.9184,80.2684 L84.2465,80.2684 L84.2465,77.6434 C84.2465,77.4767 84.2934,77.3309 84.3871,77.2059 C84.5434,77.0809 84.6736,77.0027 84.7777,76.9715 C84.9444,76.8986 85.1527,76.7163 85.4027,76.4246 C85.6111,76.1954 85.8611,75.7892 86.1527,75.2059 C86.184,75.1225 86.2413,75.0809 86.3246,75.0809 C86.4809,75.0809 86.5694,75.1746 86.5902,75.3621 L86.5902,80.2684 L88.0277,80.2684 C88.2048,80.2684 88.309,80.3621 88.3402,80.5496 C88.3402,80.7475 88.2361,80.8465 88.0277,80.8465 L86.5902,80.8465 L86.5902,81.0027 C86.5902,81.5236 86.7204,81.9663 86.9809,82.3309 C87.2829,82.6954 87.6371,82.8777 88.0434,82.8777 C88.1996,82.8777 88.2777,82.9559 88.2777,83.1121 C88.2777,83.2684 88.1996,83.3465 88.0434,83.3465 C87.7725,83.3465 87.3298,83.31 86.7152,83.2371 C86.1527,83.1434 85.7152,83.0965 85.4027,83.0965 C85.0798,83.0965 84.6423,83.1434 84.0902,83.2371 C83.5069,83.31 83.0746,83.3465 82.7934,83.3465 C82.6371,83.3465 82.559,83.2684 82.559,83.1121 C82.559,82.9559 82.6371,82.8777 82.7934,82.8777 C83.1892,82.8777 83.5381,82.6954 83.8402,82.3309 C84.1111,81.9663 84.2465,81.5236 84.2465,81.0027 L84.2465,80.8465 L80.9184,80.8465 C80.6892,80.8465 80.5329,80.7944 80.4496,80.6902 C80.335,80.6173 80.2777,80.5131 80.2777,80.3777 C80.2777,80.3361 80.3767,80.2006 80.5746,79.9715 C80.8038,79.7111 81.0381,79.3934 81.2777,79.0184 C81.5694,78.5704 81.8454,78.1121 82.1059,77.6434 C82.3871,77.1121 82.6163,76.4975 82.7934,75.7996 C82.9809,75.1017 83.0746,74.3881 83.0746,73.659 C83.0746,73.4506 83.1684,73.3465 83.3559,73.3465 C83.3975,73.3465 83.4809,73.3673 83.6059,73.409 C83.6475,73.4194 83.7309,73.4376 83.8559,73.4637 C83.9809,73.4897 84.0798,73.5131 84.1527,73.534 C84.3923,73.5756 84.6163,73.5965 84.8246,73.5965"/>
<path class="Rest" d="M515.864,123.972 L508.755,123.972 C508.619,123.972 508.552,123.909 508.552,123.784 L508.552,121.05 C508.552,120.914 508.619,120.847 508.755,120.847 L515.864,120.847 C515.989,120.847 516.052,120.914 516.052,121.05 L516.052,123.784 C516.052,123.909 515.989,123.972 515.864,123.972"/>
<path class="Rest" d="M515.864,71.4715 L508.755,71.4715 C508.619,71.4715 508.552,71.409 508.552,71.284 L508.552,68.5496 C508.552,68.4142 508.619,68.3465 508.755,68.3465 L515.864,68.3465 C515.989,68.3465 516.052,68.4142 516.052,68.5496 L516.052,71.284 C516.052,71.409 515.989,71.4715 515.864,71.4715"/>
<path class="Rest" d="M416.08,123.972 L408.971,123.972 C408.836,123.972 408.768,123.909 408.768,123.784 L408.768,121.05 C408.768,120.914 408.836,120.847 408.971,120.847 L416.08,120.847 C416.205,120.847 416.268,120.914 416.268,121.05 L416.268,123.784 C416.268,123.909 416.205,123.972 416.08,123.972"/>
<path class="Rest" d="M416.08,71.4715 L408.971,71.4715 C408.836,71.4715 408.768,71.409 408.768,71.284 L408.768,68.5496 C408.768,68.4142 408.836,68.3465 408.971,68.3465 L416.08,68.3465 C416.205,68.3465 416.268,68.4142 416.268,68.5496 L416.268,71.284 C416.268,71.409 416.205,71.4715 416.08,71.4715"/>
<path class="Rest" d="M313.317,124.284 C313.317,124.044 313.453,123.784 313.723,123.503 C313.911,123.294 314.197,123.044 314.583,122.753 C314.864,122.565 315.14,122.274 315.411,121.878 C315.671,121.503 315.802,121.091 315.802,120.643 C315.802,120.123 315.635,119.664 315.302,119.268 L314.598,118.425 C314.546,118.373 314.52,118.307 314.52,118.229 C314.52,118.151 314.557,118.081 314.63,118.018 C314.723,117.945 314.802,117.909 314.864,117.909 C314.958,117.909 315.031,117.951 315.083,118.034 L318.114,121.628 C318.239,121.794 318.302,121.961 318.302,122.128 C318.302,122.367 318.171,122.628 317.911,122.909 C317.744,123.097 317.468,123.347 317.083,123.659 C316.781,123.836 316.494,124.128 316.223,124.534 C315.963,124.909 315.833,125.32 315.833,125.768 C315.833,126.32 315.989,126.784 316.302,127.159 L317.973,129.128 C318.015,129.169 318.046,129.237 318.067,129.331 C318.067,129.414 318.036,129.492 317.973,129.565 C317.88,129.628 317.802,129.659 317.739,129.659 C317.718,129.659 317.614,129.586 317.427,129.44 C317.229,129.284 316.968,129.133 316.645,128.987 C316.281,128.852 315.921,128.784 315.567,128.784 C315.244,128.784 314.979,128.873 314.77,129.05 C314.593,129.237 314.505,129.591 314.505,130.112 C314.505,130.904 314.692,131.529 315.067,131.987 C315.109,132.039 315.114,132.102 315.083,132.175 C315.062,132.227 315.015,132.253 314.942,132.253 C314.859,132.253 314.661,132.018 314.348,131.55 C314.015,131.06 313.708,130.492 313.427,129.847 C313.125,129.169 312.973,128.612 312.973,128.175 C312.973,127.612 313.239,127.331 313.77,127.331 C314.385,127.331 315.182,127.539 316.161,127.956 L313.52,124.784 C313.385,124.617 313.317,124.451 313.317,124.284"/>
<path class="Rest" d="M313.317,71.784 C313.317,71.5444 313.453,71.284 313.723,71.0027 C313.911,70.7944 314.197,70.5444 314.583,70.2527 C314.864,70.0652 315.14,69.7736 315.411,69.3777 C315.671,69.0027 315.802,68.5913 315.802,68.1434 C315.802,67.6225 315.635,67.1642 315.302,66.7684 L314.598,65.9246 C314.546,65.8725 314.52,65.8074 314.52,65.7293 C314.52,65.6512 314.557,65.5809 314.63,65.5184 C314.723,65.4454 314.802,65.409 314.864,65.409 C314.958,65.409 315.031,65.4506 315.083,65.534 L318.114,69.1277 C318.239,69.2944 318.302,69.4611 318.302,69.6277 C318.302,69.8673 318.171,70.1277 317.911,70.409 C317.744,70.5965 317.468,70.8465 317.083,71.159 C316.781,71.3361 316.494,71.6277 316.223,72.034 C315.963,72.409 315.833,72.8204 315.833,73.2684 C315.833,73.8204 315.989,74.284 316.302,74.659 L317.973,76.6277 C318.015,76.6694 318.046,76.7371 318.067,76.8309 C318.067,76.9142 318.036,76.9923 317.973,77.0652 C317.88,77.1277 317.802,77.159 317.739,77.159 C317.718,77.159 317.614,77.0861 317.427,76.9402 C317.229,76.784 316.968,76.6329 316.645,76.4871 C316.281,76.3517 315.921,76.284 315.567,76.284 C315.244,76.284 314.979,76.3725 314.77,76.5496 C314.593,76.7371 314.505,77.0913 314.505,77.6121 C314.505,78.4038 314.692,79.0288 315.067,79.4871 C315.109,79.5392 315.114,79.6017 315.083,79.6746 C315.062,79.7267 315.015,79.7527 314.942,79.7527 C314.859,79.7527 314.661,79.5184 314.348,79.0496 C314.015,78.56 313.708,77.9923 313.427,77.3465 C313.125,76.6694 312.973,76.1121 312.973,75.6746 C312.973,75.1121 313.239,74.8309 313.77,74.8309 C314.385,74.8309 315.182,75.0392 316.161,75.4559 L313.52,72.284 C313.385,72.1173 313.317,71.9506 313.317,71.784"/>
<path class="Rest" d="M284.359,121.737 C284.734,121.737 285.02,121.841 285.218,122.05 C285.416,122.289 285.52,122.513 285.53,122.722 C285.562,122.919 285.629,123.138 285.734,123.378 C285.848,123.586 285.994,123.69 286.171,123.69 C286.317,123.69 286.536,123.529 286.827,123.206 C287.088,122.925 287.275,122.669 287.39,122.44 C287.452,122.315 287.541,122.253 287.655,122.253 L287.687,122.253 C287.812,122.263 287.9,122.326 287.952,122.44 L285.499,130.847 C285.364,130.982 285.179,131.05 284.945,131.05 C284.71,131.05 284.53,130.982 284.405,130.847 L286.749,124.315 C285.916,124.617 285.213,124.768 284.64,124.768 C284.171,124.768 283.765,124.617 283.421,124.315 C283.067,124.034 282.89,123.659 282.89,123.19 C282.89,122.784 283.036,122.445 283.327,122.175 C283.609,121.883 283.952,121.737 284.359,121.737"/>
<path class="Rest" d="M284.359,69.2371 C284.734,69.2371 285.02,69.3413 285.218,69.5496 C285.416,69.7892 285.52,70.0131 285.53,70.2215 C285.562,70.4194 285.629,70.6381 285.734,70.8777 C285.848,71.0861 285.994,71.1902 286.171,71.1902 C286.317,71.1902 286.536,71.0288 286.827,70.7059 C287.088,70.4246 287.275,70.1694 287.39,69.9402 C287.452,69.8152 287.541,69.7527 287.655,69.7527 L287.687,69.7527 C287.812,69.7631 287.9,69.8256 287.952,69.9402 L285.499,78.3465 C285.364,78.4819 285.179,78.5496 284.945,78.5496 C284.71,78.5496 284.53,78.4819 284.405,78.3465 L286.749,71.8152 C285.916,72.1173 285.213,72.2684 284.64,72.2684 C284.171,72.2684 283.765,72.1173 283.421,71.8152 C283.067,71.534 282.89,71.159 282.89,70.6902 C282.89,70.284 283.036,69.9454 283.327,69.6746 C283.609,69.3829 283.952,69.2371 284.359,69.2371"/>
<path class="Rest" d="M97.4184,124.284 C97.4184,124.044 97.5538,123.784 97.8246,123.503 C98.0121,123.294 98.2986,123.044 98.684,122.753 C98.9652,122.565 99.2413,122.274 99.5121,121.878 C99.7725,121.503 99.9027,121.091 99.9027,120.643 C99.9027,120.123 99.7361,119.664 99.4027,119.268 L98.6996,118.425 C98.6475,118.373 98.6215,118.307 98.6215,118.229 C98.6215,118.151 98.658,118.081 98.7309,118.018 C98.8246,117.945 98.9027,117.909 98.9652,117.909 C99.059,117.909 99.1319,117.951 99.184,118.034 L102.215,121.628 C102.34,121.794 102.403,121.961 102.403,122.128 C102.403,122.367 102.273,122.628 102.012,122.909 C101.845,123.097 101.569,123.347 101.184,123.659 C100.882,123.836 100.595,124.128 100.325,124.534 C100.064,124.909 99.934,125.32 99.934,125.768 C99.934,126.32 100.09,126.784 100.403,127.159 L102.075,129.128 C102.116,129.169 102.148,129.237 102.168,129.331 C102.168,129.414 102.137,129.492 102.075,129.565 C101.981,129.628 101.903,129.659 101.84,129.659 C101.819,129.659 101.715,129.586 101.528,129.44 C101.33,129.284 101.069,129.133 100.746,128.987 C100.382,128.852 100.023,128.784 99.6684,128.784 C99.3455,128.784 99.0798,128.873 98.8715,129.05 C98.6944,129.237 98.6059,129.591 98.6059,130.112 C98.6059,130.904 98.7934,131.529 99.1684,131.987 C99.21,132.039 99.2152,132.102 99.184,132.175 C99.1632,132.227 99.1163,132.253 99.0434,132.253 C98.96,132.253 98.7621,132.018 98.4496,131.55 C98.1163,131.06 97.809,130.492 97.5277,129.847 C97.2257,129.169 97.0746,128.612 97.0746,128.175 C97.0746,127.612 97.3402,127.331 97.8715,127.331 C98.4861,127.331 99.283,127.539 100.262,127.956 L97.6215,124.784 C97.4861,124.617 97.4184,124.451 97.4184,124.284"/>
<path class="Rest" d="M97.4184,71.784 C97.4184,71.5444 97.5538,71.284 97.8246,71.0027 C98.0121,70.7944 98.2986,70.5444 98.684,70.2527 C98.9652,70.0652 99.2413,69.7736 99.5121,69.3777 C99.7725,69.0027 99.9027,68.5913 99.9027,68.1434 C99.9027,67.6225 99.7361,67.1642 99.4027,66.7684 L98.6996,65.9246 C98.6475,65.8725 98.6215,65.8074 98.6215,65.7293 C98.6215,65.6512 98.658,65.5809 98.7309,65.5184 C98.8246,65.4454 98.9027,65.409 98.9652,65.409 C99.059,65.409 99.1319,65.4506 99.184,65.534 L102.215,69.1277 C102.34,69.2944 102.403,69.4611 102.403,69.6277 C102.403,69.8673 102.273,70.1277 102.012,70.409 C101.845,70.5965 101.569,70.8465 101.184,71.159 C100.882,71.3361 100.595,71.6277 100.325,72.034 C100.064,72.409 99.934,72.8204 99.934,73.2684 C99.934,73.8204 100.09,74.284 100.403,74.659 L102.075,76.6277 C102.116,76.6694 102.148,76.7371 102.168,76.8309 C102.168,76.9142 102.137,76.9923 102.075,77.0652 C101.981,77.1277 101.903,77.159 101.84,77.159 C101.819,77.159 101.715,77.0861 101.528,76.9402 C101.33,76.784 101.069,76.6329 100.746,76.4871 C100.382,76.3517 100.023,76.284 99.6684,76.284 C99.3455,76.284 99.0798,76.3725 98.8715,76.5496 C98.6944,76.7371 98.6059,77.0913 98.6059,77.6121 C98.6059,78.4038 98.7934,79.0288 99.1684,79.4871 C99.21,79.5392 99.2152,79.6017 99.184,79.6746 C99.1632,79.7267 99.1163,79.7527 99.0434,79.7527 C98.96,79.7527 98.7621,79.5184 98.4496,79.0496 C98.1163,78.56 97.809,77.9923 97.5277,77.3465 C97.2257,76.6694 97.0746,76.1121 97.0746,75.6746 C97.0746,75.1121 97.3402,74.8309 97.8715,74.8309 C98.4861,74.8309 99.283,75.0392 100.262,75.4559 L97.6215,72.284 C97.4861,72.1173 97.4184,71.9506 97.4184,71.784"/>
<path class="Dynamic" d="M131.884,102.375 C131.696,102.375 131.561,102.334 131.477,102.25 C131.394,102.146 131.342,102.052 131.321,101.969 C131.29,101.854 131.248,101.766 131.196,101.703 C131.144,101.61 131.055,101.558 130.93,101.547 C130.743,101.547 130.519,101.641 130.259,101.828 C130.04,101.995 129.904,102.177 129.852,102.375 L128.915,106.031 C128.873,106.156 128.795,106.219 128.68,106.219 L127.665,106.219 C127.561,106.219 127.519,106.156 127.54,106.031 L128.587,101.985 C128.607,101.922 128.613,101.844 128.602,101.75 C128.602,101.511 128.514,101.391 128.337,101.391 C128.191,101.391 128.019,101.479 127.821,101.656 C127.675,101.792 127.561,101.969 127.477,102.188 C127.436,102.271 127.378,102.313 127.305,102.313 C127.232,102.313 127.186,102.266 127.165,102.172 C127.165,101.933 127.352,101.62 127.727,101.235 C128.019,100.933 128.389,100.781 128.837,100.781 C129.087,100.781 129.305,100.844 129.493,100.969 C129.68,101.094 129.821,101.245 129.915,101.422 C130.425,100.995 130.977,100.781 131.571,100.781 C131.884,100.781 132.149,100.849 132.368,100.985 C132.576,101.11 132.675,101.287 132.665,101.516 C132.665,101.745 132.587,101.938 132.43,102.094 C132.274,102.281 132.092,102.375 131.884,102.375 M136.305,101.141 L135.352,104.235 C135.019,105.349 134.462,106.427 133.68,107.469 C132.889,108.511 132.081,109.031 131.259,109.031 C130.831,109.031 130.454,108.92 130.126,108.696 C129.798,108.472 129.634,108.183 129.634,107.828 C129.634,107.422 129.717,107.078 129.884,106.797 C130.061,106.526 130.305,106.38 130.618,106.36 C130.847,106.36 131.04,106.443 131.196,106.61 C131.352,106.776 131.43,106.969 131.43,107.188 C131.43,107.386 131.316,107.568 131.087,107.735 C130.847,107.88 130.722,108.047 130.712,108.235 C130.712,108.36 130.852,108.422 131.134,108.422 L131.259,108.422 C131.321,108.422 131.415,108.406 131.54,108.375 C131.613,108.365 131.701,108.323 131.805,108.25 C131.805,108.25 131.868,108.198 131.993,108.094 C132.076,107.979 132.128,107.896 132.149,107.844 C132.191,107.74 132.227,107.656 132.259,107.594 C132.3,107.552 132.337,107.448 132.368,107.281 C132.389,107.24 132.404,107.193 132.415,107.141 C132.425,107.089 132.436,107.052 132.446,107.031 C132.456,107.011 132.462,106.995 132.462,106.985 C132.514,106.776 132.55,106.651 132.571,106.61 C132.613,106.401 132.634,106.297 132.634,106.297 L133.915,101.141 L132.93,101.141 C132.837,101.141 132.769,101.11 132.727,101.047 C132.675,100.964 132.649,100.891 132.649,100.828 C132.649,100.745 132.675,100.672 132.727,100.61 C132.811,100.547 132.878,100.516 132.93,100.516 L134.102,100.516 C134.425,99.5367 134.962,98.693 135.712,97.9846 C136.451,97.2555 137.248,96.8909 138.102,96.8909 C138.561,96.8909 138.941,97.0055 139.243,97.2346 C139.566,97.4534 139.732,97.7398 139.743,98.094 C139.743,98.4794 139.66,98.8232 139.493,99.1252 C139.295,99.3961 139.05,99.5367 138.759,99.5471 C138.529,99.5471 138.337,99.4664 138.18,99.3049 C138.024,99.1435 137.946,98.9534 137.946,98.7346 C137.946,98.5471 138.066,98.3752 138.305,98.219 C138.545,98.0627 138.66,97.8857 138.649,97.6877 C138.649,97.5419 138.514,97.4742 138.243,97.4846 L138.196,97.4846 C138.165,97.5055 138.134,97.5107 138.102,97.5002 C137.873,97.5002 137.68,97.5575 137.524,97.6721 C137.368,97.7763 137.222,97.9638 137.087,98.2346 C137.045,98.3075 137.011,98.3805 136.985,98.4534 C136.959,98.5263 136.93,98.607 136.899,98.6956 C136.868,98.7841 136.842,98.844 136.821,98.8752 C136.811,98.9377 136.79,99.068 136.759,99.2659 C136.717,99.4534 136.68,99.6148 136.649,99.7502 C136.566,100.146 136.509,100.401 136.477,100.516 L137.555,100.516 C137.639,100.516 137.714,100.545 137.782,100.602 C137.85,100.659 137.884,100.732 137.884,100.821 C137.884,100.909 137.85,100.985 137.782,101.047 C137.714,101.11 137.639,101.141 137.555,101.141 L136.305,101.141 "/>
<path class="Beam" fill-rule="evenodd" d="M141.731,90.8465 L228.991,90.8465 L228.991,93.3465 L141.731,93.3465 L141.731,90.8465 "/>
<path class="Beam" fill-rule="evenodd" d="M141.731,87.0965 L177.025,87.0965 L177.025,89.5965 L141.731,89.5965 L141.731,87.0965 "/>
<path class="Beam" fill-rule="evenodd" d="M193.697,87.0965 L228.991,87.0965 L228.991,89.5965 L193.697,89.5965 L193.697,87.0965 "/>
<path class="Hook" d="M257.009,118.878 C257.311,118.878 257.634,119.362 257.978,120.331 C258.301,121.3 258.463,122.222 258.463,123.097 C258.463,123.836 258.28,124.57 257.916,125.3 C257.541,126.081 257.093,126.758 256.572,127.331 L254.963,129.128 C254.473,129.701 254.03,130.362 253.634,131.112 C253.27,131.841 253.088,132.586 253.088,133.347 L252.463,133.347 L252.463,128.347 L253.088,128.347 C253.442,128.128 253.963,127.774 254.65,127.284 C254.963,127.055 255.431,126.664 256.056,126.112 C256.567,125.643 256.952,125.164 257.213,124.675 C257.483,124.154 257.619,123.628 257.619,123.097 C257.619,121.857 257.259,120.623 256.541,119.393 C256.541,119.393 256.541,119.367 256.541,119.315 C256.541,119.201 256.582,119.107 256.666,119.034 C256.77,118.93 256.884,118.878 257.009,118.878"/>
<path class="Hook" d="M258.395,64.5965 L258.395,59.5965 L259.02,59.5965 C259.02,60.3361 259.166,61.0808 259.458,61.8308 C259.77,62.6329 260.114,63.3361 260.489,63.9402 C260.76,64.3673 261.171,65.0236 261.723,65.909 C262.14,66.5861 262.492,67.2944 262.778,68.034 C263.065,68.7736 263.208,69.5183 263.208,70.2683 C263.208,71.6225 262.927,73.0027 262.364,74.409 C262.27,74.5652 262.145,74.6433 261.989,74.6433 C261.864,74.6433 261.749,74.5913 261.645,74.4871 C261.562,74.4038 261.52,74.3048 261.52,74.1902 L261.52,74.0965 C262.083,72.8048 262.364,71.5288 262.364,70.2683 C262.364,69.6121 262.166,68.909 261.77,68.159 C261.385,67.3881 260.989,66.7736 260.583,66.3152 C260.124,65.784 259.604,65.2111 259.02,64.5965 L258.395,64.5965 "/>
<path class="Hook" transform="matrix(0.7,0,0,0.7,136.468,58.5965)" d="M0,5 L0,0 L0.625,0 C0.625,0.739583 0.770833,1.48438 1.0625,2.23438 C1.375,3.03646 1.71875,3.73958 2.09375,4.34375 C2.36458,4.77083 2.77604,5.42708 3.32813,6.3125 C3.74479,6.98958 4.09635,7.69792 4.38281,8.4375 C4.66927,9.17708 4.8125,9.92188 4.8125,10.6719 C4.8125,12.026 4.53125,13.4063 3.96875,14.8125 C3.875,14.9688 3.75,15.0469 3.59375,15.0469 C3.46875,15.0469 3.35417,14.9948 3.25,14.8906 C3.16667,14.8073 3.125,14.7083 3.125,14.5938 L3.125,14.5 C3.6875,13.2083 3.96875,11.9323 3.96875,10.6719 C3.96875,10.0156 3.77083,9.3125 3.375,8.5625 C2.98958,7.79167 2.59375,7.17708 2.1875,6.71875 C1.72917,6.1875 1.20833,5.61458 0.625,5 L0,5 "/>
<path class="Tuplet" d="M209.925,99.4934 C211.508,99.233 212.3,98.6809 212.3,97.8371 C212.3,97.5559 212.219,97.3319 212.058,97.1652 C211.896,96.9986 211.68,96.9152 211.409,96.9152 C211.003,96.9152 210.633,97.1392 210.3,97.5871 L210.144,97.5402 C210.31,97.2173 210.537,96.9595 210.823,96.7668 C211.11,96.5741 211.43,96.4777 211.784,96.4777 C212.18,96.4777 212.511,96.6001 212.777,96.8449 C213.042,97.0897 213.175,97.3996 213.175,97.7746 C213.175,98.108 213.066,98.3788 212.847,98.5871 C212.628,98.7955 212.217,99.0194 211.612,99.259 L211.612,99.2746 C212.258,99.5767 212.581,100.077 212.581,100.775 C212.581,101.462 212.323,102.058 211.808,102.564 C211.292,103.069 210.618,103.321 209.784,103.321 C209.045,103.321 208.675,103.129 208.675,102.743 C208.675,102.483 208.821,102.353 209.112,102.353 C209.279,102.353 209.5,102.452 209.777,102.65 C210.053,102.848 210.284,102.946 210.472,102.946 C210.826,102.946 211.133,102.795 211.394,102.493 C211.654,102.191 211.784,101.795 211.784,101.306 C211.784,100.681 211.625,100.249 211.308,100.009 C210.99,99.7694 210.529,99.6496 209.925,99.6496 L209.925,99.4934 "/>
<path class="Tuplet" d="M157.959,99.4934 C159.543,99.233 160.334,98.6809 160.334,97.8371 C160.334,97.5559 160.254,97.3319 160.092,97.1652 C159.931,96.9986 159.714,96.9152 159.444,96.9152 C159.037,96.9152 158.668,97.1392 158.334,97.5871 L158.178,97.5402 C158.345,97.2173 158.571,96.9595 158.858,96.7668 C159.144,96.5741 159.464,96.4777 159.819,96.4777 C160.214,96.4777 160.545,96.6001 160.811,96.8449 C161.076,97.0897 161.209,97.3996 161.209,97.7746 C161.209,98.108 161.1,98.3788 160.881,98.5871 C160.662,98.7955 160.251,99.0194 159.647,99.259 L159.647,99.2746 C160.293,99.5767 160.616,100.077 160.616,100.775 C160.616,101.462 160.358,102.058 159.842,102.564 C159.326,103.069 158.652,103.321 157.819,103.321 C157.079,103.321 156.709,103.129 156.709,102.743 C156.709,102.483 156.855,102.353 157.147,102.353 C157.313,102.353 157.535,102.452 157.811,102.65 C158.087,102.848 158.319,102.946 158.506,102.946 C158.86,102.946 159.168,102.795 159.428,102.493 C159.688,102.191 159.819,101.795 159.819,101.306 C159.819,100.681 159.66,100.249 159.342,100.009 C159.024,99.7694 158.563,99.6496 157.959,99.6496 L157.959,99.4934 "/>
<path class="Bracket" fill-rule="evenodd" d="M36.755,89.1402 C36.755,83.2993 32.7322,77.6218 32.7322,72.0261 C32.7322,69.2077 33.8293,66.4711 37.2122,64.0204 C37.2579,63.9898 37.2807,63.9387 37.2807,63.9081 C37.2807,63.8162 37.0293,63.7345 36.8465,63.7345 C36.755,63.7345 36.595,63.7447 36.4807,63.8162 C32.0922,66.9613 30.6293,70.5965 30.6293,74.2725 C30.6293,80.1951 34.9265,85.9134 34.9265,91.5909 C34.9265,94.4092 33.8293,97.0641 30.4465,99.5148 L30.4465,99.5965 L30.4465,99.6782 C33.8293,102.129 34.9265,104.784 34.9265,107.602 C34.9265,113.28 30.6293,118.998 30.6293,124.92 C30.6293,128.597 32.0922,132.232 36.4807,135.377 C36.595,135.448 36.755,135.458 36.8465,135.458 C37.0293,135.458 37.2807,135.377 37.2807,135.285 C37.2807,135.254 37.2579,135.203 37.2122,135.173 C33.8293,132.722 32.7322,129.985 32.7322,127.167 C32.7322,121.571 36.755,115.894 36.755,110.053 C36.755,106.336 35.2922,102.782 30.995,99.5965 C35.2922,96.4106 36.755,92.8571 36.755,89.1402"/>
</svg>
